<?xml version="1.0" ?>
<svg xmlns="http://www.w3.org/2000/svg" xmlns:ev="http://www.w3.org/2001/xml-events" xmlns:xlink="http://www.w3.org/1999/xlink" baseProfile="full" height="500px" version="1.1" viewBox="-80.19734133273012 -66.79899174792403 958.3781785135211 797.5979834958481" width="600px">
	<defs/>
	<path d="M 304.01561578038434,0.0 L 424.74798897836234,82.69156564641139 L 427.84139367228374,129.05760250744942 L 427.84139367228374,155.93528975712798 L 404.675860024394,164.89365903821508 L 374.8916013334751,173.85159491588473 L 351.7260676855865,196.24455480961234 L 336.8339383401264,225.3513787560721 L 331.86989655908536,261.16892486843426 L 310.3590421707224,258.9305295007996 L 280.574785480971,254.45366084498104 L 242.51712248762237,245.49959557894343 L 211.07818253613536,236.54510291228206 L 191.22201140963483,216.3959181081236 L 177.9845633248691,178.33040271850498 L 166.40179650092512,162.65410709820029 L 143.23626285290914,158.17492245857818 L 118.41604794432564,158.17492245857818 L 100.03539639190004,142.54606582612237 L 134.3003922347445,23.830150360527455 L 204.67011917926428,27.49006619458721 L 269.9805826006404,2.492181988277366 L 304.01561578038434,0.0" fill="none" stroke="#000000" stroke-width="0.7979834958480609"/>
	<path d="M 424.74798897836234,82.69156564641139 L 449.12442856417647,94.13468140460373 L 702.0874956874325,119.04243255227435 L 682.7703173998508,180.20796514185918 L 718.645077712649,202.92592358191953 L 770.3875220975111,218.9513122830663 L 789.119669555566,246.14324102560363 L 797.9834958480609,259.00875272268013 L 742.1016526192271,264.21947804387094 L 701.397597734534,303.7229156740786 L 691.1813589260811,329.6762874476912 L 676.0435427590035,314.8823455228965 L 654.5326903716818,301.4554414957276 L 631.3671567237926,290.2656140121892 L 623.0937504201954,252.21518484757723 L 614.8203461176389,225.3513787560721 L 583.3814081671932,238.7837643747058 L 540.3597013916359,238.7837643747058 L 494.02863409573075,245.49959557894343 L 441.07884175692266,256.6921072577232 L 398.05713498149106,256.6921072577232 L 366.61819703091913,256.6921072577232 L 331.86989655908536,261.16892486843426 L 336.8339383401264,225.3513787560721 L 351.7260676855865,196.24455480961234 L 374.8916013334751,173.85159491588473 L 404.675860024394,164.89365903821508 L 427.84139367228374,155.93528975712798 L 427.84139367228374,129.05760250744942 L 424.74798897836234,82.69156564641139" fill="none" stroke="#000000" stroke-width="0.7979834958480609"/>
	<path d="M 691.1813589260811,329.6762874476912 L 676.7911891977876,366.2270043312121 L 668.7423649111056,441.2975191392745 L 647.5854528150405,466.3143129956276 L 622.7490775522103,477.8892727103791 L 595.8430062050777,478.20000342238313 L 569.3968683099866,468.5672160756232 L 563.6477068340707,459.24469089061955 L 557.4386141307708,456.75860533971263 L 550.2877869548862,420.02634075194374 L 522.1582115258292,395.42348133273697 L 495.6833153564251,382.00237365318003 L 449.3522460594786,377.52845564491804 L 414.60394558764483,384.2392924272565 L 384.81968689672533,368.5803004645453 L 378.20096385498994,341.7332539762745 L 361.65415324883674,332.7833815549768 L 333.52457781977915,335.02089059726376 L 333.52457781977915,292.5036332276057 L 331.86989655908536,261.16892486843426 L 366.61819703091913,256.6921072577232 L 398.05713498149106,256.6921072577232 L 441.07884175692266,256.6921072577232 L 494.02863409573075,245.49959557894343 L 540.3597013916359,238.7837643747058 L 583.3814081671932,238.7837643747058 L 614.8203461176389,225.3513787560721 L 623.0937504201954,252.21518484757723 L 631.3671567237926,290.2656140121892 L 654.5326903716818,301.4554414957276 L 676.0435427590035,314.8823455228965 L 691.1813589260811,329.6762874476912" fill="none" stroke="#000000" stroke-width="0.7979834958480609"/>
	<path d="M 50.82257970575288,162.6229854227238 L 100.03539639190004,142.54606582612237 L 118.41604794432564,158.17492245857818 L 143.23626285290914,158.17492245857818 L 166.40179650092512,162.65410709820029 L 177.9845633248691,178.33040271850498 L 191.22201140963483,216.3959181081236 L 211.07818253613536,236.54510291228206 L 242.51712248762237,245.49959557894343 L 280.574785480971,254.45366084498104 L 310.3590421707224,258.9305295007996 L 331.86989655908536,261.16892486843426 L 333.52457781977915,292.5036332276057 L 333.52457781977915,335.02089059726376 L 305.39500038968134,335.02089059726376 L 278.9201042202767,346.20803050771525 L 247.48116426879022,352.91999403783916 L 214.387545057524,375.29145640864766 L 179.63924458556343,395.42348133273697 L 148.20030463407699,404.37035197006236 L 118.41604794432564,420.02634075194374 L 96.81586483942115,437.4126252016432 L 89.22697400509716,389.854934417137 L 50.132681752664745,355.0337817364548 L 0.0,361.71870223884673 L 7.358926333403672,327.51425469747403 L 44.15355577551207,263.7528498859346 L 44.3835202765592,252.16459582641883 L 25.756239941813245,239.56446801352368 L 28.515838429468687,211.17216900657382 L 40.93402606091523,180.7526076113316 L 50.82257970575288,162.6229854227238" fill="none" stroke="#000000" stroke-width="0.7979834958480609"/>
	<path d="M 226.9768626805864,664.0 L 92.21653699361009,646.072493583251 L 66.69026377769111,627.134211444838 L 66.69026377769111,589.4847953999259 L 2.5296317615081203,489.46351779973133 L 40.244123657499316,472.29609459044605 L 52.89227801509318,469.0333292116009 L 96.81586483942115,437.4126252016432 L 118.41604794432564,420.02634075194374 L 148.20030463407699,404.37035197006236 L 179.63924458556343,395.42348133273697 L 182.94860710707835,422.26280374641277 L 184.60328636673128,440.15354023173865 L 192.8766926703286,469.2223289507361 L 206.1141407549675,482.637166165257 L 244.1718037483167,491.5798572831826 L 273.9560604381943,502.75761615992707 L 315.3230859529316,496.0510395145459 L 351.7260676855865,491.5798572831826 L 374.8916013334751,496.0510395145459 L 359.9994719881424,522.8758981961697 L 363.30883450953047,554.1666949731433 L 369.8243556356173,590.7086094259988 L 307.00517876883384,598.8784522197984 L 294.5869911374501,613.0068674658263 L 284.92840199365907,630.2389803303674 L 270.9004495049138,647.3142826755529 L 245.14420956303772,661.5166382950332 L 226.9768626805864,664.0" fill="none" stroke="#000000" stroke-width="0.7979834958480609"/>
	<path d="M 557.4386141307708,456.75860533971263 L 550.7695879754932,460.0992739299827 L 542.7207636890008,469.4994411836734 L 518.5742886044228,550.5853693028363 L 447.28469698079385,580.6341425970342 L 369.8243556356173,590.7086094259988 L 363.30883450953047,554.1666949731433 L 359.9994719881424,522.8758981961697 L 374.8916013334751,496.0510395145459 L 351.7260676855865,491.5798572831826 L 315.3230859529316,496.0510395145459 L 273.9560604381943,502.75761615992707 L 244.1718037483167,491.5798572831826 L 206.1141407549675,482.637166165257 L 224.31563062077424,471.4582025481551 L 250.7905267901789,455.80652765195515 L 268.99201865702645,424.49923993962216 L 282.22946674166536,399.8969702746565 L 293.81223356573616,384.2392924272565 L 318.6324484743197,359.63171336607263 L 333.52457781977915,335.02089059726376 L 361.65415324883674,332.7833815549768 L 378.20096385498994,341.7332539762745 L 384.81968689672533,368.5803004645453 L 414.60394558764483,384.2392924272565 L 449.3522460594786,377.52845564491804 L 495.6833153564251,382.00237365318003 L 522.1582115258292,395.42348133273697 L 550.2877869548862,420.02634075194374 L 557.4386141307708,456.75860533971263" fill="none" stroke="#000000" stroke-width="0.7979834958480609"/>
	<path d="M 333.52457781977915,335.02089059726376 L 318.6324484743197,359.63171336607263 L 293.81223356573616,384.2392924272565 L 282.22946674166536,399.8969702746565 L 268.99201865702645,424.49923993962216 L 250.7905267901789,455.80652765195515 L 224.31563062077424,471.4582025481551 L 206.1141407549675,482.637166165257 L 192.8766926703286,469.2223289507361 L 184.60328636673128,440.15354023173865 L 182.94860710707835,422.26280374641277 L 179.63924458556343,395.42348133273697 L 214.387545057524,375.29145640864766 L 247.48116426879022,352.91999403783916 L 278.9201042202767,346.20803050771525 L 305.39500038968134,335.02089059726376 L 333.52457781977915,335.02089059726376" fill="none" stroke="#000000" stroke-width="0.7979834958480609"/>
</svg>
