<?xml version="1.0" ?>
<svg xmlns="http://www.w3.org/2000/svg" xmlns:ev="http://www.w3.org/2001/xml-events" xmlns:xlink="http://www.w3.org/1999/xlink" baseProfile="full" height="600px" version="1.1" viewBox="-80.79735941823037 -181.704 960.5283130187645 2171.408" width="266px">
	<defs/>
	<path d="M 573.6342854989731,760.2327222857142 L 574.1428607465302,761.5950856854143 L 574.0492758055997,769.7353094447785 L 570.8673918878433,779.7684256766202 L 566.5624900368804,787.9669415447564 L 560.6666464534003,795.4186356604586 L 554.1625021119562,799.3922875221493 L 547.6583573177714,797.3434242790436 L 546.0438266747145,809.1243148812752 L 545.9040069578242,808.9216722254703 L 535.7968471938483,794.2704115554005 L 533.3402453053009,788.1537364474772 L 532.1470387435153,780.2037246194701 L 532.0066620278639,774.271208912541 L 533.0594910596743,769.0212631499414 L 528.8481741181126,769.751327562823 L 522.4376139572263,771.8482450080558 L 516.6821478504654,770.6367071197832 L 511.20743558214195,768.8037943492121 L 508.4700798551288,769.0989303219174 L 506.7153643949518,770.1241209058792 L 505.38178111751654,771.5220653899277 L 503.69725442233846,771.9103741224748 L 501.6617843093701,769.2076643177745 L 499.69650336856535,768.8193279912701 L 497.21650549647785,769.922192028547 L 492.79462266712756,775.6534725417993 L 489.9168898173001,778.0606689057093 L 486.61802478473464,779.2409166273504 L 482.9682171487537,779.986318486023 L 476.44067584862165,779.7689111346273 L 471.4338877301487,777.6879518116068 L 467.2927599607241,777.1288689172858 L 463.15163137700233,777.470531583172 L 459.4316353831795,778.9303287441599 L 456.13277035061407,780.980164458797 L 449.39466316269346,786.3837579344251 L 447.96749513671347,788.2468912031869 L 446.2829684415354,789.4578805232377 L 444.6686301041461,790.2651853890371 L 441.7908968471843,790.9948502591005 L 440.1765589169824,791.6624034722132 L 438.9833523551968,792.3765184124468 L 436.31618539318634,795.419121064191 L 402.0407449787595,783.3715026243829 L 395.84075111282453,778.6507972536288 L 378.6445407431624,760.1351209831234 L 365.9170055770973,760.2283430334597 L 363.4604036885499,763.7550716834668 L 358.6173894907568,768.4620553537425 L 355.52909075316734,768.9591294085154 L 352.7215458540189,767.4212866487065 L 348.7909835652467,760.9585729627374 L 345.53891090695265,757.4005130358055 L 337.8883522171721,752.7698864485309 L 329.60609586402575,745.6830237728174 L 328.13213505663623,743.1805545799469 L 327.3600602704297,740.8644607404887 L 326.8687397298763,738.7814127263813 L 324.2717611256774,735.128035562516 L 323.5698751044717,733.371182107508 L 323.0551585803517,730.8212717164188 L 321.93214078354043,726.8405881513191 L 312.4566778686085,712.5938521640126 L 303.6831013820697,702.8856501277207 L 298.348766236534,698.4041196891534 L 294.5351850870093,696.1320350828629 L 289.34122787863805,695.9141568066719 L 271.48992386201695,681.7805810091736 L 255.4167312891377,661.6609030354953 L 251.76692324596937,646.4240270725583 L 252.1178662565722,642.0917939556653 L 250.64390544915807,637.5096947204671 L 248.46805862056473,634.1429085104214 L 241.70655544907558,626.53538382558 L 240.7941031329204,624.0096037756912 L 241.42580120347355,621.8578827569357 L 242.75938448088604,620.2674032370492 L 244.51409994106308,612.7195302720662 L 243.25070461430317,587.1331085581625 L 245.14579719729636,577.0186721407675 L 246.68994676968293,577.455770752373 L 250.36315120355795,579.3133837562721 L 255.55710841192735,582.9815159661739 L 265.45370310246295,585.4787679136135 L 271.91105563759413,584.6047481539176 L 280.0061420865204,582.0450048594242 L 287.095191877883,578.3299525664955 L 288.4989643274572,579.2353345178282 L 291.23632046160475,584.5579247294464 L 293.06122468678257,586.4151956367274 L 296.1495234243721,588.475257574189 L 305.3676280772459,591.3778842154575 L 308.2453609270468,590.4103666342191 L 309.78951090659615,587.975858707457 L 309.92988762224957,585.6972698943383 L 310.35101939782675,584.1052991645367 L 311.8249802052409,582.7786071383742 L 317.3698808313759,578.6577661123428 L 320.31780244617767,577.986526302203 L 325.0438363190202,578.048967619294 L 340.7660854741604,580.9211610729307 L 344.83702488574505,579.7036270353069 L 347.8083428912516,577.1123367013553 L 349.5396619606992,573.9276204962971 L 351.3879621694191,566.6048988093585 L 353.2830547524123,564.0283433687607 L 356.65210854995206,561.6077865539446 L 400.07546403795476,543.9252992167873 L 403.6550833161223,538.4720822472467 L 403.93583756174894,534.8465931191333 L 403.6550833161223,526.4066339095856 L 401.54942484534047,522.2015933812006 L 382.08378289851754,505.3924731582319 L 381.38189687730994,503.29668161616826 L 382.43472590911847,501.79514962771844 L 385.38264752392024,500.85666216332055 L 390.015096241061,500.43433516992695 L 395.6301852250341,499.2924647731712 L 401.1984822418985,496.9147637416942 L 405.1992328885107,491.626980064444 L 410.95469940243436,485.57173100798235 L 415.9380907230417,481.97255320156023 L 423.5184610549842,469.34146357834067 L 423.3780839321699,460.66790318039415 L 426.7003449482774,464.9109906315447 L 426.91091083606597,466.6018320045989 L 426.91091083606597,468.87182694741404 L 426.63015659046397,470.9381874769166 L 426.98109919390595,473.9436055835546 L 428.31468328564205,477.04269649099825 L 431.75392503385905,479.9850356926075 L 436.66712799662645,480.6110364475211 L 444.8791959919612,478.73300414000585 L 449.6754178154582,475.66535360761543 L 453.39541421644003,471.78348512900243 L 455.992392820637,467.6820533438931 L 458.87012607760073,464.2690779367464 L 465.4678557355708,461.38816481251087 L 474.56897924917047,462.2649881360221 L 473.8904896186942,464.1594821739447 L 476.60444936213884,475.72796057890486 L 489.28519215393436,494.8810870472681 L 492.16292500373345,503.64077513329903 L 491.50783135679916,508.2388130122509 L 502.6444249833671,506.65927692768867 L 508.9614003957106,504.3602320147724 L 513.5938487056867,501.5136056839029 L 515.418752523679,498.7919081504149 L 514.15535760408,496.8678335763886 L 512.8217739195047,495.17832309368634 L 512.7515855616667,493.2540682511917 L 517.734976882274,492.2371459987956 L 527.0700622672308,491.939886671896 L 555.1221120178589,497.10248274130436 L 562.5621048198244,495.66328286765037 L 570.3530410395535,493.2227785022056 L 574.2602069376229,493.566961618268 L 574.4208723923389,493.5811149014135 L 574.2832377052532,496.86734515200914 L 577.886253404545,512.1477884057151 L 578.6540794070388,520.6998913805744 L 579.0092713377534,524.6554035196317 L 576.0613497723515,529.954279599343 L 565.5330570446139,540.2998353494767 L 561.0877782349772,546.1746240342787 L 557.4379705179023,554.219754957266 L 556.1277831555246,560.5921808021989 L 559.7307988548013,604.2961184283513 L 562.0236267390143,617.1793282352121 L 571.6160705099759,645.161320996806 L 571.6518684904037,649.2025934094909 L 571.6628629804582,650.4436675728476 L 569.2296576848721,656.7067538150185 L 565.3926800859268,660.6323504330105 L 559.3096670732792,664.3083410781818 L 552.7587298085988,667.0806788087251 L 530.6727127190343,671.9084340560009 L 532.3572393924895,680.4723218050502 L 531.0470515773729,696.7229256361338 L 534.2289354951295,705.6858569665167 L 539.2825155155106,707.9884964775656 L 542.7451542560641,711.5977653748838 L 547.6232858151604,720.9317019636716 L 548.5006204281315,722.6101769174496 L 549.9979776724175,727.2444089807154 L 550.9338257237175,737.0708780661224 L 551.8228813045599,740.3354506990798 L 555.0515576927986,743.0712624625038 L 562.5851354792632,744.2836619708015 L 566.0009812966334,746.5529244716472 L 571.3821086103469,754.1990492492189 L 573.6342854989731,760.2327222857142" fill="none" stroke="#000000" stroke-width="1.808"/>
	<path d="M 586.3556796950353,476.43179940738474 L 574.8447464454624,483.4587220792326 L 574.4208723923389,493.5811149014135 L 574.2602069376229,493.566961618268 L 570.3530410395535,493.2227785022056 L 562.5621048198244,495.66328286765037 L 555.1221120178589,497.10248274130436 L 527.0700622672308,491.939886671896 L 517.734976882274,492.2371459987956 L 512.7515855616667,493.2540682511917 L 512.8217739195047,495.17832309368634 L 514.15535760408,496.8678335763886 L 515.418752523679,498.7919081504149 L 513.5938487056867,501.5136056839029 L 508.9614003957106,504.3602320147724 L 502.6444249833671,506.65927692768867 L 491.50783135679916,508.2388130122509 L 492.16292500373345,503.64077513329903 L 489.28519215393436,494.8810870472681 L 476.60444936213884,475.72796057890486 L 473.8904896186942,464.1594821739447 L 474.56897924917047,462.2649881360221 L 465.4678557355708,461.38816481251087 L 458.87012607760073,464.2690779367464 L 455.992392820637,467.6820533438931 L 453.39541421644003,471.78348512900243 L 449.6754178154582,475.66535360761543 L 444.8791959919612,478.73300414000585 L 436.66712799662645,480.6110364475211 L 431.75392503385905,479.9850356926075 L 428.31468328564205,477.04269649099825 L 426.98109919390595,473.9436055835546 L 426.63015659046397,470.9381874769166 L 426.91091083606597,468.87182694741404 L 426.91091083606597,466.6018320045989 L 426.7003449482774,464.9109906315447 L 423.3780839321699,460.66790318039415 L 429.2973235524763,449.7057290875269 L 430.56071847207346,447.9358277031571 L 432.0346792794876,446.80806006601335 L 433.4384517290618,446.00920497785694 L 434.7018470558217,444.7404009363102 L 435.8950532104464,443.00160134757056 L 437.7901457934112,440.99640026547706 L 446.42334515716226,433.63265627123064 L 447.6867404839487,431.75232537308057 L 448.31843774015545,428.7436038601039 L 447.8973063717373,422.78814691774176 L 447.96749513671347,418.13284347029577 L 448.45881527013063,413.8689047687488 L 449.8157949382725,410.67063992326587 L 450.7048504565639,407.3937095341378 L 450.5644737409105,403.724469125792 L 446.63391104497737,392.71464110654256 L 444.6686301041461,388.82437347407057 L 439.1939182429854,384.745442625578 L 425.85808139709656,382.4077058797823 L 415.3063930596494,372.5845155402362 L 411.51620789369144,366.5732377121453 L 408.4279091560754,364.28148438684303 L 405.83093014471564,364.68961436218314 L 402.7426314071261,366.5732377121453 L 399.23320048677203,367.9858945689921 L 394.0860356526475,368.3312021578388 L 394.22641318262265,367.16969888134474 L 400.8241428405947,357.9549044692233 L 403.37432907049373,349.8685469575594 L 402.5320655193375,345.78546559629825 L 400.26263353501395,340.9480203180387 L 401.6898023753175,336.18850886706355 L 413.8324322522618,318.6690328827276 L 417.13129728482727,315.21132713247295 L 421.2022366964138,312.0676872246233 L 426.91091083606597,308.51506305465983 L 434.8422237714751,302.03774767178703 L 439.5448612535901,292.8544295930603 L 436.24599622104927,282.5992125808628 L 422.60600914598797,276.7783092302552 L 418.6052580922149,275.7398932453032 L 416.2890341408073,273.3325464456228 L 414.44073352492467,270.56312306464184 L 411.7969629536171,268.47018679594487 L 408.52149390461824,267.7777610659745 L 397.73584369581584,268.47018679594487 L 346.3109861002954,243.5034706388743 L 340.39174607282814,241.61377337849797 L 329.7464729868381,240.14919323584402 L 322.0491215156518,247.66047607051226 L 295.2370715153778,246.43231720670755 L 292.359338258416,247.44004008444486 L 289.41141623645336,249.53412971776498 L 282.8838753434841,256.2879659926471 L 280.14651920930817,258.2399013469306 L 277.76010649292624,259.1843495671454 L 275.86501390993305,259.5621234080496 L 274.25067597973305,260.16025621595287 L 273.03407343440546,260.85281902045443 L 270.7178490758351,263.95346040180186 L 259.27710481293565,262.69434713475243 L 252.88994104275412,259.1056468522024 L 249.87183066297615,256.91763293480005 L 248.95937875398187,254.44612877445778 L 250.43333956136948,250.19539701845426 L 251.48616859317994,245.1726257711359 L 251.76692324596937,242.9680659543185 L 251.69673448096853,240.35392283744085 L 252.04767789873225,238.54281485902925 L 253.0303181655665,236.66862134489003 L 252.88994104275412,231.40778854449965 L 251.27560311255033,223.12129266048822 L 245.35636308508495,202.34987621114254 L 243.67183638990684,192.70102778449476 L 243.3910821442802,185.54164312256916 L 244.02277980767246,180.65230316522175 L 243.5314588599298,165.12843085989581 L 242.54881859309558,160.0155255250813 L 241.28542367349843,156.32244566158542 L 234.12618511713498,147.35655284781737 L 233.42429909592929,145.24105204588062 L 234.19637347497493,143.45699342735116 L 238.4076904165347,139.43071254790777 L 239.88165122392425,136.90420134841239 L 241.846932164729,130.93465103725086 L 243.04013872651458,128.4707541435199 L 244.65447706387735,126.25942794224835 L 246.36240014978296,124.44288658286972 L 248.0937192192571,122.12074490326582 L 249.38051052956092,120.130225224719 L 252.19222762627308,113.97048686784755 L 255.11221491621473,113.03568192348581 L 272.2382364736371,102.88999599973734 L 276.40276136591666,98.87522256376862 L 276.4963458541063,98.74876656162037 L 287.7265242808291,90.92345471098136 L 309.81254137043345,91.58748250921131 L 321.3234737144755,88.2514130206956 L 337.60723216157936,66.53608013534014 L 347.34005334400297,59.47947997852032 L 358.9913630994729,66.21966839983531 L 368.3498449708169,76.4700534487788 L 390.95057878293625,88.94711084260518 L 398.5777415103294,98.68553809682284 L 398.671326451258,98.68553809682284 L 398.671326451258,98.74876656162037 L 398.71811873757775,98.8752227166689 L 411.4456536872333,129.6390519674596 L 413.9256519060954,133.09783327820386 L 420.00866491870516,138.98809173808624 L 422.2547003324208,143.6933270356145 L 422.11432337373554,148.74528019333988 L 417.43508221169316,155.9115878944068 L 416.8735734714443,159.82565266164636 L 418.97923192647465,163.64463505305176 L 426.0448854608686,169.70372093104515 L 428.6652606383781,173.4112791114599 L 429.7414861011287,178.12803422162847 L 428.9460150085139,186.3770069158628 L 429.6011086897027,190.71370459025724 L 433.5316712295879,200.7098823774764 L 437.22827141709587,204.85579180138532 L 442.6093982780326,205.65969990642427 L 473.5391809692295,204.91884467633358 L 480.5112500154338,206.10105303900662 L 536.4749713615461,247.18761982001737 L 544.0319382115526,255.3368206357564 L 547.6583573177714,259.24682069344664 L 556.3149530374329,271.11338481866306 L 573.440974594895,308.3102073055403 L 578.3073851860671,324.5144968483442 L 579.4771951370604,335.2611788020371 L 579.5707800601922,354.7200752249176 L 582.3315322141837,366.0704570528808 L 596.5564246767394,403.3946711624589 L 598.662083131732,415.4831241688255 L 600.9081185454476,423.4616101500274 L 600.9081185454476,431.15637858845696 L 596.1352928951643,442.24917301881726 L 592.438692707645,447.01119836822176 L 589.1632243017008,449.4703016024783 L 586.4024721655195,452.80628621083537 L 584.2500212400049,460.11938002422943 L 584.3436057282324,464.5190924068107 L 586.6364340651464,471.986490624244 L 586.3556796950353,476.43179940738474" fill="none" stroke="#000000" stroke-width="1.808"/>
	<path d="M 600.061194886354,950.1874768005686 L 603.6220782111334,951.8535707548411 L 609.7986761647228,952.5029110898371 L 615.5073503190431,952.2246236123187 L 616.6810986917268,952.3993134277695 L 620.7013077508522,952.997639416929 L 625.6145103598053,956.7697364838626 L 630.2469590513655,966.4147522314524 L 638.997139711967,1005.4650803632244 L 647.7473203725684,1039.8181108202725 L 654.2982576372488,1053.606396030881 L 660.3455717703476,1058.7405802770656 L 665.0137193414565,1062.703388228924 L 676.4310671972976,1065.2316688542821 L 684.3857767652975,1062.055876205599 L 699.4529323382134,1049.4118169424114 L 708.3236095073206,1047.2264069456783 L 708.7178297213563,1047.1292827795005 L 732.6287504430748,1050.5838768041085 L 755.1358993142144,1057.2762849165717 L 762.71626957111,1064.6150299593487 L 766.4128697586691,1075.8363354820822 L 766.6000396405509,1091.6763344745873 L 767.3955102804136,1119.9197516867855 L 764.6347581442323,1132.5718741124488 L 756.8204259876698,1141.804426737441 L 761.2657047973064,1145.4353026328026 L 762.9502314707769,1149.9272777215683 L 763.8392875043714,1154.7263551748729 L 765.804568547938,1159.1865098250137 L 778.7192736481161,1171.426265432302 L 790.7449227146636,1186.059764719681 L 795.3773709535076,1194.4193198121695 L 798.3252929716105,1204.8048228449106 L 798.9335941823038,1216.47755972517 L 797.3426524497752,1227.379227347818 L 792.5230343290608,1248.0380547040077 L 791.7275632364857,1254.8810131748314 L 791.5403933545642,1259.820707793917 L 790.8385076555923,1264.453025800132 L 788.4520948305018,1270.4343527835792 L 785.3637954009729,1273.8080352451955 L 781.1992709613962,1276.2001085516279 L 777.0347469746475,1279.5732967821045 L 773.946447545094,1285.6443114472352 L 768.097396432098,1287.2385639850754 L 763.2777787641112,1290.5801541271496 L 760.5638190983742,1295.8525465931627 L 760.8913654862288,1303.2081971470225 L 759.581178123851,1306.6403654504822 L 758.0838208795632,1309.581986001222 L 753.732127010857,1315.7402952202378 L 742.455156113688,1323.429174043646 L 732.3479960729635,1320.9480658297682 L 722.0068736798353,1316.0160180144649 L 709.887639672308,1316.2611029977325 L 703.8514191301446,1320.304790161956 L 701.4182133818177,1325.2975598953863 L 699.6401022201217,1330.9634371197578 L 695.9435015798634,1337.0265563400508 L 691.9193545517487,1339.2923320192535 L 682.5140802099585,1341.5273621355138 L 678.4899331818438,1345.690916575713 L 677.7412545597264,1351.2620463125863 L 679.7065360560338,1367.3894088495617 L 679.9404979556475,1373.5693121848926 L 678.3963482409152,1380.8799326708656 L 676.3842742741124,1385.7733172476383 L 671.4242791946598,1395.0385079265288 L 664.4111082197519,1412.4635212794863 L 663.0952303156334,1415.732114182616 L 659.5390075395401,1418.910085488639 L 654.5790120073467,1421.476723352099 L 649.6658093984295,1424.9291992393678 L 646.1095861696351,1430.6724766599439 L 644.050719732348,1444.141475595484 L 644.986568236387,1455.957443237641 L 644.8929832954585,1468.0750789376502 L 639.8394032750641,1482.1720570589075 L 637.3594055089939,1484.1549966674156 L 630.6680908329008,1486.1988463064351 L 628.5624323779101,1489.4321848132647 L 628.3284704782434,1493.0617516109298 L 629.8258272697905,1499.5880369441918 L 629.9662046812543,1502.576351926731 L 632.1186556067045,1513.521425181163 L 631.4635619255156,1516.2038810154409 L 624.6786627612196,1535.3720740748715 L 622.7601737353585,1539.4848714507216 L 619.4379128589188,1541.8000369823758 L 608.184253205032,1547.1608446974667 L 608.020930420767,1546.9482267811425 L 607.9507420629535,1546.8568533733846 L 599.2239575434987,1538.1144622243055 L 592.5560391205544,1528.699775543017 L 571.1251154185992,1505.900302882945 L 568.1070054459859,1501.723047212421 L 565.6504039646013,1490.362959947018 L 554.1394713438638,1461.9408928007435 L 553.3673965576819,1458.3084815321224 L 552.946265189239,1454.6299439304107 L 553.2270194348675,1451.4243017242525 L 554.5606027123047,1448.600069420667 L 556.876827070875,1445.4550115717682 L 561.5794641458292,1440.7522268583666 L 562.772670707613,1438.8129298713084 L 561.6496529108282,1437.8050679565135 L 559.2632397872588,1437.2095015384175 L 555.2624891406732,1436.8888083066022 L 548.8519289797869,1435.3463897919523 L 547.7990995408175,1433.9413628659458 L 539.3764664720159,1407.8782409149744 L 538.6043916858358,1403.384974678646 L 542.8157082202101,1386.8747230748288 L 542.4647652096072,1377.8523256813332 L 541.2013702900064,1373.1109193279547 L 538.4640141558588,1368.766681721449 L 530.8134554660801,1359.5259406778873 L 529.3394942515297,1355.0883946480305 L 529.4798717815067,1350.1453000486083 L 530.8836438239182,1346.0281337891365 L 532.1470387435153,1343.1810687855525 L 533.6911887230665,1341.0226733014788 L 537.9726940224416,1336.7973880344098 L 529.9711919148955,1335.1898245097243 L 524.2625181824061,1323.1233513264226 L 524.1221406524309,1319.141219623724 L 525.9470448775822,1295.4852067193378 L 525.1983664821051,1289.568988785066 L 523.4202546312233,1285.4301743164085 L 518.9983718018731,1280.8003186038636 L 518.1561086578531,1278.853164771673 L 517.8051656472502,1276.0779202357703 L 518.0157315350388,1273.8391828917966 L 519.0685609740101,1268.839900463253 L 519.9810124758435,1267.3062512324132 L 522.2972368344385,1264.269449501494 L 525.0579889521546,1256.1701679587654 L 525.0579889521546,1254.2985070717775 L 524.1221406524309,1252.457441639591 L 524.3327065402195,1250.6162902139793 L 523.7711976418261,1249.2967458007513 L 520.8232760270243,1246.2585569625012 L 518.4368633106425,1245.322501468436 L 513.3130940528972,1244.5398806991839 L 511.4881906420695,1243.9567418229888 L 509.3825321712877,1242.7290528516307 L 507.4172504161594,1242.4528174149182 L 505.1712152297261,1242.6523209207614 L 502.6444249833671,1242.5755888404994 L 500.3048046412282,1241.010223709218 L 496.865562485875,1236.9890973954616 L 494.8300927800675,1230.6956722432815 L 492.09273664591996,1226.9191342363017 L 490.96971884911056,1222.9886942588846 L 483.81048029277366,1211.1028670296237 L 479.95010676897573,1199.1673599092874 L 470.1704928105496,1176.1463369519615 L 467.8542684519546,1171.826472587908 L 462.3093682329805,1165.1535783989582 L 465.8889875111499,1158.6333434116723 L 483.3893485171681,1153.6809327832416 L 517.8051656472502,1149.5278090554034 L 524.9644042036117,1146.3896016636513 L 530.9538325888925,1141.4664191880556 L 534.8142065198513,1135.2038540384563 L 541.6926904234253,1121.3056997588349 L 529.4798717815067,1094.8194010834557 L 524.2625181824061,1086.6080959673536 L 510.0142294275191,1068.130221998737 L 507.3470620583459,1062.8888723129933 L 502.22329320776345,1046.7750347640188 L 513.3832832250589,1041.0834920599862 L 514.6466781446599,1037.5972065442334 L 516.1206389520456,1031.3643116324424 L 517.1734683910188,1021.8587776778741 L 518.2964857806654,1016.8581865050538 L 521.0338419148148,1008.8620854744184 L 523.9115747646405,1005.5118817256702 L 526.882892770147,1003.520149488763 L 542.8858969852109,998.0848293913676 L 545.6232527121957,997.5134595471183 L 549.2028719903916,996.2008211478561 L 567.2647418948031,985.3428358812654 L 570.7741728151573,983.8135170241002 L 572.809642928101,983.7671738107593 L 575.3364323601609,984.0915794510796 L 591.994530222161,990.2084511300835 L 596.7673560621141,990.702702121977 L 599.0835804206845,988.8183368644246 L 600.6979183508864,985.3582833605743 L 602.3122566882491,974.4200260025572 L 602.171879158274,971.0514146492823 L 600.5575412280721,961.7785060198328 L 600.2767865753092,952.0395808472256 L 600.061194886354,950.1874768005686" fill="none" stroke="#000000" stroke-width="1.808"/>
	<path d="M 561.6960794456686,875.9918934446408 L 578.447762144792,899.6855076487383 L 585.6070006201656,913.5852470261108 L 587.8998289570665,927.10874293295 L 587.6190745869307,937.7200105551901 L 590.8009585046719,945.8543913588563 L 600.061194886354,950.1874768005686 L 600.2767865753092,952.0395808472256 L 600.5575412280721,961.7785060198328 L 602.171879158274,971.0514146492823 L 602.3122566882491,974.4200260025572 L 600.6979183508864,985.3582833605743 L 599.0835804206845,988.8183368644246 L 596.7673560621141,990.702702121977 L 591.994530222161,990.2084511300835 L 575.3364323601609,984.0915794510796 L 572.809642928101,983.7671738107593 L 570.7741728151573,983.8135170241002 L 567.2647418948031,985.3428358812654 L 549.2028719903916,996.2008211478561 L 545.6232527121957,997.5134595471183 L 542.8858969852109,998.0848293913676 L 526.882892770147,1003.520149488763 L 523.9115747646405,1005.5118817256702 L 521.0338419148148,1008.8620854744184 L 518.2964857806654,1016.8581865050538 L 517.1734683910188,1021.8587776778741 L 516.1206389520456,1031.3643116324424 L 514.6466781446599,1037.5972065442334 L 513.3832832250589,1041.0834920599862 L 502.22329320776345,1046.7750347640188 L 507.3470620583459,1062.8888723129933 L 510.0142294275191,1068.130221998737 L 524.2625181824061,1086.6080959673536 L 529.4798717815067,1094.8194010834557 L 541.6926904234253,1121.3056997588349 L 534.8142065198513,1135.2038540384563 L 530.9538325888925,1141.4664191880556 L 524.9644042036117,1146.3896016636513 L 517.8051656472502,1149.5278090554034 L 483.3893485171681,1153.6809327832416 L 465.8889875111499,1158.6333434116723 L 462.3093682329805,1165.1535783989582 L 444.6686301041461,1171.0270151150514 L 430.06939833865636,1171.3191266671095 L 426.4663830769468,1169.7970490807413 L 425.48374199578893,1168.1057818036252 L 423.6588385849593,1163.7235249846747 L 420.2897847874176,1161.4014999429248 L 416.35922249862074,1160.6633439700342 L 409.5509269528867,1160.6018298557497 L 405.5501758991136,1159.5253263675356 L 395.20905344945504,1154.8806423005897 L 399.4203703910186,1147.9741201871761 L 396.12150576561396,1145.4973204081025 L 390.99773650789524,1142.6972723977294 L 380.68001085610234,1140.0201161244888 L 375.6966191283606,1137.0042513330602 L 371.6724716838847,1132.9416988873297 L 360.6528596037252,1114.4702511598903 L 356.58191978497587,1110.990488910847 L 351.1773962816305,1108.8963237730034 L 343.9245729767507,1108.1109826889435 L 337.6777863293835,1106.0782635194075 L 335.50193950078824,1104.1532427591642 L 335.50193950078824,1101.565864967363 L 336.9759003081759,1096.0825259632077 L 337.0460886659893,1093.4329972098567 L 336.7653344203873,1090.5367965852727 L 335.3615619708131,1085.0827300835863 L 335.29137361297506,1082.956363408656 L 335.50193950078824,1081.3075789762247 L 337.11627783815294,1077.1930205696642 L 335.642316623576,1074.4805659195574 L 334.37892170397885,1073.8024234545233 L 330.5185481801809,1072.415275968477 L 326.6581738420612,1073.6945356688072 L 315.5449770133835,1081.1072546918783 L 279.30425565815193,1076.8231517384313 L 269.45445374904864,1080.3675868843716 L 251.20541434757791,1075.0816378680645 L 248.51485099483617,1073.0009666910935 L 244.58428829890303,1068.9626074169691 L 240.44316012231567,1060.715047069055 L 239.3903310905052,1057.153414207165 L 239.0393876727415,1053.6994005634383 L 239.1095768449051,1050.460985636976 L 241.07485778570984,1039.8957218478124 L 241.1450461435214,1036.887570254133 L 240.02202875389938,1022.6304165955258 L 240.37297135733948,1020.6241231016099 L 243.88240227769543,1013.5858484404156 L 244.44391117608876,1002.0841866006447 L 238.4076904165347,999.644473503502 L 236.5125978335453,1000.138604637117 L 233.07335567816367,1000.3393432227626 L 229.84467981776177,998.5480962660835 L 225.14204274278106,994.8109200377443 L 220.6265747577252,993.8842916556636 L 204.34281629705924,995.1506781475135 L 193.29980782619685,991.9691911832645 L 186.77226693320105,988.1078153364423 L 182.98208176724307,983.2573862326051 L 180.87642329646317,977.9119493113575 L 180.03415974527854,973.971924921559 L 179.82359385748995,971.5459080895598 L 180.59566905083275,967.9297812463445 L 190.14132032360652,969.6606184435441 L 191.61528113099223,968.1306859379464 L 193.08924193838175,965.6115750764358 L 193.2296194683569,960.2946357346816 L 193.65075124396057,955.7344743069438 L 195.07791926991592,949.5967389755987 L 198.79791607805856,945.8858006676535 L 209.39639678977713,940.6434990349353 L 212.27413004676546,937.9060872152667 L 213.74809085415308,935.354091041298 L 214.66054276314927,928.9346935444111 L 229.1427933893914,927.820859008464 L 243.1103274914889,929.0584513922321 L 252.04767789873225,927.2639303480012 L 257.8031440055234,924.9123644661616 L 259.9088024763014,922.4368782774479 L 260.1193683640919,921.1062398520768 L 258.64540755670424,920.1469139830726 L 255.97823978036826,919.2494592201032 L 254.7148448607711,917.5473317157852 L 254.29371308516744,916.0617784501588 L 265.1729484496735,906.6519596955302 L 286.744249274441,897.7662615788637 L 296.52386282570626,895.5987101565489 L 316.52761728021966,885.1927867158188 L 319.75629395494707,882.2811073431841 L 333.4664693878199,866.4799042656277 L 339.0815587789577,857.4610480054757 L 345.6792884369278,849.5252054299002 L 349.2589077150953,847.0449220772628 L 352.0898481906267,846.8588940715425 L 354.12531830359313,848.7191303118927 L 357.0732399183949,850.1297498614077 L 360.93361384935184,850.8892937500804 L 363.8113471063155,850.0832469017123 L 366.3381373526745,848.2850829855367 L 373.497375909036,840.9985692904888 L 376.46869391454254,838.9053815186144 L 383.97887548150885,838.1766159262822 L 391.4188682834724,823.784570988813 L 401.47923648752896,815.2057415570968 L 406.0414960325307,812.8939427702497 L 430.3501525842849,806.1594628730641 L 432.45581105506665,804.2040727054043 L 433.5788292590123,802.2020232565594 L 436.31618539318634,795.419121064191 L 438.9833523551968,792.3765184124468 L 440.1765589169824,791.6624034722132 L 441.7908968471843,790.9948502591005 L 444.6686301041461,790.2651853890371 L 446.2829684415354,789.4578805232377 L 447.96749513671347,788.2468912031869 L 449.39466316269346,786.3837579344251 L 456.13277035061407,780.980164458797 L 459.4316353831795,778.9303287441599 L 463.15163137700233,777.470531583172 L 467.2927599607241,777.1288689172858 L 471.4338877301487,777.6879518116068 L 476.44067584862165,779.7689111346273 L 482.9682171487537,779.986318486023 L 486.61802478473464,779.2409166273504 L 489.9168898173001,778.0606689057093 L 492.79462266712756,775.6534725417993 L 497.21650549647785,769.922192028547 L 499.69650336856535,768.8193279912701 L 501.6617843093701,769.2076643177745 L 503.69725442233846,771.9103741224748 L 505.38178111751654,771.5220653899277 L 506.7153643949518,770.1241209058792 L 508.4700798551288,769.0989303219174 L 511.20743558214195,768.8037943492121 L 516.6821478504654,770.6367071197832 L 522.4376139572263,771.8482450080558 L 528.8481741181126,769.751327562823 L 533.0594910596743,769.0212631499414 L 532.0066620278639,774.271208912541 L 532.1470387435153,780.2037246194701 L 533.3402453053009,788.1537364474772 L 535.7968471938483,794.2704115554005 L 545.9040069578242,808.9216722254703 L 546.0438266747145,809.1243148812752 L 545.8802452506353,810.3177345399696 L 548.3134509989621,828.4062507925061 L 553.8912118135661,851.9373933930816 L 555.9874057440986,860.7770186608515 L 561.6960794456686,875.9918934446408" fill="none" stroke="#000000" stroke-width="1.808"/>
	<path d="M 608.184253205032,1547.1608446974667 L 591.1752973630126,1555.2618842310167 L 579.8983269185957,1556.358123557905 L 555.893821255909,1552.7952346806012 L 547.6583573177714,1554.9573674609496 L 540.545910860143,1559.0681424212137 L 525.5255473049723,1557.302083884382 L 516.915744055795,1561.1994880071616 L 510.8795235136315,1568.2321201226766 L 505.73235855230854,1577.5461633934974 L 501.94217342384746,1588.0142549394868 L 500.0236843979864,1598.570854258079 L 492.53689908201926,1600.1525826316622 L 469.93616526993964,1600.852172562628 L 464.4614534680327,1602.5858876226189 L 466.7542813521567,1607.1783468729132 L 473.5391809692295,1642.8963301546323 L 475.87880132387556,1646.4207995551212 L 486.6410554985391,1657.0834627731663 L 507.51046971395357,1691.6340374416027 L 509.33537379884814,1701.8295589986624 L 505.685566081813,1713.539066205938 L 497.8244410020274,1721.6669702264812 L 490.10369378643134,1720.787538121521 L 482.1021922007014,1715.965479125365 L 465.2145861875178,1709.4795414180098 L 465.1637055064003,1709.3232988928464 L 464.2746495809461,1706.593121397707 L 459.36144621101784,1699.2358833113162 L 460.6950303027786,1684.8664072109868 L 459.36144621101784,1680.5560758351405 L 456.8346563718198,1677.0346153073817 L 453.39541421644003,1674.818364625706 L 450.1433419653333,1673.7860961637537 L 443.8965553179661,1673.7860961637537 L 438.14108880401596,1672.6930775759422 L 437.43920278280837,1662.8241931741966 L 435.47392143484086,1658.3292479641552 L 431.33279366544275,1653.621161909627 L 426.98109919390595,1647.4542489082887 L 425.29657249870326,1642.9271896138673 L 422.39544325817286,1630.9994259618538 L 420.14940766460523,1627.9143420347027 L 411.7969629536171,1621.3786475359727 L 401.7599907331291,1610.5087851113444 L 399.13961614539005,1608.7906199405143 L 396.542637541193,1608.7602090276582 L 391.4188682834724,1606.7378471779807 L 383.76830959371836,1600.8982729627674 L 348.27626704110014,1565.6754184683673 L 343.43325243617085,1563.3920863256626 L 340.2747653407433,1562.99629488142 L 328.90420984281815,1559.6471370130075 L 326.1668537086706,1559.4035511037032 L 323.3359132331146,1559.9516178348845 L 314.49214798157493,1562.844066926453 L 308.52611557983624,1562.8592893772452 L 305.01668506664305,1560.7128091777256 L 302.1389514025185,1556.4195012291227 L 292.640092504018,1531.5335560169851 L 288.28839843966864,1521.111562541329 L 281.8310459045109,1511.3575160328844 L 279.58501071807757,1506.799727819459 L 279.0235014125234,1501.052206067416 L 270.7880374336485,1480.8911965100897 L 255.83786306471677,1467.8008897667214 L 254.64465650293116,1466.0002535589656 L 253.59182706395984,1463.4517558520224 L 256.2589948402958,1460.8725709532196 L 257.0310692193415,1458.613738767937 L 257.1714467493166,1455.347362123416 L 255.27635416632532,1448.050465521914 L 253.0303181655665,1443.04261323924 L 249.16994464177233,1437.0567911280493 L 247.95334168928196,1434.4606172832227 L 247.5322099136783,1432.6890134494604 L 248.374473464861,1431.8031815899 L 251.97748913375793,1428.901180237227 L 253.31107281835781,1427.0376786659692 L 253.45144994114747,1426.3044734950918 L 252.88994104275412,1425.6018055292398 L 247.48541794659425,1424.0131197466899 L 245.66051372141638,1422.7146270319706 L 243.67183638990684,1420.6063959558053 L 235.6001459245491,1409.03968228404 L 222.40468660863354,1395.3753047621485 L 220.57978238345567,1392.378905172194 L 220.29902813785176,1390.4983956489798 L 223.45751604760486,1388.1132304566715 L 229.98505653341326,1380.849824671267 L 233.70505334155592,1375.5275778773787 L 236.44240947570535,1370.2658033931275 L 237.63561603748906,1364.9880307380286 L 237.21448426191188,1361.5150244295212 L 235.45976839457208,1356.8022649971092 L 228.37071860320947,1345.1097478291015 L 234.75788237336639,1346.3342573474697 L 235.74052345449965,1345.0179079001275 L 237.3548609775653,1342.5075395873278 L 250.29296203139435,1316.1084035613903 L 253.31107281835781,1312.3706738590774 L 266.99785226766403,1301.2932738943207 L 270.01596305462743,1297.6920667646302 L 272.9872810601321,1293.5234505970586 L 275.72463678711875,1288.1894323673564 L 278.0408607385283,1285.4301743164085 L 280.216707974309,1284.1271240881126 L 286.53368338665246,1283.2532899702462 L 301.08612237070804,1292.3586113343113 L 310.49139692780375,1294.0905311024785 L 320.73893422175485,1294.1671624881885 L 338.73061536119206,1303.315935719496 L 348.41664416391444,1301.4618332706839 L 351.7389055871847,1301.9521830982276 L 356.3713538971873,1304.9707635438137 L 358.68757825575767,1306.0586220654486 L 360.37210495093575,1305.8441175740459 L 361.00380261432804,1304.6183521462035 L 361.5653111055586,1302.6570498067747 L 361.70568863553376,1301.0174482959405 L 362.337386298926,1297.4775162815488 L 371.1811515504675,1300.4198197333817 L 375.46265684984076,1304.87883080993 L 378.57435238532435,1310.56295632777 L 381.7328398879147,1313.0906737732462 L 386.224911075103,1314.6531820972189 L 393.3139608664656,1315.0055039651754 L 396.75320342898164,1315.6795014960571 L 398.9992386154149,1317.7626960221621 L 409.4807385950467,1332.096992957546 L 410.6739447496714,1334.3171189514474 L 442.14183985778715,1375.0687306271063 L 447.4761745961336,1379.9016606319508 L 451.54711400772015,1382.3790734374431 L 461.3267279661462,1384.810457663967 L 464.41502670376224,1385.192737017588 L 466.029365041125,1378.3417284270342 L 467.4331374906992,1375.6805266660335 L 467.64370256416606,1374.3804487135183 L 468.4157777575335,1372.7285238192253 L 470.59162458612866,1370.7553004835208 L 476.0663364472875,1367.389886704883 L 489.14481503111824,1364.421966637159 L 493.42632033049335,1362.5860279019687 L 497.28669426145404,1359.2046184668477 L 498.620277946052,1353.2520232259706 L 498.4097120582388,1348.4158357649976 L 497.5674485070807,1343.1504538287402 L 498.1289578126349,1339.0937948724304 L 502.22329320776345,1337.2719897309717 L 510.22479531530774,1337.7159665642514 L 529.9711919148955,1335.1898245097243 L 537.9726940224416,1336.7973880344098 L 533.6911887230665,1341.0226733014788 L 532.1470387435153,1343.1810687855525 L 530.8836438239182,1346.0281337891365 L 529.4798717815067,1350.1453000486083 L 529.3394942515297,1355.0883946480305 L 530.8134554660801,1359.5259406778873 L 538.4640141558588,1368.766681721449 L 541.2013702900064,1373.1109193279547 L 542.4647652096072,1377.8523256813332 L 542.8157082202101,1386.8747230748288 L 538.6043916858358,1403.384974678646 L 539.3764664720159,1407.8782409149744 L 547.7990995408175,1433.9413628659458 L 548.8519289797869,1435.3463897919523 L 555.2624891406732,1436.8888083066022 L 559.2632397872588,1437.2095015384175 L 561.6496529108282,1437.8050679565135 L 562.772670707613,1438.8129298713084 L 561.5794641458292,1440.7522268583666 L 556.876827070875,1445.4550115717682 L 554.5606027123047,1448.600069420667 L 553.2270194348675,1451.4243017242525 L 552.946265189239,1454.6299439304107 L 553.3673965576819,1458.3084815321224 L 554.1394713438638,1461.9408928007435 L 565.6504039646013,1490.362959947018 L 568.1070054459859,1501.723047212421 L 571.1251154185992,1505.900302882945 L 592.5560391205544,1528.699775543017 L 599.2239575434987,1538.1144622243055 L 607.9507420629535,1546.8568533733846 L 608.020930420767,1546.9482267811425 L 608.184253205032,1547.1608446974667" fill="none" stroke="#000000" stroke-width="1.808"/>
	<path d="M 465.2145861875178,1709.4795414180098 L 464.64862334994285,1709.2621564989568 L 460.15655161703194,1708.5644605133386 L 456.36636648856893,1710.111508300613 L 453.18448302356654,1714.5096490141498 L 454.30750095677485,1716.9056742854905 L 456.9746681520144,1719.3925366828953 L 458.4720249435633,1724.001921080953 L 457.77013924468037,1727.034122345343 L 454.9158021675193,1734.067944493341 L 454.4010854450043,1735.8868355997802 L 455.5241033782107,1737.8268952920334 L 458.84636425465425,1741.979518823216 L 459.64183534730506,1743.7374350705345 L 461.37315449121996,1748.8591982340952 L 463.80635978680596,1751.4652880203328 L 465.1633400724067,1754.5560122498393 L 463.80635978680596,1760.9185184010942 L 457.58296936275883,1768.5219046340019 L 449.16033554275276,1773.3982181640274 L 442.32864390793463,1779.9999852205196 L 440.97166407505955,1792.8370099366862 L 436.9943095174802,1790.4152436238144 L 433.0637469775685,1789.1740317443755 L 429.2267693786251,1789.1740317443755 L 425.57696166160133,1790.4152436238144 L 422.0207384327559,1794.3505392123602 L 421.50602216299114,1798.8605196696085 L 421.6931915921605,1803.1278863821242 L 420.1022498596849,1806.2146360220527 L 412.943010931559,1808.0 L 403.72490647163914,1803.7331502045338 L 390.81020137145913,1792.0802236154195 L 370.0343716442722,1781.1809202166519 L 352.01929405326854,1775.3667489601855 L 336.8585539921498,1770.278656791811 L 329.514168495924,1774.9050851316501 L 328.15092539991565,1775.4535439822607 L 327.70879217353337,1778.8872044234724 L 324.61386139981306,1778.8872044234724 L 322.14528546419285,1770.3025027522701 L 323.6927510774215,1760.5709528620464 L 330.80372339999445,1742.8191057443853 L 323.0663957865825,1739.597161849479 L 320.81888623778303,1737.4967918098805 L 327.70879217353337,1722.4568397976166 L 335.99878598037037,1693.1007320696515 L 336.95674107781184,1686.0033073242219 L 334.00918759349645,1673.8845913821913 L 329.2562577867639,1670.5136447617704 L 322.21897410889625,1669.939838637629 L 312.2341373994484,1666.3055399959892 L 311.57093778624346,1664.8469459226312 L 311.46040436646365,1662.4796054633568 L 310.944582495378,1659.9686370163968 L 309.13920617298726,1657.9358332747183 L 302.94934417280587,1654.300443121094 L 298.4174812056349,1652.5783005345402 L 290.6801535922229,1652.2912697508925 L 287.21677823679534,1649.9231860892141 L 287.21677823679534,1646.2631440459504 L 293.9224621080624,1637.8653096701742 L 298.34379210819253,1633.414459782681 L 302.94934417280587,1630.1836934009057 L 295.101483592353,1622.6442215840723 L 273.8054104942858,1581.714748917159 L 270.9315461073862,1574.4297376388438 L 267.7629262362236,1568.174109733419 L 264.04164017166056,1565.513372891907 L 249.561784364644,1565.0818851817705 L 242.37712339739417,1563.7394492178482 L 237.47681584851776,1561.1263635933606 L 241.08756849332374,1557.5061186665198 L 228.78153359040138,1549.0655931690899 L 226.86562384820627,1552.9263964661636 L 226.20242423500136,1554.6528454161883 L 225.6866023639403,1557.5061186665198 L 224.21282584812744,1552.2070205983243 L 222.0390053967968,1549.6171591624711 L 219.27567397693815,1547.818545955657 L 216.10705410577364,1545.036530152722 L 215.51754359001106,1542.686054452263 L 212.27523507414503,1535.7297535428681 L 208.55394900958385,1529.923909659153 L 206.89594997657346,1531.1235335072658 L 202.40093133173994,1526.516780242813 L 172.55695371767936,1516.869662595218 L 147.50275023268694,1501.9384150526976 L 132.9860501033291,1488.874976607629 L 107.41602520001831,1480.2276916942972 L 92.45719184425359,1468.8872881652383 L 49.386069004903696,1420.7025113825596 L 44.33838371390807,1412.545701990116 L 42.12771848747451,1407.6123036105537 L 36.01154558473355,1381.1780765562755 L 32.69554797145171,1373.9043654743184 L 16.852449068398368,1358.2203929885388 L 11.252097584004176,1350.6773441806686 L 10.478365003760253,1348.315327276234 L 10.478365003760253,1347.6404393061378 L 7.9360999707223385,1346.6280860507743 L 7.9360999707223385,1342.5784126451392 L 19.98422416448457,1336.3102436275447 L 27.389951971294064,1335.6592618926659 L 34.464079971503,1340.5534209841849 L 50.60193435879288,1360.2444808790722 L 54.875887069518065,1366.822050722576 L 60.88152700524274,1380.840914450636 L 63.35010248809752,1389.4376582171246 L 64.38174623024238,1397.5270068703283 L 68.61885416591578,1400.1268036942568 L 78.12471377937901,1397.8881002450712 L 87.63057339284413,1393.3380862218078 L 91.86768132848911,1389.2691123891573 L 94.88892345750979,1335.5387081699714 L 93.5993690062048,1326.7614298875314 L 81.99337758608593,1320.0083506646513 L 66.44503371455862,1304.254718028553 L 54.028465391854546,1286.5153122995914 L 51.780955843056965,1273.7669794096444 L 54.875887069518065,1277.461522537818 L 56.12859719851018,1281.8800314571192 L 57.307618230035345,1287.0222635925506 L 60.99205997228365,1285.935932266467 L 64.38174623024238,1285.935932266467 L 73.1507175858257,1295.929051001506 L 78.78791339258392,1292.8396614654691 L 81.7723111992633,1281.7351705274434 L 82.65657719928893,1267.4878771617462 L 77.01938139253262,1256.0863359719299 L 65.0449458434473,1249.9010695435236 L 54.13899835889735,1252.9696632310222 L 51.780955843056965,1269.347561632722 L 48.53864732721745,1260.193203364005 L 17.11035977758501,1213.7364914689342 L 14.7827761271902,1208.8105302284205 L 14.903747984940514,1208.7989967994774 L 26.180718734320877,1207.723811279165 L 33.48033441347396,1205.1893288074475 L 40.07806407144407,1205.7269603940272 L 46.488624232328476,1207.2937286330912 L 56.10446427005003,1211.1028670296237 L 63.12332570359919,1215.5566331557534 L 67.61539689078941,1214.8502075233719 L 78.37765111602324,1210.0584623467612 L 80.76406383243167,1209.9355895115 L 81.81689286424213,1210.9185619885802 L 81.81689286424213,1212.5926313139628 L 81.67651614859062,1213.8980481287356 L 81.81689286424213,1215.5412766182942 L 83.57160832441917,1217.7065475436789 L 86.44934158138287,1219.979185881802 L 91.50292166696451,1223.1115263627528 L 93.25763712714155,1225.2303217194135 L 93.6787689027206,1227.3950594042094 L 93.25763712714155,1229.590381853014 L 94.19348542684062,1232.5991558973822 L 96.50970978543751,1233.7964611862094 L 100.65083755483559,1234.103456475141 L 105.07272038418584,1235.4388590790231 L 115.81157862587955,1240.9641822398248 L 118.47874558789191,1242.913209089744 L 119.88251803746608,1244.693337594867 L 119.9761031931717,1246.16648623323 L 119.83572566319467,1247.977157208573 L 120.11647990882321,1249.5422461657183 L 121.23949811276884,1251.7516774382198 L 123.27496781857442,1252.4881264743728 L 126.22288943337429,1252.6262092703894 L 129.66213158872944,1251.5061913684763 L 131.90816718232549,1251.5215338921155 L 133.94363729529192,1252.1199036762266 L 134.78590003212452,1252.8870314250976 L 135.06665468491582,1253.7308542254848 L 134.71571167431296,1254.9735422660376 L 135.69835234830808,1257.2133508361355 L 137.1021243907214,1262.9810386691702 L 138.6462743702461,1264.1467456233302 L 140.9624983216537,1264.8829636992295 L 145.19721165394478,1264.530194108401 L 148.5662650443256,1266.3246840402826 L 154.602485396715,1267.5056289997012 L 163.02511927983832,1267.4289452801952 L 175.82284280371877,1276.5379189067185 L 178.91114235565655,1278.0098788244227 L 180.59566905083275,1278.1172074092433 L 182.42057286884975,1277.9178832720875 L 184.24547668684212,1278.163204979859 L 186.49151268759715,1279.3591272613153 L 189.3692455373981,1281.6895383714148 L 191.61528113099223,1282.9773382775234 L 192.87867645775404,1283.2532899702462 L 194.07188301953963,1282.7013846549323 L 195.21829679989105,1282.3947675516645 L 197.04320102504428,1282.7933690544824 L 198.79791607805856,1283.9431607591923 L 201.60546057004794,1287.4383200335733 L 203.2197989074107,1290.4886662744088 L 203.92168492861643,1295.9296539698953 L 203.64093027585352,1298.7954499931318 L 203.00923301962212,1300.7416213039924 L 202.2371582334402,1301.4311859709455 L 201.74583769286033,1302.1207391283674 L 201.81602645783653,1302.9941551295105 L 202.5179128862031,1303.8675528777649 L 209.25601925982662,1305.2005955086952 L 210.94054595500472,1306.2731259249556 L 211.92318662899984,1308.0503981878007 L 211.92318662899984,1311.7272586663676 L 211.221301014955,1317.7626960221621 L 210.6597917094027,1319.6007168018737 L 210.87035759719126,1321.6683882389377 L 212.20394128176463,1328.146391574162 L 212.06356415897687,1331.055787745872 L 211.4318664955827,1333.934347669566 L 210.6597917094027,1336.2003004902565 L 210.6597917094027,1338.5885970904285 L 211.57224361839698,1340.8389742424529 L 214.37978851754534,1343.3035273102573 L 217.8190302657396,1344.4056380314623 L 222.31110145292982,1343.6402865639675 L 228.37071860320947,1345.1097478291015 L 235.45976839457208,1356.8022649971092 L 237.21448426191188,1361.5150244295212 L 237.63561603748906,1364.9880307380286 L 236.44240947570535,1370.2658033931275 L 233.70505334155592,1375.5275778773787 L 229.98505653341326,1380.849824671267 L 223.45751604760486,1388.1132304566715 L 220.29902813785176,1390.4983956489798 L 220.57978238345567,1392.378905172194 L 222.40468660863354,1395.3753047621485 L 235.6001459245491,1409.03968228404 L 243.67183638990684,1420.6063959558053 L 245.66051372141638,1422.7146270319706 L 247.48541794659425,1424.0131197466899 L 252.88994104275412,1425.6018055292398 L 253.45144994114747,1426.3044734950918 L 253.31107281835781,1427.0376786659692 L 251.97748913375793,1428.901180237227 L 248.374473464861,1431.8031815899 L 247.5322099136783,1432.6890134494604 L 247.95334168928196,1434.4606172832227 L 249.16994464177233,1437.0567911280493 L 253.0303181655665,1443.04261323924 L 255.27635416632532,1448.050465521914 L 257.1714467493166,1455.347362123416 L 257.0310692193415,1458.613738767937 L 256.2589948402958,1460.8725709532196 L 253.59182706395984,1463.4517558520224 L 254.64465650293116,1466.0002535589656 L 255.83786306471677,1467.8008897667214 L 270.7880374336485,1480.8911965100897 L 279.0235014125234,1501.052206067416 L 279.58501071807757,1506.799727819459 L 281.8310459045109,1511.3575160328844 L 288.28839843966864,1521.111562541329 L 292.640092504018,1531.5335560169851 L 302.1389514025185,1556.4195012291227 L 305.01668506664305,1560.7128091777256 L 308.52611557983624,1562.8592893772452 L 314.49214798157493,1562.844066926453 L 323.3359132331146,1559.9516178348845 L 326.1668537086706,1559.4035511037032 L 328.90420984281815,1559.6471370130075 L 340.2747653407433,1562.99629488142 L 343.43325243617085,1563.3920863256626 L 348.27626704110014,1565.6754184683673 L 383.76830959371836,1600.8982729627674 L 391.4188682834724,1606.7378471779807 L 396.542637541193,1608.7602090276582 L 399.13961614539005,1608.7906199405143 L 401.7599907331291,1610.5087851113444 L 411.7969629536171,1621.3786475359727 L 420.14940766460523,1627.9143420347027 L 422.39544325817286,1630.9994259618538 L 425.29657249870326,1642.9271896138673 L 426.98109919390595,1647.4542489082887 L 431.33279366544275,1653.621161909627 L 435.47392143484086,1658.3292479641552 L 437.43920278280837,1662.8241931741966 L 438.14108880401596,1672.6930775759422 L 443.8965553179661,1673.7860961637537 L 450.1433419653333,1673.7860961637537 L 453.39541421644003,1674.818364625706 L 456.8346563718198,1677.0346153073817 L 459.36144621101784,1680.5560758351405 L 460.6950303027786,1684.8664072109868 L 459.36144621101784,1699.2358833113162 L 464.2746495809461,1706.593121397707 L 465.1637055064003,1709.3232988928464 L 465.2145861875178,1709.4795414180098" fill="none" stroke="#000000" stroke-width="1.808"/>
	<path d="M 214.98654980831014,40.38934867217163 L 215.38545954668436,46.533695536898705 L 214.5899889068103,45.90053687992647 L 212.48433045181778,49.287814656396286 L 209.11527710489386,56.52038104824002 L 208.3198055595382,60.8402725102442 L 207.47754244918,70.09552532708787 L 207.7582968192912,74.2398809075143 L 209.30244653406322,79.91786318434652 L 217.11677869062385,98.87522256376862 L 231.9967648343306,110.39679949782908 L 239.67072003225906,114.33135341762897 L 247.90618397035686,115.34257849439041 L 252.19222762627308,113.97048686784755 L 249.38051052956092,120.130225224719 L 248.0937192192571,122.12074490326582 L 246.36240014978296,124.44288658286972 L 244.65447706387735,126.25942794224835 L 243.04013872651458,128.4707541435199 L 241.846932164729,130.93465103725086 L 239.88165122392425,136.90420134841239 L 238.4076904165347,139.43071254790777 L 234.19637347497493,143.45699342735116 L 233.42429909592929,145.24105204588062 L 234.12618511713498,147.35655284781737 L 241.28542367349843,156.32244566158542 L 242.54881859309558,160.0155255250813 L 243.5314588599298,165.12843085989581 L 244.02277980767246,180.65230316522175 L 243.3910821442802,185.54164312256916 L 243.67183638990684,192.70102778449476 L 245.35636308508495,202.34987621114254 L 251.27560311255033,223.12129266048822 L 252.88994104275412,231.40778854449965 L 253.0303181655665,236.66862134489003 L 252.04767789873225,238.54281485902925 L 251.69673448096853,240.35392283744085 L 251.76692324596937,242.9680659543185 L 251.48616859317994,245.1726257711359 L 250.43333956136948,250.19539701845426 L 248.95937875398187,254.44612877445778 L 249.87183066297615,256.91763293480005 L 252.88994104275412,259.1056468522024 L 259.27710481293565,262.69434713475243 L 270.7178490758351,263.95346040180186 L 273.03407343440546,260.85281902045443 L 274.25067597973305,260.16025621595287 L 275.86501390993305,259.5621234080496 L 277.76010649292624,259.1843495671454 L 280.14651920930817,258.2399013469306 L 282.8838753434841,256.2879659926471 L 289.41141623645336,249.53412971776498 L 292.359338258416,247.44004008444486 L 295.2370715153778,246.43231720670755 L 322.0491215156518,247.66047607051226 L 329.7464729868381,240.14919323584402 L 340.39174607282814,241.61377337849797 L 346.3109861002954,243.5034706388743 L 397.73584369581584,268.47018679594487 L 408.52149390461824,267.7777610659745 L 411.7969629536171,268.47018679594487 L 414.44073352492467,270.56312306464184 L 416.2890341408073,273.3325464456228 L 418.6052580922149,275.7398932453032 L 422.60600914598797,276.7783092302552 L 436.24599622104927,282.5992125808628 L 439.5448612535901,292.8544295930603 L 434.8422237714751,302.03774767178703 L 426.91091083606597,308.51506305465983 L 421.2022366964138,312.0676872246233 L 417.13129728482727,315.21132713247295 L 413.8324322522618,318.6690328827276 L 401.6898023753175,336.18850886706355 L 400.26263353501395,340.9480203180387 L 402.5320655193375,345.78546559629825 L 403.37432907049373,349.8685469575594 L 400.8241428405947,357.9549044692233 L 394.22641318262265,367.16969888134474 L 394.0860356526475,368.3312021578388 L 399.23320048677203,367.9858945689921 L 402.7426314071261,366.5732377121453 L 405.83093014471564,364.68961436218314 L 408.4279091560754,364.28148438684303 L 411.51620789369144,366.5732377121453 L 415.3063930596494,372.5845155402362 L 425.85808139709656,382.4077058797823 L 407.5856460120554,399.5843918203046 L 378.71472910097583,414.0727067224857 L 373.4505831276037,417.615552901298 L 369.4966248552648,421.91042257458287 L 365.7064396893068,434.1340625404244 L 361.4249343899071,440.43241865767817 L 357.28380580618347,443.9728321878693 L 350.40532149544856,448.04546976997557 L 340.2747653407433,458.06858546731377 L 337.11627783815294,462.46853275701926 L 331.8521314576199,472.2843935423728 L 329.3955299762353,474.24100356393353 L 325.81591069806586,475.18014149133865 L 308.385738457022,474.6166615978879 L 304.38498740327543,473.22357874208103 L 301.9985746868651,471.04776445017643 L 300.10348210387565,468.27694502338915 L 299.6823503282966,465.7564208923539 L 300.31404799166427,463.3923009002638 L 304.1042331576469,459.7597280305875 L 305.01668506664305,458.0999033061764 L 304.94649630166685,455.8136121570543 L 303.89366726985827,453.15132113196887 L 295.0966939854027,442.07734203693065 L 293.201601402436,439.085096750798 L 289.83254801203054,430.15397123547115 L 288.5691530924334,423.7912363336436 L 287.7268895412753,420.9386326999136 L 285.0597225792383,418.39932383456244 L 282.1819893222765,418.21122033646566 L 277.4091630751606,419.55927584384165 L 272.14501750895124,422.75679971227567 L 267.84011581884675,427.834672682667 L 263.2778558666822,431.9403624994713 L 260.1895567219318,435.7635875425541 L 257.8031440055234,437.6750569894186 L 254.36390225732913,438.74042466299534 L 250.5737170913465,438.5837551535214 L 243.67183638990684,436.1396215718766 L 240.1624054695509,433.49163459480974 L 237.0039183741233,431.9873720461957 L 234.19637347497493,432.128399249988 L 225.49298534622307,436.57832382866945 L 211.57224361839698,437.2990374566767 L 216.83638959176912,448.734643254029 L 217.3277101323225,451.1153270844032 L 216.83638959176912,453.1826429807036 L 215.2220516615407,455.43777021846324 L 211.92318662899984,458.6009901600789 L 208.20319022801806,461.38816481251087 L 204.1322508164069,463.03219083274547 L 198.2364071796671,460.66790318039415 L 190.07113196576654,453.9970097132164 L 186.49151268759715,451.8670913446341 L 182.6311387566402,451.4442256568837 L 166.11341842461712,454.0283314173157 L 162.463610381445,453.8717242765278 L 158.3926705626995,451.64782817539174 L 156.7783326324957,450.4261968717616 L 156.07644661129189,448.5153621978932 L 156.35720085689204,446.00920497785694 L 158.04172755209663,443.1269222562189 L 159.4455000016708,441.12172881056017 L 160.00700890006226,439.74309721771624 L 159.4455000016708,438.5837551535214 L 158.04172755209663,438.1137411525937 L 152.98814787367584,438.0510722933676 L 150.1806029745275,437.4557127550552 L 147.58362437032858,436.07694948947983 L 145.89909767515238,434.63546225932953 L 144.54211759984963,433.773677429464 L 142.92777966964584,433.49163459480974 L 135.34740933770524,434.66679976289845 L 130.43420637493784,436.70366625386106 L 132.4696760807169,439.335764821399 L 134.8326928135587,446.1345171601026 L 136.33005001167572,458.47571865067897 L 131.06590363114273,464.25342126264286 L 124.67873986098773,466.3043748924882 L 116.79421929987657,462.9382482127921 L 101.28253521822975,453.4958638789181 L 95.22291847510907,451.03701738143604 L 91.08179029852171,451.74179786898225 L 87.57235937816763,456.47132656347196 L 86.16858733575432,463.3923009002638 L 87.9233023887705,470.7190331377961 L 115.25006932032535,492.3779521889468 L 116.56025661419582,498.9796179876973 L 116.58892044569758,499.1232675100354 L 87.59372907047822,487.1683972821747 L 81.10911158606028,482.8805735167373 L 72.85596210156075,479.2084364510472 L 42.12771848747451,489.04108987871024 L 41.73882933629347,482.69192640741494 L 42.06637617692672,466.85183168356957 L 38.463360477610344,460.4012273353407 L 34.252043567574155,456.32989915488326 L 33.17581810486137,453.9182170888899 L 33.456572927713374,451.4124131359457 L 33.22261057530766,447.34013187772126 L 33.784119315554676,444.3169670491419 L 35.515438912208474,441.16823706054396 L 36.59166437501027,436.8441864043821 L 33.69053482736502,422.8660241885393 L 36.03015518202245,420.6716800183975 L 39.726755369492494,420.170097927203 L 42.44071503522757,417.9128976617131 L 44.82712831310808,407.69113352080643 L 41.5048674366797,403.48875986505664 L 41.364489572501526,403.3946711624589 L 37.19996558567706,394.25132564699766 L 35.56223138274378,382.6425650009298 L 36.076947652468746,370.6222237776739 L 38.27619104844098,360.1837499159164 L 46.55844745702297,342.0312962463716 L 45.48222199429693,336.2037268748387 L 44.35325047494904,334.8334242332092 L 37.574304444015795,326.6043655532051 L 11.651310208246716,307.36697216509685 L 4.538863750578531,299.5214981598828 L 4.492655772842534,299.4216090082513 L 0.0,289.70845897171813 L 1.3101878151165993,283.259415562303 L 5.127304608850762,279.1367267152759 L 14.739608732282646,268.75295602321046 L 58.11617227158705,201.21435123838546 L 58.537304053124245,198.06130791600776 L 58.25654968301305,189.704480829328 L 59.14560526385353,185.2730415544844 L 63.40371464433602,175.2728110071529 L 65.74333499901996,171.78630864537578 L 88.90557755130871,144.9090141973933 L 94.94179809347406,134.89816966981246 L 103.87914863603494,129.00727696158344 L 111.27234901102238,120.50888577957788 L 117.54253190559155,110.27038184095149 L 123.017243707508,98.87522256376862 L 123.017243707508,98.78038044870851 L 125.54403394403583,89.57955229203932 L 130.9719532754965,84.8992370841545 L 137.47609806967944,81.16722150501808 L 143.0911877357627,74.73021388081247 L 145.6179775195895,67.40619712052325 L 148.14476775614384,51.34535909773991 L 150.76514248089921,42.89288643240532 L 158.34551273784797,30.543191798974096 L 170.18399237522428,16.542004300799945 L 174.76136563334586,12.388485488546374 L 182.9115275934941,4.991883122286535 L 193.43981986853248,0.0 L 203.78094226166073,5.356344074979829 L 210.75301130786502,18.648849118197155 L 214.5899889068103,34.28019004415635 L 214.98654980831014,40.38934867217163" fill="none" stroke="#000000" stroke-width="1.808"/>
	<path d="M 14.7827761271902,1208.8105302284205 L 14.641783841964802,1208.5121226396202 L 16.889293390764276,1201.4484480429508 L 23.042311068581657,1195.5933456543746 L 30.337505455611325,1190.1245701115458 L 36.01154558473355,1184.1225610078318 L 40.064431455895296,1174.8273200387118 L 41.86980777831438,1164.8760718244196 L 42.34878532703416,1129.4815096921075 L 43.82256184282239,1119.8339274838643 L 47.875447714012545,1113.3847230472693 L 56.23913016555109,1110.959936223008 L 60.99205997228365,1108.7532494249297 L 59.776194165653656,1103.6604220975985 L 56.460197005110736,1098.057548258831 L 54.875887069518065,1094.3461130954313 L 56.86548545639198,1089.54255821437 L 60.10779397225611,1084.7141493036922 L 63.09219177893739,1081.1227858958725 L 64.38174623024238,1080.079287918486 L 60.77099358546102,1073.2351922043886 L 53.91793197207472,1064.3263683660007 L 49.4229133272412,1056.5568032653478 L 53.32842145628562,1053.2542712900545 L 60.18148306967382,1050.6557599041794 L 69.06098739229805,1037.830672516059 L 76.46671519910754,1032.461348304528 L 70.16631977914443,1039.5069168533669 L 73.96129448840902,1053.4971139934323 L 70.27685319892615,1065.4431168132744 L 70.27685319892615,1078.0407458898455 L 73.66653945688488,1078.0407458898455 L 75.06662732799622,1069.5214057683647 L 74.99293823055389,1071.3662064617981 L 75.6561378437588,1073.3808233411567 L 76.46671519910754,1078.0407458898455 L 82.43551035972739,1069.9583401617435 L 106.20015939339021,1058.4507767999673 L 113.82695358702044,1049.1742879406518 L 114.60068616726626,1034.4779678385235 L 109.84775636053558,1022.7412401339078 L 103.87896119991385,1011.9490911417469 L 101.15247410239269,1000.2055989935075 L 99.60500848916404,1015.5468048517156 L 94.00465745748225,1029.3025778194099 L 82.32497739268649,1047.182713546173 L 82.14075532820326,1044.5595094596356 L 79.56164597282974,1041.0130460105186 L 84.42510919934212,1036.0571760764312 L 89.62017177971805,1027.625896290418 L 92.89932507063587,1016.713559923479 L 91.86768132848911,1004.290692190687 L 89.62017177971805,1001.3484954374892 L 82.28813307032436,998.2844852356193 L 79.67214714262352,996.2078024470192 L 79.71123480062312,996.1081618950052 L 84.62443735622962,983.5817971815466 L 85.53688967238668,982.60855732796 L 86.94066171479999,981.4962540564759 L 88.27424580653421,981.681640044851 L 90.66065852294264,980.5384116270246 L 90.94141276857307,978.7771563218 L 90.45009263515406,976.8613151472483 L 88.6251884099762,973.8328579307104 L 88.97613182774181,973.6010777950352 L 90.02896085955038,973.5238181612094 L 92.41537357595881,972.9366360767473 L 93.91273077407773,973.2147759461827 L 95.59725746925393,974.7290581424829 L 99.24706591958504,979.9358859107928 L 101.9142328815955,981.1872749162825 L 103.8093254645887,980.213975940517 L 105.49385215978953,978.0664521417232 L 108.02064240614847,974.0182797580785 L 110.12630087693026,972.5039705384502 L 112.44252482833976,972.2103729325729 L 114.40780617630537,973.0911585905193 L 116.30289875929668,973.6474341473458 L 123.27496781857442,973.8792129322625 L 127.76703900576463,973.276585015066 L 131.48703540674643,970.989602596194 L 139.2779716264775,964.6687980854609 L 143.7700428136412,961.8712456700123 L 147.16249259475143,960.3255505096334 L 148.7768309321142,960.5728656760256 L 152.0756955575188,962.3040290465217 L 155.58512647787288,962.8604583044659 L 156.07644661129189,963.169581944276 L 156.4975779797063,963.7878229567992 L 157.1994640009139,964.344231067082 L 161.69153559526498,964.344231067082 L 163.02511927983832,964.9933634814992 L 163.79719406604676,965.98249754992 L 166.18360678242868,966.5079639909602 L 168.64020867097608,965.4879336481426 L 176.45454046711103,960.758351560566 L 178.84095359065572,959.7536280515224 L 180.03415974527854,959.6608822943427 L 180.87642329646317,960.0473188055366 L 181.57830972482975,960.8820074305893 L 181.78887561261834,962.3658553894852 L 181.71868644048317,963.5714398236707 L 180.59566905083275,967.9297812463445 L 179.82359385748995,971.5459080895598 L 180.03415974527854,973.971924921559 L 180.87642329646317,977.9119493113575 L 182.98208176724307,983.2573862326051 L 186.77226693320105,988.1078153364423 L 193.29980782619685,991.9691911832645 L 204.34281629705924,995.1506781475135 L 220.6265747577252,993.8842916556636 L 225.14204274278106,994.8109200377443 L 229.84467981776177,998.5480962660835 L 233.07335567816367,1000.3393432227626 L 236.5125978335453,1000.138604637117 L 238.4076904165347,999.644473503502 L 244.44391117608876,1002.0841866006447 L 243.88240227769543,1013.5858484404156 L 240.37297135733948,1020.6241231016099 L 240.02202875389938,1022.6304165955258 L 241.1450461435214,1036.887570254133 L 241.07485778570984,1039.8957218478124 L 239.1095768449051,1050.460985636976 L 239.0393876727415,1053.6994005634383 L 239.3903310905052,1057.153414207165 L 240.44316012231567,1060.715047069055 L 244.58428829890303,1068.9626074169691 L 248.51485099483617,1073.0009666910935 L 251.20541434757791,1075.0816378680645 L 269.45445374904864,1080.3675868843716 L 271.7706781076436,1083.295357183909 L 272.28539463176554,1084.6821190789021 L 272.84690353015884,1086.9932804187385 L 271.48992386201695,1089.6586502166062 L 270.36690565806947,1091.18383859725 L 255.76767429974245,1090.752478621228 L 251.1352255825771,1091.9541127324928 L 248.88918998898103,1089.3659309254256 L 246.92390864101353,1086.192093366676 L 245.70730650284867,1085.2059946381764 L 244.65447706387735,1084.990282083614 L 239.67108533613566,1087.5171245552156 L 232.79260143256164,1089.9359616083104 L 229.4235480421827,1091.6151943635052 L 227.38807792921438,1093.0170664882041 L 226.19487136742876,1096.0671221221319 L 224.15940206881058,1099.9948745630018 L 224.01902453883542,1101.7352825933963 L 224.3699675494383,1103.2908022817044 L 224.5103450794134,1104.553654340396 L 222.96619550702687,1107.418021774145 L 222.8258183842107,1109.4506725933584 L 223.15336500411067,1111.6371940957906 L 223.01298747413554,1113.638831912226 L 221.00091415905936,1114.3470790894135 L 218.7314821747339,1113.9159737976613 L 208.20319022801806,1113.9775600220278 L 207.50130420681046,1120.2281179582935 L 207.6416813296001,1122.8604442602368 L 208.83488748422295,1127.308828848208 L 211.08092348497985,1132.3261239163971 L 219.57374572591664,1143.6819278338687 L 221.2816684046614,1147.8049031020814 L 220.72015991343082,1153.5425023633604 L 218.52091628694532,1159.310021916832 L 218.2401620413433,1161.2784749995242 L 218.2401620413433,1163.6773940708827 L 218.66129381692045,1167.8597735007454 L 219.22280230815102,1170.78102455885 L 221.1880840632794,1173.2101109752514 L 227.0371349186115,1176.2539429552635 L 230.827320084596,1177.5451946994865 L 234.6175052505521,1180.0353459849946 L 236.86354084414626,1182.0642416344865 L 239.7412736939472,1194.54272199036 L 252.1178662565722,1208.8604350391333 L 254.43409061514257,1213.46803347347 L 253.59182706395984,1218.627903105287 L 249.80164189800183,1222.482007646833 L 246.36240014978296,1225.245675012991 L 243.32089337930398,1226.79631454231 L 242.47862982812126,1227.5946397145294 L 242.8997616037003,1228.1166121922333 L 245.0756088394545,1228.4850599109873 L 247.3918331980514,1230.1737334091808 L 249.59107601018675,1233.8885597569788 L 256.2589948402958,1252.181274381461 L 261.17219739590234,1258.7473931922505 L 272.0514323532457,1266.2786726621773 L 278.32161539131766,1268.5025027173922 L 282.3925552100651,1271.2782797223751 L 284.006893140267,1272.6737629208492 L 286.53368338665246,1283.2532899702462 L 280.216707974309,1284.1271240881126 L 278.0408607385283,1285.4301743164085 L 275.72463678711875,1288.1894323673564 L 272.9872810601321,1293.5234505970586 L 270.01596305462743,1297.6920667646302 L 266.99785226766403,1301.2932738943207 L 253.31107281835781,1312.3706738590774 L 250.29296203139435,1316.1084035613903 L 237.3548609775653,1342.5075395873278 L 235.74052345449965,1345.0179079001275 L 234.75788237336639,1346.3342573474697 L 228.37071860320947,1345.1097478291015 L 222.31110145292982,1343.6402865639675 L 217.8190302657396,1344.4056380314623 L 214.37978851754534,1343.3035273102573 L 211.57224361839698,1340.8389742424529 L 210.6597917094027,1338.5885970904285 L 210.6597917094027,1336.2003004902565 L 211.4318664955827,1333.934347669566 L 212.06356415897687,1331.055787745872 L 212.20394128176463,1328.146391574162 L 210.87035759719126,1321.6683882389377 L 210.6597917094027,1319.6007168018737 L 211.221301014955,1317.7626960221621 L 211.92318662899984,1311.7272586663676 L 211.92318662899984,1308.0503981878007 L 210.94054595500472,1306.2731259249556 L 209.25601925982662,1305.2005955086952 L 202.5179128862031,1303.8675528777649 L 201.81602645783653,1302.9941551295105 L 201.74583769286033,1302.1207391283674 L 202.2371582334402,1301.4311859709455 L 203.00923301962212,1300.7416213039924 L 203.64093027585352,1298.7954499931318 L 203.92168492861643,1295.9296539698953 L 203.2197989074107,1290.4886662744088 L 201.60546057004794,1287.4383200335733 L 198.79791607805856,1283.9431607591923 L 197.04320102504428,1282.7933690544824 L 195.21829679989105,1282.3947675516645 L 194.07188301953963,1282.7013846549323 L 192.87867645775404,1283.2532899702462 L 191.61528113099223,1282.9773382775234 L 189.3692455373981,1281.6895383714148 L 186.49151268759715,1279.3591272613153 L 184.24547668684212,1278.163204979859 L 182.42057286884975,1277.9178832720875 L 180.59566905083275,1278.1172074092433 L 178.91114235565655,1278.0098788244227 L 175.82284280371877,1276.5379189067185 L 163.02511927983832,1267.4289452801952 L 154.602485396715,1267.5056289997012 L 148.5662650443256,1266.3246840402826 L 145.19721165394478,1264.530194108401 L 140.9624983216537,1264.8829636992295 L 138.6462743702461,1264.1467456233302 L 137.1021243907214,1262.9810386691702 L 135.69835234830808,1257.2133508361355 L 134.71571167431296,1254.9735422660376 L 135.06665468491582,1253.7308542254848 L 134.78590003212452,1252.8870314250976 L 133.94363729529192,1252.1199036762266 L 131.90816718232549,1251.5215338921155 L 129.66213158872944,1251.5061913684763 L 126.22288943337429,1252.6262092703894 L 123.27496781857442,1252.4881264743728 L 121.23949811276884,1251.7516774382198 L 120.11647990882321,1249.5422461657183 L 119.83572566319467,1247.977157208573 L 119.9761031931717,1246.16648623323 L 119.88251803746608,1244.693337594867 L 118.47874558789191,1242.913209089744 L 115.81157862587955,1240.9641822398248 L 105.07272038418584,1235.4388590790231 L 100.65083755483559,1234.103456475141 L 96.50970978543751,1233.7964611862094 L 94.19348542684062,1232.5991558973822 L 93.25763712714155,1229.590381853014 L 93.6787689027206,1227.3950594042094 L 93.25763712714155,1225.2303217194135 L 91.50292166696451,1223.1115263627528 L 86.44934158138287,1219.979185881802 L 83.57160832441917,1217.7065475436789 L 81.81689286424213,1215.5412766182942 L 81.67651614859062,1213.8980481287356 L 81.81689286424213,1212.5926313139628 L 81.81689286424213,1210.9185619885802 L 80.76406383243167,1209.9355895115 L 78.37765111602324,1210.0584623467612 L 67.61539689078941,1214.8502075233719 L 63.12332570359919,1215.5566331557534 L 56.10446427005003,1211.1028670296237 L 46.488624232328476,1207.2937286330912 L 40.07806407144407,1205.7269603940272 L 33.48033441347396,1205.1893288074475 L 26.180718734320877,1207.723811279165 L 14.903747984940514,1208.7989967994774 L 14.7827761271902,1208.8105302284205" fill="none" stroke="#000000" stroke-width="1.808"/>
	<path d="M 79.67214714262352,996.2078024470192 L 79.56164597282974,996.1200794095053 L 76.31933745696371,989.431550352781 L 76.61409248848784,986.2206502469708 L 78.53000223065835,983.423059639826 L 83.46715410187416,937.9767205224275 L 81.10911158606028,928.3792424935561 L 78.53000223065835,924.3349278420973 L 76.57724816614845,919.6079078780022 L 76.9088479727509,915.7089030672715 L 86.783151715156,911.2489383880758 L 88.33061732838654,904.4483376868222 L 88.33061732838654,896.3543194255047 L 89.06750558629297,889.5267317445813 L 107.52655816705922,859.7151655334766 L 110.73202236056123,848.2430947052266 L 110.438063841934,845.8181306360909 L 110.54743224534656,845.8047210823169 L 121.80100660402593,844.4249509860093 L 134.22439154089395,849.7112196039081 L 142.71721378183074,855.6942235464829 L 151.72475254691594,839.1069525917156 L 163.51643941325736,828.8410042242874 L 166.25379554742952,824.3740049163433 L 167.587378824842,817.8276827249585 L 167.93832224260572,810.7837249737502 L 167.51719046702854,803.3349788667736 L 168.4296427831856,793.0595723509488 L 168.3594540182113,788.4953020716647 L 167.3768129370515,785.7316397296674 L 162.9549309220268,783.7907481048077 L 160.4983290334794,781.2907364773573 L 157.90135042928048,775.3894489966362 L 157.55040741867762,768.30671830405 L 158.4628593276738,734.241844772614 L 170.2779425847446,731.5676043888739 L 179.54283961186331,734.0241808050989 L 182.28019574603738,732.6559799156764 L 184.4560425746307,729.8572367492836 L 185.78962666639143,726.6539831589015 L 188.10585021063818,723.8081518677368 L 189.86056607797798,725.1922163807826 L 191.19414935541508,728.6443859240162 L 192.66811056996545,738.6725933730858 L 193.58056247895976,741.5017886062744 L 195.1247120513482,744.2841480356637 L 197.1835777406958,746.0249635692967 L 198.44697266029485,747.3926925937352 L 199.569990864267,749.1799930922077 L 200.6228203032383,752.2415248454192 L 202.44772371406793,755.970983003897 L 205.25526820605353,757.4937422007641 L 210.6597917094027,757.6491220218015 L 214.52016523317224,756.4682166302348 L 219.22280230815102,754.0752199557753 L 232.44165842195878,744.7659888375828 L 251.1352255825771,737.1801873232677 L 253.31107281835781,735.6721768764394 L 254.29371308516744,733.3089912071945 L 254.78503362574543,730.9767590332167 L 255.83786306471677,729.2352668487588 L 257.8031440055234,730.1371207588404 L 262.15483806989744,733.8220638261125 L 265.66426858309063,734.2884872401697 L 269.66501963686375,732.6248841746316 L 277.4793522472977,725.0367053050986 L 281.1291598833052,720.3244451293389 L 287.02500352006956,708.9224465509759 L 288.28839843966864,705.7330187836745 L 288.7797189802466,702.3410469009032 L 289.34122787863805,695.9141568066719 L 294.5351850870093,696.1320350828629 L 298.348766236534,698.4041196891534 L 303.6831013820697,702.8856501277207 L 312.4566778686085,712.5938521640126 L 321.93214078354043,726.8405881513191 L 323.0551585803517,730.8212717164188 L 323.5698751044717,733.371182107508 L 324.2717611256774,735.128035562516 L 326.8687397298763,738.7814127263813 L 327.3600602704297,740.8644607404887 L 328.13213505663623,743.1805545799469 L 329.60609586402575,745.6830237728174 L 337.8883522171721,752.7698864485309 L 345.53891090695265,757.4005130358055 L 348.7909835652467,760.9585729627374 L 352.7215458540189,767.4212866487065 L 355.52909075316734,768.9591294085154 L 358.6173894907568,768.4620553537425 L 363.4604036885499,763.7550716834668 L 365.9170055770973,760.2283430334597 L 378.6445407431624,760.1351209831234 L 395.84075111282453,778.6507972536288 L 402.0407449787595,783.3715026243829 L 436.31618539318634,795.419121064191 L 433.5788292590123,802.2020232565594 L 432.45581105506665,804.2040727054043 L 430.3501525842849,806.1594628730641 L 406.0414960325307,812.8939427702497 L 401.47923648752896,815.2057415570968 L 391.4188682834724,823.784570988813 L 383.97887548150885,838.1766159262822 L 376.46869391454254,838.9053815186144 L 373.497375909036,840.9985692904888 L 366.3381373526745,848.2850829855367 L 363.8113471063155,850.0832469017123 L 360.93361384935184,850.8892937500804 L 357.0732399183949,850.1297498614077 L 354.12531830359313,848.7191303118927 L 352.0898481906267,846.8588940715425 L 349.2589077150953,847.0449220772628 L 345.6792884369278,849.5252054299002 L 339.0815587789577,857.4610480054757 L 333.4664693878199,866.4799042656277 L 319.75629395494707,882.2811073431841 L 316.52761728021966,885.1927867158188 L 296.52386282570626,895.5987101565489 L 286.744249274441,897.7662615788637 L 265.1729484496735,906.6519596955302 L 254.29371308516744,916.0617784501588 L 254.7148448607711,917.5473317157852 L 255.97823978036826,919.2494592201032 L 258.64540755670424,920.1469139830726 L 260.1193683640919,921.1062398520768 L 259.9088024763014,922.4368782774479 L 257.8031440055234,924.9123644661616 L 252.04767789873225,927.2639303480012 L 243.1103274914889,929.0584513922321 L 229.1427933893914,927.820859008464 L 214.66054276314927,928.9346935444111 L 213.74809085415308,935.354091041298 L 212.27413004676546,937.9060872152667 L 209.39639678977713,940.6434990349353 L 198.79791607805856,945.8858006676535 L 195.07791926991592,949.5967389755987 L 193.65075124396057,955.7344743069438 L 193.2296194683569,960.2946357346816 L 193.08924193838175,965.6115750764358 L 191.61528113099223,968.1306859379464 L 190.14132032360652,969.6606184435441 L 180.59566905083275,967.9297812463445 L 181.71868644048317,963.5714398236707 L 181.78887561261834,962.3658553894852 L 181.57830972482975,960.8820074305893 L 180.87642329646317,960.0473188055366 L 180.03415974527854,959.6608822943427 L 178.84095359065572,959.7536280515224 L 176.45454046711103,960.758351560566 L 168.64020867097608,965.4879336481426 L 166.18360678242868,966.5079639909602 L 163.79719406604676,965.98249754992 L 163.02511927983832,964.9933634814992 L 161.69153559526498,964.344231067082 L 157.1994640009139,964.344231067082 L 156.4975779797063,963.7878229567992 L 156.07644661129189,963.169581944276 L 155.58512647787288,962.8604583044659 L 152.0756955575188,962.3040290465217 L 148.7768309321142,960.5728656760256 L 147.16249259475143,960.3255505096334 L 143.7700428136412,961.8712456700123 L 139.2779716264775,964.6687980854609 L 131.48703540674643,970.989602596194 L 127.76703900576463,973.276585015066 L 123.27496781857442,973.8792129322625 L 116.30289875929668,973.6474341473458 L 114.40780617630537,973.0911585905193 L 112.44252482833976,972.2103729325729 L 110.12630087693026,972.5039705384502 L 108.02064240614847,974.0182797580785 L 105.49385215978953,978.0664521417232 L 103.8093254645887,980.213975940517 L 101.9142328815955,981.1872749162825 L 99.24706591958504,979.9358859107928 L 95.59725746925393,974.7290581424829 L 93.91273077407773,973.2147759461827 L 92.41537357595881,972.9366360767473 L 90.02896085955038,973.5238181612094 L 88.97613182774181,973.6010777950352 L 88.6251884099762,973.8328579307104 L 90.45009263515406,976.8613151472483 L 90.94141276857307,978.7771563218 L 90.66065852294264,980.5384116270246 L 88.27424580653421,981.681640044851 L 86.94066171479999,981.4962540564759 L 85.53688967238668,982.60855732796 L 84.62443735622962,983.5817971815466 L 79.71123480062312,996.1081618950052 L 79.67214714262352,996.2078024470192" fill="none" stroke="#000000" stroke-width="1.808"/>
	<path d="M 110.438063841934,845.8181306360909 L 109.25824584474648,836.0838879090245 L 104.54216036037793,825.6063405487965 L 97.79963216677335,818.2044128844775 L 90.50443777974368,815.4191639216385 L 80.59328971497459,815.4191639216385 L 72.26645158579817,813.8554277053775 L 66.51872235926014,808.5284793150662 L 64.38174623024238,797.1635106267385 L 64.38174623024238,772.344542191118 L 62.834281069750745,767.0118947792251 L 56.12859719851018,760.773233808089 L 54.875887069518065,753.8728404658783 L 60.84468223013791,761.7763801295231 L 70.94005235939214,761.2136428519425 L 78.38262448853914,752.869489065738 L 76.46671519910754,737.424397325309 L 87.18844016646185,731.4013461790646 L 98.35229836019654,722.2180642388628 L 107.12126971575336,709.7253057097154 L 110.73202236056123,693.7482981459164 L 109.62668997371296,683.7715756538373 L 106.45807010255034,679.9714104189518 L 101.55776300643747,678.4757593220334 L 95.25736758647436,675.4107193985544 L 88.73590577969051,669.1327591521033 L 81.47755571500024,656.7700460086468 L 76.46671519910754,650.3663724109883 L 115.92708539367608,655.6905735837014 L 128.74894216768413,651.7649664622514 L 130.08326295717222,652.8279859350049 L 144.40174047703536,660.6951448439796 L 146.03947479796665,657.0655462403026 L 146.9285307233943,656.2087239107703 L 148.49607627934938,655.4765150950071 L 155.3745605900843,654.6196580815802 L 165.48172076122296,650.4908974808332 L 168.07869936542187,650.6934507116287 L 175.75265444590534,655.4609359179866 L 177.71793538671008,657.2369081017364 L 181.57830972482975,662.2216551699889 L 184.03491079905353,664.5891855085486 L 187.33377583161712,666.8164002336823 L 193.0190535805664,667.4549488736382 L 200.13149976265842,666.6295056101352 L 214.2394109875702,662.0970444079251 L 219.85450037870606,657.9535048566199 L 222.8258183842107,654.1834328756656 L 223.45751604760486,651.752942994535 L 224.5103450794134,649.5716042986915 L 227.17751204142579,647.608293757581 L 229.4235480421827,647.7329517825848 L 231.88014911637805,649.3223007935748 L 235.95108893515197,654.3703865959344 L 240.1624054695509,658.3273760093456 L 243.5314588599298,660.8197601249065 L 255.4167312891377,661.6609030354953 L 271.48992386201695,681.7805810091736 L 289.34122787863805,695.9141568066719 L 288.7797189802466,702.3410469009032 L 288.28839843966864,705.7330187836745 L 287.02500352006956,708.9224465509759 L 281.1291598833052,720.3244451293389 L 277.4793522472977,725.0367053050986 L 269.66501963686375,732.6248841746316 L 265.66426858309063,734.2884872401697 L 262.15483806989744,733.8220638261125 L 257.8031440055234,730.1371207588404 L 255.83786306471677,729.2352668487588 L 254.78503362574543,730.9767590332167 L 254.29371308516744,733.3089912071945 L 253.31107281835781,735.6721768764394 L 251.1352255825771,737.1801873232677 L 232.44165842195878,744.7659888375828 L 219.22280230815102,754.0752199557753 L 214.52016523317224,756.4682166302348 L 210.6597917094027,757.6491220218015 L 205.25526820605353,757.4937422007641 L 202.44772371406793,755.970983003897 L 200.6228203032383,752.2415248454192 L 199.569990864267,749.1799930922077 L 198.44697266029485,747.3926925937352 L 197.1835777406958,746.0249635692967 L 195.1247120513482,744.2841480356637 L 193.58056247895976,741.5017886062744 L 192.66811056996545,738.6725933730858 L 191.19414935541508,728.6443859240162 L 189.86056607797798,725.1922163807826 L 188.10585021063818,723.8081518677368 L 185.78962666639143,726.6539831589015 L 184.4560425746307,729.8572367492836 L 182.28019574603738,732.6559799156764 L 179.54283961186331,734.0241808050989 L 170.2779425847446,731.5676043888739 L 158.4628593276738,734.241844772614 L 157.55040741867762,768.30671830405 L 157.90135042928048,775.3894489966362 L 160.4983290334794,781.2907364773573 L 162.9549309220268,783.7907481048077 L 167.3768129370515,785.7316397296674 L 168.3594540182113,788.4953020716647 L 168.4296427831856,793.0595723509488 L 167.51719046702854,803.3349788667736 L 167.93832224260572,810.7837249737502 L 167.587378824842,817.8276827249585 L 166.25379554742952,824.3740049163433 L 163.51643941325736,828.8410042242874 L 151.72475254691594,839.1069525917156 L 142.71721378183074,855.6942235464829 L 134.22439154089395,849.7112196039081 L 121.80100660402593,844.4249509860093 L 110.54743224534656,845.8047210823169 L 110.438063841934,845.8181306360909" fill="none" stroke="#000000" stroke-width="1.808"/>
	<path d="M 128.74894216768413,651.7649664622514 L 132.72813939416898,650.5381318571377 L 141.6076437167686,629.7496403857966 L 144.70257449048887,629.7496403857966 L 144.99732997475382,636.3776469383662 L 146.6921733301036,639.912118827817 L 149.86079320126623,640.5011663392459 L 154.35581184607324,638.3658275070715 L 150.74505920129187,622.1628590161889 L 148.5343939748564,617.9637079271075 L 144.70257449048887,621.868196805466 L 142.63928745891346,617.0059428993105 L 129.3016083611073,605.0195908772156 L 138.5864015877498,588.65515774913 L 137.77582423240105,569.7512473966442 L 135.4177817165853,549.534209618957 L 135.49147036128872,538.6342517621847 L 143.74461984576172,541.4887149158745 L 148.0185721037726,533.6138205387196 L 148.38701623271257,520.8875394686125 L 144.70257449048887,509.36379429219585 L 141.79186578125183,509.51155668249373 L 116.58892044569758,499.1232675100354 L 116.56025661419582,498.9796179876973 L 115.25006932032535,492.3779521889468 L 87.9233023887705,470.7190331377961 L 86.16858733575432,463.3923009002638 L 87.57235937816763,456.47132656347196 L 91.08179029852171,451.74179786898225 L 95.22291847510907,451.03701738143604 L 101.28253521822975,453.4958638789181 L 116.79421929987657,462.9382482127921 L 124.67873986098773,466.3043748924882 L 131.06590363114273,464.25342126264286 L 136.33005001167572,458.47571865067897 L 134.8326928135587,446.1345171601026 L 132.4696760807169,439.335764821399 L 130.43420637493784,436.70366625386106 L 135.34740933770524,434.66679976289845 L 142.92777966964584,433.49163459480974 L 144.54211759984963,433.773677429464 L 145.89909767515238,434.63546225932953 L 147.58362437032858,436.07694948947983 L 150.1806029745275,437.4557127550552 L 152.98814787367584,438.0510722933676 L 158.04172755209663,438.1137411525937 L 159.4455000016708,438.5837551535214 L 160.00700890006226,439.74309721771624 L 159.4455000016708,441.12172881056017 L 158.04172755209663,443.1269222562189 L 156.35720085689204,446.00920497785694 L 156.07644661129189,448.5153621978932 L 156.7783326324957,450.4261968717616 L 158.3926705626995,451.64782817539174 L 162.463610381445,453.8717242765278 L 166.11341842461712,454.0283314173157 L 182.6311387566402,451.4442256568837 L 186.49151268759715,451.8670913446341 L 190.07113196576654,453.9970097132164 L 198.2364071796671,460.66790318039415 L 204.1322508164069,463.03219083274547 L 208.20319022801806,461.38816481251087 L 211.92318662899984,458.6009901600789 L 215.2220516615407,455.43777021846324 L 216.83638959176912,453.1826429807036 L 217.3277101323225,451.1153270844032 L 216.83638959176912,448.734643254029 L 211.57224361839698,437.2990374566767 L 225.49298534622307,436.57832382866945 L 234.19637347497493,432.128399249988 L 237.0039183741233,431.9873720461957 L 240.1624054695509,433.49163459480974 L 243.67183638990684,436.1396215718766 L 250.5737170913465,438.5837551535214 L 254.36390225732913,438.74042466299534 L 257.8031440055234,437.6750569894186 L 260.1895567219318,435.7635875425541 L 263.2778558666822,431.9403624994713 L 267.84011581884675,427.834672682667 L 272.14501750895124,422.75679971227567 L 277.4091630751606,419.55927584384165 L 282.1819893222765,418.21122033646566 L 285.0597225792383,418.39932383456244 L 287.7268895412753,420.9386326999136 L 288.5691530924334,423.7912363336436 L 289.83254801203054,430.15397123547115 L 293.201601402436,439.085096750798 L 295.0966939854027,442.07734203693065 L 303.89366726985827,453.15132113196887 L 304.94649630166685,455.8136121570543 L 305.01668506664305,458.0999033061764 L 304.1042331576469,459.7597280305875 L 300.31404799166427,463.3923009002638 L 299.6823503282966,465.7564208923539 L 300.10348210387565,468.27694502338915 L 301.9985746868651,471.04776445017643 L 304.38498740327543,473.22357874208103 L 308.385738457022,474.6166615978879 L 325.81591069806586,475.18014149133865 L 329.3955299762353,474.24100356393353 L 331.8521314576199,472.2843935423728 L 337.11627783815294,462.46853275701926 L 340.2747653407433,458.06858546731377 L 350.40532149544856,448.04546976997557 L 357.28380580618347,443.9728321878693 L 361.4249343899071,440.43241865767817 L 365.7064396893068,434.1340625404244 L 369.4966248552648,421.91042257458287 L 373.4505831276037,417.615552901298 L 378.71472910097583,414.0727067224857 L 407.5856460120554,399.5843918203046 L 425.85808139709656,382.4077058797823 L 439.1939182429854,384.745442625578 L 444.6686301041461,388.82437347407057 L 446.63391104497737,392.71464110654256 L 450.5644737409105,403.724469125792 L 450.7048504565639,407.3937095341378 L 449.8157949382725,410.67063992326587 L 448.45881527013063,413.8689047687488 L 447.96749513671347,418.13284347029577 L 447.8973063717373,422.78814691774176 L 448.31843774015545,428.7436038601039 L 447.6867404839487,431.75232537308057 L 446.42334515716226,433.63265627123064 L 437.7901457934112,440.99640026547706 L 435.8950532104464,443.00160134757056 L 434.7018470558217,444.7404009363102 L 433.4384517290618,446.00920497785694 L 432.0346792794876,446.80806006601335 L 430.56071847207346,447.9358277031571 L 429.2973235524763,449.7057290875269 L 423.3780839321699,460.66790318039415 L 423.5184610549842,469.34146357834067 L 415.9380907230417,481.97255320156023 L 410.95469940243436,485.57173100798235 L 405.1992328885107,491.626980064444 L 401.1984822418985,496.9147637416942 L 395.6301852250341,499.2924647731712 L 390.015096241061,500.43433516992695 L 385.38264752392024,500.85666216332055 L 382.43472590911847,501.79514962771844 L 381.38189687730994,503.29668161616826 L 382.08378289851754,505.3924731582319 L 401.54942484534047,522.2015933812006 L 403.6550833161223,526.4066339095856 L 403.93583756174894,534.8465931191333 L 403.6550833161223,538.4720822472467 L 400.07546403795476,543.9252992167873 L 356.65210854995206,561.6077865539446 L 353.2830547524123,564.0283433687607 L 351.3879621694191,566.6048988093585 L 349.5396619606992,573.9276204962971 L 347.8083428912516,577.1123367013553 L 344.83702488574505,579.7036270353069 L 340.7660854741604,580.9211610729307 L 325.0438363190202,578.048967619294 L 320.31780244617767,577.986526302203 L 317.3698808313759,578.6577661123428 L 311.8249802052409,582.7786071383742 L 310.35101939782675,584.1052991645367 L 309.92988762224957,585.6972698943383 L 309.78951090659615,587.975858707457 L 308.2453609270468,590.4103666342191 L 305.3676280772459,591.3778842154575 L 296.1495234243721,588.475257574189 L 293.06122468678257,586.4151956367274 L 291.23632046160475,584.5579247294464 L 288.4989643274572,579.2353345178282 L 287.095191877883,578.3299525664955 L 280.0061420865204,582.0450048594242 L 271.91105563759413,584.6047481539176 L 265.45370310246295,585.4787679136135 L 255.55710841192735,582.9815159661739 L 250.36315120355795,579.3133837562721 L 246.68994676968293,577.455770752373 L 245.14579719729636,577.0186721407675 L 243.25070461430317,587.1331085581625 L 244.51409994106308,612.7195302720662 L 242.75938448088604,620.2674032370492 L 241.42580120347355,621.8578827569357 L 240.7941031329204,624.0096037756912 L 241.70655544907558,626.53538382558 L 248.46805862056473,634.1429085104214 L 250.64390544915807,637.5096947204671 L 252.1178662565722,642.0917939556653 L 251.76692324596937,646.4240270725583 L 255.4167312891377,661.6609030354953 L 243.5314588599298,660.8197601249065 L 240.1624054695509,658.3273760093456 L 235.95108893515197,654.3703865959344 L 231.88014911637805,649.3223007935748 L 229.4235480421827,647.7329517825848 L 227.17751204142579,647.608293757581 L 224.5103450794134,649.5716042986915 L 223.45751604760486,651.752942994535 L 222.8258183842107,654.1834328756656 L 219.85450037870606,657.9535048566199 L 214.2394109875702,662.0970444079251 L 200.13149976265842,666.6295056101352 L 193.0190535805664,667.4549488736382 L 187.33377583161712,666.8164002336823 L 184.03491079905353,664.5891855085486 L 181.57830972482975,662.2216551699889 L 177.71793538671008,657.2369081017364 L 175.75265444590534,655.4609359179866 L 168.07869936542187,650.6934507116287 L 165.48172076122296,650.4908974808332 L 155.3745605900843,654.6196580815802 L 148.49607627934938,655.4765150950071 L 146.9285307233943,656.2087239107703 L 146.03947479796665,657.0655462403026 L 144.40174047703536,660.6951448439796 L 130.08326295717222,652.8279859350049 L 128.74894216768413,651.7649664622514" fill="none" stroke="#000000" stroke-width="1.808"/>
	<path d="M 330.5185481801809,1072.415275968477 L 334.37892170397885,1073.8024234545233 L 335.642316623576,1074.4805659195574 L 337.11627783815294,1077.1930205696642 L 335.50193950078824,1081.3075789762247 L 335.29137361297506,1082.956363408656 L 335.3615619708131,1085.0827300835863 L 336.7653344203873,1090.5367965852727 L 337.0460886659893,1093.4329972098567 L 336.9759003081759,1096.0825259632077 L 335.50193950078824,1101.565864967363 L 335.50193950078824,1104.1532427591642 L 337.6777863293835,1106.0782635194075 L 343.9245729767507,1108.1109826889435 L 351.1773962816305,1108.8963237730034 L 356.58191978497587,1110.990488910847 L 360.6528596037252,1114.4702511598903 L 371.6724716838847,1132.9416988873297 L 375.6966191283606,1137.0042513330602 L 380.68001085610234,1140.0201161244888 L 390.99773650789524,1142.6972723977294 L 396.12150576561396,1145.4973204081025 L 399.4203703910186,1147.9741201871761 L 395.20905344945504,1154.8806423005897 L 405.5501758991136,1159.5253263675356 L 409.5509269528867,1160.6018298557497 L 416.35922249862074,1160.6633439700342 L 420.2897847874176,1161.4014999429248 L 423.6588385849593,1163.7235249846747 L 425.48374199578893,1168.1057818036252 L 426.4663830769468,1169.7970490807413 L 430.06939833865636,1171.3191266671095 L 444.6686301041461,1171.0270151150514 L 462.3093682329805,1165.1535783989582 L 467.8542684519546,1171.826472587908 L 470.1704928105496,1176.1463369519615 L 479.95010676897573,1199.1673599092874 L 483.81048029277366,1211.1028670296237 L 490.96971884911056,1222.9886942588846 L 492.09273664591996,1226.9191342363017 L 494.8300927800675,1230.6956722432815 L 496.865562485875,1236.9890973954616 L 500.3048046412282,1241.010223709218 L 502.6444249833671,1242.5755888404994 L 505.1712152297261,1242.6523209207614 L 507.4172504161594,1242.4528174149182 L 509.3825321712877,1242.7290528516307 L 511.4881906420695,1243.9567418229888 L 513.3130940528972,1244.5398806991839 L 518.4368633106425,1245.322501468436 L 520.8232760270243,1246.2585569625012 L 523.7711976418261,1249.2967458007513 L 524.3327065402195,1250.6162902139793 L 524.1221406524309,1252.457441639591 L 525.0579889521546,1254.2985070717775 L 525.0579889521546,1256.1701679587654 L 522.2972368344385,1264.269449501494 L 519.9810124758435,1267.3062512324132 L 519.0685609740101,1268.839900463253 L 518.0157315350388,1273.8391828917966 L 517.8051656472502,1276.0779202357703 L 518.1561086578531,1278.853164771673 L 518.9983718018731,1280.8003186038636 L 523.4202546312233,1285.4301743164085 L 525.1983664821051,1289.568988785066 L 525.9470448775822,1295.4852067193378 L 524.1221406524309,1319.141219623724 L 524.2625181824061,1323.1233513264226 L 529.9711919148955,1335.1898245097243 L 510.22479531530774,1337.7159665642514 L 502.22329320776345,1337.2719897309717 L 498.1289578126349,1339.0937948724304 L 497.5674485070807,1343.1504538287402 L 498.4097120582388,1348.4158357649976 L 498.620277946052,1353.2520232259706 L 497.28669426145404,1359.2046184668477 L 493.42632033049335,1362.5860279019687 L 489.14481503111824,1364.421966637159 L 476.0663364472875,1367.389886704883 L 470.59162458612866,1370.7553004835208 L 468.4157777575335,1372.7285238192253 L 467.64370256416606,1374.3804487135183 L 467.4331374906992,1375.6805266660335 L 466.029365041125,1378.3417284270342 L 464.41502670376224,1385.192737017588 L 461.3267279661462,1384.810457663967 L 451.54711400772015,1382.3790734374431 L 447.4761745961336,1379.9016606319508 L 442.14183985778715,1375.0687306271063 L 410.6739447496714,1334.3171189514474 L 409.4807385950467,1332.096992957546 L 398.9992386154149,1317.7626960221621 L 396.75320342898164,1315.6795014960571 L 393.3139608664656,1315.0055039651754 L 386.224911075103,1314.6531820972189 L 381.7328398879147,1313.0906737732462 L 378.57435238532435,1310.56295632777 L 375.46265684984076,1304.87883080993 L 371.1811515504675,1300.4198197333817 L 362.337386298926,1297.4775162815488 L 361.70568863553376,1301.0174482959405 L 361.5653111055586,1302.6570498067747 L 361.00380261432804,1304.6183521462035 L 360.37210495093575,1305.8441175740459 L 358.68757825575767,1306.0586220654486 L 356.3713538971873,1304.9707635438137 L 351.7389055871847,1301.9521830982276 L 348.41664416391444,1301.4618332706839 L 338.73061536119206,1303.315935719496 L 320.73893422175485,1294.1671624881885 L 310.49139692780375,1294.0905311024785 L 301.08612237070804,1292.3586113343113 L 286.53368338665246,1283.2532899702462 L 284.006893140267,1272.6737629208492 L 282.3925552100651,1271.2782797223751 L 278.32161539131766,1268.5025027173922 L 272.0514323532457,1266.2786726621773 L 261.17219739590234,1258.7473931922505 L 256.2589948402958,1252.181274381461 L 249.59107601018675,1233.8885597569788 L 247.3918331980514,1230.1737334091808 L 245.0756088394545,1228.4850599109873 L 242.8997616037003,1228.1166121922333 L 242.47862982812126,1227.5946397145294 L 243.32089337930398,1226.79631454231 L 246.36240014978296,1225.245675012991 L 249.80164189800183,1222.482007646833 L 253.59182706395984,1218.627903105287 L 254.43409061514257,1213.46803347347 L 252.1178662565722,1208.8604350391333 L 239.7412736939472,1194.54272199036 L 236.86354084414626,1182.0642416344865 L 234.6175052505521,1180.0353459849946 L 230.827320084596,1177.5451946994865 L 227.0371349186115,1176.2539429552635 L 221.1880840632794,1173.2101109752514 L 219.22280230815102,1170.78102455885 L 218.66129381692045,1167.8597735007454 L 218.2401620413433,1163.6773940708827 L 218.2401620413433,1161.2784749995242 L 218.52091628694532,1159.310021916832 L 220.72015991343082,1153.5425023633604 L 221.2816684046614,1147.8049031020814 L 219.57374572591664,1143.6819278338687 L 211.08092348497985,1132.3261239163971 L 208.83488748422295,1127.308828848208 L 207.6416813296001,1122.8604442602368 L 207.50130420681046,1120.2281179582935 L 208.20319022801806,1113.9775600220278 L 218.7314821747339,1113.9159737976613 L 221.00091415905936,1114.3470790894135 L 223.01298747413554,1113.638831912226 L 223.15336500411067,1111.6371940957906 L 222.8258183842107,1109.4506725933584 L 222.96619550702687,1107.418021774145 L 224.5103450794134,1104.553654340396 L 224.3699675494383,1103.2908022817044 L 224.01902453883542,1101.7352825933963 L 224.15940206881058,1099.9948745630018 L 226.19487136742876,1096.0671221221319 L 227.38807792921438,1093.0170664882041 L 229.4235480421827,1091.6151943635052 L 232.79260143256164,1089.9359616083104 L 239.67108533613566,1087.5171245552156 L 244.65447706387735,1084.990282083614 L 245.70730650284867,1085.2059946381764 L 246.92390864101353,1086.192093366676 L 248.88918998898103,1089.3659309254256 L 251.1352255825771,1091.9541127324928 L 255.76767429974245,1090.752478621228 L 270.36690565806947,1091.18383859725 L 271.48992386201695,1089.6586502166062 L 272.84690353015884,1086.9932804187385 L 272.28539463176554,1084.6821190789021 L 271.7706781076436,1083.295357183909 L 269.45445374904864,1080.3675868843716 L 279.30425565815193,1076.8231517384313 L 315.5449770133835,1081.1072546918783 L 326.6581738420612,1073.6945356688072 L 330.5185481801809,1072.415275968477" fill="none" stroke="#000000" stroke-width="1.808"/>
</svg>
