<?xml version="1.0" ?>
<svg xmlns="http://www.w3.org/2000/svg" xmlns:ev="http://www.w3.org/2001/xml-events" xmlns:xlink="http://www.w3.org/1999/xlink" baseProfile="full" height="580px" version="1.1" viewBox="-80.4 -77.70810794296162 960.8 928.4972953155393" width="600px">
	<defs/>
	<path d="M 424.44785778887336,677.9413543909588 L 420.0836819796319,677.1776952161138 L 411.50362799043006,673.7984536492255 L 406.99115516685316,672.8904834076324 L 402.4574969969379,673.9569832122887 L 399.6822203175263,676.8895132516327 L 397.0998618256673,680.855049191302 L 396.999773757679,680.7869899468698 L 377.2490514940709,668.6340332710793 L 380.8355424759552,668.7702487456336 L 386.3904332214882,671.2900403777841 L 389.84347330939863,672.2547266046383 L 386.79078569841937,669.2469947588486 L 382.2034134217185,666.5906694838151 L 393.2418832328098,664.2695670466003 L 399.02547540124533,660.0007445390195 L 398.3263597923306,652.2679931298194 L 398.3051746509776,652.253563195384 L 398.28398930466335,652.203057770152 L 398.2628039583143,652.1958424977317 L 391.99194943926636,637.4129967665152 L 385.7633298700456,630.0527007548184 L 392.2145608503485,620.9984668359433 L 397.17192556987953,609.0820668775177 L 399.34342067079086,597.9824653950888 L 396.96007235783435,590.887655412871 L 396.5999218420451,589.8159365066374 L 390.36084565968264,582.7756671008467 L 385.7000755476265,581.7613957603012 L 385.2128132152209,581.6599652397 L 383.08368871985243,575.2541266269284 L 382.5010924328095,573.4855727420044 L 383.03072537075764,568.657351951993 L 385.2022204716574,566.4095119920285 L 390.0854363549805,566.801092916776 L 394.7250211642772,568.657351951993 L 399.00445545777393,569.2953940192955 L 404.74567693285366,570.1509124287727 L 416.3552315152865,570.8613949558226 L 416.9590131051009,570.8903938468762 L 416.98019840787236,570.8903938468762 L 416.98019840787236,565.2927326657052 L 414.82988842540107,559.185402170286 L 414.5121086994981,558.2567792211811 L 414.02484636708095,557.2990832309129 L 412.09698252454973,553.4387292740349 L 409.63948537538437,547.4868346874038 L 409.5971149541844,546.6011300508495 L 409.3428909522533,541.1406806998871 L 409.14163048375826,539.7389778820782 L 408.5696269402672,535.9036740155325 L 407.75399232273907,531.0647200551343 L 399.06801155043087,529.6040429394039 L 395.82665783005984,527.3510098607436 L 395.24406154300533,527.3510098607436 L 393.083159001314,522.5096064518864 L 392.00270782264585,518.801287225646 L 387.37371575691174,515.8194991790963 L 383.61332147345803,509.11218865532175 L 380.6050064522582,504.2655530762815 L 377.4483939429726,504.5566813679853 L 376.2514235068841,504.6585752102553 L 376.1243115059243,504.5857939209332 L 373.2748861633212,503.1446611200522 L 373.2748861633212,501.29575503873184 L 373.56088802724463,497.553648112728 L 373.94222384580456,497.33521159087644 L 375.4463812642325,496.44687355389414 L 377.8826929262839,496.44687355389414 L 382.2256833124379,496.44687355389414 L 385.2128132152209,496.44687355389414 L 386.02844801709205,495.55120714349806 L 386.5686735142606,494.96135179035474 L 386.5686735142606,490.4530114837946 L 386.5686735142606,484.8796482398683 L 385.2128132152209,482.6352121192469 L 385.2022204716574,482.6206365096601 L 383.32731997823214,480.02604309925164 L 383.32731997823214,477.3727310958132 L 383.32731997823214,472.188819274403 L 381.7172356772608,469.59991155694695 L 380.31900458833474,467.3242611085527 L 379.9800395596723,467.30237844178725 L 375.456973823441,466.93036723162726 L 373.0312549049527,467.5430869735796 L 371.929618607844,467.8202622858991 L 371.929618607844,466.1936151970197 L 368.9318957771671,463.20980469245706 L 366.5061768586677,460.94788432212226 L 363.8050488198193,456.0873751828555 L 357.5341944067799,448.23169243217825 L 354.30343342997185,442.6370269903372 L 348.59399000122613,441.1175275434172 L 345.5962675392348,441.1175275434172 L 343.4247722539813,441.1175275434172 L 343.4247722539813,438.1219576273297 L 343.4247722539813,434.78236376561915 L 341.26386971228914,430.63800649262066 L 341.26386971228914,426.9094035445893 L 341.26386971228914,421.3076322943552 L 341.40157445681234,419.28146616935277 L 341.7829100910297,413.77227638555905 L 343.0963999688695,410.727910962004 L 343.7107741179039,409.30799412107086 L 348.8588065623777,408.92737741212835 L 352.6509785234568,411.18167382898895 L 358.6252385133656,413.42103190750004 L 358.6358310725741,413.4356671135335 L 357.5341944067799,409.300674591626 L 357.33293393829683,408.4296349161651 L 357.32234119473424,408.4003555008279 L 360.9344381744452,409.249438305634 L 365.15031655963946,411.68665316748627 L 370.8067966392904,415.07474495272965 L 376.06075559760995,414.40157165781716 L 380.2766339828034,413.04050850378104 L 385.4882223355804,412.01597944067385 L 394.88391102722846,414.40157165781716 L 403.0720367235676,419.2009997762588 L 410.0102286347246,421.5855709356747 L 417.96531563191525,420.5688780370756 L 419.5118438402296,419.2448907459678 L 423.14512612271193,416.1283532564831 L 429.59605551711996,414.41620600862655 L 439.5107847718391,414.41620600862655 L 445.7074903486586,415.10401272211465 L 446.9680168773929,416.8453542766717 L 447.6883175402842,417.84764138965295 L 449.9127761746329,423.5017602776225 L 450.90848614222676,426.0612137345236 L 456.6179295709725,432.22423934380487 L 457.3276376746433,432.39235670353526 L 463.8103451153858,433.93457143730706 L 469.5727517088825,432.67011194544 L 471.2463919181682,435.30125042251615 L 473.2695897153363,443.367506700356 L 473.4708501838304,444.20021490839855 L 473.60855492835367,444.799155136491 L 475.22923178853335,452.021276189221 L 476.70161134498187,455.8100065722459 L 480.1971890672849,459.19651135959487 L 486.76463771910124,460.69978403279697 L 487.85568182567584,460.94788432212226 L 489.2539127302581,460.6341101059007 L 494.0523872181519,459.5759909485403 L 498.3212291367832,460.1962758527684 L 498.7661206793029,460.2619514883395 L 500.2490929793144,461.6994592253437 L 505.43949602931957,466.71153365635865 L 505.46068133209144,466.7407113937797 L 508.4372184913105,474.6023436450015 L 508.6067010978252,478.84522497423615 L 508.68084974969105,480.7403248486568 L 510.9159009432482,482.44573277715983 L 516.614751628442,484.50073865110903 L 521.0848538312245,487.7212010940001 L 521.8263399812301,488.2457429023507 L 522.5572335720155,488.4351570554612 L 524.548653507193,488.93053686152246 L 526.9425945637125,489.20736079367805 L 527.525190666412,489.2729236641174 L 528.5209006340067,485.50628834723017 L 530.2475041923868,481.4254240616533 L 534.1561954108857,482.7663887407381 L 534.2197515035432,482.79553868057667 L 538.9334847803627,484.83592846425074 L 544.6323354655565,484.83592846425074 L 546.5707920516392,485.30226875089227 L 546.6131626571821,485.3168415342847 L 545.2063250926572,486.72716750721827 L 544.9626941223327,486.96759873131737 L 544.1046887234121,494.2517687571589 L 545.2486957853205,505.1139056847593 L 547.0176698464861,514.3543211250135 L 549.0726457756296,523.6478428073773 L 548.1934550303835,527.6312926563523 L 541.1493367026851,527.6312926563523 L 520.9067648305682,525.6687611145288 L 503.0263556919177,526.453801192344 L 488.3555229349172,526.453801192344 L 474.2990637865876,525.6687611145288 L 473.31394671964597,529.6590025458229 L 472.816091593376,531.6864689391002 L 477.81393869248615,539.7327611732625 L 478.6844247371769,549.0008650196643 L 479.2987991657606,567.0227127003836 L 479.8708026967148,592.3254087020676 L 477.52982510459503,595.5254088377977 L 474.2990637865876,599.5571296943089 L 469.6171083973469,601.9670187267168 L 466.37575471364363,606.7713031667333 L 465.80375118268944,611.1402857512605 L 466.37504855592977,614.3327971829858 L 470.33740935260465,614.712757482382 L 471.0577101028732,614.785066929171 L 472.1275687601081,615.1827636677159 L 476.3328545743717,616.7806876045414 L 479.5615205820426,619.9740129760928 L 479.23524312678336,625.989321505821 L 478.98101917581675,630.5845453735077 L 476.92604345165137,638.5798769992633 L 475.4748491754516,640.2261458630227 L 473.4092806756346,642.5797446126356 L 471.35430454152464,646.9756271690617 L 471.12126593688356,657.1272953834526 L 471.0577101028732,659.7598255118529 L 471.14245148818793,660.2934943234186 L 473.14446394901563,672.1164641126181 L 476.3430999081345,682.489730979019 L 479.93435853072555,688.8996571962838 L 480.14621178902917,689.28842845989 L 480.26273109135485,689.3604223839768 L 486.30054680079564,693.6363032697858 L 499.212998477261,705.2060498382524 L 503.90554664215375,709.8231278106409 L 509.76315192816867,715.567431685622 L 511.5322612764459,719.3050854011449 L 512.4095604619408,721.1336679876679 L 523.2795203396989,732.6456917683204 L 533.2472127711005,742.2083253902696 L 539.1155461198796,748.1428027643158 L 544.6748515297585,749.7564929676564 L 544.9309160003428,755.8681799536688 L 543.9584486880696,768.871362194484 L 539.82310261951,762.7973021648463 L 537.5774587783952,761.0695966342959 L 532.0269054195544,761.4280561224093 L 520.8622424579522,757.6351758927342 L 514.1041257932361,753.9777296065304 L 478.2797522968828,729.8980047987548 L 467.19983051559416,722.7572994737495 L 462.3907632533598,718.7186809857706 L 453.577670864519,708.7474044206027 L 448.57793548532845,704.921262195359 L 441.39611250898963,702.8999654639533 L 439.1504686678577,701.4611746260526 L 432.73131713447395,691.3934437185317 L 432.3076110278126,688.2114115223926 L 432.54064922248466,681.4926410746316 L 431.947460345205,678.7842217173595 L 429.5747046310898,675.5782228617867 L 427.7103968189141,675.6430692663508 L 426.07912720141,677.0480141015846 L 424.44785778887336,677.9413543909588" fill="none" stroke="#000000" stroke-width="0.8"/>
	<path d="M 557.8094380798445,773.081079429616 L 554.4621578694732,771.8559490227896 L 547.1320374688484,771.053477126466 L 544.1025370434483,769.0829626438338 L 543.9584486880696,768.871362194484 L 544.9309160003428,755.8681799536688 L 544.6748515297585,749.7564929676564 L 539.1155461198796,748.1428027643158 L 533.2472127711005,742.2083253902696 L 523.2795203396989,732.6456917683204 L 512.4095604619408,721.1336679876679 L 511.5322612764459,719.3050854011449 L 509.76315192816867,715.567431685622 L 503.90554664215375,709.8231278106409 L 499.212998477261,705.2060498382524 L 486.30054680079564,693.6363032697858 L 480.26273109135485,689.3604223839768 L 480.14621178902917,689.28842845989 L 479.93435853072555,688.8996571962838 L 476.3430999081345,682.489730979019 L 473.14446394901563,672.1164641126181 L 471.14245148818793,660.2934943234186 L 471.0577101028732,659.7598255118529 L 471.12126593688356,657.1272953834526 L 471.35430454152464,646.9756271690617 L 473.4092806756346,642.5797446126356 L 475.4748491754516,640.2261458630227 L 476.92604345165137,638.5798769992633 L 478.98101917581675,630.5845453735077 L 479.23524312678336,625.989321505821 L 479.5615205820426,619.9740129760928 L 476.3328545743717,616.7806876045414 L 472.1275687601081,615.1827636677159 L 471.0577101028732,614.785066929171 L 470.33740935260465,614.712757482382 L 466.37504855592977,614.3327971829858 L 465.80375118268944,611.1402857512605 L 466.37575471364363,606.7713031667333 L 469.6171083973469,601.9670187267168 L 474.2990637865876,599.5571296943089 L 477.52982510459503,595.5254088377977 L 479.8708026967148,592.3254087020676 L 479.2987991657606,567.0227127003836 L 478.6844247371769,549.0008650196643 L 477.81393869248615,539.7327611732625 L 472.816091593376,531.6864689391002 L 473.31394671964597,529.6590025458229 L 474.2990637865876,525.6687611145288 L 488.3555229349172,526.453801192344 L 503.0263556919177,526.453801192344 L 520.9067648305682,525.6687611145288 L 541.1493367026851,527.6312926563523 L 542.9650224766376,541.043433500734 L 539.6397692574028,553.5778661363659 L 545.4589624832411,560.4109193679114 L 552.1094692904082,556.9947374232855 L 560.42260252285,562.687991158041 L 572.0609891588686,560.4109193679114 L 588.6872558080944,575.2064193014872 L 597.8317024375106,580.8935589187008 L 604.3323975335315,585.1804704047211 L 609.2685768737332,587.6213714784686 L 600.4342991385435,600.0304955406373 L 597.1082040695203,607.1142528822551 L 595.4793226794555,615.5978479755004 L 595.3710079253536,616.161826205696 L 595.4769344520047,623.4701372619564 L 599.1419944473538,644.7699326941116 L 590.8161644091014,643.5933253381461 L 578.6346062585741,643.7521360618668 L 567.1733488583145,646.3362103283401 L 560.9660505832112,652.2679931298194 L 557.0255812905756,663.209671949833 L 557.1315080222282,668.0399520733876 L 559.1652984000382,673.6255107546033 L 564.0167363549483,683.4300498031855 L 565.1819289681542,688.765790445409 L 563.6777712236386,691.4798255780544 L 561.1143478025307,693.4736825798141 L 559.1017425660561,696.589968203191 L 559.2924102730442,701.4323972566341 L 561.1990889828674,708.0929933223638 L 563.9743656622794,714.7581846091683 L 571.0926328046125,726.3711275088344 L 575.2661404968867,730.6952229888361 L 578.7829034778936,735.2623507895352 L 580.9014354460207,742.8715263467161 L 580.8166940607056,750.9651297760336 L 579.4302748423343,754.4334970528463 L 578.528679526927,756.6886174449975 L 574.1856894739796,760.9405493746708 L 572.0439163742133,762.1868609308195 L 567.9148349549141,764.5893443625051 L 569.355436660446,767.3630564849902 L 569.8003283184062,769.8496986930699 L 569.0376568754691,771.5406965196236 L 566.91912511232,771.8416196151283 L 564.609925437206,770.3512831794804 L 562.2371695181067,770.1649822389256 L 559.9279700479714,771.1394578932444 L 557.8094380798445,773.081079429616" fill="none" stroke="#000000" stroke-width="0.8"/>
	<path d="M 684.4129017061052,508.3261147617453 L 680.9596949690598,507.1108911444264 L 678.2691594699852,503.7267244465968 L 676.065886321521,499.57018464919224 L 673.1846829104571,496.72334657019945 L 668.5239128675603,497.1893580915074 L 665.4944124421603,499.42457808905726 L 660.6217891409534,504.8766894694593 L 656.850802413976,506.7761438568867 L 654.9017530115007,508.1660303910013 L 653.6941899106095,510.4798283935469 L 653.8001166422389,512.851506378568 L 655.7703511860673,514.3281804545946 L 658.9269634844549,515.2010305107169 L 660.4099358826502,516.1392940214896 L 663.1428418693924,520.4008271941585 L 663.0369153427418,522.233101212599 L 662.1471320268223,524.5449729311924 L 662.1259466804904,525.9915497834651 L 666.6384197090467,524.8212134209389 L 668.0790212096001,525.8970535331408 L 675.1761030056023,535.2568800245715 L 681.2562894077167,552.1974874973392 L 687.4212171951295,563.958075608552 L 685.9594301432662,565.2054812147471 L 680.5783591450992,565.5028143948927 L 678.2056034310016,566.7936147186837 L 677.7599855272387,567.4058059479174 L 676.6590751988015,568.9181453515412 L 675.3667709175908,571.3976358763542 L 673.7355013000699,573.7462923193663 L 671.5957841906074,575.6670193583667 L 670.9895921170704,574.2884851963533 L 670.8754832353433,574.0289789036447 L 666.7019755430515,568.6208720978577 L 664.8376675258977,565.4665545577508 L 664.3504051752686,563.1167501826561 L 664.51988774092,561.107553959219 L 664.3927756629535,559.1779208489338 L 662.9521741624052,557.15374632305 L 657.4439912912558,553.2861019860619 L 652.4654414633803,551.8636316415999 L 640.2626979665159,553.010326299744 L 636.4917112395377,554.8173014945767 L 637.190826643486,555.9347718547709 L 638.356019256692,558.5322430302261 L 639.0127641729557,559.6567226754288 L 633.6105078284739,561.3759441374664 L 607.4466395492309,580.6091734830837 L 604.3323975335315,585.1804704047211 L 597.8317024375106,580.8935589187008 L 588.6872558080944,575.2064193014872 L 572.0609891588686,560.4109193679114 L 560.42260252285,562.687991158041 L 552.1094692904082,556.9947374232855 L 545.4589624832411,560.4109193679114 L 539.6397692574028,553.5778661363659 L 542.9650224766376,541.043433500734 L 541.1493367026851,527.6312926563523 L 548.1934550303835,527.6312926563523 L 549.0726457756296,523.6478428073773 L 547.0176698464861,514.3543211250135 L 545.2486957853205,505.1139056847593 L 544.1046887234121,494.2517687571589 L 544.9626941223327,486.96759873131737 L 545.2063250926572,486.72716750721827 L 546.6131626571821,485.3168415342847 L 548.1828624597096,483.75427923800623 L 556.1829045669288,485.4381196946958 L 564.163512440583,478.1170029226927 L 573.4742217493988,478.1170029226927 L 581.4548298073843,477.2016395289106 L 587.6597174684164,471.6710695196031 L 588.0642247559915,471.85018727489546 L 601.2626780954439,482.340516413544 L 610.3511797815999,486.77816821975836 L 624.1322294276594,488.8035063558804 L 630.5831590830442,487.18616977507565 L 641.4300420547252,485.5686777254641 L 649.649945771276,484.3591004364951 L 656.3868770896478,481.13070740401196 L 665.4753787758042,477.09981322320226 L 672.2229026648503,471.85018727489546 L 677.2120450634052,466.5989241194263 L 683.6629747187905,465.38798384329573 L 684.8387599026754,461.3460227529394 L 682.4859377191752,453.25760635182775 L 678.9704265538973,448.8199920423201 L 672.2229026648503,446.7971411915951 L 667.5303544999691,446.7971411915951 L 662.8378065400549,441.93984585918275 L 673.4812156638305,434.6968881713271 L 687.613542306453,430.1077422814513 L 702.5771823460615,433.5497191594622 L 709.2276889688866,438.1379250849289 L 718.3721355983014,439.2847809062426 L 722.5287022145221,432.4024720634594 L 718.3721355983014,420.9256870969929 L 719.2034489952873,410.58986779972673 L 717.5408222013274,395.649098696158 L 719.2535096723499,391.10014677149337 L 722.546475287535,382.3504551029832 L 729.6011863908683,387.7673745377207 L 735.8508553586402,395.8565062205055 L 746.824850408277,413.5744735971073 L 767.7771304600121,436.2364386050249 L 771.8870821132979,445.54391991445794 L 776.8020761071729,461.2468308961074 L 777.1410412384593,468.7171763557483 L 771.8870821132979,473.8729907088644 L 771.0184841437153,477.24128472770576 L 770.6371483197539,481.3085857543162 L 770.8913722707098,485.2218896771927 L 771.8870821132979,488.2018042892859 L 773.3700545114983,489.59322170327465 L 773.9420582474249,490.8825484443997 L 773.4971663844807,492.05524012249765 L 771.8870821132979,493.07490560643714 L 764.1332556060164,489.96473267352064 L 761.654573365245,490.16869627069514 L 759.0911499441371,496.33742091871545 L 757.332768453633,498.73292920210474 L 755.7226841824672,496.22819546798377 L 754.027858730947,491.4871139540657 L 751.1254699735512,486.0962468285824 L 747.629892338893,481.58553465973245 L 744.1766853968874,479.5374625172474 L 741.9734122484059,480.19345572014504 L 737.2279010251896,483.9612784176434 L 734.812774618399,485.33118673105963 L 732.4188337629485,485.43319701362043 L 727.1860601891029,484.58066562364843 L 724.9404161429917,485.2364628278623 L 722.1015836295758,489.8918883565972 L 720.1737195734382,496.1990684301801 L 717.71622267898,500.97522434115626 L 713.1825645090656,500.97522434115626 L 703.4161325603268,499.468260132691 L 698.3104708594458,500.0870780140833 L 692.8234733346333,506.5796584591816 L 688.798262656677,508.17330692223703 L 684.4129017061052,508.3261147617453" fill="none" stroke="#000000" stroke-width="0.8"/>
	<path d="M 247.67755964997505,0.0 L 249.37238489649934,1.6654889744116657 L 251.0248398603293,7.770832273397986 L 251.32143429896914,10.0653725139476 L 251.19432242598668,12.569503982013833 L 252.3807003855417,14.173746019087018 L 256.61776391182104,13.70898158987296 L 256.06694552220904,11.69984913437088 L 255.21953289893534,9.750454964489029 L 258.24903332434053,10.845143209179463 L 260.7489009114442,13.933869316512432 L 262.90980357221633,15.418049939981056 L 264.8800381160627,11.714843449670527 L 265.6427095589826,13.948861876555123 L 265.96048954893195,15.65790490564446 L 265.7486362906288,17.42672663053208 L 264.8800381160627,19.83981076566092 L 266.1299719096053,18.7906874267712 L 269.37132559330854,16.707228901936375 L 270.6212593868747,15.687886565617138 L 274.60409937215564,24.395224810055954 L 283.35363592700884,31.001321920894522 L 288.7261773918955,33.49334290842532 L 301.53063929932034,39.43108919918653 L 303.7339124477842,38.15866660088002 L 313.50034439652296,37.45504949791284 L 314.3689423661286,36.152529668492015 L 318.30941165874657,27.55629725074182 L 326.2750914243475,32.81341341126391 L 330.10963398533045,34.40070156888165 L 336.8465653037091,38.81734469655074 L 338.73205866720116,40.43398798511927 L 341.57089138559604,42.02053818274586 L 345.3418781125734,41.61643160517339 L 352.1635506112711,39.43108919918653 L 352.58725712789504,38.45806912003784 L 353.1168899661915,36.661572588513664 L 354.0490439747808,35.52368963210258 L 355.6591282459465,36.55677089204153 L 356.84550600052387,38.48800910030669 L 357.07854460514733,40.134621534178784 L 356.44298503521543,41.7361681398083 L 354.9600128420163,43.56203940401971 L 357.5446216094386,44.44497006994603 L 360.00211850389,44.01099336403709 L 364.89592715142834,41.42185830672027 L 363.0104337879423,47.45256294302305 L 361.95116790636536,49.322678983724266 L 363.4765107922339,48.78410736808162 L 373.77257578425366,47.4226396087982 L 378.2638632615171,47.88644892110198 L 380.50950689764824,47.58721842984897 L 384.74657062892277,44.92382781563977 L 392.30972942922216,36.88614527289161 L 396.7374610724633,34.56541138667131 L 403.5379482248467,34.96969173781407 L 409.6393199732763,38.42812908510965 L 415.1475028444258,43.8613433126013 L 420.14099847612283,50.31063492467253 L 414.8462553589599,61.506494120469235 L 415.38020045899503,75.46246311772849 L 419.6226737056112,88.44742944203166 L 419.54258587634024,102.82933476993888 L 413.48156445545123,108.6242093544414 L 411.2178152259928,118.44714126338691 L 411.43452810017146,135.48819219173956 L 418.1551241320066,153.5331997258824 L 423.03440096439925,163.26555767476333 L 430.6422800153562,167.15766173174575 L 445.2539920962687,163.1673405311606 L 437.92387190061595,178.1809460760663 L 434.4071091245992,186.38737192823064 L 434.4071091245992,192.95802286563395 L 438.803062645862,201.17240741486384 L 445.83658840288604,208.145115651858 L 450.8241317488009,213.069346183092 L 451.9909234146414,220.8603434223777 L 451.9909234146414,227.82477542384532 L 451.12232544504775,234.78628478404335 L 446.13318284152587,240.51753501980056 L 438.803062645862,246.24680746931259 L 430.2971572663238,251.15392814569475 L 420.0328703962815,256.886919465409 L 413.39112380811014,261.90177736422316 L 412.9887518636055,262.2044218948929 L 404.1968448210799,261.79089944366893 L 386.30584331673344,265.0618762688044 L 373.4039842109424,265.0618762688044 L 366.07386401529004,264.6558079842546 L 362.55710123927327,260.1588617340047 L 358.4577419516598,256.47326467882493 L 353.17200511447703,247.47372364561406 L 346.7210754590923,242.97951621547801 L 339.39095505844983,242.56551491497825 L 329.70926449501377,242.56551491497825 L 317.9831907780987,241.95188679237296 L 312.41145207293755,239.9038311895063 L 309.7738800421668,237.44878922461743 L 299.21299852850666,237.0346496730237 L 294.22385612995214,238.26224681942185 L 292.7620690780999,246.45376323465706 L 293.6412598233464,263.6369023923999 L 294.52045056860356,276.3023379998927 L 297.7512114766428,286.0974129304946 L 301.26702519309663,295.4862458293106 L 306.257116856193,303.23967102166415 L 317.10240692465277,317.09478835835904 L 319.15897616696304,328.10365125860034 L 317.9831907780987,336.2437394763808 L 316.224809287595,342.75589319015484 L 314.2119074443797,349.5382259761337 L 314.1698335634412,349.66952145334443 L 295.1136394458832,346.42245598155694 L 289.541900740723,345.2028071445962 L 286.60767687678185,341.53425326854347 L 286.31113942271514,332.5749408668665 L 285.13397451528954,325.24927672499825 L 280.4533990545666,324.02843983756014 L 275.75025831901195,320.76166680991855 L 272.53008977665655,314.6531457015465 L 266.36516219421617,312.209110800595 L 256.694064201454,306.5025134725945 L 246.13318289276077,300.79396162915464 L 237.923871951862,294.6781172137419 L 233.23132378696926,290.1819077163064 L 229.41796657231265,289.7764520780294 L 222.0878463766599,287.3287651025121 L 218.27448895702435,280.3892373145655 L 215.6369167212751,275.07754810509266 L 213.29593912914376,271.4026375205459 L 210.06517801611486,270.5760397714128 L 205.0866281882454,270.5760397714128 L 199.51488927810624,266.0880772709337 L 186.89903224525958,257.49999635865447 L 178.10712499774303,250.13419401336748 L 172.23879164896488,244.40626321583895 L 165.96431491274146,239.04298731530818 L 163.1490196988578,236.63174396453638 L 161.39190847231683,231.72387637478118 L 162.27109921756286,225.98218680386046 L 166.37045830018585,225.5677612075446 L 174.29376778308642,225.5677612075446 L 186.60243760164124,229.25282584568666 L 200.97667632995845,234.57918293268577 L 212.7027502518641,239.09045375913055 L 224.14282210081288,238.26224681942185 L 232.9453219190029,237.86291815627783 L 234.70370340950697,232.9444692470187 L 236.74808676796496,227.21060196079125 L 238.80306269710846,222.296395590334 L 239.0996571357483,205.885419773598 L 239.0996571357483,191.51988373821456 L 238.21851907605938,179.6170552945083 L 236.4620851049887,176.32540301146886 L 231.1748580597851,176.73684855609886 L 230.01115544959188,173.44518769726824 L 230.01115544959188,168.51499517581706 L 230.01115544959188,157.0005348602662 L 227.9548272643036,149.5954287916299 L 220.03287044751642,138.47140744265442 L 210.94436876136047,129.4074607584681 L 202.4490559524953,124.04711893416174 L 191.59158020516267,121.16521432596481 L 183.97545834652206,119.51924988120497 L 172.8319807312342,117.86567158414908 L 160.79871980001525,117.03882063714313 L 154.34779014463044,116.21192790629202 L 139.98414419195365,115.3924436545682 L 126.48909641386139,114.15569030689102 L 120.03816675847618,112.08429307841818 L 114.16806504319842,105.07442442712941 L 112.12545025621809,100.5303574582959 L 112.12545025621809,95.57831870403209 L 115.3456187985731,90.20695327670681 L 125.02730936200916,86.90866267903174 L 129.7198573219118,84.83383344849979 L 130.88504993513536,81.95252139904802 L 131.01142920792947,79.65428157679052 L 129.8202663893097,77.74115998596766 L 129.12653172266104,76.62685311818109 L 131.3701606057715,68.35581536457246 L 135.54366829806366,60.55385093899816 L 136.49700765296643,58.20655819087231 L 136.9207139646123,54.812107722196245 L 136.49700765296643,52.92766072913518 L 136.45463716529915,51.29728989274586 L 137.97998005115014,48.619540550656716 L 139.8866585559896,47.28798277140156 L 145.26772955415666,45.59719767604995 L 147.47100270262007,43.98106317336607 L 150.26746472836314,39.565810542325686 L 156.98321070040987,24.66491361658035 L 166.62253077616708,18.071249607385724 L 178.52867983438603,18.475937323050957 L 219.37397385128367,30.656851743125813 L 224.58556228377617,29.967890250990127 L 227.14898570490132,27.691116202097305 L 227.46676569485714,25.578825689491957 L 227.31846827054156,23.06169841777523 L 228.48366088376508,19.60001731724137 L 230.53863681290858,17.561628954433147 L 232.82665114169149,16.572319541127406 L 234.83925658316682,15.178191751768038 L 235.98326364507523,11.939758272922836 L 237.63571860890988,10.905124099186486 L 239.77543571839047,8.505720284244388 L 241.4490758235618,6.090965313423812 L 242.06345004717292,4.7559473289285625 L 247.67755964997505,0.0" fill="none" stroke="#000000" stroke-width="0.8"/>
	<path d="M 123.02314501622672,82.05260117353775 L 128.02288019042206,80.69388821637838 L 129.12653172266104,76.62685311818109 L 129.8202663893097,77.74115998596766 L 131.01142920792947,79.65428157679052 L 130.88504993513536,81.95252139904802 L 129.7198573219118,84.83383344849979 L 125.02730936200916,86.90866267903174 L 115.3456187985731,90.20695327670681 L 112.12545025621809,95.57831870403209 L 112.12545025621809,100.5303574582959 L 114.16806504319842,105.07442442712941 L 120.03816675847618,112.08429307841818 L 126.48909641386139,114.15569030689102 L 139.98414419195365,115.3924436545682 L 154.34779014463044,116.21192790629202 L 160.79871980001525,117.03882063714313 L 172.8319807312342,117.86567158414908 L 183.97545834652206,119.51924988120497 L 191.59158020516267,121.16521432596481 L 202.4490559524953,124.04711893416174 L 210.94436876136047,129.4074607584681 L 220.03287044751642,138.47140744265442 L 227.9548272643036,149.5954287916299 L 230.01115544959188,157.0005348602662 L 230.01115544959188,168.51499517581706 L 230.01115544959188,173.44518769726824 L 231.1748580597851,176.73684855609886 L 236.4620851049887,176.32540301146886 L 238.21851907605938,179.6170552945083 L 239.0996571357483,191.51988373821456 L 239.0996571357483,205.885419773598 L 238.80306269710846,222.296395590334 L 236.74808676796496,227.21060196079125 L 234.70370340950697,232.9444692470187 L 232.9453219190029,237.86291815627783 L 224.14282210081288,238.26224681942185 L 212.7027502518641,239.09045375913055 L 200.97667632995845,234.57918293268577 L 186.60243760164124,229.25282584568666 L 174.29376778308642,225.5677612075446 L 166.37045830018585,225.5677612075446 L 162.27109921756286,225.98218680386046 L 161.39190847231683,231.72387637478118 L 163.1490196988578,236.63174396453638 L 165.96431491274146,239.04298731530818 L 164.3452744693948,240.09191913348434 L 159.73746770643257,248.79985495247902 L 156.47492868330164,252.9674036839563 L 146.44368017116173,255.2354707592335 L 139.6537855637363,257.8873123012747 L 132.59907439517133,258.64068327039695 L 127.99126763220866,260.1547077107437 L 120.67174027117852,259.77806093940546 L 115.77793164429285,260.1547077107437 L 112.79080174152149,264.31202647693095 L 111.43494144248176,266.9624206281735 L 108.99862959608744,268.09184739372336 L 103.84000459240518,267.33890491221695 L 101.58376828042043,268.3723466450587 L 100.35224469164456,268.99023046773675 L 99.78285043073106,266.3494625151984 L 97.57957728226724,264.1641290303891 L 93.32132840965645,261.4025203769687 L 89.59271237532491,260.4424951192677 L 87.30469804652442,260.35387480099513 L 86.54202660359336,261.2548276388021 L 86.64795313026148,259.0245107454025 L 88.00381345047866,257.8279921980384 L 89.7410095946444,256.690481181636 L 90.96975804187312,254.65162996363512 L 90.92738734920418,250.24803970862496 L 89.55034168267827,244.82322167170372 L 84.50823581582041,230.72814812997126 L 83.42778458791204,225.11932818139545 L 82.07192426770045,220.08605426759914 L 79.69916855357965,216.9616949374886 L 75.35617809067519,216.23604894751173 L 67.89894602202843,219.55302979342778 L 63.66188229075344,219.01998846798054 L 59.44600390579836,214.48844373916668 L 61.05608838197731,209.89639901045783 L 64.44573908000525,205.54018719826226 L 65.35670794724032,201.7609123195184 L 67.0515333987607,200.8863688352947 L 67.36931318373244,200.61955003144217 L 66.62782708711526,196.7650175833866 L 65.61093169322879,193.17653117784616 L 64.00084742204507,190.4772392820047 L 61.479794488621515,189.2609310957231 L 56.48005931441504,188.54890418531784 L 53.916635893307046,187.70333241620312 L 51.84047461783209,186.30878668474105 L 49.107568426087774,182.3025221604906 L 47.5610403988894,175.14818509309004 L 45.357767250425574,172.0301818056922 L 43.81123901824312,171.88169059792727 L 42.11641336175581,172.8468583146419 L 40.37921721756649,173.3071494128766 L 38.81150384403022,171.68865046475597 L 38.112388235121486,169.19377273314706 L 37.561569845509524,166.20833521512992 L 36.79889840257803,163.51949440953413 L 35.40066738969749,161.88517830020655 L 32.837243763605414,161.72173773978767 L 31.39664226307474,163.51949440953413 L 30.29500568883404,165.98551957639748 L 28.769662802965478,167.82737085259103 L 27.01128131247941,168.4214725196934 L 23.346221112152207,168.7036633090177 L 21.37598656832432,169.35713940744773 L 18.367671284277204,169.81752768547645 L 16.58810465243818,167.91648730603353 L 15.2534294735804,165.00509559015117 L 13.685715895042897,162.36063211111207 L 8.855463286487812,159.032166607563 L 7.711456019601747,157.5608898307941 L 2.5422382797550305,148.98326391551996 L 0.2542239509721255,143.98626633397177 L 0.0,139.16629983030754 L 2.987130142698869,135.19323163772373 L 7.203008527636376,133.88354663296624 L 10.783327137646758,132.2165238342362 L 11.757851838905014,127.12510792120484 L 9.82998778274398,121.64486862687168 L 6.546263611373008,116.46079133606804 L 3.728616239298463,110.66401518201695 L 3.0295006303841587,103.41890246095622 L 3.696678554804798,101.33919483028696 L 4.660770042903267,98.33349357852119 L 9.745246602430905,89.47128462410735 L 10.529103391676292,84.36663418964959 L 8.092791843556318,75.60144808129118 L 8.177533228871052,70.20861113651102 L 12.986600286134166,57.72808753793374 L 13.87638380703133,53.22679386789584 L 13.113712364100264,36.03275236276418 L 13.304380071087467,33.80174288153799 L 15.6347652975354,27.481397418548575 L 17.72971726003252,25.54706521900268 L 22.286955230581306,21.338442189612103 L 33.366876806903484,19.52508110854652 L 52.984481884723735,20.064614334672324 L 57.6876226202908,19.15039434326559 L 59.93326625642148,19.255307686991475 L 62.39076335585744,20.484239100974666 L 64.19151533401121,23.06169841777523 L 64.08558880736024,25.608789199629538 L 63.322917364428314,27.73605550949963 L 63.195805286461784,29.069201621931505 L 64.97537212329689,30.40223902612456 L 69.46665980552771,31.360760917453923 L 72.03008322663571,33.33753512404747 L 75.16551038366441,38.547888607175175 L 79.52968598792783,49.861232635716185 L 83.11000480294031,54.60273540546149 L 101.8590119111901,73.31605739220738 L 107.6426036696643,76.93071206372925 L 115.45998642091226,80.33552770797733 L 123.02314501622672,82.05260117353775" fill="none" stroke="#000000" stroke-width="0.8"/>
	<path d="M 420.14099847612283,50.31063492467253 L 426.6511309373372,58.71491742234725 L 430.3585616253368,62.12350954028351 L 434.48969862496,63.782699629624325 L 436.5234894127673,63.54354712015973 L 442.5824902635494,61.017289684378994 L 448.19659986635196,59.92594560308358 L 449.9549811518595,58.96909113618246 L 453.3446322598612,55.79911288496749 L 465.801599502714,40.8081880033727 L 468.87347062078305,39.206551071584606 L 472.07245381680144,39.176612402997456 L 475.33499284683575,40.94289803603385 L 486.6691381691344,51.17762339851541 L 491.2027965440277,53.31653254396503 L 495.1856363243306,54.109204420061744 L 497.61554264278067,54.15798336052386 L 497.6240997573984,54.27815629783832 L 497.973657459364,55.83346062468046 L 501.1185715224389,63.82916716469594 L 503.6407301205129,67.82230411662786 L 507.42230962314864,68.27059485665868 L 511.20388892080626,71.37840760237036 L 515.6104350127434,76.26305966050477 L 520.6525408796012,85.13985023149482 L 525.059087176528,86.02801187547402 L 531.6689064169226,86.02801187547402 L 536.0754527138494,86.02801187547402 L 537.0181997030628,83.37084694142273 L 538.5965056472726,79.81733741813011 L 540.1642194307769,75.81498690481843 L 545.8418846626003,73.60431588836445 L 552.7694838929501,70.93020164880636 L 557.8009971891349,68.27059485665868 L 559.061523553357,61.604744595855024 L 560.7765457304089,57.84501509524778 L 563.6989565699706,61.00234009291695 L 566.9010202124659,63.06321237988833 L 566.6140895779985,66.49230281589234 L 567.2495003321106,75.81280416142968 L 570.0778892956564,78.92137344211102 L 576.3805215267492,86.47580639548107 L 584.5686469163436,92.6839671579402 L 592.7461799402417,95.7871694128034 L 601.5698653097362,95.7871694128034 L 610.3829576985996,100.66457876849698 L 615.7305174649249,105.98608288261622 L 616.3674155573156,112.18476512352767 L 620.4565768616543,113.06786683173128 L 625.8164622635353,113.51492626088294 L 621.4934900331281,127.14356689632689 L 613.5713483239554,121.36629381088377 L 601.2626780954439,118.07424039009757 L 589.8226060415051,117.24739962117151 L 582.4924858458519,120.54706614767102 L 577.5033432423313,121.78333960856197 L 571.9316045371706,121.36629381088377 L 569.5906269450393,118.48217683115702 L 569.5906269450393,115.1838411862517 L 569.5886406843116,108.58111687600548 L 562.5571009830484,106.52450769155817 L 549.6446495115619,105.89835503189498 L 544.6660994787028,107.96307701129822 L 539.3803626415196,111.6819050301606 L 536.456788537804,119.1021464959209 L 532.0502422408772,131.87858687154997 L 527.0716924130081,139.70633814389106 L 518.8517889014248,141.76682966997956 L 502.7297614582559,141.76682966997956 L 493.93785421075137,142.59244218541994 L 485.71795049418984,143.82706451237087 L 484.2561636473157,148.76463017709472 L 484.2561636473157,156.9986372236311 L 487.47633218967155,160.7008943914902 L 495.98223756920936,165.23233444343342 L 505.0707390503872,168.93085131221127 L 513.576644429937,172.62854045860928 L 523.8409312999793,176.32540301146886 L 532.346836679529,179.20511672645242 L 541.4353383656734,182.0843291039039 L 547.0054495259191,188.6478125422483 L 548.1828624597096,196.04288812236166 L 547.0070770708337,202.61016641094045 L 536.456788537804,205.07037218549456 L 527.0716924130081,204.65542337862647 L 527.0273355904553,204.65542327944462 L 511.2356668378061,204.65542337862647 L 501.85057071301026,204.24787419185816 L 496.27883200785004,203.4253353529727 L 492.1671554439195,196.45432624500754 L 485.13508853289807,181.2528145998474 L 478.3878305035152,169.74768124291194 L 471.35430454152464,163.1673405311606 L 462.84839916197444,161.93416348822728 L 452.28751785329274,161.11694722711937 L 445.2539920962687,163.1673405311606 L 430.6422800153562,167.15766173174575 L 423.03440096439925,163.26555767476333 L 418.1551241320066,153.5331997258824 L 411.43452810017146,135.48819219173956 L 411.2178152259928,118.44714126338691 L 413.48156445545123,108.6242093544414 L 419.54258587634024,102.82933476993888 L 419.6226737056112,88.44742944203166 L 415.38020045899503,75.46246311772849 L 414.8462553589599,61.506494120469235 L 420.14099847612283,50.31063492467253" fill="none" stroke="#000000" stroke-width="0.8"/>
	<path d="M 566.9010202124659,63.06321237988833 L 568.7622477831663,64.26099362404709 L 574.1433185763326,66.2636980025556 L 579.0794979165338,66.42808835721313 L 578.6981622975574,62.362682438487724 L 577.7024522499908,58.834528986808365 L 577.7843599199166,56.84588473029222 L 577.8083787766593,56.26268555865257 L 580.8166940607056,55.00652260644307 L 582.4691488195566,55.111206523679115 L 585.7740585422487,55.93369991373666 L 587.4265135060787,55.993515791752834 L 588.8035591726273,55.455163307453525 L 591.6635770323751,53.70539514649244 L 593.0194375575703,53.46609639619438 L 594.5659657897709,54.169027235666796 L 595.4769344520047,55.48507229015514 L 596.8751654648852,59.26811421899578 L 598.0403580780911,61.60030677234649 L 599.459774437286,63.51365310086818 L 601.1334145424917,64.29088657241834 L 603.061278393651,63.244602454098015 L 603.696838168561,61.854435830204814 L 604.1205444802068,60.10534982552327 L 604.692548011155,58.415884265151256 L 605.7729992390579,57.2944622152104 L 607.1712302519204,57.144933237219554 L 608.3787935577961,57.89256335235757 L 609.3956887467217,59.20830998020932 L 617.0435887273513,74.85462321076858 L 619.5010858267697,77.81185052265442 L 621.9162122335358,78.87214059812662 L 627.6362481580109,79.42465942188888 L 629.0556645172057,79.96222703689321 L 629.881891794142,80.75361430470794 L 630.4538953251074,81.96301932630892 L 631.0470844073716,83.72470945031988 L 631.1530109340225,84.33677773362557 L 631.1530109340225,85.87431285986024 L 631.2801230120066,86.72512006135976 L 631.7250144649879,87.54603262273248 L 632.7630952052062,88.96387558697852 L 633.0808749901771,89.96375502621235 L 632.4665005615875,92.81382307291257 L 628.0175837769874,96.20043525159673 L 626.5346113788097,99.01959354596114 L 628.7378845272735,107.31019266017442 L 635.7925958355835,114.8665087672908 L 640.7803453918469,118.12624070255896 L 640.4025540901537,119.11704338161385 L 639.3538807792559,122.81101497971905 L 633.3690283331408,128.127092805518 L 628.3269226712611,128.127092805518 L 628.3269226712611,125.02997834515239 L 628.9624822411921,119.26600976832133 L 628.0185084438829,115.28715519962324 L 625.8164622635353,113.51492626088294 L 620.4565768616543,113.06786683173128 L 616.3674155573156,112.18476512352767 L 615.7305174649249,105.98608288261622 L 610.3829576985996,100.66457876849698 L 601.5698653097362,95.7871694128034 L 592.7461799402417,95.7871694128034 L 584.5686469163436,92.6839671579402 L 576.3805215267492,86.47580639548107 L 570.0778892956564,78.92137344211102 L 567.2495003321106,75.81280416142968 L 566.6140895779985,66.49230281589234 L 566.9010202124659,63.06321237988833" fill="none" stroke="#000000" stroke-width="0.8"/>
	<path d="M 516.9217731653171,36.85620265775918 L 521.8579525055012,38.81734469655074 L 531.1794927963034,45.52238019955825 L 534.2301785680173,46.86904345017363 L 548.6997510473511,48.095907221055384 L 552.6190349936488,49.89115181311345 L 556.1569833209936,52.85287637560532 L 560.7765457304089,57.84501509524778 L 559.061523553357,61.604744595855024 L 557.8009971891349,68.27059485665868 L 552.7694838929501,70.93020164880636 L 545.8418846626003,73.60431588836445 L 540.1642194307769,75.81498690481843 L 538.5965056472726,79.81733741813011 L 537.0181997030628,83.37084694142273 L 536.0754527138494,86.02801187547402 L 531.6689064169226,86.02801187547402 L 525.059087176528,86.02801187547402 L 520.6525408796012,85.13985023149482 L 515.6104350127434,76.26305966050477 L 511.20388892080626,71.37840760237036 L 507.42230962314864,68.27059485665868 L 503.6407301205129,67.82230411662786 L 501.1185715224389,63.82916716469594 L 497.973657459364,55.83346062468046 L 497.6240997573984,54.27815629783832 L 497.61554264278067,54.15798336052386 L 499.65573866022305,54.19893827227871 L 504.0199142645045,53.271663267252194 L 507.6214184258304,51.02803869192943 L 509.01964943871053,47.99117826051624 L 509.16794645303435,44.34021780347457 L 509.63402366231054,40.733348972319654 L 511.8796672984588,37.91914099767338 L 516.9217731653171,36.85620265775918" fill="none" stroke="#000000" stroke-width="0.8"/>
	<path d="M 640.7803453918469,118.12624070255896 L 644.1819819128197,120.3490021129742 L 650.5163920609058,122.46404201343523 L 667.9989716329331,122.01249965184748 L 668.0999747190132,127.55176985136585 L 664.9710111544541,129.82159382166284 L 660.3280329618824,131.94927006387115 L 657.1990693973241,136.9127807644518 L 654.5747773754357,144.7095673591654 L 649.8308648743292,148.25234390469166 L 639.6364997123792,149.1024971442934 L 636.5075361478201,151.36935843795177 L 632.9329783026923,155.9748629648936 L 627.0651738035209,155.5546784611672 L 625.6046090501961,150.62327079314377 L 624.4288238662991,139.09632362516157 L 621.4934900331281,127.14356689632689 L 625.8164622635353,113.51492626088294 L 628.0185084438829,115.28715519962324 L 628.9624822411921,119.26600976832133 L 628.3269226712611,125.02997834515239 L 628.3269226712611,128.127092805518 L 633.3690283331408,128.127092805518 L 639.3538807792559,122.81101497971905 L 640.4025540901537,119.11704338161385 L 640.7803453918469,118.12624070255896" fill="none" stroke="#000000" stroke-width="0.8"/>
	<path d="M 667.9989716329331,122.01249965184748 L 674.1592076117154,121.85338932032332 L 676.3836661064927,121.18313492789486 L 682.929929512882,119.14241420818298 L 687.1669932441574,118.53163871057512 L 690.4719029668436,117.33981592805473 L 708.8607593924754,103.94077633854995 L 711.4453683648994,103.32943687153968 L 712.7376728511055,105.05902205231246 L 713.5003442940425,107.47417327168093 L 714.5172394829444,108.86048918187548 L 716.5722154120944,108.86048918187548 L 720.1949049197522,107.31019266017442 L 722.2286955025642,106.9076879511178 L 731.3171971887257,108.86048918187548 L 733.2026905522174,108.56236652509696 L 734.8975160037197,107.7126875311973 L 736.7194533282235,107.7126875311973 L 740.8294051865156,111.64767374489325 L 742.8631957693216,112.36302486981296 L 744.9393568398004,112.13948085432862 L 745.4901754343973,111.82651465493838 L 745.5325459220651,111.55825285010597 L 746.3151191236423,112.46393586781247 L 747.5027806708714,113.83833837107316 L 748.7103437717627,114.9857129619715 L 749.5577563950364,116.62468087753591 L 750.1509452723169,119.02324037037046 L 750.3416131842994,121.94275464773077 L 749.6213124340201,122.73212632132878 L 748.5408612061293,123.01509934341416 L 747.6934485828607,124.355432185648 L 740.448069362555,159.0916091675166 L 738.3295375994123,164.41087108843388 L 736.359303055584,167.38178051494228 L 732.2281658509771,170.8570664890158 L 730.0460780488507,173.20321387978578 L 728.4995498166447,175.86078906186285 L 725.5547905715822,184.46899299669963 L 715.915470495831,200.90119215142133 L 714.9833164872425,201.83502399304558 L 712.7588579924592,203.1393359693291 L 711.7419628035393,204.4435455234494 L 711.3182562869321,206.37003009322652 L 711.5301095452361,210.96305207598257 L 711.1275885799217,212.99246568419937 L 709.9623961717002,215.27340788341007 L 707.6621862888366,210.520348403578 L 703.3037103151685,204.72849745848973 L 696.7659962624946,200.154552506945 L 693.497139051815,199.23961179751043 L 688.4848915991373,201.0694424085977 L 682.8188728517936,205.03338224879155 L 679.5104587894907,206.8783859572625 L 679.2670211975272,192.5506439793722 L 677.7939659593691,188.03395101630372 L 670.4645211743591,186.38737192823064 L 663.1344009786948,188.03410287552106 L 660.4968289479348,192.5506439793722 L 656.6834715282885,201.58003200007136 L 650.8151381795094,211.84146106194999 L 646.1225902196064,214.30029680823316 L 642.0232311369838,214.30029680823316 L 638.792469818976,211.42668181168784 L 627.6489924086542,198.29651402050044 L 619.7350536078566,190.49305670696657 L 617.6812999772526,184.74789639388948 L 617.977894620871,178.1809460760663 L 620.3188722130019,174.8853583579234 L 626.1872053568028,171.18817375271217 L 631.7589442669412,167.4901620507564 L 633.2207311138153,160.9089224066108 L 632.9329783026923,155.9748629648936 L 636.5075361478201,151.36935843795177 L 639.6364997123792,149.1024971442934 L 649.8308648743292,148.25234390469166 L 654.5747773754357,144.7095673591654 L 657.1990693973241,136.9127807644518 L 660.3280329618824,131.94927006387115 L 664.9710111544541,129.82159382166284 L 668.0999747190132,127.55176985136585 L 667.9989716329331,122.01249965184748" fill="none" stroke="#000000" stroke-width="0.8"/>
	<path d="M 135.67078017105212,352.52969461478614 L 133.46750702260584,352.30936336902994 L 131.45490178610817,351.1635932730771 L 129.1457021109938,349.3713341395117 L 125.20523281835865,345.4188696813682 L 122.19691753431196,340.4071522816061 L 117.64207401806567,329.276055979385 L 114.67612942668278,324.0829265292617 L 105.77829565250926,314.5015543873366 L 102.4310154421383,309.61308125115596 L 98.59647267617127,297.3561478519375 L 96.64742327369635,288.4376872130612 L 96.45675556669114,284.10203260609825 L 97.04994444397124,280.9896926203919 L 99.1261057194462,276.371737064671 L 99.8464064697139,273.9811095745111 L 100.39722485932671,269.19882355515114 L 100.35224469164456,268.99023046773675 L 101.58376828042043,268.3723466450587 L 103.84000459240518,267.33890491221695 L 108.99862959608744,268.09184739372336 L 111.43494144248176,266.9624206281735 L 112.79080174152149,264.31202647693095 L 115.77793164429285,260.1547077107437 L 120.67174027117852,259.77806093940546 L 127.99126763220866,260.1547077107437 L 132.59907439517133,258.64068327039695 L 139.6537855637363,257.8873123012747 L 146.44368017116173,255.2354707592335 L 156.47492868330164,252.9674036839563 L 159.73746770643257,248.79985495247902 L 164.3452744693948,240.09191913348434 L 165.96431491274146,239.04298731530818 L 172.23879164896488,244.40626321583895 L 178.10712499774303,250.13419401336748 L 186.89903224525958,257.49999635865447 L 199.51488927810624,266.0880772709337 L 205.0866281882454,270.5760397714128 L 210.06517801611486,270.5760397714128 L 213.29593912914376,271.4026375205459 L 215.6369167212751,275.07754810509266 L 218.27448895702435,280.3892373145655 L 222.0878463766599,287.3287651025121 L 229.41796657231265,289.7764520780294 L 233.23132378696926,290.1819077163064 L 237.923871951862,294.6781172137419 L 246.13318289276077,300.79396162915464 L 256.694064201454,306.5025134725945 L 266.36516219421617,312.209110800595 L 272.53008977665655,314.6531457015465 L 275.75025831901195,320.76166680991855 L 280.4533990545666,324.02843983756014 L 285.13397451528954,325.24927672499825 L 286.31113942271514,332.5749408668665 L 286.60767687678185,341.53425326854347 L 289.541900740723,345.2028071445962 L 295.1136394458832,346.42245598155694 L 314.1698335634412,349.66952145334443 L 314.2119074443797,349.5382259761337 L 315.48133706874336,353.3377808118333 L 319.008692653037,359.74050198444206 L 322.800864798471,363.8730666492093 L 324.15672509749965,366.88926742265323 L 324.43213421785964,370.6459158015684 L 326.879038439131,375.14984694496343 L 327.41926412064214,376.279307112726 L 329.31535010118233,378.5306663869226 L 330.4063940234131,384.5352551699349 L 332.5778893086674,386.7928336493524 L 336.10524489295034,390.9260534596519 L 339.6220075493384,394.29636408225537 L 344.78063273736365,394.67731332782495 L 350.47948342255745,395.0582536592087 L 356.1783341077513,404.05179139495823 L 357.3117486355258,408.4296349161651 L 357.33293393829683,408.4296349161651 L 357.5341944067799,409.300674591626 L 358.6358310725741,413.4356671135335 L 358.6252385133656,413.42103190750004 L 352.6509785234568,411.18167382898895 L 348.8588065623777,408.92737741212835 L 343.7107741179039,409.30799412107086 L 343.0963999688695,410.727910962004 L 341.7829100910297,413.77227638555905 L 341.40157445681234,419.28146616935277 L 341.26386971228914,421.3076322943552 L 341.26386971228914,426.9094035445893 L 341.26386971228914,430.63800649262066 L 343.4247722539813,434.78236376561915 L 343.4247722539813,438.1219576273297 L 343.4247722539813,441.1175275434172 L 345.5962675392348,441.1175275434172 L 348.59399000122613,441.1175275434172 L 354.30343342997185,442.6370269903372 L 357.5341944067799,448.23169243217825 L 363.8050488198193,456.0873751828555 L 366.5061768586677,460.94788432212226 L 368.9318957771671,463.20980469245706 L 371.929618607844,466.1936151970197 L 371.929618607844,467.8202622858991 L 371.91902567995004,470.6938648413947 L 371.10339106242185,476.6655965643756 L 368.11626115963895,480.4050535642305 L 365.4045401928846,485.63015624647807 L 360.78614087071395,487.12378628531195 L 353.73142988647993,488.60999864914834 L 348.04317176050614,488.60999864914834 L 343.4247722539813,489.3603403436012 L 336.6454703901185,493.0969824771385 L 331.76225432245366,496.0755054421573 L 324.43213421785964,499.4320857524137 L 319.008692653037,499.4320857524137 L 316.5617884317665,496.82551528805993 L 315.2059281327259,493.46113343809674 L 310.3227118807177,491.9753483905616 L 307.0707657854808,494.5826684575455 L 297.84455933166186,497.1968671409264 L 287.26249276314536,497.1968671409264 L 285.2181094788624,497.95410768081996 L 275.9529497703199,502.39769270240686 L 269.4348818372759,496.5558708254948 L 259.47778197654776,484.9377136817758 L 227.06424452456508,451.73631154625826 L 204.26884180200685,433.58352013119384 L 201.3240825569434,428.8978663173758 L 199.58688641277166,422.88720468927033 L 198.84540011119398,418.1254090211172 L 197.29887208397204,414.00620700973536 L 188.84592996777627,406.15277729020136 L 182.17255448340282,396.89667287804923 L 172.13071344233808,386.5727240768945 L 166.31550891746895,377.95135530528614 L 164.0802922914104,374.63620131374086 L 160.90249464670842,370.8951215993908 L 157.30099048538162,368.10710659088716 L 148.3184155308547,364.84894244730907 L 146.6447752207053,361.50205899224454 L 145.71262121211686,357.31751276424984 L 143.06445640569325,352.9703489619496 L 141.00948047654978,352.1330962243929 L 135.67078017105212,352.52969461478614" fill="none" stroke="#000000" stroke-width="0.8"/>
	<path d="M 355.60819612001114,608.9997546007364 L 353.79482022879273,607.8014877154031 L 350.65939307174045,604.0828532908398 L 348.28663756262085,598.6915573941185 L 346.57062676476346,592.9582618834329 L 345.2147662395909,589.9822654956655 L 343.05386357879524,588.005220296882 L 338.90154143783667,585.3543147016919 L 330.5545258482743,577.5585418519443 L 322.61003142899926,565.4738064752568 L 318.0340023614597,551.4644475064696 L 321.8897304737526,527.8377541096651 L 318.6271914437183,520.5680665329733 L 312.27159594929424,516.2920297838733 L 292.44213761315325,513.2152312375667 L 280.5148032086024,506.48505353175614 L 275.9529497703199,502.39769270240686 L 285.2181094788624,497.95410768081996 L 287.26249276314536,497.1968671409264 L 297.84455933166186,497.1968671409264 L 307.0707657854808,494.5826684575455 L 310.3227118807177,491.9753483905616 L 315.2059281327259,493.46113343809674 L 316.5617884317665,496.82551528805993 L 319.008692653037,499.4320857524137 L 324.43213421785964,499.4320857524137 L 331.76225432245366,496.0755054421573 L 336.6454703901185,493.0969824771385 L 343.4247722539813,489.3603403436012 L 348.04317176050614,488.60999864914834 L 353.73142988647993,488.60999864914834 L 360.78614087071395,487.12378628531195 L 365.4045401928846,485.63015624647807 L 368.11626115963895,480.4050535642305 L 371.10339106242185,476.6655965643756 L 371.91902567995004,470.6938648413947 L 371.929618607844,467.8202622858991 L 373.0312549049527,467.5430869735796 L 375.456973823441,466.93036723162726 L 379.9800395596723,467.30237844178725 L 380.31900458833474,467.3242611085527 L 381.7172356772608,469.59991155694695 L 383.32731997823214,472.188819274403 L 383.32731997823214,477.3727310958132 L 383.32731997823214,480.02604309925164 L 385.2022204716574,482.6206365096601 L 385.2128132152209,482.6352121192469 L 386.5686735142606,484.8796482398683 L 386.5686735142606,490.4530114837946 L 386.5686735142606,494.96135179035474 L 386.02844801709205,495.55120714349806 L 385.2128132152209,496.44687355389414 L 382.2256833124379,496.44687355389414 L 377.8826929262839,496.44687355389414 L 375.4463812642325,496.44687355389414 L 373.94222384580456,497.33521159087644 L 373.56088802724463,497.553648112728 L 373.2748861633212,501.29575503873184 L 373.2748861633212,503.1446611200522 L 376.1243115059243,504.5857939209332 L 376.2514235068841,504.6585752102553 L 377.4483939429726,504.5566813679853 L 380.6050064522582,504.2655530762815 L 383.61332147345803,509.11218865532175 L 387.37371575691174,515.8194991790963 L 392.00270782264585,518.801287225646 L 393.083159001314,522.5096064518864 L 395.24406154300533,527.3510098607436 L 395.82665783005984,527.3510098607436 L 399.06801155043087,529.6040429394039 L 407.75399232273907,531.0647200551343 L 408.5696269402672,535.9036740155325 L 409.14163048375826,539.7389778820782 L 409.3428909522533,541.1406806998871 L 409.5971149541844,546.6011300508495 L 409.63948537538437,547.4868346874038 L 412.09698252454973,553.4387292740349 L 414.02484636708095,557.2990832309129 L 414.5121086994981,558.2567792211811 L 414.82988842540107,559.185402170286 L 416.98019840787236,565.2927326657052 L 416.98019840787236,570.8903938468762 L 416.9590131051009,570.8903938468762 L 416.3552315152865,570.8613949558226 L 404.74567693285366,570.1509124287727 L 399.00445545777393,569.2953940192955 L 394.7250211642772,568.657351951993 L 390.0854363549805,566.801092916776 L 385.2022204716574,566.4095119920285 L 383.03072537075764,568.657351951993 L 382.5010924328095,573.4855727420044 L 383.08368871985243,575.2541266269284 L 385.2128132152209,581.6599652397 L 385.7000755476265,581.7613957603012 L 390.36084565968264,582.7756671008467 L 396.5999218420451,589.8159365066374 L 396.96007235783435,590.887655412871 L 399.34342067079086,597.9824653950888 L 397.17192556987953,609.0820668775177 L 392.2145608503485,620.9984668359433 L 385.7633298700456,630.0527007548184 L 383.5813780156992,627.4735573086812 L 355.60819612001114,608.9997546007364" fill="none" stroke="#000000" stroke-width="0.8"/>
	<path d="M 709.9623961717002,215.27340788341007 L 708.6277209928356,217.22825097989568 L 707.0176367216527,218.59058133988233 L 699.7722579113151,220.9891951908432 L 699.2426246630562,225.5041626571136 L 702.5263492444064,238.19869691180483 L 702.1238280741139,246.03546001871572 L 699.7087018723323,250.2332607184819 L 696.8698691539195,253.82419877900665 L 695.1114878684115,259.7926008587395 L 695.4716381410569,265.2420658893556 L 697.0605370659027,270.9406795344767 L 701.6153805821378,280.7536620463484 L 705.3228112701323,285.2524182577001 L 709.4539484747563,287.1400585844407 L 718.2458555172768,289.0569745605841 L 722.4829194535363,291.20955528116417 L 724.2836714317073,291.76977026650826 L 727.1860601891029,291.9319343499093 L 733.795879429498,290.3249667182851 L 736.1474497972808,290.78201017180373 L 739.6218420856183,293.7008937806849 L 743.1597902079614,298.8740218502517 L 745.7020284877165,305.0030569053359 L 746.1257347993447,310.79115775541703 L 747.4180392855567,314.4426652892473 L 751.2737671928887,318.46134466426753 L 760.2351570060275,325.09814097883856 L 762.417244808177,327.29020566312937 L 763.8578465136914,328.1139946231856 L 765.0654096145817,327.7609471095166 L 767.3746092897196,325.4071073641473 L 768.6033577369247,325.3776822270542 L 770.3405538811141,327.62855240198724 L 770.7854457440412,332.71763657431137 L 772.0777500252863,334.5263877635569 L 775.2555478749667,337.4964328692864 L 778.9494820340145,342.91101070608454 L 780.1493565225055,344.6694122897223 L 786.8227318019005,348.57797746281244 L 790.1700120122774,352.6618920818652 L 792.076690722101,354.18943106984517 L 792.8181770236791,353.39630306881884 L 794.0681108172222,351.6924198035905 L 795.9112334880449,351.04607408871664 L 798.4746571141318,353.33755157054003 L 800.0,358.68311161979193 L 798.2628038558287,363.3517350647426 L 794.7672262211755,367.2412598725004 L 786.3354694512774,373.5359706562075 L 781.4840314964024,375.29630493860617 L 776.4631109758641,375.73635993856584 L 764.7900005222798,374.56285489110326 L 753.9007468579413,375.3403111295259 L 750.8500608812433,376.24974243903193 L 747.884116289848,376.4110880542474 L 745.2359514834252,374.7535551485149 L 739.9396218705789,369.79464495731395 L 734.7492187844002,366.1258662773343 L 732.0374979389939,365.12781910426327 L 729.0503680012787,365.30394960334826 L 724.8133044749821,366.6982484760776 L 723.0549229844789,368.2538557155575 L 721.9321010639244,370.95381173743436 L 721.9532862052773,372.9784929099432 L 722.9278109065124,376.54309663673007 L 722.4829194535363,378.5524361662884 L 720.1525342271004,380.84014952767166 L 722.546475287535,382.3504551029832 L 719.2535096723499,391.10014677149337 L 709.2276889688866,379.5441299631298 L 699.251928942484,369.1827504021386 L 674.3125290608165,355.35758853201935 L 654.3610090080124,342.6744723609322 L 636.9034291461435,338.0600420687123 L 619.1430868241267,334.6189798979052 L 621.7912518355396,329.3245498484103 L 624.5751351055425,326.51074105349824 L 625.0114201729049,326.06616980592145 L 629.4179664698318,317.50897389144905 L 630.5831590830442,307.72499422568046 L 628.5281829489226,298.7605084642088 L 625.6046090501961,291.00016078269107 L 622.3738481421453,283.6491846220148 L 620.9014683146296,271.8085410786992 L 622.6704425807852,266.9001339631248 L 627.3629907456672,266.0880772709337 L 633.5173255524551,262.4111792626908 L 637.3306829720898,257.0937432830334 L 639.9682552078399,250.13419401336748 L 649.0567566890173,247.68066412135366 L 657.2660676299166,247.2741711218054 L 662.5518046720886,243.999689765057 L 668.4095452452152,239.09045375913055 L 671.9369007968847,237.65585469591497 L 677.2120450634052,233.14419410870735 L 678.9704265538973,229.0530541317647 L 679.5530228605035,209.38226070232582 L 679.5104587894907,206.8783859572625 L 682.8188728517936,205.03338224879155 L 688.4848915991373,201.0694424085977 L 693.497139051815,199.23961179751043 L 696.7659962624946,200.154552506945 L 703.3037103151685,204.72849745848973 L 707.6621862888366,210.520348403578 L 709.9623961717002,215.27340788341007" fill="none" stroke="#000000" stroke-width="0.8"/>
	<path d="M 314.2119074443797,349.5382259761337 L 316.224809287595,342.75589319015484 L 317.9831907780987,336.2437394763808 L 319.15897616696304,328.10365125860034 L 317.10240692465277,317.09478835835904 L 306.257116856193,303.23967102166415 L 301.26702519309663,295.4862458293106 L 297.7512114766428,286.0974129304946 L 294.52045056860356,276.3023379998927 L 293.6412598233464,263.6369023923999 L 292.7620690780999,246.45376323465706 L 294.22385612995214,238.26224681942185 L 299.21299852850666,237.0346496730237 L 309.7738800421668,237.44878922461743 L 312.41145207293755,239.9038311895063 L 317.9831907780987,241.95188679237296 L 329.70926449501377,242.56551491497825 L 339.39095505844983,242.56551491497825 L 346.7210754590923,242.97951621547801 L 353.17200511447703,247.47372364561406 L 358.4577419516598,256.47326467882493 L 362.55710123927327,260.1588617340047 L 366.07386401529004,264.6558079842546 L 373.4039842109424,265.0618762688044 L 386.30584331673344,265.0618762688044 L 404.1968448210799,261.79089944366893 L 412.9887518636055,262.2044218948929 L 413.39112380811014,261.90177736422316 L 415.2112242439494,266.1282196146706 L 417.43568287829765,272.69734290262437 L 421.4079300051119,276.8441496142297 L 425.6238083903062,282.0225175147924 L 426.36529454029994,287.1992746172518 L 425.3801771319261,299.2721183803526 L 425.8674396486863,314.1042810562328 L 428.3461217319371,320.99299223715644 L 435.29490638665726,327.54051845652305 L 440.50649455509,332.68845392464823 L 446.44897649865277,331.67370071576687 L 449.9233689181839,332.35020987925924 L 449.9233689181839,336.4822018757383 L 451.660564851441,343.02365669295096 L 452.89990607740384,347.4909533760433 L 456.8615606450096,349.9004468898121 L 460.3359526958547,349.9004468898121 L 462.5604113302034,349.9004468898121 L 465.04968634134866,352.6474329442624 L 466.03480356539154,358.83751413719904 L 467.52836842459993,367.43227285129296 L 470.74853684219994,367.43227285129296 L 476.70161134498187,367.0800552808744 L 478.43880746258196,368.7970460642143 L 478.9366627228932,372.9200389654408 L 478.43880746258196,375.6705814528859 L 480.66326591258724,378.75798552851177 L 480.66326591258724,381.5002376407706 L 483.1419481801815,381.5002376407706 L 484.87914429777,381.5002376407706 L 486.6163405997126,383.56762790081865 L 491.57370495055767,391.8053301937372 L 493.31090106814617,395.92266286776334 L 495.7895833357404,395.92266286776334 L 498.1941169514684,395.3366275976102 L 500.0054617209343,397.28511648191943 L 501.7426578385228,406.19693100042537 L 501.98628909690245,410.99138755432085 L 501.0011718728716,413.7356886984855 L 498.2682656033462,416.47954132480174 L 493.8087561441148,418.1914780855122 L 487.35782656536423,422.98250919942353 L 480.9174897301762,425.3811681266704 L 472.9835880357678,426.0612137345236 L 470.5049055838194,429.1466645428423 L 469.5091958005801,432.5677815208038 L 469.5515665904656,432.6262563072195 L 469.5727517088825,432.67011194544 L 463.8103451153858,433.93457143730706 L 457.3276376746433,432.39235670353526 L 456.6179295709725,432.22423934380487 L 450.90848614222676,426.0612137345236 L 449.9127761746329,423.5017602776225 L 447.6883175402842,417.84764138965295 L 446.9680168773929,416.8453542766717 L 445.7074903486586,415.10401272211465 L 439.5107847718391,414.41620600862655 L 429.59605551711996,414.41620600862655 L 423.14512612271193,416.1283532564831 L 419.5118438402296,419.2448907459678 L 417.96531563191525,420.5688780370756 L 410.0102286347246,421.5855709356747 L 403.0720367235676,419.2009997762588 L 394.88391102722846,414.40157165781716 L 385.4882223355804,412.01597944067385 L 380.2766339828034,413.04050850378104 L 376.06075559760995,414.40157165781716 L 370.8067966392904,415.07474495272965 L 365.15031655963946,411.68665316748627 L 360.9344381744452,409.249438305634 L 357.32234119473424,408.4003555008279 L 357.33293393829683,408.4296349161651 L 357.3117486355258,408.4296349161651 L 356.1783341077513,404.05179139495823 L 350.47948342255745,395.0582536592087 L 344.78063273736365,394.67731332782495 L 339.6220075493384,394.29636408225537 L 336.10524489295034,390.9260534596519 L 332.5778893086674,386.7928336493524 L 330.4063940234131,384.5352551699349 L 329.31535010118233,378.5306663869226 L 327.41926412064214,376.279307112726 L 326.879038439131,375.14984694496343 L 324.43213421785964,370.6459158015684 L 324.15672509749965,366.88926742265323 L 322.800864798471,363.8730666492093 L 319.008692653037,359.74050198444206 L 315.48133706874336,353.3377808118333 L 314.2119074443797,349.5382259761337" fill="none" stroke="#000000" stroke-width="0.8"/>
	<path d="M 413.39112380811014,261.90177736422316 L 420.0328703962815,256.886919465409 L 430.2971572663238,251.15392814569475 L 438.803062645862,246.24680746931259 L 446.13318284152587,240.51753501980056 L 451.12232544504775,234.78628478404335 L 451.9909234146414,227.82477542384532 L 451.9909234146414,220.8603434223777 L 450.8241317488009,213.069346183092 L 445.83658840288604,208.145115651858 L 438.803062645862,201.17240741486384 L 434.4071091245992,192.95802286563395 L 434.4071091245992,186.38737192823064 L 437.92387190061595,178.1809460760663 L 445.2539920962687,163.1673405311606 L 452.28751785329274,161.11694722711937 L 462.84839916197444,161.93416348822728 L 471.35430454152464,163.1673405311606 L 478.3878305035152,169.74768124291194 L 485.13508853289807,181.2528145998474 L 492.1671554439195,196.45432624500754 L 496.27883200785004,203.4253353529727 L 501.85057071301026,204.24787419185816 L 511.2356668378061,204.65542337862647 L 527.0273355904553,204.65542327944462 L 527.0273355904553,208.31133937816608 L 526.7837045164183,213.86660161722918 L 526.7837045164183,218.0207206277324 L 528.5209006340067,222.86957879224795 L 528.7645318923865,229.8109712792822 L 528.7645318923865,235.68446539769388 L 528.7645318923865,241.5706681431006 L 530.755951643232,247.4547845636176 L 533.9761202451634,249.8787889013196 L 544.1450731331397,249.5314685958298 L 547.1110177331508,251.60789274911545 L 548.6045827767022,257.14129372443983 L 548.6045827767022,262.33318370253744 L 551.083265044308,268.2025714896496 L 556.2842606535215,274.07726699607485 L 561.2416250043782,275.11766893492876 L 568.1904096590979,278.5704514044173 L 572.1520642266917,282.0225175147924 L 573.8892605286227,292.0279879752123 L 576.865797687843,302.0348172345095 L 576.865797687843,310.3054413479707 L 577.861507655437,311.68961479587324 L 582.3210172990114,312.72030780723236 L 588.0198677998502,312.72030780723236 L 590.0112879193817,318.5793234939751 L 594.2271663045757,320.3013058551298 L 608.3577735758031,319.6095907915857 L 619.7554749461792,319.6095907915857 L 624.5751351055425,326.51074105349824 L 621.7912518355396,329.3245498484103 L 619.1430868241267,334.6189798979052 L 612.4061557107437,340.7201991292475 L 603.3176540245873,350.0808695730494 L 595.987533828935,354.546280465522 L 588.4435744082964,354.86525816739606 L 587.2783816498564,352.6474329442624 L 582.3210172990114,351.6192022148092 L 578.8466248794798,349.20995677107436 L 576.865797687843,345.43379420694725 L 573.6456292702551,340.61317140240715 L 570.4148681090916,337.8642055636697 L 566.1989897239093,337.17321801654646 L 562.7351900479296,337.17321801654646 L 558.5193116627469,337.17321801654646 L 557.7778255127415,338.202338182874 L 555.5427745035278,340.9512481154734 L 552.8098682339904,346.1170931737828 L 549.3460687423653,348.87204713915827 L 545.3738216155507,348.87204713915827 L 540.172826006326,348.87204713915827 L 537.6941435543887,350.9287833605875 L 537.4399197368006,355.0561829916655 L 537.6941435543887,364.33543917639867 L 535.2154612867945,367.43227285129296 L 529.5060178580496,370.5138604155387 L 521.3284850896041,370.8660057106835 L 514.3797004348849,370.5138604155387 L 508.1935876016284,372.5826078197335 L 506.7000225580654,378.06868591556906 L 506.7000225580654,385.6201037388701 L 504.96282644046534,388.36856097021075 L 501.98628909690245,389.7389564648389 L 499.7618306468972,389.7389564648389 L 497.2831483793034,392.1423742287137 L 497.77041071172016,394.88243623835336 L 498.1941169514684,395.3366275976102 L 495.7895833357404,395.92266286776334 L 493.31090106814617,395.92266286776334 L 491.57370495055767,391.8053301937372 L 486.6163405997126,383.56762790081865 L 484.87914429777,381.5002376407706 L 483.1419481801815,381.5002376407706 L 480.66326591258724,381.5002376407706 L 480.66326591258724,378.75798552851177 L 478.43880746258196,375.6705814528859 L 478.9366627228932,372.9200389654408 L 478.43880746258196,368.7970460642143 L 476.70161134498187,367.0800552808744 L 470.74853684219994,367.43227285129296 L 467.52836842459993,367.43227285129296 L 466.03480356539154,358.83751413719904 L 465.04968634134866,352.6474329442624 L 462.5604113302034,349.9004468898121 L 460.3359526958547,349.9004468898121 L 456.8615606450096,349.9004468898121 L 452.89990607740384,347.4909533760433 L 451.660564851441,343.02365669295096 L 449.9233689181839,336.4822018757383 L 449.9233689181839,332.35020987925924 L 446.44897649865277,331.67370071576687 L 440.50649455509,332.68845392464823 L 435.29490638665726,327.54051845652305 L 428.3461217319371,320.99299223715644 L 425.8674396486863,314.1042810562328 L 425.3801771319261,299.2721183803526 L 426.36529454029994,287.1992746172518 L 425.6238083903062,282.0225175147924 L 421.4079300051119,276.8441496142297 L 417.43568287829765,272.69734290262437 L 415.2112242439494,266.1282196146706 L 413.39112380811014,261.90177736422316" fill="none" stroke="#000000" stroke-width="0.8"/>
	<path d="M 527.0273355904553,204.65542327944462 L 527.0716924130081,204.65542337862647 L 536.456788537804,205.07037218549456 L 547.0070770708337,202.61016641094045 L 548.1828624597096,196.04288812236166 L 547.0054495259191,188.6478125422483 L 541.4353383656734,182.0843291039039 L 532.346836679529,179.20511672645242 L 523.8409312999793,176.32540301146886 L 513.576644429937,172.62854045860928 L 505.0707390503872,168.93085131221127 L 495.98223756920936,165.23233444343342 L 487.47633218967155,160.7008943914902 L 484.2561636473157,156.9986372236311 L 484.2561636473157,148.76463017709472 L 485.71795049418984,143.82706451237087 L 493.93785421075137,142.59244218541994 L 502.7297614582559,141.76682966997956 L 518.8517889014248,141.76682966997956 L 527.0716924130081,139.70633814389106 L 532.0502422408772,131.87858687154997 L 536.456788537804,119.1021464959209 L 539.3803626415196,111.6819050301606 L 544.6660994787028,107.96307701129822 L 549.6446495115619,105.89835503189498 L 562.5571009830484,106.52450769155817 L 569.5886406843116,108.58111687600548 L 569.5906269450393,115.1838411862517 L 569.5906269450393,118.48217683115702 L 571.9316045371706,121.36629381088377 L 577.5033432423313,121.78333960856197 L 582.4924858458519,120.54706614767102 L 589.8226060415051,117.24739962117151 L 601.2626780954439,118.07424039009757 L 613.5713483239554,121.36629381088377 L 621.4934900331281,127.14356689632689 L 624.4288238662991,139.09632362516157 L 625.6046090501961,150.62327079314377 L 627.0651738035209,155.5546784611672 L 632.9329783026923,155.9748629648936 L 633.2207311138153,160.9089224066108 L 631.7589442669412,167.4901620507564 L 626.1872053568028,171.18817375271217 L 620.3188722130019,174.8853583579234 L 617.977894620871,178.1809460760663 L 617.6812999772526,184.74789639388948 L 619.7350536078566,190.49305670696657 L 627.6489924086542,198.29651402050044 L 638.792469818976,211.42668181168784 L 642.0232311369838,214.30029680823316 L 646.1225902196064,214.30029680823316 L 650.8151381795094,211.84146106194999 L 656.6834715282885,201.58003200007136 L 660.4968289479348,192.5506439793722 L 663.1344009786948,188.03410287552106 L 670.4645211743591,186.38737192823064 L 677.7939659593691,188.03395101630372 L 679.2670211975272,192.5506439793722 L 679.5104587894907,206.8783859572625 L 679.5530228605035,209.38226070232582 L 678.9704265538973,229.0530541317647 L 677.2120450634052,233.14419410870735 L 671.9369007968847,237.65585469591497 L 668.4095452452152,239.09045375913055 L 662.5518046720886,243.999689765057 L 657.2660676299166,247.2741711218054 L 649.0567566890173,247.68066412135366 L 639.9682552078399,250.13419401336748 L 637.3306829720898,257.0937432830334 L 633.5173255524551,262.4111792626908 L 627.3629907456672,266.0880772709337 L 622.6704425807852,266.9001339631248 L 620.9014683146296,271.8085410786992 L 622.3738481421453,283.6491846220148 L 625.6046090501961,291.00016078269107 L 628.5281829489226,298.7605084642088 L 630.5831590830442,307.72499422568046 L 629.4179664698318,317.50897389144905 L 625.0114201729049,326.06616980592145 L 624.5751351055425,326.51074105349824 L 619.7554749461792,319.6095907915857 L 608.3577735758031,319.6095907915857 L 594.2271663045757,320.3013058551298 L 590.0112879193817,318.5793234939751 L 588.0198677998502,312.72030780723236 L 582.3210172990114,312.72030780723236 L 577.861507655437,311.68961479587324 L 576.865797687843,310.3054413479707 L 576.865797687843,302.0348172345095 L 573.8892605286227,292.0279879752123 L 572.1520642266917,282.0225175147924 L 568.1904096590979,278.5704514044173 L 561.2416250043782,275.11766893492876 L 556.2842606535215,274.07726699607485 L 551.083265044308,268.2025714896496 L 548.6045827767022,262.33318370253744 L 548.6045827767022,257.14129372443983 L 547.1110177331508,251.60789274911545 L 544.1450731331397,249.5314685958298 L 533.9761202451634,249.8787889013196 L 530.755951643232,247.4547845636176 L 528.7645318923865,241.5706681431006 L 528.7645318923865,235.68446539769388 L 528.7645318923865,229.8109712792822 L 528.5209006340067,222.86957879224795 L 526.7837045164183,218.0207206277324 L 526.7837045164183,213.86660161722918 L 527.0273355904553,208.31133937816608 L 527.0273355904553,204.65542327944462" fill="none" stroke="#000000" stroke-width="0.8"/>
	<path d="M 588.4435744082964,354.86525816739606 L 595.987533828935,354.546280465522 L 603.3176540245873,350.0808695730494 L 612.4061557107437,340.7201991292475 L 619.1430868241267,334.6189798979052 L 636.9034291461435,338.0600420687123 L 654.3610090080124,342.6744723609322 L 674.3125290608165,355.35758853201935 L 699.251928942484,369.1827504021386 L 709.2276889688866,379.5441299631298 L 719.2535096723499,391.10014677149337 L 717.5408222013274,395.649098696158 L 719.2034489952873,410.58986779972673 L 718.3721355983014,420.9256870969929 L 722.5287022145221,432.4024720634594 L 718.3721355983014,439.2847809062426 L 709.2276889688866,438.1379250849289 L 702.5771823460615,433.5497191594622 L 687.613542306453,430.1077422814513 L 673.4812156638305,434.6968881713271 L 662.8378065400549,441.93984585918275 L 657.8592565072074,435.87538686074754 L 648.1775659437714,434.25295565741635 L 628.8247773875739,433.8509774504507 L 619.7362759063961,435.06419055982246 L 615.6263240481092,440.32530597686247 L 613.5713483239554,449.62322265244967 L 610.0545853429604,456.500226436176 L 606.2412279233249,460.13470449038846 L 598.6145132890207,459.7260470936712 L 593.6359634611517,458.9232990295912 L 592.9440305728034,458.4098963764823 L 582.7890802844926,450.8352976925272 L 574.283174904954,447.19880989134185 L 567.8322454545472,443.9705852129953 L 559.0297456363577,443.5615351703982 L 553.4580067262184,443.152475174215 L 550.8204346954473,438.30143290901924 L 545.2486262969427,428.5943724638447 L 544.6660994787028,422.11629332116854 L 544.0729106014227,416.4397586854958 L 546.7104826321938,414.8227653721924 L 555.2163882167225,415.63494011316743 L 560.7881269218711,416.84946976043534 L 566.9530547092896,416.03735408252004 L 570.1732232516566,413.2056165080855 L 571.9316045371706,409.5609714480733 L 571.9316045371706,400.63629826049623 L 571.3490082305649,392.11718772676716 L 570.1732232516566,381.9735789181747 L 570.4698174853069,375.0659596089785 L 572.5247934144503,371.0168574239852 L 578.6791286311952,366.13022330400673 L 584.844056213636,360.84576930024673 L 586.3058430605093,354.9575083026918 L 588.4435744082964,354.86525816739606" fill="none" stroke="#000000" stroke-width="0.8"/>
	<path d="M 548.1828624597096,483.75427923800623 L 549.6446495115619,475.07306845412 L 550.5238402568075,463.36712448605937 L 552.8754104196126,456.500226436176 L 559.0297456363577,456.500226436176 L 563.1396972896545,456.500226436176 L 568.9974378627816,460.5433516811174 L 573.9865804663141,465.38798384329573 L 580.7341043553606,468.61210196079173 L 587.6597174684164,471.6710695196031 L 581.4548298073843,477.2016395289106 L 573.4742217493988,478.1170029226927 L 564.163512440583,478.1170029226927 L 556.1829045669288,485.4381196946958 L 548.1828624597096,483.75427923800623" fill="none" stroke="#000000" stroke-width="0.8"/>
	<path d="M 588.4435744082964,354.86525816739606 L 586.3058430605093,354.9575083026918 L 584.844056213636,360.84576930024673 L 578.6791286311952,366.13022330400673 L 572.5247934144503,371.0168574239852 L 570.4698174853069,375.0659596089785 L 570.1732232516566,381.9735789181747 L 571.3490082305649,392.11718772676716 L 571.9316045371706,400.63629826049623 L 571.9316045371706,409.5609714480733 L 570.1732232516566,413.2056165080855 L 566.9530547092896,416.03735408252004 L 560.7881269218711,416.84946976043534 L 555.2163882167225,415.63494011316743 L 546.7104826321938,414.8227653721924 L 544.0729106014227,416.4397586854958 L 544.6660994787028,422.11629332116854 L 545.2486262969427,428.5943724638447 L 550.8204346954473,438.30143290901924 L 553.4580067262184,443.152475174215 L 559.0297456363577,443.5615351703982 L 567.8322454545472,443.9705852129953 L 574.283174904954,447.19880989134185 L 582.7890802844926,450.8352976925272 L 592.9440305728034,458.4098963764823 L 592.3734507452248,459.03595970696375 L 589.894768661973,461.76512924900646 L 588.2317210119078,465.8799387560982 L 587.5749760729875,469.29359176903824 L 587.6597174684164,471.6710695196031 L 580.7341043553606,468.61210196079173 L 573.9865804663141,465.38798384329573 L 568.9974378627816,460.5433516811174 L 563.1396972896545,456.500226436176 L 559.0297456363577,456.500226436176 L 552.8754104196126,456.500226436176 L 550.5238402568075,463.36712448605937 L 549.6446495115619,475.07306845412 L 548.1828624597096,483.75427923800623 L 546.6131626571821,485.3168415342847 L 546.5707920516392,485.30226875089227 L 544.6323354655565,484.83592846425074 L 538.9334847803627,484.83592846425074 L 534.2197515035432,482.79553868057667 L 534.1561954108857,482.7663887407381 L 530.2475041923868,481.4254240616533 L 528.5209006340067,485.50628834723017 L 527.525190666412,489.2729236641174 L 526.9425945637125,489.20736079367805 L 524.548653507193,488.93053686152246 L 522.5572335720155,488.4351570554612 L 521.8263399812301,488.2457429023507 L 521.0848538312245,487.7212010940001 L 516.614751628442,484.50073865110903 L 510.9159009432482,482.44573277715983 L 508.68084974969105,480.7403248486568 L 508.6067010978252,478.84522497423615 L 508.4372184913105,474.6023436450015 L 505.46068133209144,466.7407113937797 L 505.43949602931957,466.71153365635865 L 500.2490929793144,461.6994592253437 L 498.7661206793029,460.2619514883395 L 498.3212291367832,460.1962758527684 L 494.0523872181519,459.5759909485403 L 489.2539127302581,460.6341101059007 L 487.85568182567584,460.94788432212226 L 486.76463771910124,460.69978403279697 L 480.1971890672849,459.19651135959487 L 476.70161134498187,455.8100065722459 L 475.22923178853335,452.021276189221 L 473.60855492835367,444.799155136491 L 473.4708501838304,444.20021490839855 L 473.2695897153363,443.367506700356 L 471.2463919181682,435.30125042251615 L 469.5727517088825,432.67011194544 L 469.5515665904656,432.6262563072195 L 469.5091958005801,432.5677815208038 L 470.5049055838194,429.1466645428423 L 472.9835880357678,426.0612137345236 L 480.9174897301762,425.3811681266704 L 487.35782656536423,422.98250919942353 L 493.8087561441148,418.1914780855122 L 498.2682656033462,416.47954132480174 L 501.0011718728716,413.7356886984855 L 501.98628909690245,410.99138755432085 L 501.7426578385228,406.19693100042537 L 500.0054617209343,397.28511648191943 L 498.1941169514684,395.3366275976102 L 497.77041071172016,394.88243623835336 L 497.2831483793034,392.1423742287137 L 499.7618306468972,389.7389564648389 L 501.98628909690245,389.7389564648389 L 504.96282644046534,388.36856097021075 L 506.7000225580654,385.6201037388701 L 506.7000225580654,378.06868591556906 L 508.1935876016284,372.5826078197335 L 514.3797004348849,370.5138604155387 L 521.3284850896041,370.8660057106835 L 529.5060178580496,370.5138604155387 L 535.2154612867945,367.43227285129296 L 537.6941435543887,364.33543917639867 L 537.4399197368006,355.0561829916655 L 537.6941435543887,350.9287833605875 L 540.172826006326,348.87204713915827 L 545.3738216155507,348.87204713915827 L 549.3460687423653,348.87204713915827 L 552.8098682339904,346.1170931737828 L 555.5427745035278,340.9512481154734 L 557.7778255127415,338.202338182874 L 558.5193116627469,337.17321801654646 L 562.7351900479296,337.17321801654646 L 566.1989897239093,337.17321801654646 L 570.4148681090916,337.8642055636697 L 573.6456292702551,340.61317140240715 L 576.865797687843,345.43379420694725 L 578.8466248794798,349.20995677107436 L 582.3210172990114,351.6192022148092 L 587.2783816498564,352.6474329442624 L 588.4435744082964,354.86525816739606" fill="none" stroke="#000000" stroke-width="0.8"/>
	<path d="M 592.9440305728034,458.4098963764823 L 593.6359634611517,458.9232990295912 L 598.6145132890207,459.7260470936712 L 606.2412279233249,460.13470449038846 L 610.0545853429604,456.500226436176 L 613.5713483239554,449.62322265244967 L 615.6263240481092,440.32530597686247 L 619.7362759063961,435.06419055982246 L 628.8247773875739,433.8509774504507 L 648.1775659437714,434.25295565741635 L 657.8592565072074,435.87538686074754 L 662.8378065400549,441.93984585918275 L 667.5303544999691,446.7971411915951 L 672.2229026648503,446.7971411915951 L 678.9704265538973,448.8199920423201 L 682.4859377191752,453.25760635182775 L 684.8387599026754,461.3460227529394 L 683.6629747187905,465.38798384329573 L 677.2120450634052,466.5989241194263 L 672.2229026648503,471.85018727489546 L 665.4753787758042,477.09981322320226 L 656.3868770896478,481.13070740401196 L 649.649945771276,484.3591004364951 L 641.4300420547252,485.5686777254641 L 630.5831590830442,487.18616977507565 L 624.1322294276594,488.8035063558804 L 610.3511797815999,486.77816821975836 L 601.2626780954439,482.340516413544 L 588.0642247559915,471.85018727489546 L 587.6597174684164,471.6710695196031 L 587.5749760729875,469.29359176903824 L 588.2317210119078,465.8799387560982 L 589.894768661973,461.76512924900646 L 592.3734507452248,459.03595970696375 L 592.9440305728034,458.4098963764823" fill="none" stroke="#000000" stroke-width="0.8"/>
</svg>
