<?xml version="1.0" ?>
<svg xmlns="http://www.w3.org/2000/svg" xmlns:ev="http://www.w3.org/2001/xml-events" xmlns:xlink="http://www.w3.org/1999/xlink" baseProfile="full" height="600px" version="1.1" viewBox="-80.52693175733403 -105.91328322413784 961.053863514668 1265.6900811163136" width="456px">
	<defs/>
	<path d="M 381.4836982505861,362.0229361004619 L 413.8918721643046,406.6421744690323 L 479.1979963371641,456.4905318771632 L 470.88292594571845,460.1157566907599 L 413.13498107668613,513.7658204144306 L 411.58897356251543,514.1370892964117 L 410.13390841147634,514.3227252928754 L 407.0418933828994,514.3227252928754 L 405.3140011420827,521.0055397630443 L 404.49552620324016,526.0176192165482 L 401.22162644825283,582.2622907392094 L 398.8571439951807,582.447908920225 L 351.6584341321989,590.9863830751505 L 321.738634016168,530.844037265601 L 312.2807042040562,519.5204750527533 L 307.3698545713543,515.0652591898236 L 257.7157198921983,484.0637716671393 L 294.0014316267105,399.77866149694387 L 305.0053721182822,382.14086829682304 L 307.0060882835872,381.58388156481914 L 308.46115659994496,381.39821708707615 L 309.73434018986285,381.58388156481914 L 310.6437543265183,382.14086829682304 L 311.55317162849246,382.8835220995282 L 312.7354128551316,384.74014573621736 L 313.73576935509533,385.66845444305255 L 318.10097113870273,387.7107384884845 L 328.74114217742425,384.9258062648576 L 373.2116032994195,363.9457201831116 L 381.4836982505861,362.0229361004619" fill="none" stroke="#000000" stroke-width="1.0538635146680382"/>
	<path d="M 300.0142978434926,197.23040301762254 L 367.4901527277617,342.7560550539823 L 381.4836982505861,362.0229361004619 L 373.2116032994195,363.9457201831116 L 328.74114217742425,384.9258062648576 L 318.10097113870273,387.7107384884845 L 313.73576935509533,385.66845444305255 L 312.7354128551316,384.74014573621736 L 311.55317162849246,382.8835220995282 L 310.6437543265183,382.14086829682304 L 309.73434018986285,381.58388156481914 L 308.46115659994496,381.39821708707615 L 307.0060882835872,381.58388156481914 L 305.0053721182822,382.14086829682304 L 294.0014316267105,399.77866149694387 L 257.7157198921983,484.0637716671393 L 241.61905137185715,462.9004403303216 L 229.0691033658497,458.2592916457518 L 187.14500625804777,460.67269284326414 L 169.50232705824672,368.2160438037753 L 171.59398558677162,246.96772357530895 L 176.23200812957816,237.68307657201782 L 179.5968502478738,222.08464226169082 L 181.68850877645758,221.34185647662306 L 182.87075000306726,220.59906358738118 L 183.87110966834962,220.22766851832816 L 184.78052697032373,220.59906358738118 L 185.87182266830652,220.970458496188 L 186.96312469692657,222.08464226169082 L 189.14572242329385,223.19882781752963 L 191.6011472396448,224.12731037087502 L 194.51128070710058,225.0557951547402 L 196.23917294788777,225.0557951547402 L 198.05800438651735,224.4987037582338 L 199.51307270287512,224.12731037087502 L 201.15002258038353,223.94161523290066 L 203.87826815587468,224.31300546869952 L 204.87862465583842,224.31300546869952 L 206.06086904776674,224.12731037087502 L 206.97028318445166,223.94161523290066 L 208.2434667741929,224.31300546869952 L 210.244182939439,225.79858096860636 L 215.518798859908,225.2414932839915 L 223.88542980874786,221.8989466834075 L 238.89079946575814,207.4144292342445 L 246.89366412700753,202.77190342332005 L 251.98639532083058,201.28629465927693 L 253.71429072696588,202.21480084133813 L 255.53312216577214,202.77190342332005 L 256.80630259022416,202.95760959006466 L 257.98854698197584,203.8861139694519 L 259.6254968596609,204.07181343235078 L 261.7171522227199,203.8861139694519 L 267.5374159920773,198.68646426592252 L 268.264948567641,198.68646426592252 L 268.62871802066786,199.05786862692827 L 273.5395676533403,200.1720807482033 L 294.0014316267105,199.42927605938553 L 300.0142978434926,197.23040301762254" fill="none" stroke="#000000" stroke-width="1.0538635146680382"/>
	<path d="M 275.5391886233095,144.3279882550504 L 300.0142978434926,197.23040301762254 L 294.0014316267105,199.42927605938553 L 273.5395676533403,200.1720807482033 L 268.62871802066786,199.05786862692827 L 268.264948567641,198.68646426592252 L 267.5374159920773,198.68646426592252 L 261.7171522227199,203.8861139694519 L 259.6254968596609,204.07181343235078 L 257.98854698197584,203.8861139694519 L 256.80630259022416,202.95760959006466 L 255.53312216577214,202.77190342332005 L 253.71429072696588,202.21480084133813 L 251.98639532083058,201.28629465927693 L 246.89366412700753,202.77190342332005 L 238.89079946575814,207.4144292342445 L 223.88542980874786,221.8989466834075 L 215.518798859908,225.2414932839915 L 210.244182939439,225.79858096860636 L 208.2434667741929,224.31300546869952 L 206.97028318445166,223.94161523290066 L 206.06086904776674,224.12731037087502 L 204.87862465583842,224.31300546869952 L 203.87826815587468,224.31300546869952 L 201.15002258038353,223.94161523290066 L 199.51307270287512,224.12731037087502 L 198.05800438651735,224.4987037582338 L 196.23917294788777,225.0557951547402 L 194.51128070710058,225.0557951547402 L 191.6011472396448,224.12731037087502 L 189.14572242329385,223.19882781752963 L 186.96312469692657,222.08464226169082 L 185.87182266830652,220.970458496188 L 184.78052697032373,220.59906358738118 L 183.87110966834962,220.22766851832816 L 182.87075000306726,220.59906358738118 L 181.68850877645758,221.34185647662306 L 179.5968502478738,222.08464226169082 L 176.23200812957816,237.68307657201782 L 171.59398558677162,246.96772357530895 L 169.50232705824672,368.2160438037753 L 93.20229201801767,358.00436102680953 L 34.181169889851965,385.66845444305255 L 11.963711293016365,379.88201302645905 L 4.517940298015483,254.04630376615913 L 18.3573221286805,251.05293694952886 L 83.47153828124084,207.60013116787047 L 272.35732326147087,146.31680572868422 L 275.5391886233095,144.3279882550504" fill="none" stroke="#000000" stroke-width="1.0538635146680382"/>
	<path d="M 4.517940298015483,254.04630376615913 L 0.0,177.68283533018158 L 7.017543489130244,121.96896245222328 L 31.93698449629881,74.87988048230459 L 81.91908484426601,23.693169843574427 L 145.50662420865734,0.0 L 210.23988560560687,35.10075825823849 L 258.64661595917954,107.93025202593711 L 275.5391886233095,144.3279882550504 L 272.35732326147087,146.31680572868422 L 83.47153828124084,207.60013116787047 L 18.3573221286805,251.05293694952886 L 4.517940298015483,254.04630376615913" fill="none" stroke="#000000" stroke-width="1.0538635146680382"/>
	<path d="M 47.859291950545405,729.0975402118329 L 28.64303673263714,661.7010750490722 L 11.963711293016365,379.88201302645905 L 34.181169889851965,385.66845444305255 L 93.20229201801767,358.00436102680953 L 169.50232705824672,368.2160438037753 L 187.14500625804777,460.67269284326414 L 168.13820427048643,486.1058201879153 L 162.95453071332565,491.11810156670856 L 162.40888286443735,490.746822818434 L 161.6813502888736,490.56118176937144 L 161.31758083581727,490.746822818434 L 160.59004826031244,491.48938015581905 L 159.68063095833833,492.23193685655525 L 159.13498310921443,492.41757754750057 L 158.0436810808299,492.23193685655525 L 157.49803323173546,492.23193685655525 L 156.58861592976135,492.04629935626707 L 155.31543550533874,492.04629935626707 L 154.49696056646675,492.23193685655525 L 153.67848562762424,492.7888555795038 L 151.31400000929236,494.2739661159204 L 150.76835216040402,494.64524335204453 L 149.58611093379434,495.2021605231197 L 149.04045991958736,495.3878005775855 L 148.49480890538038,495.3878005775855 L 144.67526130126916,498.7292856760378 L 143.4020777115868,499.47183616950156 L 142.5836027727148,499.8431111775573 L 141.9470125604888,499.8431111775573 L 141.40136471139434,500.21438925700573 L 140.0372355930556,500.21438925700573 L 139.3097061830461,500.21438925700573 L 138.67311280532476,500.4000250063864 L 137.0361629277869,501.5138483594232 L 130.48836658292473,503.92713222350983 L 128.39670805451763,510.23875648579656 L 119.12066296887508,550.7063222309548 L 114.20981333611432,562.5863509716237 L 110.57214412810006,569.6400417456176 L 106.93448125063479,570.7537761304974 L 105.66130082597661,571.681885410295 L 104.75188035874274,572.9812406104247 L 103.47869676900147,576.3224298363367 L 102.7511673587564,578.1786387181679 L 101.75080769347403,578.9211211588192 L 103.47869676900147,580.7773277107424 L 108.02578011373008,583.3760089199957 L 131.30684152176727,609.7336080557519 L 151.76870866036774,698.081418740221 L 114.39169489747107,727.0337871406049 L 111.29967986892355,730.3743840344704 L 104.93376508518257,735.1996665865357 L 87.56391297510017,742.8087113974398 L 80.37952325287,747.0771729568264 L 80.19763852625348,747.8195111187819 L 75.83243990793527,745.2213247827918 L 57.82599442036709,728.3329068076717 L 47.859291950545405,729.0975402118329" fill="none" stroke="#000000" stroke-width="1.0538635146680382"/>
	<path d="M 189.83570815706702,935.5826654429031 L 162.11958488018158,933.6327261496351 L 114.85857655901985,900.1755363198022 L 74.18546376494591,821.4218834346376 L 47.859291950545405,729.0975402118329 L 57.82599442036709,728.3329068076717 L 75.83243990793527,745.2213247827918 L 80.19763852625348,747.8195111187819 L 80.37952325287,747.0771729568264 L 87.56391297510017,742.8087113974398 L 104.93376508518257,735.1996665865357 L 111.29967986892355,730.3743840344704 L 114.39169489747107,727.0337871406049 L 151.76870866036774,698.081418740221 L 208.15252441106134,686.574438619739 L 213.15431640686532,684.3472622346256 L 236.16255072497776,658.3631344358046 L 294.7289673675339,849.1428124557186 L 300.00358328779686,872.8945548942513 L 300.4582919388722,877.7190485452877 L 298.9122812592062,877.9046069515007 L 189.83570815706702,935.5826654429031" fill="none" stroke="#000000" stroke-width="1.0538635146680382"/>
	<path d="M 627.9985683094537,927.0582721996199 L 586.6093814450408,955.5472250966748 L 511.5646252756546,1031.8053959726892 L 483.92409576132525,1035.165279747821 L 461.43931363322895,1034.8731173893552 L 439.67060557567777,1038.6712276260835 L 415.61045345312806,1053.863514668038 L 380.95238044949184,994.5536728155919 L 315.9326894245716,957.4464544179658 L 236.87790790159895,938.8922565745061 L 189.83570815706702,935.5826654429031 L 298.9122812592062,877.9046069515007 L 300.4582919388722,877.7190485452877 L 300.00358328779686,872.8945548942513 L 294.7289673675339,849.1428124557186 L 496.61940900461127,772.8730707483865 L 529.540281786117,783.079870757782 L 534.723952177753,788.2760130400145 L 540.7261038390455,797.9259098211961 L 546.4554252450946,837.0811268807681 L 547.4557849103769,839.864609075771 L 568.0995367754467,875.1212460945766 L 572.5556745917545,885.1412926702768 L 572.4647353939122,886.6257365069583 L 575.8295743469774,889.2235014972002 L 581.7407804794369,891.0790431873314 L 601.8388844955889,898.8722816894658 L 610.8421056568609,903.3255323784747 L 627.9985683094537,927.0582721996199" fill="none" stroke="#000000" stroke-width="1.0538635146680382"/>
	<path d="M 656.4993883753515,567.769125715367 L 693.7343369245343,579.8565351782863 L 758.7540279496607,609.6722269795018 L 800.0,661.7010750490722 L 788.9724311570181,785.4762980554416 L 698.6036511629459,878.4057558096686 L 627.9985683094537,927.0582721996199 L 610.8421056568609,903.3255323784747 L 601.8388844955889,898.8722816894658 L 581.7407804794369,891.0790431873314 L 575.8295743469774,889.2235014972002 L 572.4647353939122,886.6257365069583 L 572.5556745917545,885.1412926702768 L 568.0995367754467,875.1212460945766 L 547.4557849103769,839.864609075771 L 546.4554252450946,837.0811268807681 L 540.7261038390455,797.9259098211961 L 534.723952177753,788.2760130400145 L 529.540281786117,783.079870757782 L 496.61940900461127,772.8730707483865 L 512.0794873127558,714.2280479869573 L 559.0963124490917,652.4237941182587 L 584.2871476590666,642.4010697114171 L 608.0229177180025,627.5523731955864 L 612.5699978976186,623.0977186134924 L 651.1292528871544,576.3224298363367 L 656.4993883753515,567.769125715367" fill="none" stroke="#000000" stroke-width="1.0538635146680382"/>
	<path d="M 479.1979963371641,456.4905318771632 L 571.5717872482369,526.7996122095824 L 624.8478353598657,557.4940957198186 L 656.4993883753515,567.769125715367 L 651.1292528871544,576.3224298363367 L 612.5699978976186,623.0977186134924 L 608.0229177180025,627.5523731955864 L 584.2871476590666,642.4010697114171 L 559.0963124490917,652.4237941182587 L 512.0794873127558,714.2280479869573 L 482.06874483338714,657.9919272590008 L 475.0662398373907,650.1965334554503 L 401.22162644825283,582.2622907392094 L 404.49552620324016,526.0176192165482 L 405.3140011420827,521.0055397630443 L 407.0418933828994,514.3227252928754 L 410.13390841147634,514.3227252928754 L 411.58897356251543,514.1370892964117 L 413.13498107668613,513.7658204144306 L 470.88292594571845,460.1157566907599 L 479.1979963371641,456.4905318771632" fill="none" stroke="#000000" stroke-width="1.0538635146680382"/>
	<path d="M 401.22162644825283,582.2622907392094 L 475.0662398373907,650.1965334554503 L 482.06874483338714,657.9919272590008 L 512.0794873127558,714.2280479869573 L 496.61940900461127,772.8730707483865 L 294.7289673675339,849.1428124557186 L 236.16255072497776,658.3631344358046 L 319.1922668366855,625.696269896574 L 326.28571736110274,621.4272156385653 L 351.6584341321989,590.9863830751505 L 398.8571439951807,582.447908920225 L 401.22162644825283,582.2622907392094" fill="none" stroke="#000000" stroke-width="1.0538635146680382"/>
	<path d="M 229.0691033658497,458.2592916457518 L 241.61905137185715,462.9004403303216 L 257.7157198921983,484.0637716671393 L 307.3698545713543,515.0652591898236 L 312.2807042040562,519.5204750527533 L 321.738634016168,530.844037265601 L 351.6584341321989,590.9863830751505 L 326.28571736110274,621.4272156385653 L 319.1922668366855,625.696269896574 L 236.16255072497776,658.3631344358046 L 213.15431640686532,684.3472622346256 L 208.15252441106134,686.574438619739 L 151.76870866036774,698.081418740221 L 131.30684152176727,609.7336080557519 L 108.02578011373008,583.3760089199957 L 103.47869676900147,580.7773277107424 L 101.75080769347403,578.9211211588192 L 102.7511673587564,578.1786387181679 L 103.47869676900147,576.3224298363367 L 104.75188035874274,572.9812406104247 L 105.66130082597661,571.681885410295 L 106.93448125063479,570.7537761304974 L 110.57214412810006,569.6400417456176 L 114.20981333611432,562.5863509716237 L 119.12066296887508,550.7063222309548 L 128.39670805451763,510.23875648579656 L 130.48836658292473,503.92713222350983 L 137.0361629277869,501.5138483594232 L 138.67311280532476,500.4000250063864 L 139.3097061830461,500.21438925700573 L 140.0372355930556,500.21438925700573 L 141.40136471139434,500.21438925700573 L 141.9470125604888,499.8431111775573 L 142.5836027727148,499.8431111775573 L 143.4020777115868,499.47183616950156 L 144.67526130126916,498.7292856760378 L 148.49480890538038,495.3878005775855 L 149.04045991958736,495.3878005775855 L 149.58611093379434,495.2021605231197 L 150.76835216040402,494.64524335204453 L 151.31400000929236,494.2739661159204 L 153.67848562762424,492.7888555795038 L 154.49696056646675,492.23193685655525 L 155.31543550533874,492.04629935626707 L 156.58861592976135,492.04629935626707 L 157.49803323173546,492.23193685655525 L 158.0436810808299,492.23193685655525 L 159.13498310921443,492.41757754750057 L 159.68063095833833,492.23193685655525 L 160.59004826031244,491.48938015581905 L 161.31758083581727,490.746822818434 L 161.6813502888736,490.56118176937144 L 162.40888286443735,490.746822818434 L 162.95453071332565,491.11810156670856 L 168.13820427048643,486.1058201879153 L 187.14500625804777,460.67269284326414 L 229.0691033658497,458.2592916457518" fill="none" stroke="#000000" stroke-width="1.0538635146680382"/>
</svg>
