<?xml version="1.0" ?>
<svg xmlns="http://www.w3.org/2000/svg" xmlns:ev="http://www.w3.org/2001/xml-events" xmlns:xlink="http://www.w3.org/1999/xlink" baseProfile="full" height="489px" version="1.1" viewBox="-79.96581845565086 -65.19783989281419 955.6114225396684 778.3956797856283" width="600px">
	<defs/>
	<path d="M 26.60403409057815,224.62397852987726 L 24.91779218443236,224.5565983962702 L 21.88682556077194,223.9164697297049 L 20.37134235219086,223.24262081360146 L 19.282755784245914,221.3893824848232 L 17.51113442606578,217.2608998196044 L 16.57196169270042,216.199108007887 L 14.074616024736859,214.91811671899802 L 13.412926097480854,213.805589139546 L 13.626374521068515,212.30523343310773 L 15.227236975168188,208.68016453897798 L 15.462030261776286,206.5553021183732 L 11.385166796205752,192.22999087040665 L 12.580477472654307,189.2417319016335 L 17.34037572849524,184.47955690289825 L 18.5570312679584,182.52021261205667 L 17.895341340702398,176.01539564087665 L 14.650926499964239,171.11381408993108 L 7.265613604600387,162.91278614623744 L 5.216509440304955,156.59411292545238 L 3.146060412995131,142.1366555026605 L 0.0,134.61916344181301 L 4.172375692803634,131.55992338160868 L 12.00441751090232,128.95727906740547 L 40.038421436699345,107.71893603008546 L 82.9801958168632,82.40758060185631 L 124.543799762522,55.01484537620423 L 170.83015864344753,40.01079593861093 L 170.92221212134717,39.98628196672502 L 172.70942995674514,52.68885823712249 L 171.85563646892192,60.864918181648854 L 171.70622284086983,68.54295998599564 L 174.63046535602655,76.8124751856245 L 179.64650155496838,82.31445929462093 L 181.12114684803785,82.99606282177739 L 181.3755999072737,83.66652773852019 L 174.54525258666212,87.96768351955119 L 178.077822659291,96.49835718685944 L 173.0724589526114,100.04854882714177 L 178.6861506544184,101.8997519976153 L 183.49941098897338,110.47346087248313 L 176.09275318050265,124.5882312118787 L 167.05321550168622,130.48808840252528 L 190.4151374003591,147.14950383856697 L 185.94339454328622,150.3746277027273 L 192.11205191381444,160.99319773961562 L 186.71180858898913,169.05155809996523 L 190.244378847349,173.83549699968273 L 183.862273099839,176.72541189844603 L 193.80896605580764,181.709639250237 L 189.65739567134787,181.63362099298865 L 192.79508649729317,184.75850006743073 L 191.36498250149492,186.23625851610234 L 186.47701520715012,185.51850804043866 L 188.09922276080388,189.27576476193536 L 185.32439441718626,192.0107980611037 L 187.01063624247607,196.5005828132048 L 191.7918794412013,193.5553667718068 L 195.0149493579206,194.89724118720088 L 196.65850173070055,201.0227774198845 L 191.7918794412013,206.01587029923635 L 204.57743556964004,217.04206897255204 L 201.90933113591095,220.39554247931216 L 206.66922932977897,226.9318384983783 L 206.15695329931032,229.29802339106166 L 193.2666737747669,238.87319211017171 L 184.00301550133503,245.74636905490874 L 174.64330535895678,255.5417789809818 L 173.82152926888958,258.02956167934775 L 171.79376996760865,257.3824413889817 L 170.58778675638314,257.2899934720262 L 165.4970436401663,253.54117073265542 L 165.79375547208426,249.08206814294428 L 161.39883531157534,242.81071748303282 L 152.62610797265629,244.1398223494408 L 144.13086364636237,239.2770880727868 L 134.91550048157413,244.01770238114227 L 132.38399720881205,244.92146320704168 L 128.95251819679294,238.7503909624212 L 125.45196520642635,235.43464505444746 L 120.09441181886523,233.80175270040033 L 103.67843172060577,238.95549228160607 L 103.50196367025681,237.86248061853746 L 101.73863858301908,226.9440896544985 L 98.51695128268801,224.83111877449056 L 86.49980910301905,229.6984910104555 L 86.30770554243995,231.14661121455012 L 90.54117916732326,236.17614866262718 L 82.74311796304758,239.37806016202123 L 81.8466351622328,242.39009074852473 L 75.96613314720082,243.55099296579507 L 73.03121809728476,240.84208278934133 L 71.66514872326567,241.24592638070703 L 66.16885362288197,244.62769208505233 L 70.36311393828402,258.06317761827194 L 71.23544831435585,261.1400928975646 L 54.71518191548661,253.56980543423268 L 50.89445639301698,250.35819941285374 L 49.80586982508964,248.35690704338447 L 47.03104135102827,241.77937214883903 L 45.85707533105492,239.62549231125362 L 38.17293476657888,232.26970348180413 L 36.80686518603809,229.82820654943114 L 36.16652032831827,227.62210195270865 L 35.120623279886466,225.73571153035215 L 32.409829188335024,224.30391916578793 L 30.44610447609165,224.084927436834 L 26.60403409057815,224.62397852987726" fill="none" stroke="#000000" stroke-width="0.7956797856283666"/>
	<path d="M 75.39832711903765,262.2595895043731 L 72.17525693476885,261.57063932220217 L 71.23544831435585,261.1400928975646 L 70.36311393828402,258.06317761827194 L 66.16885362288197,244.62769208505233 L 71.66514872326567,241.24592638070703 L 73.03121809728476,240.84208278934133 L 75.96613314720082,243.55099296579507 L 81.8466351622328,242.39009074852473 L 82.74311796304758,239.37806016202123 L 90.54117916732326,236.17614866262718 L 86.30770554243995,231.14661121455012 L 86.49980910301905,229.6984910104555 L 98.51695128268801,224.83111877449056 L 101.73863858301908,226.9440896544985 L 103.50196367025681,237.86248061853746 L 103.67843172060577,238.95549228160607 L 92.85840213829634,242.35144515706534 L 88.09850388243187,245.3292405085783 L 84.34181294899386,249.38281271668797 L 78.13046586705833,260.15903417921135 L 75.39832711903765,262.2595895043731" fill="none" stroke="#000000" stroke-width="0.7956797856283666"/>
	<path d="M 173.32843015798986,329.3745642964511 L 169.72115305908434,328.35404875157207 L 160.6922879836038,323.6521006152331 L 157.98149389205247,321.5098056934054 L 154.73707905130837,317.3415084642999 L 153.66983713986207,313.6577243644156 L 153.34966460774726,303.32161901726977 L 147.88538690513718,285.0613019819631 L 146.2204896554666,275.66268427094656 L 149.10204244460618,270.23904811968094 L 146.75411061119854,262.4948335720337 L 145.11055822454247,259.48679512331677 L 142.3357297504811,258.5792247910325 L 139.43283209834473,258.1758429825711 L 137.78927991821033,256.2596320456809 L 135.24924452422945,250.07231681628193 L 132.38399720881205,244.92146320704168 L 134.91550048157413,244.01770238114227 L 144.13086364636237,239.2770880727868 L 152.62610797265629,244.1398223494408 L 161.39883531157534,242.81071748303282 L 165.79375547208426,249.08206814294428 L 165.4970436401663,253.54117073265542 L 170.58778675638314,257.2899934720262 L 171.79376996760865,257.3824413889817 L 173.82152926888958,258.02956167934775 L 174.64330535895678,255.5417789809818 L 184.00301550133503,245.74636905490874 L 193.2666737747669,238.87319211017171 L 200.81207312809707,242.0115163805857 L 209.03918357148234,239.55515552764794 L 210.39528197237132,249.80353216338293 L 224.04592626038823,250.0436758341154 L 229.83037649511894,254.0623628337329 L 238.22956904112314,237.76242306148214 L 244.15276078217246,234.44646092697306 L 246.32993391801529,238.83111893272672 L 255.26240768793903,235.027372464874 L 258.74032875844335,245.236938474787 L 267.0130789150152,244.28282010968383 L 269.76656273259556,247.01634587328732 L 281.4100267917754,244.45108309824536 L 283.596196494223,250.05582828016756 L 282.1465671704143,255.4577248575137 L 283.1382025465269,259.0851371119008 L 286.0633442666578,262.90308898072175 L 290.46038047089417,264.4824481203919 L 302.9791262084978,264.8352611519883 L 307.14136912611445,261.5000098310798 L 311.0688185506131,262.7854705685134 L 315.914096258512,260.24805124341947 L 317.36554508457726,262.4662160417462 L 320.3004597214498,256.9706229244745 L 325.8821342738796,258.85312992148744 L 328.5055477203873,258.9324377881504 L 324.7381844516504,260.04165729212815 L 323.9164080795294,264.22570819298124 L 324.1512014613685,276.23374274355365 L 326.16828844743696,281.9573073839386 L 329.7862377965709,283.48434537430984 L 334.5781533119996,282.7544067928572 L 341.0776556575753,273.81610544622487 L 343.35088065887817,272.909392233016 L 347.34236462130025,278.16421842131115 L 346.29646774123677,284.9608955728083 L 357.3210750845607,287.7458151830324 L 356.1897989279922,294.5214384540371 L 362.892076962396,295.92146891107666 L 368.0895444126622,303.9921817995744 L 374.18349482338874,303.3805334275245 L 373.60718414981045,311.6315242537897 L 378.7726342785158,305.8521123868205 L 390.48027639106107,304.5954272444301 L 392.6361046085789,306.84063108104397 L 401.9531251217557,306.7736152174506 L 402.9456600468867,308.4405554282355 L 402.36934937329653,316.43765097533947 L 409.1783518747938,312.88762722312816 L 408.9328861762511,315.901851553057 L 411.96385290657685,317.2664285740971 L 424.39721905511067,311.99999166861824 L 420.71523506286707,327.9695080344164 L 428.1218928713378,326.1122812967161 L 426.5103578201069,329.10715616524345 L 429.06106565578193,332.59485676463754 L 426.3075819455479,340.16133779730274 L 423.51140859707306,340.6544917415395 L 425.5071505782841,342.9361650209683 L 423.5540982353255,344.9083248266555 L 432.49758413521397,350.2719755480853 L 429.42392776663587,357.0281542798065 L 426.1261508901151,358.02170289828075 L 430.40579037506336,363.02185871810434 L 425.3897541659611,371.32400130228734 L 426.69178887553966,383.43951429863023 L 412.73226676654883,385.71478945182037 L 408.9542309953774,380.87212957762137 L 403.2124703788128,381.40564785719306 L 398.99686553697427,388.6813050206315 L 387.5453616254059,387.0731249530985 L 385.8591194286424,393.0966777247879 L 382.1451183005808,392.9134235066065 L 379.4770138668517,397.76058936102055 L 372.55061476731225,398.2269020643072 L 364.3435257773086,404.2377300509049 L 367.7480269351918,408.86495454172723 L 375.2827538441393,413.31608554204496 L 376.8729440762324,413.2328986451237 L 380.69366948565624,408.8233490217289 L 385.0480159304179,409.7802461369353 L 388.0042753294682,412.04327771024913 L 385.50692963448034,422.35579135772446 L 387.1824993288093,426.96921821441197 L 379.6477726055927,432.7610451708572 L 387.5560339420977,446.5545339222008 L 384.8665846892542,452.04023522837747 L 385.0373434279835,464.89612123992015 L 385.94449889087844,470.13490636988683 L 389.2849655913827,471.3034418194767 L 390.9391902808545,487.9764274317622 L 396.9797785509059,500.2562782290197 L 394.20495020728833,507.03742244415145 L 393.61796703127544,508.35195558389694 L 393.60380946331657,508.3836599282599 L 362.6144273089053,499.8755249427138 L 349.88132326914126,501.7145548616725 L 346.81924953928194,502.1583506312406 L 344.044420858699,501.3643628229935 L 332.4755201826982,495.12682031470206 L 332.6201500980111,495.1399265437131 L 334.1190725693426,495.2757567825803 L 333.8629346262593,490.57528680102934 L 332.73165833232076,485.67467021908334 L 331.7497958729382,485.2606952454578 L 332.60358936077904,481.484724569203 L 333.64948620267154,479.0828553127406 L 335.1436247547599,477.24392844627465 L 338.92166055123585,473.7145582866916 L 343.7029034635754,470.3004029953764 L 348.6549052800073,467.83046605849614 L 348.71893986902126,465.7249032309572 L 347.2888359059646,463.17131229005173 L 346.0508355034871,460.1528826511983 L 342.5716273761349,446.2969543280193 L 340.5225232118632,445.25102756620686 L 338.3026603499796,445.59967744831505 L 334.1831071583918,447.4756116300692 L 331.25886464323514,445.9981253189262 L 331.7497958729382,440.18640120723455 L 335.71993522996377,427.2930930389152 L 336.82986666091153,421.44099336029905 L 337.7690393942769,418.8134694695568 L 339.9675573931284,415.6698246210655 L 344.83417975751405,411.85999090142457 L 346.8619390587892,409.5303664244249 L 347.3528702884922,406.1684251090653 L 346.09352502299436,404.07099712009756 L 343.53214497252657,401.8234329243595 L 340.7573164984477,400.0750988528615 L 338.9003156882214,399.40901385815846 L 336.3175907747334,400.50803828333244 L 336.2108664596668,402.5726575525225 L 336.4670044027676,404.78681850849034 L 334.9515211941866,406.28494009589184 L 331.15214053469623,404.50382321022823 L 325.49575927151295,392.3633875175238 L 321.22679224536915,388.54773039165644 L 316.82975624765436,385.99787258120267 L 309.97806410148314,378.3957675645719 L 305.9652352249444,376.4779711897835 L 301.58954388373417,376.94493507991285 L 288.462470479645,382.4807032335186 L 283.78795167585014,382.53071565335426 L 280.09529512489866,380.7634961270982 L 276.55205261504256,378.2790390424824 L 272.2830855888811,376.11106077089573 L 263.70246181054694,375.0603144231877 L 254.6949413915415,375.74414152047837 L 251.89876805446565,376.7781639962691 L 250.23387080480683,378.67924730517734 L 246.5198695973801,384.9978123671934 L 245.62338659004365,387.6811597988474 L 245.0684207713149,388.6477159271599 L 244.12924824448288,389.2976075442009 L 243.78773064281438,388.9976611072444 L 243.4889029737022,389.18096212187913 L 242.67779941841766,391.2637762256982 L 235.42055549458965,384.46441988767754 L 233.60624441037467,371.2736908348464 L 233.58489954737777,356.2012787383564 L 231.83462305217694,343.70474242623163 L 228.48348410289404,337.6031071773152 L 224.38527556778158,333.67336259126944 L 219.8601705985427,331.41539068365597 L 215.1856515882086,330.4284678815589 L 201.8451299670711,330.34482747903263 L 199.28374971008165,328.43770042384165 L 201.29016414834237,324.84027438491034 L 201.61033668046883,322.22951693892765 L 200.26561196294256,320.53897939077297 L 197.29868013481786,319.6350503727869 L 194.35309275664676,319.8694074279416 L 192.2399540033197,321.25873593398654 L 190.19084983902428,323.3173868439197 L 187.3946765019484,325.4761605488808 L 178.34446635693158,328.7723012180774 L 173.32843015798986,329.3745642964511" fill="none" stroke="#000000" stroke-width="0.7956797856283666"/>
	<path d="M 476.9800535947656,441.09981849557795 L 474.6534664178509,440.1199689695278 L 473.7142938910071,435.3360722370133 L 468.1432918733482,437.89431428080024 L 446.1154221587985,460.20264203673935 L 444.9201112758283,462.72356079957973 L 444.3651456636152,465.8907059803866 L 444.85607689331823,467.8138877731398 L 445.62449092911305,469.4218805318889 L 445.8379393527008,471.62637892481257 L 444.25842134857226,481.8656761165625 L 442.8069725225012,486.94964387247705 L 440.9072823992834,490.6083937873119 L 438.6660746744029,492.0815801763755 L 430.0641060330485,493.45532317976733 L 401.26992383091897,507.73164868020626 L 395.14395599452536,508.80638406952664 L 393.60380946331657,508.3836599282599 L 393.61796703127544,508.35195558389694 L 394.20495020728833,507.03742244415145 L 396.9797785509059,500.2562782290197 L 390.9391902808545,487.9764274317622 L 389.2849655913827,471.3034418194767 L 385.94449889087844,470.13490636988683 L 385.0373434279835,464.89612123992015 L 384.8665846892542,452.04023522837747 L 387.5560339420977,446.5545339222008 L 379.6477726055927,432.7610451708572 L 387.1824993288093,426.96921821441197 L 385.50692963448034,422.35579135772446 L 388.0042753294682,412.04327771024913 L 385.0480159304179,409.7802461369353 L 380.69366948565624,408.8233490217289 L 376.8729440762324,413.2328986451237 L 375.2827538441393,413.31608554204496 L 367.7480269351918,408.86495454172723 L 364.3435257773086,404.2377300509049 L 372.55061476731225,398.2269020643072 L 379.4770138668517,397.76058936102055 L 382.1451183005808,392.9134235066065 L 385.8591194286424,393.0966777247879 L 387.5453616254059,387.0731249530985 L 398.99686553697427,388.6813050206315 L 403.2124703788128,381.40564785719306 L 408.9542309953774,380.87212957762137 L 412.73226676654883,385.71478945182037 L 426.69178887553966,383.43951429863023 L 425.3897541659611,371.32400130228734 L 430.40579037506336,363.02185871810434 L 426.1261508901151,358.02170289828075 L 429.42392776663587,357.0281542798065 L 432.49758413521397,350.2719755480853 L 423.5540982353255,344.9083248266555 L 425.5071505782841,342.9361650209683 L 423.51140859707306,340.6544917415395 L 426.3075819455479,340.16133779730274 L 429.06106565578193,332.59485676463754 L 426.5103578201069,329.10715616524345 L 428.1218928713378,326.1122812967161 L 420.71523506286707,327.9695080344164 L 424.39721905511067,311.99999166861824 L 423.66082251668774,306.4887928238191 L 427.1613752677676,303.73244365368555 L 430.81134212418146,303.2297121810211 L 438.32472421400297,305.9023774327958 L 442.95655330739413,304.8635288066286 L 440.5659317080256,294.76456665667087 L 442.8498292117628,290.8992039195593 L 444.84557119297386,290.8824324655822 L 450.61934913109917,294.9322389615801 L 451.5585219155433,291.35203055405736 L 456.89473059725873,289.8677155568877 L 458.20743799499115,296.39091123969456 L 466.52125126634513,293.12966358591734 L 468.83716590590046,296.5837135150235 L 468.03673435290574,292.80266156210854 L 469.10397605210727,291.81322876203245 L 491.2385702010031,285.96755181194777 L 491.45201857799657,283.9709516970369 L 496.9269686768922,284.44915299622306 L 501.6548497349306,278.0802897251748 L 508.2077140354623,279.5741495592345 L 507.49266194469186,287.39353440695953 L 517.5354068653312,296.91901641034053 L 522.828926094525,312.4856855069956 L 518.944166042003,315.4162671347852 L 530.4703769133728,316.0525471127908 L 533.5653779153345,323.6858328476941 L 536.3935687711012,324.2046236490621 L 541.3028806988528,321.8950330581922 L 538.5067075360973,324.5895211239533 L 539.9474836628563,329.70940630255257 L 544.0350195899492,329.10715616524345 L 542.9997952123082,331.9341787070581 L 545.2836925303144,335.79748406503035 L 552.2741259015017,332.98790498947 L 556.7458687585745,337.5030472730299 L 560.5665943537294,346.111551060133 L 557.3435244370102,352.46033696800686 L 559.8835595845197,356.619027443348 L 570.1290803797181,359.39920523657537 L 569.894287369341,365.3752872396263 L 572.7544951751944,369.33857332006494 L 584.0779301720053,361.728152689955 L 592.8506573331646,364.7243750889362 L 594.664968258943,368.88806234258016 L 590.3319668190502,374.6769513373552 L 593.2668817704365,378.5127555123834 L 582.0394983668107,386.873132346394 L 583.6296885989154,388.5479906753513 L 586.2017412537049,384.83972384256737 L 590.9829842666993,384.50635197531034 L 593.1067953483989,389.6477976551895 L 592.9040194738398,394.5376456399321 L 587.2262933146541,400.45834451528384 L 572.626426260437,409.8800927620262 L 570.4599255404966,407.0508498278113 L 568.1973728558856,407.2755444929668 L 563.5868883958897,410.39595702336374 L 564.1098371145239,414.18951972949145 L 558.1653004376692,413.8068783718899 L 554.3232300233882,416.4934826668304 L 562.2741811838882,420.9091331037742 L 560.0329733184036,424.10157649127643 L 562.5196466966997,424.11820189745026 L 562.2101467265096,427.40139581536863 L 569.542097575167,435.9344005719418 L 567.6210623680266,441.7311343032903 L 561.7405603342934,443.6241474601462 L 567.0020622419264,448.5216453060377 L 565.956165176132,451.95725886076883 L 560.4171804341265,451.40960406425154 L 554.8248339228959,455.34232594912976 L 550.4277976541625,456.2548381260561 L 531.0787049085119,457.6069156222679 L 526.6923411422014,456.08063547023 L 525.4863580258312,447.0857618942714 L 522.4447189788136,459.4316160184904 L 524.2376852711968,461.26439120783544 L 522.0605118630909,466.68679349515554 L 515.3155440047036,473.7065313137815 L 513.3198020234923,474.3942427267888 L 511.43078413790084,472.4221683950344 L 509.97933532298805,477.3932979112527 L 506.0625579489054,477.2938909231759 L 511.0892666604305,482.19718934320036 L 513.7573710941596,492.65286747058764 L 515.9452168189689,493.7534858437798 L 524.7286162968082,491.99080357653594 L 526.6283064990915,496.31025638723946 L 532.6582226381822,499.42910389931063 L 531.8898085924676,506.55787901282423 L 536.361551449552,511.0302785501075 L 525.9986340562999,515.154311814803 L 520.7371321486548,520.1281229785158 L 524.1843229447906,523.5642333669911 L 508.69864524680474,534.6932698698033 L 507.8128344173049,537.482520144149 L 509.5737835738699,543.6038904035341 L 506.90567914015264,544.3791997219151 L 505.97717867240044,549.821760102116 L 505.3048165913561,551.9322950615933 L 505.2753521490168,552.0247759412457 L 501.48392411426465,552.2123209776773 L 492.519093421288,555.3775223197601 L 487.8872641369652,556.1192718576136 L 482.48702102341036,555.3445547929663 L 480.6300204196823,552.9212509204891 L 480.67270993919544,540.98048696994 L 480.160433846478,539.0829638511842 L 478.13267454519706,535.7328506926117 L 477.7057781110709,534.131799573821 L 478.08998502570745,532.1839040211995 L 479.9256407663975,530.0376312419717 L 480.608675556668,528.3699353602291 L 481.71860698760986,524.4559168038897 L 482.76450382950213,521.779937285933 L 483.29812478522246,519.0208772112834 L 482.93526273360044,514.8565654129658 L 479.7121925493315,508.97172119135047 L 469.93625788802115,504.9535218297658 L 467.1827742769626,500.47107757653635 L 468.0792574908266,495.35849856810205 L 476.0195359983975,475.57047896217625 L 476.2116395589709,472.14016366665464 L 475.891467026856,469.47160914717256 L 476.1262601069187,466.57047898727296 L 480.0110202184436,458.02967450363076 L 481.27036548394153,457.73107464004903 L 483.4902283457898,460.1528826511983 L 483.9598147124784,454.5290551127116 L 485.0697461434203,447.8906098873362 L 485.34722894951204,442.2622708097464 L 483.44753861977847,439.7545850554895 L 476.9800535947656,441.09981849557795" fill="none" stroke="#000000" stroke-width="0.7956797856283666"/>
	<path d="M 551.5589072711955,588.4083631784124 L 546.7990090153545,587.0101891046935 L 543.0423180818929,584.2134607246766 L 539.9686619387019,581.2352086004789 L 531.1745897367801,568.492968898521 L 528.7199335883059,566.1376260594045 L 521.3559657625018,564.0125671697369 L 517.2364123643573,561.6730148679472 L 509.5522717998988,554.0752526595269 L 505.8169257294577,551.9979867989308 L 505.2753521490168,552.0247759412457 L 505.3048165913561,551.9322950615933 L 505.97717867240044,549.821760102116 L 506.90567914015264,544.3791997219151 L 509.5737835738699,543.6038904035341 L 507.8128344173049,537.482520144149 L 508.69864524680474,534.6932698698033 L 524.1843229447906,523.5642333669911 L 520.7371321486548,520.1281229785158 L 525.9986340562999,515.154311814803 L 536.361551449552,511.0302785501075 L 531.8898085924676,506.55787901282423 L 532.6582226381822,499.42910389931063 L 526.6283064990915,496.31025638723946 L 524.7286162968082,491.99080357653594 L 515.9452168189689,493.7534858437798 L 513.7573710941596,492.65286747058764 L 511.0892666604305,482.19718934320036 L 506.0625579489054,477.2938909231759 L 509.97933532298805,477.3932979112527 L 511.43078413790084,472.4221683950344 L 513.3198020234923,474.3942427267888 L 515.3155440047036,473.7065313137815 L 522.0605118630909,466.68679349515554 L 524.2376852711968,461.26439120783544 L 522.4447189788136,459.4316160184904 L 525.4863580258312,447.0857618942714 L 526.6923411422014,456.08063547023 L 531.0787049085119,457.6069156222679 L 550.4277976541625,456.2548381260561 L 554.8248339228959,455.34232594912976 L 560.4171804341265,451.40960406425154 L 565.956165176132,451.95725886076883 L 567.0020622419264,448.5216453060377 L 561.7405603342934,443.6241474601462 L 567.6210623680266,441.7311343032903 L 569.542097575167,435.9344005719418 L 562.2101467265096,427.40139581536863 L 562.5196466966997,424.11820189745026 L 560.0329733184036,424.10157649127643 L 562.2741811838882,420.9091331037742 L 554.3232300233882,416.4934826668304 L 558.1653004376692,413.8068783718899 L 564.1098371145239,414.18951972949145 L 563.5868883958897,410.39595702336374 L 568.1973728558856,407.2755444929668 L 570.4599255404966,407.0508498278113 L 572.626426260437,409.8800927620262 L 587.2262933146541,400.45834451528384 L 592.9040194738398,394.5376456399321 L 593.1067953483989,389.6477976551895 L 590.9829842666993,384.50635197531034 L 586.2017412537049,384.83972384256737 L 583.6296885989154,388.5479906753513 L 582.0394983668107,386.873132346394 L 593.2668817704365,378.5127555123834 L 590.3319668190502,374.6769513373552 L 594.664968258943,368.88806234258016 L 592.8506573331646,364.7243750889362 L 599.7343667944633,358.22207472791445 L 595.5934687266953,350.85668306090776 L 596.8528139837524,348.61796692080145 L 599.5956251915401,348.467593563717 L 608.560455910555,355.48343347881865 L 616.8529243627829,350.02137949135044 L 618.7419424341055,356.38523578688137 L 622.2318228684818,357.08660028119994 L 621.5914777375245,359.99191002173006 L 622.7334263965278,361.0270015925543 L 626.1592725592682,361.5528680135674 L 633.181723066285,358.22207472791445 L 644.3664166459273,368.67114482429787 L 651.2181087856653,368.23730052437253 L 650.2362463629687,372.0914082063336 L 660.6631983993307,372.1247725318331 L 657.0772660002838,380.1635221572237 L 657.3013866939691,383.7145657409729 L 660.6311810777698,389.36452141073516 L 666.2021829556052,390.7475250495479 L 660.6525258968961,402.58956704524104 L 673.0752199144692,400.67481035150695 L 676.4583762532261,401.74044370515986 L 677.8351181083374,404.8370181386568 L 679.1798428276303,401.6904936997925 L 692.2642266095443,399.87553657213266 L 693.6089511431064,396.71133359740827 L 686.4157418973602,395.66200567240446 L 691.0262261716133,384.41467366621464 L 687.2055007621894,381.16389989021786 L 689.0198116879677,375.2440436710487 L 714.0573030952388,380.730410728163 L 714.4201653918352,383.49785880910605 L 721.0157193306078,386.89813149314233 L 719.8737706716164,416.8677399219502 L 720.7915986369342,420.435197603639 L 725.3167036346825,421.34148218278057 L 722.4351510097024,424.60864801336436 L 723.299616834345,428.0911924715574 L 723.4810478897779,428.8141991765256 L 723.0754961406597,438.6918604020827 L 723.0745418523086,438.71509427030367 L 721.2503459930147,437.8278717597072 L 719.9910005210068,435.4689783344776 L 719.3079659372581,432.3952256996593 L 717.9845860827285,430.94951733482225 L 714.8042056245121,433.49187848289137 L 710.4071696267973,433.9571017048292 L 708.6568931316141,436.9308707415085 L 707.803099850295,441.33231628681517 L 706.1595474636506,445.948320023369 L 703.0858913204653,449.1521362707002 L 695.4017505494793,452.91949674959716 L 691.9865770111647,456.03889939951137 L 691.2395078383669,458.0794404739667 L 690.8339558542116,463.2873938356019 L 690.3216797614883,465.47619573875596 L 689.0623344960081,467.29995779515474 L 686.0527127353505,469.91916326392135 L 684.8147123328671,471.90813394163234 L 685.0495056194693,475.62018792932236 L 685.0495056194693,478.6355693193319 L 684.5372295267692,481.1700184010318 L 683.0430911811909,482.7600467057456 L 678.859503400554,484.6148714966115 L 677.5788132720593,486.32044928731636 L 677.3440201919788,490.74082069672824 L 678.7954690180499,492.52847403908896 L 679.6279174363547,494.2993692041461 L 677.3653648484714,498.7008954742987 L 675.6577780793054,500.3056484326423 L 672.6054667991345,501.0169806042277 L 671.1540179730812,501.99294001597235 L 669.5318104494394,504.14314009025173 L 668.7633964136447,505.8134721590348 L 668.272465390481,507.43401625123767 L 667.4400165591094,509.46772218056356 L 660.2894969503535,521.8790560917872 L 659.4570483255211,524.9183847720723 L 661.8903596109806,526.0910079815587 L 666.4581543062485,529.5753178397313 L 668.3791892924804,532.4810566786568 L 662.9576013158878,531.9197638512915 L 662.9789461789021,533.7686511947529 L 662.6801185097901,534.7260237302322 L 662.2959113886318,535.4687712626629 L 661.9330491304879,536.6240850342682 L 663.9181189122734,538.472406577962 L 661.4634627638053,540.1225054337871 L 660.5456350999763,543.1747210852383 L 660.8444627690881,546.9850146586193 L 662.1038078280584,550.992225634797 L 664.2809811704174,554.6192522642257 L 666.3727748542199,555.6412593499701 L 668.5926377160683,556.0203738391181 L 671.2180525621128,557.6356262110222 L 672.584121936132,559.6626929333337 L 677.4507443005177,569.2834922427526 L 677.7709168326325,570.7820815363496 L 678.2191583363185,575.227586481089 L 678.1337788842663,575.9683788934932 L 679.4571589453059,577.0383495678017 L 682.3387115279,577.9107321630441 L 683.5767119303837,578.6020193273891 L 684.7293330873424,578.8159825872698 L 686.0527127353505,578.3715935122251 L 687.3974374528767,578.4703481741778 L 688.5927481293253,580.3630145312076 L 688.6751302747006,581.0861138800635 L 688.8702311419448,582.798451512979 L 688.1018168996223,584.11474355971 L 687.0986097837647,585.2499546290456 L 686.7784372516381,587.0101891046935 L 686.6717131430931,589.082730718948 L 686.0527127353505,590.102450308036 L 685.7538850662381,591.2372200805783 L 686.4796095825258,593.5722799172744 L 687.8883686825623,594.6410271838698 L 692.0292665306602,595.117829111784 L 693.5234050827428,596.3837482954287 L 694.6760262397017,600.9040390431429 L 693.5234050827428,603.6648726825813 L 691.474300918465,605.5708738366452 L 689.8307485318087,607.5094951336432 L 687.1839892358108,614.8346237935408 L 685.5404368491547,618.0198037690915 L 683.2138498787673,620.2194921541585 L 686.7144026626063,622.1398586764691 L 684.7506779503569,627.0955969198353 L 680.012124557513,632.1645552044247 L 675.1028124670922,634.509819554765 L 672.6908462511807,633.9194370613717 L 668.1657410754203,631.1312136140157 L 665.9458782135486,630.8031540461543 L 663.7260155582103,631.9841353816092 L 661.0579109861484,635.5101388008602 L 658.4965309356805,636.6251719575235 L 654.035460348946,635.8544958936611 L 649.595734625214,633.6570374810445 L 644.9425604779119,632.59099340717 L 639.798455307411,635.2149696850641 L 637.3437993654644,638.5762864233654 L 636.8742129987818,640.8550065804241 L 636.1911782085054,642.1335655288918 L 633.1388669283349,642.5433373550472 L 631.3672455701548,642.068000899757 L 624.8997605451476,639.0517308029764 L 621.0150004336227,640.7894365168735 L 615.8282055371106,644.8706365157127 L 610.4688987089324,648.0 L 606.0095815628146,646.8207081315586 L 604.7288914343143,644.0020377959237 L 604.9423396513978,641.1664604174277 L 605.6040295786538,638.182804369991 L 605.6467190981433,634.8705979944652 L 604.7929258168417,631.9677336191254 L 594.846232664465,613.9643312155372 L 592.5925748537567,611.9414417523759 L 591.0041624855024,610.5155187810046 L 584.6007118429997,608.1665997481094 L 582.2527800095919,606.7537903908802 L 580.9720898810914,606.5402151462333 L 580.2036758452965,607.3944993094248 L 579.3285377009569,609.1357773957377 L 578.2399509265255,610.7454636110501 L 576.7671574439677,611.2053429742191 L 573.3306390426326,610.5319433893458 L 572.3274317202474,609.2836127526789 L 571.836500697072,606.3594950737042 L 572.4768455547858,601.8572399831888 L 574.1417428044622,600.7889935652017 L 575.0809155378337,599.6384911874349 L 573.6508115747592,594.8712091810705 L 569.6593273547131,589.9708772191605 L 565.3476706025405,585.6941450655903 L 560.8866002223157,585.8093034206131 L 551.5589072711955,588.4083631784124" fill="none" stroke="#000000" stroke-width="0.7956797856283666"/>
	<path d="M 726.3090717114638,439.48884590187384 L 723.9824847410764,439.15666570446405 L 723.0745418523086,438.71509427030367 L 723.0754961406597,438.6918604020827 L 723.4810478897779,428.8141991765256 L 723.299616834345,428.0911924715574 L 722.4351510097024,424.60864801336436 L 725.3167036346825,421.34148218278057 L 720.7915986369342,420.435197603639 L 719.8737706716164,416.8677399219502 L 721.0157193306078,386.89813149314233 L 714.4201653918352,383.49785880910605 L 714.0573030952388,380.730410728163 L 689.0198116879677,375.2440436710487 L 687.2055007621894,381.16389989021786 L 691.0262261716133,384.41467366621464 L 686.4157418973602,395.66200567240446 L 693.6089511431064,396.71133359740827 L 692.2642266095443,399.87553657213266 L 679.1798428276303,401.6904936997925 L 677.8351181083374,404.8370181386568 L 676.4583762532261,401.74044370515986 L 673.0752199144692,400.67481035150695 L 660.6525258968961,402.58956704524104 L 666.2021829556052,390.7475250495479 L 660.6311810777698,389.36452141073516 L 657.3013866939691,383.7145657409729 L 657.0772660002838,380.1635221572237 L 660.6631983993307,372.1247725318331 L 650.2362463629687,372.0914082063336 L 651.2181087856653,368.23730052437253 L 644.3664166459273,368.67114482429787 L 633.181723066285,358.22207472791445 L 626.1592725592682,361.5528680135674 L 622.7334263965278,361.0270015925543 L 621.5914777375245,359.99191002173006 L 622.2318228684818,357.08660028119994 L 618.7419424341055,356.38523578688137 L 616.8529243627829,350.02137949135044 L 608.560455910555,355.48343347881865 L 599.5956251915401,348.467593563717 L 596.8528139837524,348.61796692080145 L 595.5934687266953,350.85668306090776 L 599.7343667944633,358.22207472791445 L 592.8506573331646,364.7243750889362 L 584.0779301720053,361.728152689955 L 572.7544951751944,369.33857332006494 L 569.894287369341,365.3752872396263 L 570.1290803797181,359.39920523657537 L 559.8835595845197,356.619027443348 L 557.3435244370102,352.46033696800686 L 560.5665943537294,346.111551060133 L 556.7458687585745,337.5030472730299 L 552.2741259015017,332.98790498947 L 545.2836925303144,335.79748406503035 L 542.9997952123082,331.9341787070581 L 544.0350195899492,329.10715616524345 L 539.9474836628563,329.70940630255257 L 538.5067075360973,324.5895211239533 L 541.3028806988528,321.8950330581922 L 536.3935687711012,324.2046236490621 L 533.5653779153345,323.6858328476941 L 530.4703769133728,316.0525471127908 L 518.944166042003,315.4162671347852 L 522.828926094525,312.4856855069956 L 517.5354068653312,296.91901641034053 L 507.49266194469186,287.39353440695953 L 508.2077140354623,279.5741495592345 L 512.1778533644894,272.17054900179517 L 511.96440480177654,262.53710382608557 L 515.2301647281985,260.2097135997033 L 510.1500940617173,252.93116407960875 L 515.0807509943265,250.27437932828823 L 515.7527906280345,244.27255945188878 L 520.8011015535061,247.23379496205973 L 520.6964435099093,253.003147002956 L 524.1009447199862,257.4076541820125 L 527.2386356587247,258.9203580741136 L 532.6876675616735,257.99672107312364 L 546.4489871731727,262.0629375956471 L 549.0723863460983,258.8400173625388 L 546.7905043617801,253.50754476817067 L 559.0851295540745,255.07107145021007 L 560.5792183339106,251.98599636789825 L 562.0714781382229,255.67989637319917 L 568.7223225025563,251.59074411874056 L 575.2858593078587,255.18874970267427 L 576.2997387519716,251.5066684160113 L 580.3979472870842,247.8405118480124 L 589.9177435922677,244.62769208505233 L 592.7137802105342,245.83882846587028 L 595.2627576756639,252.22502781980407 L 600.8142818062357,254.38179463524853 L 605.414093899283,253.92786347678958 L 607.0469737511623,248.16848446737032 L 611.1131648885012,252.58280298545463 L 614.4109417835115,251.78411659594084 L 619.9926163359531,246.93224447279454 L 619.5977368865397,241.63293255600982 L 637.4740362182205,236.29810285510598 L 647.5829939473233,226.12580310234884 L 648.784630863402,226.9652602151557 L 653.245701243609,229.10410056783775 L 656.468771427878,230.06395445536057 L 656.1059093762559,233.90276128289744 L 653.9714257599144,241.37554277218695 L 657.7281166933582,243.529174251787 L 659.9693244182445,243.98341654661706 L 662.1251526910613,243.54599815061002 L 663.143450713679,242.01988000945911 L 663.6641486438593,242.82754250495103 L 666.7591498565806,245.92299485095052 L 672.0633411898636,244.50993182878358 L 680.8040513375306,256.0965226248026 L 688.2107090958973,255.0374488781378 L 693.1733832405725,257.5925483431543 L 694.9770217900223,256.8277447832397 L 699.7768330582725,249.46835099920784 L 695.87967139403,244.4959005438186 L 698.1338895040275,245.21148570256594 L 713.1179637183428,245.69932127245798 L 717.2802066359831,244.9255060295359 L 716.9386890343145,245.53110371554075 L 716.8106202693002,246.1198561839082 L 716.831964925793,246.70858578599905 L 717.1307925949053,247.3141125667655 L 720.5673112027383,249.1137294472496 L 720.6740353112831,252.24152743014994 L 719.9056212754825,255.67127320188766 L 720.7167248307727,258.3943426583987 L 723.4488637853561,258.7136832265676 L 731.6239355795175,256.46135010197065 L 735.0604541873743,256.780731049172 L 739.0305935444057,260.7472189541053 L 751.6027011297545,279.95991704907277 L 748.8492175186959,281.72210247734745 L 751.2611839411527,286.38671019097865 L 755.5088061042994,288.61783257885844 L 769.7671558023096,288.97008504645856 L 770.2367421689922,290.9157134719358 L 768.7852933429212,293.80015204976286 L 766.4373617160412,296.650512794106 L 766.4373617160412,297.82403548538775 L 761.8268770882111,300.5730760610482 L 755.3167025437263,305.9858907415934 L 751.51732188423,311.9494848837084 L 754.9538404920866,316.28669791777276 L 753.3316327619408,318.78129050859695 L 753.6091157745602,320.25441479552563 L 755.2740128176914,320.9574464920309 L 757.6859792401306,321.1415685629516 L 756.0424268534922,323.93660131879454 L 757.7073241031453,325.4761605488808 L 759.4789454613252,329.17381290997787 L 761.1224978479873,330.49538000200903 L 763.171601805755,330.5957473071557 L 770.1513629234681,328.43770042384165 L 770.5996044271362,327.9859772884325 L 771.1118805198537,327.8186691631908 L 771.5814668865188,327.9859772884325 L 772.0510532532072,328.43770042384165 L 775.2100888484446,329.9433470163304 L 784.1535746784007,332.000822973235 L 787.9102656118388,332.2182636536856 L 785.6050235044661,334.4761164251862 L 785.0927474117661,337.0680529466863 L 785.6904027499903,339.97718479962543 L 786.821679043935,343.25347227478915 L 788.5933004021326,346.1781328933626 L 790.0660940912006,346.4622127497394 L 790.8558529899924,347.5650613695649 L 790.7064389489321,352.9611829450654 L 789.2336454663682,360.5759839038288 L 787.8035415033175,364.8993623334316 L 788.0810243094152,368.7209423425117 L 795.2528889877128,381.1969840142445 L 795.4473423770495,383.24731972768086 L 795.6797856283666,385.69786124167507 L 793.097060508357,388.4477438781932 L 787.6114379427264,389.4475785507826 L 784.8366094686711,388.9476692459828 L 782.4886774287418,388.0311268336979 L 780.1834353213516,387.83114670031046 L 777.3872619842757,389.4475785507826 L 775.3381578199802,391.94687740971875 L 773.9720884459612,395.0454396193525 L 773.5451918052898,398.29325704317546 L 774.4630194691366,401.19072571778463 L 770.6636390161678,404.620351226691 L 761.7841875687217,407.11716662268697 L 757.4938756795397,409.1476087316133 L 755.4661163782646,412.27595790309624 L 750.7915975744698,415.58665068081797 L 748.65711416465,418.3810485436296 L 751.4105977757085,421.44099336029905 L 752.5632187261458,425.0988183652208 L 752.4351499611084,428.72252698437364 L 751.1971493521033,431.76378356765923 L 749.6603212805077,432.7607855859475 L 745.5407680889259,433.0931048164193 L 743.7691467307222,434.1897075229041 L 743.3849396095817,435.2530049774964 L 742.7019050258328,438.8576970977048 L 742.253663522147,440.4355205718923 L 744.3454572059499,442.12942344327405 L 745.0711817222374,444.1054061754771 L 744.473526384013,446.2637513574751 L 742.5951809172765,448.47158884884516 L 739.5215245675813,447.0938027079597 L 739.0519382008985,444.55370298737245 L 739.2867314875007,441.51499016024036 L 738.3902482736427,438.5587226435456 L 735.72214411463,435.9839789881447 L 734.1212812474813,436.1999420162132 L 732.797901599491,437.6285427849161 L 731.0049355848006,438.74142998497985 L 726.3090717114638,439.48884590187384" fill="none" stroke="#000000" stroke-width="0.7956797856283666"/>
	<path d="M 181.12114684803785,82.99606282177739 L 185.90053815638765,85.20495917519364 L 192.4960921529422,85.97849856915627 L 202.27202660772485,84.44838173653852 L 202.86968194594914,81.33666461041098 L 202.33606119677418,77.16969715109548 L 202.7202681114107,73.36739607625718 L 204.98282049274866,71.03620401493696 L 208.0137873229718,70.27891400611648 L 211.32223654621998,70.08320403369464 L 219.5399980664161,68.23659428889775 L 224.64141371740408,67.93873302519428 L 229.9135880659508,68.79826007799264 L 255.16452775822424,77.1952128224201 L 259.07063273276935,79.76355734373121 L 260.1378744376764,84.07432969942303 L 259.79635704254696,87.72944160727175 L 260.1378744376764,91.16273840568644 L 263.2115305808617,94.81613071311045 L 265.7729108378569,95.94595368003039 L 290.21274697482835,95.64014516362532 L 294.84457605261184,94.1534878229788 L 304.2576484557725,86.76899829043204 L 329.8501057497204,73.87782792052552 L 340.0956263646701,65.81949127756768 L 348.2280086393359,54.70773654404225 L 349.38062958976735,51.42798708048247 L 350.9174576613629,43.74972349847542 L 351.02689631982645,42.36942104980933 L 351.16880445685536,42.454336472156626 L 355.0680183489391,46.132324017566766 L 356.71510002224994,49.40685517787833 L 358.1773054383046,55.41725224918149 L 361.5891175938734,59.574826855048265 L 365.33706884960054,62.846431961996544 L 367.85811251371257,66.07711416777506 L 368.6144254890332,68.16797424455794 L 368.9169507617702,70.17814284502019 L 368.36232116392637,72.49620372284063 L 366.9620685079414,74.80927100447401 L 366.21119902950505,75.36675421491705 L 364.88781912933814,78.66680259869102 L 369.27418270990603,92.79439527289242 L 367.47054428656213,93.94985764525933 L 372.4759078074989,101.1694877913217 L 373.56449451155777,105.31284231544377 L 374.0660982253347,107.65571029167073 L 373.1375977575824,114.8518105856754 L 370.5442002836667,119.97524039554162 L 362.32643879124026,122.67197620090148 L 353.95926356493015,122.67197620090148 L 349.8610551354146,123.46903196650527 L 346.1683988264792,126.06341188960957 L 343.56432885012885,129.1320037276808 L 342.8706217642275,130.57284003407244 L 343.148104598588,131.96269248539718 L 343.4042426138224,134.89452253102968 L 344.0125704232305,137.94437694177836 L 345.2078812229089,141.65420171853177 L 345.84822635386604,145.44778288385277 L 344.8130017904943,148.6902000148515 L 344.3434153982663,148.93568094529468 L 346.8514334099579,151.11944029211986 L 349.12465859699154,152.1434974626438 L 353.1695045143698,148.8002440194839 L 354.91978116850044,150.83167622786863 L 350.11719333637996,166.53219686908636 L 345.3786399616382,168.69650589675663 L 338.68703405820685,166.38000720010606 L 335.53867091556987,172.92277757786562 L 338.4735856812251,182.05593954572802 L 338.3668615855937,186.21937052962892 L 333.5856185725995,189.59656578468835 L 324.1298566422423,185.59450676594943 L 325.965512387147,191.90950913414596 L 320.4905622882512,195.97740550223415 L 323.4788391945933,198.62685740409148 L 323.27606332003427,202.06876446517052 L 313.62819783180964,216.081389426625 L 318.91104455858084,217.06734939072587 L 320.74670030348545,221.86140084234248 L 317.74775108045156,231.01559139807017 L 311.5577487050661,236.2765366927027 L 308.03585094912904,237.69036746099002 L 305.1329535050229,234.980409595211 L 301.600383246663,239.41539876494974 L 296.25350206251306,235.20766047185208 L 293.7134665435416,236.64683844052405 L 291.06670711466967,242.43583437987695 L 295.37836392117885,248.32353262838805 L 295.0902085843837,250.07257936260567 L 288.40927499764405,251.7877946316711 L 283.596196494223,250.05582828016756 L 281.4100267917754,244.45108309824536 L 269.76656273259556,247.01634587328732 L 267.0130789150152,244.28282010968383 L 258.74032875844335,245.236938474787 L 255.26240768793903,235.027372464874 L 246.32993391801529,238.83111893272672 L 244.15276078217246,234.44646092697306 L 238.22956904112314,237.76242306148214 L 229.83037649511894,254.0623628337329 L 224.04592626038823,250.0436758341154 L 210.39528197237132,249.80353216338293 L 209.03918357148234,239.55515552764794 L 200.81207312809707,242.0115163805857 L 193.2666737747669,238.87319211017171 L 206.15695329931032,229.29802339106166 L 206.66922932977897,226.9318384983783 L 201.90933113591095,220.39554247931216 L 204.57743556964004,217.04206897255204 L 191.7918794412013,206.01587029923635 L 196.65850173070055,201.0227774198845 L 195.0149493579206,194.89724118720088 L 191.7918794412013,193.5553667718068 L 187.01063624247607,196.5005828132048 L 185.32439441718626,192.0107980611037 L 188.09922276080388,189.27576476193536 L 186.47701520715012,185.51850804043866 L 191.36498250149492,186.23625851610234 L 192.79508649729317,184.75850006743073 L 189.65739567134787,181.63362099298865 L 193.80896605580764,181.709639250237 L 183.862273099839,176.72541189844603 L 190.244378847349,173.83549699968273 L 186.71180858898913,169.05155809996523 L 192.11205191381444,160.99319773961562 L 185.94339454328622,150.3746277027273 L 190.4151374003591,147.14950383856697 L 167.05321550168622,130.48808840252528 L 176.09275318050265,124.5882312118787 L 183.49941098897338,110.47346087248313 L 178.6861506544184,101.8997519976153 L 173.0724589526114,100.04854882714177 L 178.077822659291,96.49835718685944 L 174.54525258666212,87.96768351955119 L 181.3755999072737,83.66652773852019 L 181.12114684803785,82.99606282177739" fill="none" stroke="#000000" stroke-width="0.7956797856283666"/>
	<path d="M 463.10591081139205,0.0 L 466.0941877090353,0.29066247614707935 L 469.8508786424967,1.7267948843448062 L 473.3087419068461,4.008936742210251 L 475.4432253166484,6.8119924706785495 L 475.891467026856,11.801502733900692 L 474.6107768983436,16.541709752080795 L 473.6929488214828,21.545061020886635 L 475.1870873735474,27.289175145024835 L 466.1795669545597,23.081592057944654 L 463.8529799841725,23.423022160321832 L 462.6790139642168,27.391576397543773 L 467.05470530540333,29.285871179912 L 481.505158564022,29.78073748840663 L 485.30453922348306,30.804547448570332 L 493.2875074570888,34.48115618999935 L 497.74857804381753,33.25287658167265 L 502.9567178033327,28.176628483560435 L 507.71661605919127,21.724331225276345 L 510.93968603692076,16.379457170892433 L 512.3697902065167,12.31402972425637 L 513.0741696532623,9.238605239319876 L 514.3121702622674,7.24778635872753 L 517.4925505139797,6.427457844998443 L 518.0688611957113,7.213606857884179 L 524.2588632080989,11.33167092462207 L 528.3143818106727,19.077746368568068 L 527.588657500889,24.575290996133358 L 525.2834153935163,29.857525672427716 L 524.5576908772109,37.00563795744277 L 525.8810707317407,40.211800552241804 L 532.9889008209949,48.0878703989525 L 534.0774873889163,50.95087303228333 L 536.1906259357218,58.22521812588516 L 537.1938332581246,60.379588843488165 L 540.7584208375172,62.35486693807445 L 548.7413890711051,61.65673816223185 L 552.5621143870767,62.03986184518077 L 556.1907365555006,66.6536062307795 L 556.2974606640219,78.37738645020329 L 559.9260826259475,79.30434931123929 L 561.2608745772635,78.97069941721445 L 558.7736280613466,81.03082513306256 L 556.5217480648893,93.59303335539002 L 564.9209406127484,101.4836753233098 L 565.5933030652664,114.75848678630256 L 560.4171804341265,119.36459194024926 L 553.7362470331177,117.40526070958664 L 549.0617283014858,124.2321313037633 L 538.7094834106565,124.7747562950957 L 530.3636528177532,135.38592939401863 L 513.832078053961,138.68980316775884 L 513.8107332348347,143.17852302593076 L 507.86619655799194,151.50875936171468 L 505.00598875213836,148.0807124529876 L 501.1319012020274,148.32620358940542 L 493.1596054081435,151.54261270660677 L 487.6099481637154,156.46746927570334 L 485.0805853328974,155.2152525952845 L 474.3334608239343,159.67368597360382 L 471.68670120933143,157.88877877854105 L 468.16480345339426,150.17149077978485 L 461.4198355950069,155.3167874744054 L 456.85204095900633,154.34371599170356 L 448.8050380195781,163.36971952467226 L 451.1422974782596,158.19332773975088 L 445.5926404195624,155.16448475245627 L 430.533859289821,159.20844649246115 L 427.8337377202738,165.88115279769914 L 424.66402957276784,165.82196568875872 L 418.07914813642975,161.9489257497273 L 414.3331295010764,165.44992607153887 L 407.36404094901553,160.1135362342709 L 403.618022313662,165.78814433749338 L 399.0075378536777,161.06931990700653 L 386.4674472380506,164.13080388801708 L 385.46423999622766,159.27611829670627 L 381.6008249485513,158.08335246717218 L 383.5752221106363,153.11671074546757 L 377.13975440817023,157.4319438207311 L 375.79502987460813,156.77204690142105 L 377.1931163631145,154.4537185024949 L 367.01163021103775,149.8667796810974 L 361.9955940019238,148.99493456811504 L 354.91978116850044,150.83167622786863 L 353.1695045143698,148.8002440194839 L 349.12465859699154,152.1434974626438 L 346.8514334099579,151.11944029211986 L 344.3434153982663,148.93568094529468 L 344.8130017904943,148.6902000148515 L 345.84822635386604,145.44778288385277 L 345.2078812229089,141.65420171853177 L 344.0125704232305,137.94437694177836 L 343.4042426138224,134.89452253102968 L 343.148104598588,131.96269248539718 L 342.8706217642275,130.57284003407244 L 343.56432885012885,129.1320037276808 L 346.1683988264792,126.06341188960957 L 349.8610551354146,123.46903196650527 L 353.95926356493015,122.67197620090148 L 362.32643879124026,122.67197620090148 L 370.5442002836667,119.97524039554162 L 373.1375977575824,114.8518105856754 L 374.0660982253347,107.65571029167073 L 373.56449451155777,105.31284231544377 L 372.4759078074989,101.1694877913217 L 367.47054428656213,93.94985764525933 L 369.27418270990603,92.79439527289242 L 364.88781912933814,78.66680259869102 L 366.21119902950505,75.36675421491705 L 366.9620685079414,74.80927100447401 L 366.5639766477254,75.47030214676423 L 368.9673715028786,74.26465751635061 L 370.63126029641006,72.41581440153165 L 373.6060916631058,66.07711416777506 L 366.6480116292867,63.08775174958445 L 365.0345437833853,61.77385302198432 L 364.2278098604347,58.85068676309312 L 364.3790722902814,51.714702607925176 L 363.74040791739804,48.279638057457895 L 362.2109750530579,45.635713950987395 L 359.20031117287175,41.91454399414027 L 363.3424869505433,42.05733121490765 L 365.197152428915,42.1215300178612 L 372.66784477632496,46.18742189418598 L 376.65932899637096,47.55099659600876 L 386.28584941007597,48.173086956215194 L 390.21329904109047,46.08514898643792 L 391.2378512265137,40.399374076699736 L 389.9785059610334,37.15914009651503 L 385.3466768832499,31.63207616641998 L 383.7458140161011,28.662998735487736 L 383.89522805717877,25.317817506104 L 385.23995256818336,22.740154523075017 L 385.6668492088549,20.38402233310897 L 383.1695035408911,17.64327329516644 L 393.969989974552,11.33167092462207 L 405.0479594208732,7.24778635872753 L 411.15258218771885,6.239459516263277 L 413.75665217074885,6.717995843896945 L 415.40020435086564,9.47782750061319 L 415.12272154476796,15.00450928094569 L 413.3724450495848,19.120436895947897 L 412.98823813494823,22.347491496306155 L 416.93703262898293,25.18126382470149 L 419.66917158354886,25.437301082713574 L 425.62438030933424,24.344844235527194 L 432.2199345124105,26.009102395035853 L 435.421659833659,25.795746109292914 L 438.1964883077203,24.73745537231791 L 440.33097171753434,23.14987876552235 L 456.2969085977598,3.5132202064900118 L 463.10591081139205,0.0" fill="none" stroke="#000000" stroke-width="0.7956797856283666"/>
	<path d="M 625.6861372023023,92.18382967995629 L 629.1900722278018,95.18142107610393 L 640.8870418753382,98.71493658495969 L 643.6832152124143,100.68519098665352 L 645.6682849941998,102.96934446904939 L 647.9094927190623,104.57398878906157 L 651.4527352289361,104.54002978926277 L 660.0973933897803,102.75707694190008 L 662.7441530988217,103.03726914385024 L 666.1166369111249,105.05789548149102 L 670.4282934567761,111.01631567691967 L 673.1817774808839,113.3328434850849 L 679.52119332781,111.72064593079045 L 683.0430911811909,112.0006715248947 L 684.8787469218987,116.18346539789945 L 685.3910230145984,117.76125685891677 L 682.4881253624561,120.63648382504691 L 681.8264354352003,124.38448151086203 L 686.5222993085373,129.41991688254186 L 684.6226087722937,130.69970084153752 L 682.530815088491,131.54718017570548 L 680.310952226625,131.8861586441267 L 678.0483996387421,131.64040018605093 L 678.5606757314418,134.0130738806977 L 678.8808482635743,135.01287484487915 L 679.4571589453059,136.33454347499918 L 677.9203308737278,140.83243354424644 L 676.7890543732617,143.16132261423408 L 675.2308814386517,145.28664895870574 L 672.8189150161949,143.22059856401538 L 671.1326731100668,144.2621264607284 L 670.0867762681742,147.4370734510092 L 669.5958450384712,151.77931967928959 L 672.3920183755469,155.58727951983332 L 669.1262586717884,163.57241459099458 L 660.9938766036444,176.57306101093587 L 665.6043608184249,175.3225098018832 L 667.5894306002104,175.37320973917215 L 669.5958450384712,176.57306101093587 L 667.2265683420493,180.56061434160102 L 663.661980762651,188.16108605606343 L 660.9938766036444,192.1793471051332 L 660.0120141442559,192.97274323576679 L 657.6213925848194,193.8336151021593 L 655.2307710253946,194.79570816442344 L 640.3320762631312,211.44541193513686 L 640.780317560272,218.74391271259097 L 644.1314569226041,223.71431833354808 L 647.5829939473233,226.12580310234884 L 637.4740362182205,236.29810285510598 L 619.5977368865397,241.63293255600982 L 619.9926163359531,246.93224447279454 L 614.4109417835115,251.78411659594084 L 611.1131648885012,252.58280298545463 L 607.0469737511623,248.16848446737032 L 605.414093899283,253.92786347678958 L 600.8142818062357,254.38179463524853 L 595.2627576756639,252.22502781980407 L 592.7137802105342,245.83882846587028 L 589.9177435922677,244.62769208505233 L 580.3979472870842,247.8405118480124 L 576.2997387519716,251.5066684160113 L 575.2858593078587,255.18874970267427 L 568.7223225025563,251.59074411874056 L 562.0714781382229,255.67989637319917 L 560.5792183339106,251.98599636789825 L 559.0851295540745,255.07107145021007 L 546.7905043617801,253.50754476817067 L 549.0723863460983,258.8400173625388 L 546.4489871731727,262.0629375956471 L 532.6876675616735,257.99672107312364 L 536.6817241078963,249.45034545303122 L 532.6902397740002,247.07889538261966 L 535.4650683033487,240.4839782289962 L 533.7788262923281,234.49222892292323 L 543.1171916246312,224.82638103459925 L 538.5493969886188,223.20919102328517 L 540.0008458035433,212.22963228400775 L 543.4480367853981,202.64233966877111 L 547.4715380693813,204.00871027360625 L 548.4640729945004,202.97129169656452 L 550.2677114178559,193.93515468414955 L 547.2580896923992,191.3186451061191 L 540.0221906226695,191.22579304221586 L 539.3071387176302,188.63414200487045 L 531.3348427380153,192.40750556321768 L 527.8769794394569,188.61725699021943 L 524.4511334624477,190.1030802153168 L 523.0957364264627,189.0562653576138 L 520.3742700377893,181.912352538037 L 528.6774108067207,174.53690138017927 L 528.8695143645764,167.3100313655015 L 537.4928276061208,163.35280596591323 L 536.1694478916849,155.65523243520346 L 538.1972071944567,155.13063952724283 L 539.2644488936465,157.73650199477856 L 544.4939336654736,155.60446607160063 L 538.9015869685237,148.41085480005313 L 534.3017748252313,146.31136655363173 L 528.5066522537225,147.0733114629431 L 528.5386693895406,155.2829425905562 L 524.8566853972967,157.5842236755293 L 520.5877184147829,154.92756658284742 L 516.4468203470148,156.53515365798884 L 513.1170259632023,150.06992099872608 L 507.86619655799194,151.50875936171468 L 513.8107332348347,143.17852302593076 L 513.832078053961,138.68980316775884 L 530.3636528177532,135.38592939401863 L 538.7094834106565,124.7747562950957 L 549.0617283014858,124.2321313037633 L 553.7362470331177,117.40526070958664 L 560.4171804341265,119.36459194024926 L 565.5933030652664,114.75848678630256 L 564.9209406127484,101.4836753233098 L 556.5217480648893,93.59303335539002 L 558.7736280613466,81.03082513306256 L 561.2608745772635,78.97069941721445 L 567.7169472989624,77.3568103015417 L 592.1567834359339,78.38589055751089 L 596.4684399815849,76.79546420060264 L 605.1344432119712,70.67883609522607 L 609.2113066775592,68.71316030907197 L 613.6723772642937,69.2237503852904 L 618.5176547656592,72.28692473526036 L 622.3383800816308,77.28876969439852 L 623.8111737706986,83.66626194333668 L 624.4728636979546,91.1457439563401 L 625.6861372023023,92.18382967995629" fill="none" stroke="#000000" stroke-width="0.7956797856283666"/>
	<path d="M 667.205223685574,237.26933538193353 L 669.2756725063444,238.06037161757934 L 673.5019498064712,242.72159798311455 L 675.6150885598158,244.20212117364545 L 693.5234050827428,243.74788543328359 L 695.87967139403,244.4959005438186 L 699.7768330582725,249.46835099920784 L 694.9770217900223,256.8277447832397 L 693.1733832405725,257.5925483431543 L 688.2107090958973,255.0374488781378 L 680.8040513375306,256.0965226248026 L 672.0633411898636,244.50993182878358 L 666.7591498565806,245.92299485095052 L 663.6641486438593,242.82754250495103 L 663.143450713679,242.01988000945911 L 665.369567738327,238.6830733056724 L 667.205223685574,237.26933538193353" fill="none" stroke="#000000" stroke-width="0.7956797856283666"/>
	<path d="M 404.3625351492445,230.10768441358582 L 387.5687074197968,239.10879954517262 L 383.1930162851023,240.1353310156192 L 378.6572387810808,239.31915991267056 L 372.94749546363107,235.4648921857877 L 367.4938900892645,223.9214706946001 L 363.7371989492813,225.87546197806356 L 355.9996965370606,221.5628700499809 L 358.454352479007,216.574904164121 L 363.6945094297858,215.69846999310607 L 365.0050083896424,210.21573114297772 L 362.89407799620545,206.5097133328634 L 366.8108555055158,198.78346873676733 L 374.3882717549312,194.96950052573064 L 383.214361148111,196.45470009125575 L 388.57191474218786,191.15457035723082 L 392.1258295802933,193.92302250347024 L 395.36820148678413,199.4886468467051 L 395.26352051903206,202.6302144821302 L 392.02977780000384,205.95315048381062 L 400.33229445054286,211.26455988466086 L 403.60935080424235,221.5965669781632 L 399.23365987608116,222.1694026324331 L 397.49405570913547,225.03325526386467 L 404.3625351492445,230.10768441358582" fill="none" stroke="#000000" stroke-width="0.7956797856283666"/>
	<path d="M 325.8821342738796,258.85312992148744 L 320.3004597214498,256.9706229244745 L 317.36554508457726,262.4662160417462 L 315.914096258512,260.24805124341947 L 311.0688185506131,262.7854705685134 L 307.14136912611445,261.5000098310798 L 302.9791262084978,264.8352611519883 L 290.46038047089417,264.4824481203919 L 286.0633442666578,262.90308898072175 L 283.1382025465269,259.0851371119008 L 282.1465671704143,255.4577248575137 L 283.596196494223,250.05582828016756 L 288.40927499764405,251.7877946316711 L 295.0902085843837,250.07257936260567 L 295.37836392117885,248.32353262838805 L 291.06670711466967,242.43583437987695 L 293.7134665435416,236.64683844052405 L 296.25350206251306,235.20766047185208 L 301.600383246663,239.41539876494974 L 305.1329535050229,234.980409595211 L 308.03585094912904,237.69036746099002 L 311.5577487050661,236.2765366927027 L 317.74775108045156,231.01559139807017 L 320.74670030348545,221.86140084234248 L 318.91104455858084,217.06734939072587 L 313.62819783180964,216.081389426625 L 323.27606332003427,202.06876446517052 L 323.4788391945933,198.62685740409148 L 320.4905622882512,195.97740550223415 L 325.965512387147,191.90950913414596 L 324.1298566422423,185.59450676594943 L 333.5856185725995,189.59656578468835 L 338.3668615855937,186.21937052962892 L 338.4735856812251,182.05593954572802 L 335.53867091556987,172.92277757786562 L 338.68703405820685,166.38000720010606 L 345.3786399616382,168.69650589675663 L 350.11719333637996,166.53219686908636 L 354.91978116850044,150.83167622786863 L 361.9955940019238,148.99493456811504 L 367.01163021103775,149.8667796810974 L 377.1931163631145,154.4537185024949 L 375.79502987460813,156.77204690142105 L 377.13975440817023,157.4319438207311 L 383.5752221106363,153.11671074546757 L 381.6008249485513,158.08335246717218 L 385.46423999622766,159.27611829670627 L 386.4674472380506,164.13080388801708 L 399.0075378536777,161.06931990700653 L 403.618022313662,165.78814433749338 L 407.36404094901553,160.1135362342709 L 414.3331295010764,165.44992607153887 L 418.07914813642975,161.9489257497273 L 424.66402957276784,165.82196568875872 L 427.8337377202738,165.88115279769914 L 430.533859289821,159.20844649246115 L 445.5926404195624,155.16448475245627 L 451.1422974782596,158.19332773975088 L 448.8050380195781,163.36971952467226 L 456.85204095900633,154.34371599170356 L 461.4198355950069,155.3167874744054 L 468.16480345339426,150.17149077978485 L 471.68670120933143,157.88877877854105 L 474.3334608239343,159.67368597360382 L 485.0805853328974,155.2152525952845 L 487.6099481637154,156.46746927570334 L 493.1596054081435,151.54261270660677 L 501.1319012020274,148.32620358940542 L 505.00598875213836,148.0807124529876 L 507.86619655799194,151.50875936171468 L 513.1170259632023,150.06992099872608 L 516.4468203470148,156.53515365798884 L 520.5877184147829,154.92756658284742 L 524.8566853972967,157.5842236755293 L 528.5386693895406,155.2829425905562 L 528.5066522537225,147.0733114629431 L 534.3017748252313,146.31136655363173 L 538.9015869685237,148.41085480005313 L 544.4939336654736,155.60446607160063 L 539.2644488936465,157.73650199477856 L 538.1972071944567,155.13063952724283 L 536.1694478916849,155.65523243520346 L 537.4928276061208,163.35280596591323 L 528.8695143645764,167.3100313655015 L 528.6774108067207,174.53690138017927 L 520.3742700377893,181.912352538037 L 523.0957364264627,189.0562653576138 L 524.4511334624477,190.1030802153168 L 527.8769794394569,188.61725699021943 L 531.3348427380153,192.40750556321768 L 539.3071387176302,188.63414200487045 L 540.0221906226695,191.22579304221586 L 547.2580896923992,191.3186451061191 L 550.2677114178559,193.93515468414955 L 548.4640729945004,202.97129169656452 L 547.4715380693813,204.00871027360625 L 543.4480367853981,202.64233966877111 L 540.0008458035433,212.22963228400775 L 538.5493969886188,223.20919102328517 L 543.1171916246312,224.82638103459925 L 533.7788262923281,234.49222892292323 L 535.4650683033487,240.4839782289962 L 532.6902397740002,247.07889538261966 L 536.6817241078963,249.45034545303122 L 532.6876675616735,257.99672107312364 L 527.2386356587247,258.9203580741136 L 524.1009447199862,257.4076541820125 L 520.6964435099093,253.003147002956 L 520.8011015535061,247.23379496205973 L 515.7527906280345,244.27255945188878 L 507.9749218834828,238.0821982064837 L 497.83612517054456,246.10802911431037 L 494.70910697310455,246.59583550672295 L 492.0943646618309,244.39217065762574 L 492.8174688030812,238.52845937009312 L 477.2383596255907,240.1353310156192 L 478.1210544788399,236.6007913348949 L 473.1721684882519,236.14661335489288 L 468.7537874210188,228.7891355476941 L 460.09845693193114,225.79124315339857 L 454.57014464028356,227.77867608551313 L 452.775419042106,231.93267138861307 L 451.9657146861263,229.49662076532607 L 448.3374526953453,231.55071297143638 L 437.55831112468735,228.75545461903354 L 436.7045176368463,237.0891901195554 L 440.47973809971614,242.1675736349938 L 436.4697245567599,246.83132269705715 L 429.57460498125175,247.19656814516875 L 428.485665050974,240.1196925619838 L 423.60946142402696,245.43516647967627 L 414.5699238137693,247.56299181367368 L 414.1110097753302,251.59074411874056 L 407.536800641796,247.8068735632629 L 406.5229209911496,246.17531347467647 L 407.4163778040111,242.42329988335504 L 404.42045477258773,241.98627797022667 L 399.8740047338011,243.41639999438547 L 392.38196772991,249.27849076651106 L 382.4566194405595,250.817229871931 L 381.26130876411094,255.7266958921713 L 377.3658763243428,255.4409141721016 L 373.4170818303138,250.01004178666648 L 371.9122709499761,251.725264533711 L 374.1076068288138,254.97390076737724 L 369.59635630782645,255.05426001082793 L 369.0520630238629,260.01277200236444 L 367.62195906080626,261.726863816822 L 364.6016647653658,262.7182598700475 L 358.8919216544377,260.819427841669 L 354.8470753801074,263.7599959728616 L 348.1234522054897,258.2144482587875 L 342.5097606683176,258.33210212216187 L 338.0380177533337,252.11200326535942 L 336.06362050632515,251.28806947205828 L 334.0145161355021,252.07837445667445 L 332.509705461698,255.65945358076635 L 327.4829967279852,255.57540043485204 L 325.8821342738796,258.85312992148744 M 404.3625351492445,230.10768441358582 L 397.49405570913547,225.03325526386467 L 399.23365987608116,222.1694026324331 L 403.60935080424235,221.5965669781632 L 400.33229445054286,211.26455988466086 L 392.02977780000384,205.95315048381062 L 395.26352051903206,202.6302144821302 L 395.36820148678413,199.4886468467051 L 392.1258295802933,193.92302250347024 L 388.57191474218786,191.15457035723082 L 383.214361148111,196.45470009125575 L 374.3882717549312,194.96950052573064 L 366.8108555055158,198.78346873676733 L 362.89407799620545,206.5097133328634 L 365.0050083896424,210.21573114297772 L 363.6945094297858,215.69846999310607 L 358.454352479007,216.574904164121 L 355.9996965370606,221.5628700499809 L 363.7371989492813,225.87546197806356 L 367.4938900892645,223.9214706946001 L 372.94749546363107,235.4648921857877 L 378.6572387810808,239.31915991267056 L 383.1930162851023,240.1353310156192 L 387.5687074197968,239.10879954517262 L 404.3625351492445,230.10768441358582" fill="none" stroke="#000000" stroke-width="0.7956797856283666"/>
	<path d="M 325.8821342738796,258.85312992148744 L 327.4829967279852,255.57540043485204 L 332.509705461698,255.65945358076635 L 334.0145161355021,252.07837445667445 L 336.06362050632515,251.28806947205828 L 338.0380177533337,252.11200326535942 L 342.5097606683176,258.33210212216187 L 348.1234522054897,258.2144482587875 L 354.8470753801074,263.7599959728616 L 358.8919216544377,260.819427841669 L 364.6016647653658,262.7182598700475 L 367.62195906080626,261.726863816822 L 369.0520630238629,260.01277200236444 L 369.59635630782645,255.05426001082793 L 374.1076068288138,254.97390076737724 L 371.9122709499761,251.725264533711 L 373.4170818303138,250.01004178666648 L 377.3658763243428,255.4409141721016 L 381.26130876411094,255.7266958921713 L 382.4566194405595,250.817229871931 L 392.38196772991,249.27849076651106 L 399.8740047338011,243.41639999438547 L 404.42045477258773,241.98627797022667 L 407.4163778040111,242.42329988335504 L 406.5229209911496,246.17531347467647 L 407.536800641796,247.8068735632629 L 414.1110097753302,251.59074411874056 L 414.5699238137693,247.56299181367368 L 423.60946142402696,245.43516647967627 L 428.485665050974,240.1196925619838 L 429.57460498125175,247.19656814516875 L 436.4697245567599,246.83132269705715 L 440.47973809971614,242.1675736349938 L 436.7045176368463,237.0891901195554 L 437.55831112468735,228.75545461903354 L 448.3374526953453,231.55071297143638 L 451.9657146861263,229.49662076532607 L 452.775419042106,231.93267138861307 L 454.57014464028356,227.77867608551313 L 460.09845693193114,225.79124315339857 L 468.7537874210188,228.7891355476941 L 473.1721684882519,236.14661335489288 L 478.1210544788399,236.6007913348949 L 477.2383596255907,240.1353310156192 L 492.8174688030812,238.52845937009312 L 492.0943646618309,244.39217065762574 L 494.70910697310455,246.59583550672295 L 497.83612517054456,246.10802911431037 L 507.9749218834828,238.0821982064837 L 515.7527906280345,244.27255945188878 L 515.0807509943265,250.27437932828823 L 510.1500940617173,252.93116407960875 L 515.2301647281985,260.2097135997033 L 511.96440480177654,262.53710382608557 L 512.1778533644894,272.17054900179517 L 508.2077140354623,279.5741495592345 L 501.6548497349306,278.0802897251748 L 496.9269686768922,284.44915299622306 L 491.45201857799657,283.9709516970369 L 491.2385702010031,285.96755181194777 L 469.10397605210727,291.81322876203245 L 468.03673435290574,292.80266156210854 L 468.83716590590046,296.5837135150235 L 466.52125126634513,293.12966358591734 L 458.20743799499115,296.39091123969456 L 456.89473059725873,289.8677155568877 L 451.5585219155433,291.35203055405736 L 450.61934913109917,294.9322389615801 L 444.84557119297386,290.8824324655822 L 442.8498292117628,290.8992039195593 L 440.5659317080256,294.76456665667087 L 442.95655330739413,304.8635288066286 L 438.32472421400297,305.9023774327958 L 430.81134212418146,303.2297121810211 L 427.1613752677676,303.73244365368555 L 423.66082251668774,306.4887928238191 L 424.39721905511067,311.99999166861824 L 411.96385290657685,317.2664285740971 L 408.9328861762511,315.901851553057 L 409.1783518747938,312.88762722312816 L 402.36934937329653,316.43765097533947 L 402.9456600468867,308.4405554282355 L 401.9531251217557,306.7736152174506 L 392.6361046085789,306.84063108104397 L 390.48027639106107,304.5954272444301 L 378.7726342785158,305.8521123868205 L 373.60718414981045,311.6315242537897 L 374.18349482338874,303.3805334275245 L 368.0895444126622,303.9921817995744 L 362.892076962396,295.92146891107666 L 356.1897989279922,294.5214384540371 L 357.3210750845607,287.7458151830324 L 346.29646774123677,284.9608955728083 L 347.34236462130025,278.16421842131115 L 343.35088065887817,272.909392233016 L 341.0776556575753,273.81610544622487 L 334.5781533119996,282.7544067928572 L 329.7862377965709,283.48434537430984 L 326.16828844743696,281.9573073839386 L 324.1512014613685,276.23374274355365 L 323.9164080795294,264.22570819298124 L 324.7381844516504,260.04165729212815 L 328.5055477203873,258.9324377881504 L 325.8821342738796,258.85312992148744" fill="none" stroke="#000000" stroke-width="0.7956797856283666"/>
</svg>
