<?xml version="1.0" ?>
<svg xmlns="http://www.w3.org/2000/svg" xmlns:ev="http://www.w3.org/2001/xml-events" xmlns:xlink="http://www.w3.org/1999/xlink" baseProfile="full" height="600px" version="1.1" viewBox="-80.6626702532899 -143.112 960.8320430394788 1710.224" width="338px">
	<defs/>
	<path d="M 224.53620366938202,91.68877367507278 L 247.19443755312122,96.36899189240553 L 276.3687644725666,109.67014726489622 L 300.0636487352523,120.50756409946706 L 300.2117413866319,120.42546457272195 L 375.14681584734916,90.70345106081643 L 387.1423515399065,98.58590271772351 L 394.6950949545592,124.94090753444951 L 408.0234681485834,143.1659823289578 L 412.0219806526794,151.45709611425843 L 416.02049133692293,159.66583031755567 L 405.8020729195497,181.17133493765468 L 388.62328169255505,185.93182649290233 L 336.79072088927904,178.70897366356374 L 311.3187187502218,188.06580831095104 L 281.2039098663496,149.27285018484096 L 221.08913746654278,143.94122647242523 L 224.53620366938202,91.68877367507278" fill="none" stroke="#000000" stroke-width="1.424"/>
	<path d="M 200.84131891151753,482.8596946193206 L 190.47480651807578,407.02320965858985 L 162.78140975129412,332.4744668947414 L 131.82996555667975,278.1676313830888 L 124.425314793224,253.88132193958108 L 125.61005964329601,220.89383070605322 L 146.78736337438667,125.51559445189028 L 160.115734748467,102.0343923849319 L 183.6625263598644,90.53923089098367 L 183.9587134822782,90.62134099045473 L 185.73582893760982,90.62134099045473 L 224.53620366938202,91.68877367507278 L 221.08913746654278,143.94122647242523 L 281.2039098663496,149.27285018484096 L 311.3187187502218,188.06580831095104 L 257.1580015610525,199.91716850405788 L 235.5166827770582,221.23779162961605 L 261.9671838767101,319.8202664958223 L 273.9901380293435,370.4274871165561 L 288.4176833398893,466.2847497398773 L 245.13504740838871,484.9190920252926 L 200.84131891151753,482.8596946193206" fill="none" stroke="#000000" stroke-width="1.424"/>
	<path d="M 31.253465216673394,227.41407110085328 L 50.78688097709617,233.9083455724308 L 70.32029673751894,244.73173346067682 L 70.32029673751894,279.3631918897133 L 74.2269798895974,307.497458693782 L 78.13366304167587,337.7920997133024 L 44.92685624896325,329.136889952042 L 9.766707880211387,331.3007225330098 L 0.0,298.8411232576934 L 3.906683152078465,257.71913432033205 L 31.253465216673394,227.41407110085328" fill="none" stroke="#000000" stroke-width="1.424"/>
	<path d="M 429.0278219121029,386.2788647605274 L 436.9016097654523,472.8588894083606 L 432.90309726134103,650.5144603247727 L 405.8020729195497,872.2310570828107 L 389.3637467689402,916.172907180491 L 336.49453376686523,1002.6415832602124 L 336.1983484642887,1002.9687451587879 L 324.05472012045834,942.1904744261032 L 303.32169616306976,875.5044757046827 L 274.59164719748907,810.5185824818867 L 238.16076216587615,754.6032377192289 L 158.7828972470915,664.9307701419001 L 145.45452587302643,609.1445604108166 L 180.99685317698118,541.5443375426235 L 190.9190862917931,512.2038593739823 L 200.84131891151753,482.8596946193206 L 245.13504740838871,484.9190920252926 L 288.4176833398893,466.2847497398773 L 273.9901380293435,370.4274871165561 L 261.9671838767101,319.8202664958223 L 343.7232750604808,346.4570166111686 L 365.3645938444598,333.1390212682877 L 429.0278219121029,386.2788647605274" fill="none" stroke="#000000" stroke-width="1.424"/>
	<path d="M 716.5895668209198,1139.3922605775429 L 731.560716324481,1141.9349153519966 L 746.531865828042,1130.49275345297 L 764.9578959862512,1120.3214777772384 L 764.9578959862512,1133.0355039696708 L 760.3513884466951,1150.8339916869113 L 746.531865828042,1171.1734798797743 L 732.7123432093738,1188.9690972055478 L 741.9253582884859,1197.8664038810164 L 755.744880907139,1213.1181513047168 L 748.8351195978124,1223.2854369059537 L 726.9542087849248,1218.2018486970514 L 716.5895668209198,1225.8271900712248 L 701.6184173173739,1239.8063447141246 L 694.7086560080475,1247.430990312575 L 702.7700442022667,1274.1153171299486 L 716.5895668209198,1293.1737106950357 L 720.0444474755831,1305.878455048793 L 707.3765517418228,1310.9601621483364 L 700.466790432481,1323.6639534203039 L 698.1635366627106,1340.1778647625792 L 708.5281786267157,1347.799282252097 L 716.5895668209198,1359.23094945813 L 705.0732979720372,1370.6620659781358 L 694.7086560080475,1388.4427086055982 L 685.4956409289352,1406.2220197375543 L 690.1021484684914,1418.9207128343878 L 684.3440140440424,1424.0 L 663.6147301160476,1413.841317062872 L 649.7952074973946,1392.2526730598806 L 656.704968806721,1373.2022393259385 L 670.5244914253741,1341.4481180145428 L 669.3728645404965,1322.393604919308 L 669.3728645404965,1294.4442157737544 L 653.2500881520577,1276.656524835815 L 654.4017150369506,1258.8674984634786 L 656.704968806721,1234.7231112500926 L 663.6147301160476,1208.0343447143953 L 682.040760274272,1178.8003369611456 L 706.22492485693,1149.5627155777754 L 716.5895668209198,1139.3922605775429" fill="none" stroke="#000000" stroke-width="1.424"/>
	<path d="M 718.8928205907055,1077.0886698351912 L 732.7123432093738,1070.7302363614274 L 745.3802389431492,1072.0019367563657 L 747.6834927129348,1084.7185639761722 L 728.1058356698177,1092.3482115883924 L 718.8928205907055,1077.0886698351912" fill="none" stroke="#000000" stroke-width="1.424"/>
	<path d="M 771.8676572955777,1224.5563168999981 L 799.506702532899,1225.8271900712248 L 793.7485681084653,1244.889469057031 L 778.7774186049195,1255.0553904378444 L 770.7160304106849,1243.618698200608 L 767.2611497560216,1233.452285832197 L 771.8676572955777,1224.5563168999981" fill="none" stroke="#000000" stroke-width="1.424"/>
	<path d="M 751.1383733675981,1279.1977052878844 L 762.6546422164655,1280.4682852943042 L 784.5355530293683,1284.2799844380565 L 793.7485681084653,1294.4442157737544 L 791.4453143386796,1309.6897455849567 L 784.5355530293683,1319.852887501448 L 777.6257917200267,1317.3121428609259 L 768.4127766409144,1314.7713709958764 L 755.744880907139,1317.3121428609259 L 746.531865828042,1322.393604919308 L 738.4704776338075,1305.878455048793 L 741.9253582884859,1295.7147140422305 L 736.1672238640218,1286.8210831398128 L 739.6221045187003,1277.9271184684515 L 751.1383733675981,1279.1977052878844" fill="none" stroke="#000000" stroke-width="1.424"/>
	<path d="M 311.3187187502218,188.06580831095104 L 389.80802472278975,256.5069924029817 L 408.2483893928238,227.41407110085328 L 435.5951714574187,205.76517966777246 L 447.3152209136541,236.07306343682882 L 459.03527036991994,283.69176190587 L 482.4753692824212,285.85601673413237 L 463.9987366490361,308.7743148416624 L 462.9419535219984,346.44698801654056 L 426.2389115742552,355.604351253439 L 429.0278219121029,386.2788647605274 L 365.3645938444598,333.1390212682877 L 343.7232750604808,346.4570166111686 L 261.9671838767101,319.8202664958223 L 235.5166827770582,221.23779162961605 L 257.1580015610525,199.91716850405788 L 311.3187187502218,188.06580831095104" fill="none" stroke="#000000" stroke-width="1.424"/>
	<path d="M 402.38836466469087,17.33463395635232 L 459.03527036991994,0.0 L 500.0554434667895,21.668089826877317 L 502.00878504284395,52.00001261558544 L 502.00878504284395,82.3279681067906 L 529.3555671074389,121.31522927619174 L 552.7956660199401,132.1438619838175 L 543.028958139744,160.29594408023996 L 533.2622502595326,171.12275953202308 L 503.9621266188832,153.7996126063342 L 496.14876031471107,125.64674296577985 L 486.3820524345149,97.49045909387338 L 460.9886119459592,90.99236999780433 L 437.54851303345794,86.6602094984223 L 421.92178042511364,93.15841991574204 L 398.4816815126124,49.83357830771289 L 402.38836466469087,17.33463395635232" fill="none" stroke="#000000" stroke-width="1.424"/>
</svg>
