<?xml version="1.0" ?>
<svg xmlns="http://www.w3.org/2000/svg" xmlns:ev="http://www.w3.org/2001/xml-events" xmlns:xlink="http://www.w3.org/1999/xlink" baseProfile="full" height="600px" version="1.1" viewBox="-80.19813896797996 -93.26400000000001 957.7376676157594 1114.528" width="516px">
	<defs/>
	<path d="M 600.7666108947324,0.0 L 602.8635272364008,1.0644697595757486 L 616.5157930528554,4.3022444399587885 L 617.9880959794089,3.7700064619312257 L 620.040397447177,6.120728544640621 L 622.2711597056909,12.152812317523782 L 624.7473059292397,15.523708825367203 L 648.1926185915012,34.640605980544315 L 662.5587284342246,41.338321045340734 L 676.7463766228709,41.870592932032544 L 662.4471899544134,59.74634862551868 L 656.6695154328681,68.8396892336906 L 640.2957198596282,108.45289752830999 L 636.7711150335839,122.07198523761978 L 634.8972747882389,126.59697049859295 L 630.7480565470813,131.96489414952222 L 620.4419347659688,141.68053049004902 L 616.9173303716019,147.00424278981097 L 615.2442583539408,157.5630986203899 L 620.040397447177,162.17711956659377 L 628.4280641090189,162.26585125619383 L 637.5295743655225,159.29335177976898 L 653.0110651216993,152.28364404933507 L 662.9156500157194,148.64573159219864 L 660.1271970846501,156.7645220478165 L 635.2988121070088,182.67451875328396 L 631.8188225865657,188.30922928795994 L 630.4134424025755,194.96447995779323 L 630.2572890487899,205.8792810250576 L 620.8434716530396,218.52477599089224 L 615.8911796377422,228.06457448246508 L 616.8280997603778,235.47468497310587 L 627.6249894714808,249.36340016911592 L 634.1834307618996,255.48698595153215 L 642.0357141881767,257.6169474057099 L 640.0726433316056,262.3206451308428 L 642.5710974237414,265.73751162467033 L 646.3187779144588,269.42065485602075 L 648.1370450485216,274.7600416227356 L 647.9475828623123,274.87920577793255 L 643.3968279413814,277.74146016174484 L 636.6599255995702,287.43775366575323 L 634.2953177113556,289.54567030188076 L 630.2353301430583,290.14476422047125 L 627.0230324148149,291.7645399194902 L 624.8815002077599,294.1387421982196 L 622.7399683889485,300.7954489531034 L 619.7061315161818,302.1268015497086 L 616.6722946434404,303.85756619990286 L 615.2892226251223,308.7170544597139 L 615.6907591617622,317.7261056307291 L 614.4415323968536,320.8549063946061 L 603.1538747458933,323.89496711961476 L 599.8523465898982,328.9100026222874 L 597.5769691294589,345.50883560007486 L 596.9077401449105,345.9304715813602 L 591.9554479109031,357.4923328056131 L 589.1000722818837,359.66715021781823 L 583.3000902078279,361.46471152783806 L 580.3554837628366,359.6893420784349 L 576.161650552915,357.89178798068315 L 570.2724376629125,356.2052011398214 L 564.7847624742028,357.958364457501 L 559.4309329271227,359.15673309654454 L 555.0140232596285,356.9597260793135 L 546.001743457351,350.32438748650014 L 542.5663692715116,346.13019412871097 L 544.0832880961104,339.87226434993636 L 546.3140503426755,333.6809950235147 L 555.3263301449783,316.9938366033959 L 561.8401564174334,299.3087759251722 L 561.7063103875892,282.1790980514643 L 554.4786403049261,266.9137982826359 L 536.6771567697255,258.9263369385767 L 517.9833681806002,255.35421020793666 L 517.537215653648,249.2306263025402 L 518.0725989965686,243.17367901417347 L 511.8264643955604,243.08493316848384 L 506.29417321656535,239.97883648961326 L 498.977273094367,239.0691977540024 L 492.8203685328924,245.4810782580484 L 482.91578367669035,254.11173768692967 L 472.9219687809528,248.9643850904502 L 482.4696315379562,235.43065944197883 L 488.7603813528169,222.0304226241467 L 481.8004029416242,210.64938224484752 L 471.0481282453699,205.1253451495023 L 488.3142288258646,201.97511863911268 L 499.1557339498473,196.2293341068526 L 501.8326487233864,186.97853619531213 L 508.30185939377606,179.2585751801185 L 517.9833681806002,175.2655376376647 L 529.3602562593106,173.09156375509605 L 538.2833056338363,166.54751400901958 L 547.7863531769638,161.13487127353787 L 552.1140320284896,159.4933432681582 L 555.5494062143309,160.5803002330524 L 558.2263213760883,162.17746592513294 L 589.1893027096122,135.00413096798292 L 594.1415953318359,129.56963188438098 L 598.8261958943674,123.22575574748797 L 608.1061673681171,122.16105669643413 L 616.7615254594087,117.3699370609381 L 620.0630536154058,109.05212167213105 L 621.3122803803161,100.06902415204213 L 618.1892134680411,91.30787361381094 L 614.8430697099535,84.07725648343965 L 621.0445890970623,65.97894430524791 L 616.7615254594087,58.105473147969626 L 610.3369300028968,52.13945078320415 L 607.7938604827673,46.86101372901793 L 607.4369387717868,40.56243826517985 L 604.9384848537478,35.43935139770964 L 601.6815719116286,31.846564266932383 L 597.309277457985,15.52405552693687 L 587.8250339638203,8.27795777770341 L 589.6127987387866,5.9433154384377245 L 593.828939722482,2.0402360726857816 L 600.7666108947324,0.0" fill="none" stroke="#000000" stroke-width="0.928"/>
	<path d="M 550.7529189262791,23.729261439313444 L 557.7128971037453,23.418779018886156 L 565.966717848814,21.733305691188463 L 574.086693108659,19.116396211895115 L 580.2882119542352,15.967249454361664 L 585.842810811084,10.866554120716078 L 587.8250339638203,8.27795777770341 L 597.309277457985,15.52405552693687 L 601.6815719116286,31.846564266932383 L 604.9384848537478,35.43935139770964 L 607.4369387717868,40.56243826517985 L 607.7938604827673,46.86101372901793 L 610.3369300028968,52.13945078320415 L 616.7615254594087,58.105473147969626 L 621.0445890970623,65.97894430524791 L 614.8430697099535,84.07725648343965 L 618.1892134680411,91.30787361381094 L 621.3122803803161,100.06902415204213 L 620.0630536154058,109.05212167213105 L 616.7615254594087,117.3699370609381 L 608.1061673681171,122.16105669643413 L 598.8261958943674,123.22575574748797 L 594.1415953318359,129.56963188438098 L 589.1893027096122,135.00413096798292 L 558.2263213760883,162.17746592513294 L 555.5494062143309,160.5803002330524 L 552.1140320284896,159.4933432681582 L 547.7863531769638,161.13487127353787 L 538.2833056338363,166.54751400901958 L 529.3602562593106,173.09156375509605 L 517.9833681806002,175.2655376376647 L 508.30185939377606,179.2585751801185 L 501.8326487233864,186.97853619531213 L 499.1557339498473,196.2293341068526 L 488.3142288258646,201.97511863911268 L 471.0481282453699,205.1253451495023 L 455.74509862820827,185.02635100057907 L 446.8666644675585,177.52825487928766 L 440.97745196574897,166.70279566141437 L 428.03902984858723,150.88649687265925 L 407.06986418723926,145.31874147111884 L 395.77783985661296,143.7302123196091 L 397.58877508194604,99.71379320994552 L 406.93566973511156,67.28715734419913 L 403.8349096647739,34.28576227482253 L 406.64567046447894,12.330227266581273 L 406.6010551589048,8.338399164723885 L 407.8502819891348,5.9433154384377245 L 412.2671916322405,5.810255321379337 L 415.7248732840441,7.761804090639483 L 418.68074464622003,10.28882668406481 L 419.43126757651584,10.930462428179554 L 427.03483836205453,17.430935581217494 L 430.3809815340001,17.91883147351629 L 434.0171244082052,17.56399786238792 L 438.16634264936266,17.697060173440608 L 443.0963272277487,19.426876799370362 L 448.36092638231264,23.463134130835186 L 461.7455007967974,39.209237530016615 L 468.8393248911124,45.37472934610047 L 477.851604968091,51.318503399031265 L 487.7561898621093,55.13319702517077 L 497.3930829224821,54.822697371734606 L 504.7545988504643,49.766019300772854 L 524.2514619309533,25.459095309255915 L 525.1437671796903,22.442978558590003 L 525.3668432760606,18.406728196682007 L 526.9060689452007,15.523708825367203 L 531.9252845664812,16.01160357836794 L 545.3990887287919,22.53168735154045 L 550.7529189262791,23.729261439313444" fill="none" stroke="#000000" stroke-width="0.928"/>
	<path d="M 352.4604528179298,199.26825502753542 L 361.18273362425407,197.6266048059201 L 369.30270845247395,192.8791585355853 L 378.1365273070349,183.96117981347268 L 383.89189439159117,176.19689723781215 L 389.1564935461804,167.3235758426742 L 393.26109605004115,157.96238693686502 L 395.5810893514295,148.51263754017512 L 395.77783985661296,143.7302123196091 L 407.06986418723926,145.31874147111884 L 428.03902984858723,150.88649687265925 L 440.97745196574897,166.70279566141437 L 446.8666644675585,177.52825487928766 L 455.74509862820827,185.02635100057907 L 471.0481282453699,205.1253451495023 L 481.8004029416242,210.64938224484752 L 488.7603813528169,222.0304226241467 L 482.4696315379562,235.43065944197883 L 472.9219687809528,248.9643850904502 L 482.91578367669035,254.11173768692967 L 492.8203685328924,245.4810782580484 L 498.977273094367,239.0691977540024 L 506.29417321656535,239.97883648961326 L 511.8264643955604,243.08493316848384 L 518.0725989965686,243.17367901417347 L 517.537215653648,249.2306263025402 L 517.9833681806002,255.35421020793666 L 505.40186855085545,270.8188278846165 L 477.2942628463781,290.18914153547706 L 460.7866212899421,290.8104247749532 L 443.7882119927013,298.132754862977 L 434.4636253050757,312.7999525846048 L 427.05749475512727,319.94511081577565 L 418.2236758083535,324.60505711389305 L 414.65445559266794,332.32735919199456 L 397.4329706142657,336.4992327877014 L 396.0498978195111,328.37742948579455 L 388.8668429507223,324.9822928627167 L 384.6730093525824,324.272202665033 L 382.6653239518299,316.88288668931904 L 383.0668604884734,309.16084598446395 L 384.6283945269482,303.45815836750893 L 380.1668696455528,300.3516658632338 L 373.5191977314682,298.4655907390207 L 367.45152437418017,294.4715752110077 L 351.88080308556994,292.62990191038836 L 347.8208155172762,273.03760904921955 L 343.0915993526504,258.4604059875903 L 334.0793195503729,254.51110325528649 L 325.51319188683124,254.8882827319983 L 316.7239885421245,259.103834875693 L 300.93019079591994,255.1767136606771 L 296.2455898451701,251.91523125967473 L 291.2486820090958,252.04835247023388 L 286.07331370571063,252.8470812799672 L 276.88257265971106,244.30519093783084 L 272.06412567914225,245.6807576156967 L 266.8441417736647,243.0183736018526 L 282.7271699476447,231.45935866306493 L 280.6302533426839,212.33544573803255 L 280.67486855656165,209.73979739381704 L 280.6755104761183,209.70246465694532 L 298.6321567528015,215.596317324881 L 306.77443988135803,216.83869171590968 L 316.4336408104154,215.64068784647375 L 320.627473925475,213.1115774580002 L 322.50131417082014,209.11827189776002 L 323.92900222347146,200.11126715002538 L 327.14129991029614,196.11806543470934 L 332.0935923573161,196.07369664760603 L 341.73048584938806,198.95767251305216 L 352.4604528179298,199.26825502753542" fill="none" stroke="#000000" stroke-width="0.928"/>
	<path d="M 54.631370702628494,125.13300040875681 L 61.65827205438939,126.15334268464672 L 87.86972934741061,137.51032691359242 L 97.50662283948074,140.43833923414917 L 115.73195122112737,142.70090454131488 L 124.85576977792071,144.87475123729806 L 132.75266807809462,149.35556624809252 L 138.01726723266216,153.25967362520956 L 138.32957394023143,155.2561034980391 L 137.77188369937866,160.31375973805922 L 139.25477570848878,166.12909814272766 L 139.3557246741399,166.52498466328328 L 148.72492633259168,175.26519135795863 L 151.35722590984835,180.5892478736937 L 150.420306218865,185.4696824955359 L 144.4418630379582,192.74605347037036 L 142.96955967968213,197.22728509517708 L 143.95109510799116,202.1966185615819 L 147.96646743230156,211.1149206688512 L 148.47954279928288,216.48372722470697 L 152.2941464642083,224.64797421651915 L 162.9125753845658,223.6718071369701 L 181.53944108495529,215.64068784647375 L 189.280186031396,214.7532790276383 L 197.61527852440187,216.2969215123163 L 205.3197164197188,223.1840709102605 L 206.4350971547849,235.29754241504244 L 211.83354230395915,248.38753008587784 L 219.2842884559783,260.9675642998176 L 208.8443206450702,270.8853913149747 L 194.52282650958855,274.16919162869465 L 184.39516519578675,281.6909561726056 L 180.37979322958537,278.0299053449731 L 166.14752913363733,278.0964697916157 L 159.72293367712538,293.5396435298943 L 132.68609388205286,304.5898146615996 L 130.49994684936368,308.3398321355817 L 133.17686162290642,314.59732668912187 L 138.79838284143506,321.564991643812 L 142.36760266890235,330.26362783315244 L 129.51841136768547,343.3118959217158 L 109.9259575439261,343.9045054593566 L 106.9427476721948,319.1681114042906 L 102.94968278479574,312.8217955542572 L 96.97124003558989,308.2507275428162 L 89.60972410762038,305.45485373090173 L 81.62359476453584,304.52289970661514 L 73.32515914561726,301.2388859914681 L 69.62209309713909,293.5614851808318 L 67.92671407422787,284.6860357454974 L 65.40595254508143,277.85205407596067 L 58.914433997234866,273.50320815073366 L 51.01753569706097,270.88504477927233 L 44.41447866937977,267.4237664418745 L 41.603718301325074,260.5456595619059 L 40.93448958059795,253.6232773337619 L 39.14987951476165,249.36340016911592 L 32.72528414118819,240.00067612676514 L 28.754527122453766,228.5082906763932 L 26.83607113981009,225.09168732214715 L 20.366860460575786,222.25193147830797 L 11.332272946655173,221.4088818266821 L 3.4576816517801863,219.1459669037822 L 0.0,211.91358259332793 L 0.8253820744747374,202.7734192741207 L 3.725373485402158,195.45253489738084 L 9.213048736340077,190.7494778368727 L 18.002252285287096,189.64027241491115 L 12.291500938014932,179.25822886780833 L 19.719939608534958,136.3125086712686 L 29.51298602270415,126.77442146963706 L 54.631370702628494,125.13300040875681" fill="none" stroke="#000000" stroke-width="0.928"/>
	<path d="M 272.97838970068364,208.00902632633654 L 276.05684190231153,208.1865052972511 L 280.6755104761183,209.70246465694532 L 280.67486855656165,209.73979739381704 L 280.6302533426839,212.33544573803255 L 282.7271699476447,231.45935866306493 L 266.8441417736647,243.0183736018526 L 272.06412567914225,245.6807576156967 L 276.88257265971106,244.30519093783084 L 286.07331370571063,252.8470812799672 L 291.2486820090958,252.04835247023388 L 296.2455898451701,251.91523125967473 L 300.93019079591994,255.1767136606771 L 316.7239885421245,259.103834875693 L 325.51319188683124,254.8882827319983 L 334.0793195503729,254.51110325528649 L 343.0915993526504,258.4604059875903 L 347.8208155172762,273.03760904921955 L 351.88080308556994,292.62990191038836 L 367.45152437418017,294.4715752110077 L 373.5191977314682,298.4655907390207 L 380.1668696455528,300.3516658632338 L 384.6283945269482,303.45815836750893 L 383.0668604884734,309.16084598446395 L 382.6653239518299,316.88288668931904 L 384.6730093525824,324.272202665033 L 365.3546077692447,345.4866444469039 L 368.56690549748623,368.743800017627 L 364.0161501883642,374.0700389571448 L 357.3684782742814,376.1783594272114 L 347.0623564931941,378.9080950966152 L 336.5777730801918,380.63915603000794 L 331.4916352045838,383.8127845150458 L 325.0670393598789,385.1887709010469 L 317.2593711086123,380.99424559886995 L 312.88707704320865,373.2489063112907 L 313.5563056395425,366.74647711698924 L 311.0132365076258,362.2414378077307 L 300.1271161697455,366.67990008773086 L 290.40099255726176,367.81171520337097 L 289.3748418617058,350.2356207642781 L 283.93178149867913,346.37429954263894 L 277.32872479847043,348.4381049111366 L 272.86720030529506,345.9526631427345 L 268.807212737023,341.22592287131346 L 258.27801449833953,340.98182026390646 L 246.8565112057785,338.1413636324318 L 245.83036051022256,323.53992234540107 L 240.56576139089256,309.64901750410337 L 236.23808253936667,301.7939634273347 L 230.21502400773633,275.74453660399877 L 219.2842884559783,260.9675642998176 L 211.83354230395915,248.38753008587784 L 206.4350971547849,235.29754241504244 L 205.3197164197188,223.1840709102605 L 197.61527852440187,216.2969215123163 L 213.23857406061174,219.19033774385213 L 223.27700487142653,224.82545958242983 L 231.4862098791968,222.07444704047867 L 239.5615698334676,216.97180319741423 L 249.02000210314174,215.72942847235902 L 253.48152705181974,215.90691020108758 L 256.9169008349913,214.57579771211905 L 260.1291985218159,212.6235052862639 L 272.97838970068364,208.00902632633654" fill="none" stroke="#000000" stroke-width="0.928"/>
	<path d="M 648.1370450485216,274.7600416227356 L 648.1926185915012,274.9232347427244 L 650.2672274962331,273.94696581436506 L 658.8110470801596,262.2318959961243 L 663.9418007496242,258.01631628666553 L 669.9648592361306,255.79760468691524 L 673.4671561935102,256.3744685253396 L 701.5078388579527,273.0594509037314 L 707.218590205261,275.45574619130787 L 709.0924308822799,276.6982745261987 L 710.2078117956881,279.3164701396903 L 711.4124233203206,286.3279812581275 L 712.5724204026994,288.1918181429788 L 718.3277870555584,289.4343801961972 L 722.8339268782144,288.32494981747266 L 727.1392984731556,286.638620223066 L 732.4708203703098,286.2836042186213 L 737.780034830475,288.2361953635825 L 747.662312287553,294.6709284554835 L 753.3507561978524,296.35728711572494 L 763.4338018826398,295.4697293212442 L 783.5998936838686,289.87815334357833 L 793.682939368609,289.9669076801628 L 790.8023962111158,295.0844271225985 L 789.5114136905347,297.3779808703254 L 776.1491475763867,312.6886568322107 L 773.2937714710351,319.5231522547453 L 775.4353031183483,325.82518093026715 L 786.0537320387058,335.766586203932 L 790.3144878963502,341.71378187030444 L 790.3814110706126,343.97728742609377 L 788.3291096028444,349.7026764391343 L 787.9721875896738,352.1881392359782 L 789.5114136905347,355.4281385580298 L 795.1106274213109,359.5114593245044 L 796.8952374871075,362.5739746187378 L 797.3413896797995,367.98890827894843 L 796.5829303478608,373.3595230329642 L 792.8352498571471,383.6126985262678 L 786.7229607594437,392.26816475138486 L 786.9460368557907,395.41968497218693 L 788.8644928384091,403.05444982204875 L 789.0875689347578,405.5402167287976 L 782.5737429499601,417.0814654145777 L 772.1783901259747,424.1395373643962 L 760.1991967588533,425.4712623277364 L 748.7776932009613,419.8336553975756 L 747.4615436281464,424.938572010026 L 744.6953981340408,428.8005931340966 L 740.4792571503201,431.15333614135955 L 735.1700431218522,431.8192091862697 L 723.3693096821305,436.25838996131114 L 713.8439546698933,442.11817987820194 L 705.7016719730358,449.6650014276401 L 697.7601579355868,459.1653122580979 L 700.7695229568502,460.7979079459797 L 700.682805259795,460.8304557491396 L 693.0535978640286,463.693921785267 L 692.5182149093262,454.0381275492456 L 689.8413001357872,442.9397919564383 L 686.5397719797919,438.1010103451712 L 681.9444014567921,434.5496464803359 L 677.4382617497606,432.7073883813102 L 673.3782737932487,430.17707069553717 L 670.1659764532218,427.0030983960057 L 665.7936819996035,425.20526418651065 L 660.3952372386475,427.44700892370867 L 655.8890971433979,430.5100066371869 L 643.9322112843255,427.75774657137725 L 634.3399329252297,419.98936860594654 L 633.4922430851775,414.2408602381331 L 633.8937803982774,408.2926785046258 L 631.2614808386143,402.9882136527761 L 627.2907236980706,398.43841063860503 L 620.9999738831864,395.59758280024636 L 613.9061498303658,395.064930028281 L 606.9461710309586,392.4460615340042 L 601.1015737430249,387.98514373097936 L 595.8369746236949,385.45509151213787 L 585.932389767491,387.4081126463924 L 582.3631695518291,385.5216717869747 L 578.4816432272572,384.01252422888797 L 562.063232486786,378.68616451647523 L 579.9093312358625,363.37324152552685 L 583.3000902078279,361.46471152783806 L 589.1000722818837,359.66715021781823 L 591.9554479109031,357.4923328056131 L 596.9077401449105,345.9304715813602 L 597.5769691294589,345.50883560007486 L 599.8523465898982,328.9100026222874 L 603.1538747458933,323.89496711961476 L 614.4415323968536,320.8549063946061 L 615.6907591617622,317.7261056307291 L 615.2892226251223,308.7170544597139 L 616.6722946434404,303.85756619990286 L 619.7061315161818,302.1268015497086 L 622.7399683889485,300.7954489531034 L 624.8815002077599,294.1387421982196 L 627.0230324148149,291.7645399194902 L 630.2353301430583,290.14476422047125 L 634.2953177113556,289.54567030188076 L 636.6599255995702,287.43775366575323 L 643.3968279413814,277.74146016174484 L 647.9475828623123,274.87920577793255 L 648.1370450485216,274.7600416227356" fill="none" stroke="#000000" stroke-width="0.928"/>
	<path d="M 700.7695229568502,460.7979079459797 L 713.799339364292,467.86672426931614 L 713.2416486917654,479.3209053627665 L 701.9093761767443,490.2426345748744 L 681.6540537643185,499.61069438272176 L 676.0325325965588,506.2705858367118 L 672.5971588133872,509.24537319562404 L 669.6302450915957,510.310974165059 L 658.1418183594685,512.9305884089715 L 657.4725900704298,513.9961988218603 L 656.7364381754277,517.7258590870022 L 656.2679781141253,518.6582795292492 L 648.0141578007556,519.3242955366217 L 647.7910812727096,518.5250767199758 L 646.9433917612711,518.436274585644 L 639.7603370557121,519.5019002236852 L 638.6449557106299,520.8339357703068 L 637.0388064355302,525.8957135328783 L 635.9680403960494,527.6273888910964 L 623.9442317233772,536.1970761563157 L 621.6019314166502,541.3478588251468 L 622.6280817188867,549.9622508247126 L 622.4719283651011,557.8219410138811 L 619.237322809639,565.8150097836751 L 601.4358396154233,593.6588390405894 L 598.4020027193695,601.3861972616616 L 598.3831633904059,601.7049953786453 L 598.1569676862555,601.6974181669124 L 593.5169819493798,601.5419810251852 L 583.3447050334855,592.0826464206822 L 571.8785865270486,588.7075419957198 L 561.617079571619,582.8899988385655 L 535.8294673178915,573.475537435697 L 512.228001320442,586.9755924364384 L 507.0526326288675,582.1350568087659 L 502.10034039486027,575.2518329553046 L 492.37421639415834,572.3431531263507 L 482.02347901097863,572.276542639106 L 483.00501449265863,560.1091769650646 L 482.20193986648417,548.031003350948 L 477.69580015945274,538.2621681207007 L 472.6096618956283,522.676939956322 L 469.3973637791396,517.148994384529 L 469.174287709787,505.71593734735177 L 472.8773535670751,481.5854892587701 L 469.48659459511157,476.4132805326529 L 465.560452668442,471.5741064154645 L 464.48968675903717,465.18115645180285 L 453.7820276648753,448.0005963581918 L 457.9758608747968,446.26926177047613 L 467.92506094487845,445.02625644205114 L 470.06659276368987,443.42811213338774 L 471.98504812492865,441.4970301730656 L 476.22349693694804,439.87670338908566 L 495.98805143547804,437.81246054681344 L 504.86648559615304,435.4818766426131 L 513.3433824437263,429.59998335869165 L 556.3970960543832,386.98643694160916 L 562.063232486786,378.68616451647523 L 578.4816432272572,384.01252422888797 L 582.3631695518291,385.5216717869747 L 585.932389767491,387.4081126463924 L 595.8369746236949,385.45509151213787 L 601.1015737430249,387.98514373097936 L 606.9461710309586,392.4460615340042 L 613.9061498303658,395.064930028281 L 620.9999738831864,395.59758280024636 L 627.2907236980706,398.43841063860503 L 631.2614808386143,402.9882136527761 L 633.8937803982774,408.2926785046258 L 633.4922430851775,414.2408602381331 L 634.3399329252297,419.98936860594654 L 643.9322112843255,427.75774657137725 L 655.8890971433979,430.5100066371869 L 660.3952372386475,427.44700892370867 L 665.7936819996035,425.20526418651065 L 670.1659764532218,427.0030983960057 L 673.3782737932487,430.17707069553717 L 677.4382617497606,432.7073883813102 L 681.9444014567921,434.5496464803359 L 686.5397719797919,438.1010103451712 L 689.8413001357872,442.9397919564383 L 692.5182149093262,454.0381275492456 L 693.0535978640286,463.693921785267 L 700.682805259795,460.8304557491396 L 700.7695229568502,460.7979079459797" fill="none" stroke="#000000" stroke-width="0.928"/>
	<path d="M 598.3831633904059,601.7049953786453 L 597.9112347893808,609.6910645698289 L 599.7404601608239,616.9302171086448 L 602.1942989473837,623.5477248872364 L 603.5327559571406,630.2541790841739 L 602.0604525988646,637.8046384801905 L 582.8089739150573,631.5421879922787 L 571.9005457240708,638.4708629086987 L 555.3036736228336,666.9864085614228 L 532.6391285927933,690.0847640460429 L 527.4637596177525,698.8803003032118 L 519.9683982046712,729.844113047764 L 513.2491539474471,745.9632311763908 L 513.0310759466201,745.90496739455 L 509.37262569139915,744.9275430519998 L 503.66187365690035,749.3704033167785 L 491.5265265541061,755.7682227293217 L 454.85279318606183,757.2121914753569 L 435.3113155333444,768.4309271928379 L 424.11288831013593,782.338230188685 L 417.10829429682923,787.0259644789904 L 406.35601998881486,772.7407966612799 L 398.59296656320595,767.2757133108933 L 390.56222263082486,762.8770511423725 L 386.23454339105905,754.3464742452658 L 389.93760924837244,741.6398632372011 L 390.9637595556848,721.4701886926008 L 393.9083656124561,711.6301211812332 L 391.81144939573704,701.0351425497965 L 406.1329435312169,683.2220779852546 L 403.0544918328196,673.7606378518329 L 398.3252752799756,667.1422198811939 L 397.4329706142657,658.9026816214027 L 406.400635202689,651.5960781776331 L 410.99600572568875,656.2376420209714 L 416.43906570049717,656.5485624595452 L 417.9113689230055,650.4856650011146 L 418.0452145646315,644.0009190978715 L 437.40823175008694,624.4807503758713 L 438.5236128733713,614.7765682257747 L 443.87744280866957,606.8490830762108 L 458.243552158029,601.3199283532576 L 472.4312006519063,594.0144629885286 L 480.2388689031494,584.1112314864181 L 482.02347901097863,572.276542639106 L 492.37421639415834,572.3431531263507 L 502.10034039486027,575.2518329553046 L 507.0526326288675,582.1350568087659 L 512.228001320442,586.9755924364384 L 535.8294673178915,573.475537435697 L 561.617079571619,582.8899988385655 L 571.8785865270486,588.7075419957198 L 583.3447050334855,592.0826464206822 L 593.5169819493798,601.5419810251852 L 598.1569676862555,601.6974181669124 L 598.3831633904059,601.7049953786453" fill="none" stroke="#000000" stroke-width="0.928"/>
	<path d="M 513.2491539474471,745.9632311763908 L 512.1161143467473,748.6814090627779 L 501.98845335633337,766.0979407395802 L 488.96080138671647,781.8713350691668 L 459.5593538438596,806.2215745281178 L 455.0978288951816,812.6204721425848 L 444.07786265603244,838.8394732831109 L 438.63480227902016,845.6834220005974 L 429.0425245242215,851.0609109921835 L 424.6702301867406,854.5718820916821 L 409.8579681512765,862.927256680558 L 394.37647739514847,877.3719003180571 L 371.4442400997907,888.0835794359394 L 367.6519443034757,889.3725609302733 L 360.42427429236415,888.1724746623299 L 355.7396732472887,885.8167625614082 L 351.14430281343925,885.2389487388024 L 344.13970933032493,889.5059038895753 L 343.3589425614244,891.0171311583589 L 342.44432987572543,898.0399865595573 L 340.213567185489,901.7292700492261 L 332.8520516892295,905.1518973620601 L 330.1305215007233,907.6855546679858 L 328.52437265732453,913.7753042996912 L 328.3012961293273,919.3317492432379 L 326.9851465565124,924.1770492904435 L 322.0105462408278,928.0 L 320.0474758159829,927.2442962190773 L 302.4244534124641,925.8662542307147 L 281.18759557175457,920.887571269386 L 180.13406090096495,922.1766868732024 L 166.57102569573095,818.2640471285681 L 164.18132136626824,810.0442964715392 L 169.6721337472052,809.5102285077605 L 235.25654705768665,805.1776688611008 L 250.0241937201441,792.7801925658695 L 261.3118513711026,791.7137649047146 L 281.96871053534613,782.1382808346142 L 297.1825101129724,765.2763144047608 L 310.74554522437194,756.19030518161 L 326.6285733983302,751.7029274790092 L 342.86852289507596,737.1971030051606 L 350.7208067484132,717.1387475616052 L 352.505416468026,707.3432259042955 L 358.4838597857804,704.1447468435316 L 359.15308838211064,710.275190029301 L 358.6177054274082,718.1160936366875 L 364.0161501883642,731.9102924900925 L 363.7484589051086,748.6373270256448 L 366.7376805639975,758.944962020306 L 373.1176608066082,762.2550227987018 L 380.1668696455528,758.8338869894354 L 386.23454339105905,754.3464742452658 L 390.56222263082486,762.8770511423725 L 398.59296656320595,767.2757133108933 L 406.35601998881486,772.7407966612799 L 417.10829429682923,787.0259644789904 L 424.11288831013593,782.338230188685 L 435.3113155333444,768.4309271928379 L 454.85279318606183,757.2121914753569 L 491.5265265541061,755.7682227293217 L 503.66187365690035,749.3704033167785 L 509.37262569139915,744.9275430519998 L 513.0310759466201,745.90496739455 L 513.2491539474471,745.9632311763908" fill="none" stroke="#000000" stroke-width="0.928"/>
	<path d="M 107.5852157567677,415.41688472534514 L 109.64196999203993,413.5302786341909 L 102.2804544957551,407.67088513892753 L 99.29123247363057,399.28143846078456 L 98.08662094897286,370.6520145742215 L 99.55892430724894,361.9525926330255 L 102.79352986270932,354.7179996162456 L 108.3035129822595,351.655539020046 L 110.26658340715316,346.72901569632467 L 109.9259575439261,343.9045054593566 L 129.51841136768547,343.3118959217158 L 142.36760266890235,330.26362783315244 L 138.79838284143506,321.564991643812 L 133.17686162290642,314.59732668912187 L 130.49994684936368,308.3398321355817 L 132.68609388205286,304.5898146615996 L 159.72293367712538,293.5396435298943 L 166.14752913363733,278.0964697916157 L 180.37979322958537,278.0299053449731 L 184.39516519578675,281.6909561726056 L 194.52282650958855,274.16919162869465 L 208.8443206450702,270.8853913149747 L 219.2842884559783,260.9675642998176 L 230.21502400773633,275.74453660399877 L 236.23808253936667,301.7939634273347 L 240.56576139089256,309.64901750410337 L 245.83036051022256,323.53992234540107 L 246.8565112057785,338.1413636324318 L 242.39498632438128,347.2619564015375 L 241.19037477334683,357.1150693359788 L 246.81189599190077,367.9892549421089 L 245.47343879923852,379.90678294587326 L 239.49499548148594,389.8715956970502 L 236.23808253936667,401.63436453014043 L 238.78115128306155,404.71937103520537 L 240.0749936500643,408.3814570437125 L 236.6842350663172,414.5959783030838 L 231.46425116086314,419.41229480999476 L 218.88275153111834,410.88944922814613 L 201.30434406529918,411.7994322885099 L 192.91667764545244,413.7303785150635 L 185.19823982196303,411.2001751211632 L 177.3905715707199,409.60215948258866 L 169.18136639459337,410.2901929538455 L 157.7152474999165,412.82039132893436 L 147.00758840577805,417.5479072321179 L 132.5076330265744,432.7517800150548 L 117.51690951830075,427.7799427057945 L 107.5852157567677,415.41688472534514" fill="none" stroke="#000000" stroke-width="0.928"/>
	<path d="M 97.14722981931438,473.88516680895674 L 94.87432326220058,442.8284635919122 L 95.76662851093398,430.26550676966644 L 97.6404687562809,424.5390544982073 L 107.5852157567677,415.41688472534514 L 117.51690951830075,427.7799427057945 L 132.5076330265744,432.7517800150548 L 147.00758840577805,417.5479072321179 L 157.7152474999165,412.82039132893436 L 169.18136639459337,410.2901929538455 L 177.3905715707199,409.60215948258866 L 185.19823982196303,411.2001751211632 L 192.91667764545244,413.7303785150635 L 201.30434406529918,411.7994322885099 L 218.88275153111834,410.88944922814613 L 231.46425116086314,419.41229480999476 L 237.93346183122756,438.18979437400793 L 237.57653973202892,446.8019789804091 L 241.90421897177126,454.8372193664717 L 245.38420798327022,464.11567416227797 L 249.71188722301434,471.840481288836 L 252.43341721043123,468.7105849757895 L 257.16263376327345,465.53631782955387 L 261.4456974009487,470.57520122081064 L 260.6426227747724,478.4111215770617 L 266.4872200626807,498.3234752871995 L 261.17800534125837,513.8855445449789 L 261.5795426543348,524.2753964478397 L 257.74263154363354,533.8218693530833 L 249.31034990993615,537.7737327431188 L 241.3688356288506,542.5249025214979 L 235.39039308753271,553.8036128313805 L 225.12888613212834,582.2460780673844 L 222.49658657246337,586.7979567646126 L 221.24735980752953,591.8605993284064 L 221.4704358769074,597.2563847377876 L 220.89043770832725,602.5856313094381 L 216.4289128269589,607.1377560285276 L 209.60278005736873,606.9379054398913 L 199.92127127054454,608.225832857073 L 190.6859150106727,611.3124358731751 L 139.5122266516412,612.5115550556669 L 110.06616336626173,605.761009866318 L 99.38587366359188,603.8220889097142 L 102.03507053077247,585.6651859916351 L 102.8604526052454,551.9604619473236 L 102.3109664852496,544.4506678521 L 138.4174548742549,545.0406001507386 L 154.0830738016398,539.843485099066 L 160.8715086313593,533.6070384898869 L 168.70431790094264,524.7722423235252 L 170.79306716889042,510.7409130379511 L 173.40400346268723,493.59218197640166 L 177.05931458456794,480.08157586623264 L 180.71462570644866,468.1302601194779 L 183.17951931547557,457.91761354349785 L 183.70170634129929,446.48652957292444 L 181.61295746154445,438.6927887296045 L 174.30233521778663,432.45790102078723 L 167.45100785574493,432.1251593758151 L 157.52944931821017,433.68387137129616 L 149.69664004862503,439.3991985448822 L 142.1629716282946,446.2578748508094 L 120.87799502304354,459.3207689780728 L 97.14722981931438,473.88516680895674" fill="none" stroke="#000000" stroke-width="0.928"/>
	<path d="M 102.3109664852496,544.4506678521 L 97.14722981931438,473.88516680895674 L 120.87799502304354,459.3207689780728 L 142.1629716282946,446.2578748508094 L 149.69664004862503,439.3991985448822 L 157.52944931821017,433.68387137129616 L 167.45100785574493,432.1251593758151 L 174.30233521778663,432.45790102078723 L 181.61295746154445,438.6927887296045 L 183.70170634129929,446.48652957292444 L 183.17951931547557,457.91761354349785 L 180.71462570644866,468.1302601194779 L 177.05931458456794,480.08157586623264 L 173.40400346268723,493.59218197640166 L 170.79306716889042,510.7409130379511 L 168.70431790094264,524.7722423235252 L 160.8715086313593,533.6070384898869 L 154.0830738016398,539.843485099066 L 138.4174548742549,545.0406001507386 L 102.3109664852496,544.4506678521" fill="none" stroke="#000000" stroke-width="0.928"/>
	<path d="M 164.18132136626824,810.0442964715392 L 152.20491585301122,768.8526779314309 L 125.54730550394855,724.0243061066852 L 109.17350993070862,706.4321974676476 L 102.59276120330087,697.1922510893585 L 98.4881582677681,685.731497796002 L 94.82970795657585,635.0509239837703 L 99.38587366359188,603.8220889097142 L 110.06616336626173,605.761009866318 L 139.5122266516412,612.5115550556669 L 190.6859150106727,611.3124358731751 L 199.92127127054454,608.225832857073 L 209.60278005736873,606.9379054398913 L 216.4289128269589,607.1377560285276 L 220.89043770832725,602.5856313094381 L 221.4704358769074,597.2563847377876 L 221.24735980752953,591.8605993284064 L 222.49658657246337,586.7979567646126 L 225.12888613212834,582.2460780673844 L 235.39039308753271,553.8036128313805 L 241.3688356288506,542.5249025214979 L 249.31034990993615,537.7737327431188 L 257.74263154363354,533.8218693530833 L 264.7472251687256,546.654471415176 L 283.0394768329692,569.6343262121047 L 294.37174969780546,576.7172831860288 L 297.4055861823286,588.5299058976718 L 297.04866408312813,606.6714380256888 L 308.782474261039,591.993827181668 L 310.5670839806518,585.8875770408956 L 315.1178396780155,580.2477092616933 L 319.08859643034276,574.2082584376624 L 331.5362504184616,575.3850557519484 L 343.1808297804005,578.493594189095 L 343.8500583767325,588.0192023869951 L 341.35160484691175,597.7671007500604 L 336.3993122246899,629.7881792978899 L 336.8454647516639,634.8069906598699 L 334.61470211685884,639.0930202338806 L 331.84855730378246,643.4457234527437 L 339.2100726398568,651.1741204855074 L 350.8100371761651,643.9342958387555 L 359.5546256951852,633.4079348152386 L 365.1315316998632,617.7077816347035 L 368.92382720847024,611.6455244058219 L 380.3899457149325,627.2121794029138 L 374.1438111139225,637.916022501989 L 388.1529991405161,643.6678017642126 L 399.7083480747302,644.0009190978715 L 406.400635202689,651.5960781776331 L 397.4329706142657,658.9026816214027 L 398.3252752799756,667.1422198811939 L 403.0544918328196,673.7606378518329 L 406.1329435312169,683.2220779852546 L 391.81144939573704,701.0351425497965 L 393.9083656124561,711.6301211812332 L 390.9637595556848,721.4701886926008 L 389.93760924837244,741.6398632372011 L 386.23454339105905,754.3464742452658 L 380.1668696455528,758.8338869894354 L 373.1176608066082,762.2550227987018 L 366.7376805639975,758.944962020306 L 363.7484589051086,748.6373270256448 L 364.0161501883642,731.9102924900925 L 358.6177054274082,718.1160936366875 L 359.15308838211064,710.275190029301 L 358.4838597857804,704.1447468435316 L 352.505416468026,707.3432259042955 L 350.7208067484132,717.1387475616052 L 342.86852289507596,737.1971030051606 L 326.6285733983302,751.7029274790092 L 310.74554522437194,756.19030518161 L 297.1825101129724,765.2763144047608 L 281.96871053534613,782.1382808346142 L 261.3118513711026,791.7137649047146 L 250.0241937201441,792.7801925658695 L 235.25654705768665,805.1776688611008 L 169.6721337472052,809.5102285077605 L 164.18132136626824,810.0442964715392" fill="none" stroke="#000000" stroke-width="0.928"/>
	<path d="M 384.6730093525824,324.272202665033 L 388.8668429507223,324.9822928627167 L 396.0498978195111,328.37742948579455 L 397.4329706142657,336.4992327877014 L 393.4175982598443,354.29670165345834 L 390.3391461732306,363.306664619612 L 390.42837660098064,367.6563677976682 L 393.4175982598443,372.161462158984 L 399.0837346922759,375.357222825324 L 401.84987989356694,372.89382226491176 L 403.72372042914986,368.58845266885305 L 406.66832687413756,366.30262877183424 L 416.5282961282509,366.50236049109327 L 420.36520723897377,368.05583216948924 L 425.85288320409103,380.9498597248764 L 431.0728671095469,386.7866958597531 L 437.94361509300757,392.02438014892107 L 443.9220580225455,398.72693364805326 L 446.4651271544586,408.936321496396 L 446.24205108507897,414.6181729747311 L 445.2605156034242,418.74644107975155 L 443.02975296861734,422.40864819927293 L 439.1036110419514,426.6701652276564 L 430.18056166742576,441.3638521167789 L 428.7974892608894,442.8066134393676 L 431.3405583928007,451.4632871942397 L 438.6128436893414,458.0779956548657 L 446.1974354829866,460.3421150557209 L 449.677424882702,455.99146548648116 L 450.7928060060098,451.1969255124411 L 453.7820276648753,448.0005963581918 L 464.48968675903717,465.18115645180285 L 465.560452668442,471.5741064154645 L 469.48659459511157,476.4132805326529 L 472.8773535670751,481.5854892587701 L 469.174287709787,505.71593734735177 L 469.3973637791396,517.148994384529 L 472.6096618956283,522.676939956322 L 477.69580015945274,538.2621681207007 L 482.20193986648417,548.031003350948 L 483.00501449265863,560.1091769650646 L 482.02347901097863,572.276542639106 L 480.2388689031494,584.1112314864181 L 472.4312006519063,594.0144629885286 L 458.243552158029,601.3199283532576 L 443.87744280866957,606.8490830762108 L 438.5236128733713,614.7765682257747 L 437.40823175008694,624.4807503758713 L 418.0452145646315,644.0009190978715 L 417.9113689230055,650.4856650011146 L 416.43906570049717,656.5485624595452 L 410.99600572568875,656.2376420209714 L 406.400635202689,651.5960781776331 L 399.7083480747302,644.0009190978715 L 388.1529991405161,643.6678017642126 L 374.1438111139225,637.916022501989 L 380.3899457149325,627.2121794029138 L 368.92382720847024,611.6455244058219 L 365.1315316998632,617.7077816347035 L 359.5546256951852,633.4079348152386 L 350.8100371761651,643.9342958387555 L 339.2100726398568,651.1741204855074 L 331.84855730378246,643.4457234527437 L 334.61470211685884,639.0930202338806 L 336.8454647516639,634.8069906598699 L 336.3993122246899,629.7881792978899 L 341.35160484691175,597.7671007500604 L 343.8500583767325,588.0192023869951 L 343.1808297804005,578.493594189095 L 331.5362504184616,575.3850557519484 L 319.08859643034276,574.2082584376624 L 334.7039329328272,563.0399668236455 L 354.87002474446064,565.4601057297095 L 353.66541319340274,556.689949850447 L 350.14080819161484,548.2752277794325 L 344.6977482167847,539.7274779168397 L 338.00546108882236,533.0004195913718 L 361.69615751402193,518.4810221948252 L 380.8360982418848,503.76236035622054 L 382.84378441909195,495.23777246920815 L 383.15609130444176,486.66896861138247 L 384.9853166261469,479.4322441046899 L 388.6437664931261,472.4398255820845 L 382.5760931358616,460.2089309444861 L 369.7269018346447,452.1069962646125 L 367.6746004435599,434.30549131341047 L 349.7392712667332,423.60719542040493 L 360.8484676739715,408.51462392131174 L 379.40841023325424,399.28178559858964 L 372.31458618043376,395.9526854001566 L 365.93460593782305,391.1366328559592 L 362.1423100409995,382.96944049732167 L 357.3684782742814,376.1783594272114 L 364.0161501883642,374.0700389571448 L 368.56690549748623,368.743800017627 L 365.3546077692447,345.4866444469039 L 384.6730093525824,324.272202665033" fill="none" stroke="#000000" stroke-width="0.928"/>
	<path d="M 246.8565112057785,338.1413636324318 L 258.27801449833953,340.98182026390646 L 268.807212737023,341.22592287131346 L 272.86720030529506,345.9526631427345 L 277.32872479847043,348.4381049111366 L 283.93178149867913,346.37429954263894 L 289.3748418617058,350.2356207642781 L 290.40099255726176,367.81171520337097 L 300.1271161697455,366.67990008773086 L 311.0132365076258,362.2414378077307 L 313.5563056395425,366.74647711698924 L 312.88707704320865,373.2489063112907 L 317.2593711086123,380.99424559886995 L 325.0670393598789,385.1887709010469 L 331.4916352045838,383.8127845150458 L 336.5777730801918,380.63915603000794 L 347.0623564931941,378.9080950966152 L 357.3684782742814,376.1783594272114 L 362.1423100409995,382.96944049732167 L 365.93460593782305,391.1366328559592 L 372.31458618043376,395.9526854001566 L 379.40841023325424,399.28178559858964 L 360.8484676739715,408.51462392131174 L 349.7392712667332,423.60719542040493 L 367.6746004435599,434.30549131341047 L 369.7269018346447,452.1069962646125 L 359.2886938173864,456.33026823845483 L 327.71540417001387,462.1303421971063 L 310.7209356769138,461.7987642792215 L 297.97370564680233,464.34387404432465 L 292.2561710500257,467.44714876321115 L 289.5698897331054,469.9582857583754 L 285.9415128099788,470.34725399109044 L 283.51279843076577,466.4804517122736 L 277.19814057893353,463.0970293911289 L 268.45476795967176,465.51375655399437 L 261.4456974009487,470.57520122081064 L 257.16263376327345,465.53631782955387 L 252.43341721043123,468.7105849757895 L 249.71188722301434,471.840481288836 L 245.38420798327022,464.11567416227797 L 241.90421897177126,454.8372193664717 L 237.57653973202892,446.8019789804091 L 237.93346183122756,438.18979437400793 L 231.46425116086314,419.41229480999476 L 236.6842350663172,414.5959783030838 L 240.0749936500643,408.3814570437125 L 238.78115128306155,404.71937103520537 L 236.23808253936667,401.63436453014043 L 239.49499548148594,389.8715956970502 L 245.47343879923852,379.90678294587326 L 246.81189599190077,367.9892549421089 L 241.19037477334683,357.1150693359788 L 242.39498632438128,347.2619564015375 L 246.8565112057785,338.1413636324318" fill="none" stroke="#000000" stroke-width="0.928"/>
	<path d="M 369.7269018346447,452.1069962646125 L 382.5760931358616,460.2089309444861 L 388.6437664931261,472.4398255820845 L 384.9853166261469,479.4322441046899 L 383.15609130444176,486.66896861138247 L 382.84378441909195,495.23777246920815 L 380.8360982418848,503.76236035622054 L 361.69615751402193,518.4810221948252 L 338.00546108882236,533.0004195913718 L 344.6977482167847,539.7274779168397 L 350.14080819161484,548.2752277794325 L 353.66541319340274,556.689949850447 L 354.87002474446064,565.4601057297095 L 334.7039329328272,563.0399668236455 L 319.08859643034276,574.2082584376624 L 315.1178396780155,580.2477092616933 L 310.5670839806518,585.8875770408956 L 308.782474261039,591.993827181668 L 297.04866408312813,606.6714380256888 L 297.4055861823286,588.5299058976718 L 294.37174969780546,576.7172831860288 L 283.0394768329692,569.6343262121047 L 264.7472251687256,546.654471415176 L 257.74263154363354,533.8218693530833 L 261.5795426543348,524.2753964478397 L 261.17800534125837,513.8855445449789 L 266.4872200626807,498.3234752871995 L 260.6426227747724,478.4111215770617 L 261.4456974009487,470.57520122081064 L 268.45476795967176,465.51375655399437 L 277.19814057893353,463.0970293911289 L 283.51279843076577,466.4804517122736 L 285.9415128099788,470.34725399109044 L 289.5698897331054,469.9582857583754 L 292.2561710500257,467.44714876321115 L 297.97370564680233,464.34387404432465 L 310.7209356769138,461.7987642792215 L 327.71540417001387,462.1303421971063 L 359.2886938173864,456.33026823845483 L 369.7269018346447,452.1069962646125" fill="none" stroke="#000000" stroke-width="0.928"/>
	<path d="M 397.4329706142657,336.4992327877014 L 414.65445559266794,332.32735919199456 L 418.2236758083535,324.60505711389305 L 427.05749475512727,319.94511081577565 L 434.4636253050757,312.7999525846048 L 443.7882119927013,298.132754862977 L 460.7866212899421,290.8104247749532 L 477.2942628463781,290.18914153547706 L 505.40186855085545,270.8188278846165 L 517.9833681806002,255.35421020793666 L 536.6771567697255,258.9263369385767 L 554.4786403049261,266.9137982826359 L 561.7063103875892,282.1790980514643 L 561.8401564174334,299.3087759251722 L 555.3263301449783,316.9938366033959 L 546.3140503426755,333.6809950235147 L 544.0832880961104,339.87226434993636 L 542.5663692715116,346.13019412871097 L 546.001743457351,350.32438748650014 L 555.0140232596285,356.9597260793135 L 559.4309329271227,359.15673309654454 L 564.7847624742028,357.958364457501 L 570.2724376629125,356.2052011398214 L 576.161650552915,357.89178798068315 L 580.3554837628366,359.6893420784349 L 583.3000902078279,361.46471152783806 L 579.9093312358625,363.37324152552685 L 562.063232486786,378.68616451647523 L 556.3970960543832,386.98643694160916 L 513.3433824437263,429.59998335869165 L 504.86648559615304,435.4818766426131 L 495.98805143547804,437.81246054681344 L 476.22349693694804,439.87670338908566 L 471.98504812492865,441.4970301730656 L 470.06659276368987,443.42811213338774 L 467.92506094487845,445.02625644205114 L 457.9758608747968,446.26926177047613 L 453.7820276648753,448.0005963581918 L 450.7928060060098,451.1969255124411 L 449.677424882702,455.99146548648116 L 446.1974354829866,460.3421150557209 L 438.6128436893414,458.0779956548657 L 431.3405583928007,451.4632871942397 L 428.7974892608894,442.8066134393676 L 430.18056166742576,441.3638521167789 L 439.1036110419514,426.6701652276564 L 443.02975296861734,422.40864819927293 L 445.2605156034242,418.74644107975155 L 446.24205108507897,414.6181729747311 L 446.4651271544586,408.936321496396 L 443.9220580225455,398.72693364805326 L 437.94361509300757,392.02438014892107 L 431.0728671095469,386.7866958597531 L 425.85288320409103,380.9498597248764 L 420.36520723897377,368.05583216948924 L 416.5282961282509,366.50236049109327 L 406.66832687413756,366.30262877183424 L 403.72372042914986,368.58845266885305 L 401.84987989356694,372.89382226491176 L 399.0837346922759,375.357222825324 L 393.4175982598443,372.161462158984 L 390.42837660098064,367.6563677976682 L 390.3391461732306,363.306664619612 L 393.4175982598443,354.29670165345834 L 397.4329706142657,336.4992327877014" fill="none" stroke="#000000" stroke-width="0.928"/>
</svg>
