<?xml version="1.0" ?>
<svg xmlns="http://www.w3.org/2000/svg" xmlns:ev="http://www.w3.org/2001/xml-events" xmlns:xlink="http://www.w3.org/1999/xlink" baseProfile="full" height="600px" version="1.1" viewBox="-80.63355027986873 -162.40800000000002 959.5226033584247 1940.816" width="297px">
	<defs/>
	<path d="M 735.7397412802663,185.3829194584685 L 730.029682480755,191.36675744575408 L 712.014848957296,222.0125575682504 L 708.9319534502134,233.8649622359257 L 707.296678315829,237.86743243443024 L 702.0959673771835,252.0136302724279 L 702.5516995918373,258.05992482333494 L 706.412021190852,265.2061404087262 L 752.896725501858,330.67883868563825 L 759.169747808432,336.63053413625215 L 761.3143710630973,336.9901995520397 L 763.7538795937661,336.54910008578895 L 764.0597888293186,336.5654481506832 L 766.1665808201119,336.67803735750704 L 768.3380116384863,338.76814376497094 L 765.6840405229628,348.9667645851009 L 765.6840405229628,354.65242622271467 L 766.7295443271894,359.8966990161406 L 768.6597049970001,364.7132422689552 L 771.3136758531451,369.19710256482927 L 771.3136758531451,369.2649352650125 L 776.6484256479159,392.6432141783654 L 776.3535401125116,400.37337017505735 L 770.7239045229506,414.1907935720893 L 770.4022111644367,418.7327845809665 L 771.7157926809731,421.8645697896077 L 773.8068002894191,424.04725490409635 L 776.0854621408386,425.95874868640954 L 778.0424308931298,428.2090995074284 L 779.329204586549,431.0219470665354 L 781.7687133766037,439.62930915226184 L 784.2082219072948,442.53662152962545 L 787.5323875629409,443.5463620539615 L 791.2050546595964,444.2375863497855 L 794.5024124921256,446.13503366081284 L 796.888305635976,451.203703251438 L 798.175079588781,458.83319707706823 L 798.2105385523735,465.1839687145517 L 798.1082694155663,465.19527318279603 L 699.8577264948631,476.05465276393414 L 637.3821764295126,488.7276950203448 L 574.7591839901462,493.9561762343456 L 536.8529715969762,486.16751032556397 L 522.6850556018322,485.74080479500674 L 481.0659648930657,491.40970459898585 L 440.2108959218553,488.341640463924 L 427.00806050734224,490.6782563675625 L 413.885648163514,491.531612024628 L 400.3209075312606,494.70791165874147 L 387.80167055033775,494.7485456514967 L 390.7103155930356,493.12316391724073 L 389.4101377959348,409.61485014710667 L 389.8926778529836,405.3028476723459 L 390.8309506656108,402.0822490013971 L 393.4849215625381,397.5053776760717 L 398.6320167484457,391.59911737606706 L 414.04649477144625,378.74753587808067 L 405.6020417903785,370.6217840541164 L 402.57276167510554,368.50542004613715 L 401.8891630082487,368.3019202002316 L 400.68281251573444,368.1798203630494 L 399.39603871925374,367.61001728321133 L 398.10926492277315,366.85705721625817 L 395.81719924360084,365.7716961943667 L 392.60026451914007,365.1611736461525 L 390.133947998134,365.07977034942525 L 377.34663333732374,346.80929916079765 L 326.86756842725316,256.2734746975283 L 325.66548112633853,254.87725918042753 L 359.7873226083412,220.12306258790937 L 378.74042864358864,204.6518226589663 L 392.6268628557608,196.88776706989586 L 396.2191064830801,193.40658865190636 L 397.15737899487596,190.90438760878365 L 396.94291666942183,188.02130913166397 L 397.1037636080499,183.42446443569688 L 399.891773579728,175.97096620636037 L 409.8642708060449,164.83007808716593 L 413.510129820205,157.98688928284074 L 422.8660476338615,132.5266245464113 L 422.3567000323668,129.8317374318411 L 419.3274199121251,125.271972232133 L 418.97891847113783,122.38623746311077 L 420.4533466669015,118.99670915087499 L 422.65158530838534,118.42496546574431 L 425.0910940984622,118.76528972232298 L 427.34294812677206,118.12547867499045 L 429.08545455360934,116.15155761823024 L 431.122846515851,112.33969090464073 L 432.9189680701286,110.44729459158548 L 435.5193237988335,110.20223228729787 L 438.2269103011757,111.19609066220616 L 440.1302631478767,110.78765745532586 L 440.2911100865047,106.2675048870935 L 439.75495414315833,102.98612703524734 L 438.06606362192605,101.74706049331628 L 435.5997470087617,101.1615601243887 L 432.83854486017094,99.90884482705074 L 430.1577659215599,97.71653937386044 L 428.3080287210631,95.57863452197937 L 426.8604080890087,92.96403843501461 L 418.12106916927763,68.25670760267882 L 415.57432934615565,53.56979285292434 L 415.35986702070903,47.57423628777422 L 417.6385291315143,42.99545993812476 L 423.91155143808083,40.106313436987975 L 427.4769872423126,39.65657666111677 L 433.42831619036525,39.901887946664225 L 436.752482105412,39.574806213831934 L 437.3690612586938,38.893380629108854 L 439.51368399459477,35.93591564614388 L 440.8540735936043,34.95460884434626 L 442.78423426340015,35.40437641225891 L 444.2586627185645,36.93083727373662 L 445.5722442350784,37.36696312944965 L 447.0466724308642,34.61387397173636 L 448.2530229143331,31.356363723581467 L 450.07595255109857,30.60670575367916 L 452.51546134115347,30.97472061403623 L 455.5715492845269,31.083761870005162 L 456.295359470854,31.683484622376046 L 456.6974760393034,33.12825040688719 L 457.5017099543229,34.31402606355264 L 459.45867844725063,34.17773115060711 L 460.9331066430068,33.291806824888674 L 463.2921919637697,31.02924099994642 L 464.471734624129,30.265949012649713 L 473.69361384102405,27.75792971408891 L 474.7123098221337,27.94876049455275 L 476.9373560273561,29.257300319642873 L 478.2241299801391,29.393605014932398 L 479.8057894683483,28.61666403851023 L 482.91549279852563,26.31305068003547 L 484.7116146121817,25.972272838298256 L 493.85307035976996,28.412204574785477 L 496.21215568050343,27.0491250911995 L 499.83120713093234,21.323894371932496 L 500.689056173414,19.27905291540759 L 501.19840429367287,17.206884416715987 L 501.9490223031094,15.311885880129683 L 503.34302728893755,13.757675182797984 L 506.1578448243469,12.666979694142688 L 508.89223940918447,14.507517930077453 L 511.59982591152664,13.839476739975188 L 513.9857190553769,11.903482599819567 L 518.1409261897885,6.940542618978136 L 521.009359630788,5.058893718297059 L 523.5024838076762,4.568020398487967 L 528.7568103925189,4.758915779562493 L 531.4107812486639,4.227133909785716 L 537.5765725222075,4.008965406750632 L 540.6594682097432,0.0 L 553.0982818687711,11.126342957235357 L 558.3794160173154,13.962178759842839 L 560.9797714866419,16.7842635037847 L 562.9903556257665,20.02883526669521 L 564.6524383239115,25.958641541618007 L 566.7702534960888,28.166852201573988 L 569.6386869370809,29.652583294344517 L 572.6947746210318,30.783898262381634 L 581.3000746846301,31.751634591169587 L 583.4715057623829,32.433131080946104 L 584.4365860972955,33.809733216689665 L 586.9833259204103,38.716209059993695 L 597.4919785713312,54.19657098651647 L 642.1001378587457,94.85690700164993 L 642.9043715143868,96.25950330288332 L 646.416191672392,98.91482645272214 L 647.2204253280553,100.33095805753408 L 647.8638123044466,105.9543507153906 L 649.1505862572296,111.93126434560249 L 651.0539391039529,116.72331976869128 L 656.9784602289179,126.70118419892503 L 660.6779348892824,130.98864602158488 L 662.8761737901522,133.04381322320492 L 666.0663003302577,135.19418941046317 L 669.6585439575991,136.11964747562095 L 673.1435562924873,134.50008759183973 L 676.7894155660331,132.3224701634259 L 679.8455035093846,132.92132145449514 L 682.6335134810629,134.5545275111794 L 685.528754485764,135.49360353713118 L 697.1633344102406,142.67916637393049 L 706.6532913394155,146.0539517865345 L 709.5485326035174,148.06786067776426 L 711.639539693199,150.05449837353044 L 720.3252632261115,162.44932128009714 L 722.0677693935703,163.98661928207554 L 723.5153897662392,164.85728657562288 L 724.6681248628673,165.93200147399008 L 725.6332051977727,167.9997625615857 L 726.9467867143088,172.16231062150314 L 727.9118670491995,174.1754823771078 L 728.421215169451,176.5014415015554 L 729.3326798581592,178.51449167153643 L 731.5041109359194,179.69781205599207 L 733.9168119028793,183.87328143939044 L 735.7397412802663,185.3829194584685" fill="none" stroke="#000000" stroke-width="1.616"/>
	<path d="M 798.2105385523735,465.1839687145517 L 798.2555027986872,473.23642948426436 L 796.2985343057816,480.267723604204 L 789.6770108176064,493.3532164856318 L 787.3447330605818,500.34210359989623 L 787.0766553482872,513.8711802776605 L 785.3609567445594,518.718883185013 L 781.420212194995,523.6272241775141 L 777.3722360936436,524.2500540903591 L 760.7514072966413,515.5706180196926 L 755.2826186457083,514.602416680527 L 750.1891389994938,516.2476746091361 L 745.1224669170325,521.2644876940789 L 743.4067685726685,523.7220027190849 L 742.6829583863413,525.387383610524 L 742.4148804146681,530.545784790121 L 741.3961846929147,533.6596210961652 L 734.855084414675,543.7178483201556 L 729.5203346198969,555.5681732488871 L 729.761604509082,560.4675188924551 L 733.4610791694683,566.4424290569564 L 751.1006039475805,584.6148498217775 L 753.4328814452043,587.9092707888981 L 754.1834991952626,592.0017468002665 L 753.4891663831465,596.6907126961555 L 753.2720347659622,598.1569907681193 L 750.9129491858431,603.8992183201647 L 747.6692069995108,606.3136760457646 L 743.8893088698325,608.1194012475186 L 739.8681405915535,611.9674263912716 L 738.1792498109353,616.2007250467501 L 736.5707827590169,638.5538604417696 L 733.9436194666105,643.7525121067191 L 725.5527819878445,653.7635776454958 L 718.7167959148146,666.2132324239102 L 714.132664129473,670.4911133668705 L 698.5305315729812,668.7948544586086 L 688.4239954904875,671.4777661051061 L 669.7657752500226,679.1273176374157 L 665.5837600331084,682.2288400189977 L 663.3050981816889,687.4586043017199 L 662.715326851502,693.3771769349762 L 663.6267915402028,698.5184377549845 L 666.8169183396943,706.5708868630642 L 668.8811181250454,714.5212685426368 L 667.0581884882799,721.370035702576 L 658.6137353633096,726.0909130229301 L 654.0296035779902,725.8207697503836 L 648.9629314955067,724.875261173563 L 644.7809167973568,726.1584487101275 L 642.8239480450728,732.6011169062306 L 643.1456414035645,734.3636506441401 L 644.5128388256835,737.6927843758157 L 644.2179530309008,739.0433094927455 L 628.4013581489403,759.7037537386512 L 626.471197479122,761.3914840184949 L 622.2891825216159,762.8024022219809 L 620.4126374980244,764.1930456164492 L 615.4263888848549,772.2596971125312 L 614.407692903745,779.4954331936215 L 616.1501990711745,786.7845722866067 L 619.4475571631116,794.9908902851371 L 620.3322140286882,799.3501904050322 L 620.3054062055934,816.3062617102707 L 618.6969388942964,821.7304513838615 L 613.3621890994963,831.8763223266361 L 604.7300814721889,858.6522164490642 L 600.7625288401366,866.8115758272205 L 594.3822755005176,871.234860269934 L 576.6623275124699,875.8264911016036 L 573.6330473922281,875.8534603952851 L 571.032691922909,874.5993816187703 L 568.5127599229261,872.8800523923546 L 565.6711343050214,871.5315365397757 L 562.856316769634,871.1944044360109 L 554.8944034230486,871.4506251141011 L 552.1063934513705,871.9765488971905 L 549.3451915621802,873.7565774198443 L 547.1469526613106,876.0624719593028 L 544.6538287438009,877.9098434867946 L 541.1688161495267,878.3952778661458 L 521.1702063100304,876.7569262799697 L 522.001247788803,883.6742141551817 L 521.438284022325,900.2102452295176 L 520.0174714727879,907.3549535787547 L 519.1864299940153,908.9388485523647 L 516.2643811661749,913.3264340360181 L 515.6209941897833,913.8656011216596 L 516.0767266638377,916.0020194475466 L 517.175845854883,916.5748680507152 L 518.4626198076882,917.033144110816 L 519.4545079656883,918.8527482701973 L 519.3472766732574,922.8355373018584 L 516.1035342275468,930.2615412697866 L 515.1384538926635,934.2842783882551 L 515.4601475105411,936.5954222731585 L 516.8005368501648,940.6044154997722 L 516.4788432322651,942.9154054531773 L 515.0848385058227,944.2898454380307 L 510.7151690459574,946.2908325217749 L 509.2407405907859,948.2580920434265 L 509.1603173808577,951.0270083237081 L 509.1829268601835,951.3112368728754 L 509.0801032009702,951.3101693566298 L 372.14592238217216,949.888671667816 L 374.34416099003937,940.6922155182006 L 372.81611704840844,939.1088530731731 L 372.02528730959705,938.623732907294 L 370.41681983073346,937.9566882258357 L 344.4936890587413,930.7132233827049 L 339.3063821042247,928.226734326794 L 336.933892887805,926.7105505836544 L 334.8830968872496,925.0528283376651 L 333.1137830337203,923.1255211737572 L 331.53212355611214,921.0431767418255 L 330.5670432087627,919.1831796464351 L 329.72259793397365,917.0198759213554 L 328.5564589768164,911.6552075398406 L 328.1945539923427,907.4225646902104 L 328.75751758662426,894.5280005603656 L 329.28026941228217,891.5956376022043 L 329.28026941228217,891.5551902478803 L 330.6072547441051,882.6294484344645 L 332.2291259903372,876.3526009941236 L 334.40055683020086,870.9855926139062 L 334.7624618146745,869.5089366009981 L 334.8428853519073,867.7895122844723 L 334.4809801341671,865.9621679554339 L 333.35505317888544,863.9392348899702 L 332.5106079040964,862.9479813924914 L 331.6527586287019,862.2601668289757 L 324.0125391537993,858.638939847048 L 322.0421664571956,857.3374208978679 L 320.79560442933877,856.244940188776 L 319.1871371837416,854.4848053539175 L 317.64568924147574,852.4616196440379 L 316.3589154450098,850.2090870776537 L 315.8361636193374,848.8534944284996 L 314.71023666405574,843.2623052759745 L 313.9462146932476,834.9996680858897 L 314.0668497658229,820.1115350011299 L 315.3134117936797,811.3205178164029 L 319.10671387977544,800.031944374922 L 321.5194146315378,798.2302298759714 L 323.44957555951777,797.0965480215353 L 324.69613758738944,796.6511690995994 L 328.9183641945419,795.9223625572977 L 335.0037319598248,795.5174674970453 L 344.77517073924884,795.7604046119628 L 346.2227913769135,795.4769775614816 L 347.5631807093716,795.0518358906639 L 348.68910789791977,794.4242414996922 L 349.69439978062627,793.6751714501298 L 351.22244372225725,792.2175037284047 L 352.30815914219653,790.7328177542028 L 353.2732394895606,787.2909510812793 L 363.5004105580299,720.2085612126338 L 363.4601990226874,716.4937638588759 L 361.12792157489145,711.8466662743126 L 356.8118676631377,708.0166759613363 L 351.5039254027646,702.3760819507692 L 348.0859325350292,696.9445503174084 L 347.5631807093716,695.762268613739 L 342.56352836402783,681.2560368126956 L 342.2820464502537,677.8503987197772 L 342.4831048267951,673.3633986002469 L 344.6947474352827,659.58331739305 L 346.7053316672289,652.1550684706992 L 346.7053316672289,647.0650910686093 L 344.41326575478996,634.2542937297662 L 346.62490812999613,630.2923543034993 L 346.7991589718301,630.1706537544055 L 347.16106395628896,629.8258340637466 L 347.4827574054053,628.6290952864097 L 347.7240275505705,627.4120556056426 L 345.49898117471446,622.1109658406955 L 344.3730539861662,617.2220356581615 L 344.29263068220007,616.1874120726878 L 344.7349592039063,614.6591209314163 L 345.57940424541397,612.7318113815717 L 347.6033924779953,610.2769631781387 L 349.01080134703625,608.9108730298987 L 350.41820998282543,607.9978795563505 L 352.8711229697446,606.8819850698728 L 355.4848820980482,606.1109946225479 L 369.65279809319196,605.644339099907 L 373.83481316500183,604.7515993554874 L 384.1424075374522,601.0723286147388 L 386.434473449891,599.7534322597753 L 388.40484591322826,598.1301471524865 L 390.18756353411135,596.222746358139 L 391.0722208107759,595.0458173245421 L 391.59497240316705,591.8531445118193 L 391.8362425483173,586.6106704723961 L 389.8122545490173,567.9447574126054 L 386.11278000077465,555.9135140665417 L 385.26833449273386,551.7921690108152 L 381.3275895660739,541.7281729130996 L 380.12123907355965,539.7382372824104 L 378.5127718279626,537.6670280328111 L 371.86444046839813,531.4463134118297 L 370.37660829539095,529.4155088447288 L 369.4115279480269,527.4185010819758 L 369.17025780287656,526.7076898359821 L 368.9289876577114,525.36728583469 L 368.8083525851363,521.3662509909519 L 369.331104410794,517.6222937687523 L 371.01999519362386,513.3906679205103 L 374.15650638085185,507.76395287394996 L 380.68420290109304,499.23849080816916 L 381.40801310329203,498.7102750838708 L 382.252458378081,497.93826137354466 L 387.80167055033775,494.7485456514967 L 400.3209075312606,494.70791165874147 L 413.885648163514,491.531612024628 L 427.00806050734224,490.6782563675625 L 440.2108959218553,488.341640463924 L 481.0659648930657,491.40970459898585 L 522.6850556018322,485.74080479500674 L 536.8529715969762,486.16751032556397 L 574.7591839901462,493.9561762343456 L 637.3821764295126,488.7276950203448 L 699.8577264948631,476.05465276393414 L 798.1082694155663,465.19527318279603 L 798.2105385523735,465.1839687145517" fill="none" stroke="#000000" stroke-width="1.616"/>
	<path d="M 507.8061823949872,1241.001015395992 L 507.2033488879522,1249.5181123565935 L 508.5705457912848,1259.7144626796266 L 513.7712567299229,1269.3860189809902 L 521.438284022325,1278.5060616258788 L 527.1751509043096,1288.0282551449989 L 526.4781482816913,1298.892505116022 L 525.8615691284169,1301.2156263772138 L 525.6739146260578,1302.679302402902 L 524.8428731473072,1303.2029984334392 L 519.2400453808559,1302.0884629837133 L 516.5324591378701,1302.0616065375248 L 514.5486825624765,1303.2029984334392 L 513.905295586063,1306.076568979104 L 519.3472766732574,1369.9746931980346 L 519.07919896097,1373.5712689208322 L 518.2213496591024,1376.0270761223244 L 516.1571498737734,1378.7109597685921 L 513.7712567299229,1383.6357263346727 L 512.6453297157681,1385.3667262351041 L 512.377251744095,1387.16479218691 L 513.3691399020951,1390.5461554116525 L 515.5941863666958,1393.337048996265 L 522.4033643572303,1398.9052219746359 L 523.9046006355114,1401.3605016181612 L 522.8859046543796,1404.1645572740726 L 520.2319335388561,1405.5732685107632 L 516.9077681425885,1406.552648156646 L 513.8784880223318,1407.9881628327623 L 507.1497332417256,1417.3252957194495 L 508.00758228420733,1426.7421845402937 L 511.5194027016131,1436.69484875277 L 512.8061763950175,1447.57209568427 L 510.0449742464489,1458.4550772332382 L 509.34797188321676,1464.0738850721543 L 510.66155339975296,1469.1895927352523 L 512.6453297157681,1471.8244685672057 L 514.8435683572372,1473.400003501953 L 517.4975394727828,1474.1911154454847 L 520.7144738359979,1474.4928094671334 L 522.2425179373665,1475.6660567769998 L 522.7518655388611,1478.3007944485832 L 523.6097148407213,1490.267029511116 L 522.1620944680525,1493.1964036003608 L 518.971967668539,1495.294516982751 L 514.2806045908035,1499.4571238594483 L 511.3049403761444,1505.0338625555548 L 511.2245169068083,1510.348961952787 L 513.4495633714091,1521.2867738060718 L 512.9134076874412,1526.7754310983028 L 508.10759422024796,1540.7094948708352 L 508.0345997829212,1540.5867131365153 L 497.9280635537457,1523.5856802660362 L 493.9471068584623,1519.3367438013522 L 481.3474465735731,1508.7539947997493 L 476.3477942282295,1500.6169399695077 L 470.999640432514,1470.202191359349 L 458.6010385241661,1440.222558141425 L 456.1079142351712,1427.0710330815714 L 456.55024275686276,1413.8644117955766 L 461.4962797995104,1414.2266240260728 L 463.3996324929686,1414.1863779655212 L 464.9276764345994,1413.9247805767866 L 466.0536036231478,1413.3546300215457 L 466.6567787527716,1412.5899528208056 L 466.8578373625796,1412.2076127373032 L 466.9382606665457,1412.066750022786 L 466.9382606665457,1412.0466266308852 L 465.6916984054075,1400.488623320372 L 459.92802408925576,1371.5786137449384 L 460.2497175383723,1367.2035855191216 L 460.129082465797,1365.7541534291556 L 458.6412502927752,1364.0631267469682 L 446.3632834570026,1355.721710479779 L 442.42253853034276,1347.1313707196225 L 438.36115876437447,1331.7745445500777 L 437.5167132563189,1328.7136724537186 L 437.48990572159676,1324.659233853793 L 436.3103629970711,1322.1620572417924 L 434.8627423594063,1320.2354349484328 L 433.96468154865477,1317.905990743949 L 433.96468154865477,1306.298336132247 L 432.5572724463323,1301.4374030734286 L 430.6941312882166,1294.984929078604 L 430.02393662199495,1288.7469613662533 L 433.0800242719901,1283.0727280761344 L 441.2161880378283,1271.5554969000768 L 443.78973586405607,1269.8429206410099 L 447.52942194764137,1268.660891635216 L 448.1325973105319,1265.7863593434902 L 446.3632834570026,1259.029571835408 L 446.96645858662646,1251.6678289291604 L 450.8803955120309,1240.8661308348626 L 454.33860038165653,1240.698185645231 L 507.71290610052336,1241.0004869878892 L 507.8061823949872,1241.001015395992" fill="none" stroke="#000000" stroke-width="1.616"/>
	<path d="M 495.8884902468698,1179.9147985481936 L 496.0245011781442,1180.9130657862938 L 498.11550878659034,1184.0990304003565 L 501.03755761440124,1191.5594600409945 L 507.2569642747706,1198.4817345868846 L 509.5624339493071,1202.2182325335514 L 510.2862443950125,1205.954600330683 L 507.8061823949872,1241.001015395992 L 507.71290610052336,1241.0004869878892 L 454.33860038165653,1240.698185645231 L 450.8803955120309,1240.8661308348626 L 446.96645858662646,1251.6678289291604 L 446.3632834570026,1259.029571835408 L 448.1325973105319,1265.7863593434902 L 447.52942194764137,1268.660891635216 L 443.78973586405607,1269.8429206410099 L 441.2161880378283,1271.5554969000768 L 433.0800242719901,1283.0727280761344 L 430.02393662199495,1288.7469613662533 L 430.6941312882166,1294.984929078604 L 432.5572724463323,1301.4374030734286 L 386.0323564635419,1280.245576337733 L 367.72263716519706,1274.476889954626 L 352.62985282457953,1273.1270144929972 L 338.94447688648455,1273.4695219161397 L 326.6665098174453,1271.4144624732942 L 316.8414559685771,1264.6781672962863 L 307.1504404931193,1256.107771032839 L 292.9825244979756,1250.216916325012 L 281.38815609579297,1247.7986863684093 L 228.9387189556518,1250.84161717858 L 223.83923888909592,1250.3836105103424 L 223.81822201020378,1245.8101139166497 L 223.60375968473505,1194.2612166456279 L 223.44291300548548,1153.082206349244 L 224.08629998187692,1111.617961865796 L 224.5420321965529,1081.783768068917 L 221.78083004798427,1059.4444209204075 L 220.46724853144804,1057.0419730999658 L 218.93433065769483,1056.5234411007102 L 218.1885866800287,1055.4403088639224 L 219.4753603734553,1049.0872373366437 L 219.4753603734553,1044.5644655511896 L 219.87747720126103,1042.3568475600603 L 228.40235353615952,1028.3023242543823 L 229.36743413045073,1023.6978221082402 L 228.26831493938326,1021.1531370080121 L 221.56636798189396,1012.6771104351307 L 220.2527862059793,1009.7618347723625 L 219.87747720126103,1006.6916121484845 L 219.77969360895608,998.9096858652523 L 224.4752224366009,999.2447860837935 L 238.4018680533277,999.7498019984428 L 243.30769332733684,999.3053881408945 L 244.6748904277836,999.3457893351346 L 247.5433239351391,999.0629796867457 L 270.07526960736976,993.0362438720293 L 274.35111175051435,992.3089701528544 L 277.48762293774223,992.0665442937685 L 279.0960901833392,992.4705869004414 L 281.87069638610836,993.6220993374259 L 284.08233876132925,995.0160170387909 L 286.0527114579184,996.6321289245654 L 293.06294780194173,1004.1736295433294 L 294.10845145327204,1004.9277477347649 L 295.3148019457716,1005.6145285992036 L 296.6819990462184,1006.1599099841252 L 298.1296196838831,1006.5638944880774 L 299.7380869294802,1006.7860850556011 L 307.63298078343473,1006.7052885652296 L 309.161024491799,1006.9476778363447 L 310.4075865196706,1007.432455047605 L 311.5335137082188,1008.1798151366734 L 312.45838228695914,1009.0483616049553 L 316.3187039096528,1014.0440369393411 L 318.22205683637753,1015.8416099960797 L 320.4739109802221,1017.3361962129685 L 322.92682373386015,1018.6085964141255 L 330.52683144013895,1020.8975287736041 L 331.6527586287019,1021.5236096775536 L 334.64182697536603,1023.9673076849997 L 335.88838923648933,1024.492391829008 L 337.2957978722785,1024.7549328534794 L 343.609032015358,1024.7347374869441 L 346.7053316672289,1025.2800128078156 L 353.8764148524511,1027.8919078737679 L 355.44467056269104,1028.2150238536697 L 357.012926039679,1028.3563870556995 L 363.138505573571,1028.1342451919948 L 367.56179055727944,1026.8754310871877 L 370.65808997588357,1025.4011847444563 L 372.90994435299496,1023.9673076849997 L 376.58261113324915,1021.1870078099704 L 378.59319536519536,1018.0632839560915 L 377.1455747275159,1016.5687087859873 L 375.2690295687798,1010.2804720274739 L 378.7540419731128,987.9384787510611 L 374.505007597957,964.6550491801593 L 372.62846267248756,961.0849202226739 L 370.2157616874587,957.9592639183072 L 372.14592238217216,949.888671667816 L 509.0801032009702,951.3101693566298 L 509.1829268601835,951.3112368728754 L 514.238194989705,1014.8407399459077 L 514.8435683572372,1022.445683900944 L 512.8061763950175,1031.243976918266 L 510.7419768690448,1034.313434580501 L 505.56807375353833,1040.1357189061307 L 504.2008763314193,1043.3933573989066 L 504.1472609445786,1045.701908004924 L 504.79064792099217,1050.5140216698858 L 504.79064792099217,1052.9300864261224 L 502.80687160496956,1063.7175409879037 L 502.4851782464558,1068.7037392787697 L 503.42345075825153,1074.90754418851 L 505.4340346379977,1080.653461858179 L 510.52751428421243,1091.4917706576537 L 512.2968285341445,1097.0349407890276 L 512.1627896780046,1102.7459747967846 L 510.125397715763,1107.5284681671098 L 507.41781095402024,1111.8735497642576 L 505.40722707426664,1116.278979208359 L 504.7102244516782,1121.0406663855497 L 504.1472609445786,1136.6020517037668 L 500.87671093515894,1153.082206349244 L 499.8848225177508,1169.4858235567588 L 498.97335782907203,1171.7982591601492 L 496.31938671354857,1176.7590699028985 L 495.7296153833615,1178.748706433859 L 495.8884902468698,1179.9147985481936" fill="none" stroke="#000000" stroke-width="1.616"/>
	<path d="M 506.32233935755505,1548.5541608435456 L 504.3349154469598,1560.1580289815718 L 504.2267611056926,1575.9604405247167 L 504.085938824126,1575.9704947698638 L 447.19167249056187,1581.2544146588004 L 446.61221992913937,1576.8413402007218 L 445.33761288398017,1576.0573185170902 L 444.0630060721022,1575.8613121902688 L 442.10207230003147,1574.1952478821095 L 442.94529058926713,1568.8341606622243 L 447.04688212385923,1558.811576186612 L 448.09238577517465,1552.4599670280995 L 446.96645858662646,1540.6470202496498 L 443.91037093663135,1538.4960494480742 L 442.7844435148163,1537.8929671838882 L 441.25639980643746,1537.309984666367 L 439.8087791687726,1536.9682352642371 L 436.95374966205213,1531.8954936875261 L 435.1040125045567,1508.2714163160708 L 434.8225308240641,1500.4962879601123 L 433.77702693946713,1472.6627309928833 L 432.95938919941494,1457.704305157856 L 430.3858416064538,1447.1297234492072 L 421.4990601036945,1432.7114082767134 L 421.9413883921341,1427.4533260728958 L 424.7964178988546,1422.4029366543768 L 429.01864450602193,1416.6815885328137 L 433.20065934456534,1414.4882209886282 L 440.4521660670055,1413.763797248214 L 456.55024275686276,1413.8644117955766 L 456.1079142351712,1427.0710330815714 L 458.6010385241661,1440.222558141425 L 470.999640432514,1470.202191359349 L 476.3477942282295,1500.6169399695077 L 481.3474465735731,1508.7539947997493 L 493.9471068584623,1519.3367438013522 L 497.9280635537457,1523.5856802660362 L 508.0345997829212,1540.5867131365153 L 508.10759422024796,1540.7094948708352 L 507.2301564516611,1543.2533905527978 L 506.32233935755505,1548.5541608435456" fill="none" stroke="#000000" stroke-width="1.616"/>
	<path d="M 317.3505943986792,259.5000922635121 L 324.4546579246401,256.11021901808044 L 325.66548112633853,254.87725918042753 L 326.86756842725316,256.2734746975283 L 377.34663333732374,346.80929916079765 L 390.133947998134,365.07977034942525 L 392.60026451914007,365.1611736461525 L 395.81719924360084,365.7716961943667 L 398.10926492277315,366.85705721625817 L 399.39603871925374,367.61001728321133 L 400.68281251573444,368.1798203630494 L 401.8891630082487,368.3019202002316 L 402.57276167510554,368.50542004613715 L 405.6020417903785,370.6217840541164 L 414.04649477144625,378.74753587808067 L 398.6320167484457,391.59911737606706 L 393.4849215625381,397.5053776760717 L 390.8309506656108,402.0822490013971 L 389.8926778529836,405.3028476723459 L 389.4101377959348,409.61485014710667 L 390.7103155930356,493.12316391724073 L 387.80167055033775,494.7485456514967 L 382.252458378081,497.93826137354466 L 381.40801310329203,498.7102750838708 L 380.68420290109304,499.23849080816916 L 374.15650638085185,507.76395287394996 L 371.01999519362386,513.3906679205103 L 369.331104410794,517.6222937687523 L 368.8083525851363,521.3662509909519 L 368.9289876577114,525.36728583469 L 369.17025780287656,526.7076898359821 L 369.4115279480269,527.4185010819758 L 370.37660829539095,529.4155088447288 L 371.86444046839813,531.4463134118297 L 378.5127718279626,537.6670280328111 L 380.12123907355965,539.7382372824104 L 381.3275895660739,541.7281729130996 L 385.26833449273386,551.7921690108152 L 386.11278000077465,555.9135140665417 L 389.8122545490173,567.9447574126054 L 391.8362425483173,586.6106704723961 L 391.59497240316705,591.8531445118193 L 391.0722208107759,595.0458173245421 L 390.18756353411135,596.222746358139 L 388.40484591322826,598.1301471524865 L 386.434473449891,599.7534322597753 L 384.1424075374522,601.0723286147388 L 373.83481316500183,604.7515993554874 L 369.65279809319196,605.644339099907 L 355.4848820980482,606.1109946225479 L 352.8711229697446,606.8819850698728 L 350.41820998282543,607.9978795563505 L 349.01080134703625,608.9108730298987 L 347.6033924779953,610.2769631781387 L 345.57940424541397,612.7318113815717 L 344.7349592039063,614.6591209314163 L 344.29263068220007,616.1874120726878 L 344.3730539861662,617.2220356581615 L 345.49898117471446,622.1109658406955 L 271.844583460899,619.7781094582072 L 262.1133564500841,623.4295079851537 L 253.01211257016308,628.6696632932317 L 244.4738322845089,635.6132096788928 L 233.45583124396148,641.0959749699582 L 220.41384243736596,644.2597265867884 L 204.03428383373472,642.4547802597821 L 193.0028792590855,639.9196781152 L 180.40321874092982,638.4188614850558 L 169.4522374702467,638.0875967799561 L 154.76156964944525,640.9945708452608 L 151.494398964407,642.200756040173 L 151.4640021215841,640.1898813092313 L 148.13983646593798,631.2860261430674 L 120.76908486942907,613.0764904246735 L 83.61349080836305,588.3692617430769 L 61.52408284142469,573.689087176322 L 46.5919356034149,563.7358420025431 L 21.928770768670823,547.3252400085645 L 2.305469674514245,534.2485288658849 L 0.2144625848324156,530.3020881518023 L 0.0,524.2771335882957 L 3.6190517098146855,497.2879269954544 L 7.4257574032242335,482.6858571520494 L 7.613411905583379,472.43707127869726 L 5.549212379632713,448.81171116005487 L 9.275494863106733,440.04270974148034 L 23.376391400725442,426.6094593372942 L 26.727364879481136,421.78322646397714 L 27.531598275758473,419.08528614698696 L 27.933715103571604,413.0925409487229 L 28.44306322382307,410.2858248276033 L 32.491039065796265,402.5498796324356 L 32.115730320456365,399.7088784520037 L 29.9442992426963,394.3791762554043 L 29.32772034880025,391.55143663550535 L 30.078338098858403,386.33645976550116 L 36.72666966952911,370.1738846991986 L 44.63496711050943,374.54211773611723 L 48.119979704783546,375.01691062275256 L 52.75772687695845,375.05760694390784 L 53.85684606802591,373.6535686072681 L 54.5002330444174,370.5876565551872 L 54.258963155217536,367.50805434599454 L 52.75772687695845,366.0970941589807 L 50.693527091629356,365.1202601508641 L 49.78206240292108,362.73239071847024 L 49.648023546788444,359.78815355049176 L 49.94290908217064,357.13552925600715 L 50.85437403025734,356.5249375126737 L 53.052612671748605,353.1937351073678 L 54.580656513731356,350.0252253010904 L 56.29635485808068,347.6911637847215 L 57.44908995472364,347.2297711976114 L 58.65544043819257,347.6572379624955 L 64.33869141457207,348.5596602987279 L 66.08119732267463,349.7945364532609 L 67.39477909856714,351.02260797231685 L 68.78878408439526,351.5925348214582 L 69.53940209383184,352.16245713220655 L 70.90659951595086,354.72705634817237 L 71.36233173060474,355.33087783091554 L 72.99760686501847,355.2494638629582 L 75.81242465980635,353.8247070214986 L 76.83112064091611,353.5465373520868 L 84.81984129183199,354.4217514231483 L 87.44700458426806,355.33087783091554 L 88.14400694750023,356.6199190056949 L 89.9937444073606,359.2318565302624 L 91.8970972540617,361.00249588798175 L 92.7549465559293,359.8152901939503 L 93.049832350712,355.60225656962194 L 90.10097544040575,352.56954236734697 L 88.4657005653778,349.78096660733155 L 88.03677591445508,346.92443613164414 L 87.9831602682285,343.9524445400325 L 87.44700458426806,340.83104952295497 L 86.96446428711879,340.8446212337268 L 84.49814767393231,339.71817329922436 L 83.74752992388149,339.20244441603717 L 83.5866829852535,337.9945397991051 L 84.04241545928582,334.7303860520619 L 83.74752992388149,333.65813850015707 L 81.30802113382671,333.0948630798677 L 79.67274599942034,334.567513767361 L 78.70766566450763,334.92718926587304 L 78.43958769283442,330.963879243464 L 79.7799770324655,330.38022372519123 L 88.3316617092157,328.45277067654473 L 89.83289746873261,327.39400776043203 L 91.6022117186574,322.6090286173917 L 92.7549465559293,321.2651073281668 L 95.51614896387636,321.29225726270136 L 100.69005182001918,323.75609377350776 L 103.37083075865964,324.69273771907086 L 102.03044115965017,320.16551754593496 L 101.01174517854042,311.2120854305678 L 96.15953568088939,303.24202004429617 L 97.44630963369441,299.9491981975286 L 100.12708831291962,297.3895231223226 L 102.83467481528383,293.26805781015787 L 105.32779925156518,295.25073486793445 L 107.28476748510701,298.2450210935369 L 106.93626630348354,299.5893553823771 L 109.2149284142814,299.62330288195403 L 110.58212557704407,298.9579284454146 L 111.92251491664562,298.13638682410993 L 114.17436920434126,297.62037267259916 L 119.08019434819673,297.86480098410766 L 123.28901686943419,299.0665615188923 L 131.89431693303248,303.1605500716037 L 135.19167476556163,297.0636163649259 L 135.59379185277538,295.0198779815101 L 135.00402052258835,292.4396631231865 L 132.4572806994884,289.92047212097907 L 131.89431693303248,287.8357945872494 L 133.1810908858375,284.6781091322142 L 136.07633189053882,286.12454937562353 L 139.10561201078065,289.5673712437562 L 140.74088714518703,292.3989222493359 L 142.51020113576288,290.23282952611964 L 144.33313077252845,289.4994673299178 L 146.18286797301033,290.23282952611964 L 147.97898978666626,292.3989222493359 L 152.50950592580344,288.5488015602148 L 152.00015806495253,285.1738407119904 L 149.48022580553956,281.5746187220193 L 147.97898978666626,277.0719501396033 L 150.23084381499825,272.09356792175896 L 155.40474718991265,268.73144262735167 L 161.27565266865133,266.1571054344068 L 165.5380908360932,263.5283364980688 L 163.07177422295095,257.92405831819013 L 163.39346810020697,255.71619541940106 L 165.5380908360932,252.58431323289813 L 168.9158721379585,250.07735239175813 L 172.05652711601715,249.05115674658813 L 172.15961458369117,249.01747324670626 L 174.8135854398363,247.56351174497468 L 176.3148217180879,243.78579469576655 L 180.5504520624128,246.1706711560092 L 185.56350849869932,247.20341412843464 L 209.95859562114862,249.1669443631586 L 209.42243993718077,250.9062214218475 L 208.83266860699374,254.6020487689385 L 208.37693613296142,256.34119722486565 L 212.8806444489816,256.06945814464825 L 218.32262553618338,266.1571054344068 L 223.3892973592663,264.42498130593896 L 227.81258220597252,262.07466174740074 L 239.79566357144347,259.54085150057705 L 244.75510436149602,257.15640897118345 L 248.80308046284756,255.8792398233077 L 260.2768137080597,256.6944569497074 L 265.18263885188566,256.34119722486565 L 275.36959840369326,252.24462160975847 L 280.32903893437475,251.22553758163681 L 284.8327475097734,252.58431323289813 L 287.3258716866689,250.9266034241653 L 290.4891906630655,251.38859168148844 L 297.2179454436717,254.54769964320926 L 308.1823305686471,258.78680538163536 L 317.3505943986792,259.5000922635121" fill="none" stroke="#000000" stroke-width="1.616"/>
	<path d="M 153.3941630507806,765.657923182661 L 149.56064927487563,761.7492788932278 L 146.9334859824469,755.3627624453659 L 146.10244450369638,750.0425620916794 L 147.1747561310326,746.6463778736493 L 151.78569548009798,739.570008700289 L 153.3941630507806,736.2544518869962 L 153.71585640929445,733.5870598782205 L 153.63543293995838,728.3398246624575 L 154.25201209326235,725.739726448378 L 154.62732109798065,722.5587213566822 L 152.58992939513956,710.3536574401086 L 152.26823577724724,690.04634086712 L 151.78569548009798,661.4687911793791 L 151.494398964407,642.200756040173 L 154.76156964944525,640.9945708452608 L 169.4522374702467,638.0875967799561 L 180.40321874092982,638.4188614850558 L 193.0028792590855,639.9196781152 L 204.03428383373472,642.4547802597821 L 220.41384243736596,644.2597265867884 L 233.45583124396148,641.0959749699582 L 244.4738322845089,635.6132096788928 L 253.01211257016308,628.6696632932317 L 262.1133564500841,623.4295079851537 L 271.844583460899,619.7781094582072 L 345.49898117471446,622.1109658406955 L 347.7240275505705,627.4120556056426 L 347.4827574054053,628.6290952864097 L 347.16106395628896,629.8258340637466 L 346.7991589718301,630.1706537544055 L 346.62490812999613,630.2923543034993 L 344.41326575478996,634.2542937297662 L 346.7053316672289,647.0650910686093 L 346.7053316672289,652.1550684706992 L 344.6947474352827,659.58331739305 L 342.4831048267951,673.3633986002469 L 342.2820464502537,677.8503987197772 L 342.56352836402783,681.2560368126956 L 347.5631807093716,695.762268613739 L 348.0859325350292,696.9445503174084 L 351.5039254027646,702.3760819507692 L 356.8118676631377,708.0166759613363 L 361.12792157489145,711.8466662743126 L 363.4601990226874,716.4937638588759 L 363.5004105580299,720.2085612126338 L 353.2732394895606,787.2909510812793 L 352.30815914219653,790.7328177542028 L 351.22244372225725,792.2175037284047 L 349.69439978062627,793.6751714501298 L 348.68910789791977,794.4242414996922 L 347.5631807093716,795.0518358906639 L 346.2227913769135,795.4769775614816 L 344.77517073924884,795.7604046119628 L 335.0037319598248,795.5174674970453 L 328.9183641945419,795.9223625572977 L 324.69613758738944,796.6511690995994 L 323.44957555951777,797.0965480215353 L 321.5194146315378,798.2302298759714 L 319.10671387977544,800.031944374922 L 315.3134117936797,811.3205178164029 L 314.0668497658229,820.1115350011299 L 313.9462146932476,834.9996680858897 L 314.71023666405574,843.2623052759745 L 315.8361636193374,848.8534944284996 L 316.3589154450098,850.2090870776537 L 317.64568924147574,852.4616196440379 L 319.1871371837416,854.4848053539175 L 320.79560442933877,856.244940188776 L 322.0421664571956,857.3374208978679 L 324.0125391537993,858.638939847048 L 331.6527586287019,862.2601668289757 L 332.5106079040964,862.9479813924914 L 333.35505317888544,863.9392348899702 L 334.4809801341671,865.9621679554339 L 334.8428853519073,867.7895122844723 L 334.7624618146745,869.5089366009981 L 334.40055683020086,870.9855926139062 L 332.2291259903372,876.3526009941236 L 330.6072547441051,882.6294484344645 L 329.28026941228217,891.5551902478803 L 329.28026941228217,891.5956376022043 L 328.75751758662426,894.5280005603656 L 328.1945539923427,907.4225646902104 L 328.5564589768164,911.6552075398406 L 329.72259793397365,917.0198759213554 L 330.5670432087627,919.1831796464351 L 331.53212355611214,921.0431767418255 L 333.1137830337203,923.1255211737572 L 334.8830968872496,925.0528283376651 L 336.933892887805,926.7105505836544 L 339.3063821042247,928.226734326794 L 344.4936890587413,930.7132233827049 L 370.41681983073346,937.9566882258357 L 372.02528730959705,938.623732907294 L 372.81611704840844,939.1088530731731 L 374.34416099003937,940.6922155182006 L 372.14592238217216,949.888671667816 L 370.2157616874587,957.9592639183072 L 372.62846267248756,961.0849202226739 L 374.505007597957,964.6550491801593 L 378.7540419731128,987.9384787510611 L 375.2690295687798,1010.2804720274739 L 377.1455747275159,1016.5687087859873 L 378.59319536519536,1018.0632839560915 L 376.58261113324915,1021.1870078099704 L 372.90994435299496,1023.9673076849997 L 370.65808997588357,1025.4011847444563 L 367.56179055727944,1026.8754310871877 L 363.138505573571,1028.1342451919948 L 357.012926039679,1028.3563870556995 L 355.44467056269104,1028.2150238536697 L 353.8764148524511,1027.8919078737679 L 346.7053316672289,1025.2800128078156 L 343.609032015358,1024.7347374869441 L 337.2957978722785,1024.7549328534794 L 335.88838923648933,1024.492391829008 L 334.64182697536603,1023.9673076849997 L 331.6527586287019,1021.5236096775536 L 330.52683144013895,1020.8975287736041 L 322.92682373386015,1018.6085964141255 L 320.4739109802221,1017.3361962129685 L 318.22205683637753,1015.8416099960797 L 316.3187039096528,1014.0440369393411 L 312.45838228695914,1009.0483616049553 L 311.5335137082188,1008.1798151366734 L 310.4075865196706,1007.432455047605 L 309.161024491799,1006.9476778363447 L 307.63298078343473,1006.7052885652296 L 299.7380869294802,1006.7860850556011 L 298.1296196838831,1006.5638944880774 L 296.6819990462184,1006.1599099841252 L 295.3148019457716,1005.6145285992036 L 294.10845145327204,1004.9277477347649 L 293.06294780194173,1004.1736295433294 L 286.0527114579184,996.6321289245654 L 284.08233876132925,995.0160170387909 L 281.87069638610836,993.6220993374259 L 279.0960901833392,992.4705869004414 L 277.48762293774223,992.0665442937685 L 274.35111175051435,992.3089701528544 L 270.07526960736976,993.0362438720293 L 247.5433239351391,999.0629796867457 L 244.6748904277836,999.3457893351346 L 243.30769332733684,999.3053881408945 L 238.4018680533277,999.7498019984428 L 224.4752224366009,999.2447860837935 L 219.77969360895608,998.9096858652523 L 219.34132125791476,964.0149196908017 L 219.01962789939347,939.8363191027397 L 218.64431889467517,911.3651883244459 L 218.21539424375982,878.7188993726021 L 216.82138925793174,871.5989627607049 L 214.757189731959,865.3146235256753 L 209.42243993718077,855.9614918515282 L 193.31095926043005,839.0667919145282 L 172.58853923461388,817.3857282766173 L 171.26036698810995,815.3443007052853 L 166.34232449174897,807.784767556339 L 162.5892341851875,797.3730109181479 L 160.81992019461902,770.9029310658395 L 157.84425572058166,763.4909757522485 L 153.3941630507806,765.657923182661" fill="none" stroke="#000000" stroke-width="1.616"/>
	<path d="M 223.94207179182135,1272.7584450604543 L 223.83923888909592,1250.3836105103424 L 228.9387189556518,1250.84161717858 L 281.38815609579297,1247.7986863684093 L 292.9825244979756,1250.216916325012 L 307.1504404931193,1256.107771032839 L 316.8414559685771,1264.6781672962863 L 326.6665098174453,1271.4144624732942 L 338.94447688648455,1273.4695219161397 L 352.62985282457953,1273.1270144929972 L 367.72263716519706,1274.476889954626 L 386.0323564635419,1280.245576337733 L 432.5572724463323,1301.4374030734286 L 433.96468154865477,1306.298336132247 L 433.96468154865477,1317.905990743949 L 434.8627423594063,1320.2354349484328 L 436.3103629970711,1322.1620572417924 L 437.48990572159676,1324.659233853793 L 437.5167132563189,1328.7136724537186 L 438.36115876437447,1331.7745445500777 L 442.42253853034276,1347.1313707196225 L 446.3632834570026,1355.721710479779 L 458.6412502927752,1364.0631267469682 L 460.129082465797,1365.7541534291556 L 460.2497175383723,1367.2035855191216 L 459.92802408925576,1371.5786137449384 L 465.6916984054075,1400.488623320372 L 466.9382606665457,1412.0466266308852 L 466.9382606665457,1412.066750022786 L 466.8578373625796,1412.2076127373032 L 466.6567787527716,1412.5899528208056 L 466.0536036231478,1413.3546300215457 L 464.9276764345994,1413.9247805767866 L 463.3996324929686,1414.1863779655212 L 461.4962797995104,1414.2266240260728 L 456.55024275686276,1413.8644117955766 L 440.4521660670055,1413.763797248214 L 433.20065934456534,1414.4882209886282 L 429.01864450602193,1416.6815885328137 L 424.7964178988546,1422.4029366543768 L 421.9413883921341,1427.4533260728958 L 421.4990601036945,1432.7114082767134 L 343.4481854074258,1433.0333244812725 L 341.63865955202095,1431.4639758805404 L 337.336009407621,1433.8381107776866 L 334.6016152067423,1434.951389513085 L 332.91272465717907,1434.763607946512 L 330.6474665127287,1433.8381107776866 L 321.8008963120452,1427.2923608734786 L 320.39348767625614,1425.9845095511587 L 319.8305240819746,1424.8174919423668 L 318.62417358946016,1420.223088147556 L 315.11235341713825,1414.9510449657741 L 310.93033857859484,1412.7777687592536 L 306.7081119714278,1406.8345955400162 L 301.2661308711258,1398.5297558815844 L 297.1243278011766,1395.3901336792514 L 295.63649562816954,1394.7259720241454 L 293.86718154137355,1393.4378906298698 L 290.65024681691284,1388.0170607407215 L 288.1839302959065,1376.7116820890687 L 284.8061489635283,1364.5865421447854 L 280.8251925015114,1357.674581528114 L 277.527834706366,1355.6009132192662 L 276.5627541257353,1353.9835603353315 L 275.3161920978785,1351.1044821351882 L 265.2900794059357,1338.2249296479781 L 261.2689111753099,1335.2246395942675 L 259.20471164065276,1332.727693702382 L 258.1994195246797,1330.667001534992 L 257.7973025383305,1325.7466968081105 L 257.3147624812964,1323.9745293372434 L 255.8269303082746,1321.8196982331121 L 254.90206172953418,1319.8058002774312 L 253.41422932324565,1313.1328306046785 L 239.80927692238345,1284.3016098963515 L 237.83890469231284,1281.091714709176 L 232.32990405539846,1274.4634585654915 L 223.94207179182135,1272.7584450604543" fill="none" stroke="#000000" stroke-width="1.616"/>
	<path d="M 219.85066937817356,1414.3203212075755 L 224.56884001964036,1412.9251284654242 L 224.381185776667,1374.7924690256607 L 224.22033883803903,1337.0903912491315 L 224.05949189941103,1298.3016458419352 L 223.94207179182135,1272.7584450604543 L 232.32990405539846,1274.4634585654915 L 237.83890469231284,1281.091714709176 L 239.80927692238345,1284.3016098963515 L 253.41422932324565,1313.1328306046785 L 254.90206172953418,1319.8058002774312 L 255.8269303082746,1321.8196982331121 L 257.3147624812964,1323.9745293372434 L 257.7973025383305,1325.7466968081105 L 258.1994195246797,1330.667001534992 L 259.20471164065276,1332.727693702382 L 261.2689111753099,1335.2246395942675 L 265.2900794059357,1338.2249296479781 L 275.3161920978785,1351.1044821351882 L 276.5627541257353,1353.9835603353315 L 277.527834706366,1355.6009132192662 L 280.8251925015114,1357.674581528114 L 284.8061489635283,1364.5865421447854 L 288.1839302959065,1376.7116820890687 L 290.65024681691284,1388.0170607407215 L 293.86718154137355,1393.4378906298698 L 295.63649562816954,1394.7259720241454 L 297.1243278011766,1395.3901336792514 L 301.2661308711258,1398.5297558815844 L 306.7081119714278,1406.8345955400162 L 310.93033857859484,1412.7777687592536 L 315.11235341713825,1414.9510449657741 L 318.62417358946016,1420.223088147556 L 319.8305240819746,1424.8174919423668 L 320.39348767625614,1425.9845095511587 L 321.8008963120452,1427.2923608734786 L 330.6474665127287,1433.8381107776866 L 332.91272465717907,1434.763607946512 L 334.6016152067423,1434.951389513085 L 337.336009407621,1433.8381107776866 L 341.63865955202095,1431.4639758805404 L 343.4481854074258,1433.0333244812725 L 345.82067439056436,1439.3775770572042 L 344.57411236270747,1443.3274782045833 L 342.9656451171105,1446.3652603614987 L 338.8640535825183,1456.8125081661053 L 337.69791462536114,1459.092276976677 L 335.56669555410633,1461.5664484018173 L 331.8270092372545,1468.0701308165067 L 330.8887366578791,1470.6648033201009 L 330.52683144013895,1472.883975921628 L 331.0093714971876,1476.1020407422443 L 331.2506416423528,1481.1971392179646 L 327.7924372392602,1488.2628910096114 L 311.97584222991037,1480.3524400212777 L 303.97371753728237,1478.0931764995696 L 295.3148019457716,1477.7512666481284 L 281.1870977192516,1480.815014307835 L 264.80753911562033,1486.8149137629305 L 240.412452285274,1492.5463917877955 L 234.74260504042732,1492.4458417094495 L 230.35953159207597,1491.9028703093293 L 216.1916155969322,1485.1389932402094 L 215.10519445799034,1484.6383732177378 L 217.14308261642353,1481.9142493898912 L 218.1885866800287,1477.8985480377416 L 216.66054257866008,1471.6367439371109 L 214.67676626264497,1466.3266998779518 L 213.55083924846792,1461.8545539539525 L 213.38999230983995,1457.4224763616362 L 215.34696106214602,1446.525990834357 L 214.810805378156,1442.918201665353 L 212.47852762115375,1440.115049996658 L 208.6313392694382,1437.2459600516943 L 208.21608945371187,1436.9362779296448 L 205.29404036649308,1432.6307199129171 L 200.25417636650502,1414.186168616321 L 219.85066937817356,1414.3203212075755" fill="none" stroke="#000000" stroke-width="1.616"/>
	<path d="M 227.46408102436376,1523.0828440102612 L 225.02457249367268,1522.8013717604863 L 222.98718053145316,1521.5950560675892 L 220.8157497130789,1519.859282033296 L 218.7783580102157,1517.8084911542473 L 217.22350634511596,1515.6772416225226 L 216.39246460698686,1513.0231832317124 L 216.5533112862365,1510.6304615794431 L 217.00904376026872,1508.458876377739 L 216.95542837344277,1506.4414139487628 L 214.1138027555675,1501.2468013883245 L 210.76282927681177,1498.5321122471655 L 209.10074657866687,1495.6162692096673 L 211.24536957395372,1489.797787062794 L 215.10519445799034,1484.6383732177378 L 216.1916155969322,1485.1389932402094 L 230.35953159207597,1491.9028703093293 L 234.74260504042732,1492.4458417094495 L 240.412452285274,1492.5463917877955 L 264.80753911562033,1486.8149137629305 L 281.1870977192516,1480.815014307835 L 295.3148019457716,1477.7512666481284 L 303.97371753728237,1478.0931764995696 L 311.97584222991037,1480.3524400212777 L 327.7924372392602,1488.2628910096114 L 326.3850281369379,1494.966270115532 L 326.6665098174453,1499.6919370253863 L 326.18396999366314,1502.4937375402367 L 325.5807946307726,1504.2431552432656 L 323.44957555951777,1506.3745973840837 L 322.1225899944283,1508.0703417143723 L 320.15221753110575,1511.247287046758 L 319.347983791674,1513.4389306859025 L 319.02629034254267,1515.8584077679716 L 319.3077722563167,1522.8820020851292 L 320.1924292997148,1537.551219100441 L 319.91094738594074,1542.8783630995829 L 319.1871371837416,1545.9807364492924 L 317.7395165460769,1549.6994658446774 L 312.0562655338765,1564.3254327816153 L 310.72927996878695,1569.738567216872 L 311.5335137082188,1577.7439680184652 L 315.51447040348756,1583.4981769188264 L 317.7395165460769,1590.2568749576494 L 318.62417358946016,1594.9187688592876 L 318.47673074889616,1597.1558840483958 L 318.4754866823358,1597.1747591595552 L 291.71337593710024,1600.2111430961652 L 223.0052264582931,1616.0 L 221.1374430715707,1610.5909717747084 L 226.49900068945846,1607.7580180578004 L 259.8210812340274,1599.8950848006402 L 265.20944667502476,1599.5735919949882 L 260.3304290949004,1580.5505579227754 L 255.2905650948902,1561.0825951953557 L 248.6154259605105,1550.3826871360495 L 246.3903794959097,1548.721006267329 L 240.81435955255327,1545.8599176550574 L 239.0986612082039,1544.4595022235894 L 238.53569770112642,1542.194683284823 L 239.17908467751792,1536.632976558087 L 238.8573910596182,1534.0262621271652 L 237.2221161846124,1531.8148692640261 L 232.90606211156557,1528.2698596844643 L 232.23586757144295,1526.4671608558062 L 231.88736638981945,1523.498349070304 L 230.01082110686428,1522.8415822682082 L 227.46408102436376,1523.0828440102612" fill="none" stroke="#000000" stroke-width="1.616"/>
	<path d="M 415.00277728760017,1584.243787985271 L 401.2875708895096,1585.5174946385298 L 380.49570388715813,1590.1377833705078 L 318.4754866823358,1597.1747591595552 L 318.47673074889616,1597.1558840483958 L 318.62417358946016,1594.9187688592876 L 317.7395165460769,1590.2568749576494 L 315.51447040348756,1583.4981769188264 L 311.5335137082188,1577.7439680184652 L 310.72927996878695,1569.738567216872 L 312.0562655338765,1564.3254327816153 L 317.7395165460769,1549.6994658446774 L 319.1871371837416,1545.9807364492924 L 319.91094738594074,1542.8783630995829 L 320.1924292997148,1537.551219100441 L 319.3077722563167,1522.8820020851292 L 319.02629034254267,1515.8584077679716 L 319.347983791674,1513.4389306859025 L 320.15221753110575,1511.247287046758 L 322.1225899944283,1508.0703417143723 L 323.44957555951777,1506.3745973840837 L 325.5807946307726,1504.2431552432656 L 326.18396999366314,1502.4937375402367 L 326.6665098174453,1499.6919370253863 L 326.3850281369379,1494.966270115532 L 327.7924372392602,1488.2628910096114 L 331.2506416423528,1481.1971392179646 L 331.0093714971876,1476.1020407422443 L 330.52683144013895,1472.883975921628 L 330.8887366578791,1470.6648033201009 L 331.8270092372545,1468.0701308165067 L 335.56669555410633,1461.5664484018173 L 337.69791462536114,1459.092276976677 L 338.8640535825183,1456.8125081661053 L 342.9656451171105,1446.3652603614987 L 344.57411236270747,1443.3274782045833 L 345.82067439056436,1439.3775770572042 L 343.4481854074258,1433.0333244812725 L 421.4990601036945,1432.7114082767134 L 430.3858416064538,1447.1297234492072 L 432.95938919941494,1457.704305157856 L 433.77702693946713,1472.6627309928833 L 434.8225308240641,1500.4962879601123 L 435.1040125045567,1508.2714163160708 L 436.95374966205213,1531.8954936875261 L 439.8087791687726,1536.9682352642371 L 441.25639980643746,1537.309984666367 L 442.7844435148163,1537.8929671838882 L 443.91037093663135,1538.4960494480742 L 446.96645858662646,1540.6470202496498 L 448.09238577517465,1552.4599670280995 L 447.04688212385923,1558.811576186612 L 442.94529058926713,1568.8341606622243 L 430.70753528885166,1570.3415013697645 L 425.1985346519373,1571.8689224115822 L 420.6144028270298,1574.8299247412385 L 417.3840645684822,1577.904741293063 L 415.00277728760017,1584.243787985271" fill="none" stroke="#000000" stroke-width="1.616"/>
	<path d="M 447.19167249056187,1581.2544146588004 L 415.00277728760017,1584.243787985271 L 417.3840645684822,1577.904741293063 L 420.6144028270298,1574.8299247412385 L 425.1985346519373,1571.8689224115822 L 430.70753528885166,1570.3415013697645 L 442.94529058926713,1568.8341606622243 L 442.10207230003147,1574.1952478821095 L 444.0630060721022,1575.8613121902688 L 445.33761288398017,1576.0573185170902 L 446.61221992913937,1576.8413402007218 L 447.19167249056187,1581.2544146588004" fill="none" stroke="#000000" stroke-width="1.616"/>
</svg>
