<?xml version="1.0" ?>
<svg xmlns="http://www.w3.org/2000/svg" xmlns:ev="http://www.w3.org/2001/xml-events" xmlns:xlink="http://www.w3.org/1999/xlink" baseProfile="full" height="457px" version="1.1" viewBox="-80.26246223004422 -61.19931573248779 959.1563894356527 730.3986314649756" width="600px">
	<defs/>
	<path d="M 672.8093378943463,86.93439215300563 L 673.1794136651955,100.31908199866649 L 678.5732458456558,105.772092651361 L 686.3912719087751,109.45774075203259 L 693.9668794045355,114.57831631714917 L 708.6938592644365,135.40733879762288 L 746.9961277699604,245.77228781010436 L 749.5415321090511,259.6337265300779 L 748.6324586700496,269.75016683043555 L 743.905280188509,292.8509561571817 L 743.6022555133603,315.8447782661485 L 746.8749184863495,340.49794460083615 L 754.5717346793152,363.4589673815883 L 768.0866175979553,381.37706475228396 L 788.6922685321334,400.6679960114827 L 797.176948294104,413.16588482271317 L 798.6314649755643,425.2709852150327 L 790.1467852136036,434.49297472317465 L 777.2985559938146,434.00999536197986 L 763.7230681401761,428.1085414025396 L 753.1172185843683,421.05989755527037 L 747.9658055575941,419.15810274634714 L 736.6933028892817,419.6109121215288 L 730.5722120749326,417.02989406514786 L 721.4208786141502,409.3773116544835 L 716.511885327497,407.6264060736746 L 698.9970819747898,409.3773116544835 L 686.754901518834,406.75095092219755 L 653.3616262999633,394.41891498140535 L 645.604204585584,389.24146903448514 L 640.9376304525971,380.95440559050303 L 633.9074673720477,323.37826320105574 L 627.0591185102056,300.3546610357958 L 607.9079842574387,254.84720407585485 L 602.8171761657119,232.18218367969675 L 600.4535872180708,184.64342187097967 L 604.5590117122671,138.30472966427183 L 615.3063056208122,149.30375493557432 L 626.0433864136863,142.45360287057275 L 637.6394338106359,129.537886306088 L 650.7625322968279,122.6160286738872 L 663.4561474809038,119.95191300158072 L 663.8379105464393,113.12503379225636 L 658.8272728039906,103.96683676340768 L 655.3914069737411,94.21371320301267 L 656.6798568800112,89.71767864898169 L 660.4974851893415,87.43395826701534 L 665.9853264704185,86.74408175009509 L 672.6184563615786,86.93439215303016 L 672.8093378943463,86.93439215300563" fill="none" stroke="#000000" stroke-width="0.7986314649755644"/>
	<path d="M 576.3664928779664,98.30529741941378 L 562.9997860437195,111.61775532445171 L 561.1210354035388,120.60510206965581 L 560.6361970961078,130.3776621139601 L 556.818090880758,139.30416111536059 L 547.4849432012387,145.02849251620256 L 537.1821177341545,145.27015083873056 L 526.394453373283,143.45770774998806 L 515.6673939473608,142.88376583108393 L 502.51614005251133,146.47844197565132 L 491.9102904966446,153.10887072647813 L 473.0015759840478,171.08145559423437 L 463.06237954066603,177.31880954569112 L 441.54765575390167,186.304654930622 L 436.50830025688145,190.94431013580902 L 436.4270186320248,190.7451169539132 L 432.3967958388729,180.8683370899903 L 436.82095069075905,162.03532542575704 L 438.76030567880656,149.18245087259524 L 443.8814155868356,137.4015386650222 L 446.15409835050764,122.44833210355462 L 447.3964977551124,106.42208726553501 L 446.471676399896,92.64367513337793 L 545.1096581632121,33.12021668281524 L 620.9850284346569,1.8083632143227346 L 635.6828988329796,0.0 L 646.7540218683441,4.282951365348094 L 647.6129884724979,11.896965674045255 L 639.0710444266482,17.892893166152923 L 620.7464266653084,26.053863418966674 L 615.8789502190467,33.92915072403479 L 606.1439967401374,57.17337981808516 L 604.4260641182154,64.16778292426615 L 600.4652739263025,72.18501909916537 L 582.2360972245788,89.00401697261609 L 576.3664928779664,98.30529741941378" fill="none" stroke="#000000" stroke-width="0.7986314649755644"/>
	<path d="M 436.50830025688145,190.94431013580902 L 435.7901945496801,191.6054544516232 L 435.42656493955263,201.25544617169746 L 439.7901149837275,212.09819571119417 L 451.12322317344365,233.66201694426903 L 454.51709425727205,245.74208775098364 L 456.51705476750834,258.69756536421374 L 459.36548319531283,326.986437070068 L 462.8805647355925,348.36310337580295 L 473.3652044213349,364.6515178008585 L 484.8801268297584,368.8178706451295 L 493.5466219831196,367.3988996415816 L 497.9101714409479,370.25193157663415 L 496.5768646296413,386.9772596386116 L 491.1830318628246,409.1056198022799 L 486.8194824049669,418.88641701192444 L 480.51657737193995,428.8330206048723 L 466.39719770198906,442.39589267371764 L 466.2143053643472,442.2965168760376 L 464.8809984804831,441.57205921413725 L 445.27532728109935,430.8408982688619 L 434.33615082692035,415.6266474883813 L 429.7604847399945,397.78544869438264 L 420.57884884260505,380.72845230501974 L 409.2760435259101,366.8257441368357 L 395.0642046724412,353.1037341754257 L 382.428092471892,337.28286757933313 L 368.94351187076467,323.9222276264775 L 350.6711480826233,312.64460990405644 L 347.1560664416561,298.04515353176083 L 349.9135871613633,280.2744917917289 L 342.27737577531417,268.40682727841204 L 328.7624925053567,267.6065779659483 L 317.9748283408465,266.2023636353169 L 310.39922123789717,256.35762646815317 L 301.39940029907535,247.20724393834993 L 295.6116364218144,233.82859213297078 L 290.64461755207185,219.77725842456485 L 311.0890186406898,212.448014570783 L 323.4008713456848,200.39073022200455 L 332.4200189301628,183.48138289040463 L 353.6078585098935,162.0761154874577 L 424.4725910389682,105.91743220413841 L 446.471676399896,92.64367513337793 L 447.3964977551124,106.42208726553501 L 446.15409835050764,122.44833210355462 L 443.8814155868356,137.4015386650222 L 438.76030567880656,149.18245087259524 L 436.82095069075905,162.03532542575704 L 432.3967958388729,180.8683370899903 L 436.4270186320248,190.7451169539132 L 436.50830025688145,190.94431013580902" fill="none" stroke="#000000" stroke-width="0.7986314649755644"/>
	<path d="M 212.09767257146308,469.47742108240726 L 186.4618178942197,464.4366920559704 L 166.46221572390417,463.03312575968096 L 163.73499716617485,457.690477929441 L 162.70471502988943,448.95193967231535 L 164.58346508368425,445.52590185220043 L 172.76512075689186,438.4171671119695 L 174.7044763320905,432.8025428752158 L 170.7045558980431,406.7207624395243 L 162.70471502988943,394.7208053875978 L 162.70471502988943,378.4335368094788 L 158.15935076695814,362.0701701610595 L 154.70487357538914,355.65447220158137 L 148.52317899881345,348.86127481839 L 146.5838234235461,345.04194076700105 L 146.0383795947309,340.43755886100826 L 144.7050727834341,336.5426653536409 L 140.46273260923633,334.91223380663047 L 131.43260960482664,334.67068818025217 L 127.7963176081154,332.90437978747747 L 123.31155886664682,320.93253749012365 L 116.40260506978672,316.4486694479365 L 101.97864988497561,310.9532245006918 L 82.82751504581309,296.097042479867 L 70.46412471984092,289.68033620971136 L 38.34355137726874,284.7733763116937 L 0.0,266.5943456035145 L 148.31487471263054,271.54016113043633 L 192.26532519792508,263.2416200053849 L 232.77990985289173,240.53271671644399 L 290.64461755207185,219.77725842456485 L 295.6116364218144,233.82859213297078 L 301.39940029907535,247.20724393834993 L 310.39922123789717,256.35762646815317 L 317.9748283408465,266.2023636353169 L 328.7624925053567,267.6065779659483 L 342.27737577531417,268.40682727841204 L 349.9135871613633,280.2744917917289 L 347.1560664416561,298.04515353176083 L 350.6711480826233,312.64460990405644 L 368.94351187076467,323.9222276264775 L 382.428092471892,337.28286757933313 L 395.0642046724412,353.1037341754257 L 409.2760435259101,366.8257441368357 L 420.57884884260505,380.72845230501974 L 429.7604847399945,397.78544869438264 L 434.33615082692035,415.6266474883813 L 445.27532728109935,430.8408982688619 L 464.8809984804831,441.57205921413725 L 466.2143053643472,442.2965168760376 L 466.39719770198906,442.39589267371764 L 462.6987499305287,445.948498754239 L 459.2442733252867,451.33656653397776 L 459.60790293540435,463.31987675856885 L 477.91056927069127,455.9095805833157 L 479.9105291944926,466.0968186965007 L 475.668189020285,476.8271232207658 L 462.2745159717495,496.73258758475953 L 458.15338625401273,508.09596309817056 L 454.8807238674584,532.2101207609206 L 450.3959645395844,540.7659634217756 L 396.4576427350696,592.0071477904378 L 368.82182872041074,608.0 L 344.7010962459235,605.2239212340859 L 341.7920634695261,600.6071455041629 L 337.42851342535124,586.122847704579 L 334.5800855839424,580.1328553465092 L 329.91351145097514,575.6818034167319 L 317.48951619001446,566.9757241544412 L 280.6417643657644,533.085329210933 L 272.27829388759113,521.8885736324066 L 266.5208326833696,510.46518324203174 L 254.3392565761244,473.5371278366538 L 246.94546447177441,465.8251619928011 L 236.0971951758947,465.19129648234775 L 212.09767257146308,469.47742108240726" fill="none" stroke="#000000" stroke-width="0.7986314649755644"/>
</svg>
