<?xml version="1.0" ?>
<svg xmlns="http://www.w3.org/2000/svg" xmlns:ev="http://www.w3.org/2001/xml-events" xmlns:xlink="http://www.w3.org/1999/xlink" baseProfile="full" height="574px" version="1.1" viewBox="-80.4 -76.90098843143669 960.8 918.8118611772402" width="600px">
	<defs/>
	<path d="M 770.3971058275743,697.8364989507178 L 766.4146057175626,699.8104207107749 L 765.2392036308748,701.0358236450027 L 764.1503580815333,701.180962847699 L 763.9281302137631,699.8663616139442 L 764.2521576645523,698.324572011144 L 763.4186606992979,695.9229679756588 L 761.8858088181503,693.5147862592459 L 761.4414808828884,690.96099185319 L 762.615542468456,690.0431238810094 L 765.3451938715673,689.1376960456904 L 767.5391114005082,687.7929141841221 L 769.580527797236,685.3064952739384 L 771.3370687215918,684.0686081845705 L 772.4303480295063,684.7495077812276 L 773.8485787118171,686.580074330133 L 775.0832890074497,687.6735470026322 L 777.4063313149089,688.931088853294 L 779.7220455495387,689.9621053151701 L 780.8096545668998,691.2038461725413 L 780.3176724299168,693.6738569406652 L 778.1239001073262,695.1229234102248 L 773.7621729881394,695.6251146186382 L 771.7221058539844,697.538946334277 L 770.3971058275743,697.8364989507178" fill="none" stroke="#000000" stroke-width="0.8"/>
	<path d="M 694.7567833760314,746.4565279387325 L 694.9784286661004,744.0946051973948 L 693.60494724072,742.4203608890028 L 692.3280816600518,741.0491552425563 L 692.3313439549955,739.7762442347193 L 696.3485524720221,741.7084775679396 L 698.7267835904919,740.8128180926518 L 700.7391195821784,740.0973012361048 L 702.1133312448227,739.014604890718 L 705.7592221181881,737.9110345022052 L 706.5879169936924,735.4781132597053 L 709.1690495166902,733.1706890132001 L 710.231421132548,730.8546451035686 L 712.7989660557657,731.450114688704 L 715.1187456010027,730.1287372401528 L 718.526924913246,730.0983262659774 L 719.7247788459408,730.0577782628615 L 720.9083724166791,729.4799598038375 L 722.1109797254784,728.5777151019525 L 723.8317063147904,726.1241943163006 L 724.8013974935091,725.069686845794 L 725.229202394374,725.6070876985139 L 725.9802378049596,728.1975424141807 L 727.8388125349643,730.4328436882587 L 730.1806642635776,733.526651924625 L 733.2051962422776,734.9395640443785 L 740.540407305006,737.30642338843 L 743.1187978460858,735.6995428982443 L 745.6954905358992,734.4407007567254 L 751.543754667447,732.9724677463065 L 754.2570565127733,729.5088766304514 L 756.6344057625666,724.6462744188101 L 762.3816851255094,715.5256354757307 L 764.1499455926902,713.105860684797 L 766.4030515908219,711.7208125326104 L 768.9223474685961,712.7659502504093 L 769.8064776437775,714.9574993639268 L 769.6781361384692,717.8233610763109 L 767.3632360173302,731.1424057626747 L 766.3834622842201,734.6078364834041 L 758.9462370414802,743.986632366217 L 755.1814752010449,754.9039253154068 L 752.6847731046894,756.3393120640923 L 743.9968662693349,760.0281909212046 L 738.933220752184,759.2492843094794 L 737.4501636690641,759.7047164864763 L 736.3426242328369,760.2613406227583 L 734.0800113656703,761.8703954771986 L 733.281442194026,761.8703954771986 L 733.281442194026,760.9495070754646 L 734.0562444851414,760.2714608785509 L 732.330052155819,758.9245067352144 L 729.8200011214564,758.6148909990266 L 723.7412022206541,762.1050961769863 L 719.7152719769068,761.8703954771986 L 712.8002868144375,763.5106548350102 L 707.637302979477,761.4243462873083 L 700.1598326804124,760.7673478359069 L 698.4771332167677,761.0102263797679 L 696.5849961936067,761.9907135409859 L 696.0946935672673,762.9130895557156 L 695.4134109429305,764.0236972458131 L 694.9858301014258,765.0098843143668 L 694.2262706223256,764.8380383959392 L 692.8543726821479,763.9303021839538 L 691.360821723985,762.1795881153805 L 691.0302950331023,760.8325514567423 L 690.7425198728054,758.687705160405 L 690.6458706177774,755.8838253379079 L 688.5787202208356,752.3331024096798 L 688.1988189308305,751.6565544196586 L 688.5841578074067,750.7724754297909 L 692.0672722423582,750.4089026750161 L 694.0249760668636,749.1530872891309 L 694.7567833760314,746.4565279387325" fill="none" stroke="#000000" stroke-width="0.8"/>
	<path d="M 754.091776053307,583.7106881101101 L 752.0763393277248,583.1689654690755 L 750.954539763176,582.3461278176062 L 751.2207295259938,581.1552437839164 L 753.3645076400593,579.4991140080665 L 752.6942798569054,578.6096454600375 L 752.6467459790298,578.0268653291263 L 753.3645076400593,576.7692202090603 L 753.9111472940243,575.1433477516135 L 753.7067515373882,573.7934505248651 L 753.7305185347359,572.653114027938 L 754.9616461001688,571.6252123838196 L 756.9628225806182,574.2638813295405 L 757.9562806398588,574.8979197424466 L 759.7388012353613,575.1382347168127 L 759.7292944831452,574.8774673030122 L 760.4042756424107,574.309900922006 L 761.3454465644968,573.7218620427869 L 762.144015736141,573.4201647634119 L 762.9711052812377,573.486640973996 L 764.7108453749671,574.064461047505 L 765.6852900466091,574.2025214304849 L 768.5705967022342,575.2762865013214 L 774.583632895782,579.4019903563005 L 777.3643650434525,579.4991140080665 L 776.7939583921475,578.7936772298087 L 775.767226583346,576.7692202090603 L 779.6602515433502,578.7425575045016 L 781.6043873937149,579.2230770221146 L 782.8687885918857,578.5687492308149 L 784.7035964413606,579.9847240734629 L 786.5051306580973,580.7565604093436 L 788.6013748942942,581.0734632838164 L 791.3203129189513,581.145021273978 L 792.0998687029971,581.4925840983295 L 793.012519251629,582.3410169156057 L 794.5478635887232,584.1808487785862 L 795.6601565178817,584.9831585328033 L 797.9560430177853,584.9831585328033 L 798.9685146982681,585.4277345568684 L 800.0,587.7373021013509 L 799.4486069699323,590.2560146176887 L 797.9370293965432,592.309541790532 L 796.1117282992766,593.1421215751053 L 794.0344976843219,592.462780318478 L 788.6013748942942,587.1446106272556 L 786.234187519175,585.3970744605272 L 784.3661059201373,584.3546004863138 L 782.3126421857124,583.8486713787984 L 779.3512812787594,583.7106881101101 L 778.0345927097904,583.8640027432675 L 776.2900992399555,584.5079094115075 L 775.3679419391135,584.6458863200907 L 773.9894593639541,584.3699314023073 L 773.2289172011524,583.7566826553415 L 772.629990293213,583.1434120346954 L 771.707832992372,582.8521010170989 L 769.1885371145969,583.3836122742055 L 764.5587369891368,585.810980612208 L 761.7352243397003,586.3628399561903 L 760.499343398157,586.092022341858 L 759.719787730937,585.5043844972396 L 759.1398743274218,584.9218368356492 L 758.51242716285,584.6458863200907 L 754.091776053307,583.7106881101101" fill="none" stroke="#000000" stroke-width="0.8"/>
	<path d="M 715.5896971152328,555.5147698162968 L 714.8307582969168,555.7024794750873 L 709.9002348800612,554.1888016915007 L 707.7185963414307,553.5269662663869 L 705.3467124811931,553.1480746602612 L 705.0622878143862,552.4876428276214 L 707.1501915051384,552.2061076148235 L 709.1430239355728,551.9247630553779 L 711.7989419358031,552.5874259421611 L 714.4535431492134,553.8161955708815 L 715.5896971152328,555.5147698162968" fill="none" stroke="#000000" stroke-width="0.8"/>
	<path d="M 654.0281994726647,546.7219996712121 L 653.2819174381827,545.9025364678979 L 651.6324917240931,543.2799900482571 L 655.4969964274717,544.4017926602481 L 656.4191537283127,544.9242508107723 L 656.8089316203351,543.5258708988206 L 657.6740482910933,542.4501159983071 L 658.719793721138,541.958319740216 L 659.6799781476483,542.3476596244445 L 660.388232939646,541.8199994638129 L 660.7067099564449,541.6406938438897 L 661.2010623564288,541.5689709672912 L 661.2010623564288,540.6263003223728 L 660.2456313060239,540.3598840001348 L 659.8511000378969,540.0934633878247 L 659.5373765140263,539.6425883936967 L 658.8148614768843,538.8330327905777 L 664.8421577987449,538.8996433238688 L 667.7227110782663,538.4384886223562 L 670.8504404993703,537.1830600662928 L 670.974028628568,537.6698699179443 L 671.0263158825492,538.0746801048965 L 671.192684513517,538.464108711473 L 671.6490097878344,538.8330327905777 L 668.8920446375166,543.710279243001 L 667.5801094446454,544.9242508107723 L 667.5230688145673,543.6590549168512 L 667.1142774181187,542.6550268997879 L 666.3489818792126,541.9480738602695 L 665.2652093235064,541.5689709672912 L 665.6692473438416,543.2799900482571 L 666.6341851464556,544.9242508107723 L 667.9033398375548,545.7232737408947 L 669.2533020392628,544.9242508107723 L 670.0423645755178,546.7680933139285 L 671.1118768860864,556.1685975602422 L 671.7535842957958,558.0982367686695 L 673.2461482479418,561.3274655006213 L 671.2402183913946,561.8135883589084 L 670.3988687179764,563.942132591703 L 669.9853239454319,566.6996379304579 L 669.2533020392628,569.0475174714875 L 668.1124888534719,570.5000755800032 L 666.4297895066451,572.192867068811 L 664.6520222872541,573.6093653995058 L 663.2355125864293,574.2025214304849 L 661.8950570201125,575.3223035172223 L 658.0162921884221,582.8521010170989 L 651.917695108155,587.8905810643363 L 650.8386759285524,588.4321559186355 L 649.6027949870161,588.5241197944814 L 642.5012328616565,591.4258397710917 L 639.5826524564754,592.059249270411 L 637.7953784848704,593.6886399344424 L 634.8767980796874,598.3614357419996 L 633.9356272744212,599.3928562549371 L 630.845924862159,602.098767752196 L 629.6670845507084,602.6501093933979 L 627.0194472844497,603.0584994550987 L 624.9374631765726,604.1662089550662 L 621.1727797218698,607.7849165106411 L 621.0254247121431,606.6519182544225 L 621.1727797218698,602.2212896962366 L 621.7004057545917,600.9858211121758 L 622.9267799439198,600.6386488962437 L 627.532813188851,601.011348268386 L 628.5167646127072,600.5518547280657 L 632.0437786780358,597.4269771804634 L 632.1388464337881,596.6252430752901 L 630.8982121161412,595.7111190826555 L 630.8982121161412,594.9399490251297 L 633.1845918638278,593.4792284189733 L 634.0116814089234,593.1421215751053 L 633.3271934974498,592.9378112392513 L 632.7948140886302,592.7079591721882 L 632.4430633222673,592.2533540035886 L 632.347995566523,591.4258397710917 L 634.696169320399,590.5063332980217 L 638.1281156299891,588.4117194912795 L 640.8280402670458,588.0029848753793 L 641.4554874316119,587.5942404866289 L 642.7341488749203,585.8263102376842 L 644.2790000810485,584.7378703143843 L 644.1554119518507,583.1587441500906 L 643.7085935465673,581.4261387216515 L 643.7323604270892,580.2863065829491 L 645.8856452933709,579.4173257920063 L 649.0799222135868,579.0799449446008 L 651.9699823621353,578.3744909131368 L 653.2296301842025,576.3806608697773 L 653.7144758319694,573.3434612891955 L 655.0549312814691,571.8809150135643 L 657.1083950158929,571.2876790491495 L 659.6799781476483,570.8427386644128 L 664.3097782731083,569.1242402086855 L 667.5230688145673,566.1727277750163 L 668.6163481224818,562.1001385553265 L 666.8575944075102,557.0336351700003 L 663.6395504899466,554.6585160554208 L 655.3353811726075,554.5151793601564 L 651.6324917240931,552.6619328316189 L 649.8784915020499,550.9825747660695 L 650.0781337657568,550.5115056438484 L 651.4898900904722,548.2379029149054 L 652.259939005484,547.5106958301553 L 653.1107955479263,547.0292881893248 L 654.0281994726647,546.7219996712121" fill="none" stroke="#000000" stroke-width="0.8"/>
	<path d="M 698.1321302819157,553.8053731456272 L 699.5565845108479,552.7680863067127 L 700.9804884041979,553.7118335340073 L 699.3656312644622,556.8239433234421 L 697.2769037642075,557.2009838964732 L 698.1321302819157,553.8053731456272" fill="none" stroke="#000000" stroke-width="0.8"/>
	<path d="M 620.3789638095121,544.9242508107723 L 619.7752835254682,548.4581073384568 L 616.4336515955257,553.6500146835864 L 612.0890547373107,558.579333175122 L 608.4859864206463,561.3274655006213 L 609.5222250984827,555.9280172100649 L 612.9161442824054,552.3342661054619 L 617.0801123813397,549.1391869886045 L 620.3789638095121,544.9242508107723" fill="none" stroke="#000000" stroke-width="0.8"/>
	<path d="M 620.017706407765,537.1830600662928 L 612.4122851302134,525.926180674538 L 612.8495967832876,525.5210810494274 L 613.0397324116032,525.1057157176613 L 613.1252932983224,524.6749556509826 L 613.2774018009715,524.2134148202259 L 614.5608166203835,524.1364902110174 L 616.5097058468538,523.4595379437009 L 617.2654945167279,523.3415814293479 L 618.6629907131295,523.7416046945638 L 621.9761022696196,525.926180674538 L 623.1454358288629,526.2338448029607 L 625.6837452110624,526.4594616935804 L 626.8340651490616,526.7876263266866 L 630.0996428276761,529.4537284367048 L 630.4561469701445,530.5303048990762 L 630.5892418515504,532.7498876993405 L 630.8982121161412,533.6724927785298 L 631.3117568886925,533.7903775451218 L 632.7377733417264,533.6058617873089 L 633.213112237285,533.6724927785298 L 633.4602883788616,534.041520720822 L 634.0116814089234,535.4714286269431 L 636.2933077805075,536.2555206743696 L 640.4857962528932,536.5476241683627 L 642.933791255445,537.1830600662928 L 642.0639212085832,535.4714286269431 L 644.6592712208617,536.101779999858 L 651.6324917240931,538.8330327905777 L 642.933791255445,546.7219996712121 L 642.5345066112125,545.6976645543376 L 642.4774659811277,545.4210834962429 L 641.265351920121,544.9242508107723 L 641.3699264280757,542.8496900014221 L 639.2261483140101,543.2390095410173 L 636.1887332725528,544.1712912591751 L 627.5613335623013,541.927581956002 L 626.358726253503,540.9336986264032 L 624.4478642695191,538.8330327905777 L 623.8014033668862,540.3086494838706 L 622.4039072873026,541.5587248534043 L 621.015917843117,542.2349569275206 L 620.3789638095121,541.958319740216 L 621.0539449687776,539.23269170623 L 621.0349314643533,537.7979753812043 L 620.017706407765,537.1830600662928" fill="none" stroke="#000000" stroke-width="0.8"/>
	<path d="M 692.5258910294093,492.25954895103774 L 682.1207240997699,494.3505947642242 L 677.2009673309612,494.2478467630819 L 674.9098340903442,490.4560052243979 L 683.6845889271392,491.31926405898315 L 690.2442646578263,490.6255774893449 L 692.5258910294093,491.31926405898315 L 692.5258910294093,492.25954895103774" fill="none" stroke="#000000" stroke-width="0.8"/>
	<path d="M 460.3609010270421,445.4843051525213 L 464.2824463604996,445.78314601381965 L 469.3067777540866,447.2051423794729 L 473.6513746123095,449.5078988427452 L 475.5147028352367,452.39748242057925 L 471.31270761064167,451.03774116022066 L 466.39770410111385,450.04876834642636 L 462.2575028827092,448.51883462665876 L 460.3609010270421,445.4843051525213" fill="none" stroke="#000000" stroke-width="0.8"/>
	<path d="M 443.4626056321906,435.4545430640156 L 445.29266022238556,439.392956556805 L 449.6847909584714,442.5368264042237 L 459.4862776040708,446.34989828069 L 457.81308489263444,448.13246546391076 L 455.1416806290349,447.40606677766857 L 449.9129535956296,444.53622252977965 L 443.9807250295163,444.0827724954351 L 441.7656460402332,442.93878639175074 L 442.73533733576875,440.2949476722781 L 440.56779222435637,438.7795743367207 L 438.35746672798894,436.7382392720873 L 436.33252325019856,435.59374389421356 L 434.6830975361099,436.75370496900786 L 430.6284573212415,432.4433932707176 L 426.2600934656787,429.1944463441922 L 421.3260764517325,427.5748902194664 L 415.54595638827124,428.1061634947021 L 415.54595638827124,427.2396118329024 L 418.9921628261673,426.18730921638553 L 419.53404910402185,425.9035886015614 L 419.31063984296827,424.7686572689439 L 418.5358375518509,423.61816959882856 L 418.65467230494403,422.911327795729 L 417.41879136340566,422.08578050485414 L 416.4491000678701,420.6203319185775 L 416.2114306785027,418.98960837373966 L 417.1383414722682,417.6374296957067 L 418.5786180536229,417.9212932646021 L 419.5863363580011,417.51356049406894 L 420.3468785208047,416.956137245342 L 421.05988680573165,416.77548669823864 L 421.9630304853305,417.1935606169428 L 422.57146426230287,417.85935985356974 L 423.5981960711053,419.443750185958 L 424.8911176427275,420.7235368025827 L 426.3171342125795,421.48723279081804 L 428.1471886859517,421.869067518341 L 430.6284573212415,421.9722645475975 L 430.2339261699383,422.5088787151514 L 430.02477703719853,422.92164684716363 L 429.7158067726087,423.28281044849007 L 429.03131886113215,423.6955592479623 L 436.6747672643453,431.824595733288 L 442.2077111862299,435.0317779194618 L 443.4626056321906,435.4545430640156" fill="none" stroke="#000000" stroke-width="0.8"/>
	<path d="M 553.1660537203841,506.049486357142 L 554.5778099282815,507.33289088718243 L 555.5807748565561,510.57690213040087 L 556.1701950122853,514.3950026213738 L 556.3318102671494,519.3356992457923 L 556.1036476299913,520.6745182336037 L 555.404899590195,521.2284812636286 L 553.9646228920293,520.7668465584976 L 553.2896417327639,519.889706201501 L 552.4387853071374,515.6059403657596 L 552.0062269133508,515.903530414174 L 550.8464002231404,516.4576496308434 L 550.0858580603378,513.1737148439989 L 546.7489795065001,507.2404890086459 L 545.5368654454857,502.08571597455233 L 544.4293260092506,500.3191757524704 L 540.4887671713687,495.5013296317308 L 539.2766531103622,494.35573213515664 L 537.8126095316597,493.6467583198769 L 524.4555884472813,490.9955471710232 L 521.5512682872311,489.17131169002954 L 520.0539509589805,487.94819205506474 L 511.7117545159721,482.669251720682 L 509.88170004260286,481.9135124462045 L 510.22394393993073,480.67957914740276 L 510.7705835938879,479.5586775503457 L 511.4978520071355,478.53026122822666 L 512.4200094247955,477.5172092169477 L 513.1425243451117,477.5172092169477 L 514.3118579043561,479.3427152984319 L 517.6012025803241,480.9572221265249 L 518.7990563962,482.70009741391476 L 515.7901616113703,482.2733925979089 L 514.8157170565481,481.9135124462045 L 515.6142863450112,483.3786900455626 L 516.8168935369927,484.62784533636614 L 518.2143897333933,485.35776129165674 L 519.5976256846632,485.2857992213556 L 521.0236421376982,486.2315624932822 L 523.2482278791963,488.11265028079845 L 524.3129868136593,488.7293543487201 L 525.6296753826283,489.0479759943813 L 527.5167704860853,489.21242342903196 L 528.7098710426754,488.83727534128167 L 527.9350687515591,487.48050496830325 L 521.2660649031701,480.07800366641806 L 520.3961948563074,477.94917800010376 L 520.8382600023041,474.5394063140246 L 521.8222114261623,472.08064686012534 L 522.8869703606254,470.07427737810735 L 523.5144176420151,468.0265025787687 L 523.4193498862687,465.02127137033597 L 522.6493009712569,461.62429474869566 L 521.3278590261775,458.6076091807743 L 519.5976256846632,456.7128916348861 L 519.1793275360063,457.29471654711284 L 517.9291863493313,458.45315662131344 L 518.1288287298571,455.46679096084415 L 513.708177620313,451.72792678288334 L 513.9410936335748,448.9464061430051 L 512.3677220539973,448.54974382565183 L 510.9417056009613,447.9779151206295 L 510.20493043550647,447.02997546318096 L 510.74681671335907,445.4843051525213 L 508.37962933823985,443.6035446684796 L 507.49549916306523,441.59372829810536 L 506.76347737371304,435.89791932409213 L 504.36776962514347,429.83912970191363 L 503.2412165676653,429.24602193760956 L 502.47592114558284,429.5245272967638 L 501.6440781075569,430.15372596393803 L 500.3083760341636,430.61787354387457 L 501.10694532263165,424.51586644592527 L 500.44147091557545,422.68430638885013 L 497.99347591302364,424.6396829152625 L 499.0915087138684,422.96292311484666 L 499.5763542448183,422.4108447456702 L 500.3083760341636,421.9722645475975 L 498.844332455468,421.50787280496684 L 497.8841480289576,422.416004429522 L 496.9524839759074,423.7729484055396 L 495.5169606538384,424.6396829152625 L 495.5169606538384,423.6955592479623 L 496.71006109361065,422.42632379236585 L 497.6227116422434,420.9402649201469 L 498.1075572900122,419.0979842483993 L 497.99347591302364,416.77548669823864 L 498.701730821846,416.96129864577995 L 499.2911509775752,417.3277548091431 L 499.81402363418465,417.85419873599204 L 500.3083760341636,418.50448840194235 L 507.1627619011267,429.83912970191363 L 508.7503936090201,430.8344711827459 L 510.85614459742413,433.2477954791769 L 512.8097871999989,436.12475842992245 L 513.9410936335748,438.5630811237721 L 515.3623567105063,447.13301500568593 L 516.7646062830115,449.3276051652804 L 518.8085632652271,451.59401250900544 L 525.7199897622701,464.9903929695093 L 525.5441143790922,466.2975317537291 L 526.4615183038305,467.4604902931604 L 526.7657351923167,470.2080428926062 L 526.775241944525,475.7943655277756 L 527.7259196188252,481.88266530237655 L 529.703329101922,485.6764470672395 L 533.0164407752319,487.98930666808417 L 542.9747891827633,491.7303240082303 L 547.2623454109032,495.06467614353585 L 554.8344929388901,503.54399905714763 L 554.3353871628095,504.19094332639327 L 553.6936797530991,505.42314942749937 L 553.1660537203841,506.049486357142" fill="none" stroke="#000000" stroke-width="0.8"/>
	<path d="M 548.38414509227,414.1738985871067 L 554.264086404404,412.4444395939712 L 558.6276967670453,412.50123068313536 L 560.1155073430887,413.15173293200104 L 562.734624235894,415.04114050485225 L 561.5605373005469,417.01807407013877 L 560.8095020067783,418.6335111155259 L 559.6306616953199,419.5572836419332 L 557.1588998122461,419.443750185958 L 557.1588998122461,420.2384681253906 L 557.8861682254859,421.2034309460756 L 555.7804172370799,421.23439142968994 L 552.9759180920695,420.33651507588485 L 551.5689152602756,418.50448840194235 L 549.4584107789491,419.4695532555124 L 545.5986595685008,419.50567761150165 L 543.5261822128329,420.2384681253906 L 543.0888705597587,417.3329160925305 L 543.8779329791888,415.71735093829517 L 545.6937273242453,414.8398205755209 L 548.38414509227,414.1738985871067" fill="none" stroke="#000000" stroke-width="0.8"/>
	<path d="M 523.9707429163315,396.34911230670826 L 524.3177401897649,396.92791033320486 L 524.3510139393209,398.31280773044074 L 523.7758539119113,399.93526152752764 L 522.9915448685857,400.38476634470385 L 522.2642764553401,398.3696479994011 L 523.0058051137174,396.5351567916217 L 523.9707429163315,396.34911230670826" fill="none" stroke="#000000" stroke-width="0.8"/>
	<path d="M 381.90147410122233,380.19647212121555 L 380.1474738791733,378.39614227619086 L 377.9941890128975,373.88409154937204 L 376.0833269120937,370.97025209423197 L 374.6478035900267,367.1757799183719 L 373.44044302194067,365.1254617674413 L 372.98887112372887,363.7998649681713 L 372.98887112372887,361.96145447259426 L 375.8741777793539,363.99664015023916 L 382.6287425144631,379.4101457916903 L 381.90147410122233,380.19647212121555" fill="none" stroke="#000000" stroke-width="0.8"/>
	<path d="M 365.80174811165296,349.7086523667317 L 363.6056826267882,349.6879209484123 L 362.27948730560905,349.04523204073246 L 357.35973053679356,342.7309991332052 L 356.2712046049838,340.8642469510972 L 356.2331774793242,339.2669638855631 L 358.0299582031374,340.3041787319412 L 359.09471725442035,341.89098753988793 L 359.9123000473078,343.68503290039445 L 361.0245928596464,345.359639659338 L 362.4078288109114,346.44829941576177 L 363.662723373689,347.0703574447255 L 364.78927631435124,347.92564802972066 L 365.80174811165296,349.7086523667317" fill="none" stroke="#000000" stroke-width="0.8"/>
	<path d="M 329.43357442384223,308.2542171759299 L 329.58092943356684,309.13757256082465 L 329.6379700636527,310.7482703030324 L 328.8964415220942,311.35613628285347 L 327.6843274610847,310.8262031994955 L 327.00934630181735,309.17394499586584 L 327.32306994251365,306.91350145647306 L 328.2262137389373,306.4249955482572 L 329.0628100362431,307.58907011616225 L 329.43357442384223,308.2542171759299" fill="none" stroke="#000000" stroke-width="0.8"/>
	<path d="M 598.7795675308021,374.12214392676475 L 597.814629728188,375.6228289705488 L 596.1366836406461,380.81205616136253 L 596.0178490043728,381.9293591957727 L 588.3316200993964,382.7983193060012 L 588.3316200993964,381.9293591957727 L 590.3185364515252,379.430839025391 L 591.6542385249127,375.4882904481773 L 592.1438375487919,371.07894823253054 L 591.5971978948288,367.1757799183719 L 591.649485148809,364.12091790796893 L 592.932899968222,362.2721864374527 L 594.9673501982285,361.13798563601347 L 597.2489765698124,360.2212445029408 L 597.8954373556196,359.6929292158029 L 598.5323913892255,358.9936618041739 L 599.2263860529092,358.579266817347 L 600.0059417201293,358.9159634932495 L 601.7551885660679,362.0494957153761 L 602.0356384572063,362.36022610941455 L 602.2685545872948,363.68594130927625 L 603.3333135217579,365.4723773359424 L 603.6327769173147,366.3059797815955 L 603.5614761589161,367.46052561358044 L 602.9197687492067,369.97124836259735 L 602.7629068704539,371.1203561231266 L 597.9809983591558,379.4101457916903 L 597.6292475928009,377.95120234795365 L 597.8383966087159,376.68874813243525 L 598.7795675308021,374.12214392676475" fill="none" stroke="#000000" stroke-width="0.8"/>
	<path d="M 200.1889471674671,353.1911595914692 L 198.67261633479126,354.28965104119953 L 192.72612764036026,357.268672209335 L 190.6251300280618,357.53287187969084 L 189.86458786525822,356.5900221016142 L 189.26566095731982,354.9010430980442 L 189.0279915679524,353.11861511748276 L 189.36072871307303,351.9267651775306 L 190.43024102364166,351.8023930683244 L 191.88953122623167,352.2065988063337 L 193.19195966688784,352.25841929952617 L 193.74335269694964,351.05095814937164 L 194.9031793871649,350.620810685069 L 201.3202536010489,346.23057330217586 L 201.8716466311107,345.9972922150851 L 203.77300197970527,344.8878640760118 L 204.98036254779132,344.48865856279315 L 209.76702455201092,344.48865856279315 L 209.3344662750403,345.77955997640356 L 208.63096474232452,346.4171958298677 L 206.57750100789872,347.02370391684354 L 205.61731658139712,347.03925519281586 L 205.11345742920412,346.60900003899604 L 204.52403727347294,346.3860923110344 L 203.3166767053889,347.02370391684354 L 202.5086006647165,348.2262847546937 L 201.38204760723735,351.70911351352544 L 200.1889471674671,353.1911595914692" fill="none" stroke="#000000" stroke-width="0.8"/>
	<path d="M 195.4070386561768,343.53985750035804 L 193.68155869075923,343.60207578105263 L 192.95429027751848,344.6753013723812 L 193.03985128105663,346.287597181862 L 193.74335269694964,347.97229880672495 L 192.06065323330407,347.5524359101694 L 189.10404570246249,347.9878491629596 L 187.3643056087311,347.97229880672495 L 186.09515091763188,347.4383971981256 L 184.7404353398212,346.39127623502986 L 184.2746033132956,345.27150679715294 L 185.6958663902182,344.48865856279315 L 188.73328143168226,343.89760886857067 L 191.75643646164164,342.4665558361395 L 194.1711575978137,341.79765018408136 L 195.4070386561768,343.53985750035804" fill="none" stroke="#000000" stroke-width="0.8"/>
	<path d="M 213.38910648990873,335.3093708813217 L 211.1502606200987,336.8396180250102 L 209.6386830467086,336.4972703600567 L 209.09679688567488,335.23155786346797 L 209.76702455201092,333.97093292557423 L 212.33860768376437,332.68945504805754 L 214.51565943057096,331.13286592569847 L 216.71172479861679,330.1417583858751 L 219.05039191710352,329.5553674530562 L 220.93273364445298,329.70066977731705 L 221.74556306122994,330.146947577542 L 222.6867338664962,330.9512540519087 L 223.34745489744196,331.97344293590857 L 223.32844127620663,333.0993317142192 L 222.42529759659996,333.7997293418589 L 221.2274436639062,333.4106233124436 L 219.98205597015277,332.6479480797719 L 218.97909104187917,332.22768280105396 L 216.91136717913957,332.3677724564501 L 215.68499298981237,332.8451057282356 L 213.38910648990873,335.3093708813217" fill="none" stroke="#000000" stroke-width="0.8"/>
	<path d="M 216.41226140305312,295.98087234937384 L 215.71351336326472,297.72290529936015 L 215.03853220399733,300.15622986048623 L 215.98445638537018,303.28052711555654 L 218.5465327649105,308.70629340686133 L 219.10743254718736,313.21076309885774 L 218.037920119794,316.48310528632686 L 215.32848884734597,318.4877312453145 L 210.93160473514968,319.1628075098947 L 209.13482389451752,319.72361822605734 L 207.91320319811183,321.0113310654005 L 206.89122464859312,322.46507511639163 L 205.70287758493333,323.5137651854431 L 202.15684989835472,323.98098117606577 L 201.23944597361535,325.0814800357949 L 202.59416166825272,327.8739143163523 L 201.19666547185116,329.295895415208 L 196.9328762410599,332.22768280105396 L 194.82237187655218,332.8658589696155 L 190.75822490947263,332.8969889086239 L 189.36072871307303,333.5351382018307 L 184.7594488442396,336.89667523518096 L 184.17002868851625,337.9236705851224 L 184.40769807788365,339.03876751938316 L 184.797475969907,340.0708113167941 L 184.8830369734432,341.00944660960715 L 184.17002868851625,341.8806167777663 L 183.04347574785598,342.1606257620795 L 181.9311828186984,341.76653769618997 L 180.93297126652743,340.99907514896813 L 180.18668934886438,340.13822889977996 L 178.85574065157476,336.63213549779067 L 178.1094586170928,332.274379489431 L 176.887837920693,328.5693516101007 L 174.16889977921295,327.00197987028434 L 170.5800915908682,325.4448355716805 L 169.79578254754358,321.6759162186577 L 170.54681795813013,312.9821933110938 L 174.59378243221397,307.11084636335096 L 177.86146338668118,300.85782235354964 L 182.76298466079558,298.1771982438729 L 192.97448749905192,295.496119489461 L 205.63675092183368,294.1554093588766 L 216.41226140305312,295.98087234937384" fill="none" stroke="#000000" stroke-width="0.8"/>
	<path d="M 201.52940273378871,332.73096203596225 L 204.9708557955821,332.31588755639115 L 205.7789318362525,332.3833378553398 L 205.2893328123811,333.3224246040661 L 203.93461711775154,335.1848698198884 L 201.75281199483643,336.2171622369387 L 199.83719651793,335.2159951124409 L 199.84670327013725,333.45731654159357 L 201.52940273378871,332.73096203596225" fill="none" stroke="#000000" stroke-width="0.8"/>
	<path d="M 206.9767856328387,379.4101457942856 L 205.2655659318581,378.82554948899207 L 205.20377180884492,377.4131192329639 L 205.70287758493333,375.6745742385633 L 205.70287758493333,374.12214392676475 L 204.37668226374828,372.647197238117 L 202.76528367532708,371.6845277243889 L 201.84312637448505,370.8460269497047 L 202.59416166825272,369.77454603787425 L 202.59416166825272,368.9152394224638 L 200.31253529666873,367.4864114061081 L 193.02083765981348,364.57141697105465 L 193.7148323234973,363.6030873838088 L 194.5371684924893,362.74345180085623 L 196.21511458003027,363.85164813702596 L 196.87108223487144,363.4995192825562 L 196.96614999062268,362.5673762912055 L 196.9328762410599,361.96145447259426 L 197.00417711628424,360.7650803265321 L 196.6714398543467,360.18498809432685 L 196.64767297381783,359.6152344075251 L 197.6601446543065,358.4808464271622 L 198.84849171796824,357.85404978458894 L 202.0094948886281,356.79724654924007 L 203.3166767053889,355.79218297152096 L 203.78250873191448,354.71451916868665 L 204.5430508947161,351.58473971870586 L 204.98036254779132,350.5845326196694 L 208.98271550868438,350.30467072069644 L 210.49429296525756,349.7086523667317 L 211.67313327670814,348.6927788244098 L 212.08192467314794,347.8945473089581 L 212.33385419083697,346.9096614450452 L 213.03260234744818,345.359639659338 L 214.78660256949334,343.89242401053036 L 219.61129169937257,341.8754313941871 L 220.93273364445298,340.13822889977996 L 224.19831132306743,338.3230398331956 L 225.2868372548792,340.03969534484116 L 226.1424471734262,342.07766061925014 L 227.11213835214483,343.7783592576723 L 228.5476616742138,344.48865856279315 L 229.3319707175384,345.1885578907028 L 228.21967790519975,346.69194172353644 L 221.00878789578195,352.68334101223644 L 218.14724812067794,354.2689255352925 L 214.55368655623056,354.93213012428555 L 214.55368655623056,355.79218297152096 L 216.62616391189752,355.96315177723204 L 217.49603395875832,356.91121883194205 L 216.9826679375392,357.9835552643551 L 214.91494407480155,358.4808464271622 L 214.45861880048514,358.9833020850038 L 215.67548623760513,360.12801364570777 L 218.5465327649105,361.96145447259426 L 220.4003541188096,361.1535231327409 L 221.032554776303,362.5518401581393 L 220.73309138074714,364.8510308003063 L 218.81272241091136,368.47003846599983 L 218.42294463571275,370.1161853911962 L 217.8097574826358,371.47231871717264 L 216.1508250001357,372.38324507488744 L 211.76689274406002,375.83586946515226 L 206.9767856328387,379.4101457942856" fill="none" stroke="#000000" stroke-width="0.8"/>
	<path d="M 216.1508250001357,372.38324507488744 L 218.32312350385493,372.99395121479705 L 220.17694485775402,371.33774564842 L 223.80378017175838,363.9500357122532 L 226.23751492917944,361.184598208498 L 227.38783486717963,359.3510689234303 L 227.85366701053,356.849052243972 L 227.98676177511805,353.63160152525467 L 228.4050600405918,350.61562812751527 L 229.78354261575217,348.7549769834207 L 232.09844273688918,349.1177949210005 L 233.8429362067232,351.6676556889493 L 235.25944590754904,354.8595935088575 L 236.56187423138633,357.1391611019763 L 238.04493143132606,358.94704288809197 L 238.88152772862992,360.8738452618068 L 239.26179886844406,363.1163114444826 L 239.48520801267486,367.32074204893917 L 240.08413503743023,370.0074827735025 L 240.22198329494762,371.1203561231266 L 240.08413503743023,372.57991567235837 L 239.48520801267486,375.02257171338107 L 239.3473597551555,376.33689907737164 L 239.72763089496968,377.04058953727997 L 241.36754985684323,379.4515323597962 L 241.74306750372804,380.66204202853646 L 241.36754985684323,382.16212086546875 L 240.54521368785905,383.1758887250782 L 239.72763089496968,383.80687535311506 L 239.3473597551555,384.1792495009328 L 238.14475256317604,384.7377945663775 L 235.60168980487887,384.7998539137858 L 233.32006343329488,385.74623002523083 L 232.8970119085354,388.9572918435224 L 236.98017249686202,386.05133416551047 L 239.3996471259556,384.9550014342811 L 241.74306750372804,385.4049205231499 L 242.7317723036898,387.2096429702356 L 242.01876401876285,392.0178097844721 L 242.6176909266993,394.1577620733632 L 240.6212678223613,398.67968240825286 L 239.06215648791346,399.48057738909466 L 236.16258970397462,398.57117104900084 L 236.5476141030686,400.16776561068474 L 238.66287184368286,401.90885714766455 L 239.3473597551555,403.7789027756122 L 239.17623786490788,405.48345370424664 L 238.51551683395624,407.35308984680046 L 237.67416716054584,408.9436614770565 L 236.96115887561888,409.83699908204386 L 233.2915431766614,411.1123734192399 L 230.50130427678178,409.91445385562633 L 227.95824151848458,408.0347823983705 L 224.99688061153256,407.2394716982372 L 227.00756384419023,409.67692486422663 L 226.96953671852282,410.79224826070225 L 225.8667506583992,412.43927676944685 L 224.99688061153256,412.43927676944685 L 223.05749813727644,409.73888924304526 L 219.59227819495416,408.81456235905824 L 212.1627323005815,409.0572677761324 L 216.15082501633796,407.2394716982372 L 215.56140486060875,405.06508045826627 L 218.06168711714176,405.1322274679759 L 224.19831132306743,407.2394716982372 L 224.9113196079944,404.9411158759055 L 226.09491329555743,403.3139943835679 L 227.7205721291172,402.12066862323155 L 233.99504459256224,399.1447229594973 L 235.76330505974207,397.75472882440914 L 235.76330505974207,396.3232726973238 L 233.67181419965084,395.5170541214498 L 231.618350465227,396.7005278118078 L 229.64094098213016,398.46265896698816 L 227.74909238575066,399.3617374428387 L 220.93273364445298,403.7789027756122 L 221.38905891877135,404.13015813474044 L 221.7313028160992,404.56405142074374 L 218.93631054011303,404.2334670881625 L 216.1223046428856,400.2245994094423 L 213.75511738458627,399.3617374428387 L 221.43183942053554,396.57649973588883 L 225.31535762833155,394.2456285226518 L 225.8667506583992,391.5525654149755 L 224.1935579469648,393.3514363244407 L 221.9024248231716,394.09056982978205 L 215.71351336326472,394.1577620733632 L 214.04507402793294,394.48855087510066 L 212.6238109510025,395.0984249839766 L 211.26434188026835,395.48604500025004 L 209.76702455201092,395.1087616104676 L 208.82110025382116,394.09056982978205 L 208.1128454618177,392.57091621081383 L 206.40637911764912,384.02409468741104 L 206.25427061499514,380.81205616136253 L 206.9767856328387,379.4101457942856 L 211.76689274406002,375.83586946515226 L 216.1508250001357,372.38324507488744" fill="none" stroke="#000000" stroke-width="0.8"/>
	<path d="M 499.94711851559845,349.23182182330316 L 500.8455089359116,351.1183296950732 L 502.7801379172433,358.4808464271622 L 497.48011000862243,356.7247182198806 L 495.07014213173807,356.5174928377657 L 492.33219048583766,356.74026010502934 L 487.0464228223544,357.81260780580743 L 485.2021081038456,358.8227252032159 L 483.15815112163097,360.620059227671 L 480.2680910898994,360.89974150607515 L 477.14036155197755,358.81754516214414 L 475.80941285468793,356.20664975802913 L 478.3429688607759,354.93213012428555 L 480.05894195715956,354.47099858716956 L 482.54971746148334,353.27406726980985 L 484.8503573374838,351.6054686877194 L 486.0196908967252,349.7086523667317 L 488.26804351875415,349.77084671578234 L 489.3090355726952,346.3083329951675 L 488.80517642050216,342.155440469175 L 486.39045516750735,340.13822889977996 L 482.97752236234743,339.39143316619993 L 480.56755460227606,337.5035440440796 L 474.32635577156907,327.3237707994451 L 473.40419847072707,323.7214183724456 L 471.1605991079857,320.40902676506016 L 470.6472332035835,318.6850641829849 L 469.9437317876905,314.62366655464285 L 467.96156881166434,311.5743389909539 L 464.9384138985219,309.79226298818537 L 461.0834160641782,309.4909009088563 L 461.5397413384946,308.1502897917849 L 461.6348090942478,306.612084639924 L 461.458933711063,304.9957690736889 L 461.0834160641782,303.46765336085247 L 460.45596878278747,301.90300118292316 L 459.8617952509556,301.32076546577144 L 459.05847258638784,300.9256647566168 L 453.90104631138604,296.4124984572265 L 450.13636285668514,294.5194965628717 L 449.11438430716646,293.79655964328686 L 448.32532188773916,292.7094913184391 L 448.2112406275676,291.73678771027716 L 448.74362003638817,290.7015988989945 L 451.17735491062615,287.8089520021683 L 452.14704608934477,287.3979032377744 L 453.90104631138604,287.61123372406803 L 454.67584860250344,288.17836628627657 L 457.81308489263444,291.1749851099026 L 460.85525342702,292.35578788932935 L 462.2575028827092,293.1360054400486 L 463.5409177021203,294.66512016054077 L 464.44881487465045,302.8127015035212 L 465.14280965515707,305.21405922511184 L 466.2836228409481,306.5601156481249 L 468.15645781608447,308.26980631417877 L 469.88669115760666,310.29105661373814 L 471.29369398939855,314.28084121227744 L 474.53550478749196,320.22210006914463 L 481.095180634996,329.70066977731705 L 483.191424871186,331.39230796593193 L 487.75943099045656,333.87754933375703 L 489.936482854084,335.70880544059077 L 492.8312962619182,341.76653769618997 L 493.5300444185314,342.74655444781416 L 494.82771936625824,343.6176302497635 L 499.94711851559845,349.23182182330316" fill="none" stroke="#000000" stroke-width="0.8"/>
	<path d="M 247.00031491058374,250.33329841467756 L 245.23205444340195,249.31101933119112 L 242.96944169305524,249.07630287838674 L 240.81140345067683,249.13367830937247 L 239.3473597551555,248.98241530705283 L 237.43174427824908,246.80719521597547 L 238.70089896935028,244.3499263104117 L 241.4863844931175,242.25233240855638 L 244.13402175937514,241.10949424742392 L 245.8452415964711,240.8120294358027 L 249.79530718656994,239.35593535514857 L 251.57307440595895,239.15760373141103 L 256.56888554291254,239.35593535514857 L 261.5266694373876,238.44776457798312 L 263.3519705346552,238.4790817443392 L 264.97762936821493,239.05321766266619 L 267.7821285132312,240.74940457318422 L 272.250313383829,241.77746459695072 L 270.976405433448,243.31681836124014 L 258.73643053750794,249.0293591634483 L 255.91291788807138,248.95111940965384 L 252.1815081829313,247.31842531979282 L 251.5065270236659,248.38778096582323 L 250.16607157416706,249.91604976764452 L 248.5404127406073,250.8913510558912 L 247.00031491058374,250.33329841467756" fill="none" stroke="#000000" stroke-width="0.8"/>
	<path d="M 170.54681795813013,312.9821933110938 L 168.44106696972509,314.62366655464285 L 167.00079027155934,316.3272947653211 L 165.2182696760579,317.6672154782812 L 162.13332063990813,318.21249971069795 L 159.79940701434293,317.5945095602747 L 145.17323135568907,309.29864967157965 L 138.18099711438967,302.8386922348751 L 135.95641148971038,300.1874239452446 L 134.50187466322495,297.2861150523934 L 136.06573937377738,296.90131375827906 L 138.48996737898142,295.79365747326665 L 140.71455312047763,294.4466843242155 L 141.68424429919625,293.32325196308284 L 142.04550181776727,291.54432052472134 L 142.90111173631624,291.705577057783 L 143.98488429202143,292.5638496752433 L 144.9450687185328,292.8447288107825 L 146.19996316448567,292.0644967280388 L 147.10786033701388,291.10735941485603 L 147.31225609365106,289.9212607881028 L 146.46615292731323,288.4749320985207 L 147.99674400512566,286.27396864672363 L 149.86957898026202,286.3416150851014 L 151.4477038191263,288.03788577528525 L 152.12268497839366,290.7015988989945 L 151.98483672087625,292.8967429026207 L 151.55227832708871,294.8211439258078 L 150.8012430333191,296.5425040466541 L 149.73173072274656,298.15968347295995 L 147.68302036443126,299.5947267058287 L 147.33602297417403,299.90667535036516 L 147.56893898743684,301.16480585864207 L 148.1298387697137,302.2824825945239 L 148.98544868826266,302.75032375296246 L 152.13219173060287,300.75410485715673 L 153.8624250721231,300.2550107687276 L 154.81310274641746,299.24117744235787 L 154.51839261014732,296.4124984572265 L 156.79051222952015,297.50451174909085 L 156.8095258507633,299.8026931526879 L 156.2010920737929,302.48521547418375 L 156.54808946404228,304.7410933846284 L 158.48271844537493,305.9260802463149 L 159.58550462232327,304.3148921711694 L 159.85644764442873,301.4975179050235 L 159.30030123826234,299.0332034811445 L 160.4221009196291,299.5323361361187 L 161.6389683567471,300.2550107687276 L 162.68471366996994,300.57214524991076 L 163.29314744694227,299.90667535036516 L 163.22184657171792,298.071288841741 L 162.36148327706633,296.79731178579476 L 161.18264308243266,295.7780560375582 L 160.17017128512313,294.66512016054077 L 160.0228162753985,293.9057824375588 L 160.28900603821629,291.9708662747931 L 160.17017128512313,291.1749851099026 L 159.45716311701506,290.2229960799693 L 157.63186201974747,288.5477719100067 L 156.9141003587179,287.61123372406803 L 156.44826833219227,285.8212500920354 L 156.1250379392887,283.807275314089 L 155.40727627825126,282.60501247419415 L 153.7198234385011,283.2399851613091 L 154.95570438003946,284.3016856467216 L 155.39301614993747,286.28957935954617 L 155.31696189861046,291.1749851099026 L 154.21417583847904,289.8172128055389 L 153.4678938039971,287.73610864739766 L 152.55524325536427,285.8212500920354 L 150.92958453862144,284.9886302040349 L 150.7299421580967,284.0258586424524 L 151.07218617224345,281.83468314773785 L 152.12268497839366,277.9980896256699 L 153.9099589499997,276.1237007101331 L 156.46728183661068,274.01474563122156 L 158.25930918431936,271.4679998180583 L 157.7792170294741,268.31133586570996 L 158.8867564657101,267.52988515532104 L 161.93843175230492,266.9307465725863 L 162.5658790336937,266.1596475863756 L 162.9223831761601,264.54438450607165 L 164.5195216362695,261.42801895268315 L 164.8807791548405,259.64547039934405 L 165.93127796098486,259.52558416042865 L 165.5177331884385,258.5247583710144 L 164.5765622663553,257.1850109515158 L 164.09171661858656,256.05890873513687 L 164.3341395008755,255.04743270411032 L 164.96158666544736,253.26415573518932 L 165.85997708576832,251.5745472472754 L 166.91522926802315,250.8131206509183 L 167.82787981665595,249.20148546935712 L 167.5711969228643,245.596869229455 L 166.4779176149499,239.83609620947695 L 165.2182696760579,235.76991741172208 L 162.7797815425381,230.4441691924689 L 161.21116333906414,225.53972950033466 L 162.5658790336937,222.702906264696 L 164.5337817645833,222.81262730843065 L 168.77855749094837,223.62767369132686 L 170.54681795813013,224.37998610235016 L 171.97758778726975,225.72778769122226 L 172.77615707573293,227.15904538487996 L 173.74584825445154,228.30813458093328 L 175.68523061188878,228.76774635769166 L 177.46775120738826,228.01564722159108 L 179.18847779669537,226.60536287858116 L 180.97575176829946,225.73823528007915 L 182.98168162484862,226.61580987501037 L 184.46949220089098,227.70226183176632 L 186.1094111627704,228.57972496599047 L 187.69228937774125,229.69737391289368 L 188.95193731662542,231.47291218176574 L 187.21219722289402,233.47798135566146 L 186.91748708662388,235.73859477971436 L 187.8396445042926,237.84228788873 L 189.76001335730362,239.35593535514857 L 188.2912164024966,244.41775418144522 L 187.82063088304946,247.57403407707346 L 188.5193790396548,248.98241530705283 L 190.65840366079985,249.31101933119112 L 192.41240399966782,250.35937614826358 L 193.9382415845509,252.27335813643276 L 201.0445570860141,269.90537425194435 L 206.20673673711852,277.62843622346765 L 208.1461192113805,279.7160831658878 L 210.13303544668653,280.62185863918074 L 211.5400383952973,281.46511996309505 L 215.8656217490959,285.77962012416015 L 216.94939430480113,287.61123372406803 L 217.07298231718,289.9108560463141 L 216.88284680568918,293.0423813453506 L 216.41226140305312,295.98087234937384 L 205.63675092183368,294.1554093588766 L 192.97448749905192,295.496119489461 L 182.76298466079558,298.1771982438729 L 177.86146338668118,300.85782235354964 L 174.59378243221397,307.11084636335096 L 170.54681795813013,312.9821933110938" fill="none" stroke="#000000" stroke-width="0.8"/>
	<path d="M 383.20804744093925,210.77398634319013 L 386.69288948154656,215.61641009171234 L 393.7564244812378,222.53048592672266 L 401.04812211809497,227.96863980465085 L 404.5561226790062,230.27183507442638 L 406.072453511682,232.04730740009913 L 406.6999007930708,234.49086041554017 L 405.71594936922145,245.3673139700001 L 405.21684359313497,247.4227559263839 L 405.1027623329634,248.54426599605657 L 404.6321769303332,249.88475561744275 L 403.5626645029398,250.70359734738963 L 402.4503716906011,251.20948436704032 L 401.8466912659196,251.61105312573773 L 399.9928223997698,250.6547227468803 L 401.28579150746043,249.45706332510892 L 401.8466912897392,248.54426599605657 L 402.7498350861648,241.219085084311 L 402.7118079604974,238.4790817443392 L 400.62031721723093,232.57468801950378 L 396.9507014014546,229.43624821927622 L 392.75345955296416,227.29485131567932 L 389.0790904779079,224.37998610235016 L 381.0406929521453,212.6133442463912 L 383.20804744093925,210.77398634319013" fill="none" stroke="#000000" stroke-width="0.8"/>
	<path d="M 381.0406929521453,212.6133442463912 L 379.4392189703509,210.26802721243382 L 376.4826115563263,207.83110051474156 L 372.0477002016437,206.19929438695073 L 362.69303207815346,204.12790670591218 L 357.8778498173004,201.66907933525883 L 350.8238215698184,194.9654679471737 L 346.2320485700189,193.5887982063018 L 343.6842324356171,193.3165903580857 L 338.8547899296255,192.10730067832247 L 336.62545081202273,191.82983108407538 L 334.1109084271779,192.4842323091344 L 330.00873433443286,194.77179954841517 L 328.2452273601804,194.46820615935505 L 331.16380776536244,191.4319414667479 L 332.79897323431254,186.38412871857804 L 334.6290277076847,176.807557865796 L 333.83045853603846,176.807557865796 L 337.8470716252473,176.76563405090283 L 339.6628659703037,177.0066943170713 L 341.0128281720117,177.6879309893279 L 339.7341667287033,179.67906364750897 L 339.16851357032186,181.659459300715 L 339.1304864446603,183.8595978873175 L 339.4156897119043,186.56219185983574 L 341.25049767820195,184.14244979297965 L 342.55767937813795,185.35236867258908 L 343.6081781842882,187.83475987627523 L 344.66818374264955,189.2014742444452 L 346.9260432337027,189.82980767945295 L 361.7566146489918,201.27667684853898 L 366.04417087712886,203.70941071197026 L 371.46303353884383,205.00671125226856 L 376.86763595542027,205.231635381564 L 378.8117718057849,205.75993238797068 L 380.6655931596801,207.2401137844322 L 383.20804744093925,210.77398634319013 L 381.0406929521453,212.6133442463912" fill="none" stroke="#000000" stroke-width="0.8"/>
	<path d="M 401.8466912659196,251.61105312573773 L 401.4379000101164,254.07760560570642 L 401.9512659145186,256.3612960230493 L 403.4343229976394,259.64547039934405 L 403.89064827195585,261.76157274670607 L 403.4343229976394,267.87372826582896 L 402.81638258527676,270.46272864967784 L 400.06892418716717,274.868776394569 L 399.4509836579856,276.6495934621292 L 399.15627363853434,285.6130992798839 L 399.5650649181572,290.5351299342037 L 401.04812211809497,294.66512016054077 L 397.16935728640357,292.9539581928238 L 395.1491673015347,288.88074992864574 L 393.8800126104414,284.18719201501386 L 392.2686140220143,280.62185863918074 L 390.3339849238647,279.22152852913166 L 385.2288459028441,277.13902246823676 L 383.06130090825064,275.78003844539137 L 380.5990457773851,272.9315177417176 L 380.9032626658722,271.74925578328407 L 382.8046178976401,271.6086284952572 L 394.2650370095354,273.55646594732696 L 395.0350859245462,273.21274759181154 L 395.5769722024007,272.38987574697745 L 396.06181785016753,271.4002891932788 L 396.660744758106,270.53044319576776 L 398.5763602350143,268.5978579147573 L 399.13726001729117,267.4621576406884 L 399.4509836579856,265.68550695759984 L 399.35591590224215,262.7413456699824 L 398.40048485183536,263.40839012357316 L 397.0600294023385,265.4614575811314 L 395.8289018369047,266.6389838130228 L 395.12064692808434,265.1905097160198 L 395.2489884333925,261.9075002860438 L 396.26146011387533,256.05890873513687 L 396.922181144827,253.91074758809233 L 397.24541153773254,253.399733702235 L 397.92989944920714,252.56538924802433 L 399.9928223997698,250.6547227468803 L 401.8466912659196,251.61105312573773" fill="none" stroke="#000000" stroke-width="0.8"/>
	<path d="M 207.37131692025727,158.2554936101819 L 205.94054697429877,158.11382774642686 L 204.46699664338908,156.38749706444847 L 202.59416166825272,152.97623567634236 L 200.21271416481287,150.33591730930328 L 199.41414487635168,148.72945468634663 L 200.1889471674671,147.68463749906834 L 201.66725099130025,147.95766195244173 L 202.80806417709127,149.26496107657616 L 207.17642791583714,157.09064635329293 L 207.37131692025727,158.2554936101819" fill="none" stroke="#000000" stroke-width="0.8"/>
	<path d="M 202.12357626561666,196.84968264633085 L 200.32679542498448,196.85491624023246 L 199.28580348786627,196.73977650481044 L 197.14677874990625,196.6979072608545 L 197.24659988175623,196.45715698763175 L 197.93108779323083,195.87620069287826 L 198.81997134451785,195.46271374326014 L 199.53297962944288,195.39990467123133 L 200.8734350789417,195.51505446162727 L 202.70824304524126,195.38943648898982 L 204.0914789965043,194.5414878147931 L 204.98986941682526,193.3689384014934 L 205.3130998097269,193.4265210299337 L 204.69040590444268,194.87648552170012 L 203.53533259033787,196.22687068379176 L 202.12357626561666,196.84968264633085" fill="none" stroke="#000000" stroke-width="0.8"/>
	<path d="M 240.22198329494762,80.81790847681361 L 239.71812414276243,81.80411018936897 L 236.16258970397462,85.72717380168716 L 236.82806399420608,82.83770581042785 L 236.22913708626766,81.03941409064154 L 235.3925407889638,79.33584606786704 L 235.36402041551148,76.79859167603058 L 236.43828621900747,77.43162706082327 L 239.57076901621107,80.05316163181372 L 240.22198329494762,80.81790847681361" fill="none" stroke="#000000" stroke-width="0.8"/>
	<path d="M 116.37768042183916,51.65086994902362 L 115.26917324959298,52.386096358575365 L 112.77545016144335,53.63692218684892 L 110.73406610814527,55.09750879526378 L 109.53629893103712,53.045224084116 L 111.96194515585857,49.72625798862069 L 114.66747363335162,49.72625798862069 L 116.37768042183916,51.65086994902362" fill="none" stroke="#000000" stroke-width="0.8"/>
	<path d="M 138.21732730235445,43.486126080293616 L 127.44309303963641,46.238286296224956 L 125.33258867512872,46.58717954131552 L 123.15078343539473,47.28494123432 L 119.60950912492659,50.32933268373144 L 117.31837600113535,51.02691718942114 L 116.37768042183916,51.65086994902362 L 114.66747363335162,49.72625798862069 L 111.96194515585857,49.72625798862069 L 109.53629893103712,53.045224084116 L 110.73406610814527,55.09750879526378 L 109.6441960693215,56.01478495649623 L 107.1971441487388,56.229908359836 L 106.09735099831347,56.777846621332706 L 101.32685900065984,56.31894602721311 L 96.66916009708565,54.67542669471147 L 93.83637480125176,51.87114138046005 L 88.7584184562234,48.7603153236365 L 76.48743178226026,36.13739666118007 L 70.91579965446437,31.52966648397682 L 69.67991871292209,29.566345099443872 L 70.9348132756997,29.545175704497343 L 71.95679170839952,29.815082322255268 L 72.82666175526815,30.40250869331836 L 73.59671067027895,31.339167118941326 L 88.61266422095618,40.84524818026534 L 92.08739103230847,45.61977345978714 L 94.40483944901314,45.18878056527779 L 96.25611320826376,44.9053733455745 L 100.02003371631208,46.53149898145533 L 102.80807910075967,46.56899188418281 L 105.4442120052832,45.341243723092624 L 107.8355635632655,43.65886272141602 L 109.44060496382193,42.9220423182859 L 110.81037445689437,42.07629807589227 L 111.72256088256829,41.474056299938916 L 112.15797807753705,40.42285457053386 L 113.6346138390155,39.22786491539869 L 113.93831730680576,37.602518229506096 L 115.6411581649264,36.170294243605255 L 117.07127439025042,33.243111142327805 L 119.23935301527065,31.798260580947954 L 118.96962140899709,30.418396551581345 L 116.15854931092008,28.671914674506834 L 111.30058643148196,27.78801570283038 L 112.10866247215627,26.099461584168456 L 115.29343264016387,22.46232150480217 L 115.97792055163653,20.857880679156267 L 116.8810643480621,15.35484707213581 L 119.10564997273552,16.949298229123176 L 121.15911370715935,19.5180643100912 L 122.67069128055533,22.319358651989894 L 123.26486481238328,24.63836105297043 L 125.47469534550233,25.96642169007371 L 130.83133816994777,28.077327382364064 L 134.1659370608921,34.78164428370016 L 138.21732730235445,43.486126080293616" fill="none" stroke="#000000" stroke-width="0.8"/>
	<path d="M 130.83133816994777,28.077327382364064 L 135.10537084009957,29.761388079952813 L 137.5302341084974,29.120436090445754 L 142.91537186463003,30.450136841119637 L 148.8705013300259,31.49029242504619 L 152.71407260426963,31.62494079266057 L 154.2872464088232,29.27210180298731 L 156.70371118942919,28.054692465541507 L 160.3537108301642,29.699922637892502 L 162.5783643268391,30.107665567432523 L 166.7359990690407,28.38539221655138 L 172.35533014033672,29.17516112568734 L 176.06074837559638,28.031490242289426 L 179.77789795242458,26.35355113838637 L 182.1450853275428,26.020057637536897 L 189.56037097677887,25.89301058357627 L 191.35715181741105,25.130704722206993 L 192.45993787753662,23.68009638918616 L 193.2537536730763,22.001658508827706 L 194.2947457270173,20.56662677814602 L 196.13430695259672,19.79345169613458 L 196.40525009152694,22.208164399626536 L 195.82058342872122,24.860711789835513 L 195.5021064119222,27.533951028585992 L 197.5888437790841,32.132898476025 L 197.6791581587249,34.624936110358924 L 196.69996022779904,36.71982522256977 L 194.5371684924893,37.640212250386995 L 193.69581881907888,37.30697526871341 L 191.718409335984,35.60893643779689 L 190.6251300280618,34.97410505380148 L 189.12305932369782,34.70958392902091 L 181.48911778952055,35.143396176296086 L 174.53015729778394,36.75156358568518 L 158.4821080646879,39.967174319904395 L 151.977659461734,39.970451045659765 L 138.21732730235445,43.486126080293616 L 134.1659370608921,34.78164428370016 L 130.83133816994777,28.077327382364064" fill="none" stroke="#000000" stroke-width="0.8"/>
	<path d="M 203.32618345759613,42.63785956859901 L 203.95363073898687,42.01919538447877 L 205.2322921822953,40.982742377791496 L 205.5697827035205,41.36877672121635 L 204.5192838973703,42.64314717119029 L 204.1152458770351,43.404544053104175 L 204.10573912482394,43.97027870150353 L 203.55434609475628,44.906072490567944 L 203.12178781778567,46.280576846518514 L 202.38025915940833,47.4012315925743 L 201.6244704895341,47.43294704452021 L 201.3772942311347,47.06292966529339 L 201.1015977160999,46.56603478659738 L 199.49970587988787,44.61000857530595 L 198.97207984717187,43.510290492817695 L 198.7344103409797,42.39991496485488 L 199.35710424626586,41.88171087739479 L 202.88887168770594,41.21013368110659 L 203.41174446113428,41.8288318985931 L 202.32321852932446,43.17718667300873 L 202.08079576385052,43.563163427681154 L 202.94591243460866,43.01856313709318 L 203.32618345759613,42.63785956859901" fill="none" stroke="#000000" stroke-width="0.8"/>
	<path d="M 276.13383168381114,83.60230940637476 L 275.80584782261485,81.93067672113429 L 273.82368496340564,79.97932197996263 L 277.5313277880246,74.50361186723477 L 277.383972778298,73.25309409526113 L 276.3619943455982,71.6963951324941 L 276.18611896242123,62.54814418619894 L 277.90209205880484,62.516461199346175 L 279.17124674990407,61.7877349336466 L 280.1504447976488,60.54670521475878 L 280.9680275905382,58.99923298217065 L 281.0963689790197,58.34956317902717 L 280.9680275905382,55.86153903683832 L 281.29125798343983,54.95813986743472 L 282.023279772793,54.419243822641576 L 282.85987607009884,54.05996890250886 L 283.4350360975064,53.679550681620064 L 284.61862978506946,51.64520308254262 L 285.13199568947164,49.30403500495555 L 284.2953992753411,47.39065980338685 L 280.15519817375343,46.29114943263119 L 277.4219999039596,45.02238163870681 L 266.6032882017747,43.43098079925618 L 264.5498244673489,42.14610304956462 L 263.23788927448356,39.94092760455398 L 261.8308863258728,36.75156358568518 L 262.3632658515123,35.958081979835335 L 262.49636073292316,34.9000396713337 L 262.17313034001955,33.767850004180424 L 260.84693501883646,32.037652954961146 L 260.24800799407916,30.645939808923305 L 259.8344632215348,30.010893771115633 L 259.2212761639728,29.799205456994162 L 264.7589734638815,28.550183278265884 L 267.19270835750393,30.20141039250243 L 269.93066000340235,31.07987222117137 L 273.7951645899552,31.339167118941326 L 272.79695303778624,32.7678527702894 L 271.2235815750246,33.24934134506793 L 267.4113641256262,33.117065899620926 L 269.1225839627222,36.63518899228498 L 271.5420585918236,39.480813347678286 L 274.57947375010457,41.37406478007985 L 281.71906288430586,42.70131080422677 L 284.9323533089469,44.28750367436513 L 290.54135148215266,48.36323511747759 L 294.82890771028974,50.72569157191969 L 296.19788353323895,51.91470417470126 L 297.2531357154938,53.60557924996343 L 298.1277592552859,55.983044593674435 L 298.14677275970234,58.085461631983215 L 296.59716817747153,58.99923298217065 L 296.2264039066913,59.90238499363653 L 296.19788353323895,65.68969858198227 L 296.59716817747153,67.8065716450128 L 297.66668048804013,69.18422439248245 L 299.2210385632003,70.01814337728023 L 301.0605997887817,70.52480544670297 L 299.5632824605301,73.53803150862038 L 299.3826537012407,74.50361186723477 L 276.13383168381114,83.60230940637476" fill="none" stroke="#000000" stroke-width="0.8"/>
	<path d="M 274.5366932483326,58.52386757457478 L 275.3114955394558,59.09430422828929 L 275.4921242987374,59.57493268698957 L 275.4350835518347,59.7016893170351 L 275.21642766688564,59.60134045659014 L 274.78862276601967,59.54324332713431 L 274.6840482580592,59.74394115563125 L 274.9502380208848,59.9657619753089 L 274.97875827751824,60.0608270031093 L 274.741088888145,60.11364062878937 L 274.62225413505183,61.64515382086407 L 274.9122108952174,63.15010713231324 L 274.25624324037625,63.6886846966516 L 273.7999179660598,63.746765409302924 L 273.33408593953425,63.75732562055159 L 272.3121075068344,63.22931088410506 L 271.8272618590676,61.79301567477611 L 271.2568553245796,60.831887254234985 L 270.56761403700233,60.166454065739224 L 270.7482427962898,59.62774804920073 L 271.252101948475,59.6911262087063 L 271.8130017307538,59.28972639107706 L 272.4832295139087,58.6030962479961 L 273.42440031917505,58.31787119077239 L 274.5366932483326,58.52386757457478" fill="none" stroke="#000000" stroke-width="0.8"/>
	<path d="M 299.3826537012407,74.50361186723477 L 299.6488434640663,75.91229662865237 L 300.21924999855236,76.79859167603058 L 300.79916340206455,77.43162706082327 L 301.0605997887817,78.0910102866662 L 301.1889412940899,79.14068802141749 L 301.3458030560237,79.64176429771483 L 301.14140741621134,80.1533720843066 L 300.18122298970974,81.22399942917805 L 299.24955881983374,82.00450680836968 L 298.2798676411171,82.47911954344104 L 296.19788353323895,82.91153139376878 L 296.44030641552985,82.36310452214474 L 296.9964528217021,80.42235477593964 L 293.20324899354887,80.87592213083526 L 289.60018067689225,82.91153139376878 L 286.40590375667546,85.78516830789293 L 283.801046992182,88.74258959045504 L 282.69826081523365,91.94711747929826 L 281.66677563032465,101.84096860901664 L 281.84265101350945,104.29497776697163 L 280.6162768241744,111.58090819983296 L 281.2056969799036,121.99300861272289 L 280.7873988312546,131.31515959152725 L 276.5901569827564,135.35139066642714 L 273.5099613227112,133.73282361474045 L 270.80053005026514,130.06412908237542 L 268.8754078211476,126.02648102569822 L 268.1433859149794,123.3551496238068 L 266.2657975637326,121.67217743478575 L 257.72395885702514,119.79964947703303 L 255.37578510314614,116.65895907657736 L 257.26763358270676,116.64317509364331 L 259.3876448162445,115.91709199175949 L 261.1178781577647,114.57006239861003 L 262.4298132338112,111.37038180595026 L 263.8653365558743,110.97563715263229 L 265.56704952394415,110.78089255561464 L 266.9788058486576,110.07558019008523 L 271.252101948475,105.20064768513099 L 273.99005359437535,102.90477313385458 L 276.9846881340674,101.64083849825965 L 276.2241460880886,100.58221098237449 L 275.75831394473823,99.51297375203752 L 275.5206445553728,98.29089461614954 L 275.46360392528703,96.74208158964777 L 274.993018522649,95.84643608722229 L 274.0090670987996,95.07719180394996 L 273.1154300545852,94.11821526596619 L 272.9252945430944,92.71652321739268 L 273.6525629563332,91.25672653111161 L 274.741088888145,90.15519672573912 L 275.74880719252906,88.92180829168221 L 276.18611896242123,87.01881657146555 L 276.13383168381114,83.60230940637476 L 299.3826537012407,74.50361186723477" fill="none" stroke="#000000" stroke-width="0.8"/>
	<path d="M 259.2212761639728,29.799205456994162 L 258.67463653131756,30.296667839869734 L 258.1042298800126,30.995203458760482 L 257.4102352163288,31.339167118941326 L 255.02878771288894,31.116914537215983 L 253.18922648730953,30.370756595538676 L 252.37164369442212,29.021225355851048 L 253.05613160589672,26.983462431301817 L 251.12150250774715,22.5735138256742 L 245.8024610947069,13.691347217688973 L 242.6176909266993,9.929230947659308 L 240.64028144360444,8.498312206030862 L 238.09246530919484,7.538988226907425 L 235.49236192081185,7.459483340264798 L 233.32957030232882,8.646710305029302 L 231.30462682453063,9.367479642222246 L 228.5334014290772,8.922302822905982 L 221.66475543379835,6.653809910142387 L 219.54949769318216,6.3887760527648725 L 214.91494407480155,6.378174624243394 L 213.53646149963532,5.943508240542521 L 210.23761007146587,3.7381719703597436 L 208.16988609190156,2.8156485871720314 L 206.03086135394153,2.4763148851980694 L 196.79027460743788,3.176181921239837 L 193.08738515893324,4.544006670987683 L 190.6251300280618,4.607623266503252 L 190.9673739253877,4.098682460111659 L 191.31437131564098,3.9078250391055565 L 192.15572098905727,3.716965116337121 L 196.36246958975494,0.9704263906097683 L 201.6529907461695,0.0 L 212.5952905775521,0.15378771162222496 L 223.35696164965898,2.6035659993555207 L 229.49833934850815,3.1549742485858636 L 232.17925024750386,1.044663926431499 L 238.40143557378465,3.9608412258474623 L 243.34020596383743,7.671495233841067 L 264.7589734638815,28.550183278265884 L 259.2212761639728,29.799205456994162" fill="none" stroke="#000000" stroke-width="0.8"/>
	<path d="M 9.383188496940631,440.897965661487 L 8.969643724396233,441.10412059194545 L 6.745057982898054,439.52696982505284 L 6.535908966981044,439.0527642190868 L 9.383188496940631,440.897965661487" fill="none" stroke="#000000" stroke-width="0.8"/>
	<path d="M 3.6220819378977906,434.43370129686446 L 4.843702634303474,436.073204379093 L 4.648813746702216,436.150535331524 L 0.0,430.89119865862494 L 0.6607210309457486,431.3089133488214 L 3.6220819378977906,434.43370129686446" fill="none" stroke="#000000" stroke-width="0.8"/>
	<path d="M 38.04136639924516,180.03534421382116 L 38.298049409855714,180.12965240331113 L 38.81141531425792,181.38703908374305 L 38.55473230364738,181.29273865617066 L 38.04136639924516,180.03534421382116" fill="none" stroke="#000000" stroke-width="0.8"/>
	<path d="M 35.67893240022958,177.38399841634381 L 35.735973030315385,176.89140515004556 L 36.79122532938713,178.34817744582924 L 36.73418458248635,178.84596345928398 L 35.67893240022958,177.38399841634381" fill="none" stroke="#000000" stroke-width="0.8"/>
	<path d="M 40.21841826287455,149.59570566933903 L 40.68425028940016,150.9973523746499 L 41.016987434512956,153.7005368206129 L 40.70326379381856,154.77642770229735 L 40.456087652241955,154.20962635794163 L 39.68603873722919,154.58749627465247 L 38.24576203905562,155.0440764433426 L 38.04136639924516,153.8684858642179 L 38.85894919213258,151.92646235185723 L 38.41213067002537,151.2860648893997 L 36.83400583115914,152.78728181531426 L 35.992656040923976,153.87898258542478 L 35.369962135639774,154.8708925335209 L 35.103772489638914,156.56591109163517 L 36.334900055070726,157.583880783635 L 38.10791378154017,158.318455748971 L 39.28675409299859,159.3572939240714 L 38.844689063812915,160.03932064432541 L 35.650412143596114,159.5356730494677 L 34.30995657728036,159.4989480574043 L 33.88690505251894,158.93232320863603 L 34.238655818882705,157.05916270541792 L 35.10852586574351,154.58749627465247 L 36.681897328505144,151.85297555655706 L 38.93500344346153,149.95794137340073 L 40.21841826287455,149.59570566933903" fill="none" stroke="#000000" stroke-width="0.8"/>
	<path d="M 452.35619510525987,603.8905643896488 L 452.81252037957626,604.7430068050736 L 453.2165583999134,606.3558975666373 L 452.375208726503,607.3051874672184 L 450.92067190001563,607.346016003584 L 449.95098072129895,606.3150667106815 L 449.2664928098224,604.63071141836 L 449.12389117620233,603.6455432648586 L 449.67528420626417,603.4924032009234 L 450.36452549384336,603.722112666214 L 451.0775336619514,604.242776192154 L 450.96345240178175,603.4668798095943 L 450.3217449920772,601.3483024415112 L 450.7020160150666,601.1032455197886 L 451.2629157973435,601.9302988115995 L 452.35619510525987,603.8905643896488" fill="none" stroke="#000000" stroke-width="0.8"/>
	<path d="M 449.5659562053802,599.6941011768793 L 449.1333979284096,599.842168807842 L 448.69608615851746,599.5256089423982 L 448.876714917801,596.2779837423315 L 449.380574069994,596.5026818097 L 449.69429771068843,598.6065313103018 L 449.5659562053802,599.6941011768793" fill="none" stroke="#000000" stroke-width="0.8"/>
	<path d="M 441.88923416943095,582.6783340853435 L 442.33605269153816,583.4193865245381 L 442.9444863516857,584.9882686539543 L 442.61174920656515,585.6883427427537 L 441.7181121623566,584.5998941395143 L 440.89577599336457,582.7089990018692 L 440.4917379730294,580.8996785928172 L 440.96707686858895,580.5623267014201 L 441.66107153227273,581.8861394542473 L 441.88923416943095,582.6783340853435" fill="none" stroke="#000000" stroke-width="0.8"/>
	<path d="M 329.91679419789733,178.39430695557107 L 331.28984429029475,178.69702173287016 L 332.7544310555173,179.20153302501677 L 332.2967476913861,179.90782083282446 L 331.01523427181564,179.80692457434645 L 327.9029873957186,179.60513005772364 L 328.6352807783289,178.79792532489347 L 329.91679419789733,178.39430695557107" fill="none" stroke="#000000" stroke-width="0.8"/>
	<path d="M 323.05154373591796,180.91674676360563 L 324.3330571554864,180.8158571690749 L 325.33996055657775,181.2194115498546 L 325.1568872109257,181.9256060701654 L 323.05154373591796,182.83352250528577 L 320.76312691525817,182.83352250528577 L 319.2985401500337,183.9431249215507 L 318.0170267304672,184.1448621639988 L 317.9254900576402,183.13614933311624 L 319.75622351416683,181.9256060701654 L 321.2208102793913,181.6229552720911 L 323.05154373591796,180.91674676360563" fill="none" stroke="#000000" stroke-width="0.8"/>
</svg>
