<?xml version="1.0" ?>
<svg xmlns="http://www.w3.org/2000/svg" xmlns:ev="http://www.w3.org/2001/xml-events" xmlns:xlink="http://www.w3.org/1999/xlink" baseProfile="full" height="600px" version="1.1" viewBox="-80.41855696768343 -84.12995050437038 960.8371139353669 1005.3738363756102" width="574px">
	<defs/>
	<path d="M 450.8397940274327,1.0958947625323554 L 447.39018718529144,8.73244522202987 L 447.39018718529144,11.248071471801875 L 447.9636512221787,13.376994700875796 L 450.4339579082642,19.553439157269683 L 453.9629674842219,25.575530555737753 L 456.27446878804886,28.075431826940143 L 459.1770791143313,29.791465049393285 L 461.7444335197963,31.85833890003052 L 463.5618735205525,35.16222134876505 L 466.2968558437441,42.05836180008084 L 469.05830585869063,46.546672165328474 L 469.7376402357751,48.32943232166113 L 470.5360786282221,52.09885388703372 L 470.9683822684088,53.29085017884113 L 472.0711978355847,55.10212375896198 L 477.6999681203203,61.054970882292565 L 480.60257844659526,63.024361244133566 L 481.7671515912998,64.22646236712541 L 485.8166900767046,70.03488163991489 L 488.26935169186714,72.19973689633458 L 491.56897560185,73.85596859272914 L 493.70402636712834,75.79001165211055 L 494.68332660852946,78.94608972618222 L 495.2038555179979,85.50100684715775 L 498.2564486910762,92.24408890968456 L 508.9669927446854,101.86382305148777 L 511.2485368816089,108.92048235568633 L 511.22562780048594,108.92048235568633 L 428.6776829251439,108.92048235568633 L 427.87042193743423,108.92048235568633 L 427.98952603646774,198.54267143977512 L 428.25420178650427,198.8506613470778 L 428.42624098948124,198.9719925113997 L 442.5069891564446,205.00253992956027 L 442.98340547580597,205.55811571330375 L 443.15544460201403,206.54793531581396 L 442.5202228940499,227.5795264778543 L 442.34818369106785,228.68782736465923 L 441.9776376563716,229.53898781908273 L 441.046861426121,229.89443297368464 L 386.36926950593164,234.39908986152994 L 385.4164369439875,234.29148490344278 L 384.1592272656594,234.15113184360206 L 382.35060990909693,234.17920232502937 L 379.328895460834,235.22720858420666 L 377.62173701512324,235.37225146054092 L 375.59255657191665,234.59558820826754 L 374.22947660892805,233.0423926544878 L 371.86945149737267,229.45948161484162 L 368.59188381639336,226.8407085256563 L 367.3082066628598,225.50813034050935 L 365.005527875528,220.84745184992317 L 363.9777038011688,220.87549536318184 L 362.80430815257546,221.51583810615872 L 361.1236173356073,220.86614751913785 L 358.9047525780054,218.38451555695815 L 357.95633131310575,217.57609457614066 L 356.71235537237754,216.9125702732191 L 355.88303820651146,216.98733201972354 L 355.0978335504952,217.44525630856825 L 353.9553166741515,217.92188737863472 L 350.6865715872658,218.46863143938435 L 349.8087304609632,218.95931745349446 L 348.3221351786656,220.34267796755285 L 347.3781250572729,220.76332156854352 L 346.35471235673134,221.00636592178293 L 345.56950770071506,221.34757003578915 L 344.89017340612753,221.88042607086732 L 342.9359843217935,224.23178084574565 L 342.90510547277535,224.57306420679703 L 343.0374433861777,225.07331663357584 L 343.11684611886375,225.6063159088545 L 342.9095167698195,226.07387591286732 L 337.64246993521743,227.5093838522473 L 336.67199233861896,227.55614553603016 L 335.55594309101787,227.17270414831785 L 333.3591346651148,225.76528451031643 L 332.9753548160444,227.55614553603016 L 333.1738615709951,289.54338113592166 L 87.22395149954646,289.54338113592166 L 85.63119825967422,289.54338117924334 L 85.59612690351388,278.25993779391627 L 85.56083676165586,266.9062755425456 L 85.5255467051625,255.5714798069797 L 85.49025664866913,244.2367300030401 L 85.45496650682078,232.92069111841678 L 85.4497282837771,230.68222821635408 L 85.428498900423,221.613922476647 L 85.39320884393712,210.31635475008125 L 85.35791878744375,199.01858570070428 L 85.33145118105311,187.73922048016684 L 85.29616112455975,176.45953163690322 L 85.25204844723689,165.19809493226046 L 85.22558092621087,153.9455165906933 L 85.19029078435287,142.69243239247288 L 85.14617819239429,131.45737484889338 L 85.12949549822507,124.3802886827295 L 85.11971058601114,120.23097315273695 L 85.08442052951777,109.0131601693133 L 85.08442052951777,105.3406952574158 L 85.08442052951777,101.67841282433272 L 85.08442052951777,98.01703530474245 L 85.08442052951777,94.36582645761177 L 85.08442052951777,90.70624971194454 L 85.08442052951777,87.04757111415732 L 85.08442052951777,83.38978817324228 L 85.08442052951777,79.73289875920003 L 85.08442052951777,76.07690038623147 L 85.08442052951777,72.42179083986477 L 85.08442052951777,68.77681800017683 L 85.08442052951777,65.11422920226083 L 85.08442052951777,61.45252671556575 L 85.08442052951777,57.80095179897693 L 85.08442052951777,54.15949531011945 L 85.08442052951777,50.509670479587804 L 85.08442052951777,47.9691687541487 L 86.6513001656605,47.903546236158235 L 89.27511941161997,47.79365872826243 L 94.09221737267356,47.599676378180824 L 98.90049296898621,47.396459400879245 L 103.72641355085968,47.202482091048786 L 108.5435115972754,46.999270393283645 L 112.54893749072627,46.833008245008294 L 116.57200836974758,46.666747993706885 L 120.5774341778431,46.50048946042653 L 124.59168260676132,46.334232823684125 L 126.20620437721405,46.26034153536516 L 127.82072631838605,46.195686962036376 L 129.28526524204474,45.91859900274288 L 130.73215918012838,45.63228003770244 L 132.19669818914957,45.3459664294871 L 133.6524146626984,45.05965826634101 L 140.86041666139263,43.66513659362319 L 148.05077367451932,42.270741928082565 L 155.25877567321356,40.867240811455765 L 162.45795522180507,39.46386812966031 L 169.6747797559574,38.069855039328786 L 176.8651367690837,36.66673781686489 L 184.06431614694844,35.27297824915905 L 191.27231823100732,33.87011597060856 L 198.48032031506406,32.467381301428354 L 205.6794997782863,31.074001564093265 L 212.87867924151533,29.671521065669864 L 220.07785879010686,28.269167967551414 L 227.28586078880144,26.87616672934392 L 234.48504033738584,25.474067029755158 L 241.69304233608008,24.08131726777604 L 248.89222179930195,22.679470453008882 L 256.34725462025864,21.240864592298333 L 266.44022195966494,20.36485583427417 L 273.79820680515536,19.728627771416484 L 279.70047534781656,19.2215081897497 L 282.92951905944096,19.35981190557234 L 284.03233462661933,19.94070089778567 L 284.52639584432535,20.327972290070573 L 284.6410887199903,20.92734002165802 L 284.6322661845326,22.126144717901262 L 284.90576444245823,22.762471033221534 L 285.53216360676424,22.946918287671416 L 286.15856277107497,23.020697821437572 L 286.4320611143634,23.315819466320704 L 286.3261907741587,25.4371713344851 L 286.4320611143634,26.05518502278269 L 286.6702692304335,26.534854529265765 L 287.64956938647964,27.881698024320034 L 288.6288694571629,30.086715828930934 L 291.2050464834581,33.131818608884764 L 291.7255753929194,34.03623768427844 L 291.76968807024014,34.57153109479887 L 291.6108826026169,36.07598983099243 L 291.7255753929194,36.53750977921088 L 292.19316917496906,36.795966940025686 L 292.9607287359657,37.07289017092689 L 293.69299824047647,37.165198962962386 L 294.59289566270814,36.27905687071488 L 295.8633391476103,37.368280380699275 L 297.09849249065195,38.88224461245668 L 297.5572637372292,39.58388839078282 L 298.7218368819338,40.06397881555614 L 299.87758749116637,40.267098637910635 L 300.7510173923703,40.65488011249906 L 301.10391838410993,41.7167129983826 L 301.5803346162505,42.695510920077766 L 302.471409503022,43.397329096760814 L 302.9478258205297,44.24694139839936 L 302.2243788514867,45.678460121874664 L 305.0122963874592,48.69894234404004 L 305.8063235548536,50.57434340048826 L 304.5976377328401,52.449974892103874 L 305.35637484373365,53.66972127891331 L 306.70622097708275,57.50516642224222 L 307.376732818712,61.24912474830198 L 308.4883708359907,62.17370110234942 L 309.9970224369558,62.12747097213707 L 313.0319706244733,61.082706945556986 L 313.4113391372415,60.851574247195884 L 313.97598072402565,60.389319326662395 L 315.9963386990015,57.99506404808774 L 317.76966593707243,57.68078832883998 L 319.04010942197675,56.88588448910338 L 327.0686061944564,48.18163090431822 L 328.4096297923328,47.76594686431386 L 329.40657493394684,46.75911454704695 L 330.94169414131187,44.45935185957818 L 331.99157458106185,43.50814539349844 L 334.50599385911806,41.79058228260988 L 335.86466252792485,40.49791972579687 L 336.1293382503928,37.41443568327816 L 339.10252877501694,35.30989736323495 L 339.5965900780948,35.21759969937667 L 340.05536132467205,35.32835699812683 L 340.4611974438334,35.57756396745731 L 340.84056604196377,35.86369532395602 L 341.1581768918505,35.25451876997164 L 341.56401301100897,34.7930372851538 L 342.59624829447387,34.03623768427844 L 345.0312648387038,32.98416346899604 L 345.7017766803327,32.467381301428354 L 348.16326083096084,30.077489234752914 L 348.8602401936157,29.73610617882047 L 351.9745912003019,29.16407601208085 L 354.833088849254,27.079112738090547 L 358.92674001198884,22.080035071143033 L 361.9352205931132,20.57693755607613 L 363.63796771819773,20.337193167913874 L 365.42894011257044,20.57693755607613 L 366.3553050558281,20.862791628502475 L 367.8374891357744,21.63739005677164 L 368.60504869677106,21.794158765040958 L 369.40789839962355,21.185536277381242 L 371.83409249376757,16.91662728369123 L 373.2280512190677,15.533862578968963 L 374.48084963304194,15.06375064692837 L 377.4011050302545,15.202017332240446 L 379.28912514398996,15.570734758885237 L 380.33900549838745,16.529440825281178 L 381.80354450740117,19.35981190557234 L 382.4387662071699,19.968362858208465 L 383.00340770859196,20.22654317346908 L 383.4004212922856,20.74291667650809 L 383.55040413907926,22.126144717901262 L 386.4618370861912,24.837629406948462 L 387.5558300325394,24.57014895357479 L 391.4818531921837,24.16432535202905 L 392.346460557927,23.95219450439091 L 392.61995881585295,23.417268773113697 L 393.81982201704375,21.98781636707519 L 394.09332027496976,21.489844493996245 L 394.4021085893887,21.305414557080695 L 398.71632279726856,16.133045603280447 L 399.9867661968011,14.980791153231358 L 402.9246667503037,13.109711429904563 L 405.21852289784306,10.169896375074359 L 405.67729414442033,9.810521175406487 L 406.31251592955374,9.432725451747679 L 407.05360788415976,9.128652522698752 L 407.8388125160893,8.999653699202508 L 408.5622593997699,8.723231205718804 L 409.0916109300682,7.460963860873231 L 409.6209623749947,7.175355527530278 L 411.3678220920371,6.797623330792148 L 413.37053499608254,5.120971083977842 L 414.84389645519934,4.743288404797797 L 416.49370853823683,4.614325696991201 L 422.78416804376894,2.560276826955479 L 423.33998700972364,2.2563372152845727 L 423.98403124495974,1.620846180128088 L 424.27517457380867,1.022218762911826 L 424.68101060760506,0.5893792503866402 L 425.6161981716997,0.43282328656324054 L 425.08684672677356,1.7037348727509247 L 425.9867442343677,2.3023882583791124 L 426.54256320032204,3.076066493125668 L 427.2395425629748,3.4444980339433413 L 428.53645365426974,2.8642222327173705 L 429.268723073418,3.9142608511524974 L 430.345070948834,3.7392495654044464 L 432.7183299155521,2.2563372152845727 L 433.5300021538716,4.089274178238175 L 436.1679367576861,4.006372889887446 L 438.9823219000486,2.8273799979551204 L 441.80552949251694,0.0 L 445.2374913490877,0.046044432000725166 L 450.8397940274327,1.0958947625323554" fill="none" stroke="#000000" stroke-width="0.8371139353668695"/>
	<path d="M 511.2485368816089,108.92048235568633 L 511.2784940485123,109.0131601693133 L 510.98735071965376,110.86828773955169 L 509.59339199435357,114.19882764304297 L 509.31989373642045,116.0360496374552 L 509.63750458630466,118.19832736592512 L 510.31683896339166,119.88753833170296 L 512.4165995868191,123.4522265799042 L 515.0015991485795,126.86920096437959 L 516.9601994606638,130.81642979767872 L 525.1475016154071,153.9641240246008 L 527.3001974516079,157.2114856431705 L 530.6262889679743,159.28683159509941 L 534.4376192519534,160.30134756383552 L 539.0076866468266,160.39442605038923 L 539.9340516754536,160.8225947433138 L 540.7633688993413,161.44625460338662 L 541.433880740961,162.1537224459548 L 542.2808430357738,163.31739695329878 L 542.4925836308233,164.04357781451637 L 541.8838294520806,165.92437124332136 L 541.2662527378798,167.04179130796825 L 540.7016112364502,167.33978479452895 L 540.675143630067,167.49809628317269 L 541.7162015343542,168.19655064655026 L 542.3955358260766,168.49456813267705 L 544.9893578379398,168.96023298010337 L 546.9126680935378,169.99406328830344 L 549.2682819893234,173.64566740525242 L 550.8916263805985,175.17365710924392 L 552.4620356444569,175.78862608324835 L 555.8322397527816,176.56203393151586 L 557.4644066795239,177.2236571122899 L 560.914013521658,179.46035801693864 L 562.3697299098493,180.97033037691648 L 563.093176878895,182.65758846738078 L 563.7019310576377,184.69934616913366 L 564.866504202328,185.9114876700058 L 566.4457360016515,186.6201723024957 L 570.3188239485146,187.72989470061265 L 571.545154756096,188.42001819935348 L 571.8325751102874,188.72958394026142 L 572.4803423201811,189.42728580940815 L 573.662560535811,191.050257028582 L 574.968294162564,192.39354690067051 L 576.4240105507575,193.1585329401038 L 578.1179351403815,193.49439370090977 L 580.1382931153523,193.51305288685137 L 583.3320467704905,194.11015907343042 L 592.9927104697051,199.027918864177 L 596.0673600241211,199.59725834915673 L 598.9038014624691,199.55992394833734 L 601.6652513920509,199.85860229515865 L 604.5237492117369,201.4361024561502 L 605.3001312228438,202.32294081414017 L 606.7734927673156,204.414234541841 L 607.699857795945,205.17053809115026 L 608.74973815034,205.56271154100358 L 609.614345430714,205.61873720336825 L 610.4613077255269,205.53469874872366 L 611.5023656298213,205.57204906054218 L 613.2977492492373,205.86151769468194 L 615.0754877123587,206.3844439706669 L 616.6150182301388,207.34630572680393 L 617.7354787828824,208.92464940981483 L 622.0982168077659,220.10891949501186 L 623.6333359297668,230.72220846787332 L 622.3011347819784,243.7872804541084 L 622.5956319157551,249.83495049823685 L 620.7839305204194,254.96555215814215 L 618.9722291250789,262.6650748091621 L 617.764428169266,269.084675888009 L 617.764428169266,275.5073199008414 L 618.9722291250789,284.50415799853994 L 622.5956319157551,289.6479108539307 L 625.6151342669039,295.4369922472765 L 629.2385370575748,304.44721702738957 L 632.2580393319549,312.8193175529257 L 634.0697407272954,321.1967081823584 L 637.0892430784442,326.99955395442026 L 641.3165463086375,332.1597867292428 L 647.9594514504621,335.38596167364 L 653.9984561527599,335.38596167364 L 661.2452617341071,337.322047640833 L 666.6803659201134,336.67665390141167 L 672.7193705456473,336.67665390141167 L 677.5505742921315,339.258419763743 L 683.9352867791988,339.81225116911173 L 684.9719333730756,340.93455686840525 L 686.1673854345784,341.7268305136554 L 687.5613441598882,342.1795798546273 L 692.5019575320716,342.490854197926 L 698.8982873778014,343.7643262200117 L 709.0706574510192,343.91526458083723 L 712.2335322747166,344.519035014421 L 715.6346152144848,345.6889197386073 L 722.5779415760661,349.29357924768686 L 724.4130265623928,349.7088395679371 L 725.8466866546012,349.4445814271755 L 727.2053553234155,348.9066439067924 L 730.2094247648544,348.1328077875768 L 731.100499566254,347.6987246999858 L 732.0445097511711,347.53830641891886 L 734.7706695388973,348.2554860351307 L 737.3115565086966,348.5008459947619 L 738.5070084848445,348.88776928381884 L 741.8110437052279,351.50216169596894 L 745.7194217085846,352.7387539907542 L 758.2385831421199,358.57403652954434 L 760.8147601684126,359.2634907522552 L 766.0112267275987,359.57517392047373 L 768.4815334136873,360.1702261118436 L 770.0078300002268,361.19037929312776 L 773.4221468712325,362.27674175221847 L 774.8337505821031,363.3820911530163 L 775.0366686416849,365.1395075060862 L 773.9956108227548,367.2751845627547 L 772.5840070265224,369.4773806186446 L 771.6488194624349,371.443607197285 L 771.2959185560572,375.3107644962005 L 771.9576077768538,379.1885438367804 L 773.5765410284409,382.6795465094056 L 776.1571291944241,385.43328421337804 L 779.3332377786318,387.09906240970923 L 782.4828788418117,387.657525317186 L 790.5466656707769,387.41142000682413 L 790.9789693963289,387.69538804355784 L 791.8082866202188,388.73665809143716 L 792.2758804022592,389.56026817949004 L 792.9375696230583,391.36860961794105 L 793.4757436034521,392.2207965023606 L 800.0,397.8656047806248 L 798.416356975628,398.4245389702107 L 795.9725178959286,398.18769941706813 L 791.3054026963187,397.1835488643722 L 789.0733042116608,397.448788388735 L 787.4279035244031,398.576118498075 L 786.0471784742485,399.78882036977836 L 784.5297044231808,400.3667892923626 L 774.1985288823322,400.94478448528486 L 773.4221468712325,401.27643289829433 L 771.63999692697,403.7024675259718 L 771.657641997895,404.128966832584 L 770.3519084565048,404.8967017718604 L 768.7285640652294,406.60294549873004 L 766.7214399361263,409.19118680094755 L 767.3787179318807,415.6309039632913 L 766.9905268836447,416.712415318719 L 766.1435645888315,417.4998898432556 L 764.1761417412727,421.18174836919246 L 762.6498451547392,422.35865167091663 L 758.966441421578,421.9220456476013 L 757.021074870004,422.01695874044543 L 756.1829351106585,423.23190906048893 L 755.7065188785108,424.9880993769441 L 754.4801879855668,425.9659764974763 L 752.7686183250178,426.45019623916687 L 750.8894207467325,426.7445350282375 L 747.1839607175983,427.8934717525056 L 741.0081940023732,431.38840496533845 L 738.0085358713516,432.3857792247427 L 735.732324624018,432.3762800356494 L 734.056045105317,432.1293040141323 L 732.5429822792921,432.4047776245457 L 730.7211311388479,433.9912435440926 L 729.3536398492113,434.40926802215836 L 723.9674890763233,433.01274070947636 L 716.9227037703049,433.5067326372727 L 713.6539586064074,434.39026658165636 L 710.5175513891074,436.1575216696389 L 709.2382853687454,437.2598072183162 L 706.1415795183465,440.91895157155085 L 705.2990284485837,441.4037498250188 L 703.2213241211389,441.61288429928385 L 702.2949590925191,441.86955409711453 L 701.5009319251246,442.392416420942 L 698.8100621938917,445.79631053117674 L 698.3865810038006,446.6712045119593 L 698.2189530007169,447.8600175313792 L 698.3865810038006,448.98236133474256 L 698.6424341908083,449.6957681075202 L 698.6247891198757,450.42824167457024 L 697.9807448846467,451.6269277583316 L 697.2043627881777,452.3404864521636 L 696.330932972336,452.6734944667059 L 695.4751480566958,452.8733035623682 L 694.7781687794055,453.23487109216467 L 694.4164452522052,453.7772420884386 L 693.9488514701602,455.18561439069873 L 693.6047730138854,455.7471046857983 L 692.3343296143432,456.28958553543606 L 690.3669067667936,456.86064369520767 L 688.7788524320044,457.6030586810259 L 688.6288695852089,458.6025335897225 L 689.3611390043498,460.5731635544425 L 688.9994155625116,462.6202853032685 L 687.9495352081242,464.46774672123 L 686.6173340603358,465.8678113801469 L 685.4615834511036,466.62029251825146 L 683.8470615952866,467.44902757914224 L 682.0560892862853,468.1158662219736 L 680.415099824078,468.3826117758031 L 679.4181545971064,469.2972118440054 L 679.4534447389623,471.4029554573528 L 680.1504240162551,475.3104929532704 L 678.7829328973427,477.8939618703361 L 675.8362098937398,479.96303547060126 L 672.2719102613033,481.45069577818333 L 669.0252213933815,482.289968401781 L 669.5810404447011,483.9782249707617 L 668.2311943113494,484.47425418783826 L 666.3961093250324,484.3502450226292 L 665.4785668318704,484.17854202726596 L 665.2668262368284,484.90352646849965 L 665.5138568883636,485.6190136359722 L 665.8932254864969,486.2582177230771 L 666.0608534042228,486.7066344253034 L 666.2328926323563,486.9737841209519 L 666.6034386096596,487.37451969989144 L 666.7666553023354,487.7466429443857 L 666.3652304935845,487.908854114209 L 666.2549489283347,488.03289945124544 L 665.6109046930957,488.54817781838136 L 665.4785668318704,488.595889853316 L 664.2169459677959,492.14619037973586 L 663.7228845793627,493.00528913446686 L 662.487731236314,493.635333489586 L 661.3408031625415,493.0912023655547 L 659.0116567877892,490.4854374984257 L 655.623807608532,493.25348464652564 L 654.6312736919756,493.635333489586 L 653.4622892368706,493.25348464652564 L 652.2447809647472,492.66164235383894 L 651.2919484150914,492.633005612999 L 650.5420338396581,495.2105865638991 L 648.9363345193062,496.98657069509284 L 648.5657885420029,498.39990443631876 L 648.495208343654,498.9251716891685 L 648.3099352696381,499.4504615306042 L 648.0143808011012,499.85160733501436 L 647.6967699512142,500.00442816386476 L 647.4762068207069,500.2527662805718 L 647.6129559069924,500.86408156963165 L 647.8555753334755,501.5996111037851 L 647.9923244197539,502.2109941471611 L 647.5070856521477,504.2841940350645 L 646.2454647027112,505.94683139017684 L 644.5338950421617,507.0840535891284 L 642.6899876057323,507.63836874462413 L 639.1433329588588,507.76261523495236 L 638.0316949415801,508.21182473474283 L 637.2200227032678,509.1198523495732 L 636.5230434259678,510.1808972922212 L 635.6849035812598,510.74491393647105 L 634.485040380069,510.1044223819934 L 635.1114395443726,508.7661913907422 L 634.4321051672881,508.5845857617752 L 633.1793068386785,509.02426734830567 L 632.1470715552136,509.5308767846666 L 631.9000409036782,510.0661852005323 L 631.0883686653513,511.14643320511925 L 630.2237612996151,511.6531315592988 L 629.2665175249074,508.78530796032857 L 628.0357754069183,509.79852803422216 L 626.0242399674003,513.0012433654832 L 624.6214586212777,514.3590682845221 L 623.1304520912283,515.4588270847316 L 619.8528844772303,517.1038705966934 L 616.6767758076651,518.0890910854475 L 615.737177103882,519.1796232576021 L 616.9458628405334,520.9591243131271 L 616.0900780102625,521.3322788487255 L 615.3225184492584,521.3514152214615 L 614.6431840721714,521.0069639591447 L 614.025607443333,520.2702539678511 L 613.813866848284,520.8251742406595 L 613.1786451485127,521.5906233249053 L 612.8080990858547,522.2221554432756 L 612.11994225866,521.3705517171625 L 611.1406421026114,520.9878280409202 L 610.2672122867725,521.1409160525392 L 609.8966662241073,521.8776791896664 L 610.2672122867725,523.0164019701776 L 610.9730140995305,523.6288687596849 L 611.440607881573,524.2222256584399 L 611.0612393688048,525.3228846403043 L 610.0113590144073,524.6720480429649 L 609.0673490002196,524.7773279959056 L 608.2468543117969,525.4664562766184 L 607.56751993471,526.5863738388805 L 608.1409839715973,526.5863738388805 L 606.5705747931034,527.7159690502817 L 606.0765134046632,528.2712328242158 L 605.811837682202,529.1233252206395 L 605.2295511098571,528.7595030426252 L 604.6428532270899,528.4914306250877 L 604.7796023133753,530.3297618215855 L 605.3177762937693,531.948109382772 L 605.3707115065502,533.2793398226218 L 604.0649778797875,534.2371511421801 L 602.6004389561384,534.1701017734204 L 601.9387497353465,533.154830002076 L 601.4623334178389,532.0247228751167 L 600.5712584457027,531.6512363750201 L 599.7463525322297,532.3311821098048 L 598.2421121563078,536.1434234247764 L 596.5878889335895,539.0848510790194 L 596.1511739829878,540.8193869954084 L 596.3635820323294,541.7213870539754 L 596.3453385102464,541.7251621027256 L 595.8821559284899,541.821007432463 L 594.2499889951846,542.0366621743375 L 593.1780523342073,542.9664185333388 L 591.1665169256497,545.6794205194028 L 590.906252472662,545.1664912205351 L 590.2445632127237,544.2078040510571 L 590.0019437943807,543.7189031812095 L 589.3181981259801,545.4397311935254 L 588.4624133313667,546.8779395248595 L 586.5038130267568,549.4767427559892 L 586.172968435172,550.128930031144 L 585.6833183014469,551.5820934764484 L 585.3392398954886,552.0137603812095 L 584.6775505587815,552.1288741132403 L 583.0718512542238,551.8746658997792 L 582.4233957318859,552.0137603812095 L 580.2795224099254,554.0955739899283 L 576.3093866199944,559.056942273393 L 576.1770487833606,559.1385295603394 L 575.9211956274173,559.7480518767834 L 575.6168185110376,560.0792226878089 L 575.2727401050794,560.3528057444746 L 515.7692276003448,524.9592522880058 L 504.2602451142617,508.6898002163123 L 500.43126983182196,504.8671213505132 L 492.90565695004335,502.4355687135479 L 491.80725266031806,501.9388084775714 L 491.11909584841084,501.279677071507 L 466.16458698009205,468.1969164080142 L 333.1738615709951,289.54338113592166 L 332.9753548160444,227.55614553603016 L 333.3591346651148,225.76528451031643 L 335.55594309101787,227.17270414831785 L 336.67199233861896,227.55614553603016 L 337.64246993521743,227.5093838522473 L 342.9095167698195,226.07387591286732 L 343.11684611886375,225.6063159088545 L 343.0374433861777,225.07331663357584 L 342.90510547277535,224.57306420679703 L 342.9359843217935,224.23178084574565 L 344.89017340612753,221.88042607086732 L 345.56950770071506,221.34757003578915 L 346.35471235673134,221.00636592178293 L 347.3781250572729,220.76332156854352 L 348.3221351786656,220.34267796755285 L 349.8087304609632,218.95931745349446 L 350.6865715872658,218.46863143938435 L 353.9553166741515,217.92188737863472 L 355.0978335504952,217.44525630856825 L 355.88303820651146,216.98733201972354 L 356.71235537237754,216.9125702732191 L 357.95633131310575,217.57609457614066 L 358.9047525780054,218.38451555695815 L 361.1236173356073,220.86614751913785 L 362.80430815257546,221.51583810615872 L 363.9777038011688,220.87549536318184 L 365.005527875528,220.84745184992317 L 367.3082066628598,225.50813034050935 L 368.59188381639336,226.8407085256563 L 371.86945149737267,229.45948161484162 L 374.22947660892805,233.0423926544878 L 375.59255657191665,234.59558820826754 L 377.62173701512324,235.37225146054092 L 379.328895460834,235.22720858420666 L 382.35060990909693,234.17920232502937 L 384.1592272656594,234.15113184360206 L 385.4164369439875,234.29148490344278 L 386.36926950593164,234.39908986152994 L 441.046861426121,229.89443297368464 L 441.9776376563716,229.53898781908273 L 442.34818369106785,228.68782736465923 L 442.5202228940499,227.5795264778543 L 443.15544460201403,206.54793531581396 L 442.98340547580597,205.55811571330375 L 442.5069891564446,205.00253992956027 L 428.42624098948124,198.9719925113997 L 428.25420178650427,198.8506613470778 L 427.98952603646774,198.54267143977512 L 427.87042193743423,108.92048235568633 L 428.6776829251439,108.92048235568633 L 511.22562780048594,108.92048235568633 L 511.2485368816089,108.92048235568633 M 671.3934038375996,380.40209898902793 L 672.1128971182045,380.18406632715903 L 672.8011081289872,379.68092818242155 L 673.9898361478015,379.2616614145349 L 674.3183005182822,378.4231690202073 L 674.4121474045072,377.61826775471036 L 674.756252909901,377.1655329815847 L 674.5529178490001,376.8301840818097 L 673.7865010869009,376.3271772551327 L 673.8959891848033,375.43857993018275 L 673.9898361478015,374.8015101475054 L 673.6770129889939,373.87949134244815 L 673.3172663486912,373.5107022931095 L 672.4257202770075,373.79567468822177 L 672.019050155211,374.6506298054149 L 671.9564855388029,375.2709269421897 L 671.2995568746056,376.0253826359391 L 671.2995568746056,376.88048585501315 L 670.4236520145997,377.29967492515476 L 669.8918525832134,377.3835144124837 L 669.2974885354243,377.1319976732649 L 668.3590190590099,377.60149954015435 L 668.3433778473326,378.0207120439654 L 668.5623541199105,378.3225535942858 L 668.6874833527264,378.77532913439046 L 668.3746601939184,379.3287432367644 L 668.4059425405093,380.0163514212778 L 668.5779952548194,380.4859587293046 L 669.4695413265031,380.30146813915394 L 670.1890346071079,379.7312411178379 L 670.8459632713048,379.8486387064447 L 671.3934038375996,380.40209898902793 M 530.6527932917917,249.47535247980562 L 526.2905381656581,248.40361903410405 L 524.8124187121354,248.21224690438817 L 524.3076949962968,250.31748757615523 L 526.542900100346,251.42765397007454 L 531.1214653904061,252.72934326075836 L 535.5558239045167,253.11221662763296 L 535.880289150413,249.5519080741493 L 533.9334975982713,248.86292305879857 L 531.950654352141,249.1691343032252 L 530.6527932917917,249.47535247980562" fill="none" stroke="#000000" stroke-width="0.8371139353668695"/>
	<path d="M 628.4769015825652,241.72749131991392 L 638.1375651964228,241.75557731204168 L 644.9838438386363,242.63563297589116 L 649.827409406078,241.75557731204168 L 652.8094225515314,243.1412224143093 L 656.2413843227425,243.18803716102494 L 657.7588584591796,243.81537056873688 L 658.9851892667635,244.99520957544294 L 659.6204109665323,246.58721661630088 L 659.3689690045748,250.16522535992658 L 658.3234998752374,253.36936746971872 L 657.6485768085605,256.62112234981305 L 659.770393813321,263.82085023853585 L 659.9644893374375,267.45028344074626 L 658.6675784168768,274.80591420408257 L 658.20880708493,275.82888894248356 L 657.5912304560912,276.60790320964935 L 657.0971691530209,277.4338952179689 L 656.9912988128137,278.6354284572769 L 657.0177664192043,279.66808158948976 L 656.8060258241624,281.7054566143987 L 656.810437049205,282.59749201952224 L 657.4677151303235,287.69731463878674 L 657.3486110296063,289.61377056454853 L 656.3119645210913,294.4343048796983 L 656.2943194501663,296.0227363348662 L 656.9912988128137,297.74296677807575 L 659.9291992809442,301.7765068777783 L 661.2261103722391,303.15890970687616 L 667.1548463505638,307.5045389219772 L 669.6957332350082,310.6282494756608 L 671.8748966776026,314.0821225145093 L 674.9363124715078,317.77226775512304 L 675.7391621743625,319.06217864157384 L 675.933257698479,319.79663662741876 L 675.8891450211562,321.209170613778 L 676.0303054178564,321.89665859390806 L 676.5773019337155,322.7442956315575 L 677.9712606590157,324.2419210202479 L 680.5033250079877,329.45196902187837 L 680.7415332094274,330.3943318262862 L 680.4548011909861,331.1105726387086 L 679.797523109875,332.20385764895474 L 679.6210726566907,333.0710105380142 L 679.9166272105922,333.2406776166313 L 680.5209700789202,333.43862525257214 L 680.8650484498329,333.96650021068626 L 680.4239222741807,335.14486921991715 L 680.7591781949978,336.0310725339612 L 681.1738368496144,336.12535294151684 L 681.654664477539,336.0310725339612 L 682.2413622749369,336.38934183617147 L 682.6824884505963,337.13419643041607 L 683.4500480969551,338.99180296427727 L 683.9352867791988,339.81225116911173 L 677.5505742921315,339.258419763743 L 672.7193705456473,336.67665390141167 L 666.6803659201134,336.67665390141167 L 661.2452617341071,337.322047640833 L 653.9984561527599,335.38596167364 L 647.9594514504621,335.38596167364 L 641.3165463086375,332.1597867292428 L 637.0892430784442,326.99955395442026 L 634.0697407272954,321.1967081823584 L 632.2580393319549,312.8193175529257 L 629.2385370575748,304.44721702738957 L 625.6151342669039,295.4369922472765 L 622.5956319157551,289.6479108539307 L 618.9722291250789,284.50415799853994 L 617.764428169266,275.5073199008414 L 617.764428169266,269.084675888009 L 618.9722291250789,262.6650748091621 L 620.7839305204194,254.96555215814215 L 622.5956319157551,249.83495049823685 L 622.3011347819784,243.7872804541084 L 625.5125335934066,242.1206998910961 L 628.4769015825652,241.72749131991392 M 645.3716414441808,309.1782060840738 L 646.8302998936892,308.8067253661656 L 647.1350941725119,308.2495238882617 L 646.9826970714826,307.62270011150207 L 646.8738419335216,306.5780594411229 L 646.9826970714826,305.4638665453347 L 646.6343606760634,304.76754333218895 L 645.8070619192653,304.3961858901459 L 645.3498704626489,304.1408836165899 L 645.0015340672251,302.7948254224071 L 645.5022675636736,301.54172097423526 L 646.4384215352063,300.79919623726823 L 646.5255056148662,300.0103089154912 L 646.0030010601223,299.3142705921481 L 645.2845573645159,299.2678693334515 L 644.4790295892496,299.7086878457478 L 642.6284927044848,300.6599773698765 L 641.6705677514205,300.8920095683418 L 641.0174370771787,301.95940939387197 L 640.5167035807301,302.65558579421014 L 639.4281525081727,303.49104539304085 L 638.557311634773,303.72312688532935 L 638.5137695949408,304.04804765479145 L 638.6226247329064,304.7211230853777 L 638.1436622179897,305.2085437926024 L 637.5558446418809,305.55671238246487 L 637.2292793047575,306.5084196149965 L 637.1639662066244,307.62270011150207 L 637.5123026020483,308.29595645226715 L 638.9491899932559,308.69063983874554 L 640.865039976154,308.7602910170952 L 641.3440024143017,307.62270011150207 L 642.6502637627851,307.9245004011005 L 645.0015340672251,309.15498819901273 L 645.3716414441808,309.1782060840738" fill="none" stroke="#000000" stroke-width="0.8371139353668695"/>
	<path d="M 596.3635820323294,541.7213870539754 L 596.5393650312166,542.4679086278693 L 594.1087597120293,546.8922476103437 L 594.6954575094318,548.7813605018576 L 594.3690241240824,551.2846571262903 L 588.3697079474059,575.9622389196659 L 588.2020799443251,580.1058304676909 L 586.5610904821174,588.272311068317 L 585.6611931452503,589.8985911787345 L 584.3025243910714,591.1304803941846 L 582.5115520820705,592.1411112764943 L 574.9771166126596,594.5862370593919 L 573.1773217682006,595.577910261559 L 572.42299588235,596.9644684175666 L 567.2485857045037,602.3678401751736 L 561.690395618127,605.9811180088726 L 559.3700718641899,607.8893817346757 L 557.2261984780913,610.7041608330297 L 554.7294242709681,617.338945260977 L 554.1030251066642,618.4097390145786 L 548.5448350202778,624.1416185733399 L 548.5140250768791,624.1367157437637 L 546.6038797791189,623.832757918171 L 545.0599380362886,623.6976340036141 L 543.4365936450135,623.3212257641426 L 541.8308943246617,623.1668053779764 L 537.8254685165658,623.7362406349248 L 528.1898771447392,626.760135716335 L 528.1825187647142,626.7480347597918 L 527.4105479230672,625.4785766970704 L 523.6256851504819,621.8688661319273 L 516.8744511985728,617.2426228032235 L 509.8625478374981,612.4397141405288 L 508.4730003225358,611.5140935855773 L 506.7746645476869,610.6608524617486 L 505.83506572333835,610.4439368102063 L 505.0145709212598,609.7546538360207 L 504.4455182083764,607.9328303024089 L 504.3131803717423,605.2777205650635 L 505.530688606959,600.0367419300604 L 506.58939153033646,597.3112088800949 L 507.7274970328624,595.22174372807 L 510.32573041925417,581.6060342394009 L 515.7692276003448,524.9592522880058 L 575.2727401050794,560.3528057444746 L 575.6168185110376,560.0792226878089 L 575.9211956274173,559.7480518767834 L 576.1770487833606,559.1385295603394 L 576.3093866199944,559.056942273393 L 580.2795224099254,554.0955739899283 L 582.4233957318859,552.0137603812095 L 583.0718512542238,551.8746658997792 L 584.6775505587815,552.1288741132403 L 585.3392398954886,552.0137603812095 L 585.6833183014469,551.5820934764484 L 586.172968435172,550.128930031144 L 586.5038130267568,549.4767427559892 L 588.4624133313667,546.8779395248595 L 589.3181981259801,545.4397311935254 L 590.0019437943807,543.7189031812095 L 590.2445632127237,544.2078040510571 L 590.906252472662,545.1664912205351 L 591.1665169256497,545.6794205194028 L 593.1780523342073,542.9664185333388 L 594.2499889951846,542.0366621743375 L 595.8821559284899,541.821007432463 L 596.3453385102464,541.7251621027256 L 596.3635820323294,541.7213870539754" fill="none" stroke="#000000" stroke-width="0.8371139353668695"/>
	<path d="M 528.1898771447392,626.760135716335 L 515.1868721372311,630.8420694084111 L 512.4165995868191,632.880011076486 L 511.128511116354,633.5561852931671 L 506.74371679548995,633.3919677884564 L 503.9293315677625,634.3579861295478 L 503.2764648824308,634.4739138382313 L 502.7912260294557,634.9183139250345 L 502.6677107036877,637.2082133152728 L 503.5499631403564,644.0419797689569 L 503.5058504630407,647.8134124804121 L 502.605953040804,650.8217803195688 L 500.1180012837835,656.5311528009557 L 499.9591959015225,660.0162434769393 L 497.3741963397696,664.5581442135544 L 495.49499876148684,670.7977457665036 L 488.03114357579665,687.5570564960151 L 485.30498370270817,699.7736974815897 L 484.3923677716569,701.9664797454845 L 484.36545380827465,701.9553291442074 L 475.4635271491344,698.2678247873764 L 475.0003446441469,697.2574952386233 L 474.960643277804,696.1986898933404 L 484.7227660286021,662.0643076421547 L 484.9742079642648,660.795770151627 L 484.9874417786386,659.5564195985069 L 484.16253575627485,659.1739910371858 L 483.0376639913537,659.0723350103599 L 480.69528383767414,659.1933542690834 L 479.96742565941906,659.1207425088805 L 479.8218540084161,658.723806845786 L 479.78215264206824,658.5785899478726 L 482.52154630564957,650.3623271878253 L 482.9714949962683,647.929551816263 L 482.8523909740033,646.6819276832358 L 483.6331843329751,645.8889349744823 L 484.6962983998595,644.5303373638648 L 485.71529995689406,643.5344572131909 L 487.3298217787764,636.874920675881 L 499.9361580483562,623.1978330265076 L 500.3903363239317,625.8409559134636 L 500.78256904785843,629.1675336674298 L 501.86120909624105,631.2068787901793 L 504.77012478589813,631.9291391674462 L 506.76411810696175,631.3142227744406 L 510.3922707457202,631.0995358071306 L 512.5495506889433,628.0943391067639 L 512.5495506889433,625.7336629115906 L 516.7660524519816,619.405141483787 L 516.8744511985728,617.2426228032235 L 523.6256851504819,621.8688661319273 L 527.4105479230672,625.4785766970704 L 528.1825187647142,626.7480347597918 L 528.1898771447392,626.760135716335 M 487.3458779265981,675.6497967061297 L 487.1996373110152,674.6855582792818 L 486.79016374093004,674.5891389240476 L 486.46843454018847,675.456942375905 L 486.00046472386794,677.0963084670425 L 485.97121660075004,678.5430054939204 L 485.678735523126,679.6040343778736 L 484.97678079864824,680.600849384417 L 484.94753267553034,680.8581062617916 L 485.85422418505823,680.7616342138411 L 486.76091561781254,680.472223102707 L 487.3458779265981,680.8902637943969 L 488.34031372870066,680.407910596004 L 488.8667797144827,679.5075731325192 L 488.8375315913698,678.5751564324524 L 488.10632882054307,678.6073074625166 L 487.87234391238013,678.0607525664732 L 488.4573061443975,677.578520226067 L 488.36956185181816,677.1284552886968 L 488.8960278376002,676.5498267421581 L 488.486554267515,676.131946754907 L 488.34031372870066,675.456942375905 L 487.3458779265981,675.6497967061297" fill="none" stroke="#000000" stroke-width="0.8371139353668695"/>
	<path d="M 484.3923677716569,701.9664797454845 L 480.6378685030886,710.9921058055158 L 478.7939609813042,716.6639282432973 L 467.7966849946158,725.2988211729353 L 461.65620833587695,728.3474619899283 L 443.84353253841573,730.2082268387624 L 440.2704104558786,729.5749471752 L 436.37085481726285,728.3572033188439 L 433.08005344275233,727.8116975650431 L 429.79807451833705,728.2987550968268 L 425.92498648611905,730.1692546843938 L 420.8432128026,734.0573981595145 L 419.14928812761144,734.7689107895745 L 414.0586919086419,736.1238353097302 L 411.4736923468818,736.4260353129703 L 409.0916109300682,735.8021474919681 L 406.2948707732662,735.1685474716317 L 400.0661689306177,735.870383504736 L 397.0488658140328,735.188042246916 L 392.53173354657866,732.09853861216 L 386.055188395408,729.6958106961274 L 384.8473841543352,721.6620786097322 L 382.5799955130708,719.8854850870208 L 378.6451498692023,719.5934695568569 L 377.321771272557,719.1895273232727 L 367.4670120514676,709.222152293629 L 364.67027198689874,705.5516945673504 L 363.3071920239055,660.8974415787777 L 362.923412251609,658.8545036042049 L 362.0235148703766,657.3007609226158 L 360.9251105806566,655.8536957712779 L 351.04388380759286,645.5891593355727 L 349.7028601762985,644.5400065204489 L 348.39271539402694,644.1532463744645 L 347.0693367973816,644.0033803018086 L 265.20954873395186,644.4964953380507 L 263.934694020974,644.3659628672707 L 262.75688715210515,644.0517240253018 L 262.30693838471825,643.1090590701597 L 262.1481329193461,641.9392957957047 L 262.4922114020687,565.1103200387208 L 397.9044431757948,608.1247614053707 L 397.73249371571006,626.7115522785502 L 413.3480425342959,625.9373855311144 L 412.7532663908158,612.8512257152017 L 468.5069670570034,630.6151924966879 L 478.5867006617815,636.2371997896569 L 480.11299723365306,636.5995367814553 L 487.3298217787764,636.874920675881 L 485.71529995689406,643.5344572131909 L 484.6962983998595,644.5303373638648 L 483.6331843329751,645.8889349744823 L 482.8523909740033,646.6819276832358 L 482.9714949962683,647.929551816263 L 482.52154630564957,650.3623271878253 L 479.78215264206824,658.5785899478726 L 479.8218540084161,658.723806845786 L 479.96742565941906,659.1207425088805 L 480.69528383767414,659.1933542690834 L 483.0376639913537,659.0723350103599 L 484.16253575627485,659.1739910371858 L 484.9874417786386,659.5564195985069 L 484.9742079642648,660.795770151627 L 484.7227660286021,662.0643076421547 L 474.960643277804,696.1986898933404 L 475.0003446441469,697.2574952386233 L 475.4635271491344,698.2678247873764 L 484.36545380827465,701.9553291442074 L 484.3923677716569,701.9664797454845" fill="none" stroke="#000000" stroke-width="0.8371139353668695"/>
	<path d="M 52.802805521886405,699.1032825022077 L 52.52048472849557,697.2574192910498 L 52.044068496354974,696.3928827391886 L 49.54729428922637,695.2661709839915 L 48.13569040763648,694.3435171621388 L 47.58869397713952,693.3044082459343 L 47.02405239035749,690.3818234445076 L 46.671151483977425,689.6440151557131 L 45.78007651185098,688.4306199070477 L 45.42717560547305,687.7705879730612 L 45.41835298464321,687.0620672932522 L 45.79772158277641,686.5379847631913 L 46.11533243266061,685.9654040861903 L 45.93005944400893,685.0823280739561 L 45.37424039269248,684.5098212955988 L 43.83029873522434,683.714182201144 L 43.29212484019473,683.1611490292074 L 43.12449683710421,682.5499334247229 L 42.96569145484282,680.0957029726363 L 41.32470199263552,679.4555567018858 L 39.73664765785381,678.485707200886 L 38.933797955001666,677.2153304352348 L 39.683712530435365,675.6445276144287 L 39.816050391663246,674.2678304945136 L 38.88968536304094,672.2418697844709 L 36.57818414457115,668.5883018062598 L 33.90495939889895,662.8050847525984 L 32.99623944120208,661.5945661627945 L 21.968084537708283,652.4955882591969 L 15.448239280846249,648.5291580811955 L 14.57480946500487,648.2776748355816 L 12.81030476239454,648.16160743228 L 11.998632524074683,647.9391483983378 L 11.054622509884435,647.2814684806252 L 8.769588727085672,644.6898040775233 L 4.34950426436358,641.1900543167411 L 2.7438049440214267,638.6480885531948 L 1.2439758785068689,637.5077698086121 L 0.688156827187558,636.8506883979131 L 0.26467572245862,635.3240855721822 L 0.2558531870005472,619.2490790605548 L 0.2382082014326094,603.2060206764609 L 0.21174050967768868,587.1946640221186 L 0.20291805957460826,571.1859396830241 L 0.1852729886516781,555.2085076708871 L 0.18239881209672404,552.6087612080715 L 0.1676279177191067,539.2573351290107 L 0.14998293215831057,523.3226314232969 L 0.13233786122573915,507.3994366881277 L 0.12885180177491073,501.11728800636615 L 1.7601624606013355,501.11728800983235 L 262.84952362239613,501.37520122882546 L 261.6055477584368,509.33021686565905 L 259.871921760752,510.8979467702546 L 256.00324503520045,510.79278779686604 L 255.14304902031154,511.13694781277377 L 254.44165831726156,511.8778810718303 L 254.13286998060164,515.3728300750047 L 254.23874026526138,524.2510120803425 L 254.44165831726156,524.9448956220314 L 255.0239449212823,525.1841750979102 L 255.85767346096642,525.275102525212 L 260.692416486067,525.2703168978427 L 262.2143019144319,532.0391628306587 L 262.4922114020687,565.1103200387208 L 262.1481329193461,641.9392957957047 L 262.30693838471825,643.1090590701597 L 262.75688715210515,644.0517240253018 L 263.934694020974,644.3659628672707 L 265.20954873395186,644.4964953380507 L 347.0693367973816,644.0033803018086 L 348.39271539402694,644.1532463744645 L 349.7028601762985,644.5400065204489 L 351.04388380759286,645.5891593355727 L 360.9251105806566,655.8536957712779 L 362.0235148703766,657.3007609226158 L 362.923412251609,658.8545036042049 L 363.3071920239055,660.8974415787777 L 364.67027198689874,705.5516945673504 L 367.4670120514676,709.222152293629 L 377.321771272557,719.1895273232727 L 378.6451498692023,719.5934695568569 L 382.5799955130708,719.8854850870208 L 384.8473841543352,721.6620786097322 L 386.055188395408,729.6958106961274 L 382.28878327500445,728.2987550968268 L 380.58603623528495,728.5130671601938 L 378.8744665747284,729.2437075570351 L 376.5276751290435,729.8477401164167 L 372.23110607746116,729.1268018773133 L 368.6315163031692,726.4577903989612 L 362.73807029596816,719.4376550261959 L 358.96203015384435,717.2672766359625 L 354.4801879428836,717.2964717793308 L 345.61355141105844,719.700464985272 L 343.7872889601998,719.9730152239096 L 343.6637736344321,719.5252576868971 L 344.1225448810091,718.7173927258092 L 344.0431422325625,717.9485157642814 L 343.1520672604357,717.2088866732141 L 342.27863744458966,716.6639282432973 L 341.29051475308336,716.4790377553069 L 336.8792527404643,717.5786949776754 L 335.25590834918927,716.5666170227383 L 333.96781987872413,714.71786610665 L 330.1035543819639,711.9161338582956 L 326.86568813487213,707.6370684651736 L 326.10695102397074,707.1606377137165 L 324.37773637785375,706.5967255092366 L 323.58370921045935,706.110617059583 L 323.0102451735792,705.2745601481754 L 322.1368153577307,703.311044430017 L 321.33396565487857,702.5918228386321 L 316.5609802004139,701.1243655661632 L 315.4934547750939,700.016611515 L 314.8494105398649,699.0838507549948 L 305.83279107588174,692.0032301232548 L 303.680095325033,690.6827853792211 L 301.1833210325569,689.5275234810637 L 300.32753620228596,688.8965482149628 L 299.20707564954,687.7026457042475 L 297.9013421081491,685.7033852455766 L 297.14260508261015,684.9464763848374 L 295.9162742750291,684.5680408837713 L 294.81345870785316,684.771812280822 L 292.0167187217754,685.8101328532254 L 290.4992445853358,685.9265859598769 L 289.1758660583774,685.6160469866559 L 285.28513295522896,684.1216976124082 L 280.618017755614,683.2387660816594 L 276.38320628154577,683.5395371958832 L 272.32484534603896,684.7427018287922 L 265.91087051473875,687.7900001520354 L 265.0991982764189,688.4694466698886 L 264.0581404574891,689.0615691303304 L 263.528789012563,688.5762205125128 L 263.1582430352596,687.6249978858812 L 262.59360144846795,686.8582544535004 L 260.55559848792916,686.56709985579 L 258.5352405129604,687.6347038456196 L 255.20914899658726,691.022590857611 L 254.74155521455188,691.857585223461 L 254.54745969043285,692.6635106917723 L 254.1945586986928,693.3918062350676 L 253.22408107811225,694.0133225832009 L 252.04186286248188,694.5377536499557 L 251.15078797571758,695.1204836594397 L 250.41851847120716,695.9266434019868 L 249.71271657308702,697.0825638596313 L 248.3452253688125,700.7356674571764 L 247.41886034018555,701.8434928463503 L 245.24851951841387,702.7181691904738 L 244.67505539617162,703.641513017006 L 242.97230835644245,709.4651956895398 L 242.3017965148232,710.9142964972615 L 242.06358839874557,711.6826879365766 L 242.01065318595712,712.48031494759 L 242.50471457439957,713.4044664668249 L 243.31638672735517,714.4065276964084 L 243.71340031104845,715.398949202662 L 242.94584066468965,716.3136119631289 L 241.79009005545745,717.2088866732141 L 241.6842198006152,717.9582480662 L 242.01065318595712,718.7757907023338 L 242.1429911325618,719.7978036293732 L 241.95771805854085,721.1411634995054 L 241.73715501340328,722.1147141686557 L 241.2430936249605,723.0396663919192 L 237.43176334099115,727.529214054765 L 236.29365771731938,729.4580379045303 L 235.78195134331577,731.5041274104526 L 235.8437090061998,732.8099250134059 L 236.1701423915517,733.1120346071303 L 236.67302631544507,733.2972025215643 L 237.272957873358,734.2328353963936 L 237.80230931829414,735.5876941821642 L 237.9170021085941,736.1725766682589 L 236.99945961543202,737.7616637841388 L 235.7025486095092,739.1852120881368 L 233.9909789489527,740.6772099175073 L 233.08225907661793,742.2571922204102 L 234.17625193760435,743.9544627613042 L 234.61737819861835,745.1446590394811 L 234.65266825511173,747.2522073209866 L 234.39681506811152,749.4772798560804 L 233.98215641348497,751.0585263149452 L 233.2234193879464,752.2494917137052 L 232.38527962860053,752.854785995141 L 229.959085534464,753.7627899147348 L 229.05036557676928,754.5243995200445 L 229.09447825408284,755.3641843336342 L 229.41208910396955,756.3114606103009 L 229.3415088202632,757.4053246495916 L 225.77720927319132,762.8762846501729 L 225.57352917695167,763.0864614075073 L 224.74497398971926,763.9414861393807 L 223.0686943856636,765.1338530067347 L 222.10703930054044,766.3947760118617 L 220.70425795441076,769.6699460792059 L 219.10738116952632,772.153865025473 L 217.6428422458744,772.7504810577547 L 213.76975421364213,771.9093597629184 L 211.0612394114862,772.4081564278524 L 209.1820417478388,773.9633749576603 L 206.29707640712462,778.2584970673938 L 201.84170188792382,782.5651063346961 L 199.7860537710853,783.6518162057239 L 198.45385270866626,784.1021962611566 L 194.53665208449007,784.7973850532202 L 193.7690925234859,785.3653186849973 L 192.86919510125426,787.2455870583912 L 189.4284107945804,790.7817672674157 L 187.79624386783797,794.1818997768557 L 185.05243883845478,801.7012649875059 L 181.80575014126708,806.7040077871867 L 177.50035846885496,811.0416004113497 L 172.48916481295805,814.1437584842433 L 167.09860272966472,815.4398622011332 L 158.81425277018985,815.4987797101735 L 156.12338303894936,815.9799515934952 L 153.84717187698078,816.7950471909188 L 152.83258157907667,817.796815777721 L 152.7267113242341,819.2799981649384 L 153.49427088523822,823.5440638059657 L 153.5824960691479,825.3818696685269 L 153.22959516277746,827.1216882923111 L 152.28558514858008,828.8027992354816 L 150.7063532639011,830.3268420294913 L 145.8716102319249,833.6313213456439 L 143.9394775262237,834.3789052253466 L 142.13086006093232,834.3493943032578 L 137.05790882752353,832.9821463458708 L 129.77932663048043,832.7952700029081 L 125.57980521291051,830.887351202894 L 123.63002743628351,830.533341977618 L 119.72164934756502,830.6611772685097 L 112.557759940829,832.6083968411758 L 111.3578967396382,832.6575737214423 L 108.9669927019947,832.3526811014918 L 107.74948442988098,832.3723513545104 L 100.31209676521898,834.5166237524081 L 97.66533962593742,834.5953208665961 L 86.3901540709083,832.0477972013734 L 82.95819221433504,829.904021259877 L 79.33213491900737,828.3800387478074 L 74.56797208538256,828.9994376613909 L 72.3623410363979,830.1695113913663 L 68.3833828346923,832.9526393871294 L 62.87812787572473,835.5200554940541 L 61.051865339503266,836.8482721629404 L 60.81365722343315,837.1139353668694 L 60.38135358324614,836.1595464565428 L 59.50792368203763,833.1395184894254 L 58.66978392268962,832.096971495639 L 57.38169545223202,831.2020359763029 L 56.89645668461157,830.7103451692085 L 56.36710523969255,829.9925171729175 L 55.18488702406255,827.3674481673788 L 54.32027965832639,823.9273234696876 L 53.85268587627388,820.4097119600834 L 53.826218355255726,817.5512756533137 L 55.68777086260057,811.1103093935202 L 55.82893125929866,808.9216532668482 L 55.431917675597525,807.5478367293496 L 54.04678140039327,805.5659248380675 L 53.51742995546461,804.4083431857154 L 53.26157685382619,801.9856724750167 L 53.51742995546461,799.2399834072844 L 54.620245522642655,794.1622993826853 L 54.99079141458138,793.0059404429023 L 57.5140333134574,791.1344691591759 L 58.69625152908776,789.615973706516 L 61.21949334259415,784.8953023696569 L 66.15128426467483,778.669508881088 L 68.10988457676667,775.2938010000669 L 69.68911629071819,771.63552024086 L 73.376931334292,766.4241015720826 L 73.67689711325363,764.9579218910652 L 70.4743209226549,759.2807743890498 L 70.18317767916099,757.5029964317567 L 70.37727320327753,750.7071185764395 L 69.6361811633019,742.5302986303266 L 67.33350239493305,736.9134722922151 L 67.31585732400727,736.5625154684207 L 66.36302477435216,735.4609737498673 L 65.86896347128113,735.4122354364998 L 65.02200117647077,735.8508874311298 L 63.8662505672382,736.2505633458513 L 63.919185694654495,735.3829926459996 L 64.82790565235173,733.5700872448988 L 63.02811080789019,727.3149210192014 L 62.1899709631754,725.6396818460769 L 61.307718611868445,724.9092789709175 L 59.128555254639046,723.8186333944948 L 58.43157580662199,722.854669820394 L 58.422753271154285,721.8810542857391 L 59.16384531113241,719.8464732239968 L 59.11091018370647,718.8049897114373 L 58.449220877552065,718.2404880554013 L 57.45227565057339,718.0847685777165 L 56.57002329926966,717.763603834093 L 56.30534749143926,716.7417778135883 L 56.76411882338619,716.0703433054816 L 58.634493866196244,714.9221867273588 L 59.16384531113241,713.9979094041776 L 58.47568839857308,711.5076067734153 L 54.64671304366867,708.0940722302099 L 54.80551851129433,705.468986481134 L 55.361337477248654,703.9817114819583 L 57.893401911590246,702.3877278777222 L 56.78176380894663,701.4061802611752 L 56.005381712485125,701.4353338455664 L 55.25546722241391,701.9115207779112 L 54.47908512594956,702.2322294268308 L 53.6321227457742,701.8434928463503 L 53.57036516824554,700.8814276901767 L 54.03795886493306,699.7153989463451 L 54.09089407771399,698.9283981784808 L 52.802805521886405,699.1032825022077" fill="none" stroke="#000000" stroke-width="0.8371139353668695"/>
	<path d="M 0.12885180177491073,501.11728800636615 L 0.12351532576802346,491.50667829820765 L 0.10587025484259371,475.63458836099454 L 0.07940273380694189,459.79249003265016 L 0.0705801983488691,443.9516268390266 L 0.052935127416297696,430.115680678518 L 0.04411267731357435,416.2949789793706 L 0.026467521026010583,402.4988690597873 L 0.008822450095938763,388.7082587468134 L 0.0,380.8251288175312 L 19.983016619233283,380.8251288175312 L 39.966033323828704,380.8251288175312 L 59.949049943059485,380.8251288175312 L 79.93206656228527,380.8251288175312 L 84.81974480704952,380.8251288175312 L 85.91373775339807,377.4670436587802 L 85.90491530330284,373.7032474835791 L 85.88727023236991,368.42821887844184 L 85.86962507608236,363.1647927944009 L 85.85198009051442,357.90350664844414 L 85.83433501958899,352.6349134283751 L 85.81669003402855,347.3684538124381 L 85.79904496309562,342.10412052692715 L 85.77257744206247,336.841906676057 L 85.76375482124011,331.591229935494 L 85.74610983567932,326.3332297292529 L 85.72846476474675,321.0773277198201 L 85.71081969382132,315.8329305478198 L 85.69317470825338,310.5812002225933 L 85.68435217278817,305.34095310808226 L 85.66670710186274,300.10276876444766 L 85.64023949547246,294.85724158407055 L 85.63141696000724,289.61377056454853 L 85.63119825967422,289.54338117924334 L 87.22395149954646,289.54338113592166 L 333.1738615709951,289.54338113592166 L 466.16458698009205,468.1969164080142 L 449.30033256292364,502.0391141705897 L 262.84952362239613,501.37520122882546 L 1.7601624606013355,501.11728800983235 L 0.12885180177491073,501.11728800636615" fill="none" stroke="#000000" stroke-width="0.8371139353668695"/>
	<path d="M 449.30033256292364,502.0391141705897 L 466.16458698009205,468.1969164080142 L 491.11909584841084,501.279677071507 L 491.80725266031806,501.9388084775714 L 492.90565695004335,502.4355687135479 L 500.43126983182196,504.8671213505132 L 504.2602451142617,508.6898002163123 L 515.7692276003448,524.9592522880058 L 510.32573041925417,581.6060342394009 L 507.7274970328624,595.22174372807 L 506.58939153033646,597.3112088800949 L 505.530688606959,600.0367419300604 L 504.3131803717423,605.2777205650635 L 504.4455182083764,607.9328303024089 L 505.0145709212598,609.7546538360207 L 505.83506572333835,610.4439368102063 L 506.7746645476869,610.6608524617486 L 508.4730003225358,611.5140935855773 L 509.8625478374981,612.4397141405288 L 499.9361580483562,623.1978330265076 L 487.3298217787764,636.874920675881 L 480.11299723365306,636.5995367814553 L 478.5867006617815,636.2371997896569 L 468.5069670570034,630.6151924966879 L 412.7532663908158,612.8512257152017 L 397.9044431757948,608.1247614053707 L 262.4922114020687,565.1103200387208 L 262.2143019144319,532.0391628306587 L 260.692416486067,525.2703168978427 L 255.85767346096642,525.275102525212 L 255.0239449212823,525.1841750979102 L 254.44165831726156,524.9448956220314 L 254.23874026526138,524.2510120803425 L 254.13286998060164,515.3728300750047 L 254.44165831726156,511.8778810718303 L 255.14304902031154,511.13694781277377 L 256.00324503520045,510.79278779686604 L 259.871921760752,510.8979467702546 L 261.6055477584368,509.33021686565905 L 262.84952362239613,501.37520122882546 L 449.30033256292364,502.0391141705897" fill="none" stroke="#000000" stroke-width="0.8371139353668695"/>
	<path d="M 499.9361580483562,623.1978330265076 L 509.8625478374981,612.4397141405288 L 516.8744511985728,617.2426228032235 L 516.7660524519816,619.405141483787 L 512.5495506889433,625.7336629115906 L 512.5495506889433,628.0943391067639 L 510.3922707457202,631.0995358071306 L 506.76411810696175,631.3142227744406 L 504.77012478589813,631.9291391674462 L 501.86120909624105,631.2068787901793 L 500.78256904785843,629.1675336674298 L 500.3903363239317,625.8409559134636 L 499.9361580483562,623.1978330265076" fill="none" stroke="#000000" stroke-width="0.8371139353668695"/>
	<path d="M 397.9044431757948,608.1247614053707 L 412.7532663908158,612.8512257152017 L 413.3480425342959,625.9373855311144 L 397.73249371571006,626.7115522785502 L 397.9044431757948,608.1247614053707" fill="none" stroke="#000000" stroke-width="0.8371139353668695"/>
	<path d="M 645.2845573645159,299.2678693334515 L 646.0030010601223,299.3142705921481 L 646.5255056148662,300.0103089154912 L 646.4384215352063,300.79919623726823 L 645.5022675636736,301.54172097423526 L 645.0015340672251,302.7948254224071 L 645.3498704626489,304.1408836165899 L 645.8070619192653,304.3961858901459 L 646.6343606760634,304.76754333218895 L 646.9826970714826,305.4638665453347 L 646.8738419335216,306.5780594411229 L 646.9826970714826,307.62270011150207 L 647.1350941725119,308.2495238882617 L 646.8302998936892,308.8067253661656 L 645.3716414441808,309.1782060840738 L 645.0015340672251,309.15498819901273 L 642.6502637627851,307.9245004011005 L 641.3440024143017,307.62270011150207 L 640.865039976154,308.7602910170952 L 638.9491899932559,308.69063983874554 L 637.5123026020483,308.29595645226715 L 637.1639662066244,307.62270011150207 L 637.2292793047575,306.5084196149965 L 637.5558446418809,305.55671238246487 L 638.1436622179897,305.2085437926024 L 638.6226247329064,304.7211230853777 L 638.5137695949408,304.04804765479145 L 638.557311634773,303.72312688532935 L 639.4281525081727,303.49104539304085 L 640.5167035807301,302.65558579421014 L 641.0174370771787,301.95940939387197 L 641.6705677514205,300.8920095683418 L 642.6284927044848,300.6599773698765 L 644.4790295892496,299.7086878457478 L 645.2845573645159,299.2678693334515" fill="none" stroke="#000000" stroke-width="0.8371139353668695"/>
	<path d="M 486.79016374093004,674.5891389240476 L 487.1996373110152,674.6855582792818 L 487.3458779265981,675.6497967061297 L 488.34031372870066,675.456942375905 L 488.486554267515,676.131946754907 L 488.8960278376002,676.5498267421581 L 488.36956185181816,677.1284552886968 L 488.4573061443975,677.578520226067 L 487.87234391238013,678.0607525664732 L 488.10632882054307,678.6073074625166 L 488.8375315913698,678.5751564324524 L 488.8667797144827,679.5075731325192 L 488.34031372870066,680.407910596004 L 487.3458779265981,680.8902637943969 L 486.76091561781254,680.472223102707 L 485.85422418505823,680.7616342138411 L 484.94753267553034,680.8581062617916 L 484.97678079864824,680.600849384417 L 485.678735523126,679.6040343778736 L 485.97121660075004,678.5430054939204 L 486.00046472386794,677.0963084670425 L 486.46843454018847,675.456942375905 L 486.79016374093004,674.5891389240476" fill="none" stroke="#000000" stroke-width="0.8371139353668695"/>
	<path d="M 673.3172663486912,373.5107022931095 L 673.6770129889939,373.87949134244815 L 673.9898361478015,374.8015101475054 L 673.8959891848033,375.43857993018275 L 673.7865010869009,376.3271772551327 L 674.5529178490001,376.8301840818097 L 674.756252909901,377.1655329815847 L 674.4121474045072,377.61826775471036 L 674.3183005182822,378.4231690202073 L 673.9898361478015,379.2616614145349 L 672.8011081289872,379.68092818242155 L 672.1128971182045,380.18406632715903 L 671.3934038375996,380.40209898902793 L 670.8459632713048,379.8486387064447 L 670.1890346071079,379.7312411178379 L 669.4695413265031,380.30146813915394 L 668.5779952548194,380.4859587293046 L 668.4059425405093,380.0163514212778 L 668.3746601939184,379.3287432367644 L 668.6874833527264,378.77532913439046 L 668.5623541199105,378.3225535942858 L 668.3433778473326,378.0207120439654 L 668.3590190590099,377.60149954015435 L 669.2974885354243,377.1319976732649 L 669.8918525832134,377.3835144124837 L 670.4236520145997,377.29967492515476 L 671.2995568746056,376.88048585501315 L 671.2995568746056,376.0253826359391 L 671.9564855388029,375.2709269421897 L 672.019050155211,374.6506298054149 L 672.4257202770075,373.79567468822177 L 673.3172663486912,373.5107022931095" fill="none" stroke="#000000" stroke-width="0.8371139353668695"/>
	<path d="M 524.8124187121354,248.21224690438817 L 526.2905381656581,248.40361903410405 L 530.6527932917917,249.47535247980562 L 531.950654352141,249.1691343032252 L 533.9334975982713,248.86292305879857 L 535.880289150413,249.5519080741493 L 535.5558239045167,253.11221662763296 L 531.1214653904061,252.72934326075836 L 526.542900100346,251.42765397007454 L 524.3076949962968,250.31748757615523 L 524.8124187121354,248.21224690438817" fill="none" stroke="#000000" stroke-width="0.8371139353668695"/>
</svg>
