<?xml version="1.0" ?>
<svg xmlns="http://www.w3.org/2000/svg" xmlns:ev="http://www.w3.org/2001/xml-events" xmlns:xlink="http://www.w3.org/1999/xlink" baseProfile="full" height="600px" version="1.1" viewBox="-80.74766043349085 -150.2797471316612 961.4953208669817 1795.8803612450258" width="322px">
	<defs/>
	<path d="M 23.873009490157337,1203.206994686796 L 28.709510403437623,1144.3194814748279 L 38.77406695277893,983.8094165088527 L 48.05551339611318,835.575345683153 L 47.21721134737085,672.5217429792481 L 63.8279287373109,658.8522086860861 L 86.68237737200315,643.6873121220125 L 94.44748613132045,640.8732694604494 L 100.53442080746527,640.5474279598188 L 104.84362942208897,642.2506785915824 L 109.2808343567225,643.3022370985803 L 173.23631472120252,636.0744094785973 L 180.87342666551888,633.5415882137332 L 186.57637287668987,629.5570835834149 L 189.84738900808887,624.905831524765 L 193.85793921274777,620.4321370263424 L 197.56983199742416,619.1285081533368 L 205.7900383433854,620.5062069708304 L 215.57464338585743,621.246897312541 L 228.53071258141665,620.6691591152425 L 234.23365879258765,621.0395043656061 L 242.1836505752357,620.2543710057219 L 256.96011110730694,620.9061801456413 L 269.48952606789186,619.2618346636325 L 279.3025749570247,615.7508466020021 L 295.54388220730414,604.9208458295777 L 304.88761158648106,601.4686375572838 L 311.3016480242696,600.4018370644629 L 322.508434014977,594.8898601549764 L 326.67542488129766,593.7933565848718 L 334.4405331456146,596.3123344612384 L 347.4250456928159,590.8742293515824 L 350.71028374754525,585.183916166717 L 353.99552229725657,577.9520246779091 L 358.61761025517484,575.6845441611182 L 360.67977329835827,579.0931554171017 L 362.01662320154713,586.9473545727656 L 367.5773506744144,701.1659728751534 L 366.8378166011453,722.2276181431624 L 367.5773506744144,725.2614480948482 L 373.7353944721925,734.1700384895184 L 378.3432610018175,745.1345550174412 L 378.81258100677377,751.4671129495918 L 378.7130285334432,756.7340895682981 L 375.9539971870278,763.5245479817082 L 375.2713498170981,767.577901777472 L 373.36562743556715,773.7759766476266 L 372.1425519290117,776.7195638430971 L 371.10435994077807,777.9916412703419 L 369.83861866423143,778.6720483013155 L 368.81464810430947,780.3286740060735 L 367.8760090843792,782.2958829591661 L 367.364023804432,785.1209076512109 L 365.4298575762495,788.6409897196233 L 364.3489998180339,789.9572922546153 L 363.06903711314794,791.1404719413675 L 361.3481982499481,792.042636856545 L 349.00366680770344,796.5385595061035 L 347.1263877778514,802.1729812083604 L 349.1743284026581,806.9494323018852 L 357.0816549103153,819.9615779901078 L 364.7614326246597,826.5705412295017 L 368.4733249143357,830.5475479148514 L 368.3026628243347,835.3966331253545 L 365.7285154912508,837.9984888977883 L 362.6708262298342,840.1124502358467 L 360.79354719998213,842.6402782104345 L 355.1617106054816,854.273421079248 L 351.90491590243107,863.4075727833781 L 348.3636852077465,869.9547084683794 L 344.993116108035,874.7724324225806 L 338.6644107152562,879.4273875783871 L 335.96226706213486,881.9542777899683 L 332.15082180413714,888.5298211074567 L 315.62507806723255,906.6880293302924 L 314.67221662898993,909.494961726385 L 314.62955184899937,912.0211374587558 L 315.1842019089279,914.3847556192378 L 315.0846494356065,917.7232782921433 L 313.77624288406895,925.5078336520154 L 313.6198027173891,928.4472044853005 L 314.5015555289988,935.6106591099935 L 313.9895702490516,938.4759065532924 L 313.0082649641206,940.957089183233 L 311.60030593923403,942.8179389722284 L 309.7372488327308,944.3095483280634 L 304.5036226265345,946.7610603193401 L 301.34638089180567,949.7441491626787 L 300.40774137686583,951.5605436764987 L 300.8770613818497,953.7017821373414 L 308.1444057945312,958.8553450442192 L 310.2065683427144,961.217927581313 L 309.96479762604355,963.0193614378071 L 308.28662403788064,964.4663926452499 L 306.0253565430547,965.1160744458441 L 296.18386331225156,966.7402604157089 L 285.6312803498311,970.416735640209 L 282.7015874084151,972.3804234351985 L 279.99944326029345,974.9936971347544 L 264.81055041660596,998.3331627496586 L 261.56797763688587,1006.9088839539844 L 255.7512575240542,1017.7124325960899 L 252.57979386601343,1029.0018681134484 L 252.62245914100433,1031.3481515055894 L 254.47129432416793,1038.63753631718 L 245.1986740666335,1039.1687268548835 L 240.917909298689,1041.441014204669 L 239.38195395379265,1042.6804235445618 L 236.18204644910026,1045.9854448446963 L 230.26577386294724,1053.4951405367615 L 228.82937099139986,1056.2392209690834 L 228.38849433810407,1058.6291699627925 L 230.74931529620596,1068.2179404839092 L 231.14752568451942,1071.256665203581 L 229.61157033965986,1077.1568595499955 L 218.5185582506131,1088.5138269439817 L 209.6157050297132,1095.3126891751592 L 207.18377544493234,1096.418754482911 L 202.74657051030803,1097.6575337493568 L 198.87823805395217,1099.7073885033724 L 184.13022087356904,1110.9882684180864 L 179.20947500068638,1114.0110502508223 L 175.83890590097488,1114.8957513701187 L 173.2078708745141,1114.482891709579 L 169.9084108964727,1115.1464152157162 L 163.7077018236669,1117.977402660027 L 160.5931253639474,1120.130083601166 L 158.24652682414862,1122.312209557749 L 155.7150442710184,1126.01287700322 L 155.65815756768825,1127.958995023755 L 156.36924729930544,1132.6767106027125 L 154.12220172782838,1134.3868324512102 L 132.4481628297096,1142.6127311245982 L 129.4046959866329,1143.2613424906133 L 127.02965360019175,1143.305566167199 L 125.22348319700947,1142.2147189650495 L 121.51159090731501,1138.249249080601 L 119.74808676913351,1136.6866086280234 L 117.95613878429118,1135.4630157295524 L 115.3819909561701,1134.5784823203398 L 113.95981000797154,1135.4040470932541 L 110.43280074160785,1139.5317771258499 L 99.16912705756037,1150.4105470206275 L 94.91680564127637,1153.4764543877536 L 91.30446631993125,1155.2894257740577 L 82.06028941404809,1156.3359248982244 L 78.10662640774729,1157.6624571350787 L 75.98757666123366,1158.1341095794496 L 68.73445367689148,1158.6794552267709 L 49.39279189020456,1166.6235027572825 L 46.889753183744375,1168.2594038937434 L 44.52893272064283,1171.0742750667416 L 42.72276231746056,1173.7269671538465 L 42.3814391274868,1174.9059203630168 L 41.954784892521744,1177.8679851262757 L 41.087254004251676,1180.034220345624 L 39.494411461061645,1182.554072955925 L 35.78251917139482,1187.1515499174177 L 33.051931671621865,1189.9954045223774 L 29.908911365223137,1193.9295279218547 L 23.873009490157337,1203.206994686796" fill="none" stroke="#000000" stroke-width="1.4953208669817033"/>
	<path d="M 47.21721134737085,672.5217429792481 L 44.19568199354692,513.5453684147058 L 41.84056618060439,389.46088491879516 L 41.35702427586723,339.38322801668744 L 45.45290602305048,316.5935224616187 L 49.63413261879666,310.62458259442127 L 57.21434263501588,299.8024953884993 L 102.96590582497218,283.1572894369263 L 114.75578692017213,287.2594004872313 L 123.82930132478043,295.4631186220938 L 132.06372989283872,304.6469202517941 L 141.32212793449276,311.7793910000694 L 147.87838262796262,312.46289288031903 L 154.12175736251663,311.15532008093487 L 159.3411615226524,312.3440237470647 L 166.89294285768497,328.5089928994794 L 173.96118228791588,333.9165458829244 L 196.04765369044011,346.84001662095494 L 200.9826218245708,345.41406024156544 L 204.28208170814705,340.7795609654038 L 206.77089858719714,328.0633021700482 L 209.2170503926475,323.9331442199508 L 237.31934671813815,302.83400345895956 L 242.49608580466506,296.7411739938957 L 250.37496878977348,274.2390776227962 L 252.99178144024108,269.03642112542775 L 261.1693226930133,262.19823188564624 L 268.692660095218,257.797759366206 L 275.27735817109993,252.83212765592543 L 280.6389808947002,244.31267043233711 L 282.3740415341864,238.112189807047 L 284.0522154088485,225.11520788071155 L 285.5597273375696,219.3894553332638 L 299.24110877657483,196.37902052925963 L 301.0757218050297,189.90777067905685 L 299.1842214612796,181.88878772138955 L 297.1647242453172,180.22242435327155 L 312.83715896742933,168.60173670785431 L 328.90780434610946,160.90842029802693 L 335.46405903958856,155.8933060765071 L 340.99634315864023,147.1869407739299 L 342.60926942430973,140.50334379134907 L 348.19302361276425,141.68042035467013 L 383.24978594139804,157.14385257147552 L 408.45083361088024,175.62536668642113 L 448.44256324077287,230.09755339625153 L 524.0883720192289,298.6438299259326 L 401.9514661281096,330.0693579788446 L 372.83942023228036,346.7216517031045 L 369.411963934266,356.6730923425731 L 368.20311035102253,361.64844437737923 L 367.6057945210936,367.4403372649241 L 367.9613396343794,371.6132636903136 L 369.9239497092043,379.30525400610577 L 370.4074906474995,382.77982241341175 L 370.2368295475176,390.23340731644714 L 366.8520385244849,405.43583376250734 L 366.5960463795116,407.9742979608721 L 366.6387111595022,411.1658435646679 L 368.37377244100514,424.02007769821415 L 368.4733249143357,427.2704870491603 L 366.8093732494664,440.924036969468 L 367.09380924111883,444.96038712289766 L 369.8101748175522,452.4242460561268 L 370.5070436158304,455.4363445170004 L 370.20838570085675,459.1605395801563 L 367.6626817193965,461.78668289684373 L 363.15436766312973,463.78962873271865 L 357.5509744202712,465.4067929211572 L 341.36655486335025,472.98783603873034 L 335.10895809720444,482.7192291193987 L 327.9980533561656,502.8762865737067 L 327.61406439620066,513.1980098140177 L 334.4405331456146,596.3123344612384 L 326.67542488129766,593.7933565848718 L 322.508434014977,594.8898601549764 L 311.3016480242696,600.4018370644629 L 304.88761158648106,601.4686375572838 L 295.54388220730414,604.9208458295777 L 279.3025749570247,615.7508466020021 L 269.48952606789186,619.2618346636325 L 256.96011110730694,620.9061801456413 L 242.1836505752357,620.2543710057219 L 234.23365879258765,621.0395043656061 L 228.53071258141665,620.6691591152425 L 215.57464338585743,621.246897312541 L 205.7900383433854,620.5062069708304 L 197.56983199742416,619.1285081533368 L 193.85793921274777,620.4321370263424 L 189.84738900808887,624.905831524765 L 186.57637287668987,629.5570835834149 L 180.87342666551888,633.5415882137332 L 173.23631472120252,636.0744094785973 L 109.2808343567225,643.3022370985803 L 104.84362942208897,642.2506785915824 L 100.53442080746527,640.5474279598188 L 94.44748613132045,640.8732694604494 L 86.68237737200315,643.6873121220125 L 63.8279287373109,658.8522086860861 L 47.21721134737085,672.5217429792481" fill="none" stroke="#000000" stroke-width="1.4953208669817033"/>
	<path d="M 453.1495380187191,0.0 L 456.0365661048175,1.0433883363693612 L 461.32707927153746,6.140925814003142 L 465.50829171646484,8.689594826791385 L 468.73664259350295,8.153038331486561 L 471.9507712289008,6.379400320706172 L 476.14620536505265,5.172116100041518 L 510.2358843319569,4.888923807127264 L 513.3689342459656,5.427607192193716 L 513.3689342459656,7.493132377719097 L 522.8426754870188,16.130310485349938 L 512.0251412948509,30.257963744596243 L 469.4045039572642,61.01728454897022 L 465.3955210476526,69.2978948118104 L 471.6889518640614,78.32836092638702 L 479.4829516410132,78.82090781782365 L 505.84369294916655,66.85835446144358 L 502.7529690515231,75.25574993890585 L 497.6241586826615,84.16840236887614 L 485.0149000052795,100.13879391643832 L 481.99136559009094,105.22720048138852 L 483.55912403303364,107.85337216187173 L 487.8144689286401,107.57199955829456 L 492.67452081735826,104.07822852014192 L 501.9466930606953,93.6665246380741 L 520.1998825730681,80.50962137531363 L 528.822554834987,76.42851335446137 L 537.9603475630352,74.73972972012528 L 550.2560547720042,76.47542348487153 L 566.2471923213033,84.26221522602364 L 573.4588821496894,86.56060805566182 L 585.1498818150665,84.77818549444133 L 601.812915839923,73.23856391243983 L 620.8723813431328,67.3744160584479 L 627.3449846631091,66.50649236075778 L 630.2117436193221,68.64110184362632 L 629.1367091483509,76.7803399400289 L 626.0907776885795,82.1044911199215 L 615.1612610257239,90.50058569135577 L 602.5967953366206,95.8943466825495 L 600.1555714203952,98.33316724156307 L 599.9763989168368,104.64099171139287 L 603.9405882877262,105.97754213722774 L 608.7558471881656,103.96098544812877 L 612.8768125685017,97.11376450822576 L 617.3785194500846,93.94793636715933 L 623.0000537909452,91.48555517687659 L 628.330433157523,90.50058569135577 L 630.1445535864698,93.64307367238902 L 634.601467479774,161.7682451985119 L 630.2117436193221,214.5763798720159 L 628.4200191340805,223.57017954807498 L 620.7156053337229,237.34036284313436 L 618.9238813989156,246.35552499720146 L 598.2294679703173,299.1891121056768 L 588.8229162117099,305.6246196546213 L 588.7553485125455,305.74236831231957 L 524.0883720192289,298.6438299259326 L 448.44256324077287,230.09755339625153 L 408.45083361088024,175.62536668642113 L 383.24978594139804,157.14385257147552 L 348.19302361276425,141.68042035467013 L 342.60926942430973,140.50334379134907 L 343.10117107230997,138.46492503597622 L 344.0255887073161,129.35510477320764 L 346.1019732386475,119.55962239629488 L 351.40670809649055,110.28428019910145 L 368.4159933518723,90.67366312854085 L 375.2282406889629,79.89137137945649 L 377.1339627239006,73.27844227707689 L 379.2956779529116,58.650968694864986 L 384.25908946943593,44.796057522891694 L 387.20300432046895,27.362903245772422 L 390.075810164927,21.118993036919054 L 394.2712437507091,16.8419089144164 L 411.3089729389556,3.6070958546896335 L 416.8412570579705,4.233106499697466 L 421.93266489633737,7.065012655691168 L 427.6071675788167,8.674690647647 L 432.4568044647782,8.003994465936545 L 443.4502636963803,4.0244365381104155 L 449.4376457873136,1.0135776429692072 L 453.1495380187191,0.0" fill="none" stroke="#000000" stroke-width="1.4953208669817033"/>
	<path d="M 4.550979719156973,1494.644920836161 L 0.0,1487.2092409220977 L 0.26966721969604174,1480.0549981797083 L 1.3084066004233004,1452.4931252898114 L 15.409133346020953,1320.8874690764976 L 23.873009490157337,1203.206994686796 L 29.908911365223137,1193.9295279218547 L 33.051931671621865,1189.9954045223774 L 35.78251917139482,1187.1515499174177 L 39.494411461061645,1182.554072955925 L 41.087254004251676,1180.034220345624 L 41.954784892521744,1177.8679851262757 L 42.3814391274868,1174.9059203630168 L 42.72276231746056,1173.7269671538465 L 44.52893272064283,1171.0742750667416 L 46.889753183744375,1168.2594038937434 L 49.39279189020456,1166.6235027572825 L 68.73445367689148,1158.6794552267709 L 75.98757666123366,1158.1341095794496 L 78.10662640774729,1157.6624571350787 L 82.06028941404809,1156.3359248982244 L 91.30446631993125,1155.2894257740577 L 94.91680564127637,1153.4764543877536 L 99.16912705756037,1150.4105470206275 L 110.43280074160785,1139.5317771258499 L 113.95981000797154,1135.4040470932541 L 115.3819909561701,1134.5784823203398 L 117.95613878429118,1135.4630157295524 L 119.74808676913351,1136.6866086280234 L 121.51159090731501,1138.249249080601 L 125.22348319700947,1142.2147189650495 L 127.02965360019175,1143.305566167199 L 129.4046959866329,1143.2613424906133 L 132.4481628297096,1142.6127311245982 L 154.12220172782838,1134.3868324512102 L 156.36924729930544,1132.6767106027125 L 155.65815756768825,1127.958995023755 L 155.7150442710184,1126.01287700322 L 158.24652682414862,1122.312209557749 L 160.5931253639474,1120.130083601166 L 163.7077018236669,1117.977402660027 L 169.9084108964727,1115.1464152157162 L 173.2078708745141,1114.482891709579 L 175.83890590097488,1114.8957513701187 L 179.20947500068638,1114.0110502508223 L 184.13022087356904,1110.9882684180864 L 198.87823805395217,1099.7073885033724 L 202.74657051030803,1097.6575337493568 L 207.18377544493234,1096.418754482911 L 209.6157050297132,1095.3126891751592 L 218.5185582506131,1088.5138269439817 L 229.61157033965986,1077.1568595499955 L 231.14752568451942,1071.256665203581 L 230.74931529620596,1068.2179404839092 L 228.38849433810407,1058.6291699627925 L 228.82937099139986,1056.2392209690834 L 230.26577386294724,1053.4951405367615 L 236.18204644910026,1045.9854448446963 L 239.38195395379265,1042.6804235445618 L 240.917909298689,1041.441014204669 L 245.1986740666335,1039.1687268548835 L 254.47129432416793,1038.63753631718 L 270.39972173612483,1033.4730431313315 L 311.68563698424373,1032.454871216888 L 324.12972089981895,1033.95999185223 L 332.2361523541281,1035.8192292086405 L 351.3929306224839,1046.4575827036451 L 354.16618389224806,1048.951025994636 L 355.7874702820897,1051.5919466215266 L 357.3945347486193,1056.4162564208125 L 358.8451595435063,1058.8357063851859 L 359.0158211384978,1061.1665894935657 L 358.74560657518464,1063.526924928622 L 356.66922259869904,1068.7194834137642 L 356.8967713919934,1071.5959351827826 L 359.300257625123,1074.782069876878 L 366.02717340620603,1082.1717707080034 L 367.83334331437874,1085.1216107685614 L 369.5541821775786,1087.3781839157102 L 370.677705705813,1089.5019745260372 L 372.22788247901184,1091.8174493349773 L 373.408293205586,1094.3540902573548 L 374.8589175054358,1096.5072394052386 L 377.1059635719132,1100.842902466668 L 378.1299341318351,1103.6595160359377 L 378.25793045183576,1105.7977348154286 L 378.0446035818534,1107.7884517703606 L 377.2624037385746,1111.2979230100525 L 376.52286917029596,1120.7198512737946 L 376.20998982700144,1122.6218319019001 L 376.1388807053313,1125.0250620173422 L 375.01535717708765,1127.236576093521 L 373.9060565621935,1128.651922239717 L 373.0243042456118,1131.0992473347553 L 376.337986147002,1132.5440276038182 L 398.6662280734078,1135.6399214468827 L 402.06524101977095,1135.4924997791568 L 403.6723049913002,1135.0649764302798 L 425.36056581276785,1136.435994389815 L 427.692942429227,1136.170637388508 L 433.3674447937464,1136.347542469936 L 436.38246828514417,1137.0404163149815 L 438.89972891493477,1137.2320615160686 L 450.2771769955972,1135.374562506565 L 455.7952391934736,1135.7726006746768 L 458.0707291065934,1136.3327997921642 L 459.5640186814709,1140.681617502341 L 465.9019345899721,1143.3007021947199 L 467.92633149086976,1147.4511040279217 L 457.5791247765706,1155.2041231433368 L 446.3136590503034,1177.763670134168 L 435.9664523359951,1182.5210048555186 L 434.89141786503296,1185.653771009042 L 433.8835728765074,1199.2048536029672 L 434.1075383683353,1201.9891154322338 L 430.97202148241314,1203.8916531981342 L 428.0604695379214,1203.9380560348206 L 426.22395261483524,1202.9867916786968 L 426.22395261483524,1201.9891154322338 L 422.7300907217779,1204.3092791623255 L 421.58786621795423,1205.4925437150548 L 420.91596974239684,1206.9542063103465 L 418.7435043063057,1209.7382709282147 L 411.6661939931992,1226.789128997594 L 409.4937285571172,1229.572691084187 L 405.193590673232,1232.0082504168233 L 390.70302208449436,1250.9805729121613 L 389.06807360865326,1253.995433005116 L 386.7836251514402,1261.5090343191787 L 385.2382632026369,1264.2453420676445 L 384.8799181954925,1265.8917322908087 L 385.5966082097721,1270.7611920035224 L 385.2382632026369,1272.3611111148614 L 383.7152977479361,1272.7321030547832 L 379.2359873605017,1272.0133044344964 L 377.7130219058286,1272.3611111148614 L 375.2941944837517,1273.7523257494872 L 368.64241866019853,1275.2362690648379 L 366.1116082169722,1276.6274475085872 L 364.9469877694526,1278.8532968329307 L 362.3489878438082,1287.9417167817219 L 362.3489878438082,1264.2453420676445 L 358.586366920173,1264.2453420676445 L 354.80135005284205,1276.6274475085872 L 347.07453975834517,1278.4359534267192 L 339.4821084286845,1273.6827656046794 L 336.05543601807284,1266.3786878664862 L 333.90536707613023,1263.1322758453825 L 329.26928122965586,1262.7612516572517 L 324.67798782108116,1263.642432424074 L 322.70709138268774,1264.2453420676445 L 322.0127984130002,1266.2859342362647 L 322.2591603989951,1276.3028404291572 L 320.66900546188543,1280.151688341317 L 316.70481554058017,1281.4500640358447 L 298.115678065609,1284.0467708420829 L 294.93536764101066,1286.1797344911788 L 292.3373677153386,1288.8690644949834 L 288.3955748385886,1291.210582840387 L 281.04950604537544,1292.1842694394054 L 273.2555057179894,1295.8007432452423 L 270.97105781121064,1304.7255102770987 L 272.15807475287875,1326.837293790975 L 270.1423853262158,1338.7026003742271 L 264.9239889807967,1347.3226934270992 L 257.17478219213285,1352.6519864198228 L 247.56666143580003,1354.4129143899406 L 244.76709251247624,1355.895779672332 L 241.51959260538612,1359.4870117557816 L 238.80960965861058,1363.9121775603464 L 236.3907822365337,1373.8044530219765 L 233.03129930834015,1376.7001522789812 L 228.2832304407531,1378.5533602312996 L 222.97524756831467,1381.6110866170047 L 216.86098925548268,1386.8460900877533 L 214.12860981454014,1389.7646140445358 L 211.68738589831472,1393.2852719637096 L 210.36598944137614,1399.5851204854318 L 210.81392042506877,1405.8846140667354 L 209.29095497040484,1410.7711098351022 L 194.91236885232715,1414.9626735515665 L 185.41623111717144,1420.705556261039 L 176.21124835625253,1428.2773757440384 L 170.0074035164288,1436.0339088176706 L 168.08130006634175,1450.156372405031 L 179.57073128444608,1473.8596092254816 L 177.53264481320952,1487.190492054152 L 156.6674610065106,1495.3208669817034 L 107.98620520721681,1482.771111981104 L 90.3369383428156,1482.8886801475248 L 74.63606023825454,1485.5633321315984 L 32.51105858207009,1483.5940894211908 L 22.427795294268048,1487.7676685426052 L 17.43593984487896,1488.0615765888938 L 10.993459231611338,1490.207083773027 L 5.788276762644738,1492.8227834639101 L 4.550979719156973,1494.644920836161" fill="none" stroke="#000000" stroke-width="1.4953208669817033"/>
	<path d="M 521.3197100323181,778.6317512391205 L 521.7676410160476,783.6863352365807 L 524.6567964663723,796.8457495128888 L 526.8068654083149,803.9953963444661 L 532.0252617537616,806.9296385657645 L 543.7610544074543,810.8884076040342 L 550.4352267251468,819.5971760263618 L 555.0041236395821,830.6567414088578 L 557.6021235652541,843.0886394373031 L 559.0355024929172,861.2216907317224 L 562.2158129175524,875.1394371809141 L 560.9168129547163,881.7951054602452 L 557.4677440499377,883.2378878897557 L 552.6300892058116,883.1680759098762 L 547.2101233122237,885.1227831339297 L 541.1854509759584,890.6841934857315 L 533.66020967915,899.3631352871537 L 527.3219858744625,909.2744114627344 L 524.6567964663723,918.4636203140892 L 527.0980203825977,928.9778949224544 L 537.8483650923107,945.8636990256241 L 539.976037540114,955.724146169878 L 540.9390889899543,955.7706554398623 L 542.8651924400597,957.2821997059941 L 544.2761754240084,959.8634028757288 L 543.7610544074543,963.1653916378834 L 541.7229684866427,963.7234638766402 L 534.466485669987,962.7468352637483 L 532.1596407186254,963.1653916378834 L 525.1719169325106,968.7227336028667 L 522.3499515150198,972.1872073200965 L 521.2301240557698,977.3720823311481 L 520.0207100695188,980.1620461707104 L 517.2883306285763,982.9519368493286 L 514.5783482322166,986.8344146950953 L 513.3689342459656,992.7857238940144 L 513.9288482508263,999.6200242731643 L 516.5268481764615,1008.6387752319421 L 517.131555169564,1014.217005575357 L 512.0475377889903,1054.697006351941 L 508.643261872518,1060.9001193856038 L 503.82800352249444,1065.8019531222703 L 498.31845165235825,1073.0962134957706 L 492.0250208359771,1096.4159679863315 L 489.0238829148911,1103.545608978597 L 487.14257245309193,1113.6006261447214 L 490.79321035554995,1127.950055937444 L 488.5087618983369,1133.220326351343 L 484.58936551572623,1138.2581878843614 L 480.8715381308041,1138.6296334947072 L 479.2141931608697,1129.7377973187165 L 496.4595376846893,1064.8727121360214 L 505.7317104784698,1055.0687381236899 L 509.27036535979664,1049.3299808787494 L 494.7574002768828,1056.787982859776 L 479.8860896364271,1094.2096323303383 L 467.92633149086976,1108.14363036442 L 471.5545728992068,1108.724175051879 L 479.2141931608697,1112.3931446082431 L 475.4963657759476,1114.2740236035854 L 472.62960737016886,1115.0867393356018 L 469.2253314537058,1114.5758898790095 L 464.18610706141084,1112.3931446082431 L 465.32833156523446,1117.4087499924685 L 466.7393139987581,1119.7771502377816 L 469.6284694491197,1120.4040705610475 L 475.4067797993901,1120.1950979018632 L 475.4067797993901,1123.7243686213103 L 469.5612794162673,1127.6482267737738 L 465.41791754179195,1133.382841797615 L 464.4548660919517,1140.2546952225985 L 465.9019345899721,1143.3007021947199 L 459.5640186814709,1140.681617502341 L 458.0707291065934,1136.3327997921642 L 455.7952391934736,1135.7726006746768 L 450.2771769955972,1135.374562506565 L 438.89972891493477,1137.2320615160686 L 436.38246828514417,1137.0404163149815 L 433.3674447937464,1136.347542469936 L 427.692942429227,1136.170637388508 L 425.36056581276785,1136.435994389815 L 403.6723049913002,1135.0649764302798 L 402.06524101977095,1135.4924997791568 L 398.6662280734078,1135.6399214468827 L 376.337986147002,1132.5440276038182 L 373.0243042456118,1131.0992473347553 L 373.9060565621935,1128.651922239717 L 375.01535717708765,1127.236576093521 L 376.1388807053313,1125.0250620173422 L 376.20998982700144,1122.6218319019001 L 376.52286917029596,1120.7198512737946 L 377.2624037385746,1111.2979230100525 L 378.0446035818534,1107.7884517703606 L 378.25793045183576,1105.7977348154286 L 378.1299341318351,1103.6595160359377 L 377.1059635719132,1100.842902466668 L 374.8589175054358,1096.5072394052386 L 373.408293205586,1094.3540902573548 L 372.22788247901184,1091.8174493349773 L 370.677705705813,1089.5019745260372 L 369.5541821775786,1087.3781839157102 L 367.83334331437874,1085.1216107685614 L 366.02717340620603,1082.1717707080034 L 359.300257625123,1074.782069876878 L 356.8967713919934,1071.5959351827826 L 356.66922259869904,1068.7194834137642 L 358.74560657518464,1063.526924928622 L 359.0158211384978,1061.1665894935657 L 358.8451595435063,1058.8357063851859 L 357.3945347486193,1056.4162564208125 L 355.7874702820897,1051.5919466215266 L 354.16618389224806,1048.951025994636 L 351.3929306224839,1046.4575827036451 L 332.2361523541281,1035.8192292086405 L 324.12972089981895,1033.95999185223 L 311.68563698424373,1032.454871216888 L 270.39972173612483,1033.4730431313315 L 254.47129432416793,1038.63753631718 L 252.62245914100433,1031.3481515055894 L 252.57979386601343,1029.0018681134484 L 255.7512575240542,1017.7124325960899 L 261.56797763688587,1006.9088839539844 L 264.81055041660596,998.3331627496586 L 279.99944326029345,974.9936971347544 L 282.7015874084151,972.3804234351985 L 285.6312803498311,970.416735640209 L 296.18386331225156,966.7402604157089 L 306.0253565430547,965.1160744458441 L 308.28662403788064,964.4663926452499 L 309.96479762604355,963.0193614378071 L 310.2065683427144,961.217927581313 L 308.1444057945312,958.8553450442192 L 300.8770613818497,953.7017821373414 L 300.40774137686583,951.5605436764987 L 301.34638089180567,949.7441491626787 L 304.5036226265345,946.7610603193401 L 309.7372488327308,944.3095483280634 L 311.60030593923403,942.8179389722284 L 313.0082649641206,940.957089183233 L 313.9895702490516,938.4759065532924 L 314.5015555289988,935.6106591099935 L 313.6198027173891,928.4472044853005 L 313.77624288406895,925.5078336520154 L 315.0846494356065,917.7232782921433 L 315.1842019089279,914.3847556192378 L 314.62955184899937,912.0211374587558 L 314.67221662898993,909.494961726385 L 315.62507806723255,906.6880293302924 L 332.15082180413714,888.5298211074567 L 335.96226706213486,881.9542777899683 L 338.6644107152562,879.4273875783871 L 344.993116108035,874.7724324225806 L 348.3636852077465,869.9547084683794 L 351.90491590243107,863.4075727833781 L 355.1617106054816,854.273421079248 L 360.79354719998213,842.6402782104345 L 362.6708262298342,840.1124502358467 L 365.7285154912508,837.9984888977883 L 368.3026628243347,835.3966331253545 L 368.4733249143357,830.5475479148514 L 364.7614326246597,826.5705412295017 L 357.0816549103153,819.9615779901078 L 349.1743284026581,806.9494323018852 L 347.1263877778514,802.1729812083604 L 349.00366680770344,796.5385595061035 L 494.81988645174783,793.8469450295909 L 499.96818210799,792.1609534909345 L 502.84098735606597,790.5193040331396 L 514.1046610401135,786.2006089898322 L 521.3197100323181,778.6317512391205" fill="none" stroke="#000000" stroke-width="1.4953208669817033"/>
	<path d="M 588.7553485125455,305.74236831231957 L 565.9336408528811,350.56808395548256 L 569.2707267364918,365.4200534243398 L 562.6189509129663,413.14208608640894 L 549.181020301033,460.6547598314652 L 544.8136923842861,470.2574314560123 L 530.5022962990977,487.28768436104497 L 524.7239859488272,497.82212582662265 L 522.2379684938796,510.10704355409445 L 524.6567964663723,523.8616006586492 L 531.3085722899255,530.8432584850151 L 550.9279512475524,540.8128959395918 L 555.0265201337214,549.4975995842095 L 560.2897094674469,554.2598672011088 L 583.3581578802682,558.2982841787522 L 588.5093647432968,563.013460595137 L 581.8799854138738,574.1469559187226 L 567.6805717994098,574.0069192139221 L 553.5707441614755,571.90634923959 L 547.2101233122237,577.0876781655711 L 545.7767443845606,585.9793521118972 L 523.0218479905773,661.8425277099653 L 517.6914686239903,720.0320433084296 L 517.131555169564,732.0109514809827 L 515.1830552253559,754.4968337519844 L 519.0800551138273,766.5882823269482 L 521.2301240557698,777.4903599026576 L 521.3197100323181,778.6317512391205 L 514.1046610401135,786.2006089898322 L 502.84098735606597,790.5193040331396 L 499.96818210799,792.1609534909345 L 494.81988645174783,793.8469450295909 L 349.00366680770344,796.5385595061035 L 361.3481982499481,792.042636856545 L 363.06903711314794,791.1404719413675 L 364.3489998180339,789.9572922546153 L 365.4298575762495,788.6409897196233 L 367.364023804432,785.1209076512109 L 367.8760090843792,782.2958829591661 L 368.81464810430947,780.3286740060735 L 369.83861866423143,778.6720483013155 L 371.10435994077807,777.9916412703419 L 372.1425519290117,776.7195638430971 L 373.36562743556715,773.7759766476266 L 375.2713498170981,767.577901777472 L 375.9539971870278,763.5245479817082 L 378.7130285334432,756.7340895682981 L 378.81258100677377,751.4671129495918 L 378.3432610018175,745.1345550174412 L 373.7353944721925,734.1700384895184 L 367.5773506744144,725.2614480948482 L 366.8378166011453,722.2276181431624 L 367.5773506744144,701.1659728751534 L 362.01662320154713,586.9473545727656 L 360.67977329835827,579.0931554171017 L 358.61761025517484,575.6845441611182 L 353.99552229725657,577.9520246779091 L 350.71028374754525,585.183916166717 L 347.4250456928159,590.8742293515824 L 334.4405331456146,596.3123344612384 L 327.61406439620066,513.1980098140177 L 327.9980533561656,502.8762865737067 L 335.10895809720444,482.7192291193987 L 341.36655486335025,472.98783603873034 L 357.5509744202712,465.4067929211572 L 363.15436766312973,463.78962873271865 L 367.6626817193965,461.78668289684373 L 370.20838570085675,459.1605395801563 L 370.5070436158304,455.4363445170004 L 369.8101748175522,452.4242460561268 L 367.09380924111883,444.96038712289766 L 366.8093732494664,440.924036969468 L 368.4733249143357,427.2704870491603 L 368.37377244100514,424.02007769821415 L 366.6387111595022,411.1658435646679 L 366.5960463795116,407.9742979608721 L 366.8520385244849,405.43583376250734 L 370.2368295475176,390.23340731644714 L 370.4074906474995,382.77982241341175 L 369.9239497092043,379.30525400610577 L 367.9613396343794,371.6132636903136 L 367.6057945210936,367.4403372649241 L 368.20311035102253,361.64844437737923 L 369.411963934266,356.6730923425731 L 372.83942023228036,346.7216517031045 L 401.9514661281096,330.0693579788446 L 524.0883720192289,298.6438299259326 L 588.7553485125455,305.74236831231957" fill="none" stroke="#000000" stroke-width="1.4953208669817033"/>
	<path d="M 769.6078798385115,633.8552059855633 L 776.4836211539018,627.7436355147421 L 782.8666384973208,637.983810495836 L 792.1388107406485,665.5269627757505 L 789.5856038032828,669.7475795385373 L 788.6449482971753,675.4136627728957 L 788.7121383300092,688.9830283655702 L 784.9495174064018,688.9830283655702 L 785.1510864041271,683.0612201144486 L 784.9495174064018,681.1493837437528 L 781.8363970146189,682.1286213369692 L 779.731121060955,683.7373490617815 L 778.3425345711457,685.9988524690319 L 777.1331211353198,688.9830283655702 L 777.5810521190125,654.2400519449379 L 775.6997416572134,639.8031433727523 L 769.6078798385115,633.8552059855633" fill="none" stroke="#000000" stroke-width="1.4953208669817033"/>
	<path d="M 775.4085866829305,543.7779180196089 L 782.015569518205,544.0113806314214 L 789.8543622834263,545.925753921008 L 796.6181205776671,551.5752825898626 L 800.0,563.013460595137 L 797.7379485873606,571.6962898287967 L 786.3605003903689,594.1002109733245 L 779.0592245854253,603.9003971136328 L 773.460086738704,613.6529923809944 L 765.4869144582123,618.8788855603311 L 754.5573972449133,610.3400133180179 L 748.9134664099133,619.6720780460463 L 741.9481385675313,625.0376343911569 L 735.6099147628346,631.9657892998317 L 731.6681213356779,645.9373259664587 L 728.2414489250386,671.5663559302758 L 726.8976559739239,675.740094700172 L 724.0756905564239,681.5690582896173 L 721.5896736519289,688.7032656323443 L 721.0521561412353,696.81608396869 L 713.213363376014,688.9830283655702 L 715.2738457909556,687.0713001386883 L 715.9905352547918,685.1595373954553 L 716.2145012970632,683.2011094397385 L 716.975983749178,681.1493837437528 L 718.2973802061534,668.9780878626834 L 723.3813975867271,648.7593940970557 L 726.024190500678,621.2584453510245 L 730.3915178669812,612.20649351571 L 737.4464316859484,605.6503325942433 L 747.0321559481049,598.6270790129038 L 758.3200176181049,586.8894801485277 L 763.8743624765198,586.3994122918575 L 772.0715002488763,589.8065031798815 L 778.9696380584336,590.7866041965368 L 784.2776209308444,585.7926580857315 L 788.5105693323115,574.5437250706852 L 789.5408108150133,562.4999371793584 L 784.9495174064018,555.2169634404223 L 778.8800520818485,560.6325572838329 L 773.7960347012656,563.5269820221475 L 769.6078798385115,563.013460595137 L 769.876638318655,559.3720563508275 L 775.4085866829305,543.7779180196089" fill="none" stroke="#000000" stroke-width="1.4953208669817033"/>
	<path d="M 638.072932878692,488.54907124109934 L 645.6205706696305,494.9959185892437 L 651.0853295514787,508.93933920500695 L 656.4828984004838,539.5288053053284 L 652.7426739710065,539.5288053053284 L 649.965501541822,533.9720078692415 L 645.1278466976592,520.3589174092515 L 638.072932878692,488.54907124109934" fill="none" stroke="#000000" stroke-width="1.4953208669817033"/>
	<path d="M 592.2719851164609,465.02397041146685 L 603.8062093228716,459.69677963075543 L 635.0493984634943,438.33848681270456 L 641.4548123010434,435.4405174661708 L 636.3931914146091,454.0889090529408 L 623.5375707512229,465.56134739638674 L 606.3594162602188,471.30876353403204 L 588.5093647432968,472.8740607088749 L 588.4645712045655,470.1873418445125 L 589.2260542071238,468.43509623867766 L 592.2719851164609,465.02397041146685" fill="none" stroke="#000000" stroke-width="1.4953208669817033"/>
	<path d="M 728.2414489250386,267.7779076183662 L 731.6681213356779,267.7779076183662 L 727.3231904634771,292.6361705135615 L 716.6176387420704,315.5227960847001 L 699.4170872065204,332.2983311293947 L 675.6319498802787,338.7785074743933 L 675.6319498802787,334.895130776667 L 681.3430701976968,335.0822844238001 L 683.1571911770778,334.895130776667 L 703.2245011184066,320.50661516268957 L 710.3690009139311,310.4217303857269 L 713.213363376014,295.6318542192907 L 704.5235010812335,296.07651835087586 L 706.8527425267437,278.24160025896276 L 716.975983749178,242.25782503195143 L 718.1630012412896,239.72887491419178 L 720.7162076282302,237.66820149969632 L 723.3366045984576,234.97521174342313 L 724.4788285518378,230.45550913022194 L 724.8147770648336,224.83486774542035 L 732.9671212984771,194.5247767769651 L 738.3870871920558,189.41753076617388 L 747.0321559481049,193.09571169817687 L 759.1486901030721,185.05976505285778 L 764.635845479069,192.93171913007666 L 763.7175864671008,205.7223151954057 L 756.4387077067124,212.421495116232 L 752.362535314692,218.932852759269 L 741.119466082564,249.89111984856044 L 735.7666902218377,260.26303679261065 L 731.9816733545067,257.66430566326704 L 728.2414489250386,255.97860561647386 L 726.8976559739239,262.01889830414837 L 724.8147770648336,266.3030707562604 L 721.6344666401984,269.39317981419873 L 716.975983749178,271.71069871753105 L 716.975983749178,275.5965198361269 L 721.0521561412353,283.8592394738969 L 726.2257594983664,276.27535254986276 L 727.4575699787844,272.8343250229721 L 728.2414489250386,267.7779076183662" fill="none" stroke="#000000" stroke-width="1.4953208669817033"/>
	<path d="M 627.9720881503878,559.9322810855308 L 638.2073123939624,567.7751031368209 L 643.3361227628425,575.3372582170638 L 642.1715017648795,581.0085110149957 L 640.6261398160393,583.5989789661344 L 640.4917603007689,587.0528357744975 L 638.1849158998231,592.2334035976681 L 634.3775019879369,591.8133671699568 L 633.3696569993837,587.0528357744975 L 632.6305710414174,575.1272058020736 L 631.8914845329892,572.6065439904298 L 627.4793641784164,573.1900362671516 L 622.7312953108018,570.9960888900107 L 619.5509848861666,567.0048521111244 L 617.7144674126738,564.1338667913952 L 616.0347264989698,562.5232791562801 L 616.1019159814156,559.1386286210547 L 619.7973468721707,556.7109484864633 L 627.9720881503878,559.9322810855308" fill="none" stroke="#000000" stroke-width="1.4953208669817033"/>
	<path d="M 697.6253632716854,230.40867188088544 L 700.8056736963206,229.07379757557462 L 702.4406216217089,230.6896956223774 L 701.2312081858738,236.6846828747599 L 696.7742942925696,240.61869807579635 L 690.8168114387499,241.6958419087529 L 689.2042600074917,238.0662896025212 L 693.1684493783811,232.37582201979987 L 695.9680183017417,230.50234635752628 L 697.6253632716854,230.40867188088544" fill="none" stroke="#000000" stroke-width="1.4953208669817033"/>
	<path d="M 713.8852598515622,214.43584509327806 L 715.20665630851,216.73121857849213 L 715.6097943039239,222.91440904423038 L 712.38469089101,228.90986426001712 L 707.8381910211575,232.30556749015693 L 705.9120875710428,231.90745640309035 L 705.1953975568,228.9567022132201 L 704.3219320835173,226.68503038456547 L 705.2401905450788,224.69434743508592 L 708.0621565129854,223.10177256780833 L 710.9737079070704,220.6191785880428 L 711.9591564014567,217.4104514635647 L 712.9893978841493,215.2790496399106 L 713.8852598515622,214.43584509327806" fill="none" stroke="#000000" stroke-width="1.4953208669817033"/>
	<path d="M 747.5248799201131,162.8462431962807 L 749.540569897192,163.85392656254209 L 749.8765178597444,166.17390194485043 L 749.540569897192,169.1265195350617 L 747.5920694025313,174.89090091990988 L 742.3512765629451,181.63901926145186 L 739.193362632477,178.89765104658358 L 740.7163280871409,169.05622031616014 L 742.8887940736296,165.611488324049 L 744.6133285260281,166.9706483934203 L 744.9044835003017,165.7989598854566 L 743.9862250387771,163.29149977987376 L 744.2101905306141,162.30724595097587 L 746.1138974865527,162.70563522637912 L 747.5248799201131,162.8462431962807" fill="none" stroke="#000000" stroke-width="1.4953208669817033"/>
</svg>
