<?xml version="1.0" ?>
<svg xmlns="http://www.w3.org/2000/svg" xmlns:ev="http://www.w3.org/2001/xml-events" xmlns:xlink="http://www.w3.org/1999/xlink" baseProfile="full" height="230px" version="1.1" viewBox="-80.06806963912722 -30.79834860516979 956.8333496178286 365.5966972103396" width="600px">
	<defs/>
	<path d="M 712.7169548389925,69.15065022715379 L 712.7544918378219,69.18020343204182 L 715.5031057612078,70.83806049167023 L 720.9552751708884,72.50955440139403 L 727.8042809787231,74.12618268744662 L 737.3117829639568,69.5775462594695 L 757.3631492967745,74.12618268744662 L 758.835947979447,71.96617432316486 L 763.0526049957408,75.56457432957787 L 769.1294644611548,80.77199059539129 L 775.7286933001984,88.27819457256703 L 780.5894153006831,102.76922004090194 L 785.4856173706801,112.08229863902719 L 791.4462110623385,120.6606175570176 L 796.6972103395742,124.23800356427502 L 790.6301773113605,124.66899381375595 L 779.3831047089457,123.46221054787574 L 768.5263089472903,120.35889692374147 L 763.7010665803261,115.01377602642327 L 758.5210265701536,112.34096632628237 L 734.856050843108,115.35864223289421 L 714.3132902780104,121.58731871421126 L 709.8428451182576,124.23800356427502 L 708.2538864566349,125.91565552508548 L 699.8228388437518,117.88944701469764 L 698.1105874471383,115.72699968420585 L 697.4346988101802,114.00243854169534 L 696.7137505648133,109.59491181476423 L 695.812565846246,106.93922766263391 L 695.2042658377236,105.77560265668454 L 695.0690881887447,105.62501336966132 L 692.7034771752257,105.40597398435851 L 686.0797676704555,105.6523934525311 L 683.1058570405232,106.14522862575873 L 679.0952320712914,105.15912581982585 L 679.4557061070277,93.57575201757211 L 676.0312034211327,89.85088285803481 L 665.8478126732931,85.35869910846806 L 668.1908932518828,79.52363675625436 L 672.2912851364028,76.20852978085652 L 678.1039290178624,73.30417523404194 L 681.4833719588245,75.77014875919834 L 684.231986318182,78.70173375655389 L 690.3149851814795,77.46884868025468 L 695.7671545911346,73.71518145960806 L 698.8311836772651,69.9885881899503 L 701.2193240008135,67.05640825504496 L 709.0596332980981,73.30417523404194 L 712.7169548389925,69.15065022715379" fill="none" stroke="#000000" stroke-width="0.7966972103395742"/>
	<path d="M 497.799339821767,0.0 L 501.2238429436829,2.936773900725166 L 502.57562046889456,9.139016694685374 L 503.97245730301665,16.602471303635696 L 509.3345080947452,26.944886654376333 L 514.1107878699041,35.66678521727807 L 522.3115716388929,50.555734698460974 L 525.3756007250727,55.51756828958303 L 525.3756007250727,65.0558345757543 L 525.3756007250727,75.35916327900833 L 522.9874608374686,85.35869910846806 L 520.5993205139202,98.14923009200359 L 520.9147352407643,103.0781823784233 L 525.3756007250727,104.33771283127128 L 525.3756007250727,101.02452072358139 L 526.0514899235991,95.65715531423402 L 527.4032670128137,89.02917704789574 L 529.4759926095434,85.35869910846806 L 532.8103775495026,75.77014875919834 L 535.5589910368694,73.30417523404194 L 538.6230201230254,73.30417523404194 L 542.6558228260892,74.12618268744662 L 548.1305221082117,76.20852978085652 L 550.8340771585822,75.77014875919834 L 551.53249579363,70.39962512125915 L 553.2222174821324,67.05640825504496 L 555.9257720965094,67.05640825504496 L 559.6656899452421,70.39962512125915 L 562.4143038686079,74.94817386209814 L 564.4419701563488,82.81109348173587 L 569.9166694385206,86.97484345041316 L 575.3913687206632,87.79658857963688 L 580.0775303138689,83.6877061544122 L 585.2142845607576,81.16739712558841 L 595.4427346175366,89.44003165369311 L 601.8411477716594,89.44003165369311 L 603.5533993326055,88.61831851039527 L 610.041931540672,89.44003165369311 L 613.7198254269533,87.81581624343127 L 616.1474602764371,90.26172960096031 L 623.6498249744084,93.98656312288765 L 625.001602499569,97.7110735921279 L 621.2166253418968,101.02452072358139 L 622.568402867083,104.33771283127128 L 629.4174091109094,107.21258932759197 L 627.682627677472,113.42714108351369 L 623.9652397012287,112.16787754888996 L 622.9288764668969,111.78461599132342 L 616.1474602764371,107.21258932759197 L 611.3937090658344,106.41859527234996 L 605.9415396561539,105.59720636141665 L 596.4340381069374,100.61377692925825 L 592.3111167858979,98.55999745320166 L 587.6024253202775,96.86213242195231 L 584.1779221983397,98.55999745320166 L 580.3929450406383,99.38152092124244 L 575.3913687206632,96.04056129421637 L 570.6150876376223,95.21897392011124 L 566.830110915867,98.14923009200359 L 563.4506671029161,105.15912581982585 L 555.565298060724,108.4446202246586 L 550.158188396002,106.00790251473056 L 547.4546333456551,98.9707614161812 L 547.4546333456551,86.15308312153505 L 544.0301306596853,82.40017542656513 L 539.9747976482116,86.15308312153505 L 536.7161921132907,89.42116036928641 L 537.654598528516,92.2478627533999 L 539.0739652150589,97.79365633520484 L 539.9526201294375,99.32718123719185 L 541.2368087749162,100.7785028829234 L 542.7913531104144,102.14762865254484 L 544.0079527353502,104.42028197875305 L 544.4134860743486,105.29645387296519 L 544.4810747028118,105.73453312003467 L 540.4257424889772,107.45942605531245 L 539.4119091414564,108.74620615212221 L 538.6684318760368,110.22458636840196 L 538.0601318675418,112.77056645089012 L 533.8020325921271,124.40350417628932 L 532.1798996281674,125.63504253417481 L 530.2198223457524,125.99081422447607 L 528.2597446712318,125.77187811135259 L 526.4348450377739,125.06032911786953 L 524.9929489391219,124.10245603888396 L 523.1004606772262,123.74666967897699 L 520.5320837783723,124.4582399315661 L 513.8407848610028,128.4811303243239 L 511.4751742395674,129.17894018255095 L 509.44750793660927,128.97370338820042 L 507.6901969315871,128.2074764493197 L 503.90522040779575,125.06032911786953 L 502.73367960710715,124.34876835136068 L 501.11154664314745,123.82877430166832 L 498.9487030832903,123.8835107884593 L 498.1376364052933,124.59507925309528 L 497.79969208681416,125.7445113164969 L 498.0700473847502,127.35913765788858 L 497.93486973576944,130.1503824522981 L 497.05621403723114,133.78967485078343 L 493.8795371298567,140.38339821954057 L 491.9194598474435,142.84552550698427 L 490.22973786296444,144.07653657402264 L 488.4724272500495,143.93975919932367 L 480.2265843892379,142.44885914977107 L 477.09496630610874,142.81816957008002 L 471.89062309577616,144.84248098362238 L 468.9167124658439,145.4442845132027 L 466.68627988546547,145.15706150790814 L 464.45584691298706,142.7087442204335 L 462.83371394905294,141.55976577539982 L 460.8060476460948,140.88951339035486 L 456.88589308124097,141.55976577539982 L 446.04914351738483,150.35414406846687 L 437.19500104013446,159.16039901481648 L 432.5989574462425,162.633178602419 L 429.4673393631133,164.09603758945025 L 427.9803840481599,163.5218369798888 L 427.52979149280895,162.20935038554677 L 427.52979149280895,160.82846187940814 L 427.1693173701392,159.6389487388072 L 426.2906624557626,159.06468871756516 L 423.78987418534456,157.76573977853633 L 422.50568514778223,156.71287834094915 L 420.88355257592804,156.08388382840238 L 412.02940970659773,158.9142858483286 L 410.06933203210457,159.1467264681737 L 407.9740771007106,158.9826508107378 L 406.14917746725075,158.3536894444409 L 404.59463352383415,157.3965575477605 L 402.566967220876,154.68912496546093 L 401.1926601427434,153.59516444454314 L 398.96222717028695,153.0755236758447 L 396.191083209853,153.10287309582029 L 391.1895066690169,154.33359091573428 L 387.4721187736651,156.1249058000743 L 379.2713347371005,161.36168191846835 L 377.78437981422707,162.59216330423746 L 376.7029578382448,164.0686951487333 L 376.0270688092049,165.3264413591737 L 374.47252486578833,169.45487145927154 L 358.1836062057762,162.3870852759989 L 355.5251104821849,162.15466261602606 L 351.80772180267144,162.4007572700955 L 349.1717562753781,163.4534796965907 L 344.44053464042366,164.43782020327924 L 342.07492441106814,163.79526645612106 L 340.72314674506816,162.4007572700955 L 340.1824353649853,160.54134099242674 L 338.0871804335894,157.69737288462096 L 334.5725592077341,154.25154447260843 L 318.6666436904463,142.7087442204335 L 317.78798877606783,141.72390736319582 L 317.31486641652805,140.8758350404962 L 316.84174405698826,139.39850814951083 L 315.82791110154733,136.96354331649894 L 314.1381895091537,133.9538465560272 L 310.01526749063805,129.0968457728273 L 307.04135725278564,127.30440559446168 L 304.38286152919807,126.5518318260233 L 302.42278424675925,126.92127872405457 L 299.17851831886367,128.45376525327717 L 283.9710216348046,139.17964025817932 L 280.36628158421547,140.7664047524608 L 276.58130427626253,141.45033722634497 L 267.18645081105836,141.66919357015846 L 264.2125405731823,141.39562308551697 L 261.5765742617255,140.6569751383827 L 256.03428673291563,137.0456231926069 L 253.24061296826372,136.11537765078074 L 250.3342909667691,135.69128783403258 L 247.4955587699537,135.60920585058358 L 243.7781704825183,135.9238538732554 L 241.41255986108104,135.45872149011382 L 239.04694923964558,134.28218713483952 L 232.55841699177626,129.95883259434478 L 230.03509930924747,129.4389054147054 L 228.21019967578766,129.99987852002926 L 226.3177110218139,133.10562060555267 L 224.96593374789566,134.20010246312427 L 223.14103411443585,134.7062903643759 L 221.18095643991535,135.0346256772229 L 219.49123484754355,135.65024733804236 L 218.7477567979605,137.01826309257558 L 218.5449901284622,138.65982544771055 L 218.61257954106148,140.4791505293933 L 218.27463483050246,142.38046793056472 L 216.92285755658241,145.9913718063059 L 216.44973519706818,148.0155344824909 L 216.17937989910664,150.094304673036 L 216.1117912706708,157.3965575477605 L 205.54539700474888,153.08919862598935 L 203.6529083507733,153.33534508198838 L 201.49006439883618,154.07377600836222 L 200.67899811289539,155.72836176886025 L 199.1920427979183,157.91614618242463 L 196.9616098254618,160.1858552473954 L 192.02762191308713,163.1116897497014 L 189.05371128315485,163.78159538039614 L 187.3639892986776,163.46715087639765 L 187.43157831919518,162.46911669962932 L 187.70193400923662,161.32066493387342 L 187.43157831919518,160.240545516348 L 184.79561239979822,159.119379934122 L 183.62407159910595,159.73465728419697 L 183.35371630117177,161.0608916946186 L 183.44383473379827,162.633178602419 L 182.76794609684006,164.31477886982492 L 181.66399470877442,164.10970856539163 L 180.44739469173155,163.28942044173917 L 179.23079506679406,162.09997525294165 L 174.4319848034038,158.17593838724903 L 172.1339632024841,155.64631798294255 L 170.78218553648597,153.75926062747183 L 169.76835218896693,151.8721205770008 L 168.28139726609348,146.57948273725827 L 168.1462192250328,144.910868291059 L 168.34898589453113,144.1586024093467 L 169.0248745314875,143.35161172599283 L 171.66084084296622,143.5567804284356 L 172.60708516994396,143.0643747565074 L 172.94502948842307,141.72390736319582 L 173.01261850896617,138.60510775903978 L 173.28297380690216,137.26450146189887 L 174.83751814240046,134.29586805693515 L 175.58099579990179,132.53100699598372 L 175.91893972630098,130.3282497539594 L 176.05411776735983,128.0980139355891 L 175.91893972630098,125.96344756896606 L 175.10787344036018,122.172961572771 L 174.83751814240046,120.28443572245722 L 174.90510677086183,115.50801130294924 L 174.16162950544225,113.20856951431286 L 172.8774404679055,110.36147052654084 L 163.82053132115675,94.50734634162059 L 161.38733207128365,92.33002758135484 L 154.74109237021554,88.2078831940549 L 152.17271547136167,84.89344709582588 L 148.65809385344832,78.72955843332278 L 147.2387275589888,75.46918800980484 L 146.63042755049017,72.86619338819165 L 147.306316187452,71.31802189312748 L 148.38773816340688,70.20823596098604 L 150.2126377968649,69.76979452439737 L 152.10512684292402,69.74239202427685 L 153.9976151048197,69.41355731898058 L 155.28180335822034,68.37223134418629 L 155.89010336671535,66.61836268236641 L 156.0928700362137,49.65145705493376 L 155.21421472975533,47.677488100409775 L 153.4569037247605,46.005026195892235 L 151.15888212384266,44.55185040068944 L 147.71184952644867,41.75503413174688 L 146.22489460354967,39.108857787315124 L 145.54900557451157,35.50266585470872 L 144.67035026805505,33.555470498055996 L 142.0343839565727,30.93621530834747 L 139.8715400046611,29.27681403388143 L 128.0209570932641,16.191346503864438 L 128.50728712021623,14.172222739529468 L 129.25263540786523,14.669319591192382 L 132.09101350160614,15.295852390480663 L 136.49049939429577,14.280433007289524 L 143.94124161785987,11.039569932989204 L 144.30952396328126,13.309930733935909 L 149.73916393646422,19.099145039632827 L 154.53797402006214,18.221210288828285 L 158.2778918687492,14.105651356906675 L 160.30555772056783,8.31576129995311 L 160.85518860171305,6.546407471066143 L 165.08715726085418,6.026551850205554 L 169.1903241252834,6.54359445211677 L 183.02650122167861,8.33692666229333 L 191.67603278071198,9.437991103901927 L 191.3288511822324,12.788588782964506 L 192.25256636217117,19.099145039632827 L 195.67706904806624,24.448670018441437 L 200.45334969516472,29.852383755825592 L 205.8829892324016,32.73225670235626 L 212.70946560373866,34.84404044378906 L 228.0296105984686,38.54626773447134 L 236.54580909425596,43.94820251196179 L 243.34975515717954,52.63922662585871 L 247.4050877327107,63.41145675924055 L 254.2540944125105,63.82255725717398 L 256.91259015391597,59.24541919104126 L 261.0129811664453,53.845412449360836 L 263.76159552577906,52.63922662585871 L 268.85329089967786,51.37817780768595 L 279.03668164751736,52.63922662585871 L 283.8129618586205,53.434216803237845 L 288.8821277960454,52.63922662585871 L 294.35682664219627,51.37817780768595 L 304.2248017912503,45.977179748080076 L 312.7410007230585,36.07815194248126 L 323.6002797974593,30.67522443797555 L 331.0801150589603,26.533432707476244 L 341.96192400585227,23.21422380029775 L 351.807370154331,18.221210288828285 L 359.2872054158047,15.751922430759288 L 365.0773194247731,21.568239773894934 L 369.87612907242317,20.745224022961597 L 379.383631493581,9.962255714515642 L 386.16504812000875,7.492491653342129 L 400.448830316351,5.022584445019187 L 415.16067529390864,10.75803860455071 L 422.23497764660885,14.928794811495152 L 435.5725156625355,16.163480568006154 L 448.1215168614103,19.510670455538644 L 454.94799323279665,19.922192445249916 L 459.7242734438998,17.398130168245903 L 467.834938594964,17.398130168245903 L 480.7894731386112,13.309930733935909 L 483.5155576254283,11.224524810986793 L 486.895001438381,5.8459021650310135 L 492.0317556852678,0.8783082601600986 L 497.799339821767,0.0" fill="none" stroke="#000000" stroke-width="0.7966972103395742"/>
	<path d="M 623.9652397012287,112.16787754888996 L 623.3432771041505,120.14338073810876 L 614.118548844475,123.63460985237475 L 602.6585975689769,135.05455433163078 L 599.4299426344803,141.81890247065888 L 596.4496460066368,150.4343676956502 L 594.2499030603049,159.97398376760188 L 593.4693489428219,169.4038529475304 L 594.3563423968601,179.49884574053868 L 593.2919503392271,183.86758722178158 L 589.140822753167,185.67521302576014 L 586.4798432630445,187.67642414274138 L 583.4640670016568,197.1002367883867 L 581.548161559505,200.1119799314491 L 574.807014186357,202.06950074707657 L 560.3312866494695,202.22007571597229 L 554.7609697985686,203.68277521428988 L 550.9646394197197,207.64041951566497 L 546.4587141904784,213.74824578392443 L 541.2431949827586,219.2961554351538 L 535.2826012911001,221.74733066756485 L 521.374549198563,225.18734213335085 L 508.74376740079424,231.29268799057496 L 498.52560678652395,233.57122271614912 L 491.96185758102473,225.68182103207909 L 491.53610110674657,240.51356419621854 L 479.1891568131837,248.14240668710565 L 446.7961685677764,254.84608170385562 L 440.2678994317676,257.9182522587181 L 436.32965008284464,260.56057366410397 L 436.11357867209784,259.4439437705537 L 433.61279040168165,247.21971054279695 L 433.61279040168165,245.1729051815068 L 436.24875671316033,227.81210082050478 L 436.18116769261724,225.80533212002615 L 435.37010140670014,223.68925063631886 L 432.39619077674416,217.68174382217694 L 427.8452063991791,210.67648249858573 L 414.59778699756066,195.36473142709806 L 412.43494304562176,193.47941209083288 L 409.2582657461638,191.5940108404208 L 388.418362708583,184.10624117149706 L 387.20176269156747,183.95592518854073 L 382.3353637997103,184.18823079503605 L 380.57805318677356,183.696288813192 L 377.108491177267,182.22042967053164 L 374.2021691757724,179.295892158217 L 374.47252486578833,169.45487145927154 L 376.0270688092049,165.3264413591737 L 376.7029578382448,164.0686951487333 L 377.78437981422707,162.59216330423746 L 379.2713347371005,161.36168191846835 L 387.4721187736651,156.1249058000743 L 391.1895066690169,154.33359091573428 L 396.191083209853,153.10287309582029 L 398.96222717028695,153.0755236758447 L 401.1926601427434,153.59516444454314 L 402.566967220876,154.68912496546093 L 404.59463352383415,157.3965575477605 L 406.14917746725075,158.3536894444409 L 407.9740771007106,158.9826508107378 L 410.06933203210457,159.1467264681737 L 412.02940970659773,158.9142858483286 L 420.88355257592804,156.08388382840238 L 422.50568514778223,156.71287834094915 L 423.78987418534456,157.76573977853633 L 426.2906624557626,159.06468871756516 L 427.1693173701392,159.6389487388072 L 427.52979149280895,160.82846187940814 L 427.52979149280895,162.20935038554677 L 427.9803840481599,163.5218369798888 L 429.4673393631133,164.09603758945025 L 432.5989574462425,162.633178602419 L 437.19500104013446,159.16039901481648 L 446.04914351738483,150.35414406846687 L 456.88589308124097,141.55976577539982 L 460.8060476460948,140.88951339035486 L 462.83371394905294,141.55976577539982 L 464.45584691298706,142.7087442204335 L 466.68627988546547,145.15706150790814 L 468.9167124658439,145.4442845132027 L 471.89062309577616,144.84248098362238 L 477.09496630610874,142.81816957008002 L 480.2265843892379,142.44885914977107 L 488.4724272500495,143.93975919932367 L 490.22973786296444,144.07653657402264 L 491.9194598474435,142.84552550698427 L 493.8795371298567,140.38339821954057 L 497.05621403723114,133.78967485078343 L 497.93486973576944,130.1503824522981 L 498.0700473847502,127.35913765788858 L 497.79969208681416,125.7445113164969 L 498.1376364052933,124.59507925309528 L 498.9487030832903,123.8835107884593 L 501.11154664314745,123.82877430166832 L 502.73367960710715,124.34876835136068 L 503.90522040779575,125.06032911786953 L 507.6901969315871,128.2074764493197 L 509.44750793660927,128.97370338820042 L 511.4751742395674,129.17894018255095 L 513.8407848610028,128.4811303243239 L 520.5320837783723,124.4582399315661 L 523.1004606772262,123.74666967897699 L 524.9929489391219,124.10245603888396 L 526.4348450377739,125.06032911786953 L 528.2597446712318,125.77187811135259 L 530.2198223457524,125.99081422447607 L 532.1798996281674,125.63504253417481 L 533.8020325921271,124.40350417628932 L 538.0601318675418,112.77056645089012 L 538.6684318760368,110.22458636840196 L 539.4119091414564,108.74620615212221 L 540.4257424889772,107.45942605531245 L 544.4810747028118,105.73453312003467 L 544.4134860743486,105.29645387296519 L 544.0079527353502,104.42028197875305 L 542.7913531104144,102.14762865254484 L 541.2368087749162,100.7785028829234 L 539.9526201294375,99.32718123719185 L 539.0739652150589,97.79365633520484 L 537.654598528516,92.2478627533999 L 536.7161921132907,89.42116036928641 L 539.9747976482116,86.15308312153505 L 544.0301306596853,82.40017542656513 L 547.4546333456551,86.15308312153505 L 547.4546333456551,98.9707614161812 L 550.158188396002,106.00790251473056 L 555.565298060724,108.4446202246586 L 563.4506671029161,105.15912581982585 L 566.830110915867,98.14923009200359 L 570.6150876376223,95.21897392011124 L 575.3913687206632,96.04056129421637 L 580.3929450406383,99.38152092124244 L 584.1779221983397,98.55999745320166 L 587.6024253202775,96.86213242195231 L 592.3111167858979,98.55999745320166 L 596.4340381069374,100.61377692925825 L 605.9415396561539,105.59720636141665 L 611.3937090658344,106.41859527234996 L 616.1474602764371,107.21258932759197 L 622.9288764668969,111.78461599132342 L 623.9652397012287,112.16787754888996" fill="none" stroke="#000000" stroke-width="0.7966972103395742"/>
	<path d="M 686.2596526059484,127.11241485142351 L 682.8802087929957,125.00516662052637 L 688.2873188936894,120.0787284789099 L 692.027236742422,119.20285808915752 L 692.027236742422,110.11465134964476 L 683.8715122823965,109.29333255541647 L 679.0952320712914,105.15912581982585 L 683.1058570405232,106.14522862575873 L 686.0797676704555,105.6523934525311 L 692.7034771752257,105.40597398435851 L 695.0690881887447,105.62501336966132 L 695.2042658377236,105.77560265668454 L 695.812565846246,106.93922766263391 L 696.7137505648133,109.59491181476423 L 697.4346988101802,114.00243854169534 L 698.1105874471383,115.72699968420585 L 699.8228388437518,117.88944701469764 L 708.2538864566349,125.91565552508548 L 706.3235176536847,127.95368659139832 L 694.3703177569852,125.38831034226651 L 686.2596526059484,127.11241485142351" fill="none" stroke="#000000" stroke-width="0.7966972103395742"/>
	<path d="M 248.10005039511807,264.7180549765206 L 245.8403984003319,264.5226257679462 L 244.38776550451072,263.93633232050155 L 242.28951750390036,266.28145846786833 L 240.1912695033155,269.01727807095426 L 238.7386361715264,270.97132917153965 L 232.92810371630216,271.94832139060065 L 229.7000299362845,279.7634679032584 L 220.98423038151228,278.59128571263176 L 215.81931259508374,277.0283271323461 L 212.91404636749715,280.740262342488 L 213.16218363485723,289.1217273045669 L 208.15954266427468,290.9034911735335 L 189.92296438208803,293.24328625633666 L 171.79282500048146,289.67987817776026 L 161.29643143963986,285.07980574585923 L 161.590098740782,273.9557373460084 L 161.31974305076426,271.9374708309919 L 160.7114434343218,270.24641812123804 L 159.74266930313152,268.82806564220795 L 159.42725439676315,267.4778596392851 L 159.9679653847643,266.2094451814651 L 162.9418760146966,264.2862955784483 L 165.5102533056358,262.17209575268043 L 168.75451923352782,258.18893555639283 L 176.2568844368618,253.1003250912411 L 178.14937269875747,251.34031796139513 L 181.19087234923285,248.96624072668118 L 184.79561239979822,245.2274878705987 L 189.25647795265502,242.5528531870331 L 190.60825522657325,240.39664956042716 L 191.55449955354734,237.16214249527982 L 191.8248552435888,230.5832000916444 L 190.87861091658917,227.6482870425517 L 189.5268336426709,225.64151025897493 L 188.17505636875268,224.64491329450692 L 187.22881164969687,223.51176811452856 L 187.49916733971457,221.09520236780307 L 188.85094500571273,217.57250877818686 L 196.08295412692172,207.15293842538017 L 198.1782098424792,204.8447255464144 L 199.6651647653782,203.99789381297515 L 201.55765302727386,203.53349557777977 L 203.1797863833116,202.87786636925608 L 205.27504131470744,200.30988702962006 L 211.5157472846716,186.75716939608606 L 213.94894692665196,182.90370434446717 L 216.38214656860498,180.7445195375559 L 218.34222345896384,179.86988265570199 L 220.16712309239813,178.50322679870172 L 222.2623788079793,175.81078739217833 L 223.07344509391828,173.66491621539373 L 222.9382674449375,171.31390313145977 L 217.93669090410145,164.5198472465126 L 216.1117912706708,157.3965575477605 L 216.17937989910664,150.094304673036 L 216.44973519706818,148.0155344824909 L 216.92285755658241,145.9913718063059 L 218.27463483050246,142.38046793056472 L 218.61257954106148,140.4791505293933 L 218.5449901284622,138.65982544771055 L 218.7477567979605,137.01826309257558 L 219.49123484754355,135.65024733804236 L 221.18095643991535,135.0346256772229 L 223.14103411443585,134.7062903643759 L 224.96593374789566,134.20010246312427 L 226.3177110218139,133.10562060555267 L 228.21019967578766,129.99987852002926 L 230.03509930924747,129.4389054147054 L 232.55841699177626,129.95883259434478 L 239.04694923964558,134.28218713483952 L 241.41255986108104,135.45872149011382 L 243.7781704825183,135.9238538732554 L 247.4955587699537,135.60920585058358 L 250.3342909667691,135.69128783403258 L 253.24061296826372,136.11537765078074 L 256.03428673291563,137.0456231926069 L 261.5765742617255,140.6569751383827 L 264.2125405731823,141.39562308551697 L 267.18645081105836,141.66919357015846 L 276.58130427626253,141.45033722634497 L 280.36628158421547,140.7664047524608 L 283.9710216348046,139.17964025817932 L 299.17851831886367,128.45376525327717 L 302.42278424675925,126.92127872405457 L 304.38286152919807,126.5518318260233 L 307.04135725278564,127.30440559446168 L 310.01526749063805,129.0968457728273 L 314.1381895091537,133.9538465560272 L 315.82791110154733,136.96354331649894 L 316.84174405698826,139.39850814951083 L 317.31486641652805,140.8758350404962 L 317.78798877606783,141.72390736319582 L 318.6666436904463,142.7087442204335 L 334.5725592077341,154.25154447260843 L 338.0871804335894,157.69737288462096 L 340.1824353649853,160.54134099242674 L 340.72314674506816,162.4007572700955 L 342.07492441106814,163.79526645612106 L 344.44053464042366,164.43782020327924 L 349.1717562753781,163.4534796965907 L 351.80772180267144,162.4007572700955 L 355.5251104821849,162.15466261602606 L 358.1836062057762,162.3870852759989 L 374.47252486578833,169.45487145927154 L 374.2021691757724,179.295892158217 L 377.108491177267,182.22042967053164 L 380.57805318677356,183.696288813192 L 382.3353637997103,184.18823079503605 L 387.20176269156747,183.95592518854073 L 388.418362708583,184.10624117149706 L 409.2582657461638,191.5940108404208 L 412.43494304562176,193.47941209083288 L 414.59778699756066,195.36473142709806 L 427.8452063991791,210.67648249858573 L 432.39619077674416,217.68174382217694 L 435.37010140670014,223.68925063631886 L 436.18116769261724,225.80533212002615 L 436.24875671316033,227.81210082050478 L 433.61279040168165,245.1729051815068 L 433.61279040168165,247.21971054279695 L 436.11357867209784,259.4439437705537 L 436.32965008284464,260.56057366410397 L 430.9012522020178,264.16933825140757 L 424.5858613031462,265.3721929241623 L 393.1863049763894,261.7205666368145 L 361.9286680556765,265.3721929241623 L 355.18752024656067,267.17641174044496 L 349.0140483177632,271.4289169038113 L 328.79060532635253,290.1306868738128 L 324.31973434662183,299.03942686860773 L 313.4619483586049,299.03942686860773 L 304.2248017912503,300.29325170659564 L 301.16077314109145,304.0 L 298.1418033639005,301.9558768076517 L 297.4659150373155,294.54171376193364 L 302.51255110222183,289.98900761554086 L 304.5402169540441,292.87880430497864 L 313.05641501388357,292.87880430497864 L 312.06511152448286,278.4824321306732 L 297.75879989164656,276.40983357740856 L 292.32916035443156,281.78202366448016 L 289.6256053040866,286.74457204591897 L 286.87699094475096,284.2361021101578 L 281.42482197104016,281.78202366448016 L 279.8642129273297,285.3995074731414 L 267.14988483253114,282.0610794698552 L 258.9140975145309,275.66069197623926 L 256.65444551974656,270.97132917153965 L 256.3316384033327,264.1317641760166 L 253.74917929213444,264.7180549765206 L 250.35970195390894,264.7180549765206 L 248.10005039511807,264.7180549765206" fill="none" stroke="#000000" stroke-width="0.7966972103395742"/>
	<path d="M 161.29643143963986,285.07980574585923 L 154.5496790728895,282.12276570290294 L 132.23293247168024,268.2288386980066 L 124.21451480376389,264.7707697657608 L 115.13170551416239,262.55831982919534 L 96.61128929180198,260.60353733183956 L 88.98314846463948,257.4671075874087 L 81.63884557762705,252.89095026002892 L 64.25378067993542,239.09509574000293 L 61.73472015991263,236.19353819940463 L 59.00278140272707,220.9087864270348 L 57.22879536661738,218.45756361085228 L 56.94495742646914,213.49018571104128 L 46.83323614875053,185.67521302576014 L 41.937034078751715,181.4788225584512 L 32.67682574956017,175.3449026441089 L 28.738576400664588,171.2120852929519 L 25.155124258954828,165.9163336178368 L 22.529624838324594,159.56487879980673 L 22.24578689817453,152.71717696352536 L 26.006637643479024,145.91146347373657 L 17.633422768325776,132.1244428330556 L 16.81738901734773,126.56530023658928 L 16.81738901734773,115.01377602642327 L 14.901484011162099,105.03300125501035 L 5.428397444835143,88.62327546971252 L 1.91590500618563,80.46998966289215 L 0.0,67.17983328473042 L 1.490148095939558,57.511677683372355 L 6.492789502490058,54.27408464152763 L 15.32724092140817,60.40372055603731 L 28.312819926388286,74.64526556832244 L 35.58616311036783,80.38370344330345 L 43.85293908493552,83.79188570097122 L 61.947598397049866,82.97222093342867 L 77.70059622870593,74.60211662363767 L 90.6506956001399,61.80650702559527 L 100.37214003712653,47.88451769476386 L 106.86492953961842,31.431313366498284 L 111.54825337247817,22.48952023617967 L 118.46679934924452,17.477843580946875 L 119.31831273376508,14.971785139533473 L 120.52462332550063,12.443974109316592 L 123.04368384554714,11.342060612390457 L 125.20794715836038,11.947036085794362 L 128.50728712021623,14.172222739529468 L 128.0209570932641,16.191346503864438 L 139.8715400046611,29.27681403388143 L 142.0343839565727,30.93621530834747 L 144.67035026805505,33.555470498055996 L 145.54900557451157,35.50266585470872 L 146.22489460354967,39.108857787315124 L 147.71184952644867,41.75503413174688 L 151.15888212384266,44.55185040068944 L 153.4569037247605,46.005026195892235 L 155.21421472975533,47.677488100409775 L 156.0928700362137,49.65145705493376 L 155.89010336671535,66.61836268236641 L 155.28180335822034,68.37223134418629 L 153.9976151048197,69.41355731898058 L 152.10512684292402,69.74239202427685 L 150.2126377968649,69.76979452439737 L 148.38773816340688,70.20823596098604 L 147.306316187452,71.31802189312748 L 146.63042755049017,72.86619338819165 L 147.2387275589888,75.46918800980484 L 148.65809385344832,78.72955843332278 L 152.17271547136167,84.89344709582588 L 154.74109237021554,88.2078831940549 L 161.38733207128365,92.33002758135484 L 163.82053132115675,94.50734634162059 L 172.8774404679055,110.36147052654084 L 174.16162950544225,113.20856951431286 L 174.90510677086183,115.50801130294924 L 174.83751814240046,120.28443572245722 L 175.10787344036018,122.172961572771 L 175.91893972630098,125.96344756896606 L 176.05411776735983,128.0980139355891 L 175.91893972630098,130.3282497539594 L 175.58099579990179,132.53100699598372 L 174.83751814240046,134.29586805693515 L 173.28297380690216,137.26450146189887 L 173.01261850896617,138.60510775903978 L 172.94502948842307,141.72390736319582 L 172.60708516994396,143.0643747565074 L 171.66084084296622,143.5567804284356 L 169.0248745314875,143.35161172599283 L 168.34898589453113,144.1586024093467 L 168.1462192250328,144.910868291059 L 168.28139726609348,146.57948273725827 L 169.76835218896693,151.8721205770008 L 170.78218553648597,153.75926062747183 L 172.1339632024841,155.64631798294255 L 174.4319848034038,158.17593838724903 L 179.23079506679406,162.09997525294165 L 180.44739469173155,163.28942044173917 L 181.66399470877442,164.10970856539163 L 182.76794609684006,164.31477886982492 L 183.44383473379827,162.633178602419 L 183.35371630117177,161.0608916946186 L 183.62407159910595,159.73465728419697 L 184.79561239979822,159.119379934122 L 187.43157831919518,160.240545516348 L 187.70193400923662,161.32066493387342 L 187.43157831919518,162.46911669962932 L 187.3639892986776,163.46715087639765 L 189.05371128315485,163.78159538039614 L 192.02762191308713,163.1116897497014 L 196.9616098254618,160.1858552473954 L 199.1920427979183,157.91614618242463 L 200.67899811289539,155.72836176886025 L 201.49006439883618,154.07377600836222 L 203.6529083507733,153.33534508198838 L 205.54539700474888,153.08919862598935 L 216.1117912706708,157.3965575477605 L 217.93669090410145,164.5198472465126 L 222.9382674449375,171.31390313145977 L 223.07344509391828,173.66491621539373 L 222.2623788079793,175.81078739217833 L 220.16712309239813,178.50322679870172 L 218.34222345896384,179.86988265570199 L 216.38214656860498,180.7445195375559 L 213.94894692665196,182.90370434446717 L 211.5157472846716,186.75716939608606 L 205.27504131470744,200.30988702962006 L 203.1797863833116,202.87786636925608 L 201.55765302727386,203.53349557777977 L 199.6651647653782,203.99789381297515 L 198.1782098424792,204.8447255464144 L 196.08295412692172,207.15293842538017 L 188.85094500571273,217.57250877818686 L 187.49916733971457,221.09520236780307 L 187.22881164969687,223.51176811452856 L 188.17505636875268,224.64491329450692 L 189.5268336426709,225.64151025897493 L 190.87861091658917,227.6482870425517 L 191.8248552435888,230.5832000916444 L 191.55449955354734,237.16214249527982 L 190.60825522657325,240.39664956042716 L 189.25647795265502,242.5528531870331 L 184.79561239979822,245.2274878705987 L 181.19087234923285,248.96624072668118 L 178.14937269875747,251.34031796139513 L 176.2568844368618,253.1003250912411 L 168.75451923352782,258.18893555639283 L 165.5102533056358,262.17209575268043 L 162.9418760146966,264.2862955784483 L 159.9679653847643,266.2094451814651 L 159.42725439676315,267.4778596392851 L 159.74266930313152,268.82806564220795 L 160.7114434343218,270.24641812123804 L 161.31974305076426,271.9374708309919 L 161.590098740782,273.9557373460084 L 161.29643143963986,285.07980574585923" fill="none" stroke="#000000" stroke-width="0.7966972103395742"/>
</svg>
