<?xml version="1.0" ?>
<svg xmlns="http://www.w3.org/2000/svg" xmlns:ev="http://www.w3.org/2001/xml-events" xmlns:xlink="http://www.w3.org/1999/xlink" baseProfile="full" height="600px" version="1.1" viewBox="-80.34976916797443 -86.83200000000001 959.877230015693 1037.664" width="556px">
	<defs/>
	<path d="M 689.1342949624609,632.3136438502532 L 562.2409180015892,830.5935275249515 L 554.7707568881779,827.9772507320437 L 549.972044671506,832.0956741578772 L 545.173331976176,837.9664102085993 L 538.098941016486,840.54495088892 L 531.816090364299,839.4935124857742 L 519.9924585170398,836.0888027872478 L 500.20395274444667,834.0734760458381 L 489.5181595506512,831.7201387574463 L 481.4048721168722,824.8977430738873 L 469.33388362433664,798.5063508329958 L 460.1322283874221,795.0630853110011 L 448.70436669388425,794.612324153721 L 414.76707948060147,786.5609864582584 L 411.1888405034323,786.8384086068123 L 411.2055347292297,786.7116402109335 L 411.3539488417131,785.5846673678495 L 413.5801557937057,736.7654892408482 L 419.66512106071565,723.5244933309774 L 458.30217845144466,701.3238752604788 L 518.9786837629084,665.7352775799936 L 533.8942702121019,653.8411108846764 L 556.8489364842434,611.9463289950381 L 626.7518332270338,597.9534497911228 L 641.8405687566853,603.9846082265885 L 689.1342949624609,632.3136438502532" fill="none" stroke="#000000" stroke-width="0.864"/>
	<path d="M 713.9858372676716,593.4478004667076 L 689.1342949624609,632.3136438502532 L 641.8405687566853,603.9846082265885 L 626.7518332270338,597.9534497911228 L 556.8489364842434,611.9463289950381 L 533.8942702121019,653.8411108846764 L 518.9786837629084,665.7352775799936 L 458.30217845144466,701.3238752604788 L 359.06282237501085,683.8690714926146 L 319.8321098257805,626.1007377468309 L 307.66217843081927,587.6584803431093 L 296.8279718958308,533.0104866256354 L 294.97279979456385,512.6858285189084 L 311.8919715965622,533.3868399385135 L 319.18898343994965,539.1700037575489 L 374.9713392085748,564.5150107760502 L 375.24401524872695,576.1481215669751 L 377.9707780436233,586.10163283834 L 393.7080935148221,592.1839723991036 L 403.251762578986,600.9120461450814 L 409.09482564257047,603.2025784663813 L 415.75591682661536,601.9783329726306 L 423.3518985220486,594.9288344065054 L 428.7275163299128,593.2700752834429 L 432.8955675862125,594.3956640002896 L 437.3752490130057,596.4690923281181 L 442.01074552499756,597.3971880721091 L 446.37356551820716,595.0670635354819 L 449.1782356163978,588.905862036702 L 445.906120262483,585.23270459959 L 440.99794771033896,582.7246310248485 L 438.5438614342529,579.9992694129376 L 442.7508668208739,571.9611075455878 L 452.333489536697,565.245813141815 L 474.1865441116044,556.7919650188576 L 506.5960650867042,552.9599054394766 L 516.9577627500108,550.1944333321774 L 521.9438430841353,546.5597264280852 L 525.7613105183505,542.5495820943653 L 529.7345935164503,541.0679711749855 L 535.0712571939973,545.0386513158353 L 539.005586061804,546.935054006599 L 551.2273377516075,546.7574087587703 L 551.8028678522395,547.9132709198207 L 577.8742240293349,575.5693533464506 L 605.3555112616913,578.4287054744078 L 622.9672815378035,578.3409194269091 L 679.785028534246,567.7685317230785 L 681.615269944207,567.3394409444559 L 686.7571653635541,574.6668813866087 L 692.1717363443954,578.67606686425 L 707.0910232164235,586.6348355136965 L 713.9858372676716,593.4478004667076" fill="none" stroke="#000000" stroke-width="0.864"/>
	<path d="M 90.18611463010072,864.0 L 86.03052873379647,863.3992789700085 L 83.16119499948528,860.9963684405155 L 81.92441368785252,858.1303438245228 L 80.29186174386022,855.652249731496 L 23.746206831349667,844.2124053427515 L 11.823632325973467,839.6687531669133 L 8.334946857029626,835.1092671179373 L 5.837609169423074,831.8453176583191 L 14.445609415036426,818.0499780241419 L 17.46335617916271,797.3544312948779 L 18.601195311344675,704.1175507983223 L 12.714114812903189,651.3965843088552 L 0.34629930336515563,595.6207706469894 L 0.0,569.1351973914992 L 14.148781919403865,525.106428609403 L 20.7284595885933,488.29175093215844 L 28.29756336012158,472.8551578193551 L 35.37195384112134,468.0606622741253 L 54.171034468695844,459.826777831729 L 58.92027583495536,453.60081617377926 L 61.59172425303273,446.67157820091086 L 65.64836796996627,443.809395327992 L 71.0407356565654,442.1774210608411 L 77.71935646250184,438.98873585328937 L 84.34850546070967,433.89170043340306 L 89.64193048921992,428.54336708444424 L 107.97222081150741,402.561500069717 L 115.81261633708282,404.10939596699365 L 193.35882308414878,422.64276329420665 L 213.27100693800864,430.46466508518546 L 294.97279979456385,512.6858285189084 L 296.8279718958308,533.0104866256354 L 307.66217843081927,587.6584803431093 L 319.8321098257805,626.1007377468309 L 359.06282237501085,683.8690714926146 L 458.30217845144466,701.3238752604788 L 419.66512106071565,723.5244933309774 L 413.5801557937057,736.7654892408482 L 411.3539488417131,785.5846673678495 L 411.2055347292297,786.7116402109335 L 411.1888405034323,786.8384086068123 L 392.8018381017453,788.2639516814535 L 349.7123669806185,801.3610673637069 L 317.9023440445363,822.2813605111131 L 307.6123210045183,827.151048073203 L 300.389516057669,826.7754995003963 L 292.9688272306203,824.2467817150741 L 282.1346200497175,822.494177814108 L 266.5017006520908,827.776959329542 L 262.3955856061989,828.1775413654125 L 253.83705668959996,827.8771055508746 L 249.7309421223662,828.3027234117474 L 232.66335561823877,835.9636281357739 L 226.18262012850414,837.590890915869 L 217.129378878753,837.4907520753611 L 192.54216041085792,831.8453176583191 L 166.1739764904733,834.7243925144223 L 153.31144816909293,838.9677910756516 L 138.47006860030703,854.0126790194441 L 125.2612409755895,857.3293488894252 L 98.15098807674839,858.4557470718794 L 94.8858846673178,859.7823826412334 L 92.7091495397329,862.197828794052 L 90.18611463010072,864.0" fill="none" stroke="#000000" stroke-width="0.864"/>
	<path d="M 107.97222081150741,402.561500069717 L 147.52331032874432,346.48304323382564 L 166.86657413985535,310.5480504999406 L 172.1599996470237,304.7422263900986 L 183.43944783208835,299.2126273542683 L 187.24873490368955,293.20520127735614 L 194.5210111796093,275.48291201729546 L 258.2894710389091,188.49484247337278 L 272.8834934837366,156.66725881107308 L 301.7252405060528,117.93489978561746 L 326.36192982433215,91.42687963083078 L 334.7720452324299,89.94145744189207 L 347.78298801962774,93.36545427745317 L 369.74822891977374,103.15857081349583 L 444.7466656351277,169.49990235237354 L 451.0789876163851,160.3410514222266 L 453.33136722935365,159.71111698415575 L 454.492891363765,167.58806289849733 L 453.10769570695743,177.29988880712307 L 446.70116681655935,182.65868454919737 L 444.92020134107537,185.11157853876296 L 443.5102707162931,188.1053022766946 L 442.69399438908675,191.7278638013404 L 442.84240850157016,195.48867768117643 L 443.95551176233107,199.22422449798614 L 455.1854889769374,222.12562022339935 L 457.7085232929514,225.6717590285462 L 461.2704542439433,229.65790313946422 L 485.0413964128244,250.06450030323822 L 489.41960369104675,252.81782018012044 L 494.39146569727166,254.84191226918674 L 506.6356037179878,258.22370907551567 L 605.4297178874463,367.72561877059513 L 610.9952354826592,376.4676952078571 L 624.5256262750411,405.51581378692714 L 628.5327987025457,411.5431484884148 L 639.9217904227232,423.0052054722157 L 635.2213521297851,425.01644099126 L 631.8713294726041,427.1715967268587 L 629.7288733669875,430.4932346147694 L 627.8980469531622,437.23511107910775 L 625.3270992434886,440.121556361844 L 618.6270539291544,442.59277774983934 L 592.4501330126966,443.77894741273525 L 585.5942726131077,446.32917652351233 L 578.4267825217355,451.37018097392246 L 571.2982460819984,454.5923692417889 L 558.3266470573591,449.8480155746452 L 549.21146911857,451.3108763091041 L 504.6483777179455,467.14431530133794 L 492.10526934005094,474.7934994879637 L 481.04240403250316,486.5925361816439 L 447.5421779394544,547.6264443154552 L 444.34797036749603,551.7944635892196 L 439.8293352890917,554.2833611143383 L 424.987956198992,558.6486969506194 L 420.547228423858,558.8857245762422 L 409.09482564257047,556.7919650188576 L 396.47380996138156,557.2660264084981 L 392.46157379027653,556.7919650188576 L 389.8127182986505,554.9352074003773 L 385.29408322024625,548.594384463507 L 382.68418185891346,546.875791980559 L 372.2835305439717,547.527674281691 L 366.6741903475905,551.5771762724472 L 366.59628256563406,554.9352074003773 L 372.8678367545934,553.4734864562214 L 374.9713392085748,564.0212229998529 L 374.9713392085748,564.5150107760502 L 319.18898343994965,539.1700037575489 L 311.8919715965622,533.3868399385135 L 294.97279979456385,512.6858285189084 L 213.27100693800864,430.46466508518546 L 193.35882308414878,422.64276329420665 L 115.81261633708282,404.10939596699365 L 107.97222081150741,402.561500069717" fill="none" stroke="#000000" stroke-width="0.864"/>
	<path d="M 546.1627571212185,45.09346450782379 L 551.0604124746415,44.61493105473923 L 655.0877652056446,0.0 L 662.8785156379356,5.217473341155829 L 667.3581970647288,13.84664728338291 L 671.0977571956537,23.4867984717266 L 676.2006984846795,31.777516928386163 L 723.0231074245042,85.07866995004419 L 734.3196955992272,103.01902012364182 L 741.0976482168596,110.09532994541273 L 748.5767684787013,112.19634167971277 L 756.4064725626556,106.80499514570623 L 756.4064725626556,123.94946166213957 L 757.3024089437226,132.15418742493551 L 759.6785879165424,140.33855823482037 L 763.4571016990983,147.03626464877587 L 767.8199216922799,152.36643189474947 L 771.3257594346837,158.31058939133663 L 772.7670483747693,166.9291169806717 L 773.3513545853949,185.51142626120082 L 774.8315971770875,195.37597336285248 L 777.7920818818427,202.1499745003932 L 795.6718539373403,227.06408710429434 L 797.0741892257666,235.2620963688581 L 795.6718539373403,263.61442254848316 L 799.1776916797442,300.2928348392278 L 796.6067439700705,315.8478068947109 L 789.6340226155561,330.31264137601363 L 779.2723244735635,342.32256448463136 L 766.495494185806,350.5329902665141 L 762.71698040325,351.64086337403035 L 749.8622423335402,353.8565811703996 L 736.7737818753131,360.5035068629854 L 727.2301128111212,362.2640936825536 L 706.6625320910487,362.71907275117576 L 697.625261934216,365.1719769872465 L 682.0437610695858,376.2688119085352 L 645.2714201013044,420.23147402618287 L 642.7783796948971,421.8133004795017 L 639.9217904227232,423.0052054722157 L 628.5327987025457,411.5431484884148 L 624.5256262750411,405.51581378692714 L 610.9952354826592,376.4676952078571 L 605.4297178874463,367.72561877059513 L 506.6356037179878,258.22370907551567 L 494.39146569727166,254.84191226918674 L 489.41960369104675,252.81782018012044 L 485.0413964128244,250.06450030323822 L 461.2704542439433,229.65790313946422 L 457.7085232929514,225.6717590285462 L 455.1854889769374,222.12562022339935 L 443.95551176233107,199.22422449798614 L 442.84240850157016,195.48867768117643 L 442.69399438908675,191.7278638013404 L 443.5102707162931,188.1053022766946 L 444.92020134107537,185.11157853876296 L 446.70116681655935,182.65868454919737 L 453.10769570695743,177.29988880712307 L 454.492891363765,167.58806289849733 L 453.33136722935365,159.71111698415575 L 468.4434011374069,155.48457679103745 L 474.973607956212,146.09821418234725 L 479.0302516730855,141.71934870805038 L 493.32744710096256,139.02652158861895 L 499.31346977885886,135.83028792044024 L 502.0838608550531,122.71732223916767 L 497.6314469844542,107.43809701963602 L 495.94942371133936,92.93746002070948 L 516.8262972870359,73.24811958908893 L 527.9573319636554,46.88165304093864 L 535.9716767393176,39.85468007545771 L 540.2262052937386,40.38360637227824 L 546.1627571212185,45.09346450782379" fill="none" stroke="#000000" stroke-width="0.864"/>
	<path d="M 551.2273377516075,546.7574087587703 L 618.1596091521164,545.8485764513174 L 628.3654917302002,543.7941222456641 L 637.9091607943602,544.0904399018121 L 648.2319048060597,550.1944333321774 L 657.6587129153181,548.0017689059357 L 662.6837469010777,541.3050298881851 L 666.3064455984111,534.8450264509731 L 671.4483410177583,533.3040621589304 L 674.3309184192192,538.3812751154267 L 681.1867788188081,566.7469076513986 L 681.615269944207,567.3394409444559 L 679.785028534246,567.7685317230785 L 622.9672815378035,578.3409194269091 L 605.3555112616913,578.4287054744078 L 577.8742240293349,575.5693533464506 L 551.8028678522395,547.9132709198207 L 551.2273377516075,546.7574087587703" fill="none" stroke="#000000" stroke-width="0.864"/>
</svg>
