<?xml version="1.0" ?>
<svg xmlns="http://www.w3.org/2000/svg" xmlns:ev="http://www.w3.org/2001/xml-events" xmlns:xlink="http://www.w3.org/1999/xlink" baseProfile="full" height="486px" version="1.1" viewBox="-80.4 -65.09411068324344 960.8 777.1293281989213" width="600px">
	<defs/>
	<path d="M 138.63834670813233,601.3480419238349 L 130.36703991742598,601.3176217859772 L 128.36364971714525,600.506378662489 L 127.53183278446299,598.1735897643847 L 127.19207644957937,595.4342187364056 L 126.67658435694031,593.4551925673898 L 124.7786357700181,591.7700918403939 L 100.73795348015115,586.0827583970065 L 91.83399712267173,582.4244488181168 L 82.77773616219824,580.8589870237571 L 80.1299807611217,581.2656301307534 L 72.40931341863177,584.1725194308234 L 68.22679703362357,583.9896001065445 L 64.2472689263578,582.7452551982908 L 65.15607518588139,579.3599076673514 L 64.31660146650046,578.0227054765144 L 65.83872409343057,572.5834807691496 L 64.87932563795857,567.5815291090898 L 63.07122838749294,562.720823213153 L 62.00113004483896,557.7126033430039 L 62.43470440459969,551.3273207978091 L 63.763102370655055,546.0384743039211 L 65.39592477141208,541.1724903566999 L 66.64129796377492,536.0136740762885 L 54.5842413443523,533.8557862908017 L 53.2373934537755,534.0007376286027 L 52.81304405627844,535.6433324079971 L 52.527069546098346,543.2961988237398 L 51.816745638414666,544.2854582508486 L 50.70974733336855,544.5025961402088 L 49.26142451787345,546.1429995465501 L 47.70240192854504,548.3537867267033 L 45.94965456499274,549.382595790533 L 44.196907314795865,548.9807332722257 L 42.64710968773137,546.810320805905 L 41.355611570712604,541.8965462497736 L 41.512436382550995,537.1648421344541 L 42.22276029022791,532.3739084967583 L 42.64710968773137,527.2334938102351 L 44.76885644851185,523.3477522881269 L 49.482824178882694,522.6381148995376 L 54.25214190951626,524.0411996826718 L 56.65063821822561,526.5564488369594 L 55.128515591295496,526.9594587522022 L 53.90159243680312,527.983011103275 L 51.927445412241575,530.601731333016 L 52.277994884954836,532.8168904275271 L 59.03068460241351,533.8074687163218 L 65.21142507279485,535.2810249445909 L 67.4992216076774,534.3550518941346 L 67.24092198426973,530.5936750908552 L 65.15607518588139,523.8476857366014 L 63.69852740812214,515.3525614589786 L 62.84982872648369,506.86440039200716 L 63.07122838749294,504.5853294262576 L 64.08597684322717,501.78811828883846 L 64.31660146650046,500.0737274401931 L 64.12287680562548,497.53379985948203 L 62.84982872648369,492.5486214170687 L 61.82585530848553,483.5656868512745 L 60.995606551362116,479.30957827431104 L 59.36278403724967,475.48927307962833 L 56.51226344426431,473.2254110379495 L 52.444044659050505,472.2271564933165 L 44.88878118460268,472.0242438014954 L 39.43681454642005,470.3033318795979 L 34.81509666536084,465.96690559344324 L 24.529237334012088,450.57514189549744 L 24.621487296672747,449.15884786371515 L 27.019983605382325,448.711115320615 L 27.019983605382325,447.4573280251463 L 24.842886957681994,446.56978555026114 L 22.24144091248484,446.3499202119587 L 19.704569829820606,447.0094980890669 L 17.739647767516697,448.711115320615 L 16.438924801595597,451.52733338863055 L 16.78024919868939,453.40696112155393 L 20.1473691518391,457.0184847866411 L 19.095720733706322,457.2705784488964 L 18.4038467505442,457.75034744084854 L 16.964749010661926,459.75042251244395 L 19.584644980374232,460.2300393489412 L 22.665790196632873,462.2376080388009 L 25.24878631730847,465.21956334179134 L 26.318884659962688,468.67136330666824 L 24.86133688220367,469.2316296096503 L 11.291382711470172,457.92110548134895 L 8.523886892177229,456.29468681756236 L 1.8818970619007687,455.06651675538114 L 0.13837477396141062,453.3011932641418 L 0.0,450.33097157979194 L 6.3744651312560885,433.24454934752924 L 8.51466192991331,425.4834464983493 L 9.935309745280547,417.2242208889685 L 10.129034406155295,409.0789850394673 L 9.250163493234336,402.66618212496775 L 9.273324875570973,402.66587154658237 L 31.093875826534354,402.45266946734677 L 34.59687975094649,404.9535264316461 L 37.461376193509274,406.2322413406727 L 41.456440803359115,408.7838466849302 L 42.84475498571432,409.11637751754574 L 44.90672392183616,408.7007118536458 L 46.36533254608824,407.13137480556446 L 52.06503617387145,400.6896296666867 L 52.31106656756543,400.24750696205797 L 52.36378737349388,399.7273306412178 L 52.17047778573499,399.11347776264546 L 51.590549022451555,397.8387988029658 L 51.52025468250506,397.1883722189229 L 52.100183343844634,396.6159520448958 L 52.908568864860385,396.0955333164567 L 53.91026397364155,395.83531111165263 L 54.9471062523959,395.8665381331813 L 56.0542429730342,396.6263599638657 L 57.231674033618994,397.0842989974845 L 58.59069885669462,397.3392761500027 L 60.48864746239317,396.96461294034594 L 62.35144900006263,396.1371682302265 L 63.54645359465882,395.9602188099673 L 67.24276710682985,396.9333903146336 L 75.2094648798874,402.6034714262484 L 77.14841856819021,403.20145081982434 L 80.82130053176851,402.04704958629304 L 82.64895479752721,400.88207512076747 L 82.63138105962157,399.58167515729696 L 82.03387876232661,396.16839404327743 L 83.23474137149773,394.33626159501756 L 84.9569539234488,388.39969448808876 L 89.10432303846002,386.32603835771675 L 94.66343788441267,386.8471093015282 L 98.09614746887844,390.07176391756985 L 102.61841993413917,395.97062778510167 L 104.18247027219223,397.16755768571994 L 108.06623545949157,396.7408472427834 L 109.28467150073675,395.5906942721052 L 110.74328022692629,395.77285651236554 L 111.74497533570734,393.24302296083147 L 112.34247763300218,392.18087283251754 L 113.34417274178334,391.01442376087897 L 114.36344138457602,390.23322206905675 L 116.42541021875388,389.6602909597287 L 118.34093246041434,388.076698710224 L 123.60129620869482,381.3793402997165 L 126.69424940898968,375.0728308336206 L 130.97049168444437,374.1334596751064 L 141.59666058897452,377.67116776564114 L 145.18167467859493,379.91401474060143 L 148.0344553978398,382.4794571990934 L 153.78687983155157,389.7123773951494 L 154.64798615850216,391.19148525212114 L 154.8061485762944,392.2277354528927 L 155.17519401391317,393.68033684100834 L 155.8429907530985,395.54385185515974 L 158.3735889280157,398.5932260001212 L 161.2439432832093,403.4510288182142 L 162.8255671552739,405.4681563214819 L 164.6180741491153,406.08150949159256 L 168.63071229297677,405.61370232549046 L 170.79226482638083,406.07631174604137 L 171.33704652163493,407.214526353906 L 171.00314805010174,408.46169419087965 L 170.52866089867533,409.6203424150173 L 170.30020414094312,410.8411532930516 L 170.47594009274687,412.3370357076886 L 171.70609206120423,413.1264138142155 L 175.4375526414048,413.63531245342926 L 177.96815081631536,414.434943692591 L 179.2744548334623,415.6186624888779 L 179.85438359674586,417.34200258482133 L 179.7489419848885,419.116852821239 L 179.28031274609964,421.31150484945283 L 179.27530015378895,421.3357178004324 L 168.78956646271723,421.27731589309946 L 166.1327705306065,419.97009577922995 L 165.772996095636,420.73811422581343 L 165.56082139688436,421.29365492078847 L 165.4408966607997,421.8981688976434 L 165.35787177375198,422.83752368654564 L 167.7194681200629,423.97276708138924 L 175.8743556150122,424.08709889614266 L 177.3503534306417,424.99352845489807 L 183.2174443907083,431.0581834868056 L 184.42591762067934,433.44031357105 L 185.2469413021832,435.59339531413366 L 186.39083956962773,437.1589006408123 L 188.64173614211197,437.7703410645312 L 199.48109456930624,437.7703410645312 L 197.62687239418455,440.0607792403032 L 191.74133139624095,444.7210943767075 L 188.58638614184298,448.79252312521066 L 187.0550385526556,449.8426078877682 L 184.41669254505987,450.1926049584872 L 183.4572940895944,451.05532130941106 L 183.25434435310032,452.9269259975569 L 183.2174443907083,454.7980831637847 L 182.82999495560327,455.6521583814894 L 175.68985591639486,457.44947887725954 L 173.10685990907479,459.3195552926183 L 171.53861224413322,459.75042251244395 L 170.17331442904126,459.43337151587974 L 167.62721827075768,458.3276572998432 L 166.1327705306065,458.38457292944804 L 166.42797011639968,459.20573721476524 L 166.9076694008166,459.75042251244395 L 165.2656219244401,462.0831979525773 L 161.06825332752894,463.4646536507576 L 159.158681265494,465.2114396863151 L 161.15127821457688,466.4705089142045 L 163.28224993762117,466.3324274838449 L 168.86336638750103,464.870237747619 L 169.89656476776335,464.2446621123246 L 170.9851131482878,463.9440430241209 L 177.53485312925903,467.501982705871 L 177.99610237579256,469.75126098570064 L 177.50717812912475,472.4787610362057 L 176.26180505011723,474.8645449607829 L 174.71200742305263,475.92736446406417 L 170.8744132611056,476.70613298894824 L 169.21391586021406,477.5821550306472 L 169.8135399940707,479.79610760873135 L 171.20651280929718,482.8119159681506 L 171.61241216892364,484.39231978438085 L 171.2987626586024,486.62865474283706 L 170.634563675575,488.35408590366734 L 170.8098384119346,489.8361954614195 L 173.10685990907479,491.3018316695096 L 174.50905779991385,492.60528902383066 L 175.84668072823325,494.450808434331 L 176.1880051253268,496.40108285201046 L 174.63820749826243,497.9706611353904 L 174.63820749826243,499.4509550090179 L 175.8005558035773,500.7692330441036 L 179.9979244004949,507.97944922642574 L 181.3908972157211,508.5773088365306 L 182.73774510629804,509.87790011256845 L 183.2174443907083,513.1324731057626 L 182.7930951065668,515.4494237094721 L 181.990521349578,516.8780040145508 L 181.24329747950242,518.6210040978625 L 180.89274800678916,521.8155005377101 L 180.28389891067522,523.2671149077236 L 178.82635113291585,524.2830857113984 L 177.03670392032708,524.8797055167038 L 175.4869062932627,525.0812561520237 L 168.82646642510926,523.8476857366014 L 167.29511883592164,524.2669600624757 L 166.35417019161588,525.3231099725739 L 165.6069464348956,526.6370524732181 L 164.5829729035419,527.9104802697179 L 161.85237715999654,529.6349209443067 L 160.19187964574945,530.3278138738549 L 158.74355694361003,530.601731333016 L 157.83028329943855,531.4556483645165 L 157.83028329943855,533.2034723983921 L 158.77123183038898,534.6529855835132 L 160.72692881707343,534.6529855835132 L 160.72692881707343,536.0136740762885 L 157.38748397742003,535.9009633441564 L 155.83768635035543,536.295444136072 L 154.45393849738696,537.4948661724671 L 155.59783665146955,538.3480350019388 L 157.01848458018583,538.686057557049 L 160.2933545706744,538.7182493295184 L 161.79702715972752,539.4425313565839 L 163.4390747494529,541.2207629020953 L 166.1327705306065,545.4675808657141 L 163.19922505057343,549.3343734902742 L 161.2619779884038,551.1666177680432 L 159.158681265494,552.3236050546415 L 153.983464175234,553.3759944692206 L 151.93551733923766,554.9181735444076 L 152.90414087032235,557.7126033430039 L 154.3063386478061,557.7527460655048 L 160.72692881707343,555.1510805796161 L 163.61434948581274,555.3438261210542 L 164.5829729035419,555.1510805796161 L 165.41322166066544,554.508561753674 L 166.20657045539056,553.5607505209863 L 167.14751898634077,552.7011960622667 L 168.43901699000423,552.3236050546415 L 170.89286329898258,553.3679615162096 L 175.4592312931282,558.4351394608274 L 177.8116026771816,560.4097328683761 L 184.03846818557432,562.0949698941373 L 185.56059081250442,563.2262839296807 L 186.42773953201973,566.0979682976164 L 188.93693561455598,581.0410972506093 L 189.2136852758341,581.9295814239376 L 189.0291854638617,582.5298518810273 L 187.94063719669234,583.3941609741263 L 186.25246479566655,583.4421754451188 L 184.656542243946,582.4818318550937 L 183.34659420241218,582.2977527407236 L 182.44254563385377,584.7384537124971 L 183.8631934492145,585.21050209769 L 185.2100413397914,586.0585181030131 L 186.3354896827145,587.2263908703343 L 187.09193851504736,588.6500020267547 L 187.52551287480833,590.3052265915288 L 187.74691253581747,592.5835911461671 L 187.25798817578772,594.5975971092506 L 185.58826581263892,595.4765655049009 L 184.2690928088412,594.6295612330696 L 182.65472033260562,590.9528287963245 L 181.6676467636437,590.1053385888164 L 176.95367903327912,590.4571380316975 L 175.4869062932627,590.1053385888164 L 173.35593457021818,588.8419298347243 L 173.51275926869462,588.0581948622753 L 174.43525787513005,587.3063758235668 L 174.63820749826243,586.0825171681474 L 172.63638558692182,583.1540846275238 L 171.88916171684622,581.3852967612667 L 172.70096054944833,580.5848099434437 L 175.72675587878686,579.407946512316 L 175.1179067826727,577.1497986167188 L 172.41498592591267,575.5879350184316 L 169.21391586021406,576.5651370992135 L 168.58661683957845,577.7344165801583 L 167.0921690994273,581.7374853370645 L 165.8191210202855,583.9223032914814 L 165.10879711260836,585.4185143254576 L 164.5829729035419,586.0825171681474 L 163.72504925963966,586.3625016525306 L 161.88927712238853,586.090516840297 L 161.09592832766342,586.7544631172318 L 159.158681265494,589.0338531700231 L 154.43548845951,593.0631629629867 L 152.90414087032235,595.4765655049009 L 152.15691700024678,599.6143927166993 L 152.29443185694728,599.6223291487931 L 152.22859590919393,599.6747677115791 L 150.55324618303416,600.2427067073719 L 148.6318661013041,600.019592653923 L 146.34729841656394,597.8591177579445 L 144.2970453400096,598.3257492801831 L 143.0551777013101,599.4414954639735 L 141.4384067122191,599.8877497458456 L 140.33712792912257,601.0336961552454 L 138.63834670813233,601.3480419238349" fill="none" stroke="#000000" stroke-width="0.8"/>
	<path d="M 267.09101595081034,582.0576430133285 L 268.9544630881895,583.8742917435007 L 271.1131098113681,585.226503202802 L 272.6444575139112,587.0184261175708 L 272.5891076269978,590.1053385888164 L 273.65920596965213,590.8808756206796 L 274.8400040861329,591.4564824574763 L 265.94711779672133,593.5187292533853 L 263.51172152561975,596.2036382810464 L 262.1095236347807,596.8188013057432 L 259.52652762745373,595.6283774240649 L 240.02490742077205,574.2741278305588 L 238.1799102079081,569.8424198380677 L 237.50648626262299,566.7636004967513 L 239.1669837768698,568.6158469170094 L 248.78864401182912,574.0017259058544 L 251.62071468029944,576.5651370992135 L 254.2867355746677,580.8569845006359 L 255.68893346551312,582.6659068693622 L 257.34943086640465,583.3941609741263 L 259.0652782675649,583.3861585666519 L 260.42135123375465,582.9140009722416 L 260.92872540494415,581.3372697650407 L 260.13537661021263,578.0227054765144 L 261.74974919981014,580.3686645101868 L 263.1242720905147,586.2505089727297 L 264.3511952450072,587.4263518310682 L 266.70356662906084,587.4503467349655 L 268.3087141430386,587.034423555546 L 268.61313869109597,585.4665164740702 L 267.09101595081034,582.0576430133285" fill="none" stroke="#000000" stroke-width="0.8"/>
	<path d="M 217.34989214852007,567.1485187145072 L 218.99193962489633,570.2512349878413 L 223.43838288295112,583.8262800998937 L 223.36458295816735,585.7545228378345 L 221.77788536870432,586.1785128950753 L 218.54914030287782,586.0825171681474 L 216.86096790185204,586.9704336090082 L 214.64697129176005,588.7219753545388 L 212.43297468166782,589.9774077900829 L 210.80015216755527,589.3697075267224 L 208.9367050301699,587.738280675155 L 203.7153630152603,586.090516840297 L 201.80579095322514,584.7384537124971 L 201.80579095322514,583.3941609741263 L 204.8223613203064,581.8815577425684 L 208.38320593432422,583.4341730863648 L 211.96250035951482,585.9625209156902 L 215.09899557603583,587.4263518310682 L 215.09899557603583,586.0825171681474 L 209.6747039379877,581.3052517361892 L 204.52716173450685,579.4639916582751 L 203.35558858028975,579.3599076673514 L 202.22091527510915,579.7922477193331 L 200.58809287435213,581.4173144651047 L 199.48109456930624,582.0576430133285 L 195.0531013491218,581.8095217704983 L 191.22473214943201,578.7113528400105 L 188.992285614825,573.5450307775567 L 189.35206004979554,567.1485187145072 L 188.64173614211197,567.1485187145072 L 188.64173614211197,565.9215263131043 L 191.15093222464847,567.6777505846716 L 193.84462811915097,570.7642280583326 L 196.49219908900395,573.0722834269219 L 198.77077054826714,572.5354003171717 L 198.29107137721218,571.838199026486 L 197.5438475071366,570.4917045923169 L 197.10104818511834,569.1930813831552 L 197.5438475071366,568.6158469170094 L 198.1619215655083,568.1828931667169 L 197.3777977330407,567.2206887990999 L 192.67305496493387,563.8680918906865 L 191.88893113245987,562.2955694078533 L 193.28190406104804,560.4097328683761 L 193.28190406104804,559.0612836754087 L 184.37979258266787,559.9040915522977 L 182.82999495560327,559.7355372321733 L 181.70454672603572,558.8686291135483 L 180.33002383533116,558.6679424881413 L 179.12155071871564,558.170217183118 L 178.51270162260124,556.3636921678456 L 178.91860098222773,555.4883819338208 L 181.05879766752975,553.8820553664151 L 181.6676467636437,552.3236050546415 L 179.5827999652556,552.4200131340582 L 177.7009029033547,553.1430349114987 L 175.8743556150122,553.4723894634196 L 173.9371086661981,552.3236050546415 L 173.9371086661981,550.8693090165485 L 183.93699326064961,546.0947573906075 L 187.94063719669234,545.4675808657141 L 192.6453799647994,546.3842064826498 L 199.3980696822583,554.412179446329 L 202.99581414531923,556.3636921678456 L 208.0142064237409,557.158614214334 L 211.63040092467878,559.358283434491 L 214.5362715179329,562.768963792255 L 217.34989214852007,567.1485187145072" fill="none" stroke="#000000" stroke-width="0.8"/>
	<path d="M 312.9760957799874,553.6732087579575 L 313.7694445747125,548.0965634941017 L 317.5701386609122,538.3238900484565 L 321.9612320320536,530.7789669678104 L 324.5073280769818,531.9550663946706 L 319.0922614011976,556.3636921678456 L 316.9336146780191,562.8411740106384 L 311.020398679941,574.6907246084153 L 300.06111551666254,611.0021848422242 L 298.9541172116164,613.4180835924194 L 297.39509462229427,614.2551038831689 L 294.71062369004903,614.3507576488532 L 293.35455083721484,612.4852992276617 L 290.46713016847576,600.9479405382631 L 289.23098205173216,598.7997798218595 L 287.7088594248021,597.0664507619133 L 284.19413984878906,594.1420930987217 L 286.94318563020505,593.9502941738185 L 288.70515795602125,593.1830514615164 L 290.1350307336395,591.5284303841723 L 291.9246779462347,588.6500020267547 L 292.9763263643673,585.3545112683597 L 293.64052534739517,584.4104032865702 L 294.71062369004903,585.4105139717233 L 295.28257282376507,585.7225225408417 L 298.17921834140634,584.7384537124971 L 297.9209188313605,582.7939563053293 L 297.42276950907325,580.5848099434437 L 296.4264710912096,581.4333234649825 L 295.4486225978607,581.7134728496519 L 294.48922402904014,581.4333234649825 L 293.4744755732993,580.5848099434437 L 295.07039812501984,575.8522720751898 L 297.47811950934226,572.3430749851608 L 303.80645982929747,564.9750879709526 L 306.5370555728433,563.0016387487248 L 312.9760957799874,553.6732087579575" fill="none" stroke="#000000" stroke-width="0.8"/>
	<path d="M 43.348208519795584,493.90852980656797 L 40.54381285146617,495.04160653317365 L 37.55491748451929,491.9009632296595 L 34.95347143932213,487.0256185300521 L 31.392626825297793,477.5821550306472 L 30.636177992964697,473.27410320109163 L 31.780076260402712,470.43322508312013 L 35.617670422349875,469.4102567708786 L 36.0420197064915,475.33512401160675 L 37.92391688174734,476.36543115787333 L 40.230163341145044,475.9679271314874 L 41.87221081752141,477.5821550306472 L 41.83531085512288,479.9177353231393 L 40.377763077370375,484.36800835366506 L 40.68218762542746,486.3613005317583 L 41.540111382685254,488.5484769887399 L 42.33346017741025,492.26527763992686 L 43.348208519795584,493.90852980656797" fill="none" stroke="#000000" stroke-width="0.8"/>
	<path d="M 291.5833535491411,549.6397771919922 L 286.50038630818653,549.6397771919922 L 284.6092641706731,549.9773147813673 L 282.49674237214384,550.9737701171804 L 280.54104538545937,552.4842844652187 L 279.12962253235594,554.412179446329 L 277.07245073409547,556.460050587914 L 274.6462794252583,556.146881262901 L 270.19061120493956,553.6732087579575 L 262.60767284371263,553.0627024378015 L 260.13537661021263,552.3236050546415 L 259.037603380786,551.5683688945225 L 258.15200473674923,550.6764538835649 L 257.1557062055298,549.9451690431999 L 255.83653320173204,549.6397771919922 L 253.00446253326837,549.9130229762237 L 251.51001490647252,549.760327908197 L 242.60790342809258,544.1165691485453 L 239.32380847534625,543.8270364253814 L 238.45665986918624,545.3308818602261 L 238.39208490665973,549.6397771919922 L 236.676237618855,548.3377105580064 L 234.0102166111248,545.2183043556331 L 232.1283195492244,544.1165691485453 L 229.8036230519497,544.0683143687173 L 225.52322968134612,545.1539738556625 L 223.530632732263,544.1165691485453 L 232.22056939853627,537.4787677987939 L 233.74269202546614,534.6529855835132 L 231.77777007651778,531.8422972714004 L 230.3571222611504,528.6035252127706 L 228.8626745209995,526.000261195653 L 226.71325287344018,525.0812561520237 L 225.0066304345374,525.5730177483731 L 223.71513243087395,526.2985116854071 L 222.38673446481846,526.7982572658694 L 220.51406236518173,526.5564488369594 L 217.9402912067639,523.9202540743681 L 216.4642935044831,523.3154975145311 L 215.09899557603583,525.0812561520237 L 215.4310951242274,528.1764234534171 L 219.36093902212463,534.1940019884305 L 218.96426473811738,537.4948661724671 L 218.4015405666525,537.7443875418526 L 214.41634666848677,537.0923959555821 L 214.1211470826936,536.5289030469751 L 214.2871968567895,535.7238429327703 L 214.25952185665503,534.6529855835132 L 214.58239644258245,534.7979220285123 L 214.89604595290345,534.0007376286027 L 214.78534606572123,532.325581616898 L 213.14329858934474,527.934657420645 L 212.8849989659436,525.8148564360398 L 213.14329858934474,523.7267369517147 L 213.87207253490553,521.8155005377101 L 213.73369764758857,520.242615309639 L 211.99017535964933,519.1857824445952 L 207.44225729001872,518.0400471068955 L 206.0123845124005,517.1362506031294 L 204.73933643325847,516.022501330472 L 204.1950622996708,515.0538951513381 L 203.95521271414,513.972143831068 L 202.90356429600735,512.179660721846 L 202.6452646726062,510.98444470288234 L 202.90356429600735,509.7728912964233 L 203.95521271414,507.97944922642574 L 204.1950622996708,506.86440039200716 L 203.95521271414,504.6823247942096 L 202.90356429600735,501.19782798288236 L 202.6452646726062,500.0737274401931 L 202.99581414531923,493.22860508271305 L 201.83346595335965,492.33813849141217 L 200.0622686652859,492.1924161115958 L 196.76894863692675,492.5486214170687 L 195.26527593451144,491.96573149481225 L 193.66012842053362,490.5407068922273 L 190.90185767686015,486.9770119210099 L 192.81142973889504,486.2640785764918 L 194.93317649967565,486.0048138698463 L 196.79662363706103,485.2593805774614 L 197.93129694224163,483.0307601619606 L 191.74133139624095,480.30693104732217 L 192.67305496493387,480.5015215629439 L 195.6066004449672,480.30693104732217 L 194.43502729074345,477.9714667516088 L 192.36863041687678,476.70613298894824 L 187.86683727190214,476.0977266549882 L 186.2801396824455,475.44059468071964 L 182.44254563385377,470.6605332560595 L 182.44254563385377,469.4102567708786 L 185.47756592545647,470.79042073624703 L 188.678636104504,473.5824794084843 L 191.8335812455464,475.6353062625652 L 194.76712672557974,474.8645449607829 L 183.56799386342155,464.89460975064645 L 179.36140030424622,463.9684179099657 L 180.22854902376176,461.89627648951665 L 181.31709729093092,461.0672662273774 L 182.5901453700727,460.6283428660836 L 184.06614307235327,459.75042251244395 L 188.30041163166285,454.2855932119699 L 194.4165772528731,453.05710779881656 L 196.49219908900395,453.4313688394963 L 196.87964852410897,454.4889663012745 L 196.93499841102243,456.1645586597362 L 197.93129694224163,458.38457292944804 L 203.38326358042403,461.3679957838697 L 209.28725450288266,459.26264646054506 L 220.51406236518173,451.55988481354683 L 235.17256491643968,446.6593587832524 L 240.16328219473345,442.9778751054068 L 242.9584529008056,442.0001987888055 L 246.00269826802113,441.7802047578106 L 246.90674694992848,442.0001987888055 L 246.98054676136334,442.60311362631296 L 247.69087066904692,445.4459636888136 L 247.7462206693159,446.0893307415865 L 249.34214322102983,445.49482894472635 L 249.73881761839877,443.9798662426048 L 249.36059314555126,439.8814809383095 L 250.9288406971373,439.4576685533806 L 254.41588538637134,441.0875906339032 L 262.23867344647795,446.5209272091823 L 264.0098707345519,448.711115320615 L 265.4120685120421,451.16925777688806 L 266.40836704326125,452.4794090251031 L 267.47846538591534,453.05710779881656 L 269.5540872220462,453.3093292885437 L 271.43598439730215,454.0171328334035 L 274.8676790862674,456.4248128119691 L 273.0134569111457,455.6765590983061 L 271.24225962307196,455.6765590983061 L 269.9323116948873,456.71758809006 L 269.4157124480848,459.0675274096547 L 269.83083676996876,459.94552454360615 L 271.50055924647313,461.28671868064384 L 271.74040883200394,462.4814072068365 L 271.1500097737601,464.1471653535471 L 270.2182862050738,464.6021399092142 L 269.0836128998932,464.675258393641 L 267.8659148210204,465.2114396863151 L 263.6224212994469,471.32618357947086 L 265.4858684368323,474.65358649479305 L 269.50796229739024,474.46696478596505 L 271.74040883200394,470.0354199581619 L 273.0134569111457,470.3763969593831 L 280.31964572445,466.56797695172435 L 284.6092641706731,465.2114396863151 L 285.1074133796048,464.5858913087775 L 284.8860137185957,463.2208850961949 L 284.33251462275024,461.8556406854491 L 283.80669041368407,461.23795193380596 L 282.7919419579434,460.9697298957723 L 281.7033935774187,460.2869411491466 L 280.7901200466028,459.3683337910149 L 280.31964572445,458.38457292944804 L 280.6517452726416,456.62813012253235 L 282.0631681257448,457.286842438502 L 283.56684071479793,458.8317521925211 L 284.19413984878906,459.75042251244395 L 285.63323758867125,457.5307958294515 L 285.2642381914368,454.3832128664312 L 284.1664648486546,450.86813609676045 L 283.419240978579,447.4573280251463 L 283.9727401877797,448.37733448511466 L 285.7254874379767,450.1926049584872 L 285.77161236263265,446.8222162517213 L 285.0243884925571,441.8535367890951 L 285.0428385304274,440.50900721003944 L 287.20148525360617,440.38676569344995 L 290.52248016874455,444.1346339453258 L 295.87297188200864,453.05710779881656 L 296.094371543018,454.3344032913715 L 296.20507143020023,456.1157601926874 L 296.45414609134406,457.70155865943383 L 297.03532018732375,458.38457292944804 L 297.31206973524655,458.82362190663343 L 299.72901596847095,461.23795193380596 L 300.4485649517676,463.9927929196234 L 300.20871525288123,465.6013666419751 L 299.1570669481041,466.722298630835 L 295.8545219574872,468.8662430011299 L 290.5870550179219,471.1475999033319 L 282.7550419955514,470.4169885754119 L 280.8177949333817,470.83912783646446 L 279.47094704280505,472.0242438014954 L 278.8620979466909,474.56433317994373 L 279.91374636482357,475.8300128068071 L 281.74029353981075,475.9030265634445 L 283.419240978579,474.8645449607829 L 282.8934167695128,473.8340404306048 L 282.773492033422,473.2010649426234 L 283.6129657528092,471.1557174042705 L 285.85463724968037,471.71580625248345 L 293.4744755732993,473.50132896221754 L 295.17187304993814,475.0268167776848 L 306.3617808364899,491.3018316695096 L 307.0905547820438,493.05051989125906 L 309.95952541290615,501.63448532466913 L 310.6329493581915,504.8763115371404 L 309.79347563881043,504.8763115371404 L 308.4558527104913,502.77453202033956 L 306.3894558366244,501.4161597901377 L 304.5075586613684,501.96600546814557 L 303.67731001760046,505.50673564252315 L 304.3230589627511,507.93905177206824 L 307.3488544054452,512.7852751489935 L 308.25290297400335,515.7319319988541 L 308.4650776727552,520.000605061825 L 308.17910304921315,523.9202540743681 L 307.42265421688006,527.2657325074858 L 305.6975818534623,531.3187056045501 L 305.36548241862624,532.7927284850798 L 305.22710764466484,536.7543050950537 L 304.8581081340748,537.7926809329241 L 302.07216239026707,541.5345267325869 L 301.00206404761275,543.9476764207793 L 300.24561521527966,546.199281885599 L 299.22164179728145,548.1447933795058 L 297.42276950907325,549.6397771919922 L 296.0390216561045,549.9773147813673 L 291.5833535491411,549.6397771919922" fill="none" stroke="#000000" stroke-width="0.8"/>
	<path d="M 9.250163493234336,402.66618212496775 L 4.713967730364567,369.483096291229 L 4.160468521163738,367.4350823508191 L 3.8283690863276982,367.01554321697375 L 3.7176691991454813,366.0529855609671 L 3.8283690863276982,365.1149943418164 L 4.160468521163738,364.6871010615574 L 4.84311754206846,364.9175080109248 L 5.147542090125543,365.43589876965586 L 5.3412667510002905,365.95425501734536 L 5.673366299191755,366.1846242710754 L 6.411365093647988,367.2541074891416 L 9.234210799854386,382.74513373620994 L 11.26370771133579,388.0879387511859 L 11.558907297128954,390.3191786182959 L 11.291382711470172,392.24639041987245 L 10.184384406424055,395.0092630138767 L 9.935309745280547,397.2549131473265 L 10.322759180385466,400.0160125005366 L 11.291382711470172,400.5812209077484 L 16.38357491468214,397.7137983910666 L 21.798641590466346,393.40248892105626 L 24.35396271101408,392.4923831399062 L 28.7727308555792,388.9985587269251 L 33.2929739250753,384.2473982734728 L 33.929498021324086,380.963384710003 L 33.20072407576343,377.4643875851602 L 31.61402648630704,374.0460096463402 L 29.80592934919659,370.9632530241463 L 25.56243582762307,365.43589876965586 L 25.56243582762307,359.1635229375607 L 24.270937823966246,351.8970541954497 L 21.35584226844809,347.2469089652509 L 17.425998257195577,344.4175350780931 L 8.6807117040091,340.4150594291453 L 6.309890282085115,340.0931213638984 L 5.285916864086835,341.8017171449247 L 5.396616637913747,350.4627314325939 L 5.202891977038998,354.56715761222773 L 4.5110179938768775,359.1635229375607 L 4.926142429116296,362.5308200652089 L 4.6217178810592126,363.83124435079293 L 2.9612203668123858,363.30451635990573 L 2.4907461580148165,362.2344904473792 L 2.001821911340622,360.12693272650023 L 1.5774725138435668,357.6893573560746 L 1.060873267034755,342.99008420408865 L 1.4114227397477757,338.40892015196505 L 4.151243558906456,325.71614504916823 L 4.5110179938768775,320.9344530109577 L 3.2195199902135316,250.20611156558888 L 3.6992192746238057,246.76464192226766 L 4.5110179938768775,243.2296946443109 L 9.603210197088965,225.4552727014499 L 11.900231694229033,219.93219531118731 L 13.588404095254935,217.265624849656 L 14.280278078416938,217.81075348024476 L 14.732302362692831,219.61359694529995 L 15.774725818568092,220.6364187858869 L 15.691700931520137,222.09496306775006 L 13.14560477323644,228.77224945330434 L 12.260006129199573,230.60602691777075 L 12.260006129199573,232.01246531284036 L 12.961105074619212,232.71558864859296 L 13.72677898257165,233.09223559089986 L 15.774725818568092,233.29310631851155 L 16.16217525367313,234.17185484212231 L 16.604974575691386,236.15494869179665 L 17.20459859618633,238.13753395700542 L 18.1270972026215,239.02409529977717 L 22.776490083815208,239.86874304535525 L 24.0218631628225,240.73002163740506 L 22.38904064871017,241.71661113533682 L 22.80416508394947,243.60582973803213 L 22.499740535892506,246.9150294059621 L 23.163939518920248,248.84474229115423 L 24.18791293691829,249.65491112700968 L 25.073511580955277,249.13708111705535 L 25.39638605352728,247.75046196005886 L 24.71373714598462,246.03772799936036 L 24.71373714598462,244.6338386580474 L 28.283806608911174,243.45537789578884 L 33.79112324736256,243.3049231265723 L 38.82796545030577,244.34132978872412 L 41.02351213587656,246.73957712583328 L 42.0751605540091,247.08212313530197 L 47.68395189067458,251.6423887671362 L 49.25219955560953,250.92428349556403 L 50.70974733336855,249.14543346915073 L 51.927445412241575,246.8481908624814 L 52.77614409388654,244.6338386580474 L 53.47724303930619,244.6338386580474 L 56.90893784162687,254.28043591132692 L 57.00118769093223,255.84948027944603 L 56.56761333117777,256.7173257217451 L 56.74288806753108,258.65293791526494 L 57.48088697534914,260.57138614757804 L 59.335109150470714,262.0724488785461 L 61.549105760562824,264.95700774242243 L 62.84982872648369,265.77382622030143 L 64.78707578865323,265.74048846088004 L 71.70581516685239,264.24013681208737 L 72.45303903692796,263.8650034167416 L 73.06188813304225,262.8395463946516 L 73.45856241704927,261.26357906343867 L 73.61538722888753,259.3536437397713 L 73.64306222902204,256.3585169227536 L 73.79066196524084,254.330516585999 L 74.45486094826857,250.12259888436841 L 74.94378519494278,248.94497391402675 L 75.54340932879302,248.4688618820554 L 75.78325891432395,247.80058512628298 L 75.2205347428656,246.03772799936036 L 71.70581516685239,243.2296946443109 L 70.571141861672,243.12103008039932 L 69.71321821776951,242.627840440104 L 69.19661897096083,241.5744830652008 L 69.03056919686503,239.79348112685315 L 68.52319502567545,237.9702466411269 L 66.59517292576368,236.9329858390339 L 66.64129796377492,234.82457476050925 L 68.14497055282804,233.4437560413615 L 73.32941271870091,233.09223559089986 L 80.64482649426915,220.6364187858869 L 82.35144881981009,219.62198125950303 L 87.01006677662302,218.16296987061045 L 93.26460717179457,217.88622980275636 L 93.48600683280381,217.43336080268227 L 90.77386101377975,216.41011464878812 L 85.82004358452895,216.24235646868578 L 84.65769527921408,215.09311487716386 L 85.70934369734661,211.4177489406619 L 87.36984121159357,208.1856735821496 L 88.71668910216397,206.43895027974838 L 92.32365864084424,203.73410801455137 L 97.68337542971499,198.45609660329907 L 99.78667215262489,197.9600466998922 L 101.02282026937478,198.21227954117725 L 103.11689203002716,199.26316019913736 L 104.38994010916895,199.51535023417043 L 105.71833807522431,199.14546857100663 L 106.4102120583863,198.28794774414516 L 106.96371115423183,197.30420321041203 L 107.86775983613904,196.54739147968786 L 109.86035678522191,196.47170620211654 L 112.46180271706376,197.32942913408817 L 114.71269928955441,199.04458875121955 L 115.68132282063911,201.54938196436586 L 116.35474676592438,206.38015938592346 L 117.94144435538077,209.24359265613916 L 119.76799153036796,211.2666690473812 L 121.16096445895612,213.59129311600847 L 122.65541219910716,217.93654680391032 L 119.5004669447093,218.72480575320284 L 116.17024706730703,224.07277868412493 L 113.29205147418729,224.85203288760766 L 113.29205147418729,226.38517487208932 L 113.75330072072722,228.26139384509204 L 112.52637767959668,230.07854639717394 L 109.42678242546745,233.29310631851155 L 108.36590904507099,236.205146867161 L 108.23675923337362,238.80664620451424 L 108.7072335555265,245.33581518143038 L 109.56515719942898,247.3160483335952 L 111.42860433680808,246.9818673719137 L 113.29205147418729,244.78426757710284 L 114.80494913885977,238.06225518474585 L 116.48389657762814,237.6022023388348 L 118.53184341362447,238.01206886083529 L 120.32149073956879,237.6189319680247 L 119.61116683189151,235.65294777567985 L 118.69789318772027,234.92498847590852 L 117.6093449205446,235.17601664665045 L 116.45622169084908,236.0963835362827 L 117.31414533475156,233.85384309802077 L 118.19974397878843,232.2468468653719 L 118.99309277351342,230.47206697589658 L 119.54659186935883,227.6667486717375 L 120.32149073956879,227.6667486717375 L 119.6388417186707,232.28870006161887 L 122.6000621988384,232.99179806376426 L 126.64060609727314,232.28870006161887 L 129.1867021422015,232.64025705758357 L 130.7272748070021,233.69483231948539 L 132.4523471704263,233.34332328760456 L 134.01136975974842,233.50234129744632 L 135.04456814000397,236.0963835362827 L 134.71246870516794,238.11244097732506 L 132.11102265997079,241.9339784131593 L 131.077824279715,244.6338386580474 L 132.313972396465,245.13525707898967 L 132.55382198198916,246.03772799936036 L 132.6276219067796,247.2826307639228 L 133.40252066363414,248.84474229115423 L 134.50951896868014,249.97227374532275 L 137.3508145994082,251.6423887671362 L 137.81206395929692,252.49400848731827 L 138.08881350721975,253.60431323190159 L 138.56851279163655,254.48075707561074 L 139.67551109668267,254.58091591826505 L 141.308333610795,251.14974236434864 L 142.0002074806017,250.12259888436841 L 143.60535510793505,251.6256894444408 L 144.98910296090386,249.9889766371924 L 144.95220299850558,247.39123708089636 L 142.41533191584122,246.03772799936036 L 138.9006122264726,248.14308415508503 L 138.67921256546344,248.76956767041906 L 138.16261343201006,248.9533264735392 L 136.96336527765848,248.84474229115423 L 135.99474174657388,248.28509157035836 L 135.93016678404098,247.09883226864406 L 136.27149129449649,246.11292917360066 L 136.57591584255368,246.03772799936036 L 136.77886546568595,238.40518576379478 L 138.64231271642046,231.8283034657602 L 139.65706105880568,225.99982349756172 L 147.78256709150847,230.03316464863957 L 152.05880936696946,232.36160716072965 L 154.7944327510261,227.69338293868884 L 153.79273764224482,224.80490267030024 L 154.70656477512435,222.76689039801389 L 157.9811118398539,223.032979676398 L 159.6623194111447,224.90599117878526 L 158.95937550198607,229.81516921958007 L 162.10504961015988,233.35018608764537 L 174.99235474731435,233.4936789626606 L 177.21248620317192,235.6616911162387 L 174.26012158081977,239.08782301867177 L 173.44587824911054,243.5740259517432 L 175.61914650583927,244.29582261317182 L 179.32131782870366,242.24701809231073 L 184.93315348059153,248.68353333741288 L 189.90648175257365,247.33618215162394 L 192.94671424888392,249.02829024271466 L 194.8622362866504,249.4684959853069 L 199.57781844161408,248.71535776642295 L 203.3502843083128,244.25336588333778 L 207.86084115219322,241.6099735457458 L 210.6198960848362,240.75518937418136 L 217.37401552539168,239.96403175203574 L 225.14154589998986,235.1091179923717 L 228.91986957737592,229.73009651204652 L 234.19194894703685,225.28373088772878 L 237.95851054689876,221.02203778330923 L 243.4842771098718,222.09496306775006 L 248.19824495359194,221.8099817114513 L 251.2332652451944,219.93219531118731 L 253.94541117757387,218.90928020258505 L 256.04870790048363,223.44429046322995 L 256.6022071096846,230.2543771691421 L 254.6372850473807,236.0963835362827 L 246.99899679924033,241.9841390827387 L 241.37175542469788,248.3686240900774 L 240.35700696896365,248.84474229115423 L 239.5544332119746,255.5156677028717 L 239.1669837768698,257.38483303418485 L 240.02490742077205,259.71231392319595 L 239.49908321170585,262.6561168220564 L 238.2168101702999,265.37376260939715 L 236.84228727959513,267.04055800948566 L 240.32933196882936,266.857228140521 L 241.63005493475012,265.77382622030143 L 241.49168016078895,258.01056856380006 L 241.8514545957595,252.37712513224076 L 242.99535286319738,249.64655932495313 L 247.7462206693159,246.03772799936036 L 251.50078983085305,240.9725002250223 L 253.5026118555556,239.6178672032445 L 255.83653320173204,241.123000379963 L 256.2424325613585,242.42721209971853 L 256.85128165747267,246.8314811877031 L 256.96198154465515,248.14308415508503 L 257.4601307535871,248.819684233833 L 260.8180256311172,251.6423887671362 L 269.3234625987729,256.51706244455806 L 278.5761234365108,257.61010354617724 L 305.5038571925874,253.34553468995102 L 309.26765142974426,253.77961010647135 L 312.9760957799874,255.84948027944603 L 314.6642681810132,257.7853097075956 L 318.31736253098757,264.24013681208737 L 325.3468017963693,271.3642192944198 L 325.3468017963693,272.6383641422775 L 322.71768086439306,275.23597111315763 L 321.30625801128986,279.9460744399187 L 320.74353383982526,285.3849278655554 L 320.6420590282622,290.20518490247787 L 319.39668594925473,294.74013854029704 L 308.96322688168715,309.6469230100285 L 303.67731001760046,313.30081063874974 L 301.68471306851734,316.08357118044455 L 301.07586397240317,318.7825585844974 L 301.3710635581961,325.1041205124388 L 299.78436596873973,331.28831402209363 L 296.20507143020023,332.0320697877008 L 292.2567774944263,329.1227526581839 L 289.6184314868372,324.40933130747794 L 292.5335270423491,323.91301534269263 L 293.73277519670046,322.8127350783103 L 294.32317425494426,320.2392907211867 L 294.00952474462326,317.52425170610087 L 292.8656264771851,316.69630712919576 L 291.38962877491093,316.43134625955435 L 290.0335559220765,315.3879744920426 L 287.3121850274331,314.4107216238295 L 284.4985643968462,317.7726178660774 L 281.9432432762984,322.2087555316684 L 278.3085988508455,326.4769734560285 L 279.101947645577,331.2056700985265 L 280.5963952723726,336.3774865538024 L 281.09454459465985,339.79593587076437 L 279.98754628961376,341.2157193897102 L 278.1794490391416,342.0988259868242 L 276.25142693923607,342.3216501686671 L 274.8400040861329,341.8017171449247 L 273.6961059320439,340.11788624130645 L 272.57065758912745,336.22882419176796 L 271.74040883200394,334.24638797344676 L 272.6444575139112,333.2797669968606 L 274.5632545382103,331.88332428824793 L 275.614902956343,331.47012751970766 L 274.80310423709,329.2054187368072 L 273.80680570587083,328.1224234183273 L 269.1205128622852,326.7085151307073 L 268.0873144820295,326.90697381512075 L 265.5596683616163,328.56886718349443 L 262.3862731827033,329.188885632063 L 260.43057619601217,327.60153969872425 L 258.7055038325944,324.7567335758467 L 256.2608825992291,321.62955308606206 L 258.78852871964233,321.3730353662426 L 262.5799979569334,318.28588292171236 L 264.7109696799777,317.4745776429205 L 266.3161171939558,318.66667051913646 L 268.2810391429044,320.78549488654306 L 270.2182862050738,321.57163040488945 L 271.74040883200394,318.7328923662881 L 269.82161180770487,315.4873494082658 L 269.9507616194085,312.9528955061175 L 273.2717565345471,306.2151768074818 L 271.74040883200394,306.2400499290959 L 270.1075864312469,305.57673777138655 L 268.61313869109597,304.3660468247282 L 267.47846538591534,302.80679650324396 L 266.23309230690785,301.9606892980445 L 263.2995468268745,303.3376403408925 L 261.74052423754597,302.0436450685612 L 261.3161748400492,304.7723956609613 L 260.6981007816775,306.4721958312146 L 259.7018023638136,307.35926075211677 L 258.1243297366147,307.6079525316741 L 257.2940809794912,308.70210076423507 L 254.24983561227566,315.3879744920426 L 251.482339906338,318.9646649946898 L 245.35694932286384,324.0288251561523 L 242.60790342809258,327.87438797466314 L 241.0212059519915,332.63528621829533 L 241.7776547843246,335.6093671462422 L 243.6503268839675,338.3841498304012 L 245.42152417204147,342.5527203315221 L 246.16874804211704,347.6840089431502 L 245.69827371996382,351.5920766281476 L 244.30530090473118,355.1356726227344 L 242.25735406873486,359.1635229375607 L 244.97872485002299,357.82937394838206 L 246.97132179910585,357.5822842518035 L 247.5155959326871,359.0152954313331 L 244.6743003019659,365.39475781693966 L 244.39755075404307,367.97798190412703 L 244.58205045265402,373.08432055146665 L 244.480575641091,376.60993385361974 L 244.31452586699535,378.1626697776795 L 243.87172654497687,379.86293059950816 L 241.15035576368876,383.43473379280596 L 240.7167814039342,384.86299686535693 L 240.16328219473345,384.85478922543507 L 238.93635915359653,385.65909888122553 L 237.6171861498052,386.9064355147794 L 236.84228727959513,388.11255143500347 L 237.40501145105358,388.6294012582 L 238.2260352459196,390.6144419955645 L 238.6596094923184,392.74656744532626 L 237.66331107445473,394.20591734656756 L 237.29431156387113,395.1895944970694 L 236.70391250563395,396.18134353634247 L 235.6338141629796,396.6239016283787 L 234.24084134775362,396.25510496212195 L 233.17996796735682,395.2879555500371 L 231.41799564154724,392.4923831399062 L 230.91062135699582,391.1885332695427 L 230.57852192215978,389.6958083928283 L 230.08959767549175,388.20279768078285 L 229.0379492573591,386.8736135082789 L 227.59885151747693,386.3648533238432 L 216.58421835392946,386.8736135082789 L 215.11744561391282,387.3823402908323 L 214.20417196974157,388.58017887449324 L 213.493848062058,389.9582861517401 L 212.7097242295904,390.99170668527984 L 209.76695378729318,392.1725910705083 L 203.78916294004435,391.81178417483756 L 201.03089219637062,392.4923831399062 L 203.8814127893562,395.6649940235496 L 220.09893792994245,399.25414495548614 L 221.24283619738057,400.15527040143854 L 220.8369368377541,402.2766004953367 L 218.96426473811738,406.37838692676144 L 218.02331609381162,409.888982261186 L 218.30006575508975,411.4351074232242 L 219.8775382689333,411.80318737981077 L 222.8387587491009,411.7295727768335 L 222.8387587491009,413.1199531931986 L 218.1893658679073,415.7773447589541 L 216.83329290171756,418.03337357570837 L 218.12479101873015,421.34267119649667 L 217.7004416212331,421.68577751819413 L 216.64879320310044,422.83752368654564 L 213.9827723087322,421.17111248426755 L 201.52904140530256,424.82204990162455 L 195.85567510611082,427.8836012843297 L 192.50700519083796,428.18560937677734 L 185.56059081250442,425.4426212684006 L 181.55694698981702,421.8981688976434 L 180.5237484962058,421.34267119649667 L 179.27530015378895,421.3357178004324 L 179.28031274609964,421.31150484945283 L 179.7489419848885,419.116852821239 L 179.85438359674586,417.34200258482133 L 179.2744548334623,415.6186624888779 L 177.96815081631536,414.434943692591 L 175.4375526414048,413.63531245342926 L 171.70609206120423,413.1264138142155 L 170.47594009274687,412.3370357076886 L 170.30020414094312,410.8411532930516 L 170.52866089867533,409.6203424150173 L 171.00314805010174,408.46169419087965 L 171.33704652163493,407.214526353906 L 170.79226482638083,406.07631174604137 L 168.63071229297677,405.61370232549046 L 164.6180741491153,406.08150949159256 L 162.8255671552739,405.4681563214819 L 161.2439432832093,403.4510288182142 L 158.3735889280157,398.5932260001212 L 155.8429907530985,395.54385185515974 L 155.17519401391317,393.68033684100834 L 154.8061485762944,392.2277354528927 L 154.64798615850216,391.19148525212114 L 153.78687983155157,389.7123773951494 L 148.0344553978398,382.4794571990934 L 145.18167467859493,379.91401474060143 L 141.59666058897452,377.67116776564114 L 130.97049168444437,374.1334596751064 L 126.69424940898968,375.0728308336206 L 123.60129620869482,381.3793402997165 L 118.34093246041434,388.076698710224 L 116.42541021875388,389.6602909597287 L 114.36344138457602,390.23322206905675 L 113.34417274178334,391.01442376087897 L 112.34247763300218,392.18087283251754 L 111.74497533570734,393.24302296083147 L 110.74328022692629,395.77285651236554 L 109.28467150073675,395.5906942721052 L 108.06623545949157,396.7408472427834 L 104.18247027219223,397.16755768571994 L 102.61841993413917,395.97062778510167 L 98.09614746887844,390.07176391756985 L 94.66343788441267,386.8471093015282 L 89.10432303846002,386.32603835771675 L 84.9569539234488,388.39969448808876 L 83.23474137149773,394.33626159501756 L 82.03387876232661,396.16839404327743 L 82.63138105962157,399.58167515729696 L 82.64895479752721,400.88207512076747 L 80.82130053176851,402.04704958629304 L 77.14841856819021,403.20145081982434 L 75.2094648798874,402.6034714262484 L 67.24276710682985,396.9333903146336 L 63.54645359465882,395.9602188099673 L 62.35144900006263,396.1371682302265 L 60.48864746239317,396.96461294034594 L 58.59069885669462,397.3392761500027 L 57.231674033618994,397.0842989974845 L 56.0542429730342,396.6263599638657 L 54.9471062523959,395.8665381331813 L 53.91026397364155,395.83531111165263 L 52.908568864860385,396.0955333164567 L 52.100183343844634,396.6159520448958 L 51.52025468250506,397.1883722189229 L 51.590549022451555,397.8387988029658 L 52.17047778573499,399.11347776264546 L 52.36378737349388,399.7273306412178 L 52.31106656756543,400.24750696205797 L 52.06503617387145,400.6896296666867 L 46.36533254608824,407.13137480556446 L 44.90672392183616,408.7007118536458 L 42.84475498571432,409.11637751754574 L 41.456440803359115,408.7838466849302 L 37.461376193509274,406.2322413406727 L 34.59687975094649,404.9535264316461 L 31.093875826534354,402.45266946734677 L 9.273324875570973,402.66587154658237 L 9.250163493234336,402.66618212496775" fill="none" stroke="#000000" stroke-width="0.8"/>
	<path d="M 279.47094704280505,389.6137822684552 L 281.02074466986966,387.07874918513556 L 281.92479323842787,383.919059197656 L 281.832543389116,380.4870878379416 L 280.31964572445,377.10289941193145 L 278.2440238883192,375.599256795237 L 275.947002391179,374.61310396125083 L 274.48022965116235,372.46779066796853 L 274.8400040861329,367.4350823508191 L 276.0023523914478,364.7940766873502 L 277.71819967925296,363.01644688108775 L 279.1757474570055,363.4608924357916 L 280.0152211763927,371.9416465419235 L 281.832543389116,375.44312425908066 L 284.3878645096637,377.71906260291996 L 287.2752850650413,378.6062519002652 L 286.2697616849199,380.6020586232946 L 285.81773728728194,382.74513373620994 L 285.9284371744644,384.8712044966334 L 286.50038630818653,386.8736135082789 L 288.45608329487766,389.6465927411248 L 289.8121562610674,388.842694394545 L 290.78077967879653,386.6930893973215 L 291.5833535491411,385.4949608017696 L 291.9246779462347,386.8407911619183 L 290.3103054699993,389.7942385626948 L 287.2752850650413,393.7468254665569 L 286.7125610069384,397.3860258853027 L 286.8324857430228,404.1026120981762 L 285.7254874379767,407.622414731339 L 282.0539430501253,411.0588299960743 L 278.0779742275788,409.962614222862 L 275.0337288603633,405.2651409887103 L 274.04665529140163,397.87767968068 L 274.6924043499076,393.7960152469034 L 275.87320257974415,392.10699104013685 L 277.515250056114,391.2541408253837 L 279.47094704280505,389.6137822684552" fill="none" stroke="#000000" stroke-width="0.8"/>
	<path d="M 387.4770816529118,220.6364187858869 L 387.1726571048547,217.60947961186957 L 388.454930146254,216.52754333018487 L 398.1227154192248,215.49578835027484 L 403.03040781047065,213.59129311600847 L 403.03040781047065,215.1350609029891 L 402.55070863940927,215.16861776575595 L 402.1817091288257,215.44545523715223 L 401.48061018340627,216.41011464878812 L 399.46956330980174,217.36626681743343 L 397.9105407204796,219.46267732108774 L 396.5821427544241,221.7932178233078 L 395.28141967514784,223.56999207430425 L 393.3718476131129,224.3492971973141 L 391.0471512291938,224.09791708360518 L 388.87927954375107,222.84927440960388 L 387.4770816529118,220.6364187858869" fill="none" stroke="#000000" stroke-width="0.8"/>
	<path d="M 139.65706105880568,225.99982349756172 L 139.64783609654816,225.95793643239364 L 137.3508145994082,220.6364187858869 L 136.2438162943621,219.3788318340369 L 135.65341723611826,218.90928020258505 L 133.40252066363414,219.21952288036607 L 128.8453776317459,221.3321954057188 L 127.71992940218475,222.9414629463212 L 125.26608309320665,224.52525838961813 L 122.86758678449706,224.67607913783 L 121.87128836663328,222.03629125868213 L 123.14433644577518,219.5465218979294 L 128.36567834733552,216.35139984459454 L 129.54647657717206,212.8864270687396 L 130.19222563567826,209.9991605274744 L 129.96160101241136,208.57191486270713 L 127.12953034394116,207.56428857206876 L 125.96718203862605,206.53973347987537 L 124.98010858302631,205.17064848819894 L 124.20520982617177,203.73410801455137 L 123.60558569231512,202.37292822782175 L 122.95983663380893,200.28027623104887 L 122.5354873496609,197.8171113574734 L 122.65541219910716,195.2606409642804 L 123.23658629508694,194.5793332906458 L 125.83803222692879,190.46497419981304 L 126.13323181272183,189.48864864190367 L 126.6682809840522,188.41959853645895 L 126.57603113474033,186.02000991826696 L 126.04098196341648,183.644944527449 L 125.3214330934754,182.5582346181153 L 123.99303512742004,182.28021431013255 L 122.98751163394344,181.5724814525579 L 121.16096445895612,179.60059662571638 L 123.27348614412354,174.4241058805303 L 125.3952329049103,170.315848120014 L 127.69225440205048,166.9651945958601 L 131.20697409141889,163.33437814215384 L 132.0003228861439,162.86140179292596 L 132.84902156778884,162.5742232061205 L 133.836095023395,162.48975691415208 L 134.43571915724525,161.8308879935117 L 135.06301817788096,158.89063178273955 L 135.43201757510903,158.2314547760302 L 152.23994188729426,152.56696693199444 L 155.9852860865746,152.68537192306505 L 169.21391586021406,158.2314547760302 L 169.21391586021406,159.7778963750909 L 167.76559304471886,160.74954503763453 L 167.66411823314968,162.03362280123284 L 168.54049191492894,163.24992018822033 L 170.06261454185903,164.03534355580413 L 171.61241216892364,163.89177749000137 L 172.71941047396976,162.8191702340431 L 176.8522041083544,156.228224275005 L 178.7248763213531,152.47393311647326 L 180.80049815748393,149.5047168971428 L 185.2469413021832,147.85465724681137 L 188.992285614825,145.45932546072564 L 194.4165772528731,146.88137919527273 L 206.5105337213322,145.45932546072564 L 199.80396904187836,139.19238670325473 L 196.4091742019562,137.90449116200702 L 194.11215270481603,135.95529168676785 L 192.894454625943,135.50605838354298 L 191.98118098177176,136.01462249583898 L 187.9959870836058,141.46262461612713 L 185.81889043590556,143.74912715119825 L 183.40194408932564,144.90058958291388 L 181.2801973285389,143.25800985273426 L 179.23225049254233,141.1746465855985 L 177.07360376936379,141.7590615163465 L 173.10685990907479,145.45932546072564 L 168.54049191492894,147.38919174617274 L 158.69743190559853,147.54152901747563 L 132.7567717184835,156.92983673246056 L 130.5151001082569,157.149605897639 L 128.36567834733552,156.17750273594285 L 115.68132282063911,145.45932546072564 L 116.40087169058032,148.20162220288998 L 115.48759815976437,149.60624742477063 L 111.7514788093866,151.14596367812433 L 108.9839831034492,153.2435428205996 L 107.53566028794747,153.95388362149765 L 105.61686326365492,153.9877076496221 L 106.32718717133848,152.68537192306505 L 104.28846529759956,151.36589805527692 L 102.33276831090858,151.8057477457854 L 100.39552124873917,153.3788509443812 L 98.52284914910244,155.51809335052954 L 96.6870768984959,155.3151868854689 L 94.36238051457676,157.6060294535512 L 92.38823349001534,160.09052697207875 L 91.54875977063428,160.48763426787653 L 90.58013623954946,157.707453166217 L 88.32923966705893,156.6339839327713 L 85.74624365973875,156.9129312001084 L 83.8089965975691,158.2314547760302 L 85.46949411181605,160.0313817344432 L 81.3551504019463,163.89177749000137 L 75.72790902741049,166.8807764518523 L 71.68736512897564,165.68193877114413 L 69.03056919686503,166.26449602938504 L 66.37377326475442,167.4885666034738 L 65.15607518588139,168.99095273332622 L 64.53800112750947,173.0071310435264 L 63.01587850057948,175.4529363417592 L 61.22623117462888,177.30785715969617 L 59.75023347235471,179.60059662571638 L 59.10448441384212,185.49789508490392 L 58.97533460214463,185.96948415488257 L 58.781609941269885,187.76294322812853 L 58.25578573220367,188.7984127805984 L 57.5085618621281,189.6569894395776 L 53.91081739906716,195.2606409642804 L 51.355496278519425,195.48773021885023 L 50.1377981996464,196.06803891546477 L 49.62119895284411,197.25375152887395 L 48.772500271199135,198.08616415137644 L 46.909053133820045,198.84282494774249 L 45.04560599643431,200.2550601605726 L 44.196907314795865,202.96112172138623 L 45.16553084588069,209.95718638299545 L 45.05483095869835,213.23047688859006 L 43.348208519795584,215.1350609029891 L 43.348208519795584,216.41011464878812 L 47.87767666490487,215.94877098697262 L 48.920100007418064,216.41011464878812 L 49.76879868906292,218.9176652814004 L 49.08614978151374,220.6699515472998 L 47.61015207923968,221.709397630856 L 46.134154263609965,222.03629125868213 L 44.8057562975546,221.60881224049655 L 42.148960365444,219.6722871596649 L 40.68218762542746,219.21952288036607 L 39.326114772593144,219.62198125950303 L 37.056768162232025,221.48307850614077 L 35.617670422349875,222.03629125868213 L 35.617670422349875,223.56999207430425 L 41.02351213587656,222.03629125868213 L 42.64710968773137,222.56432108634985 L 45.02715595856385,224.44146783569082 L 46.134154263609965,224.85203288760766 L 54.13221706007641,221.3573429311229 L 55.80193953658063,222.03629125868213 L 56.11558904689547,223.54485195690984 L 55.80193953658063,227.46573164831528 L 55.80193953658063,229.19933231730036 L 57.5085618621281,231.9287559076438 L 58.274235770074135,233.89568759349527 L 56.59528833131215,236.91625451983265 L 55.432940025997276,238.36336567055272 L 53.91081739906716,239.02409529977717 L 52.305669885089095,239.27499040818722 L 51.30937135387001,239.92727963227568 L 51.355496278519425,240.79691307715783 L 52.77614409388654,241.71661113533682 L 50.47912271010202,241.76677342036706 L 47.32417745570404,238.8401002146649 L 44.5474567875026,235.0756061920681 L 43.348208519795584,232.64025705758357 L 42.31501013953979,229.57615065900177 L 39.76891409461163,227.10556277760023 L 36.586293953434456,225.4552727014499 L 33.68042336018034,224.85203288760766 L 31.6693764865758,223.77111068613613 L 29.270880177866456,221.15616146546563 L 27.038433529903646,217.97009149532067 L 25.56243582762307,215.1350609029891 L 24.29861271074532,207.69864622052742 L 23.579063840804242,206.55653051754865 L 22.03849117599715,206.0190057346431 L 18.846646072562695,203.88533541617463 L 16.964749010661926,203.73410801455137 L 18.59757152477449,211.3422093635845 L 19.178745620754277,215.79777972721578 L 18.90199595947615,218.59063963725652 L 17.21382355845013,218.87573979627211 L 16.355899914547877,214.53940453682029 L 16.11605021566165,205.0194462714706 L 17.444448181717014,196.49693464159816 L 19.99054434000071,190.12832399907086 L 40.32241319045692,156.81149701861304 L 46.42935384940313,150.4353636415838 L 55.80193953658063,135.50605838354298 L 59.39968399964157,132.07237016710056 L 63.45867782259798,132.1486910268282 L 72.90506332120397,135.50605838354298 L 78.20943022316779,135.83662890349385 L 88.45838947876281,133.47994384631846 L 93.01553251065106,131.1225361705401 L 98.45827418656953,125.0476083369076 L 100.48777109805093,124.11388380530872 L 128.8453776317459,128.27232999945377 L 139.14968688761633,127.03351812350716 L 149.41709618108823,123.19702564877215 L 159.13100626535953,116.60601032885307 L 167.68256815767114,107.01515903026788 L 192.073430831077,61.636520503119456 L 196.38149931517702,55.18938218516704 L 204.1950622996708,46.421814255142344 L 208.10645627304635,38.85460886354046 L 209.6101289754614,37.79013838290388 L 212.31304983222145,33.80564379995678 L 217.8019164328025,32.697516900834096 L 228.26305050050456,33.4706456076464 L 238.45665986918624,31.726700033507015 L 247.7462206693159,27.567116289163106 L 255.79963323934027,21.633215740613313 L 269.61866207121716,7.243739286230434 L 277.16470058340735,1.5528084091883165 L 280.22739587513814,0.3623503278642351 L 283.62219071506695,0.0 L 286.9062856678133,0.7764437825273466 L 289.6184314868372,3.0018112687392087 L 283.4376910164493,5.355854985483913 L 277.5521500185124,11.06979929839308 L 268.2533642561252,25.52946964037628 L 264.8493444539391,38.202209035271174 L 268.0135145572391,47.70800990072423 L 273.75145581895737,56.43128502921072 L 278.0133992650459,66.68427423014596 L 274.710854274429,75.92416608781357 L 274.766204274698,86.85916659220551 L 277.16470058340735,108.30824179758875 L 275.2274535212379,111.4379617675539 L 269.4341623725998,115.73924481183086 L 266.70356662906084,119.1377649118125 L 262.69992269301787,127.57658340565807 L 260.8918254425521,133.2425398199533 L 259.59110247663136,142.20792971164042 L 256.77748173268225,152.2117406124407 L 255.41218391759054,155.51809335052954 L 254.45278534876334,156.96364789349607 L 253.53028674233457,157.77506830152547 L 252.29413862558457,158.15539224253064 L 246.94364679897134,158.0793289574807 L 245.30159932259508,158.5018931379448 L 243.2352025620835,159.12724568639368 L 233.74269202546614,152.68537192306505 L 226.71325287344018,145.06144194666228 L 222.03618499211208,143.139459693311 L 218.2539407170785,139.2432203372157 L 215.4495450487491,138.35358458154366 L 213.16174851386643,139.64987668871356 L 209.9514534859103,144.9175217333122 L 207.7743568382103,145.45932546072564 L 209.8776535611201,145.7217479436607 L 212.26692490757216,142.6228978380896 L 214.25952185665503,141.2000567904492 L 216.27979380587237,140.19205157266123 L 218.62294022766187,141.1915867314982 L 229.8036230519497,153.04057638231652 L 233.51206740219286,154.88399252268653 L 237.86626069759353,158.87373034816932 L 240.35700696896365,159.7778963750909 L 249.50819288177019,160.0060334287076 L 251.62071468029944,161.1973069485093 L 248.4380945391225,165.1753316184986 L 247.7462206693159,166.8723346073087 L 247.2019464223725,169.61545410689737 L 246.58387236400102,175.26741976093794 L 246.1964230422513,176.7851518247349 L 247.01744672375537,180.17367493342982 L 248.25359484050514,190.73428357243907 L 248.74251908717957,199.04458875121955 L 249.5450928441686,203.43164432037753 L 252.3310385879766,212.18149645936472 L 253.29043715680402,213.55772960379647 L 254.39743546184988,214.76592723062544 L 254.6649600475152,216.12492365661876 L 253.10593745818642,217.93654680391032 L 252.18343885175767,218.00363583493478 L 249.51741795738965,216.7540077108305 L 248.08754506640946,216.41011464878812 L 242.98612790093986,216.41011464878812 L 241.2057056506022,217.20691634354566 L 239.1669837768698,219.21952288036607 L 237.25741171483466,217.181755506914 L 235.11721491617092,215.57128730172488 L 232.66336872055453,215.09311487716386 L 229.8036230519497,216.41011464878812 L 227.27597693154286,218.4397002284537 L 226.21510355115268,218.867354671939 L 224.3885563761655,219.21952288036607 L 222.6727089750052,220.0663381250813 L 219.17643932350703,222.9414629463212 L 215.02519576460094,224.44984691138646 L 209.88687863673954,228.32001819353212 L 194.05680281790256,230.60602691777075 L 194.05680281790256,232.01246531284036 L 199.2043449080281,232.93320914352637 L 216.2244439189589,227.6667486717375 L 220.01591304289448,225.29608901474228 L 221.6764105571413,224.85203288760766 L 222.05463491662712,224.40795144202644 L 222.1192098791598,223.44429046322995 L 222.34060954016917,222.4805092607206 L 223.18008325954997,222.03629125868213 L 224.102581865979,222.27935704546067 L 225.61547953065136,223.33534717906093 L 226.32580343833516,223.56999207430425 L 227.54350151720817,223.2683046478684 L 228.93647444578994,222.4386029039129 L 230.08959767549175,221.28190052129665 L 230.57852192215978,219.93219531118731 L 231.33497075449904,217.14820739112207 L 233.1246179670878,216.72884519240225 L 236.84228727959513,217.93654680391032 L 236.5563127694086,218.69126454575326 L 235.98436363569286,220.6364187858869 L 237.95851054689876,221.02203778330923 L 234.19194894703685,225.28373088772878 L 228.91986957737592,229.73009651204652 L 225.14154589998986,235.1091179923717 L 217.37401552539168,239.96403175203574 L 210.6198960848362,240.75518937418136 L 207.86084115219322,241.6099735457458 L 203.3502843083128,244.25336588333778 L 199.57781844161408,248.71535776642295 L 194.8622362866504,249.4684959853069 L 192.94671424888392,249.02829024271466 L 189.90648175257365,247.33618215162394 L 184.93315348059153,248.68353333741288 L 179.32131782870366,242.24701809231073 L 175.61914650583927,244.29582261317182 L 173.44587824911054,243.5740259517432 L 174.26012158081977,239.08782301867177 L 177.21248620317192,235.6616911162387 L 174.99235474731435,233.4936789626606 L 162.10504961015988,233.35018608764537 L 158.95937550198607,229.81516921958007 L 159.6623194111447,224.90599117878526 L 157.9811118398539,223.032979676398 L 154.70656477512435,222.76689039801389 L 153.79273764224482,224.80490267030024 L 154.7944327510261,227.69338293868884 L 152.05880936696946,232.36160716072965 L 147.78256709150847,230.03316464863957 L 139.65706105880568,225.99982349756172" fill="none" stroke="#000000" stroke-width="0.8"/>
	<path d="M 82.96029791592413,210.66232011298004 L 81.4658501757731,212.57592984332572 L 76.77033236993009,216.41011464878812 L 76.1891582739503,219.9657311300544 L 67.14867213496426,222.46374682766026 L 63.975276956044844,224.206849408705 L 62.84982872648369,223.60351230952207 L 59.82403339713862,216.8294943619084 L 58.587885280395135,215.1350609029891 L 55.80193953658063,212.18149645936472 L 53.08056864194363,210.78823015424297 L 52.36101977200255,210.66232011298004 L 48.84630019598946,212.01364638042915 L 47.68395189067458,211.82061413381882 L 48.07140132577962,209.3779212842408 L 48.60645049710347,208.3452103534412 L 49.455149178748314,207.46351854292692 L 50.46989763448256,206.80848231536865 L 51.539995977136655,206.55653051754865 L 52.056595223945585,205.64943589698544 L 51.87209552532812,203.65849320240454 L 51.46619616570176,201.70065218709445 L 51.15254665538716,200.9106528634599 L 54.298266834172196,198.54016965855047 L 62.32400451741736,197.40510599693025 L 65.15607518588139,193.7297169764147 L 63.735427370520675,193.87272828396615 L 62.32400451741736,193.72130448830418 L 60.986381589098194,193.267015263381 L 59.75023347235471,192.45091016238666 L 60.386757455247945,190.48180627236806 L 62.65610406560894,187.41775587587532 L 63.606277558816785,185.24524626072167 L 63.237278161588726,185.4136797301298 L 62.9974284627025,183.712332385524 L 62.84982872648369,180.308510768788 L 63.209603161454346,179.58374077892057 L 64.08597684322717,179.5247448176837 L 65.0915003367103,179.66801985140057 L 65.86639909356484,179.60059662571638 L 69.12281915952569,178.37001980876536 L 75.7740339520663,177.25727425514066 L 79.09502886720453,175.3686111580761 L 81.57655006295555,176.23711649987666 L 83.85512152222505,173.25174651442185 L 87.67426575965077,165.3273173050512 L 90.27571169149238,167.0158451211148 L 91.93620920573932,164.69402389076706 L 93.2092572848811,161.98293970353168 L 94.63913006249935,162.48975691415208 L 93.98415604173564,164.16201732234074 L 92.65575807568028,166.74570562128812 L 92.32365864084424,168.28199793620522 L 92.54505830185349,169.17662072153811 L 93.67973149367856,172.06233621209336 L 93.9380311170797,173.81686291928634 L 93.67973149367856,174.25543206927324 L 92.32365864084424,181.01635989648503 L 91.41038499667299,183.5944034025681 L 90.8292109006932,184.52936285501016 L 89.99896214356991,185.24524626072167 L 89.9712871434354,182.7856982644219 L 89.39933800971315,181.20173813782486 L 88.53218940355313,180.22423869989942 L 87.67426575965077,179.60059662571638 L 84.98979482740566,181.80839969446737 L 84.51932050525278,182.5582346181153 L 84.15954607028225,184.73992377178067 L 84.45474565607529,186.07053514358188 L 84.97134478952867,187.03045400236073 L 85.35879422463371,188.09127787263748 L 86.2812928310626,194.98307848921635 L 87.27759136228168,197.10239409120493 L 89.22406338671514,197.9600466998922 L 88.50451440341875,198.99414824337148 L 87.78496553347756,199.46491280399377 L 86.98239177648853,199.57419324495265 L 86.06911813231716,199.51535023417043 L 86.90859185169832,200.1205726464032 L 87.67426575965077,200.9106528634599 L 86.17059305723558,203.21319112954382 L 84.46397061833933,207.8917815653712 L 82.96029791592413,210.66232011298004" fill="none" stroke="#000000" stroke-width="0.8"/>
	<path d="M 345.5495208351217,88.29210897762395 L 348.676791089385,88.21535097458315 L 349.9867390175635,88.7185284338018 L 350.96458762426124,89.72478391813313 L 351.7763863435142,92.26541809020087 L 351.6885868753555,94.47733543607602 L 350.8510742256149,96.26536016488986 L 348.3303125931947,95.7434750444943 L 345.6500273543829,94.78518770977088 L 336.96105898041145,96.88414736657819 L 338.7876062687542,98.44298003390307 L 340.08800027374457,101.55809094016693 L 339.74068701936363,104.94948971053964 L 337.02756417957977,107.965195181943 L 335.48033464688166,110.50695671913674 L 334.5304663097133,113.32516803229812 L 332.6825024405785,115.58127727785788 L 329.1762876721813,116.41756210764596 L 326.91565512575903,114.57481052418142 L 323.95171544684194,108.93358281312851 L 319.952693173814,108.17286218494908 L 316.8084844922877,106.50534859674607 L 314.8026429549746,104.56451011502317 L 312.9760957799874,102.47062793747916 L 312.9760957799874,101.15953280667593 L 316.7660009225473,100.33001547202394 L 320.4884880050279,96.6846739006788 L 323.3607136714166,94.09572387261996 L 327.92539831965814,93.81310808851306 L 330.5568617663221,93.00026460331571 L 332.55642379995794,90.73404244640761 L 340.96796645372825,90.79136703202153 L 345.5495208351217,88.29210897762395" fill="none" stroke="#000000" stroke-width="0.8"/>
	<path d="M 425.22572391166125,615.0123313719972 L 423.9342257946425,616.454848567105 L 422.7718776026829,616.9329730926514 L 421.76635422256174,617.6022984813668 L 420.88998054078223,619.6975584709573 L 425.36409868562265,621.6887355550089 L 424.93052432586194,625.9163324212876 L 421.314329824924,630.0462072468733 L 416.25903758411033,631.7166422295138 L 398.62086462815677,627.8343267158741 L 392.90137340431545,629.1631206184315 L 387.4770816529118,631.7166422295138 L 383.18746320668896,635.7083482296317 L 380.63214219949657,635.2711082931186 L 370.078758282489,628.9801262300441 L 363.1600189042897,622.9150510371802 L 350.6970630386026,614.9485677931731 L 345.07904662632404,613.705071815982 L 339.0090059297636,610.8586428343507 L 332.87439027068274,609.3831990942269 L 330.46666899971586,607.2293539613427 L 329.3227707322711,604.260871431251 L 330.06076952673385,600.9479405382631 L 332.9020652708172,599.278974081306 L 336.3614349599168,599.8379972883602 L 339.58095495013043,599.582448773535 L 341.675026824138,595.4765655049009 L 339.83925457353155,594.7893804993569 L 338.29868202208615,593.5906583791375 L 332.2747661368261,586.0585181030131 L 331.54599230462725,584.7384537124971 L 331.54599230462725,581.3532789274258 L 333.08656496942797,578.2309075897913 L 337.8005326997989,572.5354003171717 L 339.4056803271323,573.3286922386006 L 355.67855535463224,569.9626616969651 L 358.4368260983057,571.2771875394575 L 363.8149929250598,575.6359968534258 L 365.8075898741427,576.5651370992135 L 367.82786171000475,578.2549304886336 L 371.2318815121911,585.7385228038761 L 373.93480236895107,587.4263518310682 L 376.6561732635945,588.0501971853723 L 396.83121730221245,599.4866159722138 L 395.7426690350369,596.0678165603025 L 394.4327209935031,593.9423022707488 L 394.34047114419764,592.2478733743258 L 396.83121730221245,590.1053385888164 L 399.93081255634166,590.1053385888164 L 402.6798583377576,588.8259360618258 L 403.8053066806805,588.6500020267547 L 402.7813332626823,586.5144890342583 L 402.50458371475975,584.0583342596727 L 402.6798583377576,581.5693971764185 L 403.03040781047065,579.3599076673514 L 411.6834446277008,587.2583848703201 L 412.38454357312656,590.1053385888164 L 415.0690143920165,593.5906583791375 L 416.7756368309126,594.933214738005 L 418.65753389281326,595.4765655049009 L 417.5136356253752,596.5631550257887 L 417.03393645432044,596.8188013057432 L 418.6944338552117,600.3171287279595 L 424.37702511666095,605.0429992344217 L 425.613173233411,606.92617303508 L 425.9175977814681,610.1329185286767 L 426.3880721036208,611.5763267929773 L 426.3880721036208,612.7244853354613 L 425.22572391166125,615.0123313719972" fill="none" stroke="#000000" stroke-width="0.8"/>
	<path d="M 490.058924624964,556.3636921678456 L 499.98500940798704,558.4271116678834 L 503.7119036827519,561.8542438518583 L 505.53845085773884,568.6158469170094 L 505.31705119672966,570.7642280583326 L 504.28385281646763,571.9503964134867 L 502.4204056790884,572.439238336304 L 499.7636097469777,572.5354003171717 L 486.3689301992423,569.601930418705 L 482.2638115649919,570.2031403045551 L 478.3616425538739,572.0064946064729 L 474.5148234296693,575.2194502299843 L 468.4816826955068,583.4661824726575 L 466.3230359723282,584.7384537124971 L 463.0297159439688,584.1863610894129 L 455.8065520177127,580.5848099434437 L 455.8065520177127,579.3599076673514 L 457.4116996450461,579.3599076673514 L 456.9043253604947,577.3500150510985 L 457.3840246449116,575.796201247433 L 458.435673063044,574.6907246084153 L 459.6718211797876,573.985702004794 L 459.0998720460719,573.4008057447188 L 458.0205486278047,571.8622414159692 L 457.4116996450461,571.309246521516 L 459.9301206898399,568.4554964938247 L 461.40611850546935,567.7178423551353 L 462.83599128309396,568.6158469170094 L 463.66624004021753,567.1485187145072 L 462.83599128309396,564.4536961667694 L 464.6625384580814,564.6221495486495 L 467.40235927723984,566.531036630793 L 469.0905316782656,567.1485187145072 L 470.22520498344625,566.9320044940513 L 473.91519929581244,565.3921764508672 L 475.2897221865239,564.4536961667694 L 474.680873203765,562.5041874589821 L 474.6531982036305,560.9153419191988 L 475.1513474125624,559.7355372321733 L 476.1199709436474,559.0612836754087 L 476.1199709436474,557.7126033430039 L 472.4207515556615,555.0627373700876 L 471.41522817554034,553.6732087579575 L 470.8340540795604,551.6969247426828 L 471.2215034013099,550.3389462766979 L 472.46687659367274,549.6397771919922 L 474.5148234296693,549.6397771919922 L 476.97789458754966,554.0266382192165 L 480.7785887870983,555.7614249776947 L 490.058924624964,556.3636921678456" fill="none" stroke="#000000" stroke-width="0.8"/>
	<path d="M 483.48876651954345,442.1890441417026 L 480.32656450282224,444.0287406585968 L 478.14024289286476,446.317346902847 L 470.9263039288659,453.86256050448753 L 470.9078538909889,453.88696680152583 L 465.22526262953966,465.6013666419751 L 468.26028303449766,476.0977266549882 L 473.76759955959375,481.01229903167797 L 475.7048466217634,481.66896381717936 L 482.6789358868759,482.1634530329275 L 484.5792829866469,483.0307601619606 L 489.48697549124824,487.20384078265226 L 492.0515215740471,490.28158354492996 L 493.1677448413569,493.22860508271305 L 493.361469502232,496.6438216498819 L 493.8780687490343,499.52374915575933 L 495.48321626301214,504.8763115371404 L 493.80426882425024,506.9775284236544 L 493.1677448413569,507.5997039555916 L 487.2545288432793,511.81626980446106 L 463.4909653038577,517.394488900086 L 461.7013179779136,519.3471401724913 L 458.79544749801454,521.2025160844678 L 456.4984260008746,524.5572139064963 L 455.13312807242096,528.5874086239429 L 455.8065520177127,531.9550663946706 L 454.9486283738102,533.6625138155631 L 453.9892298049828,534.3872614002855 L 452.9837064248616,534.2262121543006 L 451.9228330444648,533.3081683411563 L 452.7623067638523,529.0547774724484 L 451.4615836845762,526.3629966183375 L 449.16456218743605,525.6213861605021 L 446.94134061507987,527.2334938102351 L 445.92659215934566,528.2005995882841 L 445.04099351530886,528.5390586592184 L 444.43214441919446,529.2320479879156 L 444.1830698714064,531.2784279846877 L 444.8011439297778,532.0919978727677 L 448.0575638823899,534.6529855835132 L 457.5685243435223,535.4823088855721 L 461.88581778987964,536.9475015957206 L 462.83599128309396,541.5345267325869 L 462.19946730020087,543.4811918617521 L 461.4799183169045,544.3015427005428 L 460.6496696731365,544.7197280371846 L 459.6718211797876,545.4675808657141 L 457.32867475799816,546.7620825434188 L 456.20322641507505,547.8071771840195 L 457.02425020994104,548.289481657353 L 461.28619365602964,557.7126033430039 L 461.1662688065832,561.4610421395457 L 459.65337114191703,563.4830133499846 L 457.32867475799816,564.3012828224923 L 454.6718788258874,564.4536961667694 L 452.9191314623287,565.1515511539708 L 449.1092123005226,568.0866780570171 L 446.5077662553253,568.6158469170094 L 442.5502473572938,566.9560618578039 L 436.4064067359491,561.1239965319365 L 432.587262611879,560.4097328683761 L 432.5134626870888,561.3486952720372 L 432.6979623857059,561.5733874044861 L 433.00238693376303,561.5653628099377 L 433.3437114442121,561.7579514142442 L 432.72563738584046,562.143114298591 L 432.3843128753847,562.6004707738996 L 431.9599635912432,563.0016387487248 L 431.11126490959845,563.2262839296807 L 431.6094141185304,566.9801193451626 L 430.7976152859283,569.2251488451593 L 429.73674201889366,571.1649805675884 L 429.48766735775,573.985702004794 L 430.31791611487336,576.1886882728313 L 431.8123637416692,577.494167845583 L 433.5282111428295,577.7023839172779 L 434.96730899606695,576.5651370992135 L 434.67210941026735,575.8442620094834 L 434.11861020106664,573.985702004794 L 435.10568377002835,573.8575092297028 L 437.9931043254057,572.5354003171717 L 438.9156029318345,573.6331669546842 L 440.52997540807644,577.245903147691 L 440.7513750690856,578.0227054765144 L 441.80302348721847,578.8074383374873 L 445.48379283732714,582.4098013662626 L 447.3472399747063,583.3941609741263 L 449.4505368109717,583.1300766498887 L 451.6460833831869,582.4418151073518 L 453.7032552948027,582.3937945453298 L 455.44677758274196,584.0663359851243 L 458.6293977239189,588.9139016080584 L 462.06109252623946,592.919294438954 L 462.06109252623946,594.1420930987217 L 452.033532818292,602.3610954640479 L 450.3822603796644,604.2528901560319 L 445.94504219721597,612.7324580548836 L 445.34541806336597,614.3507576488532 L 444.21074475818534,615.1717386555482 L 441.16649950432515,618.8531479380539 L 439.9672513499671,619.6975584709573 L 438.31597879798426,622.4213623768172 L 438.2606289110708,628.6300385498699 L 439.5336769902128,639.7139326281937 L 439.25692744228996,646.7108920553762 L 436.9968057941865,646.9411068324343 L 434.6352094478756,643.9398509207048 L 434.11861020106664,641.1757836832325 L 432.49501276256717,638.9511205016579 L 428.7865684123238,631.6371057150203 L 427.9378697306854,629.1631206184315 L 428.1039195047811,625.1044269761285 L 429.46921731987305,621.9594967916722 L 432.587262611879,617.0206260623983 L 430.29024111473905,616.5265690803386 L 428.6943185630185,615.4427232461444 L 428.297644165656,613.4419996269013 L 429.48766735775,610.2126717153782 L 428.1961693540866,609.4470078030959 L 427.49507040866695,608.4419612979226 L 426.3880721036208,606.192107791011 L 421.12983012631304,600.7004128259356 L 420.71470580442906,599.798068470212 L 420.20733151987787,598.1608086924306 L 419.9674819343535,596.5871221610769 L 420.1058567083149,595.540486699895 L 420.0781817081804,594.485721459969 L 419.3586328382393,592.919294438954 L 417.3844859270268,590.6410268316456 L 415.63173856347447,589.2497610712156 L 414.3955904467245,587.3063758235668 L 413.93434120019117,583.3941609741263 L 413.9066662000569,579.7922477193331 L 413.5284417272094,577.0136484108057 L 412.38454357312656,575.0752558324697 L 410.05984707585213,573.985702004794 L 410.05984707585213,572.5354003171717 L 414.40481540898867,569.0808447309861 L 415.4841388272558,568.6158469170094 L 417.10773626574866,569.2171320411525 L 419.30328295132585,571.9183402364614 L 420.5486560303332,572.5354003171717 L 421.77557918481926,571.7660712210256 L 424.35857519213954,569.0006746586163 L 424.8382744765564,569.2892831806288 L 425.5762733843679,570.3794864355443 L 427.18142089834595,569.4816828580928 L 429.48766735775,567.1485187145072 L 429.48766735775,565.9215263131043 L 428.297644165656,564.3815007293263 L 426.1666724426117,558.3628888323858 L 424.8382744765564,556.3636921678456 L 417.227661115195,552.741364344925 L 415.0690143920165,552.3236050546415 L 414.4601654092574,551.9058237894959 L 412.9564927068426,550.049642409729 L 412.02476913815605,549.6397771919922 L 404.85695509881316,549.2218532455753 L 402.71675830014965,548.0483331155616 L 400.87176120064714,546.3118453560026 L 399.22971372427094,544.1165691485453 L 405.3182043453469,545.4193343709568 L 417.292235964366,550.9898409023031 L 423.2146769247014,552.3236050546415 L 420.7054808421651,547.7428676479815 L 413.6852665390476,542.4757431434338 L 410.76094602127176,537.4948661724671 L 420.5486560303332,535.691638900916 L 421.1851800132265,534.8945451048976 L 420.88998054078223,533.3081683411563 L 418.44535930742336,531.262316878968 L 411.9970941380218,531.7456368768529 L 410.05984707585213,529.1434132298943 L 411.73879451461426,527.354388441168 L 412.6981930834414,525.0328844154917 L 412.5136933848241,522.7590804414533 L 410.76094602127176,521.1379885918263 L 408.2056249007304,521.1863843105425 L 406.2960528386955,522.9123006822574 L 404.6632303245832,525.1054418095737 L 403.03040781047065,526.5564488369594 L 401.535960183675,526.427481220291 L 397.3570415112786,524.5088389442549 L 388.83315461910155,522.3719844296116 L 386.77598270748575,521.1379885918263 L 385.22618508042115,521.9606740827901 L 377.3849470957931,518.4434940475402 L 375.9273993180342,518.7985103355348 L 372.827804063905,520.5733507711412 L 371.2318815121911,521.1379885918263 L 363.4183185276911,521.1379885918263 L 363.4183185276911,522.4929538703517 L 365.74301491161003,523.8476857366014 L 361.822395975977,523.7025470506065 L 358.99955026977057,522.6703726519568 L 357.22835298169684,519.8553952950491 L 356.4534542248423,514.3757999629894 L 358.10472666346965,515.5947149446642 L 359.7744491399804,515.6673595544074 L 361.15819699294934,514.3919457291266 L 361.8685209006265,511.66283297283 L 360.70617270866694,512.5511097937987 L 359.49769947870226,512.9790619894464 L 356.8409035465918,513.1324731057626 L 356.48112911162127,512.0504570727271 L 356.79477862193585,507.2118600591895 L 356.06600478973724,506.12094637174243 L 354.02728291599846,504.88439419750404 L 347.79119244534826,499.1355059689613 L 346.7395440272156,497.29108839674734 L 347.77274240747124,496.8056433428566 L 349.41478999719686,496.61145699029396 L 350.752412925516,495.93176650578715 L 350.96458762426124,493.90852980656797 L 350.07898898022427,492.9210007402982 L 348.45539142837583,492.4514761379408 L 346.7118691404366,492.36242522519467 L 345.5495208351217,492.5486214170687 L 344.76539711600304,493.6252349508188 L 344.24879786920076,495.30057268071033 L 343.41854911207724,496.61145699029396 L 341.675026824138,496.61145699029396 L 340.9647029164544,495.721374140432 L 339.35955528912103,491.3018316695096 L 339.35955528912103,489.82809728384245 L 342.40380065633656,490.1358229493479 L 344.02739820819164,489.9819616259272 L 345.16207151337227,489.1478189194488 L 346.1583699312359,487.84378675020076 L 347.45909289715667,486.77448054268916 L 348.8797407125174,486.02101811539353 L 350.1896887540512,485.7536431838712 L 352.57896010050325,484.6759483689914 L 353.69518336780686,482.2931497919371 L 353.5752586317224,479.909626894137 L 352.1915106653982,478.8230187358624 L 352.63430998741643,476.8034735631601 L 351.68413649420233,472.31643643671987 L 349.41478999719686,465.2114396863151 L 347.99414206848064,462.7251987838753 L 346.5458193663407,461.04288230832384 L 344.78384704052473,460.0837186491686 L 342.4499255809925,459.75042251244395 L 340.4296537451307,461.20544073366653 L 339.1381556281119,461.5955672242244 L 338.58465653226654,460.4901583739609 L 338.79683123101836,457.79913571833583 L 339.4518052517818,456.34348436895175 L 340.5403535189576,455.7741614047787 L 342.062476259243,455.6521583814894 L 345.0513716261898,454.529640165003 L 346.2413948182836,451.64940073382286 L 345.9277453079626,447.88884882634454 L 344.38717264316216,444.05317765196577 L 339.37800532699805,437.7132752640652 L 333.86146372628275,434.40274914716457 L 321.47230778538557,431.0581834868056 L 321.47230778538557,429.556742334844 L 339.35955528912103,431.0581834868056 L 337.46843326496287,427.68769782062094 L 330.39286907492544,424.6097378015464 L 327.67149829364377,422.83752368654564 L 326.4999250260647,420.8851727896625 L 325.81727611852205,419.36543235552745 L 324.9040024743508,418.17231060962285 L 323.0221054124502,417.2242208889685 L 317.1088894143723,416.7828294288275 L 315.3007921639065,415.7282935417023 L 315.3007921639065,414.47738016568485 L 333.16036478086306,417.2242208889685 L 336.8595841688487,416.58664757202087 L 343.94437332114364,413.7578098265006 L 347.86499237013226,413.1199531931986 L 347.86499237013226,414.47738016568485 L 346.6103942155117,414.2974936471004 L 345.4111460611603,414.379260888092 L 344.24879786920076,414.82078802818506 L 343.2248244512026,415.7282935417023 L 345.00524670153385,419.23468810847896 L 347.9387921815672,421.97985639838 L 351.250562134448,422.9927105654324 L 354.12875772756763,421.34267119649667 L 349.41478999719686,417.2242208889685 L 350.96458762426124,415.7282935417023 L 352.0254610046578,416.8155260597313 L 353.916583028816,417.2896101169825 L 358.0032518519069,417.2242208889685 L 359.83902398915137,416.4885545944796 L 363.69506807561345,413.71692305886086 L 367.57878716221666,412.8337187430163 L 369.3407594880265,411.85226326215064 L 370.67838241634564,409.9789767420214 L 371.2318815121911,406.99224113699853 L 371.3518063616308,405.4206775189626 L 371.88685553295477,402.64511262079475 L 371.99755542013696,401.36752976547086 L 371.5916559471616,399.7702569509382 L 369.61750903594907,396.87795132118583 L 368.9071851282719,395.2469718951426 L 371.7946056836493,397.1729664914248 L 374.58055142746366,397.64824515283607 L 377.2188973216974,396.52555742140805 L 379.67274363067577,393.7468254665569 L 383.54723764165954,394.59940313518354 L 386.6837328581805,389.12160719798106 L 387.28335699203717,381.14404137030806 L 383.52878771713785,374.46517025865757 L 380.2446927643915,373.08432055146665 L 372.9754039134856,372.5499974584629 L 363.93491766114425,369.1130133013452 L 361.3703716916946,366.867465137072 L 360.3187232735619,363.30451635990573 L 374.8204010129878,370.2972174160908 L 377.80929649329016,369.58178210500495 L 395.28141967514784,372.3444787544697 L 397.3570415112786,374.31723374680024 L 402.06178439274123,374.0460096463402 L 410.05984707585213,371.5799020022132 L 414.1834157479795,369.03077002402216 L 416.508112245254,368.57019287295554 L 417.80883521117494,370.32188635740937 L 417.31068600224273,372.3444787544697 L 414.1280658610658,376.1908884219907 L 413.15944232998135,378.6062519002652 L 414.4878402960366,380.71702791431443 L 413.74984138821856,382.0554728605347 L 411.9232942132314,382.35104919356223 L 410.05984707585213,381.3657507490398 L 410.29969677473184,380.62669495623794 L 410.76094602127176,378.6062519002652 L 407.15397659595334,378.80339127039855 L 405.6872037425811,379.60011246744233 L 404.580205437535,381.3657507490398 L 410.19822184981354,391.26234173104893 L 412.34764361072814,396.77961051865543 L 410.76094602127176,400.75323270433535 L 409.035873657854,401.0562919766833 L 405.502704043964,400.0897376759747 L 403.8053066806805,400.75323270433535 L 401.72968484454964,403.75054438349065 L 400.40128687849443,404.85581956974016 L 398.30721511784213,404.8803796011702 L 398.30721511784213,406.37838692676144 L 400.17988721748503,406.98405675054715 L 405.77022862962906,406.37838692676144 L 407.2923513699145,405.6908126521011 L 409.0819985825035,404.2909207315359 L 411.0745955315864,403.2346958232559 L 413.15944232998135,403.4967183916139 L 413.9158911623142,405.10141499743844 L 415.0966893921508,408.4080144569127 L 415.9822880361875,411.6477779817398 L 415.8715881490053,413.1199531931986 L 406.75730219858434,414.77173080161697 L 404.7462552116309,415.6056637486755 L 403.9160064545076,416.8645704480702 L 405.3551043077451,418.47469436283717 L 406.9879268218574,418.7198617355776 L 412.0801190250695,418.3275902047184 L 413.15944232998135,417.84539614901547 L 414.01736608723917,416.83187422339876 L 415.90848811139733,418.76889416609396 L 418.65753389281326,422.83752368654564 L 419.4693327254218,425.4834464983493 L 419.3955328006313,426.4713546315663 L 418.73133381760374,427.68769782062094 L 417.80883521117494,431.0581834868056 L 419.8291071603923,429.1568533976426 L 421.29587990040875,427.2550605977387 L 426.0282976686503,416.8563964047387 L 426.26619568279403,416.6050578826189 L 426.40610704599067,416.62572073331506 L 430.69992285546306,416.30389130544 L 432.08823703781826,415.65500182618194 L 432.28740453821473,415.1410430967617 L 432.4631404900185,414.9022223543753 L 434.2556474838599,415.4421542401824 L 439.672051764174,418.7607221157207 L 438.84180300705043,422.0778804322909 L 438.03000428779774,424.38108759508606 L 434.0448103896318,428.25090671563896 L 432.587262611879,431.0581834868056 L 434.88428410901895,431.5640390296449 L 438.14070406162466,430.0626950664576 L 440.7513750690856,427.29587635879085 L 441.09269957953467,424.08709889614266 L 442.90079683000044,423.32757714843797 L 444.76424396738605,423.9237671053066 L 446.3878415192345,425.6304159611842 L 447.3472399747063,428.18560937677734 L 443.82329543643584,426.97750696580437 L 443.35282111428285,427.4428117345047 L 444.06314502196,429.2792706458274 L 445.7882173853845,430.6746905923014 L 449.6073615094543,432.2901290657846 L 450.60366004067373,428.0876619442027 L 453.20510608587074,421.71028446422906 L 453.5464304829643,417.2242208889685 L 451.3955453358456,407.2041367095967 L 451.4191949984191,407.20413254925774 L 455.5724219241174,407.2249203256079 L 459.9541058114354,411.4956370962761 L 461.79933361119913,413.30816717477313 L 470.02963531196184,414.77761746959004 L 468.4655851777967,416.2727459522478 L 468.6588946636117,417.3627633848034 L 468.9049250573057,417.8713861963927 L 469.16852908695506,418.34883862953035 L 469.57272189843485,418.805504965552 L 471.7577058784878,420.1442135065758 L 472.0213098061933,420.61115104961704 L 471.6698378006422,421.5034427950723 L 467.2178596753278,424.77085040045307 L 464.6111092478331,425.8026522651006 L 460.67462335654915,428.96979601718954 L 461.53572958154973,430.223858293212 L 461.6235976593954,430.59692895692945 L 461.7114655333535,431.05287994898816 L 461.6587448293687,431.5450698403193 L 461.48300887756494,432.1511979758052 L 461.3424199937906,432.9489361100621 L 461.20183131390405,434.34737149733905 L 461.4127144356811,435.4141574132934 L 461.9399222910921,436.2892277087371 L 462.06293753890463,438.66022734930914 L 465.5659414633166,440.24911953922606 L 467.7274939967209,440.1249180166041 L 469.95934097201547,438.78962798637315 L 471.33593953299646,439.8351070320059 L 474.65734959296765,439.3072094810335 L 478.6699877368291,439.7937046116733 L 483.47929578033194,442.1843369658513 L 483.48876651954345,442.1890441417026" fill="none" stroke="#000000" stroke-width="0.8"/>
	<path d="M 800.0,536.0136740762885 L 799.4649508286697,536.9958000782336 L 799.2251012431452,537.6719467014021 L 798.9760265820016,538.203163971362 L 798.4502023729352,538.7182493295184 L 799.2804511300585,541.6149769759282 L 799.5848756781157,543.4490193774162 L 799.2435511676603,545.1298495849546 L 798.0627530511857,547.5499360841125 L 795.6273567800844,551.5442642788148 L 794.9262578346583,553.5125538111284 L 795.350607118806,555.1510805796161 L 795.350607118806,556.3636921678456 L 795.6770805509129,558.7164515166971 L 793.8759600607314,560.7821252078924 L 792.6667485390508,562.4800334786041 L 791.0775215098345,563.9736805142715 L 785.522776572237,562.4552040458177 L 780.8985037461765,562.1250773130678 L 774.5953487747631,559.624497657668 L 766.8124462638755,554.7832995608472 L 757.9962604686142,552.2362576225371 L 748.7828784954356,544.7197280371846 L 747.0392045363294,542.3145255303464 L 748.4983377198658,538.1011083621725 L 748.995053194187,529.779950122606 L 749.483977440855,517.701135702964 L 749.8806518382239,515.683502665703 L 750.8216003691745,513.5119506988011 L 753.0355969792664,509.56286984786317 L 753.9488705100823,506.60581557155433 L 754.7422193048072,503.1868484721689 L 755.7385178360264,501.10078954181864 L 757.2883154630911,502.1681448158978 L 761.8639084195006,508.8196713366693 L 763.4506060089573,510.54830696433845 L 765.9980455566218,513.2285400547838 L 770.2586456133296,516.200066097867 L 774.5425161984498,519.6552269097289 L 777.6660959010267,518.9700507633893 L 779.8249559613819,519.5891705504973 L 781.6791781365033,523.5735325907572 L 782.8968762153766,525.0812561520237 L 784.2990741062158,525.992200235939 L 792.4238188272744,531.783592002359 L 797.7583285031284,533.5900353630595 L 800.0,536.0136740762885" fill="none" stroke="#000000" stroke-width="0.8"/>
	<path d="M 512.5678901231205,425.4426212684006 L 519.1545300664835,442.0001987888055 L 519.2375549535315,442.8556721744276 L 515.2523610553656,447.4573280251463 L 513.5272886919413,447.9865485182692 L 511.43321693129525,449.2565314972178 L 509.5236447559048,450.8437203823627 L 508.28749663915477,452.3085322148606 L 505.83365044353195,453.01642628104577 L 503.3982541724306,449.2483912576822 L 501.7746566205822,443.7599280916245 L 501.73775677153907,439.26205495078597 L 502.96467981267625,436.7186340770193 L 504.4314525526927,435.0225602311746 L 505.8890003304454,433.701324708903 L 507.08824848480344,432.2901290657846 L 508.3059466770317,429.7934016672838 L 510.2247437013244,424.7975525148597 L 511.73764136599704,422.83752368654564 L 512.2081156881497,424.03809983785794 L 512.3833904245032,424.57707398204576 L 512.5678901231205,425.4426212684006" fill="none" stroke="#000000" stroke-width="0.8"/>
	<path d="M 426.26619568279403,416.6050578826189 L 426.3880721036208,416.47220571206094 L 426.1389974424772,415.0333663846 L 425.0873491377001,412.48204464478096 L 424.8382744765564,411.7295727768335 L 425.198048911527,409.4226304410648 L 426.0744225932998,406.5257164049373 L 427.9378697306854,402.0063473421638 L 429.6260421317112,400.21261128597433 L 433.6389110300117,399.05752201453424 L 435.66840782813125,397.87767968068 L 437.5134050409952,392.18899094150356 L 435.1887086570763,385.60985794129596 L 432.5134626870888,379.69045732629905 L 433.3437114442121,375.8457754499112 L 435.373208355687,376.01833384687365 L 439.3676272161169,380.273565934254 L 441.4801490146397,381.3657507490398 L 442.56869728180885,382.24431460544184 L 442.5317973194171,384.2720232878196 L 442.07054807287716,386.5371789655019 L 441.8675983363892,388.11255143500347 L 442.35652269641895,390.66365153862847 L 442.79009694281825,391.58217133245415 L 443.32514611414837,392.1971908640627 L 444.1830698714064,393.7468254665569 L 446.31404159445066,399.6227998648769 L 448.3250884680486,407.9252073531895 L 448.6571880162402,415.7037676166092 L 445.7328674984708,419.97009577922995 L 441.6369737131226,418.4828667125042 L 439.672051764174,418.7607221157207 L 434.2556474838599,415.4421542401824 L 432.4631404900185,414.9022223543753 L 432.28740453821473,415.1410430967617 L 432.08823703781826,415.65500182618194 L 430.69992285546306,416.30389130544 L 426.40610704599067,416.62572073331506 L 426.26619568279403,416.6050578826189" fill="none" stroke="#000000" stroke-width="0.8"/>
	<path d="M 451.3955453358456,407.2041367095967 L 448.8324627525997,395.2469718951426 L 448.8324627525997,388.11255143500347 L 448.4173383173605,385.23233272589715 L 445.7328674984708,374.46517025865757 L 443.97089517265454,371.6538966070423 L 441.9137233744007,370.57679478203903 L 439.4506521031648,370.724802349099 L 430.7883903236708,374.27613988492135 L 427.5227454088014,374.867871996591 L 425.613173233411,373.08432055146665 L 427.53197037105895,368.1260388684819 L 433.39906133112555,363.09052290220717 L 444.1830698714064,356.3961443748192 L 461.5168182792963,341.6036384118892 L 470.5573044182823,336.5261460728318 L 480.0036900302437,336.8977822301854 L 489.8006250015629,342.5527203315221 L 497.8724876094642,342.5527203315221 L 500.05880933277746,343.7409726371683 L 504.02555319306646,347.34587712232667 L 507.3926730328605,348.78902037563216 L 513.2689890685402,353.75138990423267 L 511.73764136599704,356.93981408205696 L 507.08824848480344,363.30451635990573 L 505.4277510839119,366.7193842412079 L 502.34660575429797,374.761034854711 L 500.8890579765455,377.10289941193145 L 500.8890579765455,378.6062519002652 L 504.0163282308087,383.1638268694521 L 505.6214757447868,386.2663798470616 L 506.3133497279489,388.8755081122526 L 506.8299489747512,392.6645734068273 L 508.06609697814565,397.0910189746185 L 509.6158946052095,401.0562919766833 L 511.03654253392625,403.4967183916139 L 510.556843249516,405.4616077649013 L 510.3169935506299,408.14615673436106 L 510.18784373893243,412.41661534475946 L 509.54209479377533,415.88362174113 L 509.4129449820779,417.2242208889685 L 509.5605447182968,418.1886559332622 L 509.96644407792326,419.21834497391603 L 511.03654253392625,421.34267119649667 L 508.65649614973836,424.4545830412742 L 504.09935311785665,433.31796148085215 L 499.8189596338911,436.2946500108094 L 499.0809608394286,438.7485461348325 L 497.9924124589039,441.13648312795857 L 495.48321626301214,442.0001987888055 L 493.6197691256331,441.33204964689975 L 492.2821461973202,440.2237741655887 L 490.7969234194268,439.33541060019695 L 488.51835196016356,439.26205495078597 L 483.48876651954345,442.1890441417026 L 483.47929578033194,442.1843369658513 L 478.6699877368291,439.7937046116733 L 474.65734959296765,439.3072094810335 L 471.33593953299646,439.8351070320059 L 469.95934097201547,438.78962798637315 L 467.7274939967209,440.1249180166041 L 465.5659414633166,440.24911953922606 L 462.06293753890463,438.66022734930914 L 461.9399222910921,436.2892277087371 L 461.4127144356811,435.4141574132934 L 461.20183131390405,434.34737149733905 L 461.3424199937906,432.9489361100621 L 461.48300887756494,432.1511979758052 L 461.6587448293687,431.5450698403193 L 461.7114655333535,431.05287994898816 L 461.6235976593954,430.59692895692945 L 461.53572958154973,430.223858293212 L 460.67462335654915,428.96979601718954 L 464.6111092478331,425.8026522651006 L 467.2178596753278,424.77085040045307 L 471.6698378006422,421.5034427950723 L 472.0213098061933,420.61115104961704 L 471.7577058784878,420.1442135065758 L 469.57272189843485,418.805504965552 L 469.16852908695506,418.34883862953035 L 468.9049250573057,417.8713861963927 L 468.6588946636117,417.3627633848034 L 468.4655851777967,416.2727459522478 L 470.02963531196184,414.77761746959004 L 461.79933361119913,413.30816717477313 L 459.9541058114354,411.4956370962761 L 455.5724219241174,407.2249203256079 L 451.4191949984191,407.20413254925774 L 451.3955453358456,407.2041367095967" fill="none" stroke="#000000" stroke-width="0.8"/>
</svg>
