<?xml version="1.0" ?>
<svg xmlns="http://www.w3.org/2000/svg" xmlns:ev="http://www.w3.org/2001/xml-events" xmlns:xlink="http://www.w3.org/1999/xlink" baseProfile="full" height="600px" version="1.1" viewBox="-80.74335161283082 -149.41367417899383 961.4867032256616 1785.5305740196177" width="324px">
	<defs/>
	<path d="M 783.9728329802639,1036.737508568657 L 785.0594209708119,1064.1689293811999 L 775.2801357314884,1199.4911161307518 L 706.6893026228995,1320.237805450118 L 682.6485571004833,1338.8446864524153 L 666.3497439177045,1343.0416639147068 L 653.3106947066253,1342.062371151121 L 619.3548375251552,1346.539121703019 L 590.9677400402958,1339.8239836295857 L 569.9151089883554,1343.7411554675575 L 551.8505924071422,1360.2489984698109 L 534.7368407348438,1405.014115388301 L 488.14940692512374,1425.2973845196138 L 477.2835303573504,1450.4758160960428 L 475.7894731220148,1452.7138536437085 L 444.84346437305294,1342.3512591381543 L 441.65229152972705,1307.9709844423537 L 488.22614671817337,1237.3396344995763 L 521.4315795926268,1210.6844780116344 L 552.3083222592461,1194.513197351033 L 565.6767415713475,1185.1834414810216 L 575.2502570994338,1175.8535664291132 L 616.217997671202,1107.6973415567693 L 616.7354860516847,1102.5431491972724 L 615.1830239119048,1100.588101152731 L 603.194566610271,1091.7903199481013 L 630.017656799964,1067.9735536949865 L 642.6960966077775,1061.397142226128 L 783.9728329802639,1036.737508568657" fill="none" stroke="#000000" stroke-width="1.4867032256616302"/>
	<path d="M 735.3480462708854,426.81345943429596 L 740.2376905594982,434.09757556035294 L 771.8845486782113,555.2549945478237 L 777.4533083747663,681.4326280565479 L 754.3633277612928,777.9061758534825 L 769.5755496154264,783.3665483430864 L 783.4295406538989,794.8471959395478 L 799.9999999999999,801.4274790579689 L 779.083192029581,927.0012125161185 L 783.9728329802639,1036.737508568657 L 642.6960966077775,1061.397142226128 L 630.017656799964,1067.9735536949865 L 603.194566610271,1091.7903199481013 L 608.3694414102606,1071.7949536360077 L 608.5419385376534,1068.0624244139253 L 607.8519530295824,1061.4860106744484 L 606.2994908898027,1055.7982559842599 L 603.6258064271549,1048.8662455883882 L 603.0220724845741,1046.2889391238643 L 602.8495753571532,1043.8893708032372 L 604.2295433714316,1038.2014751663348 L 593.1035657033981,1028.0697959577756 L 538.5949086923309,992.5189025891898 L 539.0261455071279,847.1860757011129 L 515.2217340352594,788.0666308223894 L 572.6628212003848,650.6948401193097 L 635.8825141061332,590.7585670975106 L 651.1483868108808,580.0868874851961 L 652.44210926348,580.8872693765059 L 653.9083198375182,581.4208547351179 L 655.0295421603862,581.8655109550441 L 655.9782673560568,581.6876503580365 L 658.393209129437,581.1540590109801 L 659.6869285799212,581.2429940255461 L 661.9293732258526,581.6876503580365 L 663.050595548944,581.6876503580365 L 665.379288758502,580.3536774230068 L 668.2254673470142,577.8635979593354 L 673.9178275255671,571.6383561221553 L 682.3701207307854,564.4347947853771 L 683.6638401812696,563.9011934554039 L 684.7850625041376,563.6343941864576 L 690.2186769916709,563.5454600423782 L 691.7711391314787,563.2786606385893 L 693.5823439605261,562.7450584320695 L 695.4797973533679,561.6778559004869 L 698.9297128862128,558.8319714757345 L 711.0044157495538,546.4700323603938 L 713.0743632680644,544.869189383327 L 714.3680827185487,544.3355732164255 L 715.230562352149,537.6653540040116 L 712.8156205787689,467.75762044279315 L 711.521904130204,462.86559907380035 L 716.9555186175978,450.14617850018186 L 735.3480462708854,426.81345943429596" fill="none" stroke="#000000" stroke-width="1.4867032256616302"/>
	<path d="M 132.54522905940377,2.619274900941073 L 172.4957575523783,4.204949804937963 L 210.2546676937879,18.50158862627455 L 251.0016989818121,49.196327629049236 L 304.9235992244512,128.239572965031 L 348.115449318852,156.6873441351804 L 397.8268240187504,130.62194391928767 L 439.25297071468896,122.49382417446039 L 604.9575541602898,188.0766433003458 L 610.9337864396738,211.47757262417122 L 632.1222405731635,264.0217119372017 L 665.263155926961,319.9243438266086 L 683.8709681725527,352.84736856652916 L 735.3480462708854,426.81345943429596 L 716.9555186175978,450.14617850018186 L 711.521904130204,462.86559907380035 L 712.8156205787689,467.75762044279315 L 715.230562352149,537.6653540040116 L 714.3680827185487,544.3355732164255 L 713.0743632680644,544.869189383327 L 711.0044157495538,546.4700323603938 L 698.9297128862128,558.8319714757345 L 695.4797973533679,561.6778559004869 L 693.5823439605261,562.7450584320695 L 691.7711391314787,563.2786606385893 L 690.2186769916709,563.5454600423782 L 684.7850625041376,563.6343941864576 L 683.6638401812696,563.9011934554039 L 682.3701207307854,564.4347947853771 L 673.9178275255671,571.6383561221553 L 668.2254673470142,577.8635979593354 L 665.379288758502,580.3536774230068 L 663.050595548944,581.6876503580365 L 661.9293732258526,581.6876503580365 L 659.6869285799212,581.2429940255461 L 658.393209129437,581.1540590109801 L 655.9782673560568,581.6876503580365 L 655.0295421603862,581.8655109550441 L 653.9083198375182,581.4208547351179 L 652.44210926348,580.8872693765059 L 651.1483868108808,580.0868874851961 L 635.8825141061332,590.7585670975106 L 572.6628212003848,650.6948401193097 L 554.2920242159099,604.3647262119977 L 503.40577386124176,563.3675917208891 L 483.8275059899093,552.6065613007222 L 470.89032649469175,547.0925831432261 L 460.79932258589946,546.0253537771746 L 450.19083329857193,543.8019597400992 L 438.0298818714087,539.6219559657277 L 403.2719868570079,524.3247165403626 L 399.13209182015424,523.4353341888159 L 395.50967915988855,524.1468413981668 L 381.7962655929734,531.0840067068403 L 368.34159771732914,535.3529927422597 L 348.6770812821466,537.3985416912487 L 332.63497750745324,530.2835681667774 L 320.64652020576347,522.5459476170959 L 277.8675748049757,480.03200184583517 L 271.053992303499,450.59091773938195 L 262.9466903513705,382.98738810944315 L 258.63429818690054,365.9965303678455 L 236.81358566958082,348.0266919680177 L 233.8811585176654,327.7433509174451 L 235.86486047413368,228.00838089036048 L 232.67368763080776,190.726451566809 L 231.12122549102796,190.10358435193643 L 228.62003515385362,186.36638179676027 L 227.67130995840645,185.74351379376307 L 226.55008463339567,185.2986064104282 L 225.51511387607377,185.0316630833354 L 224.30764298938368,185.20962428028508 L 223.18642066651572,185.3875885292751 L 221.72020408841516,185.74351379376307 L 218.61527980888343,185.56554963563158 L 216.804077981532,185.2986064104282 L 210.85297211179204,182.7181386212906 L 209.55925566322722,181.8283228165969 L 208.26553621274294,180.49359234000383 L 206.7130740729631,177.3792144123175 L 205.85059443919525,175.95549522757585 L 193.77589457780147,171.15041691935272 L 171.26519955427432,148.72628740685312 L 162.29541796860133,133.4205170952292 L 132.54522905940377,2.619274900941073" fill="none" stroke="#000000" stroke-width="1.4867032256616302"/>
	<path d="M 16.421125937768878,359.0925164826879 L 13.582344875373842,356.48982178672503 L 0.0,337.9971753512333 L 0.13582308152142225,305.7739753808932 L 16.434636264328226,283.3569610019131 L 72.25806632513215,244.12546125950325 L 89.3718179974026,209.65596944360843 L 66.28183404580395,205.1720095589216 L 25.80645225900369,190.45881021759936 L 0.13582308152142225,188.0766433003458 L 27.70797873901531,147.57857704367993 L 66.55348020909813,0.0 L 132.54522905940377,2.619274900941073 L 162.29541796860133,133.4205170952292 L 171.26519955427432,148.72628740685312 L 193.77589457780147,171.15041691935272 L 205.85059443919525,175.95549522757585 L 206.7130740729631,177.3792144123175 L 208.26553621274294,180.49359234000383 L 209.55925566322722,181.8283228165969 L 210.85297211179204,182.7181386212906 L 216.804077981532,185.2986064104282 L 218.61527980888343,185.56554963563158 L 221.72020408841516,185.74351379376307 L 223.18642066651572,185.3875885292751 L 224.30764298938368,185.20962428028508 L 225.51511387607377,185.0316630833354 L 226.55008463339567,185.2986064104282 L 227.67130995840645,185.74351379376307 L 228.62003515385362,186.36638179676027 L 231.12122549102796,190.10358435193643 L 232.67368763080776,190.726451566809 L 235.86486047413368,228.00838089036048 L 233.8811585176654,327.7433509174451 L 236.81358566958082,348.0266919680177 L 258.63429818690054,365.9965303678455 L 262.9466903513705,382.98738810944315 L 271.053992303499,450.59091773938195 L 85.7935483108743,351.4961517224757 L 84.58607742401666,352.02991442869967 L 82.42988434379889,352.2967940811643 L 79.84244844477773,352.1188753560868 L 65.61154649718445,349.3610999306145 L 64.14533292119881,349.45006119669983 L 46.72326413409058,344.91305628570996 L 43.96333110748104,344.55721194636567 L 40.85840682794932,345.0909830322243 L 38.78845930938287,345.0909830322243 L 31.371139863461785,343.31175378819324 L 28.783703964412698,344.8240975399744 L 27.40373595013425,345.9805913161535 L 16.421125937768878,359.0925164826879" fill="none" stroke="#000000" stroke-width="1.4867032256616302"/>
	<path d="M 112.13081025968624,576.8422528105147 L 96.4346349291256,554.2746161727786 L 77.9626491032364,543.0701638946998 L 56.23089930545196,525.0026139196754 L 48.89643621043479,483.40346292180544 L 45.77249532022853,399.77751639609625 L 31.918507619713687,373.30089279903024 L 16.421125937768878,359.0925164826879 L 27.40373595013425,345.9805913161535 L 28.783703964412698,344.8240975399744 L 31.371139863461785,343.31175378819324 L 38.78845930938287,345.0909830322243 L 40.85840682794932,345.0909830322243 L 43.96333110748104,344.55721194636567 L 46.72326413409058,344.91305628570996 L 64.14533292119881,349.45006119669983 L 65.61154649718445,349.3610999306145 L 79.84244844477773,352.1188753560868 L 82.42988434379889,352.2967940811643 L 84.58607742401666,352.02991442869967 L 85.7935483108743,351.4961517224757 L 271.053992303499,450.59091773938195 L 277.8675748049757,480.03200184583517 L 217.23531779847178,488.21480263908995 L 194.46587708375756,499.1546998389388 L 189.7222421006518,505.2027032033305 L 186.44482369542322,510.8948945006175 L 166.09032475428464,531.4397565327225 L 112.13081025968624,576.8422528105147" fill="none" stroke="#000000" stroke-width="1.4867032256616302"/>
	<path d="M 243.38835824840046,839.0287388325154 L 236.46859253539733,784.6266285748114 L 226.01018855039732,754.3840861613867 L 149.26995051920238,678.3519792134472 L 137.04583979761483,649.7853132027351 L 130.6621382736665,617.0162380868404 L 115.7215625826037,582.0048606292648 L 112.13081025968624,576.8422528105147 L 166.09032475428464,531.4397565327225 L 186.44482369542322,510.8948945006175 L 189.7222421006518,505.2027032033305 L 194.46587708375756,499.1546998389388 L 217.23531779847178,488.21480263908995 L 277.8675748049757,480.03200184583517 L 320.64652020576347,522.5459476170959 L 332.63497750745324,530.2835681667774 L 348.6770812821466,537.3985416912487 L 368.34159771732914,535.3529927422597 L 381.7962655929734,531.0840067068403 L 395.50967915988855,524.1468413981668 L 399.13209182015424,523.4353341888159 L 403.2719868570079,524.3247165403626 L 438.0298818714087,539.6219559657277 L 450.19083329857193,543.8019597400992 L 460.79932258589946,546.0253537771746 L 470.89032649469175,547.0925831432261 L 483.8275059899093,552.6065613007222 L 503.40577386124176,563.3675917208891 L 554.2920242159099,604.3647262119977 L 572.6628212003848,650.6948401193097 L 515.2217340352594,788.0666308223894 L 403.53073254839046,840.4298201516642 L 393.1809859503305,841.7632953684641 L 378.6913413132741,839.7186288347809 L 321.6814969669801,826.0281084349091 L 280.541259267791,827.0949080559984 L 243.38835824840046,839.0287388325154" fill="none" stroke="#000000" stroke-width="1.4867032256616302"/>
	<path d="M 318.18634738600593,1102.4515934186313 L 313.48047672969096,1035.3379179379062 L 298.2682515373763,973.1933027722357 L 251.0016989818121,871.986701172938 L 244.4821743762865,847.62776622947 L 243.38835824840046,839.0287388325154 L 280.541259267791,827.0949080559984 L 321.6814969669801,826.0281084349091 L 378.6913413132741,839.7186288347809 L 393.1809859503305,841.7632953684641 L 403.53073254839046,840.4298201516642 L 515.2217340352594,788.0666308223894 L 539.0261455071279,847.1860757011129 L 538.5949086923309,992.5189025891898 L 400.9432936474498,1063.4411694062585 L 399.908322890128,1065.9295395575973 L 399.39083150747456,1067.173722910931 L 398.78709756511716,1068.5956454005468 L 391.36978112105965,1092.856725907136 L 388.2648568415279,1098.18871932859 L 383.3487277327812,1102.5431491972724 L 380.76129183373206,1103.2540769564146 L 378.43259862397855,1103.7872684427489 L 377.05263060986766,1103.6095390228263 L 375.5864200356339,1103.165210638752 L 374.1202064596762,1103.0763412170986 L 372.3952501942274,1103.165210638752 L 366.01290450754766,1104.8536564017936 L 364.0292055528033,1105.0313855108466 L 358.07809968284,1104.6759210624325 L 357.0431259235707,1104.7647902843212 L 318.18634738600593,1102.4515934186313" fill="none" stroke="#000000" stroke-width="1.4867032256616302"/>
	<path d="M 386.3492405204895,1285.4515777961653 L 386.0101858799641,1264.5541543411207 L 387.6400695348068,1249.8630192544513 L 369.30390345231376,1210.8251037762714 L 327.06281826693953,1161.849783521302 L 319.456705670866,1120.5679648556147 L 318.18634738600593,1102.4515934186313 L 357.0431259235707,1104.7647902843212 L 358.07809968284,1104.6759210624325 L 364.0292055528033,1105.0313855108466 L 366.01290450754766,1104.8536564017936 L 372.3952501942274,1103.165210638752 L 374.1202064596762,1103.0763412170986 L 375.5864200356339,1103.165210638752 L 377.05263060986766,1103.6095390228263 L 378.43259862397855,1103.7872684427489 L 380.76129183373206,1103.2540769564146 L 383.3487277327812,1102.5431491972724 L 388.2648568415279,1098.18871932859 L 391.36978112105965,1092.856725907136 L 398.78709756511716,1068.5956454005468 L 399.39083150747456,1067.173722910931 L 399.908322890128,1065.9295395575973 L 400.9432936474498,1063.4411694062585 L 538.5949086923309,992.5189025891898 L 593.1035657033981,1028.0697959577756 L 604.2295433714316,1038.2014751663348 L 602.8495753571532,1043.8893708032372 L 603.0220724845741,1046.2889391238643 L 603.6258064271549,1048.8662455883882 L 606.2994908898027,1055.7982559842599 L 607.8519530295824,1061.4860106744484 L 608.5419385376534,1068.0624244139253 L 608.3694414102606,1071.7949536360077 L 603.194566610271,1091.7903199481013 L 615.1830239119048,1100.588101152731 L 616.7354860516847,1102.5431491972724 L 616.217997671202,1107.6973415567693 L 575.2502570994338,1175.8535664291132 L 565.6767415713475,1185.1834414810216 L 552.3083222592461,1194.513197351033 L 521.4315795926268,1210.6844780116344 L 488.22614671817337,1237.3396344995763 L 441.65229152972705,1307.9709844423537 L 386.3492405204895,1285.4515777961653" fill="none" stroke="#000000" stroke-width="1.4867032256616302"/>
	<path d="M 387.6400695348068,1365.0054266574325 L 386.3492405204895,1285.4515777961653 L 441.65229152972705,1307.9709844423537 L 444.84346437305294,1342.3512591381543 L 387.48862877347364,1369.4456583695276 L 387.6400695348068,1365.0054266574325" fill="none" stroke="#000000" stroke-width="1.4867032256616302"/>
	<path d="M 475.7894731220148,1452.7138536437085 L 461.2563666756,1475.2337407039508 L 420.7809848886322,1486.70322566163 L 383.2937175723636,1476.352723355898 L 376.5025468037393,1448.7972790434924 L 387.6400695348068,1365.0054266574325 L 387.48862877347364,1369.4456583695276 L 444.84346437305294,1342.3512591381543 L 475.7894731220148,1452.7138536437085" fill="none" stroke="#000000" stroke-width="1.4867032256616302"/>
</svg>
