<?xml version="1.0" ?>
<svg xmlns="http://www.w3.org/2000/svg" xmlns:ev="http://www.w3.org/2001/xml-events" xmlns:xlink="http://www.w3.org/1999/xlink" baseProfile="full" height="410px" version="1.1" viewBox="-80.14763973528345 -54.79874447629495 957.784232060452 653.5974889525899" width="600px">
	<defs/>
	<path d="M 57.14782033362885,66.06947277386679 L 57.36312254306457,62.437651140161826 L 56.59066827937575,58.38985296619541 L 54.679408996562216,52.09705656638249 L 58.83125128206809,53.00922501893928 L 62.718645040564475,54.99171544963493 L 61.89885445522698,50.4774358123768 L 58.055535559539976,41.64270854232275 L 58.28472415295491,39.38014929544304 L 58.28472415295491,37.6668412428984 L 52.46685612570346,37.36886638228912 L 51.726400120110796,34.92910375350114 L 54.071177362803844,31.31571691276064 L 57.48256364272068,27.59019591009113 L 58.461023387596775,26.891617741600804 L 59.57170728764807,26.658755489300404 L 61.98700396421927,26.723956943738937 L 63.45910104614265,26.118508945392264 L 65.86558279349177,23.17495405457532 L 67.1613806407769,22.029138036923896 L 69.7441616227552,20.995077515900753 L 71.6658211789219,20.5199587645395 L 73.56103573072883,19.62560039919862 L 76.04685205783365,17.34302245961104 L 74.5659402633056,14.473289566628695 L 74.32793652402398,11.910834369567302 L 75.47388035765896,10.093709667610804 L 78.25940492870328,9.38547196436129 L 79.93424581634272,9.646403285128326 L 82.52584172755216,10.820570603082345 L 84.18305254007385,11.08149147529682 L 84.90587868718428,10.596922531239144 L 86.41323548605037,8.444239583494689 L 87.19776613781325,7.968954557647263 L 109.44670450572467,6.263467892072863 L 115.10590359009481,7.055643970453848 L 120.69458302393133,9.068624152761874 L 141.3744598716778,19.793294317965863 L 147.44796171333954,21.023025643638892 L 153.21294016518416,18.77780274264167 L 157.57634140227282,21.96392783672065 L 160.69683436748673,23.398523528747884 L 170.29631678577275,23.733875361126334 L 170.72311379385835,23.616012329301014 L 172.19589503580553,31.385240559386766 L 176.51156306390746,38.031903511849954 L 183.25654389315932,39.98309322387663 L 189.7440398800501,42.5667788317991 L 187.34831231246585,49.2704918448475 L 185.4731515788705,56.12661894910911 L 186.09447352906747,63.6904933106344 L 186.6206380967994,71.2646044471816 L 181.3589931986813,70.73293226578801 L 179.99880214980803,75.60630329720827 L 181.33660323780052,83.9338251877096 L 178.8625107097301,91.78711761825596 L 175.11218943737504,90.51771524625839 L 171.9048251547145,92.76718422521448 L 165.09267444283472,92.12955378539806 L 158.33649873056214,88.17363234013295 L 153.71296839940482,88.77000041054994 L 149.4980550978487,90.93101395176923 L 142.46760231608636,91.5273367014481 L 135.88494875192927,89.07703724725788 L 132.15701744045683,86.29589562155627 L 129.28550296064532,89.95089798460667 L 120.36869436744568,85.74672783666652 L 112.11798764618653,80.28412474077031 L 108.85464836391701,74.33633621612827 L 103.40828623982877,72.78868846362978 L 80.61528911425528,75.60039652946928 L 59.59110006714354,66.69196837047136 L 57.14782033362885,66.06947277386679" fill="none" stroke="#000000" stroke-width="0.7974889525898852"/>
	<path d="M 56.39486462157989,150.4196552121766 L 55.482364561862035,149.48939505280782 L 51.620093243354454,144.06576510445583 L 50.54537421127109,139.51401616133487 L 51.96713780895169,138.07526378908454 L 57.81092224808163,134.7494074886833 L 59.870799851356985,133.13354596702396 L 62.61357212391939,126.17391565146684 L 63.81143586909146,124.87031308172952 L 66.28552849198071,119.6259412024351 L 66.43106342858148,109.43000992388895 L 63.84502098778927,91.56848112834405 L 57.78853202454238,77.25996273996739 L 56.79217812495881,72.06782092152618 L 57.14782033362885,66.06947277386679 L 59.59110006714354,66.69196837047136 L 80.61528911425528,75.60039652946928 L 103.40828623982877,72.78868846362978 L 108.85464836391701,74.33633621612827 L 112.11798764618653,80.28412474077031 L 120.36869436744568,85.74672783666652 L 129.28550296064532,89.95089798460667 L 124.24216052205033,98.28104429059631 L 121.57215569016422,107.93714915424687 L 122.0479426023933,113.09468377529521 L 120.39668167242898,117.89750124394813 L 117.77705449604937,132.4083388058317 L 107.18659501199376,137.11428279683207 L 109.33603281507521,142.04367429179553 L 112.99119670498699,146.05274110358448 L 109.29685043224092,149.90221412347555 L 104.8580373270501,152.59012284529285 L 99.69714754513284,150.86304610209396 L 94.40191799793982,149.43063096651915 L 91.74310804907809,152.59601700866855 L 90.13662723569114,156.76306725415304 L 85.55227928737898,158.45450795844545 L 81.18063606483058,161.08875827177133 L 77.57850218833998,164.51218481605275 L 63.54275621940199,157.70585629808232 L 56.39486462157989,150.4196552121766" fill="none" stroke="#000000" stroke-width="0.7974889525898852"/>
	<path d="M 31.928107833138014,226.22539963747553 L 31.289993610947594,222.27791361721097 L 35.029119999709174,219.7597773637684 L 46.145743809994734,216.7707417415035 L 48.989271005357736,215.0172202430672 L 58.38186644957179,204.6356313034382 L 64.8637651109121,195.57586835123354 L 68.14389689953249,192.63789002603718 L 75.48780941897789,187.3854558025055 L 78.21938657978065,183.3514130398875 L 79.32769051392809,179.4347341112083 L 80.31284951836578,165.8380013377412 L 77.57850218833998,164.51218481605275 L 81.18063606483058,161.08875827177133 L 85.55227928737898,158.45450795844545 L 90.13662723569114,156.76306725415304 L 91.74310804907809,152.59601700866855 L 94.40191799793982,149.43063096651915 L 99.69714754513284,150.86304610209396 L 104.8580373270501,152.59012284529285 L 109.29685043224092,149.90221412347555 L 112.99119670498699,146.05274110358448 L 121.96957764190351,151.8120640990398 L 128.66977854938108,160.7351785847987 L 138.3366513191225,165.57303504937147 L 147.84679416788435,170.63413578508997 L 146.34106827587888,177.5088206600635 L 145.90446374648408,184.55891132798232 L 139.09791057351893,189.75874841667655 L 130.8472038522616,190.22393063035875 L 124.05184556233169,186.09597137591462 L 116.70233559450955,184.92404234886905 L 112.31949729411377,193.1385476964666 L 109.77823488339912,202.8522930325667 L 106.38615317994908,210.06237905294802 L 99.68035492835453,212.02210511381372 L 93.55669624412448,212.64001546871285 L 88.7764359919912,216.96510247659006 L 83.40284148429753,228.33152379115168 L 81.58365575032201,240.62950621118577 L 85.33957456160438,245.3864716351606 L 82.74233695645773,256.4680512883831 L 87.63454701298234,259.6420164064361 L 92.03417773534248,263.4739302730904 L 93.59028108803871,268.6981088494292 L 93.57908620500346,274.2858310425558 L 97.59808720275299,278.56273229268226 L 103.45306635641339,279.93734842243896 L 105.95514638429736,286.39855283843184 L 102.87092698389003,293.6279274061872 L 89.26341798207493,290.6975826217263 L 75.37043702774211,289.61699780201633 L 60.74418412399616,287.3382728787472 L 48.73015229018224,285.90998123264194 L 54.54198535462522,282.3220646506036 L 57.575827283813446,279.83730131876985 L 60.17306461975333,275.6016684142952 L 61.65080334305176,271.75922938059216 L 62.71432704672361,267.55795209437946 L 63.03898182203636,263.285686398948 L 61.29256344903939,254.3458645315644 L 61.06866359653086,245.1217013012717 L 59.870799851356985,240.91158200021638 L 58.25872151984392,238.85339176285325 L 53.29934159560948,234.3249766706973 L 51.3178286916009,232.00174715172446 L 48.250401643723926,225.55476805212487 L 46.268888739699044,223.95461637319463 L 41.19755878089709,223.78400800793264 L 35.81276915856199,225.61947854567487 L 31.928107833138014,226.22539963747553" fill="none" stroke="#000000" stroke-width="0.7974889525898852"/>
	<path d="M 47.23937107110652,286.8302558189414 L 48.73015229018224,285.90998123264194 L 60.74418412399616,287.3382728787472 L 75.37043702774211,289.61699780201633 L 89.26341798207493,290.6975826217263 L 102.87092698389003,293.6279274061872 L 95.83487646838645,295.55396339720755 L 88.8995808742408,297.7617382169686 L 87.85844701143822,300.2746885607262 L 88.20549150248678,303.16320254084735 L 86.7389481881386,308.28801646129443 L 84.30963558182616,313.0482533792524 L 90.38851453912123,332.87523643884873 L 112.62176205822192,341.55622280663044 L 120.92844377909006,345.2978287433059 L 128.76493573700859,350.10039250224975 L 137.15557995729202,352.2288105622208 L 145.45666413922922,348.9862979324957 L 155.82322381965741,349.6313040665974 L 161.4487058256042,360.1375236923943 L 167.48280466631286,365.102361253991 L 175.2745167024571,364.56311807253667 L 168.0929315386516,374.0984103783728 L 156.67404291756256,377.157178107527 L 145.74773382549364,373.453811718374 L 136.14803113322125,375.50477022309104 L 139.33860279910348,388.4994723839514 L 142.7250869636244,400.93353483753754 L 137.74891440766459,401.6011023170042 L 132.26337009558137,400.10784391709564 L 128.30594144155782,404.32981145552 L 127.35996476637371,410.4540745011097 L 120.88366385732846,405.03245215662946 L 114.68164001778197,399.23528593796163 L 107.18099747307551,396.20753515574484 L 99.26614035984055,394.21037939957193 L 80.81679895700734,385.13110909233575 L 62.89921946600856,375.05356852287 L 62.419151452514136,374.85343212069 L 62.5484913432473,374.6317256207554 L 65.09885985856648,370.25977746591656 L 64.62867014662396,369.6033936628727 L 62.63596213083579,367.82758620079983 L 59.5461452926834,365.79380518470543 L 47.90335686149478,361.42110813643507 L 39.73101516939819,355.98678672671343 L 37.97340190124267,353.9641098591087 L 34.68207521749633,349.11511671726106 L 32.857291928620604,347.50255978491333 L 24.405075475025953,345.3856099069082 L 21.158528805108794,343.60282508830426 L 19.859909920495152,339.40357222719905 L 20.677144198027655,336.910782324967 L 22.300417641294946,335.98400968589 L 23.45350158928244,334.74045712657033 L 22.916141856581653,331.3322134219646 L 21.516768482456627,329.1791740108931 L 1.925537995046218,309.1507065714249 L 0.0,305.4349285707038 L 3.727931277001921,302.6346487219685 L 11.777128039396006,300.9379433417877 L 28.06583673127142,303.93794916396376 L 36.45088359738977,301.07884904706873 L 39.27202078585631,298.0551322226905 L 43.72762631272876,290.47423737150484 L 46.68310310940087,287.1736400624482 L 47.23937107110652,286.8302558189414" fill="none" stroke="#000000" stroke-width="0.7974889525898852"/>
	<path d="M 50.606901290821106,432.35744418073494 L 53.198586672805256,425.50871868528304 L 53.982235831659885,421.5875278054205 L 53.50085144121791,415.0084107638138 L 53.646386377838624,411.2383837678624 L 53.131416868722404,408.70336357586837 L 50.802859182455684,402.20991809714593 L 50.478204407166494,400.066668774642 L 51.08273372731277,395.6041164924938 L 52.79556698163006,391.3460614607797 L 62.419151452514136,374.85343212069 L 62.89921946600856,375.05356852287 L 80.81679895700734,385.13110909233575 L 99.26614035984055,394.21037939957193 L 107.18099747307551,396.20753515574484 L 114.68164001778197,399.23528593796163 L 120.88366385732846,405.03245215662946 L 127.35996476637371,410.4540745011097 L 134.0265808299479,414.30027785775997 L 134.3008578994358,423.53079731294235 L 134.50236774217518,427.6741678152063 L 134.08255563473207,431.74688601663956 L 132.89588673397247,434.16925095158103 L 130.7240589700102,435.0351812703835 L 128.4626713625356,435.84258538256046 L 126.96814015872602,437.8493227985898 L 131.63085306753882,449.42556030907167 L 142.3108723951104,458.20345707780336 L 147.78522182417288,456.8877737340375 L 154.27831554480494,457.1976939901416 L 157.7375669360726,465.1086159027582 L 157.73196939715433,473.894730664784 L 157.88310177920297,474.46169864617616 L 157.88893321100483,474.4831989134595 L 157.65567598203032,474.28883401016276 L 157.32952273374192,475.92724525823735 L 156.99455455621873,476.5071160487971 L 156.17476397087037,477.2250397310105 L 157.65567598203032,477.2250397310105 L 156.7829956046396,479.13023610462136 L 155.6546818461061,480.5843824169501 L 154.27073448981778,481.5323100909187 L 152.55181873937622,481.86361933156576 L 151.75847315837675,482.7931108245586 L 150.34808079773774,487.3022178445533 L 149.5194754997992,488.94009383339926 L 146.87498979652204,492.7400750096235 L 139.57620975809795,513.9875512278186 L 137.337212099524,518.1161649277824 L 128.3812210319427,530.6189563106682 L 126.21274280725778,529.6078453368668 L 124.34397304314429,527.8429364995491 L 124.23819367566978,526.896104735735 L 122.12260524303807,525.0759185893859 L 107.22533670561846,500.5689206467586 L 103.60239147410981,496.6592892853561 L 96.31242636492048,493.8441178424295 L 79.00867586351804,496.1625088824857 L 71.60411645762305,494.35012738831875 L 73.69326010255044,492.7400750096235 L 80.60418217138546,485.5906577716289 L 82.08509418255811,482.7010829290224 L 81.76775586349359,477.8325035494076 L 80.85981576914931,474.4084954562053 L 77.51894913975703,467.9554635587743 L 75.17417189707486,464.40170580964246 L 74.71579449360038,463.09428470785076 L 74.5659402633056,460.37802583573676 L 76.04685205783365,451.8136845720378 L 74.43371589149669,447.86241176539505 L 70.62565671275964,443.4685744709819 L 62.718645040564475,436.91836167193713 L 50.606901290821106,432.35744418073494" fill="none" stroke="#000000" stroke-width="0.7974889525898852"/>
	<path d="M 105.14500798992222,544.0 L 101.53087768766284,541.9508555482007 L 101.48680304147811,537.0894652827081 L 103.47016710229907,531.409443497443 L 105.88546399550401,526.896104735735 L 108.94425223942812,528.6150936876855 L 112.05593027540546,530.876325949931 L 117.57409005871922,536.1612317061054 L 114.23322342932696,537.2089395018654 L 108.84728780118839,542.7135537522907 L 105.14500798992222,544.0" fill="none" stroke="#000000" stroke-width="0.7974889525898852"/>
	<path d="M 724.8184898748002,402.8876058341593 L 736.0134786009537,402.55563275260573 L 738.9576725481703,403.59764978066517 L 741.1437806313265,406.50224083261327 L 743.5678922371434,410.9555282595841 L 745.1545836157761,415.0395682907781 L 744.7931706505377,416.8187122437064 L 741.5051935965631,416.0904714110612 L 734.5149367313242,412.90080133866593 L 730.8743616413478,412.17248771301604 L 727.0134128871877,412.64266637531927 L 720.3052346240651,414.77222880395016 L 716.6205846712684,415.27003199614074 L 709.0044663137907,413.25112462418383 L 703.5832709687058,408.364753958815 L 700.0925501090187,402.27898643981877 L 698.1973353405672,396.69031090293583 L 701.4147927440173,395.7403409084826 L 705.2140369935214,396.46896063821055 L 708.9780215260755,398.31350692379135 L 712.1954789295273,400.6375110979862 L 714.6989251151017,401.5228096792287 L 724.8184898748002,402.8876058341593" fill="none" stroke="#000000" stroke-width="0.7974889525898852"/>
	<path d="M 698.5851933101563,218.75749635132019 L 700.3569986360192,220.0176385035385 L 702.3403626968401,221.12949338933382 L 706.2013116676341,221.44451308426727 L 708.4226794677385,222.27837561554787 L 733.5981819243825,245.61901977636495 L 742.8538812359105,256.8396107019464 L 755.9176397261793,266.779827162363 L 765.2791186218192,273.294159194778 L 767.9412339669177,274.4784631759897 L 769.3339964690745,275.385170772132 L 779.1185930512498,284.8025479263096 L 791.5124151864613,292.3125763129571 L 797.4889525898851,301.4114164611367 L 796.3077490393002,310.323218832021 L 775.9452102939719,341.2211389990334 L 774.5083731456322,342.45875610263215 L 773.0803509265254,343.9918683837525 L 772.4192295007138,346.152899062318 L 772.8159023995249,354.0387114412573 L 772.4192295007138,356.2915052113997 L 769.9598579613132,360.1412626358859 L 766.3898025218705,361.9598399449473 L 761.9118069880744,362.49524232764094 L 756.7638750992356,362.49524232764094 L 752.797146977601,361.165953796056 L 744.2113838044837,355.53443336539624 L 741.0908908392697,354.6019223045794 L 737.5120204705959,356.99316824489154 L 738.0761774581786,360.63976446302263 L 739.2309360044055,364.95984391239995 L 737.3886110280054,369.390194536268 L 734.7264956829051,372.934110705741 L 733.0428398660328,377.0405882315167 L 729.7019732366387,390.23374889902976 L 728.4943246817156,392.5766819822971 L 726.0349531423242,393.46216338041404 L 707.7174833957313,394.91025124776246 L 703.9799438675278,393.5912945275241 L 703.4863065304643,385.28914406568913 L 698.2149654156832,374.30913698734355 L 691.0043346696158,363.63063996600584 L 684.6223096547799,356.2915052113997 L 677.8259818826397,351.6011147991071 L 673.4546208064197,349.74884992481316 L 677.3249841623427,340.529856810815 L 681.1592677392919,330.2118924569399 L 684.097952296567,323.6466070065668 L 683.8628574150904,316.56375747619734 L 679.3064969665774,310.905926621022 L 673.8489401542895,305.9751841980228 L 669.6508192746815,298.4076057244133 L 666.0572279233187,290.23951240511474 L 664.4171620712035,285.5292910969062 L 665.2847735910731,280.5952666234994 L 670.1098137649698,277.72266494741666 L 675.892025691896,276.80033157776313 L 686.9806620490507,268.0223557537189 L 691.4586575370722,255.13960911921222 L 685.5812884225202,243.9400414967586 L 687.2549391185369,234.383974682834 L 688.4919854799872,231.89605896710572 L 688.3464506368549,228.81975546415944 L 694.537279398554,224.007747588222 L 698.5851933101563,218.75749635132019" fill="none" stroke="#000000" stroke-width="0.7974889525898852"/>
	<path d="M 606.1687609205809,209.39763142989716 L 614.5081829173207,211.64060378548953 L 617.9283843431169,211.39964357954065 L 622.0008920488563,209.10117652896867 L 620.6522044095088,207.43284583148022 L 617.9548291308213,205.82005548276533 L 617.9283843431169,203.61394210665267 L 621.8157781016151,202.5108366839286 L 625.200719593824,205.56978862804192 L 629.7580497073903,212.95658930467962 L 632.7022434379605,214.6617416012852 L 635.9814055627004,215.64402223463108 L 638.7845602088606,216.86720346117576 L 640.2478423615493,219.30418085228945 L 642.8394380561286,217.1915252450425 L 648.1284092460274,214.7544106774739 L 650.614225573134,212.95658930467962 L 648.9570145439642,211.12161074999202 L 649.7503603415973,210.67675388053286 L 651.6984646854702,210.62114631457482 L 653.5584195203362,209.9723863351474 L 655.8238621832609,207.6182195590394 L 656.5114283967877,206.69134173076952 L 657.3664786990769,206.6264593539366 L 665.132451286844,207.04355805775734 L 669.6721513252943,207.9611586008251 L 673.7446590310318,209.41629739885752 L 677.3587893332948,211.39964357954065 L 677.7730920905882,212.0298437253938 L 677.7819070198211,212.8546484367682 L 677.9582060378293,213.71650374371754 L 678.8397013444675,214.49493664077877 L 683.2736220154325,216.05175367149437 L 683.6702949142544,215.9776209509395 L 691.4186374269092,217.60850623880958 L 696.2580459259418,217.793829585097 L 698.2149654156832,218.49805003501575 L 698.5851933101563,218.75749635132019 L 694.537279398554,224.007747588222 L 688.3464506368549,228.81975546415944 L 688.4919854799872,231.89605896710572 L 687.2549391185369,234.383974682834 L 685.5812884225202,243.9400414967586 L 691.4586575370722,255.13960911921222 L 686.9806620490507,268.0223557537189 L 675.892025691896,276.80033157776313 L 670.1098137649698,277.72266494741666 L 665.2847735910731,280.5952666234994 L 664.4171620712035,285.5292910969062 L 666.0572279233187,290.23951240511474 L 656.5918648014936,293.9215367963406 L 651.1343079892058,304.4253911674387 L 642.8276262683413,314.938097151238 L 631.9572919810511,321.66917415018725 L 633.5581754503355,315.74800150735047 L 634.6720767347097,310.5067948279671 L 628.3133231689993,309.8435227133925 L 621.5067701908699,310.8178831379005 L 615.343928734145,306.292179674706 L 610.0822838360306,300.53301966266116 L 606.544667484275,299.55252587213727 L 602.9174910941731,299.91654436354696 L 599.945221692991,298.1022881429801 L 597.1072918622616,296.023713322143 L 599.7157243504417,287.6378037235962 L 603.4716429668902,279.00332000262586 L 604.4176196420743,269.29746219207647 L 601.0703178603877,260.1651073693515 L 588.6438804152278,247.29144153266697 L 580.8633632621062,231.4666855467614 L 593.116278364322,229.2962167122402 L 610.9778830505385,233.46646448119552 L 605.0165516313905,222.74287533338855 L 606.0408928774148,210.29190201028052 L 606.0520879552603,210.2212796172912 L 606.1687609205809,209.39763142989716" fill="none" stroke="#000000" stroke-width="0.7974889525898852"/>
	<path d="M 517.5332812752517,190.9482839789979 L 520.2234584724317,192.8874077542081 L 532.1765330626455,191.06071538806472 L 536.3019305604398,192.5814199625899 L 541.4498624492932,190.9308963909798 L 551.639946642868,194.8809036509379 L 557.01706734177,194.27823023494517 L 555.6948244901378,193.13775965775608 L 553.9582790978459,192.09925199357082 L 551.8867653113989,191.32962494044537 L 549.4890984932954,191.02362435730382 L 549.4890984932954,189.46576384278885 L 561.0543153305703,188.8537293114567 L 564.421626747665,189.46576384278885 L 568.2649458599893,192.2847018805624 L 571.2443995241432,199.28476137128195 L 574.902604472591,202.0566073218519 L 578.6048842838553,203.03921903361015 L 586.0535185525706,203.95691788825363 L 606.1687609205809,209.39763142989716 L 606.0520879552603,210.2212796172912 L 606.0408928774148,210.29190201028052 L 605.0165516313905,222.74287533338855 L 610.9778830505385,233.46646448119552 L 593.116278364322,229.2962167122402 L 580.8633632621062,231.4666855467614 L 588.6438804152278,247.29144153266697 L 601.0703178603877,260.1651073693515 L 604.4176196420743,269.29746219207647 L 603.4716429668902,279.00332000262586 L 599.7157243504417,287.6378037235962 L 597.1072918622616,296.023713322143 L 589.7185993167695,301.172969392345 L 586.2033727310699,309.65569127887255 L 581.5686473220688,315.6658380273678 L 575.4058060601669,322.8896787732668 L 572.1032845898934,315.44869085377553 L 569.0862348773019,307.86537730219504 L 564.1380498211555,300.3686273454907 L 559.2010600376815,292.87040506662544 L 557.6785415288995,283.6144956740446 L 556.4470925115407,274.1918278693479 L 552.5680290128337,266.9940127961689 L 552.5792240906937,259.1130406155332 L 556.43589762852,253.81112004688666 L 560.9530754993631,249.1081288848714 L 565.4030836824013,246.36248693705775 L 569.5284369456257,243.51668565693907 L 565.5262285646545,239.50044747046437 L 557.6729439899703,238.47720838313842 L 547.0768869669929,232.67832906412883 L 536.2009553356147,227.3020984225304 L 523.8640777339799,221.07200201781743 L 513.8613553562143,212.1515728958684 L 516.7608573358212,205.64231977847476 L 518.0202934633257,198.70218372785325 L 517.3877768249346,192.6321860142348 L 517.5332812752517,190.9482839789979" fill="none" stroke="#000000" stroke-width="0.7974889525898852"/>
	<path d="M 484.90985417982057,145.0476361618643 L 485.7305521996035,145.84695980199467 L 493.1439265347369,148.8548832680189 L 497.5337725595262,148.13077576427057 L 505.9432364980034,144.90925441860634 L 510.28019294738954,144.1850697028461 L 520.0295295959667,143.78583367992675 L 524.3488559702242,142.8666455296497 L 528.7827766412018,141.06534203503347 L 535.1824317311538,136.79385791699815 L 537.659433129022,136.25524432352782 L 539.8984310042442,136.73813977645955 L 544.4910208347369,138.99466274118956 L 547.3382503437138,139.4960936162176 L 552.5831466707923,138.1867876812116 L 554.857404046318,137.9453502451633 L 556.1179421766623,137.9917807408059 L 557.2903307980034,138.270361800765 L 558.1453811002926,138.96680534628206 L 558.4979791362945,140.28536880069532 L 559.185545566455,141.39961125735815 L 560.6840872194507,140.97248896054876 L 563.0641241790828,139.4960936162176 L 575.6342455489362,144.62143915985735 L 579.3365253602024,147.29524976898242 L 581.7870819703681,142.34669084810298 L 585.7714401671043,138.68822955392798 L 595.6089263246864,133.26486695616518 L 601.9380617641028,131.33306524856815 L 603.4366036337451,133.97069226696453 L 601.7617627461057,139.4125222776855 L 598.5707501303725,145.87481199806962 L 602.8900765046283,147.46235652697627 L 607.773559866483,147.4345055292387 L 612.5160039272649,146.20903762353976 L 616.4474723319588,144.1850697028461 L 617.7344552500074,149.18908167733676 L 614.9136707453775,153.1156884407697 L 611.0262769868702,156.67990632246736 L 609.0605427845315,160.60571746312428 L 608.1261579024739,164.7352586409556 L 605.6050816417944,168.45609125107748 L 601.8234672507599,171.18384579557218 L 597.0898383358445,172.35282208318358 L 580.0857962950153,169.2354700368321 L 561.4598029419824,170.65501106070246 L 557.0699571338232,169.402477710395 L 549.0395360190521,165.4033657085964 L 521.4222918814879,161.9884691194911 L 518.3106140621462,162.84222290330237 L 517.1205955823356,165.89515923907584 L 516.4153992936929,176.74079371272302 L 514.793448198121,185.99743528726424 L 515.4633845531674,189.46576384278885 L 517.5332812752517,190.9482839789979 L 517.3877768249346,192.6321860142348 L 518.0202934633257,198.70218372785325 L 516.7608573358212,205.64231977847476 L 513.8613553562143,212.1515728958684 L 507.5585765952863,207.46690823108338 L 500.6960484227122,203.57630718485282 L 494.4716346222849,198.94355030025645 L 488.30879336039754,194.22190280172106 L 492.5684867785419,190.1650470698988 L 493.34653845489186,183.0335664271245 L 496.2740279343087,179.39368763174198 L 499.682901864882,177.12594540616183 L 505.43152875308385,173.29108445085495 L 505.42033367523646,167.12266548557088 L 492.3110019361827,164.01155490444648 L 481.7317373351569,169.04341032171405 L 480.2875837868647,163.67568073676225 L 481.6365799527172,158.03018176123174 L 483.65727572426965,152.31898292804212 L 484.4409247447094,146.20012489899582 L 484.90985417982057,145.0476361618643" fill="none" stroke="#000000" stroke-width="0.7974889525898852"/>
	<path d="M 415.0303485135301,68.88037602759536 L 422.1835646408697,61.24562155112656 L 426.2825171343115,59.33792229226481 L 438.28848151658036,59.52404368335159 L 444.16805426513247,58.95637047265193 L 446.83016982688093,59.29139190938395 L 450.1269618100885,61.23631596948887 L 457.5138913575158,69.05218269591415 L 459.8410387417284,74.36415019052566 L 459.71762929914155,80.1682842596665 L 456.16520371816836,92.73143540421272 L 460.5021599509063,94.55370919245571 L 462.15055605082694,98.60701190517779 L 462.0888513295389,109.0356918086376 L 462.61774838353796,113.57058941061479 L 464.0016959564582,117.19438661446158 L 478.4317719445457,138.74394474402433 L 484.90985417982057,145.0476361618643 L 484.4409247447094,146.20012489899582 L 483.65727572426965,152.31898292804212 L 481.6365799527172,158.03018176123174 L 480.2875837868647,163.67568073676225 L 481.7317373351569,169.04341032171405 L 466.72485509646265,166.15047152925797 L 452.17136961429003,159.32082584907815 L 437.29322940711216,155.57252960891825 L 426.7531475785721,146.677644442338 L 423.803267943446,141.37741932084455 L 417.22061457411553,140.53426551295868 L 409.6919845295991,135.04444922003574 L 407.0107848146814,125.42497635349343 L 406.3838655203819,117.59660616829026 L 403.8314080318199,110.36257917505877 L 396.48189786917294,105.38171662097561 L 388.7965379036643,100.72482304908401 L 389.4570424315041,94.19590913139899 L 390.73886871471603,88.32715390278341 L 395.3623990458697,88.03191983885328 L 400.4225337115952,88.38029577612708 L 411.1417356168204,82.14445445818123 L 415.1663341534864,70.24851282088859 L 415.0303485135301,68.88037602759536" fill="none" stroke="#000000" stroke-width="0.7974889525898852"/>
	<path d="M 354.6598124285629,51.164958408465296 L 362.5768604160517,59.52404368335159 L 366.1733608598416,62.08311616873564 L 370.12245912299403,64.09302459899229 L 374.56519493983836,65.43290156046147 L 384.44675596024257,66.48429793902548 L 392.3890275660178,69.3498966242878 L 406.93369785080006,72.21526926652413 L 410.1776002586008,72.15945239721219 L 412.3460782666538,71.35009940682164 L 414.2765527520426,69.68482201711224 L 415.0303485135301,68.88037602759536 L 415.1663341534864,70.24851282088859 L 411.1417356168204,82.14445445818123 L 400.4225337115952,88.38029577612708 L 395.3623990458697,88.03191983885328 L 390.73886871471603,88.32715390278341 L 389.4570424315041,94.19590913139899 L 388.7965379036643,100.72482304908401 L 386.49037017960325,100.28212142156664 L 384.150617611628,100.3116352494487 L 379.21922517226,92.25944243270044 L 372.9388363722256,86.7446717819577 L 366.4457428464038,90.4822895540754 L 362.00133239711954,96.9528352509935 L 356.8852223421373,100.42378675616958 L 354.3271675094691,94.32579021486436 L 350.73917369702644,92.57825791066082 L 346.8209276206602,91.11404475625828 L 339.5945623402646,100.05781739935085 L 339.66732956699684,115.28966104941081 L 338.84449816371193,128.13826483683195 L 334.1649928329511,141.4953415189825 L 328.0693214537025,142.68633342376654 L 323.71447065311844,131.75370486071617 L 319.2700602038342,132.70911255270636 L 314.41143499119846,134.60805922122447 L 307.57129677950877,133.93577257084158 L 302.4104071924127,130.07873294439574 L 305.62336881917577,127.67819966773303 L 308.9594755230168,125.12414299354336 L 309.01545052262577,120.08629159407886 L 308.39972611137244,114.90023934486221 L 309.6423698169144,109.19414384308082 L 312.5978467961539,104.30755558633538 L 315.8331985786135,100.67760185801299 L 316.75118755917373,96.05552887666332 L 321.5426430839792,85.404232092432 L 323.31704850655615,73.29079504246448 L 324.9571143586604,68.74795347896348 L 328.3491960621195,65.68756523336188 L 331.1815283539216,65.70529037364595 L 333.9019106464966,66.3788341434145 L 337.76977906736,65.8648150124646 L 341.61525791697767,64.8367553012718 L 345.48872387677017,64.8662974788865 L 349.1326926888255,63.731854030590306 L 352.3288618936242,57.639520146515345 L 354.6598124285629,51.164958408465296" fill="none" stroke="#000000" stroke-width="0.7974889525898852"/>
	<path d="M 170.72311379385835,23.616012329301014 L 172.826207975696,23.035222255190412 L 173.41680975098484,21.274556441009953 L 173.53140404769232,18.945500392000447 L 174.6773478813309,16.560390795475072 L 177.2248689297237,15.572759893005836 L 179.0495640476525,17.697064494384247 L 181.4560457949889,23.733875361126334 L 183.14851654109427,22.69054837383991 L 184.42668452990807,21.572664607766345 L 185.31699476577919,20.287054994472616 L 185.89878139519953,18.77780274264167 L 184.05645663544763,18.200170695870515 L 183.66859866585855,17.92066807026598 L 183.63333894891946,17.324388390788087 L 182.93695758951333,15.777742062395612 L 186.33071422760705,17.100781100170824 L 189.17794351993936,16.942391626157775 L 192.07806260433392,16.21565475846419 L 195.57759860989128,15.777742062395612 L 197.79896640999567,14.081944682353864 L 201.809769394447,6.543061409735 L 204.45425509771326,4.837506829771505 L 207.75104708092988,3.998679536571976 L 214.77656366310973,0.5033547591115742 L 218.57580791261202,0.0 L 222.07534370153382,0.904169456284649 L 225.40739540169133,2.861571506744825 L 227.20564573190492,5.732234125164901 L 226.09496161521992,9.38547196436129 L 230.273248905062,11.08149147529682 L 231.88638507141346,11.08149147529682 L 230.80214595906284,7.549580045392101 L 230.273248905062,6.263467892072863 L 240.75422662999887,7.968954557647263 L 243.8394596616273,7.652094217578031 L 250.23911475157922,6.151629690509732 L 252.72493107868405,6.263467892072863 L 255.38704664041987,8.052828870915699 L 264.91600940818495,19.429956580484987 L 265.70935520581816,21.609927868802593 L 264.5545964429448,23.733875361126334 L 272.71724171290197,23.789767105268197 L 275.83773467811585,25.326753608458556 L 284.0885296736991,32.25634984856662 L 291.9426517704621,36.25143831293721 L 300.29041098764947,39.184612856904444 L 309.95159812723796,40.637144202946075 L 323.03298669260636,40.739564047714225 L 324.12604073419357,40.07848525945873 L 325.23672463424487,38.54212842292246 L 327.8547653331622,36.73566125200886 L 330.8165891388448,35.217786503198774 L 332.99388229277895,34.537981513809385 L 341.4474210940619,37.20125436913559 L 354.6598124285629,51.164958408465296 L 352.3288618936242,57.639520146515345 L 349.1326926888255,63.731854030590306 L 345.48872387677017,64.8662974788865 L 341.61525791697767,64.8367553012718 L 337.76977906736,65.8648150124646 L 333.9019106464966,66.3788341434145 L 331.1815283539216,65.70529037364595 L 328.3491960621195,65.68756523336188 L 324.9571143586604,68.74795347896348 L 323.31704850655615,73.29079504246448 L 321.5426430839792,85.404232092432 L 316.75118755917373,96.05552887666332 L 303.55789332070106,91.87567923102021 L 297.1935422160598,81.59522424446872 L 292.6931565723291,70.70930222402446 L 281.1287333029508,65.59303203371817 L 280.34508428250024,79.02022729535202 L 270.6614188959805,79.46318683703123 L 265.84197626101474,75.18692369110076 L 260.9609610875,71.03421410407365 L 254.95484955177645,69.30919370985474 L 248.204271378433,67.73179158949719 L 239.08035540355036,66.52653912589031 L 230.91920852582712,62.4260180244743 L 223.60888094082478,56.587587521367006 L 214.82081457397723,53.82168654992989 L 208.96583561512713,52.29089418970043 L 204.14639278533838,48.63209645800509 L 197.14392750338962,45.203484624244716 L 189.7440398800501,42.5667788317991 L 183.25654389315932,39.98309322387663 L 176.51156306390746,38.031903511849954 L 172.19589503580553,31.385240559386766 L 170.72311379385835,23.616012329301014" fill="none" stroke="#000000" stroke-width="0.7974889525898852"/>
	<path d="M 226.21642954478475,381.86354174430704 L 226.17429619498648,381.84784512864974 L 224.82560855563906,380.01174605811156 L 223.68847986788165,377.7418758212404 L 222.27808750724446,375.73025380408967 L 220.01264506095353,374.0322900235025 L 217.71194246445788,373.0356245637133 L 208.31520385186982,370.9960718514464 L 203.96061776066236,370.9130108578661 L 200.57567626844983,372.26965118850194 L 199.21817369986766,375.73025380408967 L 198.75979607975765,377.6403744891964 L 196.83813674023554,380.95287304657126 L 196.3797591201219,383.48088562543563 L 196.7940618774153,386.3869742519743 L 197.8518562020489,387.98292440783496 L 199.28869335040127,389.4312157974423 L 200.82249493696804,391.92178185435324 L 204.35729065947535,404.2523541155047 L 205.49441934724,406.36393176659993 L 205.52967906417908,409.0654783213276 L 201.31613227403165,415.4451834427242 L 197.71963183023817,424.5519808965784 L 177.21605400048895,454.42001887663054 L 175.41780388690907,459.54009128914885 L 174.51867872180136,461.363266696 L 172.46479501045764,462.78123395610277 L 168.15428356543674,465.01857261468615 L 165.49216800368822,467.2557850935905 L 163.58813852263566,469.4652539621312 L 162.1072265114757,472.19930152504105 L 160.74972394290438,475.96406261646155 L 159.1454027057895,475.4025928429518 L 158.52835614279817,475.0160022925869 L 157.88893321100483,474.4831989134595 L 157.88310177920297,474.46169864617616 L 157.73196939715433,473.894730664784 L 157.7375669360726,465.1086159027582 L 154.27831554480494,457.1976939901416 L 147.78522182417288,456.8877737340375 L 142.3108723951104,458.20345707780336 L 131.63085306753882,449.42556030907167 L 126.96814015872602,437.8493227985898 L 128.4626713625356,435.84258538256046 L 130.7240589700102,435.0351812703835 L 132.89588673397247,434.16925095158103 L 134.08255563473207,431.74688601663956 L 134.50236774217518,427.6741678152063 L 134.3008578994358,423.53079731294235 L 134.0265808299479,414.30027785775997 L 127.35996476637371,410.4540745011097 L 128.30594144155782,404.32981145552 L 132.26337009558137,400.10784391709564 L 137.74891440766459,401.6011023170042 L 142.7250869636244,400.93353483753754 L 139.33860279910348,388.4994723839514 L 136.14803113322125,375.50477022309104 L 145.74773382549364,373.453811718374 L 156.67404291756256,377.157178107527 L 168.0929315386516,374.0984103783728 L 175.2745167024571,364.56311807253667 L 175.9182286135349,357.2063878550399 L 179.71333000247458,351.2437721652583 L 183.34050639257822,348.96870656601016 L 186.84453770560566,346.57036106343014 L 189.30743515581963,342.8230140814616 L 192.7946742417202,339.99027057439093 L 199.43889995476215,337.57376991802874 L 205.03079692198622,333.48531562061976 L 208.41728108650352,327.9062498171074 L 211.31118572202067,322.00364345685244 L 215.5708789453402,327.41928978182244 L 217.76509686500992,331.1094716624596 L 218.4479911589057,338.34800530964077 L 214.076348131193,344.0252542368587 L 207.42652468439528,349.71925849306706 L 208.50684112485516,352.32848543167273 L 209.5143901437526,354.96685058091015 L 211.5686705643799,356.50874477958746 L 214.2722602401784,357.5405485547528 L 221.26353083393124,359.498555239547 L 227.56630959484832,361.0050972667713 L 227.05693744906986,364.29349376946516 L 227.79580674257278,369.1171426319891 L 229.44706747772136,376.42473640079174 L 226.21642954478475,381.86354174430704" fill="none" stroke="#000000" stroke-width="0.7974889525898852"/>
	<path d="M 309.8886005421329,379.6671772101438 L 307.06029397207453,377.8341495500284 L 306.11709416078213,375.73025380408967 L 306.64599121478113,373.478590174113 L 307.9241592035949,372.4449958115907 L 309.39625628552193,371.6605531727734 L 310.5333849732902,370.100849500947 L 311.53828950587064,365.5413563998365 L 311.6705138776795,360.75054169937846 L 311.07991210239254,356.5500141378289 L 309.87226354746775,353.8355843172601 L 305.1121896282017,347.8890242169352 L 302.24733026075523,345.84814574576995 L 297.2316227437253,343.9087493835392 L 292.9563712322881,342.91130763180314 L 287.5528057456691,342.49569919109524 L 282.92495598159275,343.7425108456 L 280.968036708487,347.7043337930358 L 281.70849271406695,352.4505976601416 L 281.161965584952,354.35263328492584 L 274.7270507780646,360.69515300739226 L 272.9552454521872,361.8306036527779 L 270.6192833553735,362.49524232764094 L 268.08939216545025,362.4029321079484 L 263.5849516273161,360.99978949229927 L 261.5927726372604,360.8059303121168 L 259.91793174963544,361.4613551157994 L 256.9032183685316,363.58448635008534 L 254.87577944490124,364.04602116902186 L 252.12551437415138,363.695255162758 L 251.16468470438943,364.28601719258893 L 249.0226512674197,366.2982325744445 L 248.4232345628834,367.14739288013146 L 247.06573199431392,369.95318215863807 L 246.80128346731348,370.94069779988416 L 246.21949662125942,371.835900547639 L 243.31056260762827,372.7956826815375 L 242.23513842451243,373.33093545661603 L 236.47015997266777,380.1593753894473 L 233.39374187027593,381.98624113783296 L 228.25462491066824,382.62285594008557 L 226.21642954478475,381.86354174430704 L 229.44706747772136,376.42473640079174 L 227.79580674257278,369.1171426319891 L 227.05693744906986,364.29349376946516 L 227.56630959484832,361.0050972667713 L 221.26353083393124,359.498555239547 L 214.2722602401784,357.5405485547528 L 211.5686705643799,356.50874477958746 L 209.5143901437526,354.96685058091015 L 208.50684112485516,352.32848543167273 L 207.42652468439528,349.71925849306706 L 214.076348131193,344.0252542368587 L 218.4479911589057,338.34800530964077 L 217.76509686500992,331.1094716624596 L 215.5708789453402,327.41928978182244 L 220.14962935473412,325.69434567796054 L 220.22239677629298,321.66917415018725 L 214.46257519989703,317.8255041911283 L 207.63363187123895,316.58723219487644 L 194.11008556365852,311.91547627428184 L 183.8218906489098,301.5487143051566 L 193.33763123141472,299.00062009600845 L 199.04147800302647,290.5390204305988 L 202.58469208853603,289.19415203413706 L 206.6764605078444,287.2677947264503 L 206.18388097884247,284.34283395069485 L 204.74532477464007,281.8582030778581 L 207.00671257695217,278.78008951300086 L 207.2641974192987,275.89560038099694 L 205.89281129257805,267.3348379732166 L 212.94005669111505,265.1311718181092 L 214.76483976919306,269.06242271070226 L 217.91622924705857,270.35512172531054 L 220.8773035703915,267.51700199577044 L 222.5677470780222,263.6502361779685 L 222.67969688241533,251.93587253966606 L 224.12385043072203,240.65890857025397 L 226.7546726849472,234.95446628397033 L 232.07229258268154,231.24317429162934 L 235.1229267495268,228.33152379115168 L 235.9905386590478,223.91950198447003 L 240.52450895185345,221.68387971582203 L 242.33809714690165,216.80623052932398 L 253.7122058462236,224.54309923008637 L 256.1527133355695,245.52758411937467 L 265.3885791148344,258.0315562024968 L 278.60986085311697,264.74919000094434 L 286.8269827304601,274.70296746825704 L 283.7595557520026,287.70240822689095 L 289.9839695524426,299.9459005850991 L 294.5179400400731,311.44592168905535 L 297.7197067838027,313.4004053744454 L 299.3597726359196,316.7750296308595 L 303.1212887912954,320.38408153570896 L 308.1478388079423,322.1620752041495 L 315.35741166638803,326.86778551854434 L 322.3486820653142,330.43482272321666 L 326.8490675142057,338.15444787002417 L 331.6181328833182,347.5789745056369 L 333.051091353763,351.753884405185 L 330.94643347244494,355.91075515868647 L 329.2559901596355,362.0191959376664 L 329.81573957129433,368.4666003861501 L 321.9512599187501,377.36225907475483 L 309.8886005421329,379.6671772101438" fill="none" stroke="#000000" stroke-width="0.7974889525898852"/>
	<path d="M 396.3251774626456,388.20109574777496 L 391.6133116268541,388.3334711851763 L 387.5760638547003,389.0161059057723 L 384.8963184344823,390.51048059630466 L 381.0706293972612,388.1581981907944 L 376.9981216915382,387.3002718096657 L 349.2750981864851,387.41097301308776 L 344.62080363469533,388.8777348836108 L 335.70888742993424,393.91412007173295 L 330.6491050500859,395.01170757528797 L 315.6372422159461,394.9748142515536 L 312.15533606886197,393.5912945275241 L 311.85562782492246,391.64506017514464 L 313.4246891284392,390.12305571532397 L 315.4521280520822,388.79471230648346 L 316.4570325846608,387.41097301308776 L 315.8399860216586,384.9570211878515 L 314.36788915636714,383.6100496315466 L 312.8429024990333,382.74279662087633 L 311.20332132833295,380.519219338112 L 309.8886005421329,379.6671772101438 L 321.9512599187501,377.36225907475483 L 329.81573957129433,368.4666003861501 L 329.2559901596355,362.0191959376664 L 330.94643347244494,355.91075515868647 L 333.051091353763,351.753884405185 L 331.6181328833182,347.5789745056369 L 337.4731120369931,338.9462671266702 L 348.06916886514216,335.8434157020873 L 353.50433591136306,332.095024985826 L 358.1614512812431,327.0672666893376 L 368.63436322714256,331.60811801711725 L 377.18733451768685,339.8612381631399 L 384.0666553070339,343.0869237331337 L 383.6524407385199,348.558242337749 L 378.04375115452297,351.78320102638986 L 376.96903244782067,357.65779735348696 L 380.96004594575663,362.7167394823053 L 385.3037016684842,367.8277692981234 L 386.8318175213832,370.72293888913345 L 388.4550907567091,373.5651521124263 L 391.2874230485148,376.3309827464319 L 394.06378034070786,378.72162711527614 L 394.9817693212573,383.8246917577446 L 396.3251774626456,388.20109574777496" fill="none" stroke="#000000" stroke-width="0.7974889525898852"/>
	<path d="M 434.5333121298965,346.61464202805195 L 431.80949184687086,347.99983800165666 L 426.9700833478382,352.28439590714345 L 423.3206933286253,358.0087104865661 L 421.8838561802856,364.82138742322127 L 420.73791256329343,366.6674350127159 L 415.75746476320074,369.288671368024 L 414.6203358588114,370.94069779988416 L 413.73884076881063,373.4416764339798 L 406.4224306552833,380.2331898449402 L 401.15990446972063,386.2762701378474 L 398.1892657348015,388.8131617833633 L 396.86702288316746,388.18587308165434 L 396.3251774626456,388.20109574777496 L 394.9817693212573,383.8246917577446 L 394.06378034070786,378.72162711527614 L 391.2874230485148,376.3309827464319 L 388.4550907567091,373.5651521124263 L 386.8318175213832,370.72293888913345 L 385.3037016684842,367.8277692981234 L 380.96004594575663,362.7167394823053 L 376.96903244782067,357.65779735348696 L 378.04375115452297,351.78320102638986 L 383.6524407385199,348.558242337749 L 384.0666553070339,343.0869237331337 L 377.18733451768685,339.8612381631399 L 368.63436322714256,331.60811801711725 L 358.1614512812431,327.0672666893376 L 354.90930688199614,320.31953246902793 L 353.34200845145256,312.95434553821406 L 355.7041511751352,304.93025486303594 L 354.7749671167258,296.91035092124577 L 355.5194339491579,287.0974719352621 L 359.5776173297399,277.85778202379583 L 367.5820342864836,277.9987730832461 L 370.5095237659131,269.33859386458016 L 373.57695074435975,262.86273076770095 L 380.9880334455557,259.3069991280388 L 384.5704297190729,263.8559249536648 L 388.34314095231963,268.2280207924049 L 393.95742788040815,271.36574664346574 L 399.18548773979626,275.23760077553806 L 399.3590098879009,285.4118218538762 L 405.22518411943224,294.8610712824402 L 403.3388285028161,299.91654436354696 L 402.29209710108444,305.49381603307154 L 404.61505705227233,313.53539590625496 L 408.61726562805745,320.7831104424089 L 413.9404826750568,324.7320981040576 L 417.9650814065494,329.62522828521924 L 418.54722058426063,333.5263782163977 L 421.0381057291112,336.19535846065685 L 425.93591351939153,336.04285010926725 L 430.80573361504617,336.2246869126499 L 433.5541032126063,340.2776598742714 L 433.7332230944794,345.18640678697307 L 434.5333121298965,346.61464202805195" fill="none" stroke="#000000" stroke-width="0.7974889525898852"/>
	<path d="M 439.53754438431827,344.5724995728269 L 436.80756950542036,345.46027413822463 L 434.5333121298965,346.61464202805195 L 433.7332230944794,345.18640678697307 L 433.5541032126063,340.2776598742714 L 430.80573361504617,336.2246869126499 L 425.93591351939153,336.04285010926725 L 421.0381057291112,336.19535846065685 L 418.54722058426063,333.5263782163977 L 417.9650814065494,329.62522828521924 L 413.9404826750568,324.7320981040576 L 408.61726562805745,320.7831104424089 L 404.61505705227233,313.53539590625496 L 402.29209710108444,305.49381603307154 L 403.3388285028161,299.91654436354696 L 405.22518411943224,294.8610712824402 L 399.3590098879009,285.4118218538762 L 399.18548773979626,275.23760077553806 L 405.28675646314554,277.42893054113296 L 409.25538019502915,284.55428447246015 L 416.1570905555946,287.10334499255276 L 423.2603109537551,289.0238376558898 L 433.5037257519265,291.0264501340134 L 442.69481160943155,286.7744435977503 L 443.2713534430403,284.68350383890845 L 444.26770757890245,282.65706181505914 L 446.82016487265236,281.79358844512086 L 449.56293712610636,281.66435966799975 L 454.5894871427424,281.87582487822414 L 459.6104396204602,282.1342811690402 L 465.4822113909098,286.739203913724 L 470.3968112135031,292.2831678308745 L 473.39706830931993,296.2409706623353 L 474.6173220539793,300.7502515373003 L 479.16808496357595,305.14159125003926 L 480.9033081981289,311.56331082430125 L 490.89483588768593,301.1377430150474 L 503.48360059792964,296.4758424240499 L 508.2078860452787,295.471756499065 L 512.2884593867398,292.8292988486594 L 519.6491644324201,291.24960857840273 L 527.4016942805567,294.20927155550635 L 524.698104409937,297.1745765063221 L 523.4554607043823,300.6680558326718 L 524.6757144490543,300.76786501092573 L 525.8399931941066,300.25120382841675 L 526.8139573691024,305.9399624523376 L 526.4109376836128,311.63374413263114 L 521.9553321564812,317.3912332931886 L 518.4680932654036,323.3414905082454 L 527.0490520557578,332.4763333432029 L 539.766559382005,335.02220307631234 L 538.3783808333218,342.27173054049314 L 537.632148884457,348.23832455971024 L 526.3939247523332,340.48224402317777 L 521.5985908994852,337.9329482584628 L 518.4163934296189,337.56347089033096 L 517.0412610025653,339.6879162733686 L 517.1558552992747,342.2370961473219 L 517.5437132688601,344.7953426651147 L 516.9442963476919,346.87321572064127 L 515.005007149702,347.5104079194401 L 511.96384876424565,347.50117312438056 L 509.1695090473346,346.9655630318697 L 507.94423063392946,346.152899062318 L 504.30365554395127,339.9650091772378 L 502.5759250809068,338.3024218545655 L 500.962788914559,337.78515773662997 L 467.58056632514837,334.12716344092786 L 461.5335094878356,334.41353407641986 L 461.87182722793483,327.65983715545343 L 455.82653350419275,326.7504432294922 L 451.76275258469434,327.85931421333675 L 447.642996665576,327.46622612740146 L 444.97858937261,323.28281412187476 L 442.3365718456999,319.53319761922796 L 436.5375676916467,322.7840600923046 L 435.96662339696707,329.26735840839865 L 440.7804684930164,336.3654629261513 L 439.53754438431827,344.5724995728269" fill="none" stroke="#000000" stroke-width="0.7974889525898852"/>
	<path d="M 461.5335094878356,334.41353407641986 L 460.6079395350145,334.45972257913945 L 457.10840352946076,335.4943332345655 L 450.3032608280858,338.7827321848859 L 444.6969515357779,342.56958548881414 L 442.5725481738988,343.5855070986964 L 439.53754438431827,344.5724995728269 L 440.7804684930164,336.3654629261513 L 435.96662339696707,329.26735840839865 L 436.5375676916467,322.7840600923046 L 442.3365718456999,319.53319761922796 L 444.97858937261,323.28281412187476 L 447.642996665576,327.46622612740146 L 451.76275258469434,327.85931421333675 L 455.82653350419275,326.7504432294922 L 461.87182722793483,327.65983715545343 L 461.5335094878356,334.41353407641986" fill="none" stroke="#000000" stroke-width="0.7974889525898852"/>
	<path d="M 633.5308489525437,351.5087785750279 L 629.431896459091,350.7793143954003 L 619.9381934082795,347.5750498342775 L 615.6364968924916,346.87321572064127 L 611.8989573642737,345.6542105429578 L 605.6315264294988,340.3344635092975 L 600.845007722532,339.11525133471605 L 596.66672064932,339.98348214823847 L 592.4179137089388,341.424332525806 L 588.1250323390212,341.7198848547822 L 583.779260960413,339.11525133471605 L 579.2483758512101,343.29920464949845 L 551.1022346596324,345.46027413822463 L 542.692770721157,348.55390238022983 L 538.2500349043108,348.66471448317486 L 537.632148884457,348.23832455971024 L 538.3783808333218,342.27173054049314 L 539.766559382005,335.02220307631234 L 527.0490520557578,332.4763333432029 L 518.4680932654036,323.3414905082454 L 521.9553321564812,317.3912332931886 L 526.4109376836128,311.63374413263114 L 526.8139573691024,305.9399624523376 L 525.8399931941066,300.25120382841675 L 524.6757144490543,300.76786501092573 L 523.4554607043823,300.6680558326718 L 524.698104409937,297.1745765063221 L 527.4016942805567,294.20927155550635 L 539.7553644989698,272.5643597431145 L 552.5792240906937,259.1130406155332 L 552.5680290128337,266.9940127961689 L 556.4470925115407,274.1918278693479 L 557.6785415288995,283.6144956740446 L 559.2010600376815,292.87040506662544 L 564.1380498211555,300.3686273454907 L 569.0862348773019,307.86537730219504 L 572.1032845898934,315.44869085377553 L 575.4058060601669,322.8896787732668 L 581.5686473220688,315.6658380273678 L 586.2033727310699,309.65569127887255 L 589.7185993167695,301.172969392345 L 597.1072918622616,296.023713322143 L 599.945221692991,298.1022881429801 L 602.9174910941731,299.91654436354696 L 606.544667484275,299.55252587213727 L 610.0822838360306,300.53301966266116 L 615.343928734145,306.292179674706 L 621.5067701908699,310.8178831379005 L 628.3133231689993,309.8435227133925 L 634.6720767347097,310.5067948279671 L 633.5581754503355,315.74800150735047 L 631.9572919810511,321.66917415018725 L 628.4812479730106,327.3958216896304 L 625.6601107590668,333.41492240979835 L 627.1266544630664,336.41825384951966 L 629.72389187339,338.6295412958766 L 632.4218840102558,345.1746782594454 L 633.5308489525437,351.5087785750279" fill="none" stroke="#000000" stroke-width="0.7974889525898852"/>
	<path d="M 673.4546208064197,349.74884992481316 L 668.8259159522416,347.78744461585813 L 659.7641455171913,346.5038242656225 L 649.3184277258363,350.7793143954003 L 633.5308489525437,351.5087785750279 L 632.4218840102558,345.1746782594454 L 629.72389187339,338.6295412958766 L 627.1266544630664,336.41825384951966 L 625.6601107590668,333.41492240979835 L 628.4812479730106,327.3958216896304 L 631.9572919810511,321.66917415018725 L 642.8276262683413,314.938097151238 L 651.1343079892058,304.4253911674387 L 656.5918648014936,293.9215367963406 L 666.0572279233187,290.23951240511474 L 669.6508192746815,298.4076057244133 L 673.8489401542895,305.9751841980228 L 679.3064969665774,310.905926621022 L 683.8628574150904,316.56375747619734 L 684.097952296567,323.6466070065668 L 681.1592677392919,330.2118924569399 L 677.3249841623427,340.529856810815 L 673.4546208064197,349.74884992481316" fill="none" stroke="#000000" stroke-width="0.7974889525898852"/>
	<path d="M 186.6206380967994,71.2646044471816 L 186.09447352906747,63.6904933106344 L 185.4731515788705,56.12661894910911 L 187.34831231246585,49.2704918448475 L 189.7440398800501,42.5667788317991 L 197.14392750338962,45.203484624244716 L 204.14639278533838,48.63209645800509 L 208.96583561512713,52.29089418970043 L 214.82081457397723,53.82168654992989 L 223.60888094082478,56.587587521367006 L 230.91920852582712,62.4260180244743 L 239.08035540355036,66.52653912589031 L 248.204271378433,67.73179158949719 L 246.78810532993984,75.38775389611772 L 243.63671585206345,82.35705778818543 L 238.0895990014385,83.08344228810384 L 232.7104067599909,79.28600383229227 L 233.09663382870582,83.8806768256803 L 234.83185725808724,87.99058676801354 L 237.96645411918894,89.50216131538235 L 241.18501347969504,91.48600759445358 L 240.98350363695567,97.76747583649166 L 239.47777774494836,104.34296786517463 L 244.42036506733888,108.06107988664027 L 243.55835089157367,112.10926129269298 L 234.0314154260335,112.16826942983535 L 225.09221687195125,108.33254638405464 L 223.16108152839837,110.76385128063039 L 221.11239845187174,113.72604818395897 L 217.98339912969917,114.13908450578892 L 214.80961969095648,113.4192182109802 L 208.50684112485516,110.76385128063039 L 202.48393716716726,107.42371615928447 L 186.53107805846227,104.56134371696851 L 178.8625107097301,91.78711761825596 L 181.33660323780052,83.9338251877096 L 179.99880214980803,75.60630329720827 L 181.3589931986813,70.73293226578801 L 186.6206380967994,71.2646044471816" fill="none" stroke="#000000" stroke-width="0.7974889525898852"/>
	<path d="M 132.15701744045683,86.29589562155627 L 135.88494875192927,89.07703724725788 L 142.46760231608636,91.5273367014481 L 149.4980550978487,90.93101395176923 L 153.71296839940482,88.77000041054994 L 158.33649873056214,88.17363234013295 L 165.09267444283472,92.12955378539806 L 171.9048251547145,92.76718422521448 L 175.11218943737504,90.51771524625839 L 178.8625107097301,91.78711761825596 L 186.53107805846227,104.56134371696851 L 202.48393716716726,107.42371615928447 L 199.6292149144826,111.318543943782 L 199.16462288527606,115.84428518553106 L 202.02494248206503,117.86800179966713 L 203.88331059887304,120.12168861914822 L 195.58222661176248,122.92385508598345 L 187.74573445903178,126.65187944915749 L 183.6539660397198,126.87012221029345 L 179.57899004236492,126.44543250063491 L 176.24288333852385,128.65730586868182 L 173.572878701468,131.75370486071617 L 169.62104758636272,135.02675769277485 L 166.58160810771517,139.17810351521132 L 165.85953123614942,146.08221795080988 L 165.2494043638107,153.114713653448 L 166.02185850122967,157.9123123611039 L 169.6042549695844,161.29501156353945 L 169.90651973369435,168.23623824545527 L 168.7590334105957,175.40001244475954 L 157.2225974461862,175.28219848380726 L 147.84679416788435,170.63413578508997 L 138.3366513191225,165.57303504937147 L 128.66977854938108,160.7351785847987 L 121.96957764190351,151.8120640990398 L 112.99119670498699,146.05274110358448 L 109.33603281507521,142.04367429179553 L 107.18659501199376,137.11428279683207 L 117.77705449604937,132.4083388058317 L 120.39668167242898,117.89750124394813 L 122.0479426023933,113.09468377529521 L 121.57215569016422,107.93714915424687 L 124.24216052205033,98.28104429059631 L 129.28550296064532,89.95089798460667 L 132.15701744045683,86.29589562155627" fill="none" stroke="#000000" stroke-width="0.7974889525898852"/>
	<path d="M 302.4104071924127,130.07873294439574 L 307.57129677950877,133.93577257084158 L 314.41143499119846,134.60805922122447 L 319.2700602038342,132.70911255270636 L 323.71447065311844,131.75370486071617 L 328.0693214537025,142.68633342376654 L 334.1649928329511,141.4953415189825 L 337.3723571156207,149.21841676535607 L 341.71601264352347,156.44480855879536 L 347.7725014451256,162.3026897122546 L 356.62773769461376,162.91553312775187 L 363.64139824923467,173.70934511247583 L 374.4333673812085,180.81316495393253 L 374.84198460562,181.4257026858774 L 375.256199174134,182.03234063801318 L 370.4423538832725,183.8168595202542 L 365.13592925822127,186.567088528821 L 356.52138523431404,190.64200065931345 L 350.4145189720338,197.7013791894861 L 348.79684308080135,191.79019737205445 L 343.6079657990705,188.7223721937134 L 339.3426750368345,190.23570720830662 L 337.00852000778656,194.4750736036224 L 326.6867402491254,197.2716137600337 L 322.18075726130303,205.6658634052458 L 321.99044249640923,221.22497217333395 L 309.03224274976355,231.8313590923385 L 307.0731199064007,247.5854098860738 L 319.7906272326479,262.4395867422379 L 316.68401767653313,272.5349823927002 L 311.0417434434595,279.70237481766185 L 306.47418811192205,283.8964347719977 L 303.1548736352078,287.5849454864207 L 293.5719633648889,287.461609382378 L 283.7595557520026,287.70240822689095 L 286.8269827304601,274.70296746825704 L 278.60986085311697,264.74919000094434 L 265.3885791148344,258.0315562024968 L 256.1527133355695,245.52758411937467 L 253.7122058462236,224.54309923008637 L 242.33809714690165,216.80623052932398 L 240.50211899097263,211.91617657680578 L 236.91972271744453,208.2732303205048 L 237.87129673673658,203.21135879391198 L 236.27601080638124,198.3666230334908 L 242.58998445033174,195.25223849385674 L 249.7155948093549,192.16703386737677 L 263.1999589289313,185.6660722798709 L 274.5572748166393,177.07882205676998 L 277.1936948046238,170.94638132609052 L 281.856407713433,170.68715880582906 L 287.5434620630949,171.7947332168446 L 286.90534749612505,165.23128289025686 L 288.46704838775224,157.47029917545186 L 285.0525769182462,151.4937625597624 L 278.43074116608324,149.6605286669984 L 273.1914862288369,145.657749406762 L 274.73639469851236,141.0118586422945 L 280.0987943231726,139.51420051691784 L 290.98032349347994,133.7883397069052 L 302.4104071924127,130.07873294439574" fill="none" stroke="#000000" stroke-width="0.7974889525898852"/>
	<path d="M 372.9388363722256,86.7446717819577 L 379.21922517226,92.25944243270044 L 384.150617611628,100.3116352494487 L 382.86879152325537,106.13125013023716 L 381.12237321084046,113.4487212362597 L 374.9539344100222,118.68217684743408 L 365.8468108571003,123.09492770983496 L 361.62630021143985,132.73270253442152 L 359.8574919381551,143.41741835465348 L 356.8236499984258,153.20902148253978 L 356.62773769461376,162.91553312775187 L 347.7725014451256,162.3026897122546 L 341.71601264352347,156.44480855879536 L 337.3723571156207,149.21841676535607 L 334.1649928329511,141.4953415189825 L 338.84449816371193,128.13826483683195 L 339.66732956699684,115.28966104941081 L 339.5945623402646,100.05781739935085 L 346.8209276206602,91.11404475625828 L 350.73917369702644,92.57825791066082 L 354.3271675094691,94.32579021486436 L 356.8852223421373,100.42378675616958 L 362.00133239711954,96.9528352509935 L 366.4457428464038,90.4822895540754 L 372.9388363722256,86.7446717819577" fill="none" stroke="#000000" stroke-width="0.7974889525898852"/>
	<path d="M 386.49037017960325,100.28212142156664 L 388.7965379036643,100.72482304908401 L 396.48189786917294,105.38171662097561 L 403.8314080318199,110.36257917505877 L 406.3838655203819,117.59660616829026 L 407.0107848146814,125.42497635349343 L 409.6919845295991,135.04444922003574 L 417.22061457411553,140.53426551295868 L 423.803267943446,141.37741932084455 L 426.7531475785721,146.677644442338 L 437.29322940711216,155.57252960891825 L 452.17136961429003,159.32082584907815 L 466.72485509646265,166.15047152925797 L 481.7317373351569,169.04341032171405 L 492.3110019361827,164.01155490444648 L 505.42033367523646,167.12266548557088 L 505.43152875308385,173.29108445085495 L 499.682901864882,177.12594540616183 L 496.2740279343087,179.39368763174198 L 493.34653845489186,183.0335664271245 L 492.5684867785419,190.1650470698988 L 488.30879336039754,194.22190280172106 L 474.1079501030238,193.67434133774807 L 462.49874671704646,195.04617363298638 L 462.05094710980427,197.58952282340204 L 461.7710723065624,201.11577860791408 L 458.490940797157,205.4421982497259 L 452.66394914329203,205.23618962620318 L 454.6510594864539,198.9494373153108 L 455.38433143586883,192.8794796404937 L 450.7719959877468,189.94128897819945 L 445.4039988241574,188.27483712507842 L 438.4071308863129,187.79196444244567 L 431.74051501756173,187.7154108785439 L 426.6244051573916,186.12541659045672 L 421.7433901787144,183.85808472430995 L 416.1067130949184,181.3020182320428 L 409.9606644498039,180.83672426832814 L 400.4729111722732,179.7353095827166 L 390.8844033630216,179.90022925219293 L 386.42320049178744,180.6953679529852 L 381.878034926306,179.86488948713207 L 377.68551158563065,178.716324727594 L 373.6609132437786,180.03569858699825 L 374.33820999875434,179.84721938699735 L 374.4333673812085,180.81316495393253 L 363.64139824923467,173.70934511247583 L 356.62773769461376,162.91553312775187 L 356.8236499984258,153.20902148253978 L 359.8574919381551,143.41741835465348 L 361.62630021143985,132.73270253442152 L 365.8468108571003,123.09492770983496 L 374.9539344100222,118.68217684743408 L 381.12237321084046,113.4487212362597 L 382.86879152325537,106.13125013023716 L 384.150617611628,100.3116352494487 L 386.49037017960325,100.28212142156664" fill="none" stroke="#000000" stroke-width="0.7974889525898852"/>
	<path d="M 316.75118755917373,96.05552887666332 L 315.8331985786135,100.67760185801299 L 312.5978467961539,104.30755558633538 L 309.6423698169144,109.19414384308082 L 308.39972611137244,114.90023934486221 L 309.01545052262577,120.08629159407886 L 308.9594755230168,125.12414299354336 L 305.62336881917577,127.67819966773303 L 302.4104071924127,130.07873294439574 L 290.98032349347994,133.7883397069052 L 280.0987943231726,139.51420051691784 L 274.73639469851236,141.0118586422945 L 273.1914862288369,145.657749406762 L 278.43074116608324,149.6605286669984 L 285.0525769182462,151.4937625597624 L 288.46704838775224,157.47029917545186 L 286.90534749612505,165.23128289025686 L 287.5434620630949,171.7947332168446 L 281.856407713433,170.68715880582906 L 277.1936948046238,170.94638132609052 L 274.5572748166393,177.07882205676998 L 263.1999589289313,185.6660722798709 L 249.7155948093549,192.16703386737677 L 242.58998445033174,195.25223849385674 L 236.27601080638124,198.3666230334908 L 237.87129673673658,203.21135879391198 L 236.91972271744453,208.2732303205048 L 231.30543578935416,206.50165326552798 L 225.6855513223347,204.7299922555088 L 220.39591931406173,205.9071849807151 L 215.42534410220983,208.34385618647934 L 205.6521188721687,205.30682122950714 L 196.0020387192056,199.12604590068347 L 191.88228280009815,195.42886458191342 L 191.22177827224567,189.7764138102415 L 189.36900788918257,186.39630921663831 L 185.75862372621845,184.53535416650573 L 176.9033876715515,180.19472714933866 L 168.7590334105957,175.40001244475954 L 169.90651973369435,168.23623824545527 L 169.6042549695844,161.29501156353945 L 166.02185850122967,157.9123123611039 L 165.2494043638107,153.114713653448 L 165.85953123614942,146.08221795080988 L 166.58160810771517,139.17810351521132 L 169.62104758636272,135.02675769277485 L 173.572878701468,131.75370486071617 L 176.24288333852385,128.65730586868182 L 179.57899004236492,126.44543250063491 L 183.6539660397198,126.87012221029345 L 187.74573445903178,126.65187944915749 L 195.58222661176248,122.92385508598345 L 203.88331059887304,120.12168861914822 L 202.02494248206503,117.86800179966713 L 199.16462288527606,115.84428518553106 L 199.6292149144826,111.318543943782 L 202.48393716716726,107.42371615928447 L 208.50684112485516,110.76385128063039 L 214.80961969095648,113.4192182109802 L 217.98339912969917,114.13908450578892 L 221.11239845187174,113.72604818395897 L 223.16108152839837,110.76385128063039 L 225.09221687195125,108.33254638405464 L 234.0314154260335,112.16826942983535 L 243.55835089157367,112.10926129269298 L 244.42036506733888,108.06107988664027 L 239.47777774494836,104.34296786517463 L 240.98350363695567,97.76747583649166 L 241.18501347969504,91.48600759445358 L 237.96645411918894,89.50216131538235 L 234.83185725808724,87.99058676801354 L 233.09663382870582,83.8806768256803 L 232.7104067599909,79.28600383229227 L 238.0895990014385,83.08344228810384 L 243.63671585206345,82.35705778818543 L 246.78810532993984,75.38775389611772 L 248.204271378433,67.73179158949719 L 254.95484955177645,69.30919370985474 L 260.9609610875,71.03421410407365 L 265.84197626101474,75.18692369110076 L 270.6614188959805,79.46318683703123 L 280.34508428250024,79.02022729535202 L 281.1287333029508,65.59303203371817 L 292.6931565723291,70.70930222402446 L 297.1935422160598,81.59522424446872 L 303.55789332070106,91.87567923102021 L 316.75118755917373,96.05552887666332" fill="none" stroke="#000000" stroke-width="0.7974889525898852"/>
	<path d="M 137.15557995729202,352.2288105622208 L 128.76493573700859,350.10039250224975 L 120.92844377909006,345.2978287433059 L 112.62176205822192,341.55622280663044 L 90.38851453912123,332.87523643884873 L 84.30963558182616,313.0482533792524 L 86.7389481881386,308.28801646129443 L 88.20549150248678,303.16320254084735 L 87.85844701143822,300.2746885607262 L 88.8995808742408,297.7617382169686 L 95.83487646838645,295.55396339720755 L 102.87092698389003,293.6279274061872 L 113.06956147065195,297.3800841431066 L 123.7831658369481,299.52904049121344 L 133.51161114522762,304.4430027422013 L 144.05729070752346,305.2531294730199 L 148.7256009604297,302.26496852024815 L 153.72416347726488,300.5741177846187 L 159.7078848572828,301.23167967650204 L 165.6468265103748,300.19836307682 L 175.9406185744157,297.1276032118025 L 183.8218906489098,301.5487143051566 L 194.11008556365852,311.91547627428184 L 207.63363187123895,316.58723219487644 L 214.46257519989703,317.8255041911283 L 220.22239677629298,321.66917415018725 L 220.14962935473412,325.69434567796054 L 215.5708789453402,327.41928978182244 L 211.31118572202067,322.00364345685244 L 208.41728108650352,327.9062498171074 L 205.03079692198622,333.48531562061976 L 199.43889995476215,337.57376991802874 L 192.7946742417202,339.99027057439093 L 189.30743515581963,342.8230140814616 L 186.84453770560566,346.57036106343014 L 183.34050639257822,348.96870656601016 L 179.71333000247458,351.2437721652583 L 175.9182286135349,357.2063878550399 L 175.2745167024571,364.56311807253667 L 167.48280466631286,365.102361253991 L 161.4487058256042,360.1375236923943 L 155.82322381965741,349.6313040665974 L 145.45666413922922,348.9862979324957 L 137.15557995729202,352.2288105622208" fill="none" stroke="#000000" stroke-width="0.7974889525898852"/>
	<path d="M 130.8472038522616,190.22393063035875 L 139.09791057351893,189.75874841667655 L 145.90446374648408,184.55891132798232 L 146.34106827587888,177.5088206600635 L 147.84679416788435,170.63413578508997 L 157.2225974461862,175.28219848380726 L 168.7590334105957,175.40001244475954 L 176.9033876715515,180.19472714933866 L 185.75862372621845,184.53535416650573 L 189.36900788918257,186.39630921663831 L 191.22177827224567,189.7764138102415 L 191.88228280009815,195.42886458191342 L 196.0020387192056,199.12604590068347 L 205.6521188721687,205.30682122950714 L 215.42534410220983,208.34385618647934 L 220.39591931406173,205.9071849807151 L 225.6855513223347,204.7299922555088 L 231.30543578935416,206.50165326552798 L 236.91972271744453,208.2732303205048 L 240.50211899097263,211.91617657680578 L 242.33809714690165,216.80623052932398 L 240.52450895185345,221.68387971582203 L 235.9905386590478,223.91950198447003 L 235.1229267495268,228.33152379115168 L 232.07229258268154,231.24317429162934 L 226.7546726849472,234.95446628397033 L 224.12385043072203,240.65890857025397 L 222.67969688241533,251.93587253966606 L 222.5677470780222,263.6502361779685 L 220.8773035703915,267.51700199577044 L 217.91622924705857,270.35512172531054 L 214.76483976919306,269.06242271070226 L 212.94005669111505,265.1311718181092 L 205.89281129257805,267.3348379732166 L 207.2641974192987,275.89560038099694 L 207.00671257695217,278.78008951300086 L 204.74532477464007,281.8582030778581 L 206.18388097884247,284.34283395069485 L 206.6764605078444,287.2677947264503 L 202.58469208853603,289.19415203413706 L 199.04147800302647,290.5390204305988 L 193.33763123141472,299.00062009600845 L 183.8218906489098,301.5487143051566 L 175.9406185744157,297.1276032118025 L 165.6468265103748,300.19836307682 L 159.7078848572828,301.23167967650204 L 153.72416347726488,300.5741177846187 L 148.7256009604297,302.26496852024815 L 144.05729070752346,305.2531294730199 L 133.51161114522762,304.4430027422013 L 123.7831658369481,299.52904049121344 L 113.06956147065195,297.3800841431066 L 102.87092698389003,293.6279274061872 L 105.95514638429736,286.39855283843184 L 103.45306635641339,279.93734842243896 L 97.59808720275299,278.56273229268226 L 93.57908620500346,274.2858310425558 L 93.59028108803871,268.6981088494292 L 92.03417773534248,263.4739302730904 L 87.63454701298234,259.6420164064361 L 82.74233695645773,256.4680512883831 L 85.33957456160438,245.3864716351606 L 81.58365575032201,240.62950621118577 L 83.40284148429753,228.33152379115168 L 88.7764359919912,216.96510247659006 L 93.55669624412448,212.64001546871285 L 99.68035492835453,212.02210511381372 L 106.38615317994908,210.06237905294802 L 109.77823488339912,202.8522930325667 L 112.31949729411377,193.1385476964666 L 116.70233559450955,184.92404234886905 L 124.05184556233169,186.09597137591462 L 130.8472038522616,190.22393063035875" fill="none" stroke="#000000" stroke-width="0.7974889525898852"/>
	<path d="M 350.4145189720338,197.7013791894861 L 352.88861150010786,203.08774621245843 L 354.853332077212,208.3791691718815 L 355.87207597914824,214.53487709064362 L 361.3576204860563,217.1769306918238 L 363.3391334851265,219.70700799084494 L 364.0052353570724,223.0546850279974 L 367.4085119435541,227.54916300215362 L 371.9480799701028,230.8608490413532 L 381.26231070986836,237.48922729038134 L 386.9101824818712,247.2385269898906 L 382.4545769547287,252.18865424587915 L 380.9880334455557,259.3069991280388 L 373.57695074435975,262.86273076770095 L 370.5095237659131,269.33859386458016 L 367.5820342864836,277.9987730832461 L 359.5776173297399,277.85778202379583 L 354.03050028427924,273.9920700465012 L 348.253886091105,271.6654034178638 L 343.014631543521,273.53379852402446 L 337.6018544581736,274.1154500685611 L 328.8865555128831,267.72267018583227 L 319.7906272326479,262.4395867422379 L 307.0731199064007,247.5854098860738 L 309.03224274976355,231.8313590923385 L 321.99044249640923,221.22497217333395 L 322.18075726130303,205.6658634052458 L 326.6867402491254,197.2716137600337 L 337.00852000778656,194.4750736036224 L 339.3426750368345,190.23570720830662 L 343.6079657990705,188.7223721937134 L 348.79684308080135,191.79019737205445 L 350.4145189720338,197.7013791894861" fill="none" stroke="#000000" stroke-width="0.7974889525898852"/>
	<path d="M 386.9101824818712,247.2385269898906 L 381.26231070986836,237.48922729038134 L 371.9480799701028,230.8608490413532 L 367.4085119435541,227.54916300215362 L 364.0052353570724,223.0546850279974 L 363.3391334851265,219.70700799084494 L 361.3576204860563,217.1769306918238 L 355.87207597914824,214.53487709064362 L 354.853332077212,208.3791691718815 L 352.88861150010786,203.08774621245843 L 350.4145189720338,197.7013791894861 L 356.52138523431404,190.64200065931345 L 365.13592925822127,186.567088528821 L 370.4423538832725,183.8168595202542 L 375.256199174134,182.03234063801318 L 374.84198460562,181.4257026858774 L 374.4333673812085,180.81316495393253 L 374.33820999875434,179.84721938699735 L 373.6609132437786,180.03569858699825 L 377.68551158563065,178.716324727594 L 381.878034926306,179.86488948713207 L 386.42320049178744,180.6953679529852 L 390.8844033630216,179.90022925219293 L 400.4729111722732,179.7353095827166 L 409.9606644498039,180.83672426832814 L 416.1067130949184,181.3020182320428 L 421.7433901787144,183.85808472430995 L 426.6244051573916,186.12541659045672 L 431.74051501756173,187.7154108785439 L 438.4071308863129,187.79196444244567 L 445.4039988241574,188.27483712507842 L 450.7719959877468,189.94128897819945 L 455.38433143586883,192.8794796404937 L 454.6510594864539,198.9494373153108 L 452.66394914329203,205.23618962620318 L 449.41740228297596,219.8776348847268 L 445.6838734325726,234.67216236969836 L 439.6161897479497,239.35931262003055 L 432.56894434941273,235.90722707285263 L 428.2364835097095,235.11326145836608 L 425.5776737556599,239.10056419103108 L 421.72100002300874,238.48308939755606 L 417.18143219128484,237.57744083613278 L 411.4719878807403,238.97707004238913 L 407.3242444618248,242.65231903601574 L 398.1443534873314,244.8631761580514 L 386.9101824818712,247.2385269898906" fill="none" stroke="#000000" stroke-width="0.7974889525898852"/>
	<path d="M 319.7906272326479,262.4395867422379 L 328.8865555128831,267.72267018583227 L 337.6018544581736,274.1154500685611 L 343.014631543521,273.53379852402446 L 348.253886091105,271.6654034178638 L 354.03050028427924,273.9920700465012 L 359.5776173297399,277.85778202379583 L 355.5194339491579,287.0974719352621 L 354.7749671167258,296.91035092124577 L 355.7041511751352,304.93025486303594 L 353.34200845145256,312.95434553821406 L 354.90930688199614,320.31953246902793 L 358.1614512812431,327.0672666893376 L 353.50433591136306,332.095024985826 L 348.06916886514216,335.8434157020873 L 337.4731120369931,338.9462671266702 L 331.6181328833182,347.5789745056369 L 326.8490675142057,338.15444787002417 L 322.3486820653142,330.43482272321666 L 315.35741166638803,326.86778551854434 L 308.1478388079423,322.1620752041495 L 303.1212887912954,320.38408153570896 L 299.3597726359196,316.7750296308595 L 297.7197067838027,313.4004053744454 L 294.5179400400731,311.44592168905535 L 289.9839695524426,299.9459005850991 L 283.7595557520026,287.70240822689095 L 293.5719633648889,287.461609382378 L 303.1548736352078,287.5849454864207 L 306.47418811192205,283.8964347719977 L 311.0417434434595,279.70237481766185 L 316.68401767653313,272.5349823927002 L 319.7906272326479,262.4395867422379" fill="none" stroke="#000000" stroke-width="0.7974889525898852"/>
	<path d="M 380.9880334455557,259.3069991280388 L 382.4545769547287,252.18865424587915 L 386.9101824818712,247.2385269898906 L 398.1443534873314,244.8631761580514 L 407.3242444618248,242.65231903601574 L 411.4719878807403,238.97707004238913 L 417.18143219128484,237.57744083613278 L 421.72100002300874,238.48308939755606 L 425.5776737556599,239.10056419103108 L 428.2364835097095,235.11326145836608 L 432.56894434941273,235.90722707285263 L 439.6161897479497,239.35931262003055 L 445.6838734325726,234.67216236969836 L 449.41740228297596,219.8776348847268 L 452.66394914329203,205.23618962620318 L 458.490940797157,205.4421982497259 L 461.7710723065624,201.11577860791408 L 462.05094710980427,197.58952282340204 L 462.49874671704646,195.04617363298638 L 474.1079501030238,193.67434133774807 L 488.30879336039754,194.22190280172106 L 494.4716346222849,198.94355030025645 L 500.6960484227122,203.57630718485282 L 507.5585765952863,207.46690823108338 L 513.8613553562143,212.1515728958684 L 523.8640777339799,221.07200201781743 L 536.2009553356147,227.3020984225304 L 547.0768869669929,232.67832906412883 L 557.6729439899703,238.47720838313842 L 565.5262285646545,239.50044747046437 L 569.5284369456257,243.51668565693907 L 565.4030836824013,246.36248693705775 L 560.9530754993631,249.1081288848714 L 556.43589762852,253.81112004688666 L 552.5792240906937,259.1130406155332 L 539.7553644989698,272.5643597431145 L 527.4016942805567,294.20927155550635 L 519.6491644324201,291.24960857840273 L 512.2884593867398,292.8292988486594 L 508.2078860452787,295.471756499065 L 503.48360059792964,296.4758424240499 L 490.89483588768593,301.1377430150474 L 480.9033081981289,311.56331082430125 L 479.16808496357595,305.14159125003926 L 474.6173220539793,300.7502515373003 L 473.39706830931993,296.2409706623353 L 470.3968112135031,292.2831678308745 L 465.4822113909098,286.739203913724 L 459.6104396204602,282.1342811690402 L 454.5894871427424,281.87582487822414 L 449.56293712610636,281.66435966799975 L 446.82016487265236,281.79358844512086 L 444.26770757890245,282.65706181505914 L 443.2713534430403,284.68350383890845 L 442.69481160943155,286.7744435977503 L 433.5037257519265,291.0264501340134 L 423.2603109537551,289.0238376558898 L 416.1570905555946,287.10334499255276 L 409.25538019502915,284.55428447246015 L 405.28675646314554,277.42893054113296 L 399.18548773979626,275.23760077553806 L 393.95742788040815,271.36574664346574 L 388.34314095231963,268.2280207924049 L 384.5704297190729,263.8559249536648 L 380.9880334455557,259.3069991280388" fill="none" stroke="#000000" stroke-width="0.7974889525898852"/>
</svg>
