<?xml version="1.0" ?>
<svg xmlns="http://www.w3.org/2000/svg" xmlns:ev="http://www.w3.org/2001/xml-events" xmlns:xlink="http://www.w3.org/1999/xlink" baseProfile="full" height="521px" version="1.1" viewBox="-80.4 -69.8328684939077 960.8 833.9944219268923" width="600px">
	<defs/>
	<path d="M 799.2615296658769,652.0482336720696 L 773.3127039937813,663.177086208629 L 772.0910214109648,663.2964527100959 L 770.6101940668049,662.1216147036381 L 769.5489345338328,661.9896780936094 L 767.5498176669691,663.742502631549 L 764.7732663966457,670.319415588435 L 759.5656903238896,675.2307706219501 L 759.9852581350914,678.8478433604295 L 761.0958786432086,682.6591289619341 L 760.4048258268826,685.9300577280192 L 758.9116583583266,686.7273337144351 L 755.3453325601762,687.3990387963466 L 754.3334338829586,688.4913132208233 L 752.7045238521316,690.8326694183398 L 748.9349428415981,691.8869474691419 L 748.3731040137329,692.0440797856838 L 746.7935548386604,694.3286849390769 L 728.0857697329609,677.7803483548664 L 722.6067087744713,675.3375305083198 L 719.3612288372125,674.4834407458173 L 717.2633900200387,674.853967923702 L 711.1179567327887,681.4661903426232 L 705.4167716249083,675.4442901481807 L 695.6803320519414,662.2535506252249 L 687.893648370673,648.9911466948428 L 682.2048035065784,644.0913020442764 L 675.5657610648066,640.3695320654843 L 668.753955448809,637.5653288854237 L 659.4370835676193,631.5788046195033 L 653.1929282106745,622.8389828518488 L 643.9130771802556,602.7676617623417 L 640.1122871083254,596.459335401832 L 636.0523521556672,591.1289437269875 L 631.4000863369592,586.3014759918184 L 622.2929983613874,578.8146495945522 L 609.780007518091,568.5183033587581 L 589.0484251773609,555.2833202485017 L 572.9444280483485,544.9911901624712 L 569.3410816382375,541.4208733910987 L 560.9003658720084,526.4850280973769 L 551.6205148415966,510.0761576683134 L 538.9841216798351,495.7207741073242 L 526.4958113241241,481.52865690525664 L 519.2274172849571,476.34107177055637 L 511.11988774281116,473.29950915203966 L 500.3345288806449,471.759628899689 L 496.96564662490107,470.67185855419706 L 484.3045730949666,464.58713584798653 L 477.35702491669025,460.9938558639903 L 469.24284433015146,453.46527383951354 L 470.5206353285568,451.179604360538 L 479.1156038441354,436.8851637234347 L 485.11912455960146,423.7140017233798 L 495.75640077997707,408.5713207901666 L 497.58892455694223,404.0005176883779 L 498.107214159923,399.43526402433145 L 497.8110487031833,394.3998855961094 L 495.4602352158667,382.5908580475796 L 495.2196007956871,378.7453490304665 L 495.3490662846274,377.9261094195229 L 495.51702942680794,377.89267161187894 L 496.18748269363266,377.5328732429585 L 497.2660380060654,377.41293926586013 L 499.4522988196854,377.71277311067786 L 500.6085878891989,378.23747387300295 L 501.11385707146826,379.3917783000518 L 501.5511091864332,384.20332782516834 L 501.95921123203925,385.1975042376807 L 505.4086449416205,386.63124979869906 L 504.86450888081015,384.5680301363585 L 505.86533055555765,383.89857275634415 L 509.1204298724214,384.1134004417114 L 509.9366339636334,384.67793937275707 L 510.28643563172625,385.7620196176061 L 509.7228661913473,386.4364248892071 L 507.8572569764602,385.79199359567565 L 507.11878664233,386.63124979869906 L 512.832214922627,392.5802047445948 L 512.8905151807426,392.29552482060626 L 513.2986172263485,392.08076417835167 L 513.8621866667265,392.30051921894693 L 514.4646229856523,393.33933598175616 L 514.6200903804253,394.2582551651614 L 514.4646229856523,397.59905406849816 L 513.4735181200938,400.3852254768057 L 513.4443679313372,401.75823024147206 L 514.4646229856523,403.395756885052 L 517.515671339413,405.5673200243802 L 518.5164930141605,406.97000488041783 L 518.5262097039438,409.3359309943096 L 519.789382599905,408.5373298716438 L 520.9359549796411,408.0182261411726 L 522.1602609970615,407.9283802187049 L 523.5011676501106,408.41254620748 L 523.5011676501106,406.05152926126897 L 526.2412810949206,407.2595177541838 L 532.615445952253,406.97499649586234 L 536.1328966097401,408.866755681674 L 539.8058147813988,411.5419416265453 L 543.1483646645393,412.48517974152753 L 551.2132378430055,412.7546702164251 L 565.0498394404867,415.923472670485 L 566.410179592509,416.4923200155455 L 567.8482532628169,418.3534633646228 L 569.7721628552172,422.8486107786816 L 571.336553850939,424.93378248245114 L 576.64188008563,428.66473590055716 L 580.1981976216521,431.1284758339417 L 583.0451950123133,434.6391632563743 L 584.9205210363895,438.85237909646156 L 585.6104076827828,443.3739960215902 L 586.5237789106582,445.28810145520083 L 588.4865552622017,446.4943168952662 L 590.46876499332,447.4014351908857 L 591.3821362211893,448.4381045671464 L 591.9068387830254,449.35512505984116 L 594.1319664751943,452.0661344555542 L 595.6963575903137,456.9791478213509 L 598.1838365037014,459.9683763329934 L 603.6834970116983,464.7753636559832 L 606.8122791225526,468.3763133378797 L 607.8422508666531,470.11934116440875 L 608.6584548384675,472.3004597478027 L 609.5718260663349,476.28378994231224 L 610.1062454373618,477.73756157403096 L 611.0973503029214,479.05684242585954 L 612.7297583659467,480.3113451873848 L 616.6941779475818,482.72560444671444 L 618.7638381255721,484.48763128325567 L 620.5517135833704,486.7074257618227 L 624.8853683320634,494.9181217552876 L 626.1485412280317,499.9727113345059 L 627.1882297813202,501.7933325774804 L 634.7769838468829,504.081376428096 L 636.370525150767,504.1808523271584 L 640.2183440967713,502.70359858693683 L 641.705001454809,502.50960996858106 L 642.6475227520364,503.08659780607957 L 644.9698175808617,507.1052856522768 L 646.8937270538573,509.1193858603085 L 647.7779480929762,509.62661776829594 L 649.4880899130902,510.0194675687986 L 650.7998463773828,509.9896311427823 L 653.4525094947253,509.3033827343316 L 654.3853141021683,509.1840335418874 L 656.4452575903683,509.9995766216522 L 660.6525950136473,512.7593176609978 L 662.1975526298016,513.355982637176 L 663.5384592828576,514.31559227572 L 664.1408956017765,516.5528967336221 L 664.4906973892669,519.0833220112961 L 665.0542668296519,520.9374970878376 L 669.9806410880819,524.7647649243859 L 670.7482616109696,526.3651049438154 L 671.2729641728067,526.3849843225139 L 674.0130777370213,530.1170997865121 L 674.8292817088357,531.7867018633783 L 675.1013497392373,531.9506752819943 L 676.1701883618847,532.4276836280602 L 676.4616897718611,532.6164972206426 L 676.9863923336991,534.0226219919359 L 677.7054292882536,536.7203980743651 L 678.5410667590343,538.0418671683829 L 679.7750894662389,538.3796764660708 L 681.242313444708,537.7934754386954 L 682.4666194621274,537.1079028661733 L 682.981605334181,537.207262212518 L 683.3994240695714,537.9723176293597 L 685.4593675577784,539.4030154369084 L 686.2464214602338,540.1183373875641 L 686.7225404537386,541.250893784477 L 687.4027105297463,544.0721544213615 L 687.8788295232591,545.1151555711707 L 690.6480931568267,547.1960774947298 L 691.1436456493108,547.3152664655539 L 691.600331263242,548.9888266981951 L 692.5428525604764,548.978894903859 L 693.3007562741682,548.2389647087165 L 693.2133058272962,547.767187098647 L 692.5914361288015,547.3103002785132 L 690.8812943086865,545.09528928945 L 690.4731923824851,544.3651919020931 L 690.2399912306244,544.1516225553678 L 689.8610393737758,543.9479851566255 L 689.5403877750421,543.5158716575103 L 689.5112375862855,542.6218229163798 L 689.8901894431349,542.5771197380388 L 691.5517476949168,542.6665260246976 L 691.9598497405237,542.6218229163798 L 692.0473000679913,539.3831451771767 L 690.4440421937285,538.0021246129064 L 688.4035320850892,536.9191191274533 L 685.8383194146198,536.7899505520616 L 684.9055148071777,536.452122376572 L 685.1970163365577,535.751612989435 L 686.3047217183423,535.1554210547955 L 687.8788295232591,535.120642776278 L 691.9598497405237,538.4492248875778 L 696.3615214371227,544.3353916921216 L 698.0910966368054,545.1151555711707 L 700.2482072616689,546.456101085843 L 701.0061109753677,549.4655499970283 L 700.9963942855765,554.4359115655354 L 702.3373009386324,558.4721457994287 L 703.3964228714894,560.3187950099098 L 704.6693124572411,561.103088658188 L 705.8353182165449,562.4532153043118 L 706.7098225658734,565.5503260379825 L 708.5657150909692,579.6518935275651 L 710.2661401019024,582.5586861637802 L 710.9074432993681,588.4805061266444 L 710.8005593535228,589.0359253720521 L 711.1114942624723,589.3830569999712 L 714.784412434131,591.5847679389359 L 717.3107582260525,592.3384689360878 L 722.7424017861565,592.8095222465761 L 725.0258296170354,592.3979709131127 L 726.4056031486252,591.2922077645045 L 727.2315239296286,589.7004309681448 L 727.979710953536,587.8159728952763 L 729.5635354482372,588.1730374572196 L 730.0202210621684,588.9417032093521 L 730.0590878213117,589.9830892407663 L 730.4963400556812,591.1434472427311 L 731.2056602010479,591.7434435162614 L 732.0121474830709,592.1847552020488 L 732.663167370328,592.834314374765 L 732.9352354007297,594.093723972519 L 733.877756697958,595.6803051746051 L 739.8924030780147,600.7518338750112 L 744.0705904319348,607.6958885795606 L 745.6058313583046,608.6920113994818 L 747.9864264452455,609.0339562786221 L 749.9394861070048,609.9259679603466 L 751.5718941700301,611.1450072994882 L 752.9419508924391,612.4680542785234 L 753.8844721896664,614.3459864877983 L 755.0310445693956,621.1630261330799 L 756.9938209209462,625.606146618793 L 757.4602232246676,627.8893671958789 L 757.7711581336102,631.3361568555645 L 758.2181269383655,633.2871818686028 L 759.092631287693,634.5349793552901 L 760.7833396088349,634.9608032102327 L 762.3380139147735,634.4854645692559 L 763.9024050298989,633.6288458218633 L 765.6028300408251,632.9455140438178 L 767.2158047242758,636.2431899211616 L 769.5575329326688,638.248357435711 L 772.8223490587205,639.2434651173539 L 777.1074202390953,639.5157526261455 L 776.5438507987104,640.1345786879629 L 775.475012176069,642.0058318655053 L 776.6118678660148,642.09493616776 L 777.53495566427,641.8276222320395 L 778.720394922546,641.174178026294 L 778.594077597133,641.0306164358789 L 780.8192052892939,639.5751604467753 L 781.188440456359,639.5157526261455 L 782.5876473675246,637.931500280803 L 783.6953527493083,636.1986291264906 L 784.0062876582579,635.0845881342223 L 783.9577040899326,634.2675985941087 L 784.1909052417933,633.5941845242384 L 785.3277608123346,632.9455140438178 L 784.5990072874004,631.7323142485702 L 784.4338230834394,630.5537306686663 L 784.7156078036244,629.4939562783688 L 785.3277608123346,628.6421479879583 L 788.7286109535906,631.2519727017257 L 790.361019016617,632.8613343864744 L 791.0411890926316,634.1190526758675 L 791.5658916544687,635.3866210579056 L 792.8096311708553,636.4214324425245 L 794.3060052186833,637.3472863073745 L 795.5303112361026,638.3077677446786 L 796.3465153273156,639.9019015588647 L 796.5019827220876,643.5799711980566 L 796.8129176310372,645.4064644727224 L 800.0,651.1475719009997 L 799.2615296658769,652.0482336720696" fill="none" stroke="#000000" stroke-width="0.8"/>
	<path d="M 213.25147350535983,60.13153157343858 L 216.07738551203312,59.707086376683435 L 218.08884262268256,57.70050920066093 L 218.39734835918603,55.23705986485835 L 218.2492655531224,52.59964483857833 L 218.85393678233558,50.14206467815971 L 220.91475486815108,48.244008953137126 L 226.83806400601048,45.36766269801202 L 229.25674868406995,43.49494137042901 L 232.55158947708216,38.152632084483145 L 239.74594217291613,19.064225227403394 L 243.05312320971512,14.231531181275612 L 260.0421663054566,0.0 L 260.294800836885,1.3048959120485564 L 261.4122230278576,2.6655599898837825 L 262.28672737719313,6.518621000615569 L 267.36856914979967,13.705120951129803 L 267.76695450562136,14.953382110370114 L 267.91270521061,17.510572663842957 L 268.18477312161303,18.814421990335912 L 270.34188386587505,21.87841619420815 L 270.71111903294013,22.598697087344952 L 271.29412185289374,24.71882325045319 L 282.5072106411807,41.880271042435844 L 290.8538685398459,61.256458680329935 L 299.142226060992,75.70292467261342 L 302.03780701997863,86.25602790149586 L 303.3981470526033,88.73422849941102 L 301.96007338229543,93.55835407764248 L 304.1754842652744,97.30468598395319 L 307.44030039132707,100.70668901988188 L 309.10185864311,104.50743302783123 L 309.7140116518192,109.3079978413618 L 310.7342667061353,113.48114154577738 L 314.29058424216333,120.79998626417967 L 314.8152868039944,123.19363507464364 L 315.21367215981707,128.22756333369935 L 315.8355418583175,130.75168627350104 L 317.70115107320464,134.35565456179498 L 318.36188765023905,139.39723704187918 L 318.9546072793806,141.44080860071503 L 322.889876672252,150.47577615948316 L 325.48423953148495,160.13239752608973 L 323.8518314684586,159.28539700385258 L 326.23242655539246,164.8155541517111 L 326.88344644265055,167.53730262655142 L 327.1166475945103,171.13053449845899 L 324.9109534013157,173.45853407696382 L 326.83486287431833,179.1012128256757 L 326.30044362269695,182.27462560060457 L 325.48423953148495,181.42842390327982 L 325.6299902364736,183.35248131961507 L 326.7959959957784,183.88635425605545 L 328.1077524600639,183.92160962496033 L 328.74905565753767,184.34466945125482 L 328.57415476378543,188.65038423646172 L 328.74905565753767,189.79844252267495 L 329.1863077724956,190.93134025113105 L 329.7110104537373,191.88293233483753 L 330.1774127574588,192.96035045566651 L 330.37174703077164,194.4908039919934 L 330.2065628268108,199.38356619910988 L 330.37174703077164,200.93373770214322 L 330.78956576616895,202.07616945168925 L 331.86812107860067,204.04384211057865 L 332.07217204169785,205.57861468476935 L 331.89727126735824,207.09316223056513 L 331.1685176230184,210.1521547530445 L 331.18795100258603,211.91291053165511 L 334.84143579467604,228.04547549748125 L 335.33698816774955,233.50436319812982 L 335.7450902133625,235.37397498951242 L 338.5337873459024,241.51453359680033 L 342.7314080793971,257.58721312888395 L 345.04398609903353,261.8848622533708 L 352.17605467006376,266.2620670071766 L 353.283760171252,268.17433931108945 L 354.2262814684794,268.9924051874712 L 358.59880309572736,270.9596670367352 L 359.7939590437877,271.99843838601043 L 359.85225930190427,273.59414667271534 L 359.26925636254606,274.9338597886962 L 358.5307861478205,276.16813774827665 L 358.1615509807624,277.47259219221655 L 358.5405028376108,278.9224626793405 L 360.23121115875267,280.75850886767745 L 360.6101630156021,281.7166100555013 L 360.78506390934734,284.9969481112961 L 361.4458004863827,286.97296695038983 L 364.67174973389353,290.5935882112463 L 362.6118062456865,290.7791183312457 L 361.1931659549533,291.987537295998 L 360.69761346247424,293.7825077987955 L 361.4263671068141,295.7127089037987 L 361.9316361696789,294.65989044307224 L 363.01990829129255,293.4014634061144 L 364.32194806580065,292.86999703849887 L 365.50738720468013,293.95297319228837 L 365.25475267324475,296.284220319645 L 362.9421745342107,297.39712598954145 L 360.26036134751024,297.7329931848485 L 358.9777549525768,297.743018976075 L 359.24982298297743,298.9059863997727 L 361.4263671068141,302.3644921935369 L 361.97050304821977,306.5140684527156 L 362.24257107862843,307.4110482751883 L 363.93327939976336,308.0474335334668 L 366.70254315274053,308.2829421201296 L 369.32605608132644,307.9672599798227 L 370.4629116518677,306.990123122785 L 371.3665661899578,305.54188630835597 L 373.49452662605864,305.23118105919986 L 375.91398859153935,305.71227151007554 L 377.7212975483179,306.5742021559791 L 380.6071618175202,310.442502858805 L 386.84529265964727,330.6061731443646 L 387.3408450327218,331.05674221991546 L 389.5854061044573,331.90278935460174 L 390.0906752867267,332.3232992245634 L 390.3627433171284,334.4808064159905 L 391.072063462495,336.5280164708678 L 392.1117520157834,338.2697672532385 L 393.37492491175163,339.49592853083965 L 391.5967661437376,346.20123792291844 L 390.98461301562287,356.74603872258666 L 391.2469643562472,357.24615889760094 L 392.3643865472198,358.0463310924474 L 392.63645457762146,358.5014178544773 L 393.05427331301877,360.3766908199914 L 394.191128883566,361.3467786011171 L 395.7458031895036,361.4117831290143 L 397.43651163004307,360.5567098793304 L 398.6219507689215,362.85184240762857 L 399.99200761072814,363.2068446293057 L 401.86733351539857,362.6468389066704 L 404.4811297542002,362.2368268978087 L 405.30705041579887,361.616796440445 L 405.9677871122379,360.18166879504355 L 406.2592885222152,358.6364420908808 L 406.0843876284699,357.61624164552177 L 405.4819513095441,356.4759697133864 L 405.9386369234813,355.6807502625221 L 407.3864274029721,354.6854408406658 L 409.6601386634642,350.61377382871905 L 409.9127731948996,348.2224937937492 L 407.5224614181754,344.0597333601359 L 406.2301383334516,339.1255839745781 L 405.2487501576823,337.36387147127516 L 403.6649256629812,337.3388463333547 L 402.7029709861862,339.2356869254565 L 401.9062003939405,340.2866460755733 L 400.8567951508677,337.74425152557507 L 400.56529374089143,335.3517667241684 L 400.8567951508677,328.9940713984499 L 400.70132775609477,327.62220238992654 L 400.0988914371689,325.28885299244735 L 399.96285742197153,323.9167832003146 L 400.2349254523732,322.41443175798935 L 400.8956620294146,321.9236442932503 L 401.69243262165435,321.6832551068012 L 402.39203607723664,320.93703238107673 L 403.18880666947535,316.7297268486974 L 403.9855772617221,315.50246377308883 L 405.67628558285696,316.7347359502164 L 406.49248967407596,316.7347359502164 L 406.609090190301,315.7529305651683 L 407.3864274029721,313.3784060918161 L 408.105464238129,313.3784060918161 L 408.15404792585787,313.7691659917961 L 408.105464238129,314.9814851738043 L 409.4269375116034,313.93949539482173 L 411.01076200630456,311.30427110418003 L 412.1184675074928,309.93645082623885 L 413.87719277653457,313.1229059819125 L 416.26750455325873,315.68280007498504 L 427.6263440465413,325.0885554979446 L 429.3753527451963,325.97986721101563 L 432.1251828797966,326.5807339175662 L 433.0774209862129,326.9212186804792 L 434.27257693427435,327.6622579108818 L 435.662067036251,328.81383003032545 L 436.55600476515315,330.04545369547907 L 436.94467343118447,331.33709232581595 L 436.721188969115,332.69874869077535 L 435.85640130957086,334.1604457751074 L 433.7187241836807,335.86732118059126 L 432.64988556103333,336.9784806374119 L 431.99886567378127,338.14965039120636 L 430.19155671701066,342.77874762420237 L 431.5227466802694,342.65865186154144 L 432.5332849254036,342.95388622005686 L 433.22317169120157,343.71947780699355 L 433.45637284306235,344.99040922429873 L 433.16487143308603,345.3556652957038 L 431.9405654156657,345.82098382375494 L 431.7559478321302,346.2112445075551 L 431.9697154850257,346.74158924815663 L 432.5332849254036,347.23189829902276 L 432.64988556103333,347.5470918854785 L 433.28147194931114,348.56769231867 L 436.0798857716403,350.65379337472984 L 436.721188969115,351.71428804782806 L 437.0612739474156,353.2799383674755 L 438.6159483727577,356.4659671303751 L 439.1698011233524,358.0463310924474 L 439.1017840560479,359.4165681043531 L 438.7714157675307,361.0217532587956 L 438.65481513190105,362.616838206839 L 439.1698011233524,363.9918324030986 L 440.6564583619855,363.4518433370251 L 442.2888664250118,363.79683769459325 L 443.60062300870885,364.7267992213435 L 444.12532557054595,365.9716954068149 L 444.3585267224067,366.9965649090234 L 444.88322928424475,367.2265300848941 L 445.4370820348384,367.35151033632593 L 445.7674503233566,368.1063778410908 L 445.6994333754557,369.22614096891476 L 445.0289799892324,371.06564658939493 L 444.8735125944534,371.9253707949947 L 446.0492350435486,374.1145398852041 L 448.8184986771152,375.51391196963516 L 457.6509923784762,378.65722676917767 L 459.5651851616875,379.6016462904722 L 460.43968951101505,380.3061909429478 L 461.25589348282944,382.5596064890547 L 463.04376894062773,382.1399163242721 L 465.7644491252737,379.85148696080296 L 468.46569581094843,378.80213991718455 L 470.3507384054032,376.3435041058066 L 471.87626264198775,373.56476586577935 L 473.5572542733393,371.53549941589307 L 473.4017867591688,373.48479785756786 L 473.829322303748,375.179069072547 L 474.9370276855317,376.0936297570649 L 476.8900873472909,375.7338063775946 L 477.5216738549733,374.65430659561054 L 477.24960582457163,373.2548882009375 L 477.4828069764334,372.0553266602337 L 479.6302009115125,371.53549941589307 L 480.912807306446,371.4605234221618 L 481.27232566432315,371.3855473345231 L 482.51606518071577,372.3002416334756 L 482.3217309073959,372.72009054791374 L 482.06909625656186,373.5847579214716 L 482.3120142176116,374.42940511147737 L 483.7695213868927,374.8192330313831 L 484.63430892703127,375.179069072547 L 484.99382740431304,375.90372362136395 L 485.4602297080336,376.53340702952937 L 486.5970852785748,376.5733864351007 L 487.3841391810302,376.1985772637406 L 488.0837426366125,375.5538929429444 L 488.66674557596974,374.80423979579695 L 489.12343118990094,374.0545650183472 L 488.52099487098207,373.0649613126912 L 488.25864353036474,372.08531629779446 L 488.2294933416002,369.78600425798686 L 488.8999467278315,370.395841701841 L 489.47323285799376,371.7254374990217 L 489.9396351617153,372.3002416334756 L 493.1850179081993,373.13993254767564 L 493.47651931817563,374.1845102243958 L 493.3793521815122,375.2540342053987 L 493.38906887130355,376.3435041058066 L 494.0012218800137,377.41293926586013 L 494.9145931078811,378.01260337794236 L 495.3490662846274,377.9261094195229 L 495.2196007956871,378.7453490304665 L 495.4602352158667,382.5908580475796 L 497.8110487031833,394.3998855961094 L 498.107214159923,399.43526402433145 L 497.58892455694223,404.0005176883779 L 495.75640077997707,408.5713207901666 L 485.11912455960146,423.7140017233798 L 479.1156038441354,436.8851637234347 L 470.5206353285568,451.179604360538 L 469.24284433015146,453.46527383951354 L 460.0930465432049,444.9733060412832 L 455.3914198687564,442.17197873927216 L 450.2208645273656,440.0636692682027 L 439.497206645335,437.45179566040457 L 437.387027703779,437.4771241713961 L 431.48839893409354,439.2215656506368 L 429.78544755994756,439.2658875507331 L 426.9937568559262,438.76624838145926 L 424.60255197475703,438.3382782421239 L 422.418331689875,438.89231499878474 L 418.7409438170393,442.0073719568933 L 416.4086407260936,442.66579317611576 L 414.15037909787753,442.27960568357884 L 412.33636564903924,441.4154121551075 L 406.0551897995103,435.960539420715 L 402.7603490065121,433.8802411288909 L 399.18168296456895,432.6959505441126 L 395.38089289264576,432.8257817587968 L 393.93761265721207,433.070683999571 L 393.91867233381544,433.0380425402453 L 387.3351609232943,421.68977347128083 L 352.8318844620559,362.2177761203348 L 350.3514987350543,356.4606407164738 L 346.56921905248464,350.3019694215815 L 341.58993710979365,347.06481889040396 L 331.2488263461567,341.58709801178844 L 325.5229607061122,336.5309194703812 L 318.5383919286353,328.8764139700775 L 307.6666513436093,312.1447922614244 L 304.7543576499195,306.5449621027437 L 302.6811994527806,301.11893381417264 L 298.62126448002624,286.0407969985886 L 288.1012204956676,268.3913050241526 L 286.3365679736777,266.11251683477406 L 284.8002096534452,265.0033239725199 L 268.6838723760997,262.9728612122275 L 263.0320481539234,261.30246434141213 L 257.4542652422537,258.9688187736189 L 251.61733752909115,255.00876346405337 L 249.02588972897254,251.62849840074674 L 247.73016582891373,247.55880355980003 L 247.45251064611264,237.5251816634647 L 247.82271752072057,234.47758437991368 L 248.61866219911582,232.2530748941299 L 249.67375167900195,230.3124459707651 L 250.26608259247334,228.56000069645825 L 250.59926881183245,226.12743384952753 L 250.506717012647,223.30509317704147 L 249.76630337080977,219.6457739443111 L 248.30398646844554,215.45251781295408 L 244.8734031717889,209.2523082629071 L 241.81919680525456,205.63877051413579 L 239.01796507731711,203.2006815692091 L 236.33396558539067,200.17748794454533 L 235.13079348451734,197.03884064147798 L 233.36614085514782,190.37662981340148 L 231.88531357147437,187.6715702461642 L 229.51598991759684,184.2050604289821 L 228.4609004377107,181.72958449555418 L 227.70197630717863,179.1770773099472 L 226.9739028837577,177.3664849685203 L 225.65966870976627,176.27558380882257 L 198.46180713432523,171.39630090159264 L 195.50015235222108,169.92111806699134 L 192.7914725308397,167.0216814668848 L 192.0695691629411,164.2115097807255 L 192.439776037549,160.51424343957626 L 194.18591817822968,152.4742689616559 L 194.05634583117305,148.49968389023022 L 193.40848388114364,145.95315784500252 L 191.86595539801021,143.7779790668002 L 189.99641096579626,141.72755008390916 L 187.3864527843674,138.2990832940101 L 186.53497706940615,135.76425416813 L 186.75710121564722,132.81247801786736 L 187.60857682323086,130.2449906667688 L 188.9598317598487,124.12481817799285 L 190.99596940912335,73.17617370639171 L 190.12598331285287,59.26665572490792 L 189.93720824098537,58.009186376857656 L 190.0518456308247,57.93204649580193 L 192.85307714991046,56.90940494942664 L 195.5926076888616,56.92226867299716 L 196.71556844077853,58.16358151032413 L 196.83897075925663,60.234426034478574 L 196.66620758502404,62.72304418282585 L 197.34492003815964,65.41069740726937 L 199.134253118831,65.39140921753953 L 201.10868937871655,63.674690451529735 L 202.35505244911158,61.295498751440846 L 202.39207306107332,59.99005069693783 L 202.08356744397443,59.13471580912002 L 201.93548475731438,58.343662581519105 L 202.4784547675897,57.230995437431936 L 203.18184770831084,57.1152233864871 L 207.3898653476361,55.77093754893931 L 209.3272809955619,56.98658705500913 L 211.14129456380482,58.8324466574244 L 213.25147350535983,60.13153157343858" fill="none" stroke="#000000" stroke-width="0.8"/>
	<path d="M 473.14915222773334,293.04046867631297 L 474.9078776161797,293.1006348074017 L 475.52003062488984,293.426532353629 L 476.4722686119006,298.33453513456607 L 475.73379827777836,300.5851757804691 L 474.0430899566365,301.5324896065616 L 474.0042230780886,301.5124410605053 L 471.53617754428166,300.2693966115598 L 470.7005401928926,300.07892466108706 L 469.5928346917054,299.82830149464695 L 463.8016727737312,301.2618321397816 L 461.32391055013386,301.4522950795463 L 458.7684145694488,300.5901881043393 L 454.60966071449394,298.5651222522132 L 451.8792638400707,298.16409968108155 L 445.96178459667647,299.41226140310437 L 444.776345457797,299.20173252050625 L 444.12532557054595,299.08142941739715 L 443.6492065770331,298.6353006140539 L 442.9398863122699,297.7229673895971 L 442.463767318763,297.1013586181097 L 442.18198259857104,296.85070556994333 L 441.6864301060929,296.41456322730784 L 441.67671341630165,296.4045367792025 L 440.5981581038759,298.4247650601716 L 439.21838469167756,299.472412169009 L 437.1973079626209,299.647851209326 L 434.27257693427435,299.08142941739715 L 429.44336969309614,297.1915931238356 L 428.82149999460165,297.0662673059579 L 427.18909193157634,296.73540423612934 L 424.5072786254772,297.32193129208844 L 424.4878452459026,297.32193129208844 L 423.47730688137074,295.94833362431086 L 422.6999696686997,294.8854981767565 L 419.53232067931145,285.5436290118455 L 420.8926608313337,285.57372110728573 L 421.72829830211236,285.8395337716622 L 421.8448988183444,286.3009376229199 L 421.86433219791905,286.37115043622526 L 421.15501205254543,287.2287344871513 L 422.11696684875307,287.7853959177249 L 422.8457204930929,288.52257716931956 L 423.1080717143117,289.0390923501611 L 423.31212279681444,289.4502910649065 L 423.60362420679076,290.5935882112463 L 423.6133408965741,290.5935882112463 L 424.4878452459026,290.5935882112463 L 425.6149841266665,290.1523218890986 L 427.18909193157634,290.7791183312457 L 428.8506500639546,291.7268044836744 L 430.19155671701066,292.2783513565884 L 430.201273406795,292.2733373625826 L 431.70736426380495,292.1981270849632 L 436.721188969115,290.5935882112463 L 434.53492815549504,286.6820907017242 L 431.6199138169328,283.46216518356545 L 428.0635961614992,281.29525084759246 L 424.0408763217557,280.49264182413054 L 420.10560692887833,281.31531568739905 L 418.7064000177127,280.9240473917515 L 417.8901959264938,278.7368438483694 L 418.0553801304547,276.30360355461784 L 419.1047852541298,274.92382465738814 L 420.6594596794719,274.72312314727117 L 423.4967402609454,276.574532938343 L 424.23521059506857,277.0511605614259 L 425.81903508976274,277.181604479735 L 426.28543739348424,276.1982413661095 L 424.85708041296766,274.06079648353034 L 424.1963437165287,271.99843838601043 L 424.06030982072195,271.57691325435593 L 426.41175471890523,270.42771888870783 L 429.5502535195369,270.1366480595674 L 430.85229329404507,270.2269807710652 L 431.00776080822266,270.2370176911426 L 431.4838798017285,268.7314301232289 L 430.68710920948877,266.77402844890133 L 429.3267690574675,265.07246813459597 L 428.1316132288037,264.349645767478 L 428.12189653901936,264.3446261061606 L 423.9534258748766,264.62070657144807 L 422.6125193412312,263.9631278560248 L 421.16472874233676,261.8949025814519 L 421.15501205254543,261.8848622533708 L 425.5178169900021,262.24129224659725 L 430.14297314867844,263.2804320166675 L 434.4960612769462,264.9821164867924 L 437.13900770450437,266.77402844890133 L 437.9454949865274,267.32613192948276 L 439.07263386729136,269.07772340321424 L 439.62648661788495,269.9359075689533 L 439.61676992810163,269.9409260888318 L 439.0240502989601,271.72745874553897 L 437.7803109019721,273.0873447905453 L 437.537393060326,274.44213824159556 L 438.4410474790135,275.3703797978576 L 439.56818635977044,275.4155366081135 L 440.69532524053335,274.9790172742151 L 441.67671341630165,274.44213824159556 L 441.4726624532044,273.99054873308495 L 440.8896595138472,273.15759523678247 L 440.7924923771898,272.3597398153704 L 442.055665273151,272.00345648569805 L 443.309121479328,272.70598208516355 L 443.5811895097356,274.2966269568686 L 443.60062300870885,274.43210303363855 L 442.90101955312656,284.42517740644814 L 443.2411045314281,286.3109680193693 L 443.88240772889486,287.7603214078984 L 444.01844162470155,288.0862889242333 L 446.1366854904217,291.6666350326712 L 446.5739376053796,292.65941293201007 L 447.7399433646835,292.74966351661607 L 454.726261230725,294.7952553282954 L 456.55300356707227,291.34572863185184 L 457.2428903328702,290.5935882112463 L 458.2437118882131,290.3328407921591 L 456.63073732416007,289.7311057730331 L 454.2112753586783,289.0039898004223 L 453.1813036145718,287.6098734476671 L 453.17158692478847,287.6048585122915 L 454.06552465369066,286.2357397006696 L 456.2032018989794,285.5436290118455 L 458.88501508567987,285.36809056803094 L 461.32391055013386,285.5436290118455 L 462.6648170837793,285.79941127616144 L 463.74337239621,286.1454654665682 L 464.2000580101482,286.3861959868309 L 464.6373102445108,286.6118787678614 L 465.40493064799995,287.2287344871513 L 465.87133295172146,288.1615115140199 L 466.0462338454667,289.2747802308348 L 466.40575220334284,290.2074805920912 L 467.4357240668409,290.5935882112463 L 469.12643238798285,290.9746755819481 L 471.6139113013704,292.65941293201007 L 473.14915222773334,293.04046867631297" fill="none" stroke="#000000" stroke-width="0.8"/>
	<path d="M 438.4021806004656,242.95146120804293 L 436.6337385222419,244.57920660356407 L 436.25478666539254,246.4479649649781 L 437.00297368930103,247.1512240375948 L 438.0329454334065,247.71381666828634 L 438.87829959397146,248.53758950062897 L 440.1026057307954,249.40151646815315 L 440.685608550749,250.5366296877069 L 438.5576479952376,251.1393232907058 L 435.05963071732515,249.9741023582376 L 432.1446163787699,248.37685544166064 L 427.0141910378311,247.83939352215393 L 425.81903508976274,246.60871175789902 L 425.8481852785273,244.569159152737 L 426.800423265538,242.67011143043962 L 428.90895044147476,241.8662369822142 L 431.59076362817524,241.64516692693695 L 432.64988556103333,240.9618465534278 L 432.24178351542633,239.92678042246163 L 431.99886567378127,238.7208225070373 L 431.95028210545,237.4243508229048 L 432.17376656752646,236.06750386737434 L 433.0385541076661,235.55489752484962 L 436.0507357022883,237.92184242299274 L 436.92523993221226,238.42937368348692 L 438.1106791904883,238.70574769214647 L 440.2677898153527,239.66549468104287 L 441.20059442279575,241.1427272606631 L 440.3843904509814,242.26817759413763 L 438.4021806004656,242.95146120804293" fill="none" stroke="#000000" stroke-width="0.8"/>
	<path d="M 172.9359498245868,70.70790123099384 L 175.78654243823723,70.05224723883224 L 178.1311856535581,68.25231443818215 L 181.87027462594006,63.436782684322466 L 189.93720824098537,58.009186376857656 L 190.12598331285287,59.26665572490792 L 190.99596940912335,73.17617370639171 L 188.9598317598487,124.12481817799285 L 187.60857682323086,130.2449906667688 L 186.75710121564722,132.81247801786736 L 186.53497706940615,135.76425416813 L 187.3864527843674,138.2990832940101 L 189.99641096579626,141.72755008390916 L 191.86595539801021,143.7779790668002 L 193.40848388114364,145.95315784500252 L 194.05634583117305,148.49968389023022 L 194.18591817822968,152.4742689616559 L 192.439776037549,160.51424343957626 L 192.0695691629411,164.2115097807255 L 192.7914725308397,167.0216814668848 L 195.50015235222108,169.92111806699134 L 198.46180713432523,171.39630090159264 L 225.65966870976627,176.27558380882257 L 226.9739028837577,177.3664849685203 L 227.70197630717863,179.1770773099472 L 228.4609004377107,181.72958449555418 L 229.51598991759684,184.2050604289821 L 231.88531357147437,187.6715702461642 L 233.36614085514782,190.37662981340148 L 235.13079348451734,197.03884064147798 L 236.33396558539067,200.17748794454533 L 239.01796507731711,203.2006815692091 L 241.81919680525456,205.63877051413579 L 244.8734031717889,209.2523082629071 L 248.30398646844554,215.45251781295408 L 249.76630337080977,219.6457739443111 L 250.506717012647,223.30509317704147 L 250.59926881183245,226.12743384952753 L 250.26608259247334,228.56000069645825 L 249.67375167900195,230.3124459707651 L 248.61866219911582,232.2530748941299 L 247.82271752072057,234.47758437991368 L 247.45251064611264,237.5251816634647 L 247.73016582891373,247.55880355980003 L 249.02588972897254,251.62849840074674 L 251.61733752909115,255.00876346405337 L 257.4542652422537,258.9688187736189 L 263.0320481539234,261.30246434141213 L 268.6838723760997,262.9728612122275 L 284.8002096534452,265.0033239725199 L 286.3365679736777,266.11251683477406 L 288.1012204956676,268.3913050241526 L 298.62126448002624,286.0407969985886 L 302.6811994527806,301.11893381417264 L 295.14132030970353,302.363364478292 L 290.674157914471,303.93234094679065 L 289.32290308522977,304.1932971589392 L 288.39738595240027,304.11691998270646 L 287.02145057894995,303.0094254693591 L 286.09593355349705,302.51294657238543 L 284.4855338153963,302.23605982407355 L 283.5044856460078,302.3506340530894 L 282.09769978020256,303.4454277300399 L 269.86853420303447,304.9156859119469 L 248.0078209043352,304.2696739915134 L 244.04043773076523,303.25766122517837 L 241.52303134852286,301.42447749523535 L 238.2405307802311,295.0200094206667 L 235.0567520666411,290.6963819164414 L 231.07085861913953,286.78600403929124 L 225.43754467090383,283.10433624455055 L 221.47633155285615,281.91946192803493 L 218.24936202112343,281.8302754937952 L 215.34323849034053,282.7890123352103 L 208.7103660987767,286.05035115190094 L 206.14976879101295,286.99300199451665 L 203.132583187106,287.2413973738699 L 200.96687319077472,286.508942528306 L 189.31152836051803,278.66395042969975 L 182.43802144140992,275.602359349018 L 178.54467968571518,274.41393918538756 L 175.3794113534344,273.98379984568317 L 171.20841430756292,273.8690948364887 L 168.5059045417039,273.3242383425246 L 166.00083837787778,272.00824860240084 L 162.63195628067214,269.6055101194537 L 158.40542819824165,267.50212473301366 L 155.07356675628583,266.6734689236464 L 151.735535151436,266.6320355164191 L 143.30715974553297,267.7315936384678 L 134.61963953814052,267.7793993400951 L 132.81796625352422,267.15791719329223 L 131.98500081250202,266.2750667235923 L 132.0590423377544,265.08938385458646 L 131.87393884676212,263.9737695394078 L 130.96693209524233,262.7146583983828 L 128.74569106235302,261.27696134850873 L 125.13000438208124,259.7307848523321 L 121.00219826172916,258.4842086566836 L 118.64521482626739,256.74335928108644 L 116.66460832092989,253.8257238758455 L 114.42485701410848,248.60180726657205 L 110.8091703338362,243.03860348774455 L 106.24945613941823,238.44417222581245 L 98.83914945077537,233.95099744574827 L 92.72456676956945,231.87006843790033 L 81.53815034649458,229.21119738450201 L 78.8109600364189,228.18970446370196 L 77.16353964306838,227.196899582511 L 76.34908458335592,225.99015571943977 L 74.68315402345092,222.1460497410789 L 73.70210585405592,220.7538465117759 L 72.69637724783485,219.70006120755974 L 71.64128787533383,218.88574081928257 L 70.75279139774614,218.017101978594 L 69.901315790169,216.77157243396022 L 69.12388138570533,214.8584405789988 L 68.3464470886258,211.7824176934771 L 67.55050241022356,204.9134410955602 L 66.79157838707661,201.6699581502626 L 65.81053021768808,199.00134285887265 L 63.453546782226816,195.54927633919013 L 60.137208783758716,194.99135752407267 L 60.01052685671303,194.6349341844131 L 58.319915726352825,192.36515932196997 L 56.44420117795977,190.37013531936438 L 54.889332490473336,188.1830891404446 L 54.074877355655275,185.31788073251548 L 54.161259062172164,183.61649881813142 L 55.62974604315569,178.67795877937328 L 55.98761263541314,176.28508150931265 L 55.765488605427066,172.24734880866598 L 55.96293214782661,170.0522203770171 L 57.04887228778283,167.71607085565375 L 58.86288561723004,166.07742700829826 L 62.799418370815225,163.24153404789703 L 64.082802053164,161.53215038953738 L 67.01977613452216,154.09135199812488 L 67.47636455769167,146.67380099669688 L 67.69848870706885,146.12283486190142 L 68.5623046976264,145.12978141445436 L 68.78442872761248,144.6172211323124 L 68.63634592156232,143.89321017854064 L 67.9329529808412,142.7783174643958 L 67.77253005040187,142.30415153724593 L 67.99465419977855,137.3248211993941 L 67.69848870706885,135.74813019345575 L 66.6619096616758,134.21620124598604 L 65.41554659128074,132.9982771893591 L 65.0083190238717,131.65848631996602 L 67.90827249326165,127.4911747174997 L 68.46358274733024,125.0930255221289 L 68.03167481175325,122.72027866333121 L 65.66235122824345,119.42367718919324 L 65.3908661037077,118.3204284417895 L 65.63640964853498,117.32973723980129 L 65.65001098445119,117.2748587954089 L 66.43978551229162,116.34471060050707 L 68.87081031473926,116.02396116742601 L 70.77120535068988,116.8643152628287 L 72.57287867514701,118.10875257300741 L 74.70773798487697,118.98110130963748 L 77.78045462851298,119.50706016011945 L 79.01447733571068,119.96245389010805 L 83.62972254245095,122.79723656395763 L 84.81438439389416,122.99604309334057 L 91.29300390522722,121.94427325537205 L 93.06999662270722,122.20722014151755 L 96.68568339600267,121.97633997696576 L 102.36218813570804,118.46154468351824 L 105.8051114959832,118.16648257200289 L 116.98535780116234,121.3221670570128 L 123.71078183004104,113.2781611728381 L 124.6980001390902,110.80152607202353 L 125.26565051754046,108.02942904994063 L 127.88177885741106,103.35716918803969 L 128.6345326538732,100.81526233323518 L 129.18984290794177,95.63428345804302 L 129.07878083324243,93.37405574651261 L 127.7460362951332,87.68396056046802 L 128.0422017878504,86.26442457196688 L 129.32558547021316,85.48075120416546 L 145.13341698710366,80.5661121649331 L 149.95844598003075,79.89147025625003 L 154.8328359481224,77.35335037842394 L 160.02807177708672,67.99516953241533 L 164.19906868504566,65.75145334645072 L 166.6300934875003,66.42652059280215 L 170.20875952943643,69.87226047845895 L 172.9359498245868,70.70790123099384" fill="none" stroke="#000000" stroke-width="0.8"/>
	<path d="M 12.266186206326184,462.246496720177 L 9.625377498287625,439.73442892108955 L 7.823704293236082,424.55015872096163 L 6.009690844390275,409.151232425308 L 4.6030624453123155,397.2547755330914 L 3.8007900719227075,390.46720743688144 L 1.3697652694750584,369.8908030715281 L 0.0,358.2325932221937 L 0.17276317423858545,355.53635841909244 L 1.1353008763051122,353.3956832663599 L 9.921542871600229,344.8534375599252 L 12.093423032093591,341.4630691875705 L 18.140134607843184,323.56003362400133 L 20.47243757939176,319.75655405815064 L 24.38428972599981,317.13576318570983 L 22.743039570784195,311.76292596987815 L 23.051545187890063,306.5575909277677 L 29.530164699223132,282.95135290729957 L 30.998651799604254,280.2311369197288 L 36.897280569282714,274.1207084285882 L 40.105739775182116,268.85012457768204 L 45.831605370642464,252.5851251097069 L 51.22428474201982,237.23469914452028 L 55.19783810756522,225.9677081341011 L 57.13525375549104,222.73665398316686 L 62.13304604206181,217.56350918063941 L 63.35472862486982,214.4207583120212 L 63.033882644580586,211.7887067425707 L 60.86200260349181,206.7793424916477 L 60.244991249889466,204.1784036589976 L 60.41775442412156,201.53883149434841 L 60.83732211590528,199.32085342306922 L 60.89902333485013,197.1346321620076 L 60.137208783758716,194.99135752407267 L 63.453546782226816,195.54927633919013 L 65.81053021768808,199.00134285887265 L 66.79157838707661,201.6699581502626 L 67.55050241022356,204.9134410955602 L 68.3464470886258,211.7824176934771 L 69.12388138570533,214.8584405789988 L 69.901315790169,216.77157243396022 L 70.75279139774614,218.017101978594 L 71.64128787533383,218.88574081928257 L 72.69637724783485,219.70006120755974 L 73.70210585405592,220.7538465117759 L 74.68315402345092,222.1460497410789 L 76.34908458335592,225.99015571943977 L 77.16353964306838,227.196899582511 L 78.8109600364189,228.18970446370196 L 81.53815034649458,229.21119738450201 L 92.72456676956945,231.87006843790033 L 98.83914945077537,233.95099744574827 L 106.24945613941823,238.44417222581245 L 110.8091703338362,243.03860348774455 L 114.42485701410848,248.60180726657205 L 116.66460832092989,253.8257238758455 L 118.64521482626739,256.74335928108644 L 121.00219826172916,258.4842086566836 L 125.13000438208124,259.7307848523321 L 128.74569106235302,261.27696134850873 L 130.96693209524233,262.7146583983828 L 131.87393884676212,263.9737695394078 L 132.0590423377544,265.08938385458646 L 131.98500081250202,266.2750667235923 L 132.81796625352422,267.15791719329223 L 134.61963953814052,267.7793993400951 L 143.30715974553297,267.7315936384678 L 151.735535151436,266.6320355164191 L 155.07356675628583,266.6734689236464 L 158.40542819824165,267.50212473301366 L 162.63195628067214,269.6055101194537 L 166.00083837787778,272.00824860240084 L 168.5059045417039,273.3242383425246 L 171.20841430756292,273.8690948364887 L 175.3794113534344,273.98379984568317 L 178.54467968571518,274.41393918538756 L 182.43802144140992,275.602359349018 L 189.31152836051803,278.66395042969975 L 200.96687319077472,286.508942528306 L 203.132583187106,287.2413973738699 L 206.14976879101295,286.99300199451665 L 208.7103660987767,286.05035115190094 L 215.34323849034053,282.7890123352103 L 218.24936202112343,281.8302754937952 L 221.47633155285615,281.91946192803493 L 225.43754467090383,283.10433624455055 L 231.07085861913953,286.78600403929124 L 235.0567520666411,290.6963819164414 L 238.2405307802311,295.0200094206667 L 241.52303134852286,301.42447749523535 L 244.04043773076523,303.25766122517837 L 248.0078209043352,304.2696739915134 L 269.86853420303447,304.9156859119469 L 282.09769978020256,303.4454277300399 L 282.31982381906505,352.8113536160051 L 274.3542068721996,351.89974501375275 L 270.5349064269965,352.5000763198948 L 265.66051660929185,354.5709527489083 L 255.34408628248147,357.073568415231 L 244.68829978817325,357.8706704497689 L 242.9483277030159,358.2390438059021 L 241.17133485522416,358.97577482419456 L 238.99945480337854,360.33168585860875 L 234.4459107718605,365.41174943060673 L 231.81127215359913,369.8940764282756 L 230.034279413193,372.1762098771687 L 228.42387967508427,373.5885563487458 L 223.95671727985075,375.36578198099727 L 221.30973855055174,376.927101295587 L 219.1563687726437,378.8690994860399 L 218.02723798225998,380.48414772377856 L 216.32428655235142,385.373104669815 L 214.0475145902807,389.8773687099037 L 213.63411689752405,392.07529515854566 L 213.8562409363875,394.9421546993552 L 214.65835588506232,398.4523628772414 L 218.41595513080648,406.742460408583 L 218.98977566296065,411.19553023045444 L 217.56807819433487,414.58837267338833 L 216.8177993035042,412.7387760813451 L 215.59611672068868,411.2461380411301 L 213.75742278427083,410.49186427823093 L 210.9315106582139,410.31438500584096 L 204.13204516659857,411.4869939724746 L 201.97250536928908,411.0876789393587 L 189.01526634662295,405.76607219882743 L 188.02804827638147,404.96726323678394 L 187.3493357038353,403.75949441068707 L 187.26295411672848,402.68481897360726 L 187.0038092359725,401.72740161411264 L 185.83148762830908,400.83969873048164 L 184.48640284640607,400.61459794617406 L 183.9681133237093,400.0248880927438 L 183.7089685623579,399.2068815297286 L 183.25238001981077,398.31909379840835 L 183.17833879588235,397.9386040144897 L 183.21535940783707,396.6417271398236 L 183.15365830830282,396.1407160077323 L 182.7340906165126,395.7221423490927 L 181.57410913322337,395.58895857356003 L 181.05581961052658,395.1545206092497 L 178.77287749474598,390.65750710478767 L 177.32907088194438,388.5451033183543 L 175.2559126717407,386.7275383748946 L 170.38152270366803,398.46811727081746 L 162.6195195099802,417.07677363799775 L 154.93155777902098,435.5172626184592 L 147.4410395904773,453.4736350292632 L 140.57987299932122,469.9097611236131 L 136.27313352909042,480.2168371348539 L 134.9280487471809,481.58555371004303 L 132.7808491936647,480.197870522023 L 131.53448612327662,478.7310862202663 L 130.97917586920755,476.6983225490791 L 130.84343342633426,473.57142964983257 L 130.4855668340838,472.40151978517054 L 129.560049743978,471.4750420380597 L 128.338367161163,470.86791345941134 L 127.1043444539583,470.64656114350066 L 125.57415625403743,470.0741988521286 L 124.85842306952952,468.6985833184848 L 124.25375195971345,465.63719506929345 L 123.37759560596453,463.3377655668503 L 122.85930620267284,462.6070946823392 L 118.03427709034116,458.5643275766577 L 116.30664522861565,457.5677786148419 L 115.97345912393075,456.26430067977674 L 116.0351602234705,453.4736350292632 L 115.86239704923891,451.6478400882279 L 115.40580862608938,450.65736614885833 L 113.5794549334508,448.83771071296803 L 109.0629316770272,442.30492965123784 L 106.80466992940754,440.9848879870834 L 103.89237633563592,438.49657551800027 L 102.2511260610237,438.7403516964759 L 99.64733808433647,439.63945503787363 L 90.81173499449167,439.46216933847035 L 86.69009906168431,440.39607139879104 L 83.271855950187,442.9823360360535 L 81.4578425013487,445.6284896635774 L 80.49530479928217,448.04335324692664 L 80.08807723187313,450.5371144666808 L 80.0140357691485,453.4736350292632 L 79.6808496644641,456.03966580098654 L 78.78001306194483,458.0581484859392 L 77.49662937958207,459.5798208173664 L 76.0034617916284,460.6174196823944 L 75.07794482092069,460.80089334716604 L 72.90606477983192,460.53517238978105 L 71.93118671457503,460.6174196823944 L 70.19121460906324,462.05670623481296 L 69.48782166833412,462.29078094390235 L 68.2661392049167,462.1769070453694 L 67.22956004012555,461.84160898168614 L 66.29170270622798,461.31651127122115 L 65.34150512855612,460.6174196823944 L 63.18196533124013,457.66268955552704 L 62.47857250992309,457.2007861825463 L 58.51735938815696,456.67559900490016 L 50.730675706902076,454.3785762056101 L 46.89286490361406,453.8533343026199 L 38.73597450571355,453.8533343026199 L 37.57599314183639,454.13177704973305 L 35.63857737449899,455.32461882022415 L 34.62667869728788,455.60304647011776 L 29.246339450292208,455.60304647011776 L 26.852335259805777,455.99537139916237 L 23.1626071431843,457.72596333184265 L 21.50901674418291,458.10876688031595 L 18.966929747645327,458.1783669574644 L 16.955472636995882,458.6465808271265 L 15.449964924647048,459.8898392303936 L 14.573808809693322,462.29078094390235 L 12.266186206326184,462.246496720177" fill="none" stroke="#000000" stroke-width="0.8"/>
	<path d="M 240.17785010849312,443.53627725099386 L 239.17829167506827,443.42865532401777 L 237.697464450292,442.3112607006954 L 237.0557724897265,441.2128134255528 L 236.2536578374894,438.5662260976921 L 235.29112001603227,437.65442283489256 L 228.88654184802624,434.1778887837177 L 227.02316742403585,432.71811682780617 L 225.62872178637934,430.9099160662825 L 224.65384384052004,428.7563827669982 L 223.5185428448303,424.10352529990234 L 222.75344880456794,422.52599396461886 L 221.50708573417288,421.5787967485367 L 220.11263997712578,420.80580830980404 L 218.97733910082067,419.74449657444836 L 218.38500811539328,418.54373745712644 L 217.80501737375164,415.17245141690483 L 217.56807819433487,414.58837267338833 L 218.98977566296065,411.19553023045444 L 218.41595513080648,406.742460408583 L 214.65835588506232,398.4523628772414 L 213.8562409363875,394.9421546993552 L 213.63411689752405,392.07529515854566 L 214.0475145902807,389.8773687099037 L 216.32428655235142,385.373104669815 L 218.02723798225998,380.48414772377856 L 219.1563687726437,378.8690994860399 L 221.30973855055174,376.927101295587 L 223.95671727985075,375.36578198099727 L 228.42387967508427,373.5885563487458 L 230.034279413193,372.1762098771687 L 231.81127215359913,369.8940764282756 L 234.4459107718605,365.41174943060673 L 238.99945480337854,360.33168585860875 L 241.17133485522416,358.97577482419456 L 242.9483277030159,358.2390438059021 L 244.68829978817325,357.8706704497689 L 255.34408628248147,357.073568415231 L 265.66051660929185,354.5709527489083 L 270.5349064269965,352.5000763198948 L 274.3542068721996,351.89974501375275 L 282.31982381906505,352.8113536160051 L 341.5714267284834,352.79229599622226 L 342.8116195919842,353.0368685572993 L 344.31095725696787,352.4968999755666 L 345.2734950450472,351.87751029638434 L 346.56921905248464,350.3019694215815 L 350.3514987350543,356.4606407164738 L 352.8318844620559,362.2177761203348 L 387.3351609232943,421.68977347128083 L 393.91867233381544,433.0380425402453 L 393.93761265721207,433.070683999571 L 388.53206654527594,433.98790139405247 L 385.3359475831753,433.69975094183076 L 379.19051417652764,431.8536158503093 L 378.51180172337905,431.4957739515893 L 377.78372841448197,430.79590979636123 L 375.3527034926377,427.8505803103808 L 373.53869004379845,426.3334505741183 L 371.16936634088506,424.9967847897729 L 369.1085482550825,424.96827696351306 L 368.1706910405955,427.4198381846312 L 366.04817185524774,430.2797088159903 L 361.17378188716907,432.65478452252637 L 351.38798145844163,435.37477919113303 L 349.1173794670352,435.5109300922084 L 342.6511003188935,434.46920036420045 L 339.67710538677295,434.944158163813 L 338.0605355997388,436.4164736584272 L 335.4567476230585,440.57968228059707 L 332.4704125665498,440.6113391730397 L 330.0023670327378,436.07452373641155 L 326.53476306549305,425.9090189124986 L 324.89351267148174,423.2830939626414 L 322.8326947050778,420.75195167576516 L 320.42635027081207,418.556410674747 L 317.8225622941258,416.91834935141924 L 316.62556019889684,416.43673389703645 L 313.21965745058293,415.6572585356534 L 308.9499385923198,415.1661140632364 L 308.7771754180872,414.74150436493204 L 307.2346470937777,416.2529571809808 L 307.04954355635573,418.2934405091023 L 307.2346470937777,420.5840451802752 L 306.8767803821231,422.8427748519835 L 305.18616913236434,425.0538002283703 L 302.7428040861249,426.58367203865083 L 297.7696924065383,428.90523560003965 L 293.83315977235117,432.5154525075045 L 291.6242589998896,434.0575635441452 L 286.3056209718448,434.5705255178279 L 279.18530961933186,437.5151167705703 L 276.91470774733,438.05334055204645 L 274.70580709426605,438.2559631923675 L 272.53392693377316,438.0406765710029 L 270.3620468926699,437.312488668368 L 268.02974380173026,437.23650259831487 L 260.6379475634967,441.06402895742366 L 256.195465530995,442.2479507517895 L 247.076037431015,443.2925446067164 L 241.1897487857177,443.24822933265506 L 240.17785010849312,443.53627725099386" fill="none" stroke="#000000" stroke-width="0.8"/>
	<path d="M 282.31982381906505,352.8113536160051 L 282.09769978020256,303.4454277300399 L 283.5044856460078,302.3506340530894 L 284.4855338153963,302.23605982407355 L 286.09593355349705,302.51294657238543 L 287.02145057894995,303.0094254693591 L 288.39738595240027,304.11691998270646 L 289.32290308522977,304.1932971589392 L 290.674157914471,303.93234094679065 L 295.14132030970353,302.363364478292 L 302.6811994527806,301.11893381417264 L 304.7543576499195,306.5449621027437 L 307.6666513436093,312.1447922614244 L 318.5383919286353,328.8764139700775 L 325.5229607061122,336.5309194703812 L 331.2488263461567,341.58709801178844 L 341.58993710979365,347.06481889040396 L 346.56921905248464,350.3019694215815 L 345.2734950450472,351.87751029638434 L 344.31095725696787,352.4968999755666 L 342.8116195919842,353.0368685572993 L 341.5714267284834,352.79229599622226 L 282.31982381906505,352.8113536160051" fill="none" stroke="#000000" stroke-width="0.8"/>
</svg>
