<?xml version="1.0" ?>
<svg xmlns="http://www.w3.org/2000/svg" xmlns:ev="http://www.w3.org/2001/xml-events" xmlns:xlink="http://www.w3.org/1999/xlink" baseProfile="full" height="600px" version="1.1" viewBox="-80.45154843928512 -116.58 959.6185812714214 1393.16" width="414px">
	<defs/>
	<path d="M 232.84855675481808,1110.4192164150743 L 219.01684222964815,1122.770058818002 L 210.20683339162747,1139.2374404778009 L 206.9471294720498,1160.0 L 186.7722068514408,1156.2413161579134 L 167.30208537085602,1150.2452691617507 L 148.88916451780048,1141.9222954705087 L 131.797746073071,1131.4512906231266 L 109.42032232551826,1151.0507120147367 L 72.68258049127436,1158.7471066021842 L 32.420835121905526,1156.6887787388127 L 0.0,1147.8289339486043 L 75.06128352712967,1099.679143476982 L 88.8048981804505,1086.3432755452752 L 96.46960651896606,1054.2106404771619 L 90.21450046048075,1028.4316465358543 L 79.55438781795289,1003.0990917718657 L 73.8278809906708,973.0208466321693 L 85.45709438891504,924.050848588808 L 161.3532810431802,924.0949116596753 L 225.46461254912896,922.2851663493649 L 236.14983414226714,965.7175122257055 L 246.83505573540532,980.1942397834023 L 218.34113018898722,989.2420116685555 L 204.0941693628707,1038.097545027279 L 204.0941693628707,1076.093460394122 L 220.12200175257797,1101.422696327236 L 232.84855675481808,1110.4192164150743" fill="none" stroke="#000000" stroke-width="1.16"/>
	<path d="M 359.4483973970417,1014.378032448567 L 356.8053947456572,1031.5645698554422 L 356.1005936055062,1049.5561829916653 L 344.1189807198837,1069.2478593002875 L 251.3495774797227,1117.758154438588 L 251.3495774797227,1101.3796684067233 L 232.84855675481808,1110.4192164150743 L 220.12200175257797,1101.422696327236 L 204.0941693628707,1076.093460394122 L 204.0941693628707,1038.097545027279 L 218.34113018898722,989.2420116685555 L 246.83505573540532,980.1942397834023 L 286.0142028750702,969.3367284192219 L 319.8507372709015,983.8133638507842 L 359.4483973970417,1014.378032448567" fill="none" stroke="#000000" stroke-width="1.16"/>
	<path d="M 405.52117675198315,777.5009683961622 L 398.82914188257945,871.9429486892278 L 393.6312364517683,887.343022584489 L 384.1164243084739,902.5636218582227 L 369.66800851512886,936.226592253337 L 370.37280965515305,953.4154400127145 L 382.5306222846005,989.4029407929107 L 377.0684172381153,996.2062980448069 L 365.79160549249883,1001.3982800730306 L 359.4483973970417,1014.378032448567 L 319.8507372709015,983.8133638507842 L 286.0142028750702,969.3367284192219 L 246.83505573540532,980.1942397834023 L 236.14983414226714,965.7175122257055 L 225.46461254912896,922.2851663493649 L 221.90287136899468,898.7579534691794 L 246.83505573540532,867.9901579444613 L 277.109850898385,817.3102247451963 L 291.3568136716393,772.0565263038561 L 344.782921637294,772.0565263038561 L 405.52117675198315,777.5009683961622" fill="none" stroke="#000000" stroke-width="1.16"/>
	<path d="M 234.6649981121518,674.8415987167273 L 257.78088544701086,646.8042933080866 L 303.1524363754867,638.7428030771746 L 352.5765900703994,645.3711472723525 L 399.44584098563183,674.749910944612 L 398.0362408707243,681.5569714043786 L 384.4688259611198,694.4543383102812 L 402.6174450333785,731.8013339449308 L 406.49385022123994,763.7727357757575 L 405.52117675198315,777.5009683961622 L 344.782921637294,772.0565263038561 L 291.3568136716393,772.0565263038561 L 284.2333313113527,726.7992775929481 L 262.86288812509446,696.0223175011812 L 234.6649981121518,674.8415987167273" fill="none" stroke="#000000" stroke-width="1.16"/>
	<path d="M 163.18494387103414,761.531252352119 L 234.6649981121518,674.8415987167273 L 262.86288812509446,696.0223175011812 L 284.2333313113527,726.7992775929481 L 291.3568136716393,772.0565263038561 L 277.109850898385,817.3102247451963 L 245.05418611897048,791.9685907090173 L 204.0941693628707,772.0565263038561 L 163.18494387103414,761.531252352119" fill="none" stroke="#000000" stroke-width="1.16"/>
	<path d="M 85.45709438891504,924.050848588808 L 130.38814379289585,837.73899346728 L 131.797746073071,799.5929306253978 L 163.18494387103414,761.531252352119 L 204.0941693628707,772.0565263038561 L 245.05418611897048,791.9685907090173 L 277.109850898385,817.3102247451963 L 246.83505573540532,867.9901579444613 L 221.90287136899468,898.7579534691794 L 225.46461254912896,922.2851663493649 L 161.3532810431802,924.0949116596753 L 85.45709438891504,924.050848588808" fill="none" stroke="#000000" stroke-width="1.16"/>
	<path d="M 784.7956678306008,165.42346367863135 L 746.6483258814131,154.12779760303619 L 710.0867859560808,164.3476962241231 L 673.9657453901387,182.90440792269442 L 637.1399036840277,196.88877191609066 L 644.6284122788451,183.44227312337418 L 659.1649301092706,148.74882992142796 L 666.5653366671343,135.30118404787103 L 659.869729084172,134.22535913848733 L 637.1399036840277,135.30118404787103 L 640.3115077317382,126.51521649165663 L 653.0860216293607,105.17729476146178 L 699.8671748380117,119.34289688930106 L 727.8830055409794,81.3280744759553 L 751.405731952997,29.053497633018548 L 784.7956678306008,0.0 L 798.7154843928512,36.04763323291391 L 795.0152789487967,76.1277340820896 L 786.2052701107579,119.70151415636873 L 784.7956678306008,165.42346367863135" fill="none" stroke="#000000" stroke-width="1.16"/>
</svg>
