<?xml version="1.0" ?>
<svg xmlns="http://www.w3.org/2000/svg" xmlns:ev="http://www.w3.org/2001/xml-events" xmlns:xlink="http://www.w3.org/1999/xlink" baseProfile="full" height="306px" version="1.1" viewBox="-80.4 -41.0828540235314 960.8 488.9942482823767" width="600px">
	<defs/>
	<path d="M 21.264042054018688,0.0 L 29.47209518885737,0.012713755557970403 L 58.890447619931685,10.999805279941329 L 63.635343204095854,11.583970794692773 L 67.35731322166092,10.589175237195198 L 75.07239014390309,6.558164286374879 L 79.41058045701742,6.04570082562231 L 82.88606230865798,7.832854081776117 L 83.94781942219267,8.642167442744778 L 89.93562149294982,13.205059521339436 L 102.16143025366416,17.444867703395587 L 106.00664435418099,19.695200161563456 L 122.32415550058217,32.818924700996625 L 125.98450341704559,33.73122842764039 L 138.40750266279537,32.092400083903975 L 142.47455608879164,32.93719107119831 L 146.33209460953498,34.88415833205888 L 150.00476694620994,37.91998323800747 L 154.15809107527087,39.71823620599508 L 162.68657865886522,38.05929608470653 L 166.3099534339026,39.46076003213003 L 167.39450110162528,41.077261446492656 L 169.0706201052007,44.891659717490526 L 170.17981637486446,46.5621037530467 L 171.90523294009145,47.882229512456526 L 178.12905704281062,49.834678854666265 L 181.2717801447155,51.702427548383234 L 186.57127380410378,57.16872474169987 L 189.78794330808333,58.95925856739559 L 194.1507823424052,59.329963803923285 L 202.88878483125944,58.15882494963758 L 207.22697502512926,58.643305647801824 L 214.99134962825354,60.871611261763974 L 218.73796848625668,61.250668122133206 L 227.04461686361606,60.30721104029175 L 230.54474755569467,60.48411594707933 L 233.9955806861347,61.44019109572404 L 237.74219954413184,63.301534204234315 L 241.51346712334148,64.40890884023834 L 245.33403250266474,64.6194223512718 L 249.142273342525,63.85313178328149 L 258.5677273001463,58.600301808822536 L 256.8944197303915,62.45526128609713 L 255.5880329078341,66.69076740461429 L 256.0193871576353,71.35782532299172 L 256.0810091320421,75.87969763421 L 254.4048901413322,80.47096294834431 L 252.02628021344083,84.40884005036416 L 249.26561361527544,87.54709330258632 L 246.997923348557,91.25541972630279 L 240.77409921504383,93.92136528052157 L 229.18915934037193,96.07039296420336 L 228.2655159559684,97.28271769803301 L 226.39151966480185,99.74196968184796 L 228.49899279807204,102.45596448106994 L 229.5095939289992,105.84007687439262 L 230.1627873939014,109.65473071690788 L 230.3572298897983,110.23434951536132 L 231.32128126339924,113.1076148779981 L 231.92517704153525,116.61374566625071 L 230.08884091737212,119.11796561840404 L 228.59758806435843,120.0642121999353 L 227.31585003156414,121.44155186845774 L 227.22957916016028,123.18702435552368 L 228.10461184015642,124.67692140337608 L 229.37402537082824,132.12724342014113 L 229.213808237375,136.3080238349639 L 229.69445995945551,140.25307089322465 L 233.05902233575787,146.01320940295986 L 233.5029002332018,149.87652156507934 L 233.86010853922474,152.98441453207033 L 232.81253422365288,155.86748292898443 L 230.66808790574402,157.2023410743349 L 228.1785583166797,159.23765606239016 L 226.2901100872348,161.99348139909563 L 226.13270715782227,162.22314642178168 L 216.75383568270698,171.32005335557923 L 206.460134272793,177.30285967219217 L 206.0932261747974,177.51604458123117 L 200.202161024793,179.50144776283955 L 198.57934525910747,181.53127118839643 L 195.9502416808599,184.81888935315513 L 191.42718532781274,187.65952578451132 L 190.08222164684105,188.30898937394642 L 187.24515019194823,189.67883213418025 L 186.64588248291827,189.9628672315346 L 180.56176735400524,152.2216289532962 L 178.48505681602623,145.81184693649885 L 175.45732920129373,140.40470400507002 L 171.5174015503883,136.1664000063204 L 166.64586552187896,133.35522547752626 L 157.56268267768047,131.67604225690107 L 155.62183160285232,130.58936104312747 L 153.70038910792925,128.81748686760463 L 150.81822530592189,127.21001196910649 L 147.7904976911894,126.06353931687941 L 145.4032509478461,125.72088972067735 L 144.01554243291517,126.12943212303644 L 141.61859133998962,127.60531686113431 L 140.1047275922526,127.92154936890657 L 138.833470079804,127.14412632028004 L 133.4087914913974,118.891792107324 L 130.6721915021102,108.90997018510444 L 125.7230213924606,100.27912010960092 L 123.67542354547295,95.62710166868946 L 120.72533001189466,95.71302514629913 L 116.02847048711574,97.83443941227344 L 113.02015133304481,96.8035283525583 L 109.46839396864992,91.34319958398744 L 107.39168331142643,90.07353953331331 L 107.35286639009732,89.24023670364664 L 104.55804089957493,84.4109906966958 L 103.74288340521679,83.74926675448495 L 95.04787072828432,80.31420838415639 L 83.1019326619925,78.66575124125019 L 77.54139449118958,78.96368540163594 L 73.69850938209991,79.93687495425712 L 72.24287113559707,80.0758941734762 L 70.82604981042334,79.55952713489992 L 68.53584560889479,77.2554072942823 L 67.32281371693284,76.74551515350922 L 66.78907973694068,76.30182137865235 L 64.75118612028979,74.11617339545356 L 63.703126620966025,73.30139919581667 L 62.51920742000939,72.864175763024 L 58.73454793140439,72.20167886300689 L 49.166152258873616,67.58947084422527 L 44.74101189887943,67.07907993074785 L 41.63565032223823,71.08858436107727 L 40.432322660613046,69.78981548793287 L 38.67585243907667,65.40852517335485 L 37.569567438518725,63.300041096940596 L 34.86208014022984,60.55435887006028 L 33.67816105851671,58.783187685578 L 34.20219080817809,53.62707164449424 L 32.338973814497166,48.826874345051046 L 29.718824946942746,44.41633497212965 L 27.797382452020667,42.030898720260026 L 24.119469735567197,40.30957078528194 L 17.588506027344206,38.34197064013746 L 13.755325148584335,34.49204795720673 L 12.037671967628548,33.654041516597246 L 6.535359298067762,32.756098291366975 L 2.838038120954727,31.22608037560698 L 0.0,30.59969563987932 L 0.6329895541857479,27.76593339001114 L 8.730123145529703,6.664041770422316 L 10.356944468235003,4.0633585554171265 L 13.203881723338304,2.165356773881542 L 21.264042054018688,0.0" fill="none" stroke="#000000" stroke-width="0.8"/>
	<path d="M 283.3978380501446,55.71451839692588 L 290.5892442877543,56.72630763914498 L 297.36766646568356,61.30541959514149 L 300.5103895675944,64.45943255071009 L 303.9488982778239,67.14523432180195 L 311.22029654910517,71.22305768677509 L 313.5249601492179,71.71951977003755 L 315.21340357301887,71.02109973951796 L 318.41774853754237,68.00386328983677 L 320.48824851120753,67.01054063887754 L 324.22254294899216,66.92214684540549 L 329.78084907526494,65.2088361863348 L 334.5257446594371,65.335134668834 L 339.1104230192384,66.5433077404877 L 342.4380120667197,68.71091344578365 L 345.7902500738845,71.90463495376768 L 349.253407624558,74.16780753614448 L 359.4210409510702,77.95683111164192 L 359.4333653712897,80.12193662355332 L 358.5213594674229,82.8118928551067 L 358.1886005984407,85.43809826606095 L 359.2731480276734,87.13950731564397 L 365.1642132614054,91.24269183034785 L 377.96310690652444,103.35334364544808 L 380.3051980941477,104.6390444145477 L 376.40416611605525,106.22160835419265 L 372.3371128025724,111.9260590148945 L 369.68736586557395,114.40213708089026 L 369.3669312769467,119.46967830832996 L 367.23480946115933,122.86474187070523 L 363.90722026950164,122.2745614233937 L 356.512577871603,119.41106048809493 L 347.8361974409151,120.58335354984612 L 334.883248769285,114.73726084191541 L 333.3426982295052,115.50381415349275 L 331.9007429560177,116.7393903019098 L 328.67174903065336,118.1841914782433 L 321.6961363804325,117.91618619088261 L 304.7500807646089,113.78212800315785 L 301.8045482432262,112.39115631787855 L 298.82204232271897,112.31573660535545 L 297.34311397182677,115.03048495043953 L 296.09834912367813,118.01668905705411 L 294.80428658876235,119.00909947089778 L 293.3623314225148,119.37756424823853 L 288.93787033576,119.69995979672676 L 285.1542783190259,121.83504235796651 L 282.2087456904032,127.4426835991275 L 288.75300430530376,133.0806159074283 L 302.112658329731,140.6792429506745 L 307.52307175764884,146.19276875312323 L 304.35569991393226,152.93851242148284 L 313.4264613025368,171.01598445051135 L 311.1341220315753,171.12844935776698 L 308.9650270311443,171.72407570669608 L 302.97536661484656,172.13641150439625 L 299.3519918388056,175.83834248999855 L 297.51565560740147,181.3782694650383 L 295.70396827300146,182.99263741750264 L 294.54547418901575,185.51352631928359 L 294.4345546350897,190.2041853041808 L 292.8323820136681,193.9908724642393 L 284.45178727460444,203.63194581837706 L 279.30018635366616,212.1769667707776 L 277.932177556701,216.3617480725859 L 275.7014603673813,218.9737611120759 L 274.5059932059978,225.67068099846125 L 274.666210446692,234.08937959097156 L 272.2013296473968,239.05530576238732 L 267.4687584741372,239.60140828826488 L 261.1586635764521,236.42366970293034 L 253.52985746133606,235.4469758236952 L 247.50322386040165,231.39848051679013 L 240.89734327109332,229.7628904440073 L 226.10805836805918,232.2555064698466 L 218.46692785806255,232.52046584943102 L 210.961365798995,233.94036394947977 L 209.33454449505126,238.3809110465869 L 208.80459497895765,241.45049025829383 L 208.17605041106552,242.25289461673603 L 206.20868403757052,245.66074280858385 L 202.59042661216142,239.32181308361638 L 201.3288734492951,238.26629772928865 L 200.10613732700236,236.91742271839973 L 199.52388195684733,233.86712670344616 L 199.29097983263722,228.40948476772715 L 198.3302586448054,221.16718412276794 L 192.01278848088646,199.13419098119724 L 191.54698423246623,198.17257703175244 L 190.70271404710977,196.97533709899258 L 187.5003098094013,193.7689087328709 L 187.08302683189146,192.63659822619928 L 186.64588248291827,189.9628672315346 L 187.24515019194823,189.67883213418025 L 190.08222164684105,188.30898937394642 L 191.42718532781274,187.65952578451132 L 195.9502416808599,184.81888935315513 L 198.57934525910747,181.53127118839643 L 200.202161024793,179.50144776283955 L 206.0932261747974,177.51604458123117 L 206.460134272793,177.30285967219217 L 216.75383568270698,171.32005335557923 L 226.13270715782227,162.22314642178168 L 226.2901100872348,161.99348139909563 L 228.1785583166797,159.23765606239016 L 230.66808790574402,157.2023410743349 L 232.81253422365288,155.86748292898443 L 233.86010853922474,152.98441453207033 L 233.5029002332018,149.87652156507934 L 233.05902233575787,146.01320940295986 L 229.69445995945551,140.25307089322465 L 229.213808237375,136.3080238349639 L 229.37402537082824,132.12724342014113 L 228.10461184015642,124.67692140337608 L 227.22957916016028,123.18702435552368 L 227.31585003156414,121.44155186845774 L 228.59758806435843,120.0642121999353 L 230.08884091737212,119.11796561840404 L 231.92517704153525,116.61374566625071 L 231.32128126339924,113.1076148779981 L 230.3572298897983,110.23434951536132 L 230.1627873939014,109.65473071690788 L 229.5095939289992,105.84007687439262 L 228.49899279807204,102.45596448106994 L 226.39151966480185,99.74196968184796 L 228.2655159559684,97.28271769803301 L 229.18915934037193,96.07039296420336 L 240.77409921504383,93.92136528052157 L 246.997923348557,91.25541972630279 L 249.26561361527544,87.54709330258632 L 252.02628021344083,84.40884005036416 L 254.4048901413322,80.47096294834431 L 256.0810091320421,75.87969763421 L 256.0193871576353,71.35782532299172 L 255.5880329078341,66.69076740461429 L 256.8944197303915,62.45526128609713 L 258.5677273001463,58.600301808822536 L 259.223635846736,58.23465815740587 L 262.26776370613214,57.29933941493031 L 282.4428131347807,55.580144099786445 L 283.3978380501446,55.71451839692588" fill="none" stroke="#000000" stroke-width="0.8"/>
	<path d="M 467.7033514926038,164.22409283375174 L 469.2129947359949,165.3701575143237 L 471.468360535987,166.48288296022216 L 473.69907773402406,166.12865804105985 L 475.46146755991464,164.58242319151628 L 478.41932447776514,160.48853826603963 L 480.0276592297509,158.72039490669124 L 485.22239549613147,156.3012011263542 L 496.6409559844627,155.75888743838675 L 500.81211066045347,154.49262609679812 L 501.0531888132898,155.02893388633473 L 502.556766168419,159.29186984345174 L 504.9969981779581,162.65671865571252 L 510.653899610739,164.21575632196124 L 514.634682160052,171.29922699933283 L 516.6805332116754,173.10262675853366 L 518.5291938379601,175.75091127013488 L 514.6963041344598,180.52105081058681 L 512.8722922979372,186.27466011859528 L 514.2156524123792,187.07732331153457 L 515.0660361953733,188.71156298808083 L 515.3125244147172,191.29752509911026 L 515.842473716323,193.7872339690741 L 517.4446462305036,195.40375896742188 L 519.0837920365699,197.57672264626487 L 519.3426044363155,202.41953256056462 L 518.9235747958767,207.46752194557558 L 520.944777057736,211.72893848055637 L 521.8937561070215,216.76810582452742 L 519.8479050553981,219.56655190428395 L 517.3830242560969,221.44832819871263 L 516.5572891556269,223.57008518264465 L 515.4973904451736,225.51325513776425 L 513.9938130900383,226.5281947076973 L 512.5641823186724,227.81639916859834 L 510.72784608726926,235.64149440827737 L 510.46903358028374,243.88232321622453 L 510.3857148241361,244.1256679430213 L 509.38448608006723,247.04944411124484 L 509.8897865919108,249.7196375900502 L 513.205051281446,251.49661942992373 L 513.7719738749374,255.6031432463132 L 515.3803508929208,254.1139811825945 L 517.2474558051658,252.38499304452262 L 520.7106133405126,249.80642780458297 L 524.8023154437595,249.94281067277367 L 533.3431275307563,251.8643743112505 L 537.4471540288838,254.1408504245232 L 537.9210090653648,255.71083640115 L 538.950731384013,259.12169208871313 L 539.8504128537722,264.85941869553443 L 543.7695733214435,269.4720053703977 L 547.0108916416893,274.4947739259671 L 545.3963947326272,279.01231137571295 L 541.008906830517,279.21835540452713 L 537.6936421409819,282.4073813115549 L 538.0880229916576,288.53540402442746 L 535.7710351454149,291.2852205021988 L 535.795683935177,295.36329100447887 L 533.873076939603,299.56310105148395 L 525.5541041749472,299.7687278933609 L 522.8057619716623,298.6706324705609 L 520.8831549760883,296.3465560891138 L 518.7140598684164,295.2892336884774 L 511.5289322907361,298.78990708614697 L 505.74878680190574,299.8016277672093 L 500.12885844652754,298.41151410229253 L 496.3575909319089,299.0531286129872 L 492.67259407422614,300.2663274189611 L 465.0905777402491,297.55596499440435 L 460.0622209826062,291.46220422656864 L 452.0267094074521,291.606258226536 L 447.52830195140797,292.2729964714816 L 443.4242754532874,289.9186384504707 L 439.566736960024,288.4407113943446 L 437.80434709791024,284.22805463604305 L 434.131674742343,283.6060966713917 L 430.0522969267387,280.10017606539617 L 428.88147855511136,278.2663971013726 L 427.26698164604915,276.9145451205886 L 426.63843707815704,274.31337097305794 L 425.51691628605687,272.1115377410547 L 421.30197012676143,270.14845126614165 L 413.5622443504714,268.2592393516135 L 410.2346552660617,268.47375277454756 L 411.0973635511762,262.28403662572873 L 415.3985804746356,258.46102511812626 L 417.2102680235165,252.73205733159918 L 417.70324414048355,245.9745536666617 L 421.01850883001975,242.64993689662336 L 424.8760472160363,239.7462032311719 L 427.0574667185898,235.6083852896359 L 428.65963934001735,230.9637293453009 L 430.5206242539376,229.4150344745339 L 431.3208781642357,228.56387422107343 L 431.9379308449089,227.90751993155254 L 432.6157729923263,223.72339786110186 L 431.8763087632602,218.6172405201292 L 432.455513713374,215.78067988620916 L 432.8499367095497,213.8485997373327 L 435.2761118546408,212.1230654962646 L 440.9100969672261,208.1149422822918 L 450.05480483235885,205.63293785728334 L 450.1410757037627,200.37636788194044 L 451.5583820802471,195.1876834723717 L 448.8593376709694,191.9667729330682 L 445.06342104487277,192.482188192479 L 441.7728052523406,194.29840003622454 L 438.3096477169928,195.1419743447821 L 433.6756718100196,194.42722622363567 L 429.4607255434842,191.8503852720845 L 439.1846803969899,184.02852502762656 L 455.76100384466,182.718046813536 L 458.0410186135059,181.62793109791755 L 460.64146786373817,176.93741488598383 L 466.9885360533009,172.37797414245543 L 467.7033514926038,164.22409283375174" fill="none" stroke="#000000" stroke-width="0.8"/>
	<path d="M 405.46010041958954,112.35913355538614 L 416.60011373807646,115.50787190954473 L 421.1108455765436,116.64293203179164 L 429.3188985921438,120.66695272614027 L 431.31545216372734,122.42093254159701 L 436.24521369346394,128.28760975367305 L 438.4512821703204,129.70145527700052 L 449.5555701219009,132.40727996731283 L 452.7228903115253,134.01164566919132 L 454.8797127409648,135.10400860116135 L 456.210748336108,139.82674982044708 L 453.4624062042679,143.7369898435233 L 449.29675765499445,146.71459438845804 L 445.94451976706813,149.98768036528088 L 445.5747876374364,154.75761592479617 L 448.9763232062388,158.9747932668783 L 454.34976326770374,160.41348192412903 L 460.17304424985207,160.86381135295056 L 464.98572408561984,162.1271272720891 L 467.7033514926038,164.22409283375174 L 466.9885360533009,172.37797414245543 L 460.64146786373817,176.93741488598383 L 458.0410186135059,181.62793109791755 L 455.76100384466,182.718046813536 L 439.1846803969899,184.02852502762656 L 429.4607255434842,191.8503852720845 L 426.95753652311384,190.9295106289276 L 419.26844347002054,188.1003137551036 L 407.10425660698274,189.09409459702238 L 394.4594181290974,187.7219026761333 L 383.13329065417213,193.63761947197446 L 378.9429932846398,197.88414026895504 L 373.914636419749,199.95273282486167 L 365.37382443999314,200.7169243422369 L 359.6922742174481,197.52687028715624 L 357.1411225467411,197.05326015477982 L 354.1709411283553,194.6599405117005 L 352.6550393783386,189.60550006828842 L 346.60375698764705,183.96196509406744 L 340.0225252953418,179.77196483447776 L 337.06466827183755,179.87184614586903 L 334.4272457297207,182.52666110892324 L 331.2968471778827,182.27702188777832 L 328.28969257485926,181.0204104638726 L 315.533934328567,185.2972374633927 L 315.4353391695146,181.86094287906835 L 314.4986844078707,178.8188797601624 L 314.46171122322505,174.73082187773696 L 313.4264613025368,171.01598445051135 L 304.35569991393226,152.93851242148284 L 307.52307175764884,146.19276875312323 L 302.112658329731,140.6792429506745 L 288.75300430530376,133.0806159074283 L 282.2087456904032,127.4426835991275 L 285.1542783190259,121.83504235796651 L 288.93787033576,119.69995979672676 L 293.3623314225148,119.37756424823853 L 294.80428658876235,119.00909947089778 L 296.09834912367813,118.01668905705411 L 297.34311397182677,115.03048495043953 L 298.82204232271897,112.31573660535545 L 301.8045482432262,112.39115631787855 L 304.7500807646089,113.78212800315785 L 321.6961363804325,117.91618619088261 L 328.67174903065336,118.1841914782433 L 331.9007429560177,116.7393903019098 L 333.3426982295052,115.50381415349275 L 334.883248769285,114.73726084191541 L 347.8361974409151,120.58335354984612 L 356.512577871603,119.41106048809493 L 363.90722026950164,122.2745614233937 L 367.23480946115933,122.86474187070523 L 369.3669312769467,119.46967830832996 L 369.68736586557395,114.40213708089026 L 372.3371128025724,111.9260590148945 L 376.40416611605525,106.22160835419265 L 380.3051980941477,104.6390444145477 L 382.5847584077378,105.89025853931467 L 405.46010041958954,112.35913355538614" fill="none" stroke="#000000" stroke-width="0.8"/>
	<path d="M 581.130908087466,132.99267842532873 L 586.3318065043335,134.03376644969651 L 599.346377324439,143.37777959913464 L 601.4538503202727,144.4344888964494 L 603.6352698374398,144.89806906295328 L 605.8906357566693,144.4846067761391 L 606.9665565552174,144.00662400561703 L 610.2904480516478,142.52982529596562 L 612.5643006608353,142.2499426376318 L 616.4280012128203,143.7077522110539 L 619.8665100422942,146.68536548766141 L 631.6116671298681,160.96805149109008 L 632.9180538845673,163.14433495734093 L 633.8628395289735,165.25187281452665 L 633.836318244724,165.29110036005875 L 629.9787798587005,170.99515760588199 L 628.3273097649936,178.2985986079418 L 628.6970418259062,183.20065564163264 L 626.8483811996285,187.28109805493898 L 624.1986343698691,189.66370717723078 L 623.0401403931243,193.42150590969837 L 624.5683664307827,199.8447445768702 L 623.4961433254487,206.06878570343406 L 621.154506582201,206.96117718708425 L 618.6526524910142,207.32641217092447 L 615.5592271238198,210.15653269085698 L 612.6506676798418,213.79882826048888 L 610.2104357775507,221.90421205097766 L 607.9427454035854,225.55468328774617 L 606.1064091721822,234.72267133056667 L 604.4549389712355,238.43883631632568 L 605.8845698498404,244.61837469151737 L 606.2296532282307,249.1162192105698 L 608.3740995461467,254.17389890452074 L 606.525438812621,258.5353523164852 L 607.6469597119622,263.48101053664806 L 610.3336798335982,264.44674149011445 L 613.1806170886886,264.70673011014696 L 619.0223846591676,266.22938676028326 L 623.2866283979884,271.39398318600627 L 613.7105663902953,272.7589428654095 L 607.1786322775163,268.4902536075862 L 603.6415283728801,270.67225324332 L 600.4495076321595,274.1443332975037 L 604.1961265714889,276.3993101820775 L 605.7982989784366,281.09728300137374 L 599.8456119612644,281.45984295489876 L 593.8559515449735,280.0342483852701 L 591.292475479385,281.0354815126914 L 589.2959220072887,283.9726857922542 L 587.8539667338013,288.4489454902017 L 585.0440025561097,291.89436037492055 L 577.7233066347384,288.0825183837518 L 574.6791787398304,287.819011895404 L 572.8305182207856,291.12881371657255 L 569.4536314496017,293.27713675809645 L 566.0151228112579,293.1701429391795 L 563.6118638791236,298.6171642720733 L 561.3072003205206,299.57955133492874 L 559.8282718623894,302.1249135129998 L 553.579798939112,305.2861955004292 L 547.9598707982158,300.2375413885949 L 542.4015645244783,296.2395946338382 L 535.795683935177,295.36329100447887 L 535.7710351454149,291.2852205021988 L 538.0880229916576,288.53540402442746 L 537.6936421409819,282.4073813115549 L 541.008906830517,279.21835540452713 L 545.3963947326272,279.01231137571295 L 547.0108916416893,274.4947739259671 L 543.7695733214435,269.4720053703977 L 539.8504128537722,264.85941869553443 L 538.950731384013,259.12169208871313 L 537.9210090653648,255.71083640115 L 537.4471540288838,254.1408504245232 L 533.3431275307563,251.8643743112505 L 524.8023154437595,249.94281067277367 L 520.7106133405126,249.80642780458297 L 517.2474558051658,252.38499304452262 L 515.3803508929208,254.1139811825945 L 513.7719738749374,255.6031432463132 L 513.205051281446,251.49661942992373 L 509.8897865919108,249.7196375900502 L 509.38448608006723,247.04944411124484 L 510.3857148241361,244.1256679430213 L 510.46903358028374,243.88232321622453 L 510.72784608726926,235.64149440827737 L 512.5641823186724,227.81639916859834 L 513.9938130900383,226.5281947076973 L 515.4973904451736,225.51325513776425 L 516.5572891556269,223.57008518264465 L 517.3830242560969,221.44832819871263 L 519.8479050553981,219.56655190428395 L 521.8937561070215,216.76810582452742 L 520.944777057736,211.72893848055637 L 518.9235747958767,207.46752194557558 L 519.3426044363155,202.41953256056462 L 519.0837920365699,197.57672264626487 L 517.4446462305036,195.40375896742188 L 515.842473716323,193.7872339690741 L 515.3125244147172,191.29752509911026 L 515.0660361953733,188.71156298808083 L 514.2156524123792,187.07732331153457 L 512.8722922979372,186.27466011859528 L 514.6963041344598,180.52105081058681 L 518.5291938379601,175.75091127013488 L 516.6805332116754,173.10262675853366 L 514.634682160052,171.29922699933283 L 510.653899610739,164.21575632196124 L 504.9969981779581,162.65671865571252 L 502.556766168419,159.29186984345174 L 501.0531888132898,155.02893388633473 L 500.81211066045347,154.49262609679812 L 502.19309996025646,154.07335591906335 L 503.85851771863855,152.37282256578175 L 506.0999360426374,150.08368580999095 L 508.3060042809919,145.52867043117666 L 511.0913196734826,142.23323295966273 L 521.6656583902911,142.01182744504572 L 526.5214735179579,140.43260335612067 L 535.8017499002929,135.4551566821436 L 539.2464207610093,134.4852889470298 L 545.2299189675285,134.02958546429724 L 550.3198978409083,134.67341711595913 L 554.8251751339778,136.12533478028317 L 555.2619839101159,136.266094123734 L 559.6741206253058,138.7904462347571 L 561.5351055744726,140.3197920341154 L 565.0475606867637,144.06695056385195 L 566.4648672234537,146.24692298607326 L 569.4103997210916,155.66710834562204 L 570.8893282396257,157.21472402651435 L 571.9430646779203,156.08427912241467 L 573.8718339979142,147.18641932559743 L 577.3226671283612,139.7139317998375 L 578.0682936573693,137.10622279448992 L 581.130908087466,132.99267842532873" fill="none" stroke="#000000" stroke-width="0.8"/>
	<path d="M 633.8628395289735,165.25187281452665 L 635.1734199230553,168.17465517127246 L 636.3812114352338,170.045271459402 L 640.3496696187224,171.68229443794203 L 645.4273240718627,170.97003493312533 L 655.0526836241478,168.07465677624413 L 661.9173767436228,168.23298686448715 L 671.9124684255386,170.00361345986076 L 681.21739352906,173.67718411361028 L 686.0978574971729,179.49715582008838 L 686.084783258811,179.62903750082467 L 685.7158009473076,183.35029595486824 L 671.9987392478337,219.20163216938428 L 673.1942064590381,222.94010580570338 L 676.7929323936374,225.26041049293033 L 681.5871256586918,227.49734059008577 L 694.6818049121304,236.67183742336235 L 703.0007777097013,238.82762500633814 L 704.646085603121,240.4534707389225 L 708.0229723314854,248.81436724239356 L 709.2923859447725,250.59564093002626 L 710.8945584270268,251.4882260292048 L 713.1376000452893,251.6245862175703 L 713.987983967306,251.28988067752658 L 715.5655077283668,250.05013351049297 L 716.5699466050238,249.80216580086224 L 717.3402218552324,250.19891108377325 L 719.3367753075635,251.94688486734432 L 720.3350520337465,252.46749933649858 L 722.4918227104623,252.31875519935372 L 724.1186440331547,251.90143318051966 L 725.2894624039211,252.70300671122132 L 726.0905487642992,256.1936544857529 L 728.974459280073,257.54001968858745 L 732.6348073157681,257.63087211024214 L 739.6350688191837,256.18539393138667 L 739.6720419605958,256.16887296220847 L 739.7090152212604,256.1482217526919 L 740.719616367647,255.87149137500035 L 741.7302175140425,255.77649260025993 L 742.7346563906985,255.87149137500035 L 743.8993126109839,256.1936544857529 L 747.0173868724437,258.71278054851274 L 752.2244475590428,264.95832987448995 L 755.6198208581208,266.4933267416755 L 762.7063533030691,267.0957081743302 L 765.6272369602481,268.7252588345894 L 768.529634165973,272.6516033747527 L 763.9819290668422,282.02412824865627 L 761.4246152695565,286.16769504169315 L 756.2976631355331,292.4251415067399 L 754.5599221500945,293.9806703738954 L 752.6558016705317,294.9105814870026 L 750.1724343945732,295.14921760749706 L 744.5894793086158,293.8736839061608 L 741.989029980934,294.16172164225264 L 739.6843665000598,296.60971254455575 L 738.5566834212066,302.06311168319456 L 738.6121432525697,310.13090882037363 L 740.1342071822612,317.2809465045312 L 743.3447144165233,319.9614284551715 L 744.3922887043229,319.09948224115686 L 744.9838601594481,317.6340058546767 L 745.7726220996007,316.4351960728281 L 747.4240921434936,316.3695038548146 L 747.6952290306186,317.2563138813877 L 750.344975919932,322.32935274129244 L 750.5210601932757,323.4761950728051 L 751.4726588795468,329.6717508014323 L 752.5325575875729,333.1237199722964 L 754.5845708712811,335.76315460719115 L 760.8207195134703,340.0733086545216 L 762.2133770904646,340.7204938903006 L 764.6412846543055,341.318489417581 L 770.2242397402679,346.5105658663229 L 781.8338283246645,351.4135889760176 L 787.6879202977519,354.9072961215437 L 789.5735542065953,359.32385827180514 L 791.4222147355365,358.59607478582745 L 792.2534807991108,359.14763132375913 L 792.3958426212545,359.24208747204517 L 793.1969289816326,360.59939882566505 L 795.5015924625068,363.1826989510072 L 799.2482113205169,368.91921648521605 L 800.0,371.2227247486225 L 799.6302677511237,371.41874402052457 L 798.6443155644178,371.2717298393092 L 797.5967411573665,372.50494973939743 L 797.3625775309062,373.72169021306746 L 797.2331711782149,376.48944036674374 L 796.9805209810548,377.52613370393226 L 796.2780298631964,378.5300752913924 L 794.7005062213732,380.00724160698036 L 793.9980151035228,380.9864610152962 L 792.8395211529679,385.23682124167954 L 792.2109765564446,390.651236187608 L 791.2126998302756,395.72058394316895 L 790.5480401367068,396.6557948923756 L 788.9080363494014,398.9630023519894 L 786.5663996078626,399.33768829471893 L 784.298709149162,398.71863460125417 L 781.9632345581103,398.49055265429456 L 779.4428939022507,400.0707299596391 L 778.099533886881,402.59525096213434 L 777.4340160296861,405.0703086503516 L 776.3864417418795,406.7145898933355 L 773.7798302637236,406.82854023531394 L 771.6415461577074,405.5180350811571 L 768.3077948405005,401.02360585965044 L 766.354376799306,399.3051074095762 L 759.255520172628,396.99160348348244 L 756.7783148086596,395.5168802518101 L 749.7534045840583,389.14298893468913 L 746.2902470333918,384.8126800556062 L 744.4046131245484,382.969093906081 L 742.2601668680521,382.21851251154555 L 733.2941629032304,382.25930636284784 L 730.638253863437,382.87119497671546 L 727.5944801643354,384.82554246090103 L 724.4637274415929,386.83534924042465 L 722.1097661605982,387.6997556209146 L 719.2258556448303,387.9606942003867 L 713.4703589142705,387.2512521022453 L 695.7725147303321,380.85590366234726 L 689.7612015695967,377.17636751727537 L 687.4658663529797,375.7710401788306 L 682.5361047039846,371.5494213454768 L 679.6891673296368,367.040084735528 L 682.3389143381877,363.73851362109974 L 685.0749320498034,362.76581809233437 L 686.7756997745853,361.833905358071 L 686.627806970433,360.8528527902044 L 683.8424915779353,359.7408794334581 L 676.078116974812,358.16265080479957 L 658.9348709853341,351.47905591724344 L 655.0526836241478,347.8204518475018 L 653.3272670589198,345.83918422188356 L 651.5648773522806,345.5198528536622 L 647.6210680092422,346.7234337395187 L 645.2178092858543,346.9362971748533 L 643.362986367943,346.5678768902378 L 637.6219800022552,343.5942511021661 L 637.6199103687052,343.57921508849506 L 637.2501783077915,340.892651689183 L 636.498389576604,338.8281040325314 L 635.5001128405523,336.9311374182266 L 634.6497289503194,332.97218265504495 L 632.4313362631211,329.8194929185494 L 628.7093663280288,328.75744407718923 L 624.8888010194099,328.47448578770775 L 622.7443545942601,327.06367779671587 L 621.8816464163865,323.97069961006486 L 621.2284529514833,319.66193604134077 L 625.3201551619702,310.24196059518306 L 623.0401403931243,301.7178629730427 L 622.115810026362,296.61806859933495 L 620.0206613952193,292.3347293382512 L 615.472956252416,291.84908779171843 L 611.5291468877408,288.980035634258 L 608.9163732426349,284.6358075811068 L 605.7982989784366,281.09728300137374 L 604.1961265714889,276.3993101820775 L 600.4495076321595,274.1443332975037 L 603.6415283728801,270.67225324332 L 607.1786322775163,268.4902536075862 L 613.7105663902953,272.7589428654095 L 623.2866283979884,271.39398318600627 L 619.0223846591676,266.22938676028326 L 613.1806170886886,264.70673011014696 L 610.3336798335982,264.44674149011445 L 607.6469597119622,263.48101053664806 L 606.525438812621,258.5353523164852 L 608.3740995461467,254.17389890452074 L 606.2296532282307,249.1162192105698 L 605.8845698498404,244.61837469151737 L 604.4549389712355,238.43883631632568 L 606.1064091721822,234.72267133056667 L 607.9427454035854,225.55468328774617 L 610.2104357775507,221.90421205097766 L 612.6506676798418,213.79882826048888 L 615.5592271238198,210.15653269085698 L 618.6526524910142,207.32641217092447 L 621.154506582201,206.96117718708425 L 623.4961433254487,206.06878570343406 L 624.5683664307827,199.8447445768702 L 623.0401403931243,193.42150590969837 L 624.1986343698691,189.66370717723078 L 626.8483811996285,187.28109805493898 L 628.6970418259062,183.20065564163264 L 628.3273097649936,178.2985986079418 L 629.9787798587005,170.99515760588199 L 633.836318244724,165.29110036005875 L 633.8628395289735,165.25187281452665" fill="none" stroke="#000000" stroke-width="0.8"/>
	<path d="M 339.1350718596765,339.1311300956517 L 336.8920303606584,338.39371227715924 L 334.6243399019578,335.9024845991943 L 331.5678877415946,334.0828483218791 L 332.56616446776263,332.5088465879501 L 334.9201256295139,330.5164022928694 L 335.88142921427686,329.3601140008637 L 336.37440530762285,327.94942866506227 L 336.62089347354134,326.37447930610017 L 337.01527444361716,324.7746719325077 L 337.939604648472,323.28949771389205 L 335.67191430900994,322.1980438000547 L 318.9846711522285,320.76174175415076 L 312.9703619547702,321.2706262449749 L 310.62804682337327,322.04736190670707 L 310.11934792125084,322.2160437462706 L 308.9403781400981,318.87385052749727 L 305.427923027794,313.2487595380881 L 302.6302832150768,309.99957063580825 L 299.5122090728565,307.09454903834825 L 298.3413907020901,305.10945280687315 L 297.54030434171096,302.84029628337044 L 297.8237656490476,299.8304150391451 L 299.1917745048563,297.7451792085454 L 299.3026941675956,292.21949437155087 L 298.13750444121877,288.84110923017255 L 297.6019264428126,287.28786115775 L 303.5053160236922,286.6496196212593 L 306.15506285345174,287.61314283775255 L 308.8664317648509,288.09487003307885 L 310.83833633994414,286.46843423335685 L 311.91055955251903,283.6225728570924 L 314.56030638227753,281.8223899323045 L 317.62908306694965,281.74411379667987 L 324.99907667508614,286.13899752728474 L 337.5946175734443,282.9223108343007 L 347.84852183579665,285.1012026879496 L 353.22196207906984,285.1918080802816 L 358.32426531324296,283.05824791798466 L 370.57472294045067,281.9707007478807 L 372.6082495971926,282.72046172703466 L 374.6048030692898,283.0211743618033 L 410.2346552660617,268.47375277454756 L 413.5622443504714,268.2592393516135 L 421.30197012676143,270.14845126614165 L 425.51691628605687,272.1115377410547 L 426.63843707815704,274.31337097305794 L 427.26698164604915,276.9145451205886 L 428.88147855511136,278.2663971013726 L 430.0522969267387,280.10017606539617 L 434.131674742343,283.6060966713917 L 437.80434709791024,284.22805463604305 L 439.566736960024,288.4407113943446 L 443.4242754532874,289.9186384504707 L 447.52830195140797,292.2729964714816 L 452.0267094074521,291.606258226536 L 460.0622209826062,291.46220422656864 L 465.0905777402491,297.55596499440435 L 459.21183698513227,303.7858396505452 L 452.0883313818598,304.07770721814114 L 446.82581090698653,303.20207978227046 L 444.10211760070575,308.1876249741814 L 443.35032897675814,324.0691643885889 L 442.11788863073,327.9495567457223 L 440.417120850258,329.31103543672896 L 439.62835893443173,331.83667071463174 L 443.80633190908253,332.64425007469686 L 449.04420370142566,332.41879015378294 L 454.77505161073685,330.9839288542281 L 460.4566018332829,331.30371541360483 L 463.5746760974803,334.62398314941044 L 465.7437710979113,339.2049970797655 L 466.8529674951309,340.1594572866526 L 467.3212949295698,342.34250073938887 L 467.69102699048136,345.7451514066839 L 467.74032457000857,349.2080569491492 L 468.6523305418893,352.8620729343673 L 471.14186013094763,354.4370294990433 L 472.3989493739788,357.4635373868216 L 472.86727670118375,360.85298042278197 L 471.14186013094763,367.83684294920874 L 471.99224412842756,374.80777940148766 L 473.5327945609605,377.0854753117118 L 474.7775594091101,379.60341391186984 L 476.0469729397829,387.7814270821405 L 476.05462903969254,387.830730371318 L 476.00322213755567,387.8433104843156 L 473.39096770549395,388.48255145608965 L 462.348301616526,388.71900933851106 L 457.2336739027161,390.8468843984939 L 451.6753676571908,395.7368799252232 L 449.339893066145,396.72274710625425 L 446.4251715594531,396.96716232837497 L 426.9772618505981,394.2293795508959 L 421.91193181767727,394.4249597553898 L 415.47243065921714,397.04863272439957 L 414.3016122884518,397.30933383964134 L 413.1246316479399,397.2848932827077 L 411.92916443674244,396.98345649078516 L 413.28484899156325,392.88466553865885 L 411.5902434172813,389.1592955167499 L 408.36741164355624,386.16660764663186 L 405.1137691173951,384.2661646954157 L 401.35482583916547,383.2546267179481 L 397.8793438682864,383.4993626661675 L 386.91062418138813,386.56622678007807 L 385.1913698859076,385.31838477725717 L 382.3321080913333,378.3015443976099 L 379.9226872174504,375.55877597483476 L 377.5748882061801,375.2730287259066 L 374.9497900380673,375.5669399971352 L 371.7084718128802,374.5382134235977 L 378.16029727232234,371.23089222733637 L 379.90420052750636,369.7116162963426 L 381.5125352795001,367.42410919799545 L 381.3523180551153,366.6070185182638 L 377.8645116640107,366.14941925719967 L 374.1856770576032,364.4005476492718 L 368.4301803270365,359.3483893525927 L 359.6552045775177,353.36104841185517 L 357.9297880123037,351.4626892212775 L 354.3680352191174,344.75833066937855 L 353.4437050142686,343.7019313385021 L 352.3838063062424,343.2842547953608 L 351.80455927134375,342.66180349176904 L 351.32390747897875,341.9410228194059 L 350.59676763992076,341.261148910791 L 347.0843125276156,340.0733086545216 L 346.17230650450426,339.53259084015417 L 345.1863541985468,337.7463794004555 L 344.52083646059845,335.7713504764729 L 343.6704525385877,334.73861049831044 L 342.0682800563324,335.7549585727078 L 339.1350718596765,339.1311300956517" fill="none" stroke="#000000" stroke-width="0.8"/>
	<path d="M 293.9478169942116,345.6514400752658 L 292.3762828348324,345.73274154230717 L 271.4617691469074,337.57429666598694 L 265.59535275361446,337.91026508763815 L 262.73609095903413,337.6726299899879 L 260.7518619269146,335.8041342049015 L 259.05109408289513,334.78779087397737 L 257.23940681462443,334.7304136402183 L 253.49278795662033,335.8041342049015 L 251.7920202318314,335.03368982836525 L 250.11590122825595,334.7550040361024 L 248.43978234391207,334.99270697541186 L 246.71436577868508,335.8041342049015 L 242.49941942928498,337.13997966497516 L 233.9586075447226,333.8861113164719 L 229.16441439890588,335.8041342049015 L 227.52526853673555,337.0662258693175 L 223.79097409895198,342.41608852020033 L 219.00910537336773,346.5023786188273 L 217.8629357238009,347.1655299407172 L 216.40865616494344,346.5515023221807 L 211.66376058077128,342.13760435777516 L 210.08623681970357,341.61337829481766 L 206.5984305478365,341.179233387351 L 205.20577285159166,340.6139979702931 L 204.7004722187816,339.61451958553806 L 204.72512105921967,338.31996754725594 L 204.86068956239797,337.1317848956116 L 204.7004722187816,336.5089579220278 L 203.7884663149008,336.50076264557356 L 200.7936361364007,337.86929395235444 L 197.23188346245198,338.14789464872007 L 195.71598168324738,337.8610997689726 L 183.01694394817295,332.5144619074257 L 190.82886939916733,318.4639470376782 L 194.34180972298861,313.71145427196586 L 201.53266288250686,309.0149737465703 L 203.54144368891392,304.2256931095833 L 209.13109466995869,295.05503929076815 L 209.44163075607153,293.18232652463973 L 209.45133510565378,291.74353726642283 L 209.62601160937126,290.4795675215911 L 210.35383079225142,289.06632752389953 L 212.29468186708056,286.40786535912883 L 212.9545711991373,285.07188710632255 L 213.20688178401596,283.63194629411777 L 213.20688178401596,270.708722506584 L 228.7947785006972,271.4847113278124 L 231.9505922969033,273.35546126376886 L 233.7615132911043,274.4288096708169 L 234.39005788764158,277.77595949541075 L 240.2440536292919,280.2236609821275 L 242.57336595060514,281.74398499455305 L 244.0315905211633,282.39305733304394 L 247.67576547562658,285.253583977406 L 249.1915709041566,285.00223072516906 L 249.34042828829396,284.94777547018947 L 252.3097413970535,283.861474842573 L 258.1145358085023,283.1571100701935 L 261.91910864485857,285.14881897416967 L 264.0683940187204,286.39805514893004 L 267.56735371618305,287.2960961989595 L 269.7364277065949,286.9482014720035 L 276.2190853827361,285.908385697469 L 282.6031267098331,281.9089047815273 L 285.8444449350132,280.9159980920206 L 288.51884066477163,281.5092818303148 L 293.04694185923034,286.2031438826922 L 294.5743111577119,286.9947095075469 L 297.6019264428126,287.28786115775 L 298.13750444121877,288.84110923017255 L 299.3026941675956,292.21949437155087 L 299.1917745048563,297.7451792085454 L 297.8237656490476,299.8304150391451 L 297.54030434171096,302.84029628337044 L 298.3413907020901,305.10945280687315 L 299.5122090728565,307.09454903834825 L 302.6302832150768,309.99957063580825 L 305.427923027794,313.2487595380881 L 308.9403781400981,318.87385052749727 L 310.11934792125084,322.2160437462706 L 309.95088293581216,322.2719052978372 L 307.55994863264175,324.1182681281654 L 306.3398325809863,326.7846457225616 L 305.21831189110304,333.246690103221 L 304.0228446798926,335.8041342049015 L 301.4347197724493,338.5412001375042 L 297.86064255903653,343.93942605140194 L 295.383437433565,345.577169439217 L 293.9478169942116,345.6514400752658" fill="none" stroke="#000000" stroke-width="0.8"/>
	<path d="M 598.1878833738991,367.9551831740773 L 596.7089547360997,368.9028775169684 L 594.0099102851557,371.34523719372095 L 592.5556306070457,372.34161798241644 L 588.032574348354,372.48861680732347 L 576.5215808872266,370.6591480859188 L 574.2045929861399,373.00309592389175 L 575.1905452920834,375.2322069044126 L 579.6643039891375,377.3873697078389 L 580.4703940174503,378.5328271116625 L 580.9337176024305,379.1911538781013 L 579.7505746922012,380.83958403424083 L 576.6201761297473,381.2638893971687 L 559.1380088823123,380.9048628645095 L 554.1527875211997,378.92183075229036 L 551.7372042583468,378.5953689869107 L 549.17372831058,379.754261301973 L 547.6331778101759,381.80240554821387 L 546.1788981320728,384.30695040325264 L 544.4226704566763,385.87299990715906 L 541.9762763221369,385.1715698200371 L 541.3230828851605,383.97250271691354 L 540.8917287736597,382.35721097550606 L 540.2631841771224,381.1659743455055 L 538.9814461436227,381.2067723841675 L 538.2050086236817,381.80240554821387 L 535.8017499002929,384.4864057806569 L 532.9055149643004,385.3265411898678 L 530.2249569648105,385.1389439535876 L 527.6183456058922,384.1845927932214 L 521.2589531192392,380.32549803088983 L 519.7861867511863,380.15413051202256 L 518.3750424842278,380.61110461850177 L 517.4014145984969,381.4841949633621 L 516.5448684067546,382.4714318685898 L 515.4418342875779,383.22199475381365 L 512.6380324436183,383.6869898892768 L 510.43196408602023,382.84672017728974 L 504.66414305447853,378.840216325138 L 501.42898697978643,377.5016461414684 L 500.15957324726185,377.5179712422645 L 498.74226682981543,378.52191362918063 L 498.43415668202783,379.69713587848304 L 498.35404812946416,381.0354194361654 L 497.7439901036394,382.5774930550577 L 495.87068061501566,384.4456207863396 L 493.5290438734909,385.70988100596827 L 491.01486536811126,386.16660764663186 L 485.961859755402,384.74742609395736 L 483.58324975320664,385.00028310032656 L 478.7890566073899,387.16154898304353 L 476.05462903969254,387.830730371318 L 476.0469729397829,387.7814270821405 L 474.7775594091101,379.60341391186984 L 473.5327945609605,377.0854753117118 L 471.99224412842756,374.80777940148766 L 471.14186013094763,367.83684294920874 L 472.86727670118375,360.85298042278197 L 472.3989493739788,357.4635373868216 L 471.14186013094763,354.4370294990433 L 468.6523305418893,352.8620729343673 L 467.74032457000857,349.2080569491492 L 467.69102699048136,345.7451514066839 L 467.3212949295698,342.34250073938887 L 466.8529674951309,340.1594572866526 L 465.7437710979113,339.2049970797655 L 463.5746760974803,334.62398314941044 L 460.4566018332829,331.30371541360483 L 454.77505161073685,330.9839288542281 L 449.04420370142566,332.41879015378294 L 443.80633190908253,332.64425007469686 L 439.62835893443173,331.83667071463174 L 440.417120850258,329.31103543672896 L 442.11788863073,327.9495567457223 L 443.35032897675814,324.0691643885889 L 444.10211760070575,308.1876249741814 L 446.82581090698653,303.20207978227046 L 452.0883313818598,304.07770721814114 L 459.21183698513227,303.7858396505452 L 465.0905777402491,297.55596499440435 L 492.67259407422614,300.2663274189611 L 496.3575909319089,299.0531286129872 L 500.12885844652754,298.41151410229253 L 505.74878680190574,299.8016277672093 L 511.5289322907361,298.78990708614697 L 518.7140598684164,295.2892336884774 L 520.8831549760883,296.3465560891138 L 522.8057619716623,298.6706324705609 L 525.5541041749472,299.7687278933609 L 533.873076939603,299.56310105148395 L 535.795683935177,295.36329100447887 L 542.4015645244783,296.2395946338382 L 547.9598707982158,300.2375413885949 L 553.579798939112,305.2861955004292 L 559.8282718623894,302.1249135129998 L 561.9727181802982,302.7046239604246 L 562.3547747433323,304.9409277428187 L 563.9939204421577,307.152082273654 L 567.5310244540348,306.9671529463653 L 577.2549792002994,311.9754969860299 L 580.2005118289221,312.217839957837 L 583.1090711656601,312.92840527436505 L 586.5599043061254,314.64095120297907 L 591.1322582386919,314.9201880352717 L 595.6183412998485,313.4417886075234 L 599.0075524659129,308.4506030687073 L 597.8737071716903,304.5381006458077 L 595.9387758884817,306.05067507481937 L 594.3489276619357,308.2944605162032 L 591.6252343556539,309.00530026338146 L 588.8522434698459,308.2944605162032 L 586.7570948387042,307.2548194934641 L 584.9330830021817,305.63967182713924 L 584.378484803572,302.86496372250633 L 583.552749703096,300.07304787313853 L 581.272734934256,297.95906917651695 L 581.5438718361172,295.21929006010345 L 585.0440025561097,291.89436037492055 L 587.8539667338013,288.4489454902017 L 589.2959220072887,283.9726857922542 L 591.292475479385,281.0354815126914 L 593.8559515449735,280.0342483852701 L 599.8456119612644,281.45984295489876 L 605.7982989784366,281.09728300137374 L 608.9163732426349,284.6358075811068 L 611.5291468877408,288.980035634258 L 615.472956252416,291.84908779171843 L 620.0206613952193,292.3347293382512 L 622.115810026362,296.61806859933495 L 623.0401403931243,301.7178629730427 L 625.3201551619702,310.24196059518306 L 621.2284529514833,319.66193604134077 L 621.8816464163865,323.97069961006486 L 622.7443545942601,327.06367779671587 L 624.8888010194099,328.47448578770775 L 628.7093663280288,328.75744407718923 L 632.4313362631211,329.8194929185494 L 634.6497289503194,332.97218265504495 L 635.5001128405523,336.9311374182266 L 636.498389576604,338.8281040325314 L 637.2501783077915,340.892651689183 L 637.6199103687052,343.57921508849506 L 637.6219800022552,343.5942511021661 L 635.3952591292903,342.44066023604233 L 631.4945853166419,342.2358938653776 L 627.667857906075,343.57089743448057 L 609.5679424435897,358.54908763238257 L 598.1878833738991,367.9551831740773" fill="none" stroke="#000000" stroke-width="0.8"/>
	<path d="M 297.6019264428126,287.28786115775 L 294.5743111577119,286.9947095075469 L 293.04694185923034,286.2031438826922 L 288.51884066477163,281.5092818303148 L 285.8444449350132,280.9159980920206 L 282.6031267098331,281.9089047815273 L 276.2190853827361,285.908385697469 L 269.7364277065949,286.9482014720035 L 267.56735371618305,287.2960961989595 L 264.0683940187204,286.39805514893004 L 261.91910864485857,285.14881897416967 L 258.1145358085023,283.1571100701935 L 252.3097413970535,283.861474842573 L 249.34042828829396,284.94777547018947 L 249.1915709041566,285.00223072516906 L 247.67576547562658,285.253583977406 L 244.0315905211633,282.39305733304394 L 242.57336595060514,281.74398499455305 L 240.2440536292919,280.2236609821275 L 234.39005788764158,277.77595949541075 L 233.7615132911043,274.4288096708169 L 231.9505922969033,273.35546126376886 L 228.7947785006972,271.4847113278124 L 213.20688178401596,270.708722506584 L 213.20688178401596,270.0202327007728 L 211.78035634775594,259.96684064550243 L 211.57656691454414,256.3381453982815 L 211.03312858496972,254.12647313270585 L 206.20868403757052,245.66074280858385 L 208.17605041106552,242.25289461673603 L 208.80459497895765,241.45049025829383 L 209.33454449505126,238.3809110465869 L 210.961365798995,233.94036394947977 L 218.46692785806255,232.52046584943102 L 226.10805836805918,232.2555064698466 L 240.89734327109332,229.7628904440073 L 247.50322386040165,231.39848051679013 L 253.52985746133606,235.4469758236952 L 261.1586635764521,236.42366970293034 L 267.4687584741372,239.60140828826488 L 264.7327407729669,243.81615855561805 L 267.6289757148304,248.03741535453582 L 273.5446896545919,249.07488781687752 L 275.71378476226283,249.72377050173696 L 277.7103382343601,249.09142036589586 L 281.33371301040705,246.7352573207816 L 285.58563246158013,247.76046254767033 L 287.92726920483386,251.56273359671815 L 289.4678197446067,256.24747636094986 L 292.91865288507296,258.2958517679158 L 297.17057222901207,259.5593601434218 L 300.22702451880167,261.8588701361425 L 303.5053160236922,263.4603742340106 L 305.7730062904167,264.88417885536364 L 308.1762651153111,266.0395830529948 L 311.94753273716367,265.7424918050886 L 315.55858311832316,266.74926578934503 L 317.38259495484465,273.67018827452983 L 317.62908306694965,281.74411379667987 L 314.56030638227753,281.8223899323045 L 311.91055955251903,283.6225728570924 L 310.83833633994414,286.46843423335685 L 308.8664317648509,288.09487003307885 L 306.15506285345174,287.61314283775255 L 303.5053160236922,286.6496196212593 L 297.6019264428126,287.28786115775" fill="none" stroke="#000000" stroke-width="0.8"/>
	<path d="M 574.6791787398304,287.819011895404 L 577.7233066347384,288.0825183837518 L 585.0440025561097,291.89436037492055 L 581.5438718361172,295.21929006010345 L 581.272734934256,297.95906917651695 L 583.552749703096,300.07304787313853 L 584.378484803572,302.86496372250633 L 584.9330830021817,305.63967182713924 L 586.7570948387042,307.2548194934641 L 588.8522434698459,308.2944605162032 L 591.6252343556539,309.00530026338146 L 594.3489276619357,308.2944605162032 L 595.9387758884817,306.05067507481937 L 597.8737071716903,304.5381006458077 L 599.0075524659129,308.4506030687073 L 595.6183412998485,313.4417886075234 L 591.1322582386919,314.9201880352717 L 586.5599043061254,314.64095120297907 L 583.1090711656601,312.92840527436505 L 580.2005118289221,312.217839957837 L 577.2549792002994,311.9754969860299 L 567.5310244540348,306.9671529463653 L 563.9939204421577,307.152082273654 L 562.3547747433323,304.9409277428187 L 561.9727181802982,302.7046239604246 L 559.8282718623894,302.1249135129998 L 561.3072003205206,299.57955133492874 L 563.6118638791236,298.6171642720733 L 566.0151228112579,293.1701429391795 L 569.4536314496017,293.27713675809645 L 572.8305182207856,291.12881371657255 L 574.6791787398304,287.819011895404" fill="none" stroke="#000000" stroke-width="0.8"/>
	<path d="M 429.4607255434842,191.8503852720845 L 433.6756718100196,194.42722622363567 L 438.3096477169928,195.1419743447821 L 441.7728052523406,194.29840003622454 L 445.06342104487277,192.482188192479 L 448.8593376709694,191.9667729330682 L 451.5583820802471,195.1876834723717 L 450.1410757037627,200.37636788194044 L 450.05480483235885,205.63293785728334 L 440.9100969672261,208.1149422822918 L 435.2761118546408,212.1230654962646 L 432.8499367095497,213.8485997373327 L 432.455513713374,215.78067988620916 L 431.8763087632602,218.6172405201292 L 432.6157729923263,223.72339786110186 L 431.9379308449089,227.90751993155254 L 431.3208781642357,228.56387422107343 L 430.5206242539376,229.4150344745339 L 428.65963934001735,230.9637293453009 L 427.0574667185898,235.6083852896359 L 424.8760472160363,239.7462032311719 L 421.01850883001975,242.64993689662336 L 417.70324414048355,245.9745536666617 L 417.2102680235165,252.73205733159918 L 415.3985804746356,258.46102511812626 L 411.0973635511762,262.28403662572873 L 410.2346552660617,268.47375277454756 L 374.6048030692898,283.0211743618033 L 372.6082495971926,282.72046172703466 L 370.57472294045067,281.9707007478807 L 358.32426531324296,283.05824791798466 L 353.22196207906984,285.1918080802816 L 347.84852183579665,285.1012026879496 L 337.5946175734443,282.9223108343007 L 324.99907667508614,286.13899752728474 L 317.62908306694965,281.74411379667987 L 317.38259495484465,273.67018827452983 L 315.55858311832316,266.74926578934503 L 311.94753273716367,265.7424918050886 L 308.1762651153111,266.0395830529948 L 305.7730062904167,264.88417885536364 L 303.5053160236922,263.4603742340106 L 300.22702451880167,261.8588701361425 L 297.17057222901207,259.5593601434218 L 292.91865288507296,258.2958517679158 L 289.4678197446067,256.24747636094986 L 287.92726920483386,251.56273359671815 L 285.58563246158013,247.76046254767033 L 281.33371301040705,246.7352573207816 L 277.7103382343601,249.09142036589586 L 275.71378476226283,249.72377050173696 L 273.5446896545919,249.07488781687752 L 267.6289757148304,248.03741535453582 L 264.7327407729669,243.81615855561805 L 267.4687584741372,239.60140828826488 L 272.2013296473968,239.05530576238732 L 274.666210446692,234.08937959097156 L 274.5059932059978,225.67068099846125 L 275.7014603673813,218.9737611120759 L 277.932177556701,216.3617480725859 L 279.30018635366616,212.1769667707776 L 284.45178727460444,203.63194581837706 L 292.8323820136681,193.9908724642393 L 294.4345546350897,190.2041853041808 L 294.54547418901575,185.51352631928359 L 295.70396827300146,182.99263741750264 L 297.51565560740147,181.3782694650383 L 299.3519918388056,175.83834248999855 L 302.97536661484656,172.13641150439625 L 308.9650270311443,171.72407570669608 L 311.1341220315753,171.12844935776698 L 313.4264613025368,171.01598445051135 L 314.46171122322505,174.73082187773696 L 314.4986844078707,178.8188797601624 L 315.4353391695146,181.86094287906835 L 315.533934328567,185.2972374633927 L 328.28969257485926,181.0204104638726 L 331.2968471778827,182.27702188777832 L 334.4272457297207,182.52666110892324 L 337.06466827183755,179.87184614586903 L 340.0225252953418,179.77196483447776 L 346.60375698764705,183.96196509406744 L 352.6550393783386,189.60550006828842 L 354.1709411283553,194.6599405117005 L 357.1411225467411,197.05326015477982 L 359.6922742174481,197.52687028715624 L 365.37382443999314,200.7169243422369 L 373.914636419749,199.95273282486167 L 378.9429932846398,197.88414026895504 L 383.13329065417213,193.63761947197446 L 394.4594181290974,187.7219026761333 L 407.10425660698274,189.09409459702238 L 419.26844347002054,188.1003137551036 L 426.95753652311384,190.9295106289276 L 429.4607255434842,191.8503852720845" fill="none" stroke="#000000" stroke-width="0.8"/>
</svg>
