<?xml version="1.0" ?>
<svg xmlns="http://www.w3.org/2000/svg" xmlns:ev="http://www.w3.org/2001/xml-events" xmlns:xlink="http://www.w3.org/1999/xlink" baseProfile="full" height="583px" version="1.1" viewBox="351.3321575983361 -39.71955100416787 488.518679987509 474.6008123831222" width="600px">
	<defs/>
	<path d="M 584.4780986166234,198.63866695570184 L 586.0815895039177,200.97950392998362 L 586.196992618795,203.57516795960274 L 585.7498055661018,206.44326473189403 L 586.0527386902971,209.30414949191606 L 587.8414867615217,211.50535360920586 L 591.072773698895,214.34465594271057 L 594.6069937604717,216.7465598052021 L 597.1170111949801,217.67146447670393 L 599.5404764677966,218.23787685114783 L 608.3688137089894,222.61855781979742 L 611.1961898140858,223.07741268364313 L 629.9780449107581,223.07741268364313 L 638.9694439758869,223.07586850519823 L 640.0398655467442,230.74885453977242 L 639.888399023939,237.38755762883284 L 639.3258090641682,239.81070538921816 L 638.6117523305406,241.55277434455806 L 637.5947624257971,242.92204527049796 L 632.2645814905471,247.5818046794596 L 630.9879347971491,249.0442322519037 L 629.3650786756704,251.7145722623453 L 628.5356187993498,253.90100201055108 L 628.0163048454917,256.40640993566655 L 627.2589719804297,271.3881250149076 L 626.0688774243947,274.1442301087979 L 621.0704805400941,280.7422727709729 L 612.4657367331057,295.8730553915984 L 609.8908048412741,299.5068969132347 L 608.0515679370619,300.7145833411739 L 605.3468077764247,301.2843801522518 L 603.0026821699803,302.090694284822 L 601.7476733540248,303.1765271295329 L 600.9903406144845,304.71747087049556 L 601.1201691343333,305.9215511596662 L 601.6611210911399,306.77085487286035 L 602.6564728674134,307.3621408604384 L 612.4657367331057,309.9996195043585 L 621.3950518397041,312.5940726788193 L 625.5279254675803,314.4968959527799 L 627.9946667170135,316.57529560574875 L 628.4707045394291,317.29556520284837 L 628.6005330592701,317.94058131944547 L 627.6051812830043,319.6857012559109 L 626.1554298128011,322.824742387456 L 625.9174109015971,324.47308439417014 L 626.1554298128011,326.3435838896976 L 627.1724195920311,328.5294026223224 L 628.4057902795006,329.6581391915077 L 631.1826774513968,331.14161534491745 L 631.7236295337327,332.6609175038308 L 632.1131149677419,341.73358541619956 L 632.5026005272729,343.9049698232427 L 633.3032095237771,346.6281391661552 L 634.450027822848,347.63857296983554 L 635.7266746417679,348.05421148545827 L 637.2918292546645,348.09720851969456 L 638.0708001226826,348.9284841172773 L 638.3304571623727,350.23988917821663 L 638.2871810309302,351.8379335871111 L 638.3953714222934,353.7369458545215 L 638.8281331132665,354.890680517835 L 639.6071039812925,355.8222648527973 L 640.0831418037003,356.9401632228958 L 640.7971985373277,360.4371566704215 L 641.5328932739035,361.469050081887 L 643.0475591295491,362.2787980298074 L 644.5045232255611,362.4436136985071 L 645.6946176560746,361.9276687078416 L 646.6683314293839,360.88144443294993 L 647.5338545602866,360.121855291991 L 648.377739813755,360.0000341443959 L 649.5894724982685,360.69513012792765 L 650.3468052378084,361.9706640045711 L 650.8877573201446,363.60448772718877 L 651.0175858399853,365.3816215611723 L 650.5415481430997,367.11575252943 L 649.3081774556221,368.89287049296934 L 647.4689404258881,370.3188587318389 L 645.3267703505435,371.3937210062586 L 643.134111392434,372.14612274474337 L 637.9193335998856,373.1994830698432 L 635.2506368193523,373.42161995506893 L 633.1084667440158,373.32130004592034 L 631.3990582341225,372.99167747675455 L 628.5356187993498,372.18911718797085 L 627.2589719804297,372.0601340942324 L 625.9606870330317,372.23211137730334 L 624.2729166516245,372.8770260489203 L 623.6237741779255,373.23531163994306 L 620.2410207893028,374.53946809405755 L 616.9953084208079,376.30938833923426 L 616.259613684224,376.91846859988055 L 615.480642690684,377.77117927520425 L 614.701671822666,378.88185037542354 L 613.3817488723037,381.60477404200407 L 612.4657367331057,384.4709911378317 L 612.5018001132096,384.7432808507995 L 612.5063700980114,384.7777853987618 L 609.768076494306,385.13010652831554 L 609.0323815846289,387.1579410443301 L 609.0179561778327,391.26374125661476 L 608.5130676374749,393.083752888889 L 606.8685733551761,394.674465878887 L 604.6470636380666,395.1617103747865 L 602.1658970171823,394.7891118172089 L 599.699155663518,393.74296800735857 L 597.3910936451516,391.96595123534416 L 593.7703212823022,387.85299181288207 L 591.4622592639358,386.2335936572372 L 589.2984510344907,385.4453888202601 L 585.1480576079177,384.97027093217827 L 585.3640674273186,384.24180736215027 L 585.1709716197272,381.8664582109232 L 584.1032658246714,378.3231582344116 L 584.4099473521691,376.6756265637879 L 585.4890116912986,375.8123625912374 L 587.3063834889919,375.1860720219915 L 589.3850023587268,374.81368252887535 L 591.168298245038,374.6951949250583 L 590.3277638897949,373.96734152741675 L 588.6239779515882,373.39182878730753 L 586.6021519418103,373.0194376924251 L 584.8870073199574,372.8840226028227 L 583.4558271374468,372.4439234979975 L 579.9687451733487,370.4803986331044 L 578.2763177792239,370.05158158360933 L 572.5515969096089,371.27596593346357 L 571.0636238671411,370.90357292495156 L 570.4956951280213,369.51555963487317 L 571.1090581830166,368.0203367399935 L 572.1994812058006,366.8072273758111 L 573.062732649199,366.25991634971854 L 570.4729780398739,367.3432529369831 L 567.2925776032735,370.1249318493772 L 564.5892371344692,373.20563321234243 L 563.45337979581,375.2086410127401 L 562.4992597206606,376.2016780428853 L 557.8990375060582,377.330126164565 L 554.4346727696882,378.78581999971254 L 553.1852297111147,377.14957469413815 L 551.0043836655472,370.4916832570052 L 549.8685263268877,368.73691603274835 L 548.3578360567001,367.39967663104545 L 546.1201971511754,366.25991634971854 L 543.5758768577255,365.6618230138602 L 541.7585050600402,366.07936001071516 L 540.1228705258645,366.81286973929997 L 535.6816684866249,367.6479408734065 L 531.5585063793836,369.60019478492774 L 529.4458117378468,370.05158158360933 L 528.2190859070016,369.28422367108453 L 524.94781683865,365.65053825402236 L 523.1531622686847,364.3640701841431 L 523.4257680243807,362.9760340900638 L 523.0736523205802,361.8814005714811 L 521.2676390669684,359.54541961024114 L 523.4484851125361,358.6539062509589 L 525.0841196467119,357.02322106347395 L 526.2654113012464,354.99755053320354 L 528.5371259785728,347.8991512441047 L 529.7638518094183,345.38251489916394 L 531.3540520277186,344.31039970559664 L 533.4894638969756,343.17621110869646 L 535.4431383631577,340.4958997863098 L 536.942470089272,337.352855277349 L 537.6467016364455,334.8417842202275 L 537.2832272489986,329.5317931565323 L 537.8284387603906,327.25766825740334 L 541.6676365678541,325.5873328845983 L 547.1651858580838,320.63270473341635 L 549.5845620271182,317.5120380380985 L 550.0275463626775,317.28066730202374 L 550.3342278901752,316.5357650357091 L 550.9816664378269,315.8585796590298 L 551.6291051250513,314.93309028342566 L 551.9357866525493,313.4545588635124 L 553.5714211867248,309.4873176956394 L 555.8204186363233,305.39586715840005 L 558.6827791409173,303.1949248941005 L 560.5001507990302,303.79313142008294 L 562.2493710531118,305.42408432403954 L 564.8845599783203,306.34396023630177 L 568.6101720658777,305.8586272969099 L 571.2453609910783,304.62836101372585 L 573.6760957041943,303.0594816609 L 576.7883447367561,301.5300981210382 L 573.9714185480376,301.6711855692751 L 568.2694147665782,305.5087356655456 L 565.7932458771595,304.9218195791729 L 559.7391263918992,299.2106111502364 L 557.6377902944361,295.3729745351904 L 559.0689706165196,291.6255832756985 L 567.2698603755532,283.5436809509847 L 567.6446933070816,283.02444416035587 L 568.4625105741698,281.47801506773106 L 569.1553835772694,280.69915319036346 L 572.0177439422906,278.80278381134184 L 573.1081669650745,277.70784971972967 L 573.7101713364233,276.7257915250943 L 574.90282153504,273.97149287261817 L 575.4934673623071,273.12487868585765 L 576.1295475054577,272.54353518007593 L 576.5838903850907,271.6122539968112 L 577.1063848083278,268.25961250545214 L 577.7424648119058,267.3339593115131 L 578.4012620432039,266.65664978778324 L 578.6965850266279,265.9341843317915 L 579.4689679778401,264.6247101291257 L 584.4099473521691,259.77056214989125 L 585.897920394629,255.07436145953216 L 585.3527088832367,249.32815947256012 L 581.4794354435445,237.99337535913443 L 580.1504822972937,235.3910344502153 L 579.7188565058082,234.20557607124604 L 579.5711951536728,232.6870506513577 L 579.8778765415979,231.2249658173981 L 580.5253152288223,230.29351647542174 L 581.1727539160469,229.5991608713904 L 581.4794354435445,228.85399607452914 L 582.638009870359,211.62978341217666 L 582.2291013066015,208.50205724401377 L 581.0364511079849,206.08565746070383 L 579.9233108574731,202.97478102254829 L 581.7179654274388,200.56395885508638 L 584.4780986166234,198.63866695570184" fill="none" stroke="#000000" stroke-width="0.4067599333784422"/>
	<path d="M 669.63431380221,223.0706022045584 L 671.7251174949695,223.07024314490104 L 713.472190079169,223.07024314490104 L 755.2336880701768,223.0630734671841 L 796.9807606543724,223.05590392794718 L 798.0482393622927,228.3720940348679 L 798.1059409895179,239.5130781953344 L 798.3223218124642,275.86442824798576 L 798.3656682386842,283.14298343983154 L 798.3152218443131,283.13630579645906 L 783.8032815141138,281.215346832774 L 777.7446185936188,282.11848608078026 L 776.157825977758,282.8603479519091 L 774.4700554708289,283.11838645186236 L 765.5695912440473,282.17224431860876 L 762.4969836523575,282.32276712541346 L 759.6984583519832,282.9141061602544 L 756.95042193439,283.2259023761077 L 754.635147207762,283.09688333650985 L 752.2910216013174,281.9142048744992 L 751.1225651737683,280.69926589281374 L 750.408508440149,279.0076599481711 L 746.3116984434203,253.05869130053134 L 745.7058319756417,251.18767536292242 L 744.7537564563322,250.08011281993177 L 743.542023897341,249.59622458148147 L 741.6378727332083,250.33818619345868 L 740.2530355229254,251.40273540207104 L 738.0459510621465,253.7397086896594 L 736.6755392290112,254.83650068009297 L 734.7713880648785,255.52468143371763 L 732.4993894696928,255.73973743114814 L 728.9435313042568,255.0838159297219 L 726.4984280577878,254.32036386879074 L 710.4934601259426,247.54954513198462 L 706.6563070433822,246.76456155462557 L 705.2931078360639,246.66778254758657 L 700.2514346947991,248.62486061018268 L 684.6648032023095,257.8508602505529 L 683.9074703372477,256.9440475235468 L 681.383027328181,256.35264604640196 L 675.4614055533519,256.85802564254544 L 673.9323145716024,256.6537233922935 L 672.3743725845147,255.25944539636126 L 672.1147156703468,255.126827201759 L 671.4872113251338,253.8902490428199 L 671.2275544109656,252.12318529971884 L 671.5737635880105,248.89368871321062 L 672.1147156703468,246.82908074478388 L 673.2615339694178,244.0726563455231 L 673.4779147521433,242.37362103935487 L 673.1749815810189,240.38064308463726 L 671.0328116311961,234.4625387398131 L 669.8427170751609,229.97456470555474 L 669.63431380221,223.0706022045584" fill="none" stroke="#000000" stroke-width="0.4067599333784422"/>
	<path d="M 638.9694439758869,223.07586850519823 L 669.63431380221,223.0706022045584 L 669.8427170751609,229.97456470555474 L 671.0328116311961,234.4625387398131 L 673.1749815810189,240.38064308463726 L 673.4779147521433,242.37362103935487 L 673.2615339694178,244.0726563455231 L 672.1147156703468,246.82908074478388 L 671.5737635880105,248.89368871321062 L 671.2275544109656,252.12318529971884 L 671.4872113251338,253.8902490428199 L 672.1147156703468,255.126827201759 L 672.3743725845147,255.25944539636126 L 673.9323145716024,256.6537233922935 L 675.4614055533519,256.85802564254544 L 681.383027328181,256.35264604640196 L 683.9074703372477,256.9440475235468 L 684.6648032023095,257.8508602505529 L 688.2639374991801,262.16623754139056 L 697.647652299716,269.6032708351729 L 698.3977724134392,271.8827208254878 L 698.1669662535661,275.10115398559054 L 697.387995260026,278.4055602815533 L 696.4719832463501,280.94655490725745 L 692.8872743266193,286.2614174380102 L 692.3102587386575,288.25401524110833 L 692.5915537813036,290.0817444693489 L 694.3153875428144,292.7408890152936 L 694.8563397506723,294.2783070185484 L 694.1062195114274,298.17377728530823 L 692.505001518419,301.02635906074073 L 692.6925315468577,303.3055365949623 L 697.2942302458106,305.52377522583714 L 701.6218465279342,306.64184697520574 L 705.4445743588691,307.07187344987096 L 709.1518991726322,306.71710162038903 L 713.1477315293286,305.4592709412554 L 717.7566429796202,303.1765271295329 L 719.3867118524375,302.8217504530479 L 720.7066348027997,302.940009311545 L 723.1300999207826,303.7140664928296 L 724.5077245052485,303.90758048883237 L 725.870923712567,303.2947858396079 L 726.9888912573509,302.25195688375373 L 727.9409669021743,301.97243507003185 L 729.7874164322035,305.28725948608246 L 730.8837459740231,304.8679811532619 L 732.5859417325775,302.940009311545 L 733.6245696402857,302.49922593964516 L 734.6271340423682,301.8434248701246 L 735.6152733183387,301.48864663972665 L 736.5457107091702,301.94018252560704 L 736.8270057518164,302.5744816799485 L 737.0650247885421,304.05092409063946 L 737.512211731141,304.4917051724733 L 739.7337214435535,305.14750023499965 L 746.816586894609,306.31932666576176 L 747.5090054997423,306.23332127185324 L 748.0499575820785,305.91080062783175 L 749.3698805324408,305.2765086809461 L 749.3698805324408,306.09356235819456 L 748.504357276016,307.59148774511544 L 747.1195200657331,308.3117792590529 L 742.1571866870581,310.203879895603 L 740.577606697014,311.33268404030736 L 734.2737121139846,318.1125855016455 L 733.1918079493125,319.750202434798 L 731.1361902623743,323.6453310991142 L 725.373247887195,331.36019473194096 L 722.7334018609646,335.69591717451283 L 720.9302282113345,340.06383163965 L 720.6922094256523,341.575926722055 L 720.9951424712548,343.4749938564103 L 722.0554086329706,345.66069979579635 L 731.11455225941,355.6502803437623 L 732.8239606437814,356.8255071115235 L 738.6229666501081,359.4482559280732 L 740.2313972689254,361.3830591222212 L 741.6378727332083,364.20642109204596 L 743.9315093313502,373.2854716079431 L 745.186518021784,375.68597613355826 L 746.297272940751,376.4455357044401 L 747.4440913653438,377.0187875254109 L 748.4178050131313,377.78551052307114 L 749.2184140096352,378.7672006719392 L 749.3266044009983,380.2576454425011 L 749.1967760066713,381.4972904318469 L 747.2493485855822,384.29185318032813 L 746.9969042972232,384.6572945975554 L 746.9791027410918,384.6830644148914 L 715.3763412652589,384.5855274786871 L 673.6004178674389,384.4422170489238 L 670.3824043967476,384.4322886419366 L 631.7956436560142,384.3132376368287 L 616.5624341673077,384.25591351877813 L 612.5063700980114,384.7777853987618 L 612.5018001132096,384.7432808507995 L 612.4657367331057,384.4709911378317 L 613.3817488723037,381.60477404200407 L 614.701671822666,378.88185037542354 L 615.480642690684,377.77117927520425 L 616.259613684224,376.91846859988055 L 616.9953084208079,376.30938833923426 L 620.2410207893028,374.53946809405755 L 623.6237741779255,373.23531163994306 L 624.2729166516245,372.8770260489203 L 625.9606870330317,372.23211137730334 L 627.2589719804297,372.0601340942324 L 628.5356187993498,372.18911718797085 L 631.3990582341225,372.99167747675455 L 633.1084667440158,373.32130004592034 L 635.2506368193523,373.42161995506893 L 637.9193335998856,373.1994830698432 L 643.134111392434,372.14612274474337 L 645.3267703505435,371.3937210062586 L 647.4689404258881,370.3188587318389 L 649.3081774556221,368.89287049296934 L 650.5415481430997,367.11575252943 L 651.0175858399853,365.3816215611723 L 650.8877573201446,363.60448772718877 L 650.3468052378084,361.9706640045711 L 649.5894724982685,360.69513012792765 L 648.377739813755,360.0000341443959 L 647.5338545602866,360.121855291991 L 646.6683314293839,360.88144443294993 L 645.6946176560746,361.9276687078416 L 644.5045232255611,362.4436136985071 L 643.0475591295491,362.2787980298074 L 641.5328932739035,361.469050081887 L 640.7971985373277,360.4371566704215 L 640.0831418037003,356.9401632228958 L 639.6071039812925,355.8222648527973 L 638.8281331132665,354.890680517835 L 638.3953714222934,353.7369458545215 L 638.2871810309302,351.8379335871111 L 638.3304571623727,350.23988917821663 L 638.0708001226826,348.9284841172773 L 637.2918292546645,348.09720851969456 L 635.7266746417679,348.05421148545827 L 634.450027822848,347.63857296983554 L 633.3032095237771,346.6281391661552 L 632.5026005272729,343.9049698232427 L 632.1131149677419,341.73358541619956 L 631.7236295337327,332.6609175038308 L 631.1826774513968,331.14161534491745 L 628.4057902795006,329.6581391915077 L 627.1724195920311,328.5294026223224 L 626.1554298128011,326.3435838896976 L 625.9174109015971,324.47308439417014 L 626.1554298128011,322.824742387456 L 627.6051812830043,319.6857012559109 L 628.6005330592701,317.94058131944547 L 628.4707045394291,317.29556520284837 L 627.9946667170135,316.57529560574875 L 625.5279254675803,314.4968959527799 L 621.3950518397041,312.5940726788193 L 612.4657367331057,309.9996195043585 L 602.6564728674134,307.3621408604384 L 601.6611210911399,306.77085487286035 L 601.1201691343333,305.9215511596662 L 600.9903406144845,304.71747087049556 L 601.7476733540248,303.1765271295329 L 603.0026821699803,302.090694284822 L 605.3468077764247,301.2843801522518 L 608.0515679370619,300.7145833411739 L 609.8908048412741,299.5068969132347 L 612.4657367331057,295.8730553915984 L 621.0704805400941,280.7422727709729 L 626.0688774243947,274.1442301087979 L 627.2589719804297,271.3881250149076 L 628.0163048454917,256.40640993566655 L 628.5356187993498,253.90100201055108 L 629.3650786756704,251.7145722623453 L 630.9879347971491,249.0442322519037 L 632.2645814905471,247.5818046794596 L 637.5947624257971,242.92204527049796 L 638.6117523305406,241.55277434455806 L 639.3258090641682,239.81070538921816 L 639.888399023939,237.38755762883284 L 640.0398655467442,230.74885453977242 L 638.9694439758869,223.07586850519823" fill="none" stroke="#000000" stroke-width="0.4067599333784422"/>
	<path d="M 798.3656682386842,283.14298343983154 L 798.538702495838,312.1961938086622 L 798.7550834583612,348.5270670249927 L 798.9714642813117,384.85781715529885 L 757.1666899302985,384.7145068124649 L 746.9791027410918,384.6830644148914 L 746.9969042972232,384.6572945975554 L 747.2493485855822,384.29185318032813 L 749.1967760066713,381.4972904318469 L 749.3266044009983,380.2576454425011 L 749.2184140096352,378.7672006719392 L 748.4178050131313,377.78551052307114 L 747.4440913653438,377.0187875254109 L 746.297272940751,376.4455357044401 L 745.186518021784,375.68597613355826 L 743.9315093313502,373.2854716079431 L 741.6378727332083,364.20642109204596 L 740.2313972689254,361.3830591222212 L 738.6229666501081,359.4482559280732 L 732.8239606437814,356.8255071115235 L 731.11455225941,355.6502803437623 L 722.0554086329706,345.66069979579635 L 720.9951424712548,343.4749938564103 L 720.6922094256523,341.575926722055 L 720.9302282113345,340.06383163965 L 722.7334018609646,335.69591717451283 L 725.373247887195,331.36019473194096 L 731.1361902623743,323.6453310991142 L 733.1918079493125,319.750202434798 L 734.2737121139846,318.1125855016455 L 740.577606697014,311.33268404030736 L 742.1571866870581,310.203879895603 L 747.1195200657331,308.3117792590529 L 748.504357276016,307.59148774511544 L 749.3698805324408,306.09356235819456 L 749.3698805324408,305.2765086809461 L 748.0499575820785,305.91080062783175 L 747.5090054997423,306.23332127185324 L 746.816586894609,306.31932666576176 L 739.7337214435535,305.14750023499965 L 737.512211731141,304.4917051724733 L 737.0650247885421,304.05092409063946 L 736.8270057518164,302.5744816799485 L 736.5457107091702,301.94018252560704 L 735.6152733183387,301.48864663972665 L 734.6271340423682,301.8434248701246 L 733.6245696402857,302.49922593964516 L 732.5859417325775,302.940009311545 L 730.8837459740231,304.8679811532619 L 729.7874164322035,305.28725948608246 L 727.9409669021743,301.97243507003185 L 726.9888912573509,302.25195688375373 L 725.870923712567,303.2947858396079 L 724.5077245052485,303.90758048883237 L 723.1300999207826,303.7140664928296 L 720.7066348027997,302.940009311545 L 719.3867118524375,302.8217504530479 L 717.7566429796202,303.1765271295329 L 713.1477315293286,305.4592709412554 L 709.1518991726322,306.71710162038903 L 705.4445743588691,307.07187344987096 L 701.6218465279342,306.64184697520574 L 697.2942302458106,305.52377522583714 L 692.6925315468577,303.3055365949623 L 692.505001518419,301.02635906074073 L 694.1062195114274,298.17377728530823 L 694.8563397506723,294.2783070185484 L 694.3153875428144,292.7408890152936 L 692.5915537813036,290.0817444693489 L 692.3102587386575,288.25401524110833 L 692.8872743266193,286.2614174380102 L 696.4719832463501,280.94655490725745 L 697.387995260026,278.4055602815533 L 698.1669662535661,275.10115398559054 L 698.3977724134392,271.8827208254878 L 697.647652299716,269.6032708351729 L 688.2639374991801,262.16623754139056 L 684.6648032023095,257.8508602505529 L 700.2514346947991,248.62486061018268 L 705.2931078360639,246.66778254758657 L 706.6563070433822,246.76456155462557 L 710.4934601259426,247.54954513198462 L 726.4984280577878,254.32036386879074 L 728.9435313042568,255.0838159297219 L 732.4993894696928,255.73973743114814 L 734.7713880648785,255.52468143371763 L 736.6755392290112,254.83650068009297 L 738.0459510621465,253.7397086896594 L 740.2530355229254,251.40273540207104 L 741.6378727332083,250.33818619345868 L 743.542023897341,249.59622458148147 L 744.7537564563322,250.08011281993177 L 745.7058319756417,251.18767536292242 L 746.3116984434203,253.05869130053134 L 750.408508440149,279.0076599481711 L 751.1225651737683,280.69926589281374 L 752.2910216013174,281.9142048744992 L 754.635147207762,283.09688333650985 L 756.95042193439,283.2259023761077 L 759.6984583519832,282.9141061602544 L 762.4969836523575,282.32276712541346 L 765.5695912440473,282.17224431860876 L 774.4700554708289,283.11838645186236 L 776.157825977758,282.8603479519091 L 777.7446185936188,282.11848608078026 L 783.8032815141138,281.215346832774 L 798.3152218443131,283.13630579645906 L 798.3656682386842,283.14298343983154" fill="none" stroke="#000000" stroke-width="0.4067599333784422"/>
	<path d="M 420.7915599345445,19.353284614423636 L 420.9487209708586,17.23683932315829 L 422.7660927685442,12.347003949149189 L 426.4235533124978,6.4111021730122575 L 431.3418154591064,1.5943272642157746 L 437.0665363287213,0.0 L 436.7598548012237,0.5257911937166737 L 436.19192620167644,1.9731182164915622 L 440.5309012046563,2.8776888126375724 L 442.4391414945279,2.9794525892454526 L 443.81352881708926,1.9731182164915622 L 446.9598534818802,2.934224239314552 L 451.480565608805,3.612647279622147 L 456.2170906314688,3.488270037354618 L 460.1017227548155,1.9731182164915622 L 460.5219898626469,2.5837040526094834 L 460.95361565413265,2.8154998263661204 L 462.0894729927917,3.013373736275439 L 465.7923678526288,7.570039134072912 L 467.17811371925586,9.944412031049369 L 467.73468391430225,12.884047453170787 L 467.5188710185555,15.552270649423008 L 466.95094227944344,17.977363948330495 L 466.06497360832464,20.142383626975967 L 464.94047481373906,21.979511648925392 L 459.8972684031505,26.439380418650575 L 458.4660882206399,30.282993102990062 L 453.83179037380876,35.74298328908019 L 451.61544879474087,30.31458930155942 L 451.24760136368803,29.71160215439779 L 450.8364778012008,29.1839861328762 L 449.5381929793246,28.32256728846404 L 447.71338132673804,27.64419598642079 L 443.92671700142864,26.886856366222666 L 440.39249696447865,26.714569948474203 L 439.3322310538063,26.843784815179795 L 438.1421366232931,26.876088511073963 L 436.4760042448503,26.553051302992202 L 434.5718530807095,25.79929433299436 L 428.46270115191993,21.520740861861135 L 426.62346424771556,20.47620594361439 L 422.85122529955356,19.245007315490547 L 420.80282023842454,19.352692793143405 L 420.7915599345445,19.353284614423636" fill="none" stroke="#000000" stroke-width="0.4067599333784422"/>
	<path d="M 453.83179037380876,35.74298328908019 L 453.4342402145523,36.20645001526566 L 450.64003125356186,43.666903080202765 L 448.23201376817383,45.565858836634504 L 447.57321653687563,48.83245024048507 L 447.18702506127346,49.578442303373514 L 446.86898498969407,50.04185961337556 L 442.8594086023673,52.41543464889149 L 442.3709899509244,54.653337771991524 L 442.30283854689355,61.05036905185719 L 441.4282284198567,63.322033080917194 L 435.15829603884987,70.50973480756673 L 430.37633670030266,78.31858938948652 L 429.08145946542635,79.87804777860816 L 427.74114777510187,78.97966621735655 L 424.53803011078134,77.62360776784587 L 423.81108147545234,76.72521188370929 L 422.92511280433365,77.09813168114758 L 420.90328679454785,76.36924201239377 L 417.0300133548552,74.2277536988547 L 416.01910028017613,74.57242814905807 L 412.81598261585555,75.28437602958768 L 411.40751952150026,75.2561242706645 L 409.9081879349588,74.60633056469095 L 406.95495893817895,72.72473681118068 L 405.13758714049345,72.3292033901765 L 402.1389238278379,72.22749458548928 L 398.8222205831758,71.4590257944715 L 396.1415972025271,69.37961801193914 L 395.0284570915879,65.29981892326455 L 394.39237694843723,63.79670436118206 L 393.12021680171614,61.977122153831516 L 392.2115309028695,60.163166555247706 L 392.6658739220831,58.62043728821491 L 393.2110854334751,57.343292817979126 L 394.0743368768656,51.466009698466465 L 395.0170985475142,48.770284055694795 L 396.8458287497007,45.27197455605982 L 399.4469420426802,42.97174267555 L 402.7522868828334,43.88166719003135 L 404.52422422507084,42.87001155885944 L 406.8754488505016,42.97739438648366 L 411.85050399663237,43.88166719003135 L 414.20172862206334,42.937832265883266 L 414.9741115732677,40.71668450704784 L 414.57656155359183,38.15638285862876 L 413.315759811372,36.20645001526566 L 415.05362152138014,35.27951502177415 L 417.2458261110216,33.71388388769193 L 419.17678362862114,31.854318704963283 L 419.9946008957091,30.08516290898669 L 420.7915599345445,19.353284614423636 L 420.80282023842454,19.352692793143405 L 422.85122529955356,19.245007315490547 L 426.62346424771556,20.47620594361439 L 428.46270115191993,21.520740861861135 L 434.5718530807095,25.79929433299436 L 436.4760042448503,26.553051302992202 L 438.1421366232931,26.876088511073963 L 439.3322310538063,26.843784815179795 L 440.39249696447865,26.714569948474203 L 443.92671700142864,26.886856366222666 L 447.71338132673804,27.64419598642079 L 449.5381929793246,28.32256728846404 L 450.8364778012008,29.1839861328762 L 451.24760136368803,29.71160215439779 L 451.61544879474087,30.31458930155942 L 453.83179037380876,35.74298328908019" fill="none" stroke="#000000" stroke-width="0.4067599333784422"/>
</svg>
