<?xml version="1.0" ?>
<svg xmlns="http://www.w3.org/2000/svg" xmlns:ev="http://www.w3.org/2001/xml-events" xmlns:xlink="http://www.w3.org/1999/xlink" baseProfile="full" height="349px" version="1.1" viewBox="-80.4 -46.77263080446528 960.8 557.2715696535834" width="600px">
	<defs/>
	<path d="M 790.9737388556815,102.69123451190708 L 786.6720799460558,109.313160602636 L 779.1052169370199,112.12219353055725 L 761.4447123642518,112.34143061612066 L 764.8002755220286,106.33957163237423 L 760.3800956663049,105.05143329478202 L 753.2444702761019,106.7643780597241 L 748.2987202243764,109.72424576637273 L 741.9918781333247,114.90370887963857 L 726.1439165041751,122.2748683601877 L 720.4569779686308,128.7411128006955 L 719.7966460167671,131.46716670426645 L 719.76969366558,137.13811229549202 L 718.6848631606128,140.05559242126947 L 720.6860725624605,141.02805845270868 L 727.5184845886845,141.98681460076534 L 732.8011383781526,143.71254269067524 L 737.7805788036341,146.76670270363587 L 742.8745666564482,151.68320839065126 L 745.4956793529974,153.5319440586163 L 752.6178286980023,156.02423648029912 L 753.8374212196161,157.58529737824185 L 754.4977526499174,159.6118860210098 L 755.9464397653761,162.1724241004458 L 761.6535926295084,168.48436812261258 L 764.7463710804678,170.60647774913153 L 768.9846225005398,172.44102413497313 L 778.1686242331422,173.87850853215306 L 780.6482371512006,175.11061426314532 L 783.5119207475457,179.47757208895874 L 783.862300791271,184.48760359308406 L 781.5848301158626,195.2045934383344 L 780.7223561821258,206.20732505016582 L 784.7045609179793,237.39985957943261 L 784.6506559548584,242.1459524826964 L 783.2963021989364,253.5243587535437 L 781.9486864655912,257.03871967565624 L 777.8182439286186,260.1153543539103 L 771.4979260531678,262.6312606776193 L 764.8002755220286,263.8618351304764 L 759.5647881515526,263.12349307584543 L 758.0217681981267,261.16821698028207 L 758.5877665297284,259.19921458161764 L 758.42605294424,257.503641854302 L 754.6662047795734,256.43705134577215 L 752.4695908969054,255.0696047244616 L 751.6071169631692,249.7773418854725 L 749.3229082651621,248.14992696607112 L 745.4080842768511,248.0815474319167 L 744.6264671358554,249.49015347085242 L 745.8056310003363,252.4850596494688 L 745.2463704305786,258.5428687053007 L 744.5051816859527,261.086176438638 L 741.1428802447937,266.10416143462186 L 736.6485816189206,268.7975956966975 L 731.4063562258383,268.8932996356235 L 725.7531078032963,266.07681637463924 L 723.6845176539209,267.66281067526097 L 712.4454020779249,274.49859611622264 L 707.5737707963492,276.27579484250583 L 696.1796793966869,274.443912315684 L 692.0559748823429,274.5259380010644 L 684.2263271664903,275.89301726826125 L 680.6012407577374,276.0433944884908 L 676.3360369864564,275.0454310635119 L 673.8429475016397,273.555295975523 L 671.5991671999873,271.5866302713103 L 669.3149585019808,269.9733782260334 L 666.6736314768509,269.49486439664685 L 660.6632649879779,270.30150035881644 L 638.83188922112,268.87962750089866 L 637.3360356866856,268.0593039583546 L 635.974943908135,267.88156581271727 L 633.1853790819309,269.3854892124942 L 631.1437412837428,271.66865918546256 L 628.1250818637014,278.0256095459317 L 626.3799191460871,280.6502530451047 L 623.0580463620968,283.28847077502746 L 598.7939160949021,296.5223029153644 L 598.7337919051919,296.43734124739115 L 592.8244967795757,288.0864416729347 L 591.5307854104341,283.4937230999187 L 591.5105712472474,281.55266592909 L 590.5470260288565,277.69773617965905 L 579.2809579579806,275.10032777839876 L 580.6487878473077,260.36169298858835 L 581.6594999936962,256.806470991067 L 582.5287118251423,256.09540587959003 L 583.6000666956143,255.41168233682546 L 587.8113660156923,253.52457229209952 L 589.3072194857627,252.37587259991406 L 591.2477861876814,250.22884865846666 L 591.6520708586175,248.64247153722425 L 591.4027620642013,247.28855326720367 L 590.5470260288565,246.3312218283001 L 588.6199353575645,244.62166969364094 L 587.892222902963,243.26767553884042 L 587.4475096711294,241.53069627264665 L 587.5081523952282,236.55203499855625 L 586.0459891189411,226.82623481957208 L 585.5002048366355,214.78684482032588 L 585.6956090395287,211.6945824786839 L 586.0864176798527,209.40950585115579 L 589.2263623639531,200.41900093542006 L 589.3611240772858,198.3388435559145 L 588.9231489780279,196.77868553017217 L 588.053936912058,195.8754206613137 L 582.7173783645081,191.98851230541595 L 581.7201427177949,190.90725685441043 L 580.965477498398,189.606990999252 L 580.1838604522881,187.06113826876884 L 580.2445031763716,185.47335571102826 L 580.7296449691173,184.29618345882773 L 581.2754292514225,183.73496661864732 L 582.1850698782908,181.81858282061043 L 583.1553534637818,178.62905667026237 L 584.4018981394502,171.2638479730429 L 584.4625406290106,167.75894285896044 L 583.7617804701857,165.70520598536973 L 582.7308543951349,165.06168956689353 L 578.8429826241986,163.3227961868773 L 576.6733215255745,162.06309846070315 L 575.5480622980884,161.10461764741208 L 574.5440882842753,159.7353364330963 L 573.6546620551181,157.16101562033498 L 573.6344476574068,154.87417266491696 L 574.1195894501531,151.8751453022693 L 574.9416350571604,150.28656727067178 L 576.1342749067815,149.30053517498084 L 577.5290573263945,148.97185471604226 L 578.9844824700917,148.94446462782219 L 582.2322365717782,149.574434415446 L 583.4855191454834,149.60182401824585 L 584.7118494234268,149.30053517498084 L 585.8168944877262,148.68425813470324 L 588.6603639184619,146.31496421298706 L 589.7721468807971,145.73974772988092 L 591.0658580154144,145.46583344046002 L 592.3999977109287,145.63018200017245 L 593.9969222314859,144.808434852273 L 595.7016564041242,142.79511302985068 L 597.8780558698476,137.02874721589825 L 598.450792447915,133.91936830128535 L 598.1880076228869,131.7824454155141 L 597.36596178134,130.76875406991746 L 596.2541788190043,130.09751798940695 L 593.5724233973485,129.17969453994147 L 592.3730451806427,128.53584122398766 L 591.3084289117802,127.8234858320957 L 590.5200737330952,126.97412931220583 L 589.9675510836902,126.20695957545048 L 589.5902187085159,125.41238223576872 L 585.4530381431629,111.56061012897236 L 585.3789193884531,109.46410603799156 L 585.7225613352905,107.79233821293742 L 587.1914625096138,105.20238816750093 L 587.9326514638747,103.48940479106544 L 588.8018635298309,100.3922228954642 L 588.8018635298309,98.5831849705393 L 588.3841025937597,97.02079533574752 L 587.6361757414473,95.97918275470965 L 585.7225613352905,94.1974402091428 L 583.4855191454834,92.85425001096867 L 582.366998050572,92.40194555830357 L 577.9333422318543,91.12725236037153 L 576.6800594236107,90.55157705653096 L 575.6289191853739,89.78400231074693 L 574.7394927216915,88.79710776937787 L 573.2638534148082,86.60395784389797 L 572.3474746553646,85.6992630243789 L 571.1750489689307,85.05500328229736 L 566.8289879355499,84.24624326405949 L 566.4247032646133,83.69792588091607 L 566.3842749382259,83.08106399284547 L 566.6066314368798,82.71094390529036 L 567.0715588319146,82.20373894683647 L 567.6982002360293,81.34011170015582 L 568.1429134678776,80.16117390049908 L 567.4354149419385,79.43460907990931 L 566.2427750923322,79.00963361605237 L 565.9126091761062,78.13225682062276 L 566.1821323682333,77.09035685894172 L 566.9165831899195,76.04844124731153 L 567.7723189907396,75.1024775966893 L 568.7291263110801,74.23876037568816 L 569.7196240597577,73.66294298310402 L 570.737073635148,73.51213256788249 L 572.7315451631146,74.49924761187188 L 574.133065480764,74.66376551745796 L 575.64913334856,74.5677968072608 L 577.2191058078796,74.27989010582593 L 578.6745309515768,73.74520263533753 L 579.8739086992493,72.97743932144817 L 580.8307160195889,71.75722620377792 L 580.9317873045851,70.89346640230369 L 580.7363831016926,69.96114238281835 L 580.1030035650026,68.63118713170422 L 578.8766730525208,64.06526713273416 L 578.9440539091943,62.255268320211584 L 579.5302667523969,61.15827567307112 L 580.5072884704624,60.911450103586276 L 581.1541438032401,61.15827567307112 L 581.8009993705562,61.84389803168984 L 583.0138536178881,64.01041942737761 L 583.923494244756,64.73714853294754 L 584.9342061566055,64.79199565270504 L 585.884275344385,64.20238620274617 L 586.6254640641222,63.18769782657546 L 587.5553188541761,62.39239103777554 L 588.8827204171158,61.761623770892456 L 590.2775028367295,61.30911319936248 L 591.8542134286095,59.88299951168491 L 592.3191408236438,58.333438445052415 L 592.2921885278821,56.701561650646596 L 591.7868323374265,55.3713471566744 L 591.1265007394991,54.16453209495967 L 587.6766043023596,50.21480592374509 L 586.706320716868,49.39191717382421 L 585.5945379890566,48.870749106603775 L 584.4018981394502,48.77474399399766 L 583.2025199227297,49.18619324604183 L 579.5909094764957,51.28454591014715 L 578.3780552291637,51.778266621950344 L 577.057391798785,52.14855455811049 L 575.5884906244764,52.1348403499085 L 574.4295412031918,51.57254993647056 L 573.4255671893644,49.913080994087046 L 572.6506882758292,47.471804558006646 L 571.8016901385358,42.781015479425626 L 571.9903564433774,40.366915188773895 L 572.5967836843056,38.6385860539797 L 573.7287808098279,38.06246619794861 L 575.0022777812592,38.00759769085006 L 576.1949176308802,39.0500971943248 L 576.262298487539,40.39434860920545 L 575.9590851015997,42.095200363910735 L 576.2757747526747,43.288514192324705 L 577.2864864300146,43.7411447670385 L 578.5532455033945,43.549120095247694 L 580.6892164082204,42.72615032562101 L 581.2552150882364,42.87702885442586 L 581.9829275428225,43.46682364048983 L 582.7308543951349,44.344647807455836 L 583.8830659183681,44.81098748762804 L 585.3182766643544,44.81098748762804 L 588.2156506866284,44.39951164858593 L 589.4958855560948,44.72869256772358 L 590.3987882849118,45.510490863143346 L 591.3084289117802,47.82840094464845 L 591.7329279804261,48.40443738753957 L 592.5414973222988,48.92560904168202 L 593.6128519582606,49.02161394051823 L 594.6909447267841,48.651308683415124 L 595.4792996709455,48.10270463499079 L 598.4844828762515,45.0030085782179 L 599.4817185229647,44.19377279072577 L 600.7350013312094,43.71371294313915 L 602.2173787706679,43.6999967883261 L 603.4302330179999,44.20748860675263 L 604.5015874194386,45.0030085782179 L 606.2534880510241,46.70374446135505 L 607.0620573928968,47.27979046986516 L 607.5471991856415,47.554096382104206 L 608.7802678306848,47.746109931212 L 609.5214563158971,47.65010322470267 L 609.9863837109174,47.49923533627505 L 610.5321682277619,47.156352434948154 L 611.4215944569031,45.9219599476681 L 612.4727349296801,44.09776104597813 L 613.8675173492932,40.531515544329395 L 614.150516572031,38.61115192066925 L 613.6451608506235,37.48634190473424 L 612.7153058260453,37.37660343231564 L 611.6641653532841,36.99251713557052 L 609.9661695477307,35.27781926590568 L 607.3652710133603,34.27641548976824 L 606.3612972340718,33.45333273367686 L 605.6672752078068,32.328436984383536 L 604.7643727135146,28.830165325685225 L 603.5717323948451,13.751218166786618 L 604.0770885853011,11.857535046584712 L 605.0473719362678,11.36352185160258 L 606.0176552872346,11.95359277149022 L 607.9380078259513,13.641440978749554 L 609.4001708677148,15.850674100698168 L 610.2895973313808,16.687693413213943 L 611.5024515787128,17.00328837187765 L 612.9174481615125,16.879794889901408 L 614.3054924485509,16.42698359148004 L 615.5452989916447,15.17830621451541 L 616.6907721477932,13.366996744766288 L 617.8227697423639,9.661893655440723 L 622.0451109598537,0.9393176795735219 L 689.940218053207,1.2215113417373473 L 782.3799235628329,1.6058020053859843 L 780.2843808015014,19.074985884047848 L 780.7223561821258,24.988502007443422 L 783.2154454061659,32.204757520547176 L 796.3546992626585,48.67852462936121 L 799.2992396517745,54.06832048927924 L 800.0,58.607485590408864 L 799.029716661552,63.1600594837613 L 794.441084936957,74.08773713920772 L 793.8885623898057,76.29499787759288 L 793.6257774222048,79.69486225022888 L 794.441084936957,87.3576467988706 L 794.1850379919625,90.4417098188053 L 792.0962335140063,95.58150716770871 L 791.0518311446397,102.57101422481732 L 790.9737388556815,102.69123451190708" fill="none" stroke="#000000" stroke-width="0.8"/>
	<path d="M 598.7939160949021,296.5223029153644 L 575.6691370374705,309.1324962031472 L 564.8949486717554,311.0591574335879 L 543.2185487285626,308.55858704548666 L 532.4241460342448,309.70640061127926 L 526.090351852812,313.18389213951065 L 521.4141253128626,318.3554177921148 L 495.53990208516296,356.21198810545286 L 491.6183400742456,366.1458885903353 L 486.4300193835088,386.8970034873348 L 461.41827008956767,435.1895377289158 L 452.6722437376193,445.5904664139551 L 452.6722437376193,445.631385238064 L 445.2684193350909,453.2137313446764 L 435.14538426259963,460.35470823301495 L 428.5240279248048,463.7263080446528 L 425.5104617906026,463.27533832183616 L 426.2320198313335,459.796339735783 L 428.0465261843289,458.0138292296716 L 430.349145398611,456.8326249559385 L 432.63054211049547,455.178908421666 L 436.4823888751345,449.22953061825314 L 438.13772789438895,447.80118191345696 L 438.13772789438895,445.9969139597883 L 436.1958878308462,445.9969139597883 L 435.1029395185658,448.477771545893 L 433.7659349060315,450.6041568354637 L 431.87715070733225,452.2472326470685 L 429.0758075109544,453.2137313446764 L 426.00918577270005,453.3425971325529 L 423.1441758514434,452.6982668290964 L 421.0113350917283,451.18407004285234 L 420.1836655821011,448.77847584535795 L 424.83134849392087,429.40210424558893 L 426.40179828588526,426.1793936103159 L 429.1606967382445,424.7183867751719 L 430.7948135158632,421.28061322734806 L 432.0469289011227,417.36995713931174 L 433.5961567122421,414.3831119425871 L 435.11355063937657,413.6310102109198 L 438.3711730738185,413.8351528716819 L 439.7612335511969,413.3946336328276 L 439.9416231265736,412.38465370737134 L 439.55962173419914,408.87110730731894 L 439.7612335511969,407.97926407472715 L 450.5952155435935,407.0766648298785 L 450.1071029430987,404.8738480143945 L 448.7700983305638,403.07931065935696 L 447.0510923256551,401.7253203563861 L 445.2684193350909,400.7796619945373 L 448.7382647073408,397.08288385970496 L 450.8074387421933,392.0962456510126 L 450.5103265770942,387.3887286077023 L 446.8813138710881,384.5511792248986 L 444.52563905273956,391.42990251433315 L 440.6419589256682,396.41658498576766 L 435.43188530687326,399.52234790970175 L 429.0758075109544,400.7796619945373 L 430.52953471321115,405.0135406501368 L 429.394141917674,407.61392748461964 L 426.805021919896,408.1619317100276 L 423.90817837541624,406.17405484317345 L 423.33517654763085,407.5494563254226 L 422.62422962772547,408.602481038956 L 422.09367228319735,409.7844300887824 L 421.9663383118877,411.5895534415159 L 420.9264458644372,410.9233818676319 L 418.2418255185583,409.7844300887824 L 418.12510292883593,414.86660211611445 L 416.6183198617493,417.26251870915155 L 413.94431063668014,418.91705387757446 L 410.37896491632944,421.6673705662326 L 407.3866210237641,425.50260728489855 L 403.5453856407113,432.94692865935923 L 396.786084210797,442.09826222073985 L 393.92107428954034,444.8477451495252 L 390.72711884075386,445.9969139597883 L 387.3633849374003,444.5148052291244 L 383.3417597182095,441.0349589617325 L 380.3494160864208,437.1145727681165 L 380.0416928005109,434.27888088404245 L 382.90670272176754,432.2057517161004 L 390.7058965991323,428.306397854844 L 393.4754061722881,426.1793936103159 L 394.80179966401164,423.1284358436013 L 396.8603623172621,411.5895534415159 L 394.05901912088325,389.3341080380804 L 396.8603623172621,382.8958926276388 L 390.99239738262884,383.79878054756637 L 389.464392073907,387.71117061969835 L 390.3238952067578,392.8055720828912 L 391.6821220609132,397.3300579593289 L 392.0429012116666,401.33846146134596 L 391.7564001673783,407.7213795589263 L 389.846393466282,412.27720796912206 L 383.1083145387647,409.61251152931146 L 373.8766157007784,409.7844300887824 L 371.1283283692442,408.96781260508453 L 369.14404382245937,407.8395766384661 L 367.6903166202032,406.77579602801995 L 366.60797942873415,406.17405484317345 L 360.52779155629287,407.0551742973507 L 357.3232249866798,406.55014370931457 L 355.9119422676798,403.5736186147185 L 355.200995347775,400.67220007548127 L 353.33343339071257,398.74860561675507 L 350.7443131321422,397.66320410451794 L 347.81563622523066,397.3300579593289 L 343.94256721897005,394.5681118318946 L 343.0193973612573,388.173335282411 L 343.29528728472013,375.5326500425266 L 343.94256721897005,372.6839028565828 L 343.8046223876272,370.8993492018198 L 342.403950789438,370.1145623959541 L 340.7592228909938,370.08231078352577 L 339.9209422605569,369.7920448542974 L 339.613218974647,368.9642433950616 L 339.5601631098029,367.330114895021 L 339.8678863957123,364.5025581863511 L 341.2048912690231,361.0297855664172 L 341.512614554933,358.2342474726462 L 342.79656330262327,355.7826893343779 L 349.40730851960734,346.921999805534 L 352.18742921358813,344.69590846190937 L 353.87460185605147,345.0723052568916 L 359.12712021888024,347.5349698313508 L 362.14068609229,348.1264274026127 L 364.7616397132922,347.3091394127624 L 368.44370802336533,343.7172672879801 L 371.05405052355616,342.8891763442839 L 373.7068375070038,341.4050422805811 L 376.80529260769055,337.86666044643374 L 379.500524335172,333.69351922921624 L 379.55082118266364,333.6426439190316 L 381.9563152796167,331.96245669537126 L 394.78561767723755,321.25207342628136 L 399.54270151414374,319.68090441210137 L 400.8431507813221,320.1454273555022 L 405.5395918941295,322.5226466934457 L 409.8991289581522,325.71947586650856 L 411.9677190063037,326.539153456797 L 412.93800235725564,327.0309554538703 L 413.8072146577503,327.7959743799513 L 417.8635381012937,332.9459855010159 L 419.0898686137766,334.0524398137987 L 420.66657897113134,335.1998567756827 L 423.5976434217282,336.6477617859216 L 425.67970973503003,337.04388190828473 L 427.4720389275283,337.1121780867558 L 436.9592540710415,333.76558297319394 L 443.14481052135994,332.7820650600857 L 444.5800212673458,332.38592237654456 L 447.1068008124817,331.2111411106785 L 448.3870359164735,330.74668802690053 L 458.5008924641162,328.4107162032481 L 460.74467278649837,327.3588217119577 L 462.32138314385423,326.26592836657437 L 465.1446384114169,321.9898284032843 L 468.17003577991005,315.7050137406765 L 469.7467463717896,313.72381960096754 L 470.8383151709392,312.57606911006235 L 471.6738368085732,311.5376124440084 L 472.2802640495013,310.5264696984101 L 472.7249770468106,309.1873673394701 L 473.0484050650002,307.73892285199133 L 473.1292619522704,306.1128049171105 L 472.9136433516664,301.20690342692535 L 473.27076156365405,297.9270085800805 L 473.587451214729,296.4100076380416 L 477.1047285085431,288.7971938949884 L 488.9300571268738,271.3544283441267 L 495.12908984232735,260.0061786831713 L 499.7177215375649,262.3990301421305 L 500.8497186631014,264.7781293515222 L 500.86993306081274,267.79974625493577 L 502.1030014713313,272.16104372816005 L 506.4018958112547,278.09417459003583 L 512.9445704735602,283.72609969240204 L 520.1408388357428,286.71959142979324 L 526.3735617450092,284.751282238025 L 533.3339973433865,277.69773617965905 L 535.9416340103315,276.79548907782106 L 540.2540043808663,277.041557623208 L 541.1838594054445,277.615714243505 L 544.1081857234661,280.00798449555856 L 545.8331338247808,280.70514566679793 L 548.1914616973097,280.4454196014118 L 555.5359678034359,277.2602845461535 L 561.4250485313413,275.961584133664 L 573.3514484346541,274.71754403047964 L 579.2809579579806,275.10032777839876 L 590.5470260288565,277.69773617965905 L 591.5105712472474,281.55266592909 L 591.5307854104341,283.4937230999187 L 592.8244967795757,288.0864416729347 L 598.7337919051919,296.43734124739115 L 598.7939160949021,296.5223029153644" fill="none" stroke="#000000" stroke-width="0.8"/>
	<path d="M 484.0791460075823,0.35200577486798257 L 505.05406953290264,0.43919782518318895 L 597.480298736554,0.8372182021014106 L 622.0451109598537,0.9393176795735219 L 617.8227697423639,9.661893655440723 L 616.6907721477932,13.366996744766288 L 615.5452989916447,15.17830621451541 L 614.3054924485509,16.42698359148004 L 612.9174481615125,16.879794889901408 L 611.5024515787128,17.00328837187765 L 610.2895973313808,16.687693413213943 L 609.4001708677148,15.850674100698168 L 607.9380078259513,13.641440978749554 L 606.0176552872346,11.95359277149022 L 605.0473719362678,11.36352185160258 L 604.0770885853011,11.857535046584712 L 603.5717323948451,13.751218166786618 L 604.7643727135146,28.830165325685225 L 605.6672752078068,32.328436984383536 L 606.3612972340718,33.45333273367686 L 607.3652710133603,34.27641548976824 L 609.9661695477307,35.27781926590568 L 611.6641653532841,36.99251713557052 L 612.7153058260453,37.37660343231564 L 613.6451608506235,37.48634190473424 L 614.150516572031,38.61115192066925 L 613.8675173492932,40.531515544329395 L 612.4727349296801,44.09776104597813 L 611.4215944569031,45.9219599476681 L 610.5321682277619,47.156352434948154 L 609.9863837109174,47.49923533627505 L 609.5214563158971,47.65010322470267 L 608.7802678306848,47.746109931212 L 607.5471991856415,47.554096382104206 L 607.0620573928968,47.27979046986516 L 606.2534880510241,46.70374446135505 L 604.5015874194386,45.0030085782179 L 603.4302330179999,44.20748860675263 L 602.2173787706679,43.6999967883261 L 600.7350013312094,43.71371294313915 L 599.4817185229647,44.19377279072577 L 598.4844828762515,45.0030085782179 L 595.4792996709455,48.10270463499079 L 594.6909447267841,48.651308683415124 L 593.6128519582606,49.02161394051823 L 592.5414973222988,48.92560904168202 L 591.7329279804261,48.40443738753957 L 591.3084289117802,47.82840094464845 L 590.3987882849118,45.510490863143346 L 589.4958855560948,44.72869256772358 L 588.2156506866284,44.39951164858593 L 585.3182766643544,44.81098748762804 L 583.8830659183681,44.81098748762804 L 582.7308543951349,44.344647807455836 L 581.9829275428225,43.46682364048983 L 581.2552150882364,42.87702885442586 L 580.6892164082204,42.72615032562101 L 578.5532455033945,43.549120095247694 L 577.2864864300146,43.7411447670385 L 576.2757747526747,43.288514192324705 L 575.9590851015997,42.095200363910735 L 576.262298487539,40.39434860920545 L 576.1949176308802,39.0500971943248 L 575.0022777812592,38.00759769085006 L 573.7287808098279,38.06246619794861 L 572.5967836843056,38.6385860539797 L 571.9903564433774,40.366915188773895 L 571.8016901385358,42.781015479425626 L 572.6506882758292,47.471804558006646 L 573.4255671893644,49.913080994087046 L 574.4295412031918,51.57254993647056 L 575.5884906244764,52.1348403499085 L 577.057391798785,52.14855455811049 L 578.3780552291637,51.778266621950344 L 579.5909094764957,51.28454591014715 L 583.2025199227297,49.18619324604183 L 584.4018981394502,48.77474399399766 L 585.5945379890566,48.870749106603775 L 586.706320716868,49.39191717382421 L 587.6766043023596,50.21480592374509 L 591.1265007394991,54.16453209495967 L 591.7868323374265,55.3713471566744 L 592.2921885278821,56.701561650646596 L 592.3191408236438,58.333438445052415 L 591.8542134286095,59.88299951168491 L 590.2775028367295,61.30911319936248 L 588.8827204171158,61.761623770892456 L 587.5553188541761,62.39239103777554 L 586.6254640641222,63.18769782657546 L 585.884275344385,64.20238620274617 L 584.9342061566055,64.79199565270504 L 583.923494244756,64.73714853294754 L 583.0138536178881,64.01041942737761 L 581.8009993705562,61.84389803168984 L 581.1541438032401,61.15827567307112 L 580.5072884704624,60.911450103586276 L 579.5302667523969,61.15827567307112 L 578.9440539091943,62.255268320211584 L 578.8766730525208,64.06526713273416 L 580.1030035650026,68.63118713170422 L 580.7363831016926,69.96114238281835 L 580.9317873045851,70.89346640230369 L 580.8307160195889,71.75722620377792 L 579.8739086992493,72.97743932144817 L 578.6745309515768,73.74520263533753 L 577.2191058078796,74.27989010582593 L 575.64913334856,74.5677968072608 L 574.133065480764,74.66376551745796 L 572.7315451631146,74.49924761187188 L 570.737073635148,73.51213256788249 L 569.7196240597577,73.66294298310402 L 568.7291263110801,74.23876037568816 L 567.7723189907396,75.1024775966893 L 566.9165831899195,76.04844124731153 L 566.1821323682333,77.09035685894172 L 565.9126091761062,78.13225682062276 L 566.2427750923322,79.00963361605237 L 567.4354149419385,79.43460907990931 L 568.1429134678776,80.16117390049908 L 567.6982002360293,81.34011170015582 L 567.0715588319146,82.20373894683647 L 566.6066314368798,82.71094390529036 L 566.3842749382259,83.08106399284547 L 566.4247032646133,83.69792588091607 L 566.8289879355499,84.24624326405949 L 571.1750489689307,85.05500328229736 L 572.3474746553646,85.6992630243789 L 573.2638534148082,86.60395784389797 L 574.7394927216915,88.79710776937787 L 575.6289191853739,89.78400231074693 L 576.6800594236107,90.55157705653096 L 577.9333422318543,91.12725236037153 L 582.366998050572,92.40194555830357 L 583.4855191454834,92.85425001096867 L 585.7225613352905,94.1974402091428 L 587.6361757414473,95.97918275470965 L 588.3841025937597,97.02079533574752 L 588.8018635298309,98.5831849705393 L 588.8018635298309,100.3922228954642 L 587.9326514638747,103.48940479106544 L 587.1914625096138,105.20238816750093 L 585.7225613352905,107.79233821293742 L 585.3789193884531,109.46410603799156 L 585.4530381431629,111.56061012897236 L 589.5902187085159,125.41238223576872 L 589.9675510836902,126.20695957545048 L 590.5200737330952,126.97412931220583 L 591.3084289117802,127.8234858320957 L 592.3730451806427,128.53584122398766 L 593.5724233973485,129.17969453994147 L 596.2541788190043,130.09751798940695 L 597.36596178134,130.76875406991746 L 598.1880076228869,131.7824454155141 L 598.450792447915,133.91936830128535 L 597.8780558698476,137.02874721589825 L 595.7016564041242,142.79511302985068 L 593.9969222314859,144.808434852273 L 592.3999977109287,145.63018200017245 L 591.0658580154144,145.46583344046002 L 589.7721468807971,145.73974772988092 L 588.6603639184619,146.31496421298706 L 585.8168944877262,148.68425813470324 L 584.7118494234268,149.30053517498084 L 583.4855191454834,149.60182401824585 L 582.2322365717782,149.574434415446 L 578.9844824700917,148.94446462782219 L 577.5290573263945,148.97185471604226 L 576.1342749067815,149.30053517498084 L 574.9416350571604,150.28656727067178 L 574.1195894501531,151.8751453022693 L 573.6344476574068,154.87417266491696 L 573.6546620551181,157.16101562033498 L 574.5440882842753,159.7353364330963 L 575.5480622980884,161.10461764741208 L 576.6733215255745,162.06309846070315 L 578.8429826241986,163.3227961868773 L 582.7308543951349,165.06168956689353 L 583.7617804701857,165.70520598536973 L 584.4625406290106,167.75894285896044 L 584.4018981394502,171.2638479730429 L 583.1553534637818,178.62905667026237 L 582.1850698782908,181.81858282061043 L 581.2754292514225,183.73496661864732 L 580.7296449691173,184.29618345882773 L 580.2445031763716,185.47335571102826 L 580.1838604522881,187.06113826876884 L 580.965477498398,189.606990999252 L 581.7201427177949,190.90725685441043 L 582.7173783645081,191.98851230541595 L 588.053936912058,195.8754206613137 L 588.9231489780279,196.77868553017217 L 589.3611240772858,198.3388435559145 L 589.2263623639531,200.41900093542006 L 586.0864176798527,209.40950585115579 L 585.6956090395287,211.6945824786839 L 585.5002048366355,214.78684482032588 L 586.0459891189411,226.82623481957208 L 587.5081523952282,236.55203499855625 L 587.4475096711294,241.53069627264665 L 587.892222902963,243.26767553884042 L 588.6199353575645,244.62166969364094 L 590.5470260288565,246.3312218283001 L 591.4027620642013,247.28855326720367 L 591.6520708586175,248.64247153722425 L 591.2477861876814,250.22884865846666 L 589.3072194857627,252.37587259991406 L 587.8113660156923,253.52457229209952 L 583.6000666956143,255.41168233682546 L 582.5287118251423,256.09540587959003 L 581.6594999936962,256.806470991067 L 580.6487878473077,260.36169298858835 L 579.2809579579806,275.10032777839876 L 573.3514484346541,274.71754403047964 L 561.4250485313413,275.961584133664 L 555.5359678034359,277.2602845461535 L 548.1914616973097,280.4454196014118 L 545.8331338247808,280.70514566679793 L 544.1081857234661,280.00798449555856 L 541.1838594054445,277.615714243505 L 540.2540043808663,277.041557623208 L 535.9416340103315,276.79548907782106 L 533.3339973433865,277.69773617965905 L 526.3735617450092,284.751282238025 L 520.1408388357428,286.71959142979324 L 512.9445704735602,283.72609969240204 L 506.4018958112547,278.09417459003583 L 502.1030014713313,272.16104372816005 L 500.86993306081274,267.79974625493577 L 500.8497186631014,264.7781293515222 L 499.7177215375649,262.3990301421305 L 495.12908984232735,260.0061786831713 L 486.8749428748095,260.85394082567944 L 486.4908726015843,259.45923031185737 L 493.1009281205491,251.71946425484063 L 494.01730664546795,249.599772251119 L 492.9998568355528,248.5193890666635 L 486.3695871534008,245.53799458186268 L 485.29823228291417,245.42858310146931 L 484.1055924333078,245.8799039990945 L 482.670381687322,246.74150822164333 L 481.9089788043982,245.78416950698403 L 480.9589096166181,243.50018133356795 L 479.5304367686827,241.1340575047671 L 479.10593793456,239.09611916696363 L 478.19629730769157,237.22225938704133 L 475.81775527197607,236.12801188514632 L 473.05514319756014,236.34686276813576 L 471.30998069853456,237.76937688119696 L 470.2426720847618,241.20872449451133 L 470.1940060151027,241.26426032557387 L 463.4134823435663,243.59042681507214 L 458.70213270686764,239.41188906064545 L 455.1049536240704,233.4452046561229 L 451.57144126616623,230.42936307897915 L 443.8677477369023,229.49227216390923 L 441.54390654176103,228.7813673801825 L 438.5621737700054,226.96098807087353 L 437.0553909636959,225.09747499170314 L 435.78205307603935,223.02924175017452 L 433.5961567122421,220.4977290755594 L 432.42893029349665,217.09351073640826 L 434.7846051118462,213.9153753831717 L 438.0740611695106,210.84483876829447 L 439.7612335511969,207.7418462308988 L 444.5468612943606,194.81125143841297 L 444.7272508697373,193.17320777627785 L 445.87325478608415,192.46194042448107 L 449.7251015507243,192.28951075459202 L 452.3672774133469,191.54590342046882 L 452.3638179588575,191.45279527903926 L 452.42314519683026,191.46841649580972 L 453.1508576514312,191.6600311611893 L 456.1156125303492,191.82427192393249 L 458.89170086990134,191.208367395451 L 460.29995955466484,190.71564015002158 L 461.5330279651834,190.1271002577839 L 462.5639540402342,189.49749368785282 L 463.37926151468105,188.90894389486382 L 463.77680828756615,188.49832446508609 L 463.9519983272721,187.7181412859876 L 463.8644033074115,186.76000982424176 L 463.23776213782105,185.0353402997316 L 461.45217107789796,181.28472351350604 L 461.10179076396184,180.03903639728182 L 461.0276720092516,179.39565111179147 L 461.08831473333566,177.69818064306304 L 461.55324236289425,175.86377126761707 L 462.52352571384625,173.5090861241328 L 462.9547626805436,172.1126660291018 L 462.1596693692981,170.8805075120282 L 451.56067102892547,164.8426186848457 L 450.18610300702215,163.77463878605928 L 448.0164416738744,162.7203348596292 L 445.09885348842903,162.03571349690057 L 443.9129515368584,161.351085210217 L 443.08416779726116,160.36520904345286 L 442.6192401677173,159.02329976852886 L 441.6556949493252,152.50508866431207 L 440.54391198698954,149.90311203839968 L 432.3975746715658,135.87815589092435 L 432.2493369276069,134.23442148616763 L 432.72774035325324,132.31668241774065 L 434.68852145289696,129.22079145369398 L 437.1950866003226,126.27545727376238 L 438.1653701857983,125.38498287118058 L 439.23672482176073,124.61779578903207 L 440.34176965152176,124.15199930169078 L 441.6691712144614,124.22049879212929 L 442.9965727774147,124.5903958719473 L 444.41830749277545,124.78219363356867 L 445.86699450391274,124.5903958719473 L 447.16744353658055,124.13829949084956 L 448.548749925568,123.79580000157642 L 449.8222466624598,123.79580000157642 L 450.7723158502394,123.97389988050195 L 451.68195647710786,124.3026984727586 L 458.54805892306405,128.0289736966082 L 459.89567488372927,128.39885022375083 L 461.43195691471135,128.6728317154024 L 466.4450876785953,128.94681236374643 L 469.31550917056745,129.4399741853424 L 470.40034007168083,128.6728317154024 L 470.90569579307424,126.50834889426253 L 471.0674098021693,114.28734047442993 L 471.7951222567555,109.13523687634262 L 471.2560758725009,105.53127632712022 L 470.5283634178999,103.40718081894015 L 469.4772231796631,102.25603036848757 L 464.47756868091477,98.13091775608333 L 463.68247513514507,97.11673259601865 L 463.04909583297996,95.99288839576535 L 462.5774303053699,94.56749829328253 L 462.32138314385423,92.93648708083516 L 461.3308856297156,66.8898663701683 L 461.7553844638378,65.49129315287827 L 463.0760481287412,64.88797812525627 L 475.6560414974058,62.3375419839176 L 479.78648393019836,60.85659961671518 L 480.91848129024487,60.1435418856944 L 484.04494970920894,57.675207339060144 L 485.2847562523027,57.04439629544585 L 486.6256340803933,56.550713896810194 L 487.84522622577566,55.9473195304702 L 488.88289043338693,55.16564160430361 L 489.6375554182739,54.082248533460216 L 489.9340309061628,52.655983085229465 L 489.0446044424815,50.393096894888565 L 488.3034157227443,48.966753844510656 L 487.6767745531544,47.965553048023885 L 487.05013314903914,47.156352434948154 L 483.54633188585285,43.7685770572106 L 477.0103955906462,39.32443624367761 L 476.0805405660669,38.473980848172566 L 475.59539877332224,36.91021245728238 L 475.6358273342197,34.67423523382442 L 477.23275208930056,30.558745738907078 L 478.38496361253374,28.377434269773147 L 480.91848129024487,24.618279333485187 L 482.0909069766794,21.984001733331098 L 486.2415635726433,15.068531362297195 L 486.8884189054198,13.71005162292238 L 487.41398925907833,11.857535046584712 L 487.4544178199758,8.797339837506899 L 487.0231808532779,5.695833531482266 L 484.0791460075823,0.35200577486798257" fill="none" stroke="#000000" stroke-width="0.8"/>
	<path d="M 412.6076260006928,0.05490018487322748 L 484.0791460075823,0.35200577486798257 L 487.0231808532779,5.695833531482266 L 487.4544178199758,8.797339837506899 L 487.41398925907833,11.857535046584712 L 486.8884189054198,13.71005162292238 L 486.2415635726433,15.068531362297195 L 482.0909069766794,21.984001733331098 L 480.91848129024487,24.618279333485187 L 478.38496361253374,28.377434269773147 L 477.23275208930056,30.558745738907078 L 475.6358273342197,34.67423523382442 L 475.59539877332224,36.91021245728238 L 476.0805405660669,38.473980848172566 L 477.0103955906462,39.32443624367761 L 483.54633188585285,43.7685770572106 L 487.05013314903914,47.156352434948154 L 487.6767745531544,47.965553048023885 L 488.3034157227443,48.966753844510656 L 489.0446044424815,50.393096894888565 L 489.9340309061628,52.655983085229465 L 489.6375554182739,54.082248533460216 L 488.88289043338693,55.16564160430361 L 487.84522622577566,55.9473195304702 L 486.6256340803933,56.550713896810194 L 485.2847562523027,57.04439629544585 L 484.04494970920894,57.675207339060144 L 480.91848129024487,60.1435418856944 L 479.78648393019836,60.85659961671518 L 475.6560414974058,62.3375419839176 L 463.0760481287412,64.88797812525627 L 461.7553844638378,65.49129315287827 L 461.3308856297156,66.8898663701683 L 462.32138314385423,92.93648708083516 L 462.5774303053699,94.56749829328253 L 463.04909583297996,95.99288839576535 L 463.68247513514507,97.11673259601865 L 464.47756868091477,98.13091775608333 L 469.4772231796631,102.25603036848757 L 470.5283634178999,103.40718081894015 L 471.2560758725009,105.53127632712022 L 471.7951222567555,109.13523687634262 L 471.0674098021693,114.28734047442993 L 470.90569579307424,126.50834889426253 L 470.40034007168083,128.6728317154024 L 469.31550917056745,129.4399741853424 L 466.4450876785953,128.94681236374643 L 461.43195691471135,128.6728317154024 L 459.89567488372927,128.39885022375083 L 458.54805892306405,128.0289736966082 L 451.68195647710786,124.3026984727586 L 450.7723158502394,123.97389988050195 L 449.8222466624598,123.79580000157642 L 448.548749925568,123.79580000157642 L 447.16744353658055,124.13829949084956 L 445.86699450391274,124.5903958719473 L 444.41830749277545,124.78219363356867 L 442.9965727774147,124.5903958719473 L 441.6691712144614,124.22049879212929 L 440.34176965152176,124.15199930169078 L 439.23672482176073,124.61779578903207 L 438.1653701857983,125.38498287118058 L 437.1950866003226,126.27545727376238 L 434.68852145289696,129.22079145369398 L 432.72774035325324,132.31668241774065 L 432.2493369276069,134.23442148616763 L 432.3975746715658,135.87815589092435 L 440.54391198698954,149.90311203839968 L 441.6556949493252,152.50508866431207 L 442.6192401677173,159.02329976852886 L 443.08416779726116,160.36520904345286 L 443.9129515368584,161.351085210217 L 445.09885348842903,162.03571349690057 L 448.0164416738744,162.7203348596292 L 450.18610300702215,163.77463878605928 L 451.56067102892547,164.8426186848457 L 462.1596693692981,170.8805075120282 L 462.9547626805436,172.1126660291018 L 462.52352571384625,173.5090861241328 L 461.55324236289425,175.86377126761707 L 461.08831473333566,177.69818064306304 L 461.0276720092516,179.39565111179147 L 461.10179076396184,180.03903639728182 L 461.45217107789796,181.28472351350604 L 463.23776213782105,185.0353402997316 L 463.8644033074115,186.76000982424176 L 463.9519983272721,187.7181412859876 L 463.77680828756615,188.49832446508609 L 463.37926151468105,188.90894389486382 L 462.5639540402342,189.49749368785282 L 461.5330279651834,190.1271002577839 L 460.29995955466484,190.71564015002158 L 458.89170086990134,191.208367395451 L 456.1156125303492,191.82427192393249 L 453.1508576514312,191.6600311611893 L 452.42314519683026,191.46841649580972 L 452.3638179588575,191.45279527903926 L 452.3036104276915,189.83234348707774 L 450.70132701250515,188.0001894937604 L 448.83376505544163,186.87931919691252 L 448.8549872970632,185.95243205570975 L 446.15975583037243,185.11175649770166 L 443.19924556101495,184.9393088972251 L 440.65257004647896,186.04943245805163 L 438.58339627241827,186.44821019599456 L 432.81093168587216,184.09862127627932 L 429.95653288542627,183.40881871156742 L 426.26385345454236,184.52974435658945 L 418.20999215612596,189.37969821174113 L 414.0291996031795,190.50052912620046 L 411.77963625374207,192.25718024404313 L 404.36244402952775,200.50100344835093 L 400.5954864921799,203.15175486949045 L 394.65324345108144,204.15384247615555 L 389.71905975574884,203.19485558884384 L 379.2246344116944,199.69282781100932 L 369.10159907842603,198.0117931549044 L 365.8758102672078,196.47080961400363 L 362.14068609229,193.19476143750393 L 357.2489468802147,189.96167013855197 L 351.39159332716923,188.63606028307262 L 345.279572092282,188.894717726007 L 339.5601631098029,190.50052912620046 L 337.6395455486724,191.73988874189905 L 333.3738640292271,195.32852049837265 L 331.7079136283853,196.0720881046974 L 326.0840052547836,195.7811279926615 L 323.18716197108097,195.95354889499913 L 321.0330989697291,196.9018572845755 L 312.86251482081485,205.12359103574775 L 311.29206502883574,206.06100214125348 L 308.4709724707181,207.20683020542012 L 303.6598379325808,204.36018447442115 L 302.224627186595,203.0738498297016 L 298.7747305149312,198.91363023871122 L 296.6791879364926,197.92827905886452 L 293.4718623957189,196.9155427670152 L 292.0433895477688,195.79330490733335 L 291.0326778704288,194.83528304637858 L 287.9803282061744,189.2511244149467 L 286.3362367576204,183.77603127154052 L 285.5007148854627,182.2292408566705 L 277.1252829388099,171.8799266907979 L 276.3840942190728,169.81261967729642 L 276.12130892499664,168.5804208382538 L 276.0876187311839,166.91007220953145 L 278.1427327487245,159.18761669261832 L 278.1764231770468,156.9966941787541 L 277.95406644386816,155.18913142769986 L 277.5969484664047,153.7375701494809 L 277.61716262959135,152.13533991015035 L 280.73015501794396,141.27481117178382 L 281.04010677098375,138.4532619714877 L 280.87839276188924,136.3849663907945 L 280.2315371945879,135.26176037058022 L 279.355586996057,134.26181735817207 L 278.2235898705194,133.49472838372932 L 271.22272571124466,131.26190318800562 L 269.9627050049648,130.61806894511975 L 268.8576599406643,129.8783373339484 L 267.86716242652676,129.04270504906498 L 265.2932161879176,126.17956052486018 L 259.3098020730675,121.11054598419717 L 255.71840602454483,117.12357409770753 L 254.9906935699586,116.0137574603573 L 254.4651234508249,114.91762464451078 L 254.42469465540267,113.75296465573926 L 254.8559318566248,112.61568946393395 L 256.89756984353926,110.8480802233127 L 257.2007832294796,109.17634569671948 L 256.6347845494484,108.21713557144555 L 256.10921443033,106.97014231969858 L 256.3315713980481,105.24349933292703 L 259.2963260424413,101.26931496839882 L 260.90672659360996,99.46030010803328 L 262.2947711151721,98.6380047260467 L 263.0696502632468,99.87144399329593 L 263.554791821453,102.4204819178395 L 264.4442182851338,103.05087453331505 L 265.7648817155135,103.05087453331505 L 267.4224489601537,102.9138327780543 L 268.8778741038667,102.4204819178395 L 269.94922873981386,101.59822191192566 L 270.1648471059078,99.91255834206679 L 269.84815745481814,98.59688985389394 L 269.80099123039395,97.28119619332898 L 270.5826082765038,96.06141584442216 L 272.9476740470694,95.07461155641126 L 274.85455032066534,94.78679105842875 L 279.75313376894155,95.08831713938746 L 281.24224910645154,94.78679105842875 L 286.39014158366876,92.22376388720464 L 287.67711458571097,91.01760057793385 L 289.11232533169675,88.57779586284313 L 290.48689335359956,86.90551989056199 L 300.4120838309096,80.62726787883275 L 305.4319527273682,78.77658151059964 L 308.0867558532622,77.46050712916391 L 312.8842680165422,74.04682186405641 L 315.47169028576224,73.08712049410553 L 317.5065901401162,72.75807668588 L 318.732920418059,73.08712049410553 L 319.9525125634425,73.03228004911199 L 320.77455840497345,72.92259878831352 L 322.007626815492,72.59355442535451 L 323.52369468328857,72.49758280422434 L 324.99933375566286,72.6895259114946 L 326.05721212647495,73.44358255096469 L 327.431780382902,77.72098231719615 L 328.2201357960965,78.77658151059964 L 329.2712757998244,79.47573544358963 L 330.706486780335,79.5031533237327 L 332.22929254618197,78.89996219213431 L 340.9348908781096,72.84033790596843 L 342.2218638801507,72.23708792804165 L 343.5492652085667,71.1676770216672 L 344.8025480168103,69.5498186428958 L 346.35230607840487,63.667620148132414 L 346.91830475843494,59.88299951168491 L 347.14066149161357,56.29015774453958 L 346.23102063022145,50.24223511413297 L 341.3796038754184,33.988337798867995 L 340.7622308921402,32.477494724748404 L 354.6062424174005,22.326798035508805 L 370.46768009176935,15.06831717079808 L 385.61488189425484,4.199708512963243 L 392.3799129121523,1.1254379984802494 L 399.8591805842796,0.0 L 412.6076260006928,0.05490018487322748" fill="none" stroke="#000000" stroke-width="0.8"/>
	<path d="M 265.1919346111907,65.62819519785309 L 274.1805318629291,63.74967791622728 L 340.01156342285105,33.02785516376501 L 340.7622308921402,32.477494724748404 L 341.3796038754184,33.988337798867995 L 346.23102063022145,50.24223511413297 L 347.14066149161357,56.29015774453958 L 346.91830475843494,59.88299951168491 L 346.35230607840487,63.667620148132414 L 344.8025480168103,69.5498186428958 L 343.5492652085667,71.1676770216672 L 342.2218638801507,72.23708792804165 L 340.9348908781096,72.84033790596843 L 332.22929254618197,78.89996219213431 L 330.706486780335,79.5031533237327 L 329.2712757998244,79.47573544358963 L 328.2201357960965,78.77658151059964 L 327.431780382902,77.72098231719615 L 326.05721212647495,73.44358255096469 L 324.99933375566286,72.6895259114946 L 323.52369468328857,72.49758280422434 L 322.007626815492,72.59355442535451 L 320.77455840497345,72.92259878831352 L 319.9525125634425,73.03228004911199 L 318.732920418059,73.08712049410553 L 317.5065901401162,72.75807668588 L 315.47169028576224,73.08712049410553 L 312.8842680165422,74.04682186405641 L 308.0867558532622,77.46050712916391 L 305.4319527273682,78.77658151059964 L 300.4120838309096,80.62726787883275 L 290.48689335359956,86.90551989056199 L 289.11232533169675,88.57779586284313 L 287.67711458571097,91.01760057793385 L 286.39014158366876,92.22376388720464 L 281.24224910645154,94.78679105842875 L 279.75313376894155,95.08831713938746 L 274.85455032066534,94.78679105842875 L 272.9476740470694,95.07461155641126 L 270.5826082765038,96.06141584442216 L 269.80099123039395,97.28119619332898 L 269.84815745481814,98.59688985389394 L 270.1648471059078,99.91255834206679 L 269.94922873981386,101.59822191192566 L 268.8778741038667,102.4204819178395 L 267.4224489601537,102.9138327780543 L 265.7648817155135,103.05087453331505 L 264.4442182851338,103.05087453331505 L 263.554791821453,102.4204819178395 L 263.0696502632468,99.87144399329593 L 262.2947711151721,98.6380047260467 L 260.90672659360996,99.46030010803328 L 259.2963260424413,101.26931496839882 L 256.3315713980481,105.24349933292703 L 256.10921443033,106.97014231969858 L 256.6347845494484,108.21713557144555 L 257.2007832294796,109.17634569671948 L 256.89756984353926,110.8480802233127 L 254.8559318566248,112.61568946393395 L 254.42469465540267,113.75296465573926 L 254.4651234508249,114.91762464451078 L 254.9906935699586,116.0137574603573 L 255.71840602454483,117.12357409770753 L 259.3098020730675,121.11054598419717 L 265.2932161879176,126.17956052486018 L 267.86716242652676,129.04270504906498 L 268.8576599406643,129.8783373339484 L 269.9627050049648,130.61806894511975 L 271.22272571124466,131.26190318800562 L 278.2235898705194,133.49472838372932 L 279.355586996057,134.26181735817207 L 280.2315371945879,135.26176037058022 L 280.87839276188924,136.3849663907945 L 281.04010677098375,138.4532619714877 L 280.73015501794396,141.27481117178382 L 277.61716262959135,152.13533991015035 L 277.5969484664047,153.7375701494809 L 277.95406644386816,155.18913142769986 L 278.1764231770468,156.9966941787541 L 278.1427327487245,159.18761669261832 L 276.0876187311839,166.91007220953145 L 276.12130892499664,168.5804208382538 L 276.3840942190728,169.81261967729642 L 277.1252829388099,171.8799266907979 L 266.68126047495605,177.54759659705624 L 266.41173728281484,177.8076960240858 L 266.5554652002851,178.01950465735612 L 264.624236257552,176.0253540668599 L 263.1174531904665,177.0278258696428 L 260.65566690320526,179.46388125006393 L 257.0372653180105,181.55494111960385 L 252.16674860834797,181.45793454001546 L 250.6175207972128,180.3908536222887 L 248.83484806742626,177.31886350028495 L 246.8187298974331,176.0253540668599 L 244.52672206473838,175.3462519166268 L 243.4443848732688,175.4324875028601 L 242.31960319854244,175.79898749958468 L 232.451235547117,176.54276074427116 L 229.08750164376346,175.58339932587148 L 227.23055080751075,172.40340082655302 L 225.45848893775735,172.40340082655302 L 223.60153810150572,176.76912492051866 L 218.762854754275,179.52855423527265 L 212.77816722991932,180.99445702407456 L 207.4938155046593,181.45793454001546 L 208.14109543890925,183.34414928440648 L 208.5337079520945,184.1417335968367 L 209.27648823444636,185.2195359679146 L 208.38515199994137,185.46742804561944 L 207.76970542812265,185.43509441479165 L 207.4407596398152,185.71531925309904 L 207.4938155046593,186.87931919691252 L 205.40341922818575,185.736875187971 L 203.93908090511937,184.5513003885149 L 204.00274789077366,185.77998650820888 L 204.86225076284688,189.35814365299353 L 204.37413790156026,192.64514619044974 L 202.1457967937444,196.0720881046974 L 198.3363947731381,199.55274319991776 L 194.7604379319766,201.0613332726414 L 175.44814850475638,201.3414962606821 L 172.92269549261738,202.20353004070807 L 167.72323299463324,204.60639339841802 L 165.64344783898576,205.12359103574775 L 164.2639987431936,205.99635339605172 L 162.60865946316207,207.9357872633417 L 160.42276309937952,209.8105229597948 L 157.4728639508328,210.5539389169108 L 154.94741067793146,209.64890990561048 L 152.65540284523783,207.7202972534867 L 148.55949951956666,203.15175486949045 L 142.19281086361357,204.60639339841802 L 133.84183740009917,203.04400269185643 L 126.58381224886455,199.9622208014541 L 123.49596800821205,196.9018572845755 L 118.1479495580737,185.2195359679146 L 115.64371852677921,183.77527723800523 L 108.66158329902325,182.69745281268152 L 105.66923940645685,181.45793454001546 L 103.440898559417,178.98961149668196 L 101.81739290259434,175.71275236230386 L 100.8305560592256,171.93986345201867 L 99.91799732230777,163.83285747028623 L 97.35009956615076,157.0727093700694 L 96.78770859839905,153.41742899796571 L 103.88656667666976,138.0394354133262 L 106.62424288739325,134.7175156016059 L 109.63780876080412,132.19361309853787 L 112.84237559117794,130.28444669016937 L 116.20610949453092,128.80669425752671 L 116.34405432587434,131.95631849778644 L 117.60678109272008,134.29687159334676 L 119.58045451869522,134.81458695477644 L 121.86185123057807,132.4309071538277 L 122.11651891242097,130.23051454308674 L 119.80328857732815,126.30415086973989 L 119.9094000462256,123.39159470251255 L 122.83807695313658,119.21671734118983 L 127.28414804795914,116.4872686430666 L 132.12283139518985,114.43741406695939 L 151.25473124704865,103.17291660401762 L 155.54163500811495,99.6766636257553 L 157.55775317812285,97.19464784369617 L 160.48643008503385,92.68362460217979 L 162.81027128016035,90.63306139322299 L 165.16594609850938,89.57537860037435 L 170.89596620179873,88.17230462997325 L 173.4956973204028,87.16854974664587 L 166.55600657588778,86.9095136622836 L 161.91893504565536,88.85225950444307 L 158.34297794371622,92.42460934674888 L 154.72457661929852,97.04356585139239 L 149.44022489403795,100.69102695229125 L 136.0383451454843,103.48584415801972 L 130.6054372072788,105.28784750583486 L 121.61779493032357,111.06041572592098 L 119.03928605335634,113.33694066656973 L 110.21081084936553,123.39159470251255 L 105.3190716372902,121.34194467019161 L 105.70107302966574,116.42253722509474 L 107.64291309320852,110.46699634609105 L 107.45191239702048,105.28784750583486 L 106.11490778448616,109.21540436928645 L 102.7723961227542,114.45899174436144 L 101.19133494918776,124.12513888395284 L 98.63404831384099,127.95454509375787 L 94.68670146189183,129.24894458440892 L 89.65701715769653,126.99451671140596 L 87.87434442790999,128.80669425752671 L 87.12095276397078,127.6633021258163 L 84.14983137381722,125.182292082042 L 83.61927402927438,128.69882789015725 L 81.56071137602447,130.27366031712842 L 78.32431118320413,130.6619694864019 L 74.36635294966764,130.61882421875677 L 73.7402952570376,131.6111612436939 L 72.20167882750556,133.50950531828178 L 70.62061765393966,134.65280120251325 L 69.9096707340343,133.42321802819836 L 69.46400261678207,132.36619062548093 L 68.36044318369147,131.48172659927752 L 66.89610486062452,130.85612338925768 L 61.86642055642977,129.92849443441315 L 59.40463426916857,128.11634644995738 L 57.919073704480596,125.49511997142595 L 57.44157196400422,122.48544133889024 L 55.8180663071963,121.1046129367235 L 49.578711361776406,114.00585804317068 L 49.41954402802071,112.35513118735193 L 47.60503767502474,111.3733074831208 L 42.09785189113124,106.71215228436076 L 39.646676724695546,105.28784750583486 L 38.41578358105758,105.55760455073522 L 34.4896589707447,107.04664375966532 L 32.51598528399303,106.92795343905131 L 30.987979975271767,105.65471680716495 L 28.568638432044406,101.51113953792726 L 27.16796683385578,99.6766636257553 L 17.45876625539367,92.12242377933674 L 14.540700730070002,90.63306139322299 L 10.657020602998607,90.63306139322299 L 7.707121454466606,91.88499142342465 L 5.011889726999335,93.4390797176294 L 1.924045747109732,94.42115918020025 L 0.0,92.0725609652313 L 5.951084489470312,87.96076337663942 L 15.532632684752373,85.65792621071121 L 50.880594963813564,88.01559196564617 L 55.6915832596461,87.82369171230799 L 69.30250287052782,84.43793921278765 L 82.44175672701985,84.32827652968601 L 90.33878519045953,81.1205618071649 L 111.22683023083319,69.87866361615986 L 129.2309770855038,60.14332765963002 L 131.96663720936337,59.56739095076138 L 134.7562017747908,60.07476405950715 L 140.38923586875245,62.29619091495244 L 142.53194504905312,62.66642149317532 L 143.7582753325103,62.17278018600805 L 144.89027277800784,61.29518644014468 L 146.65564930261948,60.52728302009311 L 166.35779219518116,57.11274847410384 L 175.61591269790338,57.93554350445789 L 191.92206377550366,63.379452967184854 L 196.93519457477154,64.29815541367388 L 217.634573156916,62.8309680648935 L 220.2212001019888,62.9831111585979 L 265.1919346111907,65.62819519785309" fill="none" stroke="#000000" stroke-width="0.8"/>
	<path d="M 274.2474075445199,231.91623420262493 L 273.52698930723085,232.2173415687488 L 256.6552641864126,235.30850051615786 L 254.10858867187548,236.8271047782509 L 251.61496876140706,239.08879588276014 L 239.1787033538235,245.5719165402751 L 234.19146379364733,246.84262574946666 L 239.5288711229749,225.35600007166173 L 244.33572136855088,216.43634844915053 L 250.6705766620574,216.0485124256138 L 252.1349149851249,217.01809892618334 L 254.1191997926863,217.66448260274436 L 256.5173190942921,217.9230345920346 L 259.2762175466371,217.78298561487208 L 259.2762175466371,215.9730995101654 L 254.36325609294133,215.6714473153537 L 248.28306822050004,210.48929452054503 L 243.27460641870286,210.5539389169108 L 239.09381412653235,213.66758271349357 L 237.99025469344284,218.2139043605493 L 237.4809195905352,223.22314119237112 L 229.03444577891884,239.70267125450707 L 226.34982543304,241.26426032557387 L 221.24586328315613,239.96114365090307 L 220.18474859408465,236.5901613741706 L 221.89314321740665,226.81018547074575 L 217.53196161065176,228.8783093693538 L 216.49206890242422,233.18670878675502 L 216.36473519189158,238.4210659750087 L 214.60328470374077,243.24581441444818 L 213.01161240936412,244.09657344172388 L 207.23914782281693,246.17496785642018 L 204.81980627959013,247.76872178700935 L 202.18824153777825,250.04083717390222 L 200.6602362290559,250.42848958069456 L 199.6203437816054,249.23322164761737 L 198.5804510733937,246.84262574946666 L 197.90133777669666,241.5765740671041 L 199.40812084379746,236.27782594417047 L 203.93908090511937,226.81018547074575 L 207.69542732165758,212.10539078914232 L 209.27648823444636,208.560704652341 L 210.33760318429495,207.51558111275952 L 211.9717199619131,206.38424445559033 L 213.83928191899133,205.50071203323319 L 215.5901212863319,205.12359103574775 L 216.60879149214662,204.1646175064018 L 218.3277974970554,197.7208407418273 L 225.07648780615997,187.56908759684248 L 227.23055080751075,185.2195359679146 L 230.92323023839464,183.01002354054674 L 236.4410271431,180.77888501156306 L 242.25593621288814,179.32375655425255 L 246.8187298974331,179.46388125006393 L 248.21940149562226,181.01601413609586 L 249.20623807821283,183.51660078188124 L 250.5750763139713,185.8446537040867 L 253.12175182850729,186.87931919691252 L 258.2999920848562,187.18109379979035 L 260.5707776759294,187.7846388740361 L 262.84156326698786,188.84083094713486 L 263.66923277661505,185.09020037202094 L 265.5686283569016,181.26392098054328 L 266.5554652002851,178.01950465735612 L 266.41173728281484,177.8076960240858 L 266.68126047495605,177.54759659705624 L 277.1252829388099,171.8799266907979 L 285.5007148854627,182.2292408566705 L 286.3362367576204,183.77603127154052 L 287.9803282061744,189.2511244149467 L 275.63616736677517,211.6945824786839 L 274.05945677488086,220.58789529565655 L 273.8573146739368,225.12989818624516 L 274.2474075445199,231.91623420262493" fill="none" stroke="#000000" stroke-width="0.8"/>
	<path d="M 146.7980490314153,214.3139967723714 L 151.35023159513477,212.71949783226816 L 156.39052675936375,212.89187788839254 L 165.64344783898576,214.3139967723714 L 169.11329321123566,213.786092370208 L 172.99697333830593,212.41783186243305 L 180.7749449740355,208.560704652341 L 179.77749700985706,207.50480659058644 L 179.80933037228831,207.32163893417905 L 180.31866547519596,206.90142915389478 L 184.07501189173416,206.79368266308273 L 187.502412780742,206.62128783218864 L 191.30120368053753,206.93375298986243 L 193.21121038163378,209.22871387593602 L 193.72054548454088,210.0260066375637 L 192.80798674762303,216.88882154080304 L 190.76003521518336,220.13146009593962 L 188.1603038358033,223.1046472101602 L 186.12296342417386,226.81018547074575 L 183.83095559147966,237.08558726263496 L 182.29233916194653,241.3288771735029 L 179.16205043803836,245.0550114274475 L 176.4880412129692,243.18119928967286 L 173.43203059552502,243.57965772736378 L 170.51396480942427,244.71040604393923 L 168.15828999107524,245.0550114274475 L 164.85822281259948,242.98735383160962 L 158.36420044611432,233.22979162873892 L 155.32941207030646,231.72188204299482 L 152.1460677423302,231.72188204299482 L 149.59939222779366,231.11870932296756 L 148.55949951956666,227.8011688097393 L 148.45338805066976,220.44386599916103 L 147.94405294776212,216.98577966798905 L 146.7980490314153,214.3139967723714" fill="none" stroke="#000000" stroke-width="0.8"/>
	<path d="M 308.4709724707181,207.20683020542012 L 307.5251074914873,207.5910029870688 L 305.90160183467884,208.560704652341 L 298.1979083054144,219.6035987570967 L 296.03323418325283,221.38107550686857 L 290.8125494436477,222.84611398662494 L 279.22517578731237,229.81540832017674 L 274.2474075445199,231.91623420262493 L 273.8573146739368,225.12989818624516 L 274.05945677488086,220.58789529565655 L 275.63616736677517,211.6945824786839 L 287.9803282061744,189.2511244149467 L 291.0326778704288,194.83528304637858 L 292.0433895477688,195.79330490733335 L 293.4718623957189,196.9155427670152 L 296.6791879364926,197.92827905886452 L 298.7747305149312,198.91363023871122 L 302.224627186595,203.0738498297016 L 303.6598379325808,204.36018447442115 L 308.4709724707181,207.20683020542012" fill="none" stroke="#000000" stroke-width="0.8"/>
	<path d="M 339.24351253409753,264.8359076684627 L 339.5601631098029,261.3142088965357 L 331.0818559357553,269.43167073017577 L 326.572118116055,271.71387017081935 L 321.9244352042341,268.5273830845891 L 323.1765508502702,266.24508332709206 L 323.1341061062369,260.66821799386224 L 323.5373297402476,257.535079976536 L 320.12054023282604,257.373574214702 L 318.01953283554224,258.4395049877254 L 316.491527526821,259.9899214137026 L 314.7937437635327,261.3142088965357 L 314.7300770386544,262.17552138884395 L 312.7457922310925,264.5117792582953 L 310.42195077518994,265.932876357264 L 309.3077802212744,264.0273081669462 L 308.4058328659586,259.60232035916346 L 306.98393902614845,255.30627004247992 L 306.9521054029248,250.86997991287367 L 311.7801778901224,243.67657972335317 L 313.89179614743983,237.81794959908277 L 315.68508025881425,235.1146338057475 L 325.47916980377516,225.16210641551305 L 328.35479084584205,223.1908247434496 L 329.967685381855,222.58758009227247 L 330.66802118094904,221.67193118362613 L 330.82718851469,218.6879115773587 L 331.4638573281303,216.0592856549149 L 332.9918626368516,213.75377138172573 L 336.33437429858463,210.5539389169108 L 337.9578799553925,210.5539389169108 L 338.6688268752974,212.26699853069775 L 339.4752741433036,213.01038883567665 L 340.4090551218424,213.47365729915356 L 341.512614554933,214.3139967723714 L 342.51006225834965,211.85759182210919 L 343.8046223876272,210.88793508856205 L 345.33262769634956,211.13573743077575 L 346.99857783641426,210.5539389169108 L 353.01509898399297,210.73709825063938 L 363.47769070482434,213.6029408791143 L 369.1864883057161,214.3139967723714 L 401.4019337601855,214.3139967723714 L 402.7601606143414,213.40901528880352 L 407.13195360269884,209.46574777092917 L 408.5326252008875,208.560704652341 L 415.37681559730163,206.92297837949698 L 419.70616384162525,203.13020450000823 L 423.1441758514434,198.9492981870031 L 427.29313478116677,196.0720881046974 L 433.2778220447454,196.0720881046974 L 434.3495481154042,200.0807533083896 L 432.56687512484007,205.45761244821367 L 429.95653288542627,209.55194179096983 L 428.01469282189765,214.55101373827853 L 428.2056935180852,221.1548536941943 L 429.95653288542627,227.65036798055291 L 432.63054211049547,232.2173415687488 L 437.67083753549986,234.50071918695394 L 444.281582491708,235.59929959927567 L 450.07526931987564,237.53792950249323 L 452.5582781095339,242.25504419809113 L 455.3277876827044,245.3134645803846 L 461.39736417355834,246.69186492497178 L 467.4563298043781,245.61499195311296 L 470.1940060151027,241.26426032557387 L 470.2426720847618,241.20872449451133 L 471.30998069853456,237.76937688119696 L 473.05514319756014,236.34686276813576 L 475.81775527197607,236.12801188514632 L 478.19629730769157,237.22225938704133 L 479.10593793456,239.09611916696363 L 479.5304367686827,241.1340575047671 L 480.9589096166181,243.50018133356795 L 481.9089788043982,245.78416950698403 L 482.670381687322,246.74150822164333 L 484.1055924333078,245.8799039990945 L 485.29823228291417,245.42858310146931 L 486.3695871534008,245.53799458186268 L 492.9998568355528,248.5193890666635 L 494.01730664546795,249.599772251119 L 493.1009281205491,251.71946425484063 L 486.4908726015843,259.45923031185737 L 486.8749428748095,260.85394082567944 L 495.12908984232735,260.0061786831713 L 488.9300571268738,271.3544283441267 L 477.1047285085431,288.7971938949884 L 473.587451214729,296.4100076380416 L 473.27076156365405,297.9270085800805 L 472.9136433516664,301.20690342692535 L 473.1292619522704,306.1128049171105 L 473.0484050650002,307.73892285199133 L 472.7249770468106,309.1873673394701 L 472.2802640495013,310.5264696984101 L 471.6738368085732,311.5376124440084 L 470.8383151709392,312.57606911006235 L 469.7467463717896,313.72381960096754 L 468.17003577991005,315.7050137406765 L 465.1446384114169,321.9898284032843 L 462.32138314385423,326.26592836657437 L 460.74467278649837,327.3588217119577 L 458.5008924641162,328.4107162032481 L 448.3870359164735,330.74668802690053 L 447.1068008124817,331.2111411106785 L 444.5800212673458,332.38592237654456 L 443.14481052135994,332.7820650600857 L 436.9592540710415,333.76558297319394 L 427.4720389275283,337.1121780867558 L 425.67970973503003,337.04388190828473 L 423.5976434217282,336.6477617859216 L 420.66657897113134,335.1998567756827 L 419.0898686137766,334.0524398137987 L 417.8635381012937,332.9459855010159 L 413.8072146577503,327.7959743799513 L 412.93800235725564,327.0309554538703 L 411.9677190063037,326.539153456797 L 409.8991289581522,325.71947586650856 L 405.5395918941295,322.5226466934457 L 400.8431507813221,320.1454273555022 L 399.54270151414374,319.68090441210137 L 394.78561767723755,321.25207342628136 L 381.9563152796167,331.96245669537126 L 379.55082118266364,333.6426439190316 L 379.500524335172,333.69351922921624 L 380.8375289477063,330.2515762525941 L 366.4912568390117,341.8459837182006 L 361.25996071781816,344.69590846190937 L 357.2595580010255,342.3191864363323 L 356.42127737058746,339.2110502506614 L 357.70522637905475,331.1551016104645 L 359.2544539294129,328.5735707271776 L 362.31046454685594,325.30350231339025 L 364.4114716833632,322.4205585287792 L 363.04263370838237,321.065105763255 L 358.585951492749,322.23768136999246 L 355.1797731061545,325.5616707554277 L 352.9726542399591,330.05796216408055 L 352.18742921358813,334.68304834326 L 350.5533124359547,337.7268426002512 L 346.79696601941595,339.6520049924925 L 342.55250700236877,341.13617411625484 L 339.5601631098029,342.8891763442839 L 337.119599064178,347.0510464771627 L 335.8038169540412,350.56748388432817 L 333.5330311022057,352.9654485785243 L 328.16379041043166,353.86869749831305 L 324.74700064224874,354.95473266332687 L 321.83954597695936,356.4493489463406 L 319.65364961317624,355.7181734609195 L 318.5076456968289,350.10508735676603 L 319.3034818440096,347.28763176841886 L 323.2189953335275,337.7375978082138 L 324.5135554628051,335.66180846212893 L 325.2987802283984,333.85485649791195 L 332.5992501236669,323.0229740422641 L 328.03645643912193,322.82934100202704 L 326.4235619031248,321.0113173130725 L 326.52967363281294,317.9453181592076 L 327.2618427943393,314.00774206766283 L 329.30979432677844,315.27725693809873 L 331.623024661886,315.4278757494063 L 333.97869948023504,314.36277819041715 L 336.33437429858463,312.0388751197425 L 336.5253749947721,313.72801573507064 L 337.9578799553925,317.622573732623 L 339.11449499255014,314.13684645479316 L 341.0457239352821,311.14587453125955 L 343.21039805744476,310.50032485764575 L 345.05673777288564,314.00774206766283 L 346.99857783641426,314.00774206766283 L 346.75452153615976,311.3933335551194 L 346.07540797870035,309.00478023915446 L 344.897570699907,306.80982494484954 L 343.29528728472013,304.80848472972457 L 344.5261804283428,304.6040436880759 L 344.71718112453027,304.3565617758865 L 344.6429030180652,303.90463603662323 L 345.05673777288564,303.011536212136 L 347.4548573352538,304.0445180477764 L 350.29864501489,304.6040436880759 L 353.97010220415234,304.80848472972457 L 358.3312840716848,305.91676049976434 L 359.76378903231995,305.0667253560884 L 357.70522637905475,301.20378283111233 L 358.5753403719393,299.1807681158367 L 359.4772879880316,295.78025540792214 L 361.25996071781816,295.78025540792214 L 363.3609681151019,298.67500563639646 L 367.00059194191886,298.1907616332008 L 370.01415781534337,298.2983716592201 L 370.1627140282741,303.011536212136 L 375.149953588435,301.2253041748265 L 375.01200849631556,297.64194806537535 L 371.9559978788719,293.57414213597434 L 368.21026284392053,290.3778499505053 L 367.1173145316407,291.06662489548455 L 366.1729224322916,291.38948596362803 L 363.04263370838237,292.1858706536483 L 363.04263370838237,290.3778499505053 L 368.7195979468276,288.40834773735975 L 371.4148294135336,286.91235135676976 L 373.8766157007784,284.7920740204922 L 375.80784464351154,288.0854732156958 L 379.0866893195739,291.8845369345822 L 383.3417597182095,293.96156178780336 L 388.12738746137217,292.1858706536483 L 384.9546542542067,291.70158366560645 L 384.7212090747777,289.92583757978565 L 385.2729886609263,287.4289578447642 L 384.56204174102146,284.7920740204922 L 382.4928679669607,283.7588200009595 L 380.29636022157615,283.79110932824176 L 378.4394093853234,283.016159406238 L 377.4313503003195,279.52878346251674 L 380.4130828112985,280.5190429057834 L 386.0900470497438,281.7245582279095 L 388.12738746137217,282.98386973537845 L 391.6821220609132,281.1756208141575 L 391.11973135393856,282.9085268498147 L 390.41939555484396,286.675572237008 L 389.75089311819534,288.40834773735975 L 396.20247100142427,292.9822466599929 L 398.1549224465544,292.59482155065837 L 400.5954864921799,288.40834773735975 L 399.2584816188679,286.0836208086098 L 395.926581338738,281.6384506150202 L 395.25807890207466,280.346824989904 L 395.96902582197947,278.5385102734287 L 397.77292105417996,276.4718099672564 L 400.0330955244276,274.77104387624433 L 402.1977696465897,273.952939592427 L 402.7601606143414,274.53422498192236 L 404.74444516112624,275.7828967171703 L 407.4927324926605,277.0100187755427 L 410.37896491632944,277.5589878923 L 412.03430393558386,278.4739266789568 L 412.95747379329777,280.75584230444304 L 413.30764156246386,283.6942410389304 L 413.20153009355226,286.6002331687315 L 418.2418255185583,284.7920740204922 L 417.7324904156507,283.8987405803466 L 417.1276549646569,282.02593393864737 L 416.6183198617493,281.1756208141575 L 420.5232222304417,281.40165435270904 L 423.218453957909,282.8547106442156 L 425.30884997360545,285.29793238751796 L 427.29313478116677,288.40834773735975 L 417.0003212541243,290.42089847578524 L 413.20153009355226,290.3778499505053 L 414.41120099555394,291.79844132012965 L 415.00542532573746,292.7992961405834 L 415.9816510483096,293.4772868359369 L 418.2418255185583,293.97232339343776 L 417.1276549646569,298.14771768428534 L 418.59199328772445,300.5151033689049 L 420.82033439554084,300.28912900100187 L 423.33517654763085,293.2620524349743 L 426.40179828588526,292.9607231554756 L 429.4790311449652,293.5849037986618 L 430.84786938070783,293.0898643518762 L 439.13517585856795,292.59482155065837 L 441.54390654176103,292.1858706536483 L 444.5468612943606,290.67918988776154 L 446.62664618924623,288.9572306684513 L 447.9742621833684,286.5356567247389 L 448.83376505544163,282.98386973537845 L 445.5655315001753,284.0494239602938 L 443.2098566818257,285.3409841757543 L 440.5252363359463,286.3419275785598 L 431.83470596331364,287.2782814517358 L 429.89286589977087,286.6325212370182 L 429.0758075109544,283.88797748874606 L 429.60636485549725,282.6932612597031 L 430.94336972880865,281.8214291375966 L 432.70482021696057,281.304782884358 L 434.57238217403767,281.1756208141575 L 433.55371196822296,278.78607970256195 L 433.4900452433452,277.36523459093235 L 434.57238217403767,273.952939592427 L 431.61187190468075,273.2640024502082 L 429.25619708633116,274.65263439333773 L 427.7388028984196,277.4944034277103 L 427.29313478116677,281.1756208141575 L 423.7171779400053,277.10689596422225 L 421.45700320898055,275.86901126371066 L 418.2418255185583,275.9120686309802 L 418.2418255185583,273.952939592427 L 420.09877635480996,272.91953155963887 L 423.90817837541624,268.5273830845891 L 423.90817837541624,266.71877420947396 L 421.9663383118877,263.1229530474442 L 420.1836655821011,263.1229530474442 L 416.6183198617493,272.14446574778407 L 413.4986422586514,272.8980018597437 L 409.57251764832324,270.65890015392506 L 405.9222827006961,270.3359470976405 L 408.63873666978435,266.2881464069019 L 412.33141610066826,264.50101329277817 L 415.49353818702406,262.4123804005207 L 416.6183198617493,257.535079976536 L 414.4218121163647,259.8284211386879 L 411.97063694992954,261.0881127635078 L 409.583128769134,261.0235138897116 L 407.54578835750453,259.3439184132054 L 405.9222827006961,259.3439184132054 L 405.68883752125237,262.0678579212768 L 404.9036124948814,263.7473898761014 L 403.2801068380587,264.6409712486655 L 400.5954864921799,264.91011991487306 L 401.37010013696244,268.7749869174095 L 399.44948231505543,269.8192191633858 L 396.786084210797,268.41972906093275 L 395.25807890207466,264.91011991487306 L 391.2788984269177,270.5943095518826 L 389.1142243047556,269.08718164195085 L 390.4087844340332,264.5871412365965 L 396.8603623172621,261.3142088965357 L 394.55774310298006,259.63462043822193 L 393.60273988282023,257.4812446745146 L 393.8680186854734,255.00478321587775 L 395.25807890207466,252.26980977783694 L 396.8603623172621,252.26980977783694 L 397.9957551127981,253.00201756582234 L 399.0038141978032,253.3250480269852 L 402.1977696465897,253.91726691452078 L 401.0517657302423,250.266968174369 L 398.7279242743398,247.85486969314672 L 393.4754061722881,245.0550114274475 L 391.6821220609132,245.0550114274475 L 390.9605640201976,249.36244070841653 L 389.17789129040995,252.80819854174962 L 387.7772196922213,256.4368343618449 L 388.12738746137217,261.3142088965357 L 385.4215448738717,262.4123804005207 L 383.1083145387647,265.7713896114285 L 380.8375289477063,266.71877420947396 L 379.2458566533296,265.83598424713756 L 379.9461924524247,263.38134122644686 L 382.6202016774939,259.3439184132054 L 379.5641910600497,257.99806070044883 L 379.02302259469616,254.746365084792 L 380.8375289477063,246.84262574946666 L 378.29085343316973,248.371754701088 L 376.65673665553686,250.6115469662639 L 375.7654001602542,253.43272452591526 L 375.48951023679143,256.70601383412435 L 374.43900666853017,256.9213565836513 L 368.9954876095286,256.83521950798047 L 366.60797942873415,257.535079976536 L 370.1627140282741,259.3439184132054 L 370.1627140282741,261.3142088965357 L 373.1550576600628,263.4028737535493 L 376.1686237942497,265.2546291286279 L 377.4313503003195,267.6230841573422 L 376.41268009450476,271.1648571305162 L 374.08883863860166,272.03681709308574 L 371.62705235134155,270.93879174539774 L 370.1627140282741,268.5273830845891 L 368.9105986430151,270.6158396707641 L 367.91315067883613,272.83341351544175 L 367.1491478940867,275.13703476119844 L 366.60797942873415,277.5589878923 L 364.6236946211717,267.34318002937044 L 363.0108003459511,263.7689220296914 L 361.7150023246244,264.1891975608922 L 361.6275311338751,263.7253191376649 L 358.75037150932667,262.57678139388696 L 353.93938308091055,261.6743463617108 L 352.537862763247,261.5786328263798 L 348.9060379193021,261.97515913141933 L 340.05220231247876,264.1081611602115 L 339.2975375621302,264.791802218887 L 339.24351253409753,264.8359076684627" fill="none" stroke="#000000" stroke-width="0.8"/>
	<path d="M 361.7150023246244,264.1891975608922 L 359.4772879880316,264.91011991487306 L 361.25996071781816,268.5273830845891 L 357.70522637905475,268.5273830845891 L 358.7238965848695,275.4922597327555 L 359.97601197012847,278.4739266789568 L 363.04263370838237,281.1756208141575 L 361.25996071781816,284.7920740204922 L 357.3444472283161,282.00440720023175 L 353.8427684936202,278.23712011601566 L 348.6220834932374,270.3359470976405 L 347.81563622523066,275.0078617338265 L 349.64075369905214,279.3996179749878 L 352.2829295616748,283.76958311164424 L 353.97010220415234,288.40834773735975 L 352.7392090605143,287.83793539663736 L 348.6220834932374,286.6002331687315 L 347.4548573352538,290.1626064143265 L 345.2477384690731,290.2056550665525 L 343.40139875363116,287.51505861436834 L 343.29528728472013,282.98386973537845 L 341.512614554933,282.98386973537845 L 340.4090551218424,285.40556167816453 L 339.6768859603013,288.09623595200424 L 339.36916267439193,290.99129062596415 L 339.5601631098029,293.97232339343776 L 337.2575441562974,292.8315814663017 L 336.33437429858463,292.1858706536483 L 336.33437429858463,297.43748701994537 L 333.6179203294816,295.6726416774157 L 332.5992501236669,293.3158609624224 L 331.8776920829513,290.5069957146504 L 329.9358520194085,287.50429605679494 L 328.471513696341,284.5660507410003 L 329.5856842502571,282.49952163156223 L 332.5992501236669,280.346824989904 L 333.88319913213417,276.3426393130573 L 336.55720835720336,272.2521142427868 L 339.00838352365327,267.4508356522109 L 339.24351253409753,264.8359076684627 L 339.2975375621302,264.791802218887 L 340.05220231247876,264.1081611602115 L 348.9060379193021,261.97515913141933 L 352.537862763247,261.5786328263798 L 353.93938308091055,261.6743463617108 L 358.75037150932667,262.57678139388696 L 361.6275311338751,263.7253191376649 L 361.7150023246244,264.1891975608922" fill="none" stroke="#000000" stroke-width="0.8"/>
	<path d="M 203.93908090511937,391.7523275093923 L 209.00059857176063,395.5568354903817 L 212.9903901677278,400.7151847557691 L 215.6219549095544,407.06591956437927 L 217.3834053977063,418.53028257450495 L 219.21913399233748,421.04426040729743 L 221.05486258696862,422.93506112576915 L 221.89314321740665,425.19106864230423 L 220.55613860487233,428.62866600951185 L 217.43646126255038,430.28295463096043 L 213.88172666301045,430.5407627533245 L 211.22893967957648,429.7888201638698 L 209.15976564472396,431.05637612578107 L 206.4220894340005,430.91673101028186 L 199.54606567514034,429.7888201638698 L 198.94123022414712,430.3903747216068 L 197.31772456732392,431.4860512359793 L 195.65177442725926,431.93720745045727 L 194.86654940088823,430.6696663564617 L 194.8028824152339,428.54272791507435 L 194.90899388413027,427.1462211863829 L 195.7260522729478,426.40498771859194 L 197.69972595969838,426.1793936103159 L 200.40556854721407,425.47037902635736 L 207.72726068410356,422.0541256784974 L 209.27648823444636,420.76493381011505 L 208.08803983484225,417.7997093432599 L 205.14875180712048,416.81127543489526 L 202.50657594449783,418.2509464932515 L 202.1457967937444,422.56979637309394 L 200.24640147423545,420.7971637934364 L 198.5804510733937,418.7988740243125 L 200.89368140848543,414.8773462779365 L 202.0927411896774,411.7722123898223 L 202.37924223396575,408.6132260868193 L 202.1457967937444,404.55147922788484 L 200.74512545633178,398.6089014209961 L 201.137737969517,395.19143921028314 L 203.93908090511937,391.7523275093923" fill="none" stroke="#000000" stroke-width="0.8"/>
	<path d="M 196.79777834360607,402.5849997420757 L 197.34955792977044,410.3431634444336 L 196.61738876822935,413.9533404356393 L 194.06010213288258,417.89640328116525 L 188.5316941073675,424.6109587057077 L 185.50751685236932,426.5016707414698 L 184.19173448145656,423.3862678618753 L 183.30039798617395,419.21787461460315 L 181.78300405903946,415.96250144378 L 181.49650301476584,412.55656599159755 L 184.19173448145656,407.97926407472715 L 178.2282694594995,408.00075434544914 L 175.32081479422374,405.4003807766053 L 175.09798073558972,401.4459224344792 L 177.2095992536848,397.3300579593289 L 180.9553342886357,394.3316760362307 L 194.86654940088823,389.9467309495606 L 195.92766408994498,392.13923520945207 L 196.50066617850695,395.6857987100038 L 196.79777834360607,402.5849997420757" fill="none" stroke="#000000" stroke-width="0.8"/>
	<path d="M 177.2095992536848,413.3946336328276 L 173.4956973204028,413.3946336328276 L 173.4956973204028,415.3715771369638 L 176.0529839557501,420.46411918298486 L 175.0237026291246,425.2770105093612 L 173.72914276062414,429.2087454205616 L 175.44814850475638,431.57198602107724 L 170.10013005461803,435.0952272506174 L 165.48428076600607,435.29931248212296 L 160.8684312166323,434.9770724359384 L 155.54163500811495,436.9856800201497 L 154.66090963364312,434.6870551555173 L 154.34257522692351,432.52800343191103 L 154.62907627121186,430.32592257972834 L 155.54163500811495,427.82299294150243 L 153.8969071096713,427.82299294150243 L 150.51195096469675,433.39807625774085 L 152.1460677423302,436.9856800201497 L 148.86722280547656,435.99749446465984 L 148.00771993341698,435.2670883537439 L 146.7980490314153,433.39807625774085 L 140.81336150706016,434.1714662542004 L 134.38300586545276,429.9606934532026 L 128.74848637102608,423.3432960073675 L 125.27864099877621,416.9939218381535 L 128.68481938537178,413.512821881736 L 132.95050090481706,410.4183770227004 L 137.37534975801915,408.817382235342 L 141.28025212671048,409.7844300887824 L 137.71490640635977,411.2887025291306 L 136.10201187036208,411.5895534415159 L 136.33545704979107,412.74996707747016 L 136.61134697326972,413.577288241884 L 137.07823759292003,414.3508792430604 L 137.88468486092572,415.3715771369638 L 140.20852605605168,413.061556621789 L 143.1690365861857,411.71848910659463 L 145.69448959830999,409.7092158824594 L 147.75305251235224,400.7474235140745 L 149.9495599969456,399.16771691984866 L 152.3370684385177,398.2220265915568 L 153.8969071096713,395.3633907764218 L 155.23391172220616,396.73898842573243 L 159.25553668061934,398.97428144584586 L 159.94526135890368,392.49389918874533 L 163.8926084716294,389.6565417281323 L 169.10268209042485,390.17243281727565 L 173.4956973204028,393.71908872418294 L 175.19348108369164,395.7287862248878 L 174.4294782989422,397.2333378016513 L 172.79536152130876,398.97428144584586 L 171.8615805427699,401.66084418722824 L 172.30724892079868,405.5830546238572 L 173.45325283714658,408.0329897401383 L 177.2095992536848,413.3946336328276" fill="none" stroke="#000000" stroke-width="0.8"/>
	<path d="M 227.23055080751075,364.6960826072408 L 233.98985197664905,364.6208233752455 L 235.379912454028,367.34086582917047 L 232.58918037845987,377.1558502342308 L 232.32390183658435,388.11959524040594 L 229.9894492598558,391.5588727833443 L 223.51664887422984,391.7523275093923 L 217.06507099098673,387.01254464841884 L 216.95895952208926,378.95100410433696 L 221.05486258696862,370.5338331508036 L 227.23055080751075,364.6960826072408" fill="none" stroke="#000000" stroke-width="0.8"/>
	<path d="M 279.0341750911243,364.6960826072408 L 278.22772782311864,369.46952592402306 L 279.54351019403197,378.16630151710496 L 279.0341750911243,382.8958926276388 L 277.72900384102235,383.9277638781924 L 276.13733180742224,380.95034683392635 L 273.7179900034189,377.5213342836894 L 269.97225470769035,377.1558502342308 L 269.97225470769035,379.13374198415534 L 271.9247058920439,379.13374198415534 L 271.9247058920439,380.93959785005876 L 269.9510324660693,384.4974365984455 L 268.5503608678796,386.3139119342882 L 266.57668744190556,387.99061935303905 L 265.1229602396489,385.90547752425715 L 264.41201331974406,385.23907965868756 L 261.2074464893702,386.3354083652147 L 262.62934032917985,389.14064710934304 L 262.8946191318325,392.97752881777865 L 262.3216170432705,397.1043772228511 L 261.2074464893702,400.7796619945373 L 260.6768891448263,399.6513041010618 L 259.83860851438885,398.39397126322837 L 259.2762175466371,397.3300579593289 L 257.7057677546727,397.4697645178871 L 257.1009323036648,397.6524575031496 L 256.6658753072223,397.6524575031496 L 255.71087182628642,397.3300579593289 L 254.10858867187548,397.3300579593289 L 251.5513017757522,400.29608202501703 L 249.07890436768076,398.93129551235717 L 247.32806500033965,395.3633907764218 L 246.8187298974331,391.7523275093923 L 248.63323625042798,390.04346044189026 L 251.6255798822173,387.99061935303905 L 252.67608371125507,386.0452052375249 L 248.6014028879962,384.5511792248986 L 248.6014028879962,382.8958926276388 L 254.10858867187548,377.1558502342308 L 254.35264497213055,376.0163889315876 L 253.85392099003369,372.8774061343993 L 254.10858867187548,371.7593804493029 L 255.35009293632424,371.458370674924 L 257.1009323036648,371.78088104461307 L 258.6289376123866,371.86688362833763 L 259.2762175466371,370.94235114391347 L 262.05633850139446,365.66369720017815 L 268.3169156884359,363.8682247753775 L 274.9913278910754,364.08325364426605 L 279.0341750911243,364.6960826072408" fill="none" stroke="#000000" stroke-width="0.8"/>
	<path d="M 144.85620896787253,386.3354083652147 L 127.7616495276579,387.78640696988094 L 124.38730450349468,387.15227030808904 L 117.40516927572236,383.79878054756637 L 116.20610949453092,383.72354047745756 L 116.51383278044027,380.56338138970557 L 117.49005824222115,377.9728118757792 L 119.2515089911643,376.18838428845436 L 121.86185123057807,375.5326500425266 L 121.50107234060226,371.04985549486634 L 125.10886254421028,366.87857294500054 L 130.15976909002603,364.3197848971612 L 134.16017180681874,364.6960826072408 L 136.10201187036208,362.7285613380601 L 138.45768668871057,365.82496490589585 L 141.40758583724366,366.12599732591264 L 144.80315336380497,365.6314434059277 L 148.55949951956666,366.3410197037412 L 149.69489257588032,368.2546919663689 L 150.4482839790419,371.6948783621998 L 150.745396144141,375.1564067635791 L 150.51195096469675,377.1558502342308 L 147.43471784485504,378.43503609776843 L 144.88804233031905,380.04742445355106 L 143.7208161723354,382.5304347117291 L 144.85620896787253,386.3354083652147" fill="none" stroke="#000000" stroke-width="0.8"/>
	<path d="M 277.25150236133777,314.00774206766283 L 277.79267082667667,314.6102263876197 L 278.2701725671525,315.33104931167685 L 279.14028656002233,315.79366342317945 L 280.8168480816885,315.65380352053785 L 280.6258473855021,316.89101500827496 L 280.33934634121266,317.68712278397624 L 279.0341750911243,319.42992314352966 L 280.5409581582109,321.51692603216156 L 279.2570091497436,323.64689915270765 L 273.52698930723085,328.2938996561817 L 272.2536516803508,325.81983855905173 L 271.9247058920439,324.8301908055268 L 269.97225470769035,324.8301908055268 L 266.97991107590104,327.6915271529575 L 262.75667403971306,327.6915271529575 L 259.0427723672076,325.7983246759912 L 257.66332301064,323.0229740422641 L 258.9472720191068,320.624040159209 L 261.080112778837,320.365854435802 L 263.26600914262013,320.95752908802615 L 264.624236257552,321.065105763255 L 266.57668744190556,319.0856696449107 L 268.06224826737065,316.9340482311555 L 269.1658074396989,314.58870923210947 L 269.97225470769035,312.0388751197425 L 271.9247058920439,314.00774206766283 L 273.27232188616557,312.8780707313096 L 277.25150236133777,310.23134439531077 L 278.5566736114261,311.2965018049257 L 278.60972921549313,312.04963407134187 L 277.25150236133777,314.00774206766283" fill="none" stroke="#000000" stroke-width="0.8"/>
	<path d="M 123.49596800821205,326.48676741123006 L 118.0206158475416,326.55130870427524 L 114.90093824444313,326.09951899719454 L 111.17642519033618,324.8301908055268 L 114.32793615588118,322.70025211427105 L 119.07111941578759,320.23676123494363 L 123.36863429767996,317.1061800779399 L 125.27864099877621,313.0179359115441 L 128.23915126811846,310.42501057553767 L 134.93478571237898,308.47756658534183 L 142.21403310524988,307.649080299582 L 146.7980490314153,308.42376893136344 L 148.07138691907184,311.0705606464377 L 147.14821706134325,313.5773931789274 L 139.4126901696475,321.78586551757815 L 137.88468486092572,323.0229740422641 L 136.99334836564415,324.1847613469822 L 136.35667955220444,325.6907549022617 L 135.56084340500846,327.1752039932062 L 134.16017180681874,328.2938996561817 L 131.94244181981313,328.3799525078153 L 123.49596800821205,326.48676741123006" fill="none" stroke="#000000" stroke-width="0.8"/>
	<path d="M 118.10550481403986,313.72801573507064 L 116.49261053881925,314.3520195772598 L 113.81860105297355,314.36277819041715 L 111.17642519033618,315.65380352053785 L 109.97736566992127,316.07338190231854 L 109.12847365789649,317.1276967618447 L 108.120414572892,317.68712278397624 L 106.56057590173894,316.63281620035247 L 103.16500863593943,312.7597232463379 L 102.12511618850314,312.0388751197425 L 101.53089185832073,312.2002597572262 L 87.87434442790999,312.0388751197425 L 85.51866960956096,314.13684645479316 L 83.42827333308743,315.38484191033064 L 80.5844856534665,315.65380352053785 L 81.39093292145799,313.84636166169 L 82.52632571699456,312.0388751197425 L 80.87098669774012,308.7357940353417 L 81.22115446690623,307.98262779233704 L 82.52632571699456,306.61614922852095 L 79.9265945983905,305.1420454005404 L 78.80181292367887,304.80848472972457 L 88.47917987891846,299.9340247872191 L 99.23888376484948,299.7080486260239 L 109.12847365789649,298.40598152698055 L 116.20610949453092,290.3778499505053 L 117.42639151734338,290.7437623995924 L 117.65983669678818,290.8944319007167 L 117.63861445516662,291.2172937303046 L 118.1479495580737,292.1858706536483 L 120.0897896216023,292.2073943864697 L 122.03162968514509,291.9275848359921 L 123.78246905248567,291.32491402290185 L 125.27864099877621,290.3778499505053 L 126.23364421893663,291.1527213728082 L 126.7005348385864,291.95987054704347 L 127.04009148692701,293.97232339343776 L 126.19119973567932,298.7503322521293 L 124.19630380730717,302.6672057866121 L 119.9094000462256,308.42376893136344 L 118.88011871960009,310.7370271777727 L 118.62545129853481,312.2970903167781 L 118.10550481403986,313.72801573507064" fill="none" stroke="#000000" stroke-width="0.8"/>
	<path d="M 184.19173448145656,309.32756222448853 L 184.97695950782648,304.93760528879346 L 186.99307767783438,299.2453331183945 L 189.61403103806,294.2844100609479 L 192.27742940309494,292.1858706536483 L 196.50066617850695,290.4747093611657 L 202.41107559639698,284.3077379408616 L 205.71114251409512,284.7920740204922 L 206.02947718159234,288.9895176933073 L 207.9819283659459,291.7338697410412 L 210.18904697134948,291.90606075622594 L 211.22893967957648,288.40834773735975 L 214.45472849079533,291.79844132012965 L 213.6164478603573,298.8687023405414 L 216.55573588807908,301.20378283111233 L 213.32994681608426,306.54083069756695 L 212.53411066888827,312.9749003981087 L 213.74378157088995,319.45143888420876 L 216.55573588807908,324.8301908055268 L 211.39871787335116,326.65887722440846 L 204.6394167042134,330.48821488815304 L 198.9093968617006,331.91878738293417 L 196.79777834360607,326.48676741123006 L 194.86654940088823,326.48676741123006 L 194.5163816317221,327.7237971480218 L 193.75237884697268,329.02534530463555 L 193.24304374406503,330.2515762525941 L 192.41537423443782,329.2727443032008 L 190.51597865415232,327.476392963651 L 189.67769802371433,326.48676741123006 L 188.1496927149925,329.36955243904214 L 185.82585125908946,331.49929909515265 L 183.2155090196757,332.91909613164756 L 180.7749449740355,333.69351922921624 L 178.28132506356653,330.24081995702005 L 169.30429390742205,323.9158306077301 L 168.15828999107524,321.065105763255 L 177.2095992536848,315.65380352053785 L 183.10939755076407,309.29528416911853 L 184.19173448145656,309.32756222448853" fill="none" stroke="#000000" stroke-width="0.8"/>
	<path d="M 327.2618427943393,277.5589878923 L 327.1451202046169,281.1756208141575 L 324.2801100225837,284.2216333824511 L 323.5373297402476,287.50429605679494 L 325.03350168652236,290.44242272889323 L 327.48467685297334,293.1221495491987 L 327.73934427403753,295.048478864084 L 322.74149359305164,295.78025540792214 L 319.4626489169882,295.30675365026525 L 317.20247444672583,293.63871208834956 L 314.7937437635327,293.97232339343776 L 314.4011312503469,294.7041109748772 L 309.3077802212744,299.3959850985231 L 308.0026092319626,299.7080486260239 L 302.17708878057186,299.3959850985231 L 302.17708878057186,301.20378283111233 L 307.72671930848503,303.2482624247518 L 306.7292713443066,307.3800891284729 L 303.05781415504373,309.76869528373277 L 300.57480562616206,306.61614922852095 L 297.6249064776295,307.42312791960336 L 294.09139411971006,307.0572985804771 L 291.1308838503673,306.22879626222175 L 289.85754622348725,305.712322547331 L 288.6054305774523,306.6053894809005 L 286.37708946963534,304.8730450376742 L 285.6767536705413,302.43047743264276 L 288.9025427425514,301.20378283111233 L 292.34055475237005,299.28837668626574 L 294.7280629331498,295.30675365026525 L 298.0069078700045,292.03520408177866 L 304.1189291048923,292.1858706536483 L 304.62826420779936,288.16081074954815 L 307.23860644721316,285.24411794710375 L 310.46439551920855,282.6502081711289 L 312.86251482081485,279.52878346251674 L 317.26614143238015,280.6912606785943 L 321.2028771635185,279.50725572084 L 324.55599994606126,277.87114484395715 L 327.2618427943393,277.5589878923" fill="none" stroke="#000000" stroke-width="0.8"/>
</svg>
