<?xml version="1.0" ?>
<svg xmlns="http://www.w3.org/2000/svg" xmlns:ev="http://www.w3.org/2001/xml-events" xmlns:xlink="http://www.w3.org/1999/xlink" baseProfile="full" height="600px" version="1.1" viewBox="-80.59858568547561 -120.3157227805939 961.1971713709513 1437.8028165123708" width="402px">
	<defs/>
	<path d="M 665.4554247603328,839.6918067347173 L 669.5013089680563,847.9694934626095 L 670.0059930776127,850.2418048398476 L 669.627480076827,855.8659487897521 L 669.3919606846359,856.8786082179269 L 668.046136609524,858.9039079427554 L 668.4078267849526,860.2513037409379 L 669.4256064981092,861.5819507312001 L 670.0059930776127,863.5151351937614 L 669.7957080048307,865.4399279522514 L 668.9209223885609,868.7706021283668 L 668.7863397857396,870.7539106934844 L 669.1564416179834,872.536357729904 L 670.9060131760777,876.2769228262246 L 670.4517973798213,878.235037213919 L 669.4003721787014,879.5236982632582 L 669.0975616478615,880.5864175207747 L 670.9060131760777,881.9001636657695 L 672.537824956682,882.1679324980274 L 674.1528142374733,881.6491301681162 L 675.574340945301,880.7119351966047 L 676.6762346224825,879.6994239742068 L 676.9790451533225,880.1847607117894 L 677.0126906412544,880.3270142621686 L 677.1220389246871,880.4106929073682 L 677.6771915102916,880.7035674300514 L 675.195827944514,885.448063589873 L 676.6762346224825,888.4018003869968 L 679.4856428757392,890.9705892119333 L 681.0081065356903,894.568501877206 L 681.1847457949855,895.8152027395404 L 681.9585947846825,897.865127589451 L 682.1268228754549,899.0867038500901 L 681.5969046092581,899.7476901334603 L 679.3174147849669,899.6305536736679 L 678.795907850048,900.1995022143934 L 679.0818955555458,902.1573404933639 L 679.5529340143894,903.5713211207442 L 679.6538709665115,904.8430572867752 L 678.795907850048,906.3323154845712 L 677.4669064375096,908.4406817482825 L 679.5445226830965,909.6287184832069 L 684.9530539540726,910.1976345440872 L 685.7353142750532,912.5987751240611 L 683.9605085603101,914.8743907241433 L 681.4202651871889,916.8822627676695 L 679.9062128585074,918.4885442003576 L 682.0679430681016,926.8627285944129 L 682.7324437743702,928.5358461840609 L 684.0362110302518,929.2218201174094 L 684.5577179651572,930.7443383688543 L 685.2810986415531,932.2584786159864 L 687.2325437783638,932.9528038638522 L 688.7550074383096,932.6098242933335 L 692.0186313250526,931.0956867542895 L 693.9448423052121,930.7443383688543 L 695.0803814703379,931.806747505137 L 692.2709733798513,937.6373414741136 L 693.3476327375911,940.6905929683963 L 693.8859623350847,940.3225323826535 L 699.4543103655418,939.4860284132304 L 701.0272425015669,940.2472471561268 L 700.657140669304,942.0038942566787 L 699.5384243295476,944.0532952857918 L 698.8991579427045,945.6593410760361 L 699.7487094023352,947.7756205073784 L 703.954410206779,952.1921282928972 L 705.5693993247867,955.1615042630119 L 706.545121893188,961.5350549685159 L 707.8404778177822,962.4885605516505 L 711.2218613192509,960.5899088750087 L 712.3237548336583,962.6558418262199 L 711.8863620255195,964.5628376771614 L 711.1125130358319,966.6789128425372 L 711.2218613192509,969.430613267554 L 712.0125329715215,970.8942685821702 L 716.1257083178953,975.6531662664294 L 716.420107354675,976.8324190495829 L 715.5621445637679,982.2853300952718 L 716.61356976487,983.7907096337348 L 718.9098824145033,983.0045683741696 L 722.2323861086187,980.5792200182539 L 723.5866216777921,982.0762486952427 L 723.3679252737307,983.840888996839 L 722.5688419646355,985.6306035553896 L 722.2323861086187,987.2028636065379 L 722.7580985464003,989.4274243715194 L 723.5277418704525,990.8491239925195 L 726.22359617463,993.3328938882673 L 727.0100621612759,994.9050969695462 L 726.7198687901275,996.5860035740207 L 725.6726494174392,998.9108181360131 L 726.9133310375526,1001.8460697867026 L 732.7382267884382,1006.8969523617167 L 734.5550894851787,1010.509433551618 L 734.4667698555209,1016.3377816171314 L 735.1649160497213,1017.7843928905409 L 736.674762712744,1018.5369615996171 L 740.4304535493383,1019.2309949977904 L 741.8814204050024,1020.0002825894796 L 743.9464193281046,1023.1443005627721 L 745.5487912864152,1030.2767158582167 L 746.7852674036521,1033.8052164912806 L 747.9712752075947,1038.6296460668405 L 763.6417164349077,1060.6853650982557 L 768.0997592941176,1062.5037473783382 L 784.0561882269149,1062.7629181641505 L 790.1923056771633,1065.939828195835 L 791.1007371069198,1067.3192639359174 L 792.2573047630218,1068.4269874031565 L 793.6283631575551,1069.2462819090138 L 797.0433923097434,1070.3372772524967 L 798.4733306744052,1071.4826082470652 L 799.4658760681527,1073.0501155933282 L 800.0000000000001,1074.9269325064722 L 792.4002986971592,1077.7734826691023 L 787.4501887253118,1080.5823840436306 L 784.855271373251,1080.7746589895144 L 782.3739078074733,1079.5583087355958 L 780.0439496698946,1077.6815240590151 L 777.4700608088291,1076.0680639860468 L 774.3241963740237,1075.6960474398825 L 771.5820795849546,1076.7953763740327 L 769.4245550410245,1078.4464511335461 L 767.0988024063031,1079.7004256418404 L 763.8183556942042,1079.58338812838 L 760.5547319702148,1079.0483595052783 L 758.359356109935,1079.5583087355958 L 751.3610698775861,1085.0464719817305 L 749.3928019154359,1085.9409528360052 L 747.1553690731408,1085.932593284673 L 735.5728690355666,1083.9806148490393 L 733.4447844767042,1083.2449620452205 L 730.8204271395756,1081.1341290673524 L 729.7437676190481,1079.58338812838 L 728.3642977304479,1078.7306860279173 L 724.8483319516803,1078.7056063951518 L 719.422977855358,1079.29915444417 L 716.7565635362332,1079.2573553575844 L 713.8378071623125,1078.6554474462694 L 709.5564037251665,1076.4191805827782 L 706.545121893188,1073.8819359325773 L 704.6189109130489,1070.5462795317612 L 703.6011313626337,1065.939828195835 L 698.6468157251522,1062.0104864015332 L 690.765332382475,1065.1247036615346 L 676.8444627132549,1073.806696004581 L 673.5556046698578,1073.2089559539158 L 667.6676234459696,1069.5514266615423 L 663.663796383015,1069.179400740652 L 660.0721278087739,1070.5211992992674 L 657.683289701054,1072.7157150034627 L 655.6309076121374,1075.2446105948084 L 653.0654302451335,1077.581205613398 L 649.6419897616687,1079.3493132749354 L 647.3709112686731,1080.1727544115063 L 645.7475106565863,1081.6106353755388 L 641.7100379429147,1092.365248376375 L 640.0025235296097,1095.2910344477766 L 629.1770494935998,1108.9080923753302 L 624.3152593141654,1112.5609363464473 L 616.711352182904,1114.4792887531255 L 611.7149797262003,1114.6297472981678 L 597.9539264909142,1112.1262752202992 L 592.141648062527,1111.833714577167 L 586.9434017015478,1113.212926637647 L 573.8047923533219,1118.984653633069 L 568.2869127989267,1122.3322900230273 L 565.5447958470847,1123.3144238653488 L 562.8110903892963,1123.180686660268 L 557.9072432278779,1121.212235995741 L 555.3249430355345,1120.8528145576686 L 554.3492204671277,1122.0313804250911 L 554.5510940458319,1124.5891036746139 L 555.5015822948295,1129.5206042011775 L 555.0053096793183,1132.3164809821467 L 553.9286503215772,1135.2836787666506 L 551.0687737550085,1140.5075544741528 L 548.4528277491795,1143.6334833872927 L 541.6311811016672,1144.9039063082762 L 533.9347485123492,1144.6531651538435 L 528.6944453321453,1143.2740865291373 L 527.5673174983289,1141.9326138584122 L 526.3728983630893,1138.4054765494243 L 525.1111882519684,1136.8466707416678 L 522.4027169508353,1135.4257692036808 L 520.6952023747425,1135.7015917108893 L 519.1979728714305,1136.6627899393902 L 517.1287681199268,1137.2938357354371 L 514.0501949865444,1137.1893580846308 L 510.4753492376494,1136.6042823167427 L 506.9846176155317,1135.5929344700405 L 504.18362085633936,1134.2012815473483 L 503.02284737180184,1132.9726100934543 L 501.4246810791404,1130.3648027749475 L 500.7181233908743,1129.988675064324 L 498.85920371214047,1131.2549699762847 L 497.74889870366604,1133.3905261021655 L 496.8488786052009,1135.7684578370095 L 495.6881052834525,1137.7368209059573 L 494.24134409343486,1138.6980129976569 L 490.52350473595897,1140.3403916417233 L 489.36273125142554,1141.385157637331 L 489.12721185924664,1142.9899120078073 L 490.06928893969155,1146.4041693438105 L 489.9935863069894,1147.9462158588851 L 485.58601176106725,1150.8840255633602 L 483.4745486803727,1151.2438508176122 L 471.68196491719203,1153.2534787685454 L 471.214000854584,1153.835521012027 L 471.1732065055372,1153.7341845114045 L 471.14797239257564,1153.6715006396194 L 472.55688210731785,1144.1350971258612 L 473.8942949247053,1140.4449989897978 L 479.61404803026016,1132.2873573701129 L 486.6501854281437,1125.211944738223 L 488.4796654975666,1122.6124335999543 L 496.6976048616671,1103.437233594483 L 503.47719451739897,1093.3476106252913 L 509.407232727107,1082.1248902731986 L 535.3059383607555,1010.2085263322014 L 546.4846912418038,988.7041571462921 L 548.5244561226124,983.1552368757247 L 549.235219654597,980.090095844088 L 549.5842928191636,976.7489150082725 L 549.630555457173,971.9649517915805 L 547.8599553750126,951.1466933347624 L 547.9230409501725,948.7586001744556 L 548.2468798553937,946.4875838496057 L 548.5875416977722,945.2537791187227 L 551.1446077971802,940.418860879138 L 563.8878812441509,923.3492624845929 L 564.4556508350573,922.1445850083512 L 563.9257325599667,919.0157329734714 L 553.6890568401205,894.9493375015962 L 536.5340031113548,870.5406487600125 L 534.7844315542422,865.5906935310899 L 533.8507658616296,860.9167593068058 L 533.4386072682856,856.5063153084982 L 534.2545132791585,849.1036916911135 L 534.2292790198213,846.0864681344698 L 528.6272855960076,824.4494496071651 L 528.6651369118302,820.7160195927918 L 528.2109211219919,817.0955078165044 L 527.3319296823402,814.7180601288725 L 522.1126550046278,804.1237190430919 L 506.95530910656936,781.7478860123754 L 505.67257039577265,779.1479567399972 L 504.4066544757331,775.6771221737167 L 499.29672786480614,754.8293304268527 L 498.97709469386473,752.0027603448441 L 498.96027190309803,749.8754648484854 L 500.12525107854833,745.2480609111426 L 500.2640391389603,743.0117731153385 L 500.1631023943615,741.6758452221824 L 493.56856343706465,719.1514522245743 L 483.68096073539436,705.5544719244612 L 481.27529989925944,700.9254636394812 L 481.88933227455766,697.4693035207887 L 488.4123741881283,679.8183171004738 L 491.29748492705505,669.1083124765922 L 505.18470917078326,644.910824360301 L 506.95530910656936,638.8082637702503 L 534.2166619633358,638.2172704660492 L 539.2172402147097,637.2071254701101 L 542.1359965351685,635.6101561953925 L 548.5749244949029,617.2454650710412 L 551.0058195903845,607.1249253723093 L 553.6175597963806,600.4500524684855 L 557.730735285908,594.8104690069358 L 573.6493129418769,577.0679401824402 L 581.6695844046841,556.1512856435264 L 585.017322255636,550.1904956357512 L 590.3080938306978,543.2267072408813 L 594.2151899503613,533.0192690689264 L 596.7848732526386,528.5130630137098 L 601.974707936726,523.0793285368519 L 602.9588420016481,520.649785473978 L 603.6822224437346,517.1207562132552 L 604.9817840916832,501.57219615825136 L 613.7086132058196,465.34530258899713 L 616.7241006829635,457.9050786362634 L 617.0142940066594,456.64538706293354 L 616.9554143121741,455.2051185507063 L 616.7577464108806,453.79422111945 L 614.2511486837631,451.42587970883216 L 612.0641842739708,450.9345669868059 L 609.4776781809267,448.1084178926545 L 604.4897171324126,437.33632332986457 L 605.0070182046461,431.85108620657405 L 604.3004605533167,424.084653777907 L 603.4382919044318,420.199080866358 L 600.662529378677,415.7210070005653 L 602.6392088307081,413.8011621010433 L 604.6579450400782,412.9063403788666 L 606.0962947484495,412.50303743069736 L 607.2402453988316,412.5786568940268 L 608.0183000938925,412.9441499436521 L 608.6617723164363,413.41046636515614 L 609.940305439337,414.6203571589639 L 610.8907937763324,415.20429141193125 L 611.7697852159937,415.2547027842373 L 612.6319538648759,414.99004264523217 L 613.3553343069636,414.4103078363139 L 614.1754460521258,413.53649755224126 L 617.5610352188937,407.5330150555064 L 618.3432956482345,404.91975291980435 L 618.4189982798799,403.9996305680574 L 618.2339472886814,403.1929400604247 L 617.8133772267684,402.51228893469766 L 616.635781141234,401.4282779066265 L 615.9544576028662,400.98290504483003 L 615.3404250811856,400.45349663832286 L 614.9577064814666,399.7602186547106 L 613.683379092858,394.52473944953397 L 613.4941225137608,392.11698379138 L 613.8642242033834,390.0453349915279 L 614.5034906916363,388.96116624035767 L 615.4119221249146,387.96523129274874 L 616.2404451922743,387.486170038327 L 617.0899966382981,387.1331758210245 L 618.911065239141,386.7885845890962 L 619.8951991576807,386.71294243120207 L 625.4509299434741,385.7548027874721 L 627.8145337295052,385.0740127832938 L 629.5010198578417,384.09063971853016 L 630.2874860214799,383.1955082588251 L 630.615530514608,382.14487231551027 L 630.5608565544011,381.18668108989834 L 629.6440136525457,377.77828917400115 L 630.3001030779587,374.81527183110904 L 631.1622715804585,372.9575535981303 L 630.9451436495759,371.81377766074706 L 631.227586415485,370.3272399746768 L 631.4961814359053,368.52277635828307 L 631.4969640367369,365.7812205814881 L 633.5878068549899,363.50958302806276 L 635.2042094725255,362.56888238792413 L 635.7948411564,361.90200516387955 L 636.5374368970174,361.80698414003206 L 639.744050233496,362.06709194745054 L 643.1262402630601,363.29371246203647 L 645.8358063589665,364.5326987968953 L 649.1147010538066,366.1571898524 L 654.2207715878696,369.15478501861185 L 656.2369691309458,370.26983226021025 L 661.8652261669857,374.02619996966666 L 668.4806317762068,378.8495757016028 L 681.8815219494131,392.4075946850675 L 685.2726694054938,397.31717817634865 L 688.4227229033543,403.1840737901553 L 689.8665696865587,409.80702573313437 L 690.3677701806575,413.8250378617576 L 690.9324349148366,415.7540177359907 L 691.7684599784288,417.4144539111565 L 692.1454743506916,418.8073651858344 L 692.2793873154617,420.60186889476904 L 689.8864392511896,417.1968762627652 L 688.6744026447417,416.0986928176433 L 691.5773906209674,421.9135989908485 L 692.5477471324153,424.21793700611136 L 692.5934088311709,427.7234995235983 L 692.8668570185007,430.3673928766903 L 693.3136719630858,436.1904756189528 L 690.6414783125655,441.875935750281 L 689.9063086530599,444.8851093633626 L 688.7273877163824,447.68917185546496 L 687.9810480901892,449.59476956796004 L 687.8843474045688,452.9404553351848 L 686.2467020899802,456.85825353227057 L 685.8594810271829,460.6801357290212 L 689.6815726474834,466.9360148978765 L 689.3650975283966,475.7112433575687 L 687.4425689065555,480.8182657088052 L 685.4356818393205,484.08788235836823 L 683.6010690133711,487.7567148427603 L 675.3419998109954,499.6017757951127 L 675.3419998109954,500.72539366338685 L 673.8331808812763,504.1112049893416 L 673.3200854404366,506.69224545402386 L 673.1350345243031,510.1754911529834 L 672.4873566433957,513.9733449372031 L 670.8134877180158,516.5667112118251 L 662.898358724623,524.4932559706442 L 661.5693573120832,526.2345762405068 L 661.0142048892351,528.017824091458 L 661.6618826073737,529.5241189745398 L 663.1086437973928,529.5241189745398 L 665.4554247603328,528.5716734011093 L 667.0956481977563,528.9702750066581 L 668.1218390794697,528.919925504426 L 668.6433460143751,529.3730709127767 L 668.8956880691396,540.7136211127943 L 669.190087105933,541.9931803267881 L 670.0059930776127,542.8825693761474 L 671.4359314422746,543.2853090223919 L 672.8406354875275,543.100720319856 L 673.9172948452835,542.4043140998879 L 674.346276322131,541.3261334450732 L 672.6808188908208,539.3585289122864 L 671.8396785996994,537.7894518452864 L 672.1256663051971,536.2329366392776 L 673.4967248624868,535.4357898897026 L 675.3472332099442,535.3434882525505 L 676.9790451533225,535.8385595355004 L 677.6771915102916,536.8370855804171 L 677.8077050119803,537.1621317488381 L 678.9136674647585,539.9165101427128 L 684.3390215610958,546.481997308964 L 685.5586748529839,549.7331185029582 L 684.7595915438777,551.9941591196567 L 682.7745009191364,553.8776220781324 L 680.2090232265787,555.3499708586332 L 677.6771915102916,556.3944447109633 L 676.7939942371931,553.1645111519791 L 675.4061130172973,551.4823881499599 L 673.3453195970716,550.8447683102524 L 670.4517973798213,550.7440909729893 L 668.6181118577224,551.7005203410756 L 667.5498638312578,553.9447382423996 L 666.4647929794373,558.6091973540807 L 664.042309383802,564.0829538556894 L 663.5376252742388,565.92425172072 L 663.335751695536,568.0758861848104 L 664.067543540437,569.891948330327 L 670.0059930776127,575.226709121359 L 668.3741812970071,576.1703294674841 L 667.0367682276344,576.0361261999603 L 665.7666466224642,575.495117402174 L 664.3451199146406,575.226709121359 L 662.0319842768625,575.5538316469592 L 660.627280394396,576.0948401405537 L 659.4160385965696,576.7658542152835 L 657.6748782070034,577.4452516717239 L 653.5785256859759,578.5314396846571 L 640.7006698865761,579.8482703025235 L 637.9585529347382,580.6828136199643 L 635.8557023697435,580.8673349452599 L 634.7790430119874,580.3305449123576 L 632.2808566208636,577.9778625712323 L 631.4060710045993,577.4452516717239 L 627.2256043567904,577.663328894164 L 623.4909420112024,578.3133642702057 L 616.3496620074944,580.8673349452599 L 609.9569968368158,578.0952884017454 L 603.8419077148133,578.4475644541234 L 598.3829081305317,581.118954308839 L 594.0173905666071,585.30413467046 L 591.5696726515613,589.9252536004154 L 589.6771073221078,591.401285482623 L 585.6901029217374,591.9505988928072 L 583.6545436581657,591.5480489691154 L 582.0900230162089,590.776490423815 L 580.5170910429524,590.3278098260605 L 578.4731202853151,590.8435827779783 L 577.2450556621437,591.9925312378099 L 573.9309632993117,597.4897011871406 L 571.7355876017991,600.1941551044354 L 568.7663627518303,603.363940020437 L 566.1504169087551,607.0912534264857 L 565.0317004062301,612.5457303941839 L 566.2597650294136,614.7802682553524 L 568.9766478246179,616.1511534644932 L 571.6767077944595,617.9454363132924 L 573.8552608293822,624.6192413402769 L 578.2207782305355,630.1692610366892 L 579.5750139624967,633.0363838094595 L 579.3479060643521,636.1130101940165 L 578.0441388084677,638.9296843435244 L 575.1337937658426,643.112651601633 L 572.5599049047771,651.3691605264868 L 569.8009652903631,655.9623724093315 L 566.8065062837458,663.1703310102655 L 565.6036758172107,668.5424853093965 L 564.0643893319038,670.6669748053099 L 562.197057996333,672.7327631079016 L 560.5904805351461,675.2259081077184 L 559.9428024914523,678.1924729747685 L 560.4558979323098,680.7441624915515 L 561.3390952054109,683.2120012007192 L 561.7933108388946,685.8976558584444 L 561.4484433260573,689.9783961103694 L 560.397018124951,693.1792091883348 L 558.5885667595076,695.9316736770717 L 544.4153550355215,710.350733314614 L 542.1526880365739,713.7981574209633 L 541.8667003310883,717.1533359584565 L 543.9190824200225,724.1356758561361 L 546.0471669788849,737.9191293657111 L 547.6537447656106,743.6440046706284 L 551.5986920212107,748.5771647294146 L 562.306406279748,756.9773529536054 L 564.9559977735157,760.0634314141735 L 573.2075829484721,772.088835458335 L 576.673080251163,779.4660165358822 L 577.3628152768407,782.5767079149745 L 577.800208084985,789.9282157979834 L 578.7675194848622,793.3484624734853 L 580.5927935128968,796.354192888967 L 583.3012648140177,798.0705285430399 L 591.2584507894244,801.352440394015 L 597.4660652067299,805.3040309130729 L 598.054863280284,806.4760922772125 L 598.8707692519773,809.3141158288902 L 600.1661251765703,811.7042079996932 L 600.3091189479362,812.2818428550971 L 600.5194040207033,812.842732159551 L 601.251196028392,813.6505767031149 L 602.0418678434353,813.9854333424344 L 603.791439401512,814.2198324403895 L 604.136306751593,814.7053722677853 L 604.7671619699133,815.0067409290211 L 608.1569566399102,816.9698085698664 L 610.8233709590336,819.970865879201 L 610.5878517296125,822.8337429090121 L 608.1148998206677,827.60926834977 L 608.1401339773217,828.6639651734934 L 608.4934128214547,830.6687061679603 L 608.4008873633819,831.7568633992736 L 607.5765700604067,834.6822939631696 L 607.4756331082832,836.0257131422841 L 607.8120892898278,837.7206646311993 L 608.5186471408625,839.6415869594135 L 609.0653880696464,840.4660276889757 L 609.864471378758,841.1439911194061 L 611.2439412673582,841.7131431132541 L 615.836566403867,842.6505654083815 L 618.5786833557048,844.1738647290059 L 618.6127914375697,844.1927696823747 L 623.6675814332702,846.9944398690051 L 625.4423871479983,847.4924293651635 L 626.9396166513062,847.2664511020142 L 628.5293716126748,844.0859824098898 L 630.6238105208312,844.4960992586513 L 632.7014267664181,845.7222580513023 L 633.6350923528097,846.4253071909043 L 634.947270940006,846.4838944763922 L 636.2258040392363,846.7182433987683 L 637.1931152763326,847.1994946069337 L 637.5716284399006,848.036449628535 L 638.1351921940334,848.756227375995 L 639.3548454859268,848.0699277817467 L 640.5072074763838,846.9693313252617 L 640.9109547965908,846.4253071909043 L 645.5119914271652,845.2451870965033 L 646.6475305922786,843.8265203206844 L 646.4708913329807,840.8928937910322 L 651.610257723823,843.1067196868084 L 655.9589522996179,844.4375112266813 L 660.3076470381949,843.700973878174 L 665.4554247603328,839.6918067347173" fill="none" stroke="#000000" stroke-width="1.197171370951183"/>
	<path d="M 198.6058102002571,542.5889040829683 L 196.2632347401949,540.5122462458437 L 194.74077108024514,536.69443968482 L 192.60427502730766,536.0818987909738 L 185.80365670803155,537.8314060714519 L 182.7881692104066,539.3081845110892 L 176.22307028332435,545.8737116226305 L 173.12767448733993,548.0089885692863 L 169.56124023252417,548.1054735062139 L 162.40734306910417,545.6471765700677 L 159.01334240793304,545.8233703273869 L 157.77266078782648,546.8721373540905 L 155.86747829867593,550.0183732214064 L 154.26510634035034,551.1803580627686 L 153.0622758738208,551.104850562735 L 151.9603821966515,550.2407035976679 L 150.83746019123507,549.1290471571061 L 149.62201256500708,548.306833169507 L 146.37941716925388,547.6566080588482 L 137.19416657067447,548.9360791455548 L 134.84317977932076,548.6676012853123 L 133.03472841387725,547.8327984677818 L 131.3566539856209,546.8008216510897 L 129.3925915263471,545.9282476185991 L 127.47479204026817,545.5464940527023 L 117.8058858231359,544.8836658597627 L 114.18898309224478,545.0598611155997 L 106.91732631412376,546.649799728493 L 94.37592637073247,533.1827673381684 L 82.04481166289462,519.6257875033134 L 69.70107963256926,506.06272968491027 L 57.36996492473277,492.49356256922465 L 45.038850054107186,478.9266506697684 L 32.69932385220101,465.34937002292287 L 20.364003315945347,451.7910817637047 L 8.032888445334745,438.20976697840075 L 2.784173771080258,432.4179745181413 L 0.0,425.86972828514934 L 1.6991029192544282,424.0803219930193 L 7.153897000649989,421.05589059137714 L 9.542735108356128,419.16976906975356 L 17.17608206190167,407.0791397839149 L 19.23266981647831,401.894524994237 L 20.725693491369857,399.58781752819124 L 22.887423863716403,398.423936096217 L 28.287543640633775,397.4239099332712 L 30.958163625407675,396.5709371450618 L 32.91802041903368,395.4196205690095 L 34.50356938922943,393.2808195927033 L 36.253140947316986,389.1123151173266 L 38.34758001824879,387.28432787021643 L 40.589218688943916,386.93133255935516 L 42.97385096824995,387.17506755436386 L 44.78650816210991,386.6707877886988 L 45.30801493424247,384.0821035194051 L 45.35848324753556,381.85896585890356 L 46.20382920428841,375.69354954634343 L 45.88840167650647,374.0880294303273 L 45.375306235666756,373.5626562488883 L 44.82015365004182,373.2011975176007 L 44.365937853773055,372.0999999753053 L 43.56264904180407,370.94835032308237 L 40.69436114395879,369.1746104896896 L 39.83639819026393,367.68665765142947 L 38.61253923273901,363.146975885994 L 38.38122566896842,361.34364441740456 L 39.37377106271594,353.4993251075971 L 40.168648380619324,351.2417377864837 L 41.60699807659315,349.2867935826732 L 41.951865752196525,347.92881551747246 L 42.01915689084534,346.583428053437 L 41.82569464342582,345.2506317848509 L 41.3630676786424,343.9220180314556 L 39.59246746677723,341.49177618308215 L 38.036358156111916,336.62266444063226 L 36.76203088528574,334.18799867416845 L 34.2764616538712,331.89623399205385 L 32.00538316087834,330.6304791386567 L 30.445068184563876,329.02407708690635 L 30.07076084944096,325.69342392951063 L 31.239945665253625,320.0957636624182 L 33.6161666132491,314.06448570408486 L 36.795676535999924,308.2640991845204 L 41.89719161048972,302.41280528894026 L 43.44068376144165,300.5576310366084 L 46.51084540078022,299.9602637459438 L 50.07727965559324,300.2883957085132 L 53.11379564420674,301.2054746339806 L 54.60681948187239,298.23965282803357 L 58.05128845634477,298.74448150720923 L 61.5336085843914,299.80881797299645 L 64.53227341943474,297.5413012610419 L 71.96374663150334,298.4584124427032 L 75.34513029573927,297.9704095086148 L 76.23253307170599,297.29729730650877 L 80.64851894893327,292.6484566079589 L 80.93450665441475,291.97529819230965 L 81.00179779306629,290.63737875158785 L 80.64010761764177,289.1311398408236 L 79.03352983091608,286.8506887411792 L 78.67183965548749,285.0288038761691 L 79.61812223882106,284.37240984674054 L 81.73358980075774,284.5491318410794 L 85.34208103756963,285.53371836961645 L 86.43135755505413,286.31632966965026 L 87.60054253363546,287.43132645814893 L 89.05150922653087,288.49161033218047 L 91.0029545260981,289.0764434298424 L 92.5212123576423,288.9502209457118 L 96.27269752859152,288.0792794425425 L 98.18208584615715,287.8604907538218 L 101.51300087156812,288.73984935554614 L 107.46827323408866,292.58955548985284 L 109.89916832378958,293.41837438481883 L 113.34784280113972,292.21511163395684 L 115.98481729797628,289.4551098098078 L 120.59847108826678,282.8534254034065 L 123.24385691639753,280.71164845652174 L 126.31401855573202,279.3819493083726 L 138.02689536771666,276.5794069954239 L 158.8240859889286,263.69311937132096 L 163.18119205878767,262.67458033931104 L 165.92330901062547,264.29076829605907 L 167.42894984522903,256.2179001511908 L 168.7958027368872,253.48185152224858 L 171.25613764890628,251.41080691713657 L 174.02769442302954,249.62595817052588 L 176.32821273832423,247.72319527975526 L 177.9305848594035,245.4583389261205 L 179.1965007989382,242.7555760474798 L 179.88202999620205,239.89272967282764 L 179.7600647158546,237.1308199287169 L 178.52358859860405,234.5624881065534 L 176.42494386203262,232.67618105765618 L 170.76827636468656,229.52661396473096 L 170.6551517729324,229.40144387843384 L 172.5558305572254,228.96671463389018 L 175.34421013945888,228.85302363801244 L 178.0737101735881,229.58569580749847 L 183.90281134592973,231.77103625318765 L 189.00432648827532,234.7563002173483 L 192.7431947002842,238.3729815409904 L 194.0553732583331,239.16871191559824 L 195.28343786254993,239.40869226244837 L 197.50825358816633,238.61296446709594 L 199.32932204262812,238.7266404109537 L 202.22284425013356,239.33290901732693 L 207.33277071466856,241.69899347040544 L 213.0735523452794,243.1893350447676 L 214.2427372550081,242.94936678132572 L 215.21004838278253,242.53257816345354 L 216.35820476745525,241.7495138347938 L 217.49794968354792,240.73488621260947 L 218.54937491153825,239.62341108477554 L 219.3947206232727,238.52454991877397 L 219.97931315132828,237.57724261022022 L 220.8919501725133,236.66781633027145 L 222.27983150858327,235.82995535186268 L 224.79904629217683,235.46365117208373 L 231.26741409916346,237.79196659885633 L 232.8697862736678,237.94353616683915 L 234.2282276161099,237.6909201453404 L 235.38900091087754,236.90359458287864 L 236.42360334809982,235.86784877893197 L 237.9544784788656,233.59420915376413 L 238.89655549368396,232.50788980053676 L 241.083519903479,230.43204924980245 L 241.86578018643465,229.24462531363562 L 242.5639265155691,227.2065902944976 L 242.77421161972097,226.28440312135322 L 243.9644249081151,225.27377342913883 L 245.93269289156888,224.28839609255965 L 250.79448308252807,223.05876142956376 L 253.1076186426415,222.80609424388632 L 254.74363625229546,222.93242809256577 L 278.3502348508892,235.74153718205855 L 295.29920920978975,239.8128683092673 L 296.34642870347983,240.31808501111874 L 297.4735565631074,241.15589532952902 L 310.9023592827269,255.0478568531026 L 311.84023056324634,255.67924853825974 L 313.1692322048296,256.2853793700321 L 317.7786802415331,255.9570589815537 L 318.9394535363007,256.2348685442432 L 320.0203187579053,256.7652293503019 L 322.34186564021627,258.67197187519577 L 332.1117086601386,261.92132054532345 L 334.483723914747,262.3253748321616 L 336.27955810987163,262.26224157469227 L 339.6777644794979,259.44223180097936 L 341.68388363239194,258.1037424016005 L 342.18856779452096,257.34609638239584 L 342.7941887012419,254.34911074875183 L 343.10541054999396,253.49040184884765 L 343.6942086659496,252.78322247259553 L 344.5647887834132,252.0255227623427 L 346.39426856006986,251.2804438580559 L 347.62653904495846,251.15415859520346 L 348.8840434964207,251.25518691043987 L 356.2271973015332,252.9473895695213 L 364.9834664092879,256.84099489526 L 364.90776377765064,260.1788116824568 L 361.71143104359624,270.5280527636512 L 361.3917977262751,273.2466515408636 L 361.91330467917084,275.1656041738058 L 363.08248958889953,275.8473255880267 L 364.19279451137794,276.20080862243196 L 368.2176503127799,277.07188430942455 L 369.10505307462773,277.5137305570705 L 370.9555615227147,278.7045988047302 L 371.79670164655175,279.1085640003668 L 377.6888885404344,281.2924640027894 L 379.6697735803669,281.62067480323174 L 381.81888667434606,281.73428594140904 L 382.836666320803,281.6711687607908 L 383.7745376013238,281.5070634971287 L 384.69979182536593,281.2293464593211 L 385.59981179007224,280.7117797974565 L 388.6321220579937,277.60630769370687 L 389.6162561229077,276.80677542465736 L 391.49199868395755,276.61741126869725 L 395.81966471916127,278.086022872696 L 397.3757739628886,280.61079088103975 L 397.59026480132167,281.49444020358203 L 398.17906306366655,288.0794110277514 L 399.17581403868365,290.21256852703027 L 400.4207014336672,291.5925682131234 L 401.8464340855517,292.3624965123551 L 404.7778076088717,293.23338971753014 L 407.2423481395029,293.3974699313879 L 408.21386500155575,293.27125442429707 L 409.12229643484204,293.0566874597484 L 411.1115929433437,292.40036164384105 L 412.44900590712314,292.0848183657072 L 413.8200643060426,292.12268363269294 L 414.60232473538207,293.5615496522398 L 414.67802736702066,294.8489337491365 L 417.2056534728104,300.86485778106027 L 419.90571336691977,305.5636875365105 L 420.3851632697143,308.1380390396332 L 419.4514977234719,317.332667689087 L 418.74494007215213,320.8823669690999 L 418.25287296650055,326.57669662584306 L 418.8963451890524,328.3723870360331 L 419.6407543025705,329.4321200106152 L 420.5744198488102,329.7222824946985 L 422.5847448823774,330.0629066501541 L 430.7269816148325,330.4539919819355 L 432.58590138511425,330.9081532616965 L 434.2429475198242,331.55154387090704 L 443.92447085162377,336.65223000224165 L 445.4301117230606,337.1610193936677 L 446.7254676367253,337.2367068224277 L 447.4993164511118,336.76576183310607 L 448.7273812017138,336.3999365714898 L 449.57272705982933,336.3999365714898 L 452.1087646341895,337.4006959596528 L 452.4531021412675,337.6213012760089 L 451.9762353570939,339.4555151509825 L 441.1540068032173,354.8162628709357 L 441.83619122831493,355.2465871769888 L 442.26669607480056,355.83579671242046 L 447.2737982038456,351.2808981220418 L 448.9295859246981,350.2811701073479 L 449.4263222734998,349.62571247716375 L 449.86345025394087,348.69879398898536 L 450.51914214322227,348.16912140186736 L 452.7180281505617,349.1357712213031 L 454.11551299607135,349.30791300316724 L 454.8951456472786,349.2647749241616 L 455.2420117930841,351.0694996252906 L 455.26304017175767,358.30450588256423 L 455.6205249512771,361.4740877812364 L 459.5192094559877,369.2546029687095 L 460.06595052183815,372.0749128473536 L 459.9818365680156,373.55858454592374 L 459.7210832379447,375.05904179296533 L 459.20798760724387,376.44179230112263 L 458.4004932113226,377.5765552800427 L 458.01356873094426,378.7911548893551 L 458.6570408071041,380.1150067742013 L 459.59491208762495,381.56491575606634 L 460.06595052183815,383.13247055535084 L 457.74440378592044,404.84412692505344 L 457.8453405305097,408.2136266490866 L 459.6033234098198,412.16274903288604 L 460.06595052183815,413.8641774349303 L 460.05333361174456,427.184587964728 L 459.57808929685825,431.05305255052144 L 457.4415932593633,434.0855420820489 L 453.3957090792851,442.72463206864586 L 452.73541406596655,446.374050912477 L 453.3957090792851,456.64538706293354 L 452.27278710033204,467.03312501483504 L 452.43260368580275,478.22571531545776 L 451.5241722525164,485.0976186145478 L 449.57693279411865,491.70038541720953 L 446.628736480032,498.39502857929125 L 442.9151026737564,505.5172773420035 L 440.08887177569744,508.4130317450027 L 436.17336418745526,509.58389903475125 L 422.0800607202456,511.80389166947816 L 415.38458501834043,512.0808626170602 L 411.2798209973917,505.4501282835539 L 410.42185808278924,504.40511652246613 L 409.4251069613897,503.64967937026825 L 408.26433352023963,503.12086962122584 L 406.96477187229243,502.75573747607956 L 405.2740801560491,502.4535581629063 L 397.98139486961776,501.98769634512604 L 396.73230174034495,501.66033269447564 L 395.5462941862306,500.9930109158907 L 394.3644923664056,500.05707371518 L 390.0788830885504,494.4748370604457 L 389.3344741214066,493.75709712955575 L 388.03911835412435,493.37933716060377 L 386.4031005980866,493.45488915783017 L 380.4520340097159,496.07399248235976 L 379.06415267364594,496.50210816566374 L 377.5248660743028,496.60284122841074 L 375.3042560829662,496.099175871307 L 374.0467514851229,495.21775504433833 L 373.3612223588578,494.1222637142084 L 373.23505135492184,492.9889835102315 L 373.579918785199,486.8102687958775 L 373.2813139929312,485.6517148906881 L 372.49064224139414,484.63167172668824 L 370.31629503446163,482.67550865482957 L 369.2732811286675,481.5546845739829 L 368.419523801972,480.38347178280884 L 366.0685370724183,475.7572480518657 L 365.3073051681362,474.7245024633353 L 362.20770373714794,471.6849733800983 L 358.73800061655623,467.096102782253 L 357.6319012819874,465.9876864144578 L 356.4543049036773,465.00101649073633 L 355.22624029946184,464.45939346116086 L 353.9603243794291,464.3082421836138 L 352.3579524976842,464.5475647300968 L 351.066802171925,464.99261933471354 L 345.15779263365545,468.2548877220894 L 343.52598075829223,469.68235603606627 L 341.70070656954243,471.60940368979385 L 338.6389563079945,475.48017108913785 L 336.4604033667713,479.37596543823264 L 335.57300045854095,480.67312786224915 L 334.15147354094717,481.9324919271647 L 331.367299546611,483.4604975246476 L 329.6219337237878,484.10275616803943 L 328.1078813837805,484.40499393217715 L 326.9891649927343,484.455366920075 L 324.59612121307674,484.3420278784833 L 322.1105520110152,483.92645036859983 L 309.9602824142978,480.2197527260645 L 308.9761483493756,480.24494034810624 L 308.2695906980558,480.39606564569675 L 307.3317194175241,480.83684627159766 L 300.4091358207167,485.5257841191727 L 295.76604205609874,489.7737516948451 L 294.88284488215777,490.8818857457734 L 294.38236645431675,492.3803644355723 L 294.36554366355006,494.19781526617123 L 295.6146367928229,500.2207585693209 L 296.81326154979706,513.6797248294911 L 295.084718517731,516.7682660181696 L 285.7312399718244,517.6620782092136 L 283.1741737260257,517.5739562694408 L 268.36169555101077,514.6113331391252 L 265.8298635645574,514.6658864999678 L 260.6820857841902,515.547128923397 L 253.54921722961336,515.1023122842383 L 252.4178834893222,515.1778473396794 L 251.29496151036912,515.3708811361228 L 240.65453837298588,518.7069469031669 L 238.89234975939462,519.5923490136073 L 237.3068005220408,520.9896734307916 L 235.8348052321387,523.0037995925669 L 233.92541708955412,526.7214324123994 L 232.40715901525886,531.6095284762797 L 229.47157990403883,537.8189509835327 L 228.74399372766302,540.0383059296156 L 227.38975797312645,541.6744719440702 L 225.12709093168735,543.7804720559886 L 217.45589263344678,549.6996901812374 L 214.26797151434528,553.1646421911187 L 212.9053359455693,554.2388944263458 L 212.49303421876436,553.7769479110186 L 207.32002217721885,541.8253701358368 L 205.90270097225533,539.9500728755237 L 198.6058102002571,542.5889040829683" fill="none" stroke="#000000" stroke-width="1.197171370951183"/>
	<path d="M 209.11165088007664,660.2369134139275 L 207.66068402440848,660.2033881704698 L 205.71765021889462,659.7968943525253 L 203.12693853247066,658.4768273460409 L 201.30166434168095,656.0797150042459 L 200.5109925266349,653.0916363255546 L 201.0493222869014,650.01127811998 L 205.39801702546626,645.4136369916242 L 206.79851524230128,645.1789302318467 L 210.06634495747582,645.1202534664862 L 211.54254596977893,644.6005435863941 L 213.06921529539147,643.1461816603411 L 213.62436771822595,641.6205485469563 L 213.8010071403088,639.9733449420382 L 214.21316579178145,638.150076226299 L 215.03327759189523,636.2094152252133 L 219.6847826985341,629.4818112489944 L 221.08107524972132,626.8451510656291 L 222.06100364652957,624.0197891008219 L 222.4479281413795,620.9470216310275 L 221.72454746498497,613.899874053836 L 224.01244878333628,606.6803747964325 L 224.42040176917885,596.9529953821636 L 225.5517352686418,592.1686463223228 L 226.75877156359326,589.2291634078533 L 227.30971832079766,586.2266971260627 L 227.46112342343878,579.9698875375682 L 230.35464564070674,570.1435941495492 L 230.09389209186432,565.5132131688878 L 225.5517352686418,563.2273054000779 L 218.37260394858274,559.1586833909016 L 215.01645476653678,556.6041771519181 L 212.9053359455693,554.2388944263458 L 214.26797151434528,553.1646421911187 L 217.45589263344678,549.6996901812374 L 225.12709093168735,543.7804720559886 L 227.38975797312645,541.6744719440702 L 228.74399372766302,540.0383059296156 L 229.47157990403883,537.8189509835327 L 232.40715901525886,531.6095284762797 L 233.92541708955412,526.7214324123994 L 235.8348052321387,523.0037995925669 L 237.3068005220408,520.9896734307916 L 238.89234975939462,519.5923490136073 L 240.65453837298588,518.7069469031669 L 251.29496151036912,515.3708811361228 L 252.4178834893222,515.1778473396794 L 253.54921722961336,515.1023122842383 L 260.6820857841902,515.547128923397 L 265.8298635645574,514.6658864999678 L 268.36169555101077,514.6113331391252 L 283.1741737260257,517.5739562694408 L 285.7312399718244,517.6620782092136 L 295.084718517731,516.7682660181696 L 296.81326154979706,513.6797248294911 L 295.6146367928229,500.2207585693209 L 294.36554366355006,494.19781526617123 L 294.38236645431675,492.3803644355723 L 294.88284488215777,490.8818857457734 L 295.76604205609874,489.7737516948451 L 300.4091358207167,485.5257841191727 L 307.3317194175241,480.83684627159766 L 308.2695906980558,480.39606564569675 L 308.9761483493756,480.24494034810624 L 309.9602824142978,480.2197527260645 L 322.1105520110152,483.92645036859983 L 324.59612121307674,484.3420278784833 L 326.9891649927343,484.455366920075 L 328.1078813837805,484.40499393217715 L 329.6219337237878,484.10275616803943 L 331.367299546611,483.4604975246476 L 334.15147354094717,481.9324919271647 L 335.57300045854095,480.67312786224915 L 336.4604033667713,479.37596543823264 L 338.6389563079945,475.48017108913785 L 341.70070656954243,471.60940368979385 L 343.52598075829223,469.68235603606627 L 345.15779263365545,468.2548877220894 L 351.066802171925,464.99261933471354 L 352.3579524976842,464.5475647300968 L 353.9603243794291,464.3082421836138 L 355.22624029946184,464.45939346116086 L 356.4543049036773,465.00101649073633 L 357.6319012819874,465.9876864144578 L 358.73800061655623,467.096102782253 L 362.20770373714794,471.6849733800983 L 365.3073051681362,474.7245024633353 L 366.0685370724183,475.7572480518657 L 368.419523801972,480.38347178280884 L 369.2732811286675,481.5546845739829 L 370.31629503446163,482.67550865482957 L 372.49064224139414,484.63167172668824 L 373.2813139929312,485.6517148906881 L 373.579918785199,486.8102687958775 L 373.23505135492184,492.9889835102315 L 373.3612223588578,494.1222637142084 L 374.0467514851229,495.21775504433833 L 375.3042560829662,496.099175871307 L 377.5248660743028,496.60284122841074 L 379.06415267364594,496.50210816566374 L 380.4520340097159,496.07399248235976 L 386.4031005980866,493.45488915783017 L 388.03911835412435,493.37933716060377 L 389.3344741214066,493.75709712955575 L 390.0788830885504,494.4748370604457 L 394.3644923664056,500.05707371518 L 395.5462941862306,500.9930109158907 L 396.73230174034495,501.66033269447564 L 397.98139486961776,501.98769634512604 L 405.2740801560491,502.4535581629063 L 406.96477187229243,502.75573747607956 L 408.26433352023963,503.12086962122584 L 409.4251069613897,503.64967937026825 L 410.42185808278924,504.40511652246613 L 411.2798209973917,505.4501282835539 L 415.38458501834043,512.0808626170602 L 413.0672438703201,513.1132018892843 L 411.88123631621534,516.4283635087826 L 410.4176523485095,519.0971962388389 L 409.85408849188144,520.6749624488464 L 409.6648319127856,522.4625071718627 L 409.7026832286083,523.9730830536661 L 409.5638951681963,525.2612503758602 L 408.8447203140059,526.4193274803847 L 416.44442156851744,537.8860775629513 L 418.29072428232325,539.7236556824673 L 419.32112098525755,542.2660023383481 L 419.12765867186965,553.957453602085 L 415.1911228513459,577.3824757040885 L 415.51075602227775,584.0587934582252 L 419.4725262485307,594.3827709513811 L 423.60252438244095,617.4592691522095 L 425.8105174636731,620.2177245128897 L 433.2293736076579,618.0503727090994 L 435.5971832743608,620.5698628075573 L 437.93975853533584,627.4656782817955 L 441.85526597719695,632.8604653792919 L 444.9254275609289,634.4910065176754 L 451.9447423144404,636.7292946115851 L 453.66487387791693,637.5969336526315 L 454.7920017375431,638.4184600568154 L 457.1219600884246,639.776480474593 L 460.4696979393779,640.9207256880231 L 468.08622198464525,642.132020421006 L 492.5970465750009,641.9266460711025 L 504.56226532691176,639.1729178719436 L 506.95530910656936,638.8082637702503 L 505.18470917078326,644.910824360301 L 491.29748492705505,669.1083124765922 L 488.4123741881283,679.8183171004738 L 481.88933227455766,697.4693035207887 L 481.27529989925944,700.9254636394812 L 468.7801627258728,695.6678723400656 L 466.2315079486514,695.0268916168583 L 464.9151236563213,694.888640498014 L 463.6029449518886,694.888640498014 L 461.037467530283,695.2154157505017 L 459.66220325069037,695.5924630003453 L 455.57005643260277,697.4064632827253 L 452.2097013787897,699.517875603856 L 449.8755375863865,701.4156021017884 L 447.37314559355826,704.2600427329612 L 444.11793316500894,709.7686045217938 L 443.21370731963907,710.9163655653821 L 421.4407942319831,730.1837871696124 L 418.395866907587,734.0201704687446 L 413.92100119701564,738.6354067768608 L 411.38075774198364,740.6204944874519 L 410.2830700223759,741.2361167586123 L 409.551277965327,741.5502088354784 L 407.7806778831666,741.7260999180563 L 402.33429531053156,741.6758452221824 L 400.0590112126246,741.0099702126226 L 398.9066492400437,740.1933263711082 L 397.4640937973857,738.9620688206187 L 386.3526322257879,724.7138115838133 L 385.4189666795564,722.9504695535977 L 384.83437429788324,721.2792508535355 L 383.97220564899834,717.1785989087084 L 382.42450758107657,713.4171076245675 L 381.90720636246067,712.7510855390822 L 381.1123290230249,712.0096608656589 L 379.8422072223231,711.6075303604644 L 378.959010194766,711.4441644831411 L 377.89076217600893,711.5069974595924 L 376.81830842297217,711.7331962637506 L 375.65753498182346,712.0976268601163 L 368.3564383731945,715.7083633832466 L 367.2124877228112,716.1230468695928 L 366.01806870012774,716.3995019639092 L 364.9203806877456,716.4120680371442 L 361.43385477638714,715.8842899878416 L 359.1795990571443,715.7711943728877 L 349.5569557125895,717.3293913575194 L 327.4938491548633,716.6005597144953 L 325.15547948178835,716.03508398327 L 322.7582299678509,715.1638274103707 L 317.379138558284,712.600287751862 L 316.09639984747776,711.7457628034057 L 314.8851580340249,710.698542999793 L 313.69073886495903,709.203098007203 L 313.1566150019684,707.7076350982035 L 313.1187636861457,706.1576964635599 L 313.95149248778523,704.0715325963755 L 314.83468951534377,702.6388453624069 L 316.81978043594535,700.2719425135035 L 317.4926925057426,698.9146185166405 L 317.538955143752,697.4190312745875 L 316.31930215448807,690.5357426869024 L 316.09639984747776,683.6059760112405 L 316.71884354497365,680.4593783821379 L 317.5810121938558,678.1926038410185 L 318.5441177337234,677.073865735207 L 319.25488111933385,675.9551168388078 L 319.25488111933385,673.9564273048611 L 318.5861747838259,671.2746943048706 L 316.3066849516296,665.8146654327653 L 315.51601305371014,663.1830335806202 L 314.2122458178561,660.4298139920495 L 310.6878685906654,659.1307076214824 L 307.25181105160027,660.0861807000628 L 305.9270151443064,660.6644897009072 L 304.7073620086682,661.3475610724793 L 303.39518330423545,662.2904444424934 L 302.06618195542666,663.4721806947707 L 300.350255979838,665.5003812849009 L 299.35350500482906,666.9083674407883 L 294.08796739634096,677.5515304024901 L 293.3435584291971,678.6074143259394 L 292.31736731417107,679.7177582308877 L 291.0808912413742,680.5850763960541 L 289.47851935963746,681.3141215183776 L 286.1938669374698,681.7037818040474 L 280.2091547675548,681.1130060604132 L 278.27217779266914,681.4313072323927 L 278.33328072249725,679.8558958951033 L 277.727659823586,679.3237705983004 L 275.856122822366,679.1310317407625 L 273.9761746526382,678.5276733573168 L 272.5378249566834,677.17429581946 L 271.30555466785063,675.5820673379988 L 269.99758174631984,674.2789381903333 L 260.50531495126904,668.9866618199898 L 258.33096758197775,666.1413889770222 L 257.0187888320264,667.5870811770081 L 255.6267019464883,667.9474537436759 L 252.14438165566756,667.033948820815 L 251.37473849439914,666.9501407249568 L 249.60413828254622,666.9669023813464 L 248.8891692629887,666.753191367185 L 248.22887422236522,665.7391063851582 L 248.69150134991867,663.6815762015466 L 248.02700064364743,663.0697577791326 L 245.9283559070719,663.061376753738 L 242.7614631440304,664.5951072182233 L 241.25161648101036,664.74596490446 L 240.3768308647448,663.9581506894069 L 238.03846107031265,660.8696996421536 L 236.57067138930103,659.9519488612005 L 234.9725050966423,659.6334583655961 L 233.0925567641458,659.5328820848894 L 231.48597914017378,659.9854741770633 L 230.77942145190775,661.3306676911219 L 229.8583728624405,662.4034590319399 L 227.83543092134667,662.0849750707537 L 223.97459746698522,660.7691245912387 L 220.8034990383,661.2468555130895 L 218.2926956502219,661.9508764886997 L 216.55994691749007,661.5066731662612 L 215.69777829816377,658.5522601687195 L 214.8314038504074,657.3495200069633 L 213.05659813567942,656.4443138431 L 211.29440941787985,656.3688796499765 L 210.44065229259738,657.6680169239522 L 210.05793346341292,659.5161193629823 L 209.11165088007664,660.2369134139275" fill="none" stroke="#000000" stroke-width="1.197171370951183"/>
	<path d="M 294.07942458250835,747.0486586147437 L 293.05743920369173,746.4121248129514 L 293.20463880347006,742.241077442235 L 292.49808111519036,741.2862407798261 L 291.51815271838353,740.4947261034065 L 289.22604589715576,736.3486184318216 L 283.7123720084056,731.2474684874883 L 282.1562626977417,728.73032409242 L 282.66935830136504,724.9272906981081 L 284.4778096668126,722.2341048627947 L 284.9362309659455,719.926212891002 L 281.48755632582674,717.2454869585413 L 274.4934757591243,714.9961465708415 L 271.8228559371218,713.0483611678961 L 269.91346761955754,708.7840719220578 L 269.5938344261237,707.0205067641872 L 269.57701160076795,705.6129881289321 L 269.99758174631984,702.7476327690008 L 270.3929175724653,701.800877951483 L 271.84388426534167,699.8780216211608 L 272.1887517781968,698.8474590749713 L 271.85229575940724,697.7708049662372 L 270.20366115345547,695.9232947916842 L 269.91346761955754,695.1943376758613 L 271.6504221807044,692.1611587378329 L 277.21456421995856,686.4213726724132 L 278.22813810472866,682.5667648134196 L 278.27217779266914,681.4313072323927 L 280.2091547675548,681.1130060604132 L 286.1938669374698,681.7037818040474 L 289.47851935963746,681.3141215183776 L 291.0808912413742,680.5850763960541 L 292.31736731417107,679.7177582308877 L 293.3435584291971,678.6074143259394 L 294.08796739634096,677.5515304024901 L 299.35350500482906,666.9083674407883 L 300.350255979838,665.5003812849009 L 302.06618195542666,663.4721806947707 L 303.39518330423545,662.2904444424934 L 304.7073620086682,661.3475610724793 L 305.9270151443064,660.6644897009072 L 307.25181105160027,660.0861807000628 L 310.6878685906654,659.1307076214824 L 314.2122458178561,660.4298139920495 L 315.51601305371014,663.1830335806202 L 316.3066849516296,665.8146654327653 L 318.5861747838259,671.2746943048706 L 319.25488111933385,673.9564273048611 L 319.25488111933385,675.9551168388078 L 318.5441177337234,677.073865735207 L 317.5810121938558,678.1926038410185 L 316.71884354497365,680.4593783821379 L 316.09639984747776,683.6059760112405 L 316.31930215448807,690.5357426869024 L 317.538955143752,697.4190312745875 L 317.4926925057426,698.9146185166405 L 316.81978043594535,700.2719425135035 L 314.83468951534377,702.6388453624069 L 313.95149248778523,704.0715325963755 L 313.1187636861457,706.1576964635599 L 313.1566150019684,707.7076350982035 L 313.69073886495903,709.203098007203 L 314.8851580340249,710.698542999793 L 316.09639984747776,711.7457628034057 L 317.379138558284,712.600287751862 L 322.7582299678509,715.1638274103707 L 325.15547948178835,716.03508398327 L 327.4938491548633,716.6005597144953 L 349.5569557125895,717.3293913575194 L 359.1795990571443,715.7711943728877 L 361.43385477638714,715.8842899878416 L 364.9203806877456,716.4120680371442 L 366.01806870012774,716.3995019639092 L 367.2124877228112,716.1230468695928 L 368.3564383731945,715.7083633832466 L 375.65753498182346,712.0976268601163 L 376.81830842297217,711.7331962637506 L 377.89076217600893,711.5069974595924 L 378.959010194766,711.4441644831411 L 379.8422072223231,711.6075303604644 L 381.1123290230249,712.0096608656589 L 381.90720636246067,712.7510855390822 L 382.42450758107657,713.4171076245675 L 383.97220564899834,717.1785989087084 L 384.83437429788324,721.2792508535355 L 385.4189666795564,722.9504695535977 L 386.3526322257879,724.7138115838133 L 397.4640937973857,738.9620688206187 L 398.9066492400437,740.1933263711082 L 400.0590112126246,741.0099702126226 L 402.33429531053156,741.6758452221824 L 407.7806778831666,741.7260999180563 L 409.551277965327,741.5502088354784 L 410.2830700223759,741.2361167586123 L 411.38075774198364,740.6204944874519 L 413.92100119701564,738.6354067768608 L 418.395866907587,734.0201704687446 L 421.4407942319831,730.1837871696124 L 443.21370731963907,710.9163655653821 L 444.11793316500894,709.7686045217938 L 447.37314559355826,704.2600427329612 L 449.8755375863865,701.4156021017884 L 452.2097013787897,699.517875603856 L 455.57005643260277,697.4064632827253 L 459.66220325069037,695.5924630003453 L 461.037467530283,695.2154157505017 L 463.6029449518886,694.888640498014 L 464.9151236563213,694.888640498014 L 466.2315079486514,695.0268916168583 L 468.7801627258728,695.6678723400656 L 481.27529989925944,700.9254636394812 L 483.68096073539436,705.5544719244612 L 493.56856343706465,719.1514522245743 L 500.1631023943615,741.6758452221824 L 500.2640391389603,743.0117731153385 L 500.12525107854833,745.2480609111426 L 498.96027190309803,749.8754648484854 L 498.97709469386473,752.0027603448441 L 499.29672786480614,754.8293304268527 L 504.4066544757331,775.6771221737167 L 505.67257039577265,779.1479567399972 L 506.95530910656936,781.7478860123754 L 522.1126550046278,804.1237190430919 L 527.3319296823402,814.7180601288725 L 528.2109211219919,817.0955078165044 L 528.6651369118302,820.7160195927918 L 528.6272855960076,824.4494496071651 L 534.2292790198213,846.0864681344698 L 534.2545132791585,849.1036916911135 L 533.4386072682856,856.5063153084982 L 533.8507658616296,860.9167593068058 L 534.7844315542422,865.5906935310899 L 536.5340031113548,870.5406487600125 L 553.6890568401205,894.9493375015962 L 563.9257325599667,919.0157329734714 L 564.4556508350573,922.1445850083512 L 563.8878812441509,923.3492624845929 L 551.1446077971802,940.418860879138 L 548.5875416977722,945.2537791187227 L 548.2468798553937,946.4875838496057 L 547.9230409501725,948.7586001744556 L 547.8599553750126,951.1466933347624 L 549.630555457173,971.9649517915805 L 549.5842928191636,976.7489150082725 L 549.235219654597,980.090095844088 L 548.5244561226124,983.1552368757247 L 546.4846912418038,988.7041571462921 L 535.3059383607555,1010.2085263322014 L 509.407232727107,1082.1248902731986 L 503.47719451739897,1093.3476106252913 L 496.6976048616671,1103.437233594483 L 488.4796654975666,1122.6124335999543 L 486.6501854281437,1125.211944738223 L 479.61404803026016,1132.2873573701129 L 473.8942949247053,1140.4449989897978 L 472.55688210731785,1144.1350971258612 L 471.14797239257564,1153.6715006396194 L 471.1732065055372,1153.7341845114045 L 471.214000854584,1153.835521012027 L 469.27630398414374,1156.2455703712146 L 470.3613748359628,1159.5928391849534 L 473.4399478065792,1165.9488059114021 L 474.4745503451052,1169.316881676011 L 474.57548697168994,1173.228158740228 L 473.5156504392936,1176.0445881667163 L 468.4183410304489,1184.000685912035 L 467.0809282866176,1184.067543306067 L 465.79398385609034,1183.3070406996235 L 464.4902164374359,1182.8473956152025 L 464.5406849134963,1182.529822441679 L 463.8930070325848,1181.8696036221975 L 462.9845756028337,1181.1926692733473 L 462.2275494385059,1180.824951380456 L 461.5041689248651,1181.1090969438312 L 459.4265526792958,1182.6886090591283 L 458.39195030355216,1183.1148255508376 L 441.77943199578056,1181.5436723851333 L 439.31489141813006,1181.7693169909974 L 437.4475600825605,1183.190040199028 L 432.93904891003996,1189.650090472395 L 430.348337223631,1192.4580506091759 L 427.23611843951534,1194.6726487660687 L 423.3248168346322,1196.201968785088 L 420.069604441937,1196.9373775312315 L 417.1340250799028,1197.171370951183 L 414.19844604340875,1196.703383987176 L 410.9264106626,1195.32449088489 L 406.7375326835119,1191.9984155196582 L 405.341239969556,1188.647243107516 L 404.4832771786339,1185.137258687267 L 401.9177994860912,1181.2595269629005 L 398.90651781688,1178.8693550184553 L 395.5671912974225,1177.0641809165845 L 394.6678398263537,1176.71524411946 L 388.30815167900255,1174.2477587376497 L 361.14773570943026,1169.467316169234 L 350.700774836964,1166.1243143042595 L 347.8072527824851,1164.5656296086543 L 345.7716935189106,1161.861944165648 L 342.2893732280749,1154.1059766387739 L 340.9267261648304,1152.3508316941193 L 337.9743241402106,1150.6416466630687 L 337.25935495789395,1147.854278279081 L 336.8976647824694,1144.8203258896963 L 335.00509945301593,1142.375592986364 L 333.52048694664586,1142.1499243996686 L 330.2106004122438,1143.0609558622862 L 328.23392111879804,1142.5845452313272 L 327.63250572275916,1141.8490328816647 L 326.4759380666422,1139.29980149112 L 325.8787286618102,1138.3636856307069 L 325.05020553041305,1137.9457758357137 L 323.03567475782984,1137.745179040938 L 322.2660315965655,1137.4192088736124 L 320.79403624989385,1135.6932336867967 L 317.59770366456956,1130.0221085446744 L 316.092062829966,1128.3546036958096 L 311.00737041806326,1124.350885265069 L 308.2694592946269,1120.8611732869254 L 303.72730230863715,1113.5138448911857 L 300.3501244728299,1110.6927253102592 L 296.8930385014155,1109.6186033898837 L 293.9868991244505,1109.982217133814 L 291.1606683713741,1110.7763143603281 L 287.86760449956324,1110.9685693796189 L 285.99606766111054,1110.4921114317171 L 284.343227226745,1109.6436801636085 L 282.8544090547108,1108.4985032231407 L 279.2921806283156,1104.7285832811815 L 279.02722141383487,1103.3994870474758 L 281.6305500971872,1099.9220750385057 L 285.0497849150083,1093.3558393737135 L 284.8899683182839,1091.3704744105903 L 284.456781175805,1091.1447688404478 L 283.4221786372764,1091.4122716827862 L 281.38661953647323,1090.9274226565128 L 275.26732474882687,1088.5491425264695 L 273.37055375372694,1088.4446482785172 L 270.0690785506178,1089.6191620146233 L 268.08819342875285,1089.5355669359833 L 266.6119925792184,1087.7842433468154 L 265.82973209546924,1084.478015244469 L 265.57318437504057,1080.9084154013365 L 265.6699154987435,1078.3377731882786 L 266.26712490359455,1076.4944197827763 L 268.302684329935,1073.3677960587208 L 269.0428876689206,1071.653989682773 L 269.20690993127783,1070.1784351839142 L 268.79475127978753,1065.939828195835 L 269.0891503165809,1064.564565146182 L 270.02281574020384,1061.8850808146142 L 270.13636968926795,1060.5599588686923 L 269.59804009177554,1058.7833652168226 L 267.79800005761945,1055.4098935961501 L 267.5540694969055,1053.2737564887373 L 268.0629592721138,1051.5723583659124 L 269.89664479419633,1048.717160594428 L 270.4139460634552,1047.1160617376638 L 270.3382434307408,1045.4647871671407 L 268.85363108715984,1040.6446740367003 L 268.7274599783823,1034.6079013708184 L 269.62748007682836,1028.3535771131324 L 269.38775501900307,1022.8014710026988 L 265.88020040875824,1018.8881594506076 L 264.4124108905058,1018.5035141108862 L 261.2244897992321,1018.4198955294868 L 259.7020259765123,1018.1188682861819 L 257.67908387265123,1017.073631249484 L 252.69532841287062,1012.825739185634 L 246.21434344978746,1009.4976102901933 L 243.11053632251836,1007.298342091861 L 241.43246156872468,1004.2042777405852 L 241.69742078321897,1002.7324913736942 L 243.37549553699358,1000.0314032588975 L 243.32502689816454,998.2334465631453 L 242.96333672275367,996.5191021438357 L 242.7951086319623,993.0151066570548 L 242.5175324205437,991.250543358713 L 237.78611901554808,980.7130330953289 L 237.18890961069837,977.6185838675607 L 237.2351720955723,975.6029852430729 L 236.99124169762564,974.3819075654696 L 235.64121163133,971.6553652448855 L 234.9725050966423,970.9946332580784 L 232.87386036006544,970.2251704434556 L 232.06636588243367,969.5978887475337 L 232.18412549716194,969.079334616197 L 232.9874143091309,967.0887427885963 L 233.03367711954488,966.2188983898654 L 227.91954488536075,956.2906916241084 L 227.33074681179164,953.1707727414084 L 228.36534918754893,926.7456096336077 L 231.74252702337114,913.4688670131582 L 232.15889134050792,910.0470394037204 L 231.57850459824527,900.7851827720349 L 232.35235358793423,896.7272131084192 L 233.95472570901487,892.878329144885 L 238.30342012203423,885.8246050894427 L 239.16558890414825,885.1300944019877 L 240.2422482619044,884.7368160572067 L 241.20114816772272,884.2180218399096 L 241.7310664339182,883.1720609534395 L 241.55442701185575,882.0424159163464 L 240.33477371996227,880.3270142621686 L 240.11187165025046,879.3396043697607 L 240.62917275675568,878.8961049464205 L 242.6899661769665,878.5781233008724 L 243.09791916282128,877.9505262506834 L 242.73622882461044,876.8877899729449 L 241.35255343314748,875.3648016494006 L 240.8773091458752,874.3104170011437 L 240.90674913094296,872.2016272832938 L 241.74788925927936,870.9547508500963 L 242.92969123480268,869.9254429869417 L 244.00635042979016,868.4442323626647 L 246.22275494384624,861.1300341921584 L 246.93772396340785,859.5064714631394 L 251.15183626191867,852.5726684278658 L 252.86776216928934,847.1241684145137 L 253.38926910419465,846.9860703548712 L 254.41546014866043,846.9191135778581 L 255.53417648843043,846.6512866690741 L 256.35428812576197,845.8980206329188 L 256.48045923453265,844.7806692936207 L 255.4879138407715,842.6421956609373 L 255.260805942646,841.5541154155223 L 255.98418645626776,833.7364525942651 L 253.16636687171555,834.7534409629085 L 253.62478833361712,831.8991604174228 L 256.4215794271808,825.1985049859785 L 255.08837218622864,821.0883988422925 L 252.14438165566756,817.7357744738115 L 249.6377839332509,814.1863468314743 L 249.6630182526722,809.431319313037 L 253.76778226775443,804.964968484656 L 267.133499351355,800.2933621969133 L 273.30326245230265,794.6085325865126 L 276.9790449905375,793.0135582878897 L 278.4173946864895,791.8539462694076 L 279.40994008025336,789.9951982511499 L 279.50246553833034,788.5927482610045 L 279.30479762525346,787.1651656761798 L 279.4057344146083,785.2268117739771 L 280.7641758122145,781.1574372473693 L 282.8291748980717,779.1017721809228 L 289.4741821235148,776.1417282588734 L 292.6789262029197,773.6756745348027 L 293.200433137825,771.385428768783 L 292.49808111519036,768.6973770556823 L 292.043865481708,765.0420441269341 L 293.04902787241383,761.7676533553548 L 295.416837489111,757.9907000318833 L 298.44914764930945,754.9129489738051 L 301.473046641,753.6943912455993 L 303.0796244277243,753.4682658583791 L 303.97123286935107,752.6893868078464 L 304.2277805897798,751.454058459345 L 303.91235322476786,749.8460208578797 L 302.73475691488824,748.5101621666205 L 300.8043401063164,747.8233830921655 L 295.643945387242,746.9816552778602 L 294.07942458250835,747.0486586147437" fill="none" stroke="#000000" stroke-width="1.197171370951183"/>
	<path d="M 216.27395921200724,85.99658735726436 L 219.77730799383693,85.8067103400757 L 222.52783643974033,84.19062414996573 L 224.17647120846217,81.3338932688481 L 225.5517352686418,74.7802399485251 L 227.45271209214727,72.33669344624546 L 227.66720283057438,70.43327966911818 L 227.2550441790895,68.55513368814586 L 227.2340156880819,66.20420886069786 L 228.43264048896913,63.65903561092387 L 232.60469564269744,60.413054815651364 L 234.33323870978012,58.49240372320981 L 237.15526395999782,57.13736045888411 L 245.28908935745605,55.26726927741793 L 248.63262154255864,55.064637490350314 L 252.00979921561355,53.98392437945178 L 255.13042933099206,51.14696519895858 L 257.1870169227987,47.537259038936796 L 257.3594506792215,44.17645944468719 L 250.84482022820234,33.65803073037088 L 233.90425707016402,14.690006287001921 L 223.92790315181583,0.0 L 227.16662395723026,1.4904497993300456 L 232.52475299975723,4.976896958418286 L 238.33325645340477,10.83155568754872 L 247.63878342503548,24.980251626021996 L 253.745328557757,30.852981115629127 L 258.36828794077024,33.240490886325986 L 266.3160690333952,35.39515742509113 L 270.4091762350569,37.45000220205736 L 279.3371837573908,43.93994711207038 L 284.0131282120542,46.47988803913523 L 288.8414052359928,47.48386796475084 L 290.3183678517348,49.99707314544085 L 290.6230328275315,50.322851710023514 L 290.84822003309455,51.639246063135346 L 291.48404252050557,51.93177454243985 L 292.49738461998345,51.82540067544411 L 301.65720231906437,53.700213252660134 L 302.84936936088,54.84368889507474 L 304.98202402866383,57.45632104633857 L 319.51321703818263,69.89976658787828 L 315.76451377881745,63.87111119469867 L 310.0818501958616,58.30058392603088 L 303.26662793945076,53.793287540350185 L 291.0469145400645,48.80696982317966 L 276.06534711942925,38.4607751276775 L 266.19685229665896,33.114134694796256 L 264.8589758195209,31.30521833726383 L 262.8521610224191,26.782699342764104 L 263.2296806344955,24.66764468682353 L 267.0843545254574,24.05572867402026 L 269.76673061369314,25.239647663274944 L 275.52887196688545,29.82878476021659 L 282.15864598423315,31.804005662545123 L 285.3907436556921,34.00527293075273 L 290.6230328275315,38.4607751276775 L 301.33929107535954,44.83093272052076 L 316.2016415964899,51.55281701552817 L 333.4880654932927,63.93758234647305 L 363.23263626295284,81.58990316916797 L 373.0547691480379,88.95912745025939 L 375.4438689907924,91.17830318484253 L 377.836497210917,94.3195811909948 L 386.625634265635,102.44852022664138 L 408.87327071395504,127.31123947371466 L 417.2291867699003,133.90221994989804 L 421.9859100198578,140.76914247911762 L 425.8153252480841,145.85029853952287 L 417.87435995468854,155.72091964294628 L 411.65833400920366,161.5038063770267 L 408.2264822044251,163.6828011476223 L 388.34192873429635,171.85447797352597 L 385.9741190675935,173.08499319764846 L 376.28839014788844,183.1811468076656 L 374.45470449056,185.59541357465415 L 373.436924990495,187.53350857182724 L 373.50421629994423,188.78481573705707 L 373.77338095220176,190.0108226665253 L 374.3369449552013,191.1651877354402 L 377.4239293297027,195.90884211762338 L 378.05478434938516,197.13472642801108 L 378.4795602919728,198.37322717537202 L 378.5973198273396,199.6748936980472 L 378.3533892880368,201.25876674750535 L 377.18841011259605,202.62356548076752 L 373.0079434600019,205.88802516784693 L 371.695764901953,207.32855255693397 L 370.77892200010433,208.6679644059508 L 361.7030197214096,236.20888845449517 L 361.35815214474036,238.47402706298183 L 361.27403819091643,240.7601470204522 L 361.52638019878975,243.03777634738546 L 364.8194439431536,255.02260117490323 L 364.9834664092879,256.84099489526 L 356.2271973015332,252.9473895695213 L 348.8840434964207,251.25518691043987 L 347.62653904495846,251.15415859520346 L 346.39426856006986,251.2804438580559 L 344.5647887834132,252.0255227623427 L 343.6942086659496,252.78322247259553 L 343.10541054999396,253.49040184884765 L 342.7941887012419,254.34911074875183 L 342.18856779452096,257.34609638239584 L 341.68388363239194,258.1037424016005 L 339.6777644794979,259.44223180097936 L 336.27955810987163,262.26224157469227 L 334.483723914747,262.3253748321616 L 332.1117086601386,261.92132054532345 L 322.34186564021627,258.67197187519577 L 320.0203187579053,256.7652293503019 L 318.9394535363007,256.2348685442432 L 317.7786802415331,255.9570589815537 L 313.1692322048296,256.2853793700321 L 311.84023056324634,255.67924853825974 L 310.9023592827269,255.0478568531026 L 297.4735565631074,241.15589532952902 L 296.34642870347983,240.31808501111874 L 295.29920920978975,239.8128683092673 L 278.3502348508892,235.74153718205855 L 254.74363625229546,222.93242809256577 L 253.1076186426415,222.80609424388632 L 250.79448308252807,223.05876142956376 L 245.93269289156888,224.28839609255965 L 243.9644249081151,225.27377342913883 L 242.77421161972097,226.28440312135322 L 242.5639265155691,227.2065902944976 L 241.86578018643465,229.24462531363562 L 241.083519903479,230.43204924980245 L 238.89655549368396,232.50788980053676 L 237.9544784788656,233.59420915376413 L 236.42360334809982,235.86784877893197 L 235.38900091087754,236.90359458287864 L 234.2282276161099,237.6909201453404 L 232.8697862736678,237.94353616683915 L 231.26741409916346,237.79196659885633 L 224.79904629217683,235.46365117208373 L 222.27983150858327,235.82995535186268 L 220.8919501725133,236.66781633027145 L 219.97931315132828,237.57724261022022 L 219.3947206232727,238.52454991877397 L 218.54937491153825,239.62341108477554 L 217.49794968354792,240.73488621260947 L 216.35820476745525,241.7495138347938 L 215.21004838278253,242.53257816345354 L 214.2427372550081,242.94936678132572 L 213.0735523452794,243.1893350447676 L 207.33277071466856,241.69899347040544 L 202.22284425013356,239.33290901732693 L 199.32932204262812,238.7266404109537 L 197.50825358816633,238.61296446709594 L 195.28343786254993,239.40869226244837 L 194.0553732583331,239.16871191559824 L 192.7431947002842,238.3729815409904 L 189.00432648827532,234.7563002173483 L 183.90281134592973,231.77103625318765 L 178.0737101735881,229.58569580749847 L 175.34421013945888,228.85302363801244 L 172.5558305572254,228.96671463389018 L 170.6551517729324,229.40144387843384 L 168.72851127271332,227.26962188955423 L 166.78968329561317,226.20847482926644 L 164.64898157704016,226.0400373045423 L 161.99518425484516,226.43586468576626 L 159.66102045161585,226.36006809104504 L 157.88200907122786,225.45892487796937 L 156.19131732050442,224.3387970499424 L 154.17678654793752,223.58922826799613 L 149.9752914091401,223.56396165342792 L 146.5097939436601,224.85254199425916 L 143.86440811554434,227.36226086661102 L 140.27694536972098,233.78776060308806 L 138.1446549824272,233.8298657025079 L 126.81029133398603,224.8862301093655 L 125.05651394747521,223.1344298248499 L 122.67188166820459,218.28307131964536 L 122.59197336984376,213.431388944637 L 124.61912113935128,209.025847487727 L 128.58089122030844,205.47931782154242 L 129.31688889364767,204.32518362506468 L 129.68699056312144,203.12048390945964 L 129.70381338847852,201.82309217459758 L 129.3925915263471,200.4751277974078 L 127.96265332445385,198.2762068406942 L 126.09952781730081,193.72650010512965 L 124.96398865218735,191.6369079746792 L 123.80742083331533,190.74375709543003 L 122.33121982099587,190.1623605538968 L 121.01483556817219,189.33660047242628 L 120.3587461931938,187.7608889418835 L 120.41762600055247,186.38737931006267 L 120.59426542261626,185.35933617311923 L 120.52276845555237,184.3902654400508 L 119.81200510164126,183.1936555509034 L 117.60401208164397,181.66836986149994 L 115.33713941707028,181.1543157611645 L 113.29737448784529,180.36215958346193 L 109.52486082589527,173.45991157863492 L 108.5701667484961,171.09158445858097 L 108.42717297713288,168.63046220443402 L 110.7192797983647,164.36543513172884 L 118.1002848599116,162.0052288263963 L 120.62791107333453,158.8778319456898 L 122.9284293886156,154.68807884131982 L 124.52239001562789,152.45400192525366 L 125.5864323764611,151.66151964149736 L 127.94583049911174,152.0914846134952 L 129.47670565312302,150.94490533531794 L 130.09494354896262,148.8456042291895 L 129.70381338847852,146.42584801595802 L 132.20199977960374,142.02453974386728 L 132.21882260496082,140.25381851575733 L 131.68049284469842,137.15916204142937 L 131.79825245941032,135.72562240089036 L 132.5973356057465,134.2245894324513 L 136.26050098428428,129.86466013205003 L 139.47365639496564,123.8176389294417 L 141.76576337896745,121.65002521268767 L 145.4247230918547,120.42702161660662 L 159.22362748070282,120.6716241810275 L 166.34387899342227,119.97998716699544 L 170.3056492371413,117.01092823785811 L 171.60941649303794,113.25724218218488 L 175.20108506726277,110.00106502885188 L 183.0909797412506,104.6103080384403 L 183.7214667725826,104.03861800420931 L 186.1148787329221,101.86836245172248 L 187.78874765830207,99.2528623692953 L 189.72336996975034,97.04226214829828 L 197.5417678394416,94.01311353641819 L 200.36799875527169,91.66732613966249 L 202.9629161073448,88.9839125949264 L 206.31065395809924,86.47760661452536 L 209.7803570892066,85.37632050350943 L 216.27395921200724,85.99658735726436" fill="none" stroke="#000000" stroke-width="1.197171370951183"/>
	<path d="M 491.2647665718668,258.8224718756283 L 498.5833483110348,259.9360477500461 L 498.4045232059366,260.63202438036103 L 489.23808237290154,267.3329570191334 L 481.09822990726207,269.7918055680744 L 477.925740604165,273.2777996134105 L 477.4422505232701,270.5208288440451 L 478.41585381902496,266.81599224100387 L 480.124626774284,263.55505613592123 L 482.6083083555512,261.66603489320863 L 484.11176350712026,259.43891762941524 L 484.69460076012064,258.8224718756283 L 486.2046792084111,258.5772177930018 L 491.2647665718668,258.8224718756283" fill="none" stroke="#000000" stroke-width="1.197171370951183"/>
	<path d="M 468.30892552278357,257.92099343343375 L 465.6994040708261,259.9360477500461 L 463.2488381593279,262.8988752293831 L 461.4738337017405,266.13332815475985 L 460.4008832338925,269.4604290420354 L 459.4471495027766,275.7165751701088 L 455.5924757745847,285.50403232204883 L 455.24807183229495,288.9296796843494 L 455.5924757745847,299.6164617583204 L 455.24807183229495,301.2925567741933 L 453.7247471160882,303.31309800607806 L 453.3670970686495,305.12160374639933 L 453.3670970686495,334.11167824231774 L 452.4531021412675,337.6213012760089 L 452.1087646341895,337.4006959596528 L 449.57272705982933,336.3999365714898 L 448.7273812017138,336.3999365714898 L 447.4993164511118,336.76576183310607 L 446.7254676367253,337.2367068224277 L 445.4301117230606,337.1610193936677 L 443.92447085162377,336.65223000224165 L 434.2429475198242,331.55154387090704 L 432.58590138511425,330.9081532616965 L 430.7269816148325,330.4539919819355 L 422.5847448823774,330.0629066501541 L 420.5744198488102,329.7222824946985 L 419.6407543025705,329.4321200106152 L 418.8963451890524,328.3723870360331 L 418.25287296650055,326.57669662584306 L 418.74494007215213,320.8823669690999 L 419.4514977234719,317.332667689087 L 420.3851632697143,308.1380390396332 L 419.90571336691977,305.5636875365105 L 417.2056534728104,300.86485778106027 L 424.1955282326846,296.45603012984196 L 429.32648322228374,293.9401942900385 L 430.54613650430576,293.09455225265356 L 431.86672653093467,291.819760979385 L 436.64860850234294,284.3893719868733 L 437.99863837620643,283.06394430193154 L 439.66830156740053,282.0246248027511 L 442.5996750907232,281.1662287175462 L 444.57214880845544,281.0904874175614 L 446.1534923115281,280.7875214708468 L 447.26800296828634,280.03010152140837 L 448.0797032448794,278.5278632707901 L 448.5002733067925,277.1223812613019 L 449.7409551138705,269.16450843226005 L 451.1162192470793,267.15281500274847 L 454.10647261126985,264.82962166455815 L 465.2263455050652,258.8361263982569 L 468.30892552278357,257.92099343343375" fill="none" stroke="#000000" stroke-width="1.197171370951183"/>
	<path d="M 458.28809813073946,341.64062579274366 L 458.9305437521032,320.2769742406338 L 460.592954606907,313.44151982231955 L 477.76016176697493,283.29749030204323 L 482.09832573884,277.4395762401162 L 488.0326689004078,273.2777996134105 L 495.19891823306244,271.4884309995554 L 502.07374885783395,271.8463079851439 L 508.31275699519983,273.741703099438 L 518.0355425454095,278.8444561076337 L 521.2279012503673,281.8131742970931 L 522.0293025749685,282.2770260948828 L 522.5260387610124,282.86015013287374 L 523.8771616688355,283.99325361049273 L 524.612331328341,284.3510723489995 L 524.6444868447069,284.76806150613555 L 522.8065955994701,292.12268363269294 L 522.3902311254653,293.30911896616993 L 521.9654553292602,295.2023295681961 L 521.8476957938933,296.6958296446055 L 522.1000378017679,299.34619631285057 L 522.6930416520197,302.02591970650985 L 523.8243752459271,305.37439361402215 L 523.9926032999683,306.3965752305592 L 523.9673688942487,307.63327095609736 L 522.1673291112172,312.15503732585495 L 513.5666708546424,328.80132812313343 L 512.2334636251524,330.64322616031063 L 512.002150142335,330.84507526444077 L 511.62784271843407,331.09738622476243 L 506.22351719591103,336.56392725932267 L 504.23422068740126,339.05318343919254 L 503.8136507718624,339.75958023081256 L 503.565514351896,340.7434792859341 L 503.5024287767361,341.9207791313375 L 504.4318885886865,345.01110972723217 L 505.49593101953525,347.58839771417155 L 505.65574760500596,348.57220246225603 L 505.6473362828084,349.73257226413943 L 505.20153196154996,351.36378889218565 L 503.5781312619909,354.8951779273186 L 503.30055514116157,355.78220522762393 L 503.1070928277764,356.7280770739181 L 503.08185871482164,358.0396678829155 L 503.33420072269496,359.6791272236023 L 504.24263215597307,362.36945158905985 L 504.8650758534689,363.7061739407618 L 505.4622852916194,364.5804965138743 L 507.4053191621185,366.2828768208465 L 508.99086839947233,368.0230519410847 L 509.41143846138544,368.7165896374875 L 509.64275194421225,369.8052223471248 L 509.5922837182946,371.2427001416624 L 508.93198855860317,373.7771403310428 L 507.89318038709973,376.1896207013708 L 506.50950478531087,378.20697245783674 L 506.10996339483626,378.94245331746845 L 505.89967829068166,379.8880621890326 L 505.87444403134447,380.9471314010054 L 506.87960647493344,383.29636869141575 L 508.14972812925413,385.37658671248016 L 508.46515585866973,386.170838374598 L 508.91516576783647,387.88959018319537 L 510.54277190891037,391.7892212494127 L 511.0053990209355,393.46583947390764 L 510.85399375766235,395.5836261659836 L 508.1791681228793,399.8106391612403 L 505.3403200219728,397.97027544886845 L 504.0786096898388,397.4282429320298 L 502.2659527039488,396.87360165523114 L 495.0868213649693,396.4450126162289 L 494.21624124750565,396.30214902930487 L 493.665294593747,395.9239799220913 L 493.88819660799516,394.49952764556116 L 493.8629624950404,393.62971782945357 L 491.18813686026687,384.5066834785326 L 491.0451429191804,383.47287397612865 L 491.0451429191804,382.3970262327206 L 490.86850339656195,380.9849550659061 L 490.5152246440885,379.33330628310654 L 489.539502047745,376.6309204309412 L 487.5628225957207,372.80624452919335 L 481.27529989925944,365.74064086126464 L 474.64711550680073,361.62541759659246 L 472.97324658132544,360.049052023365 L 470.9166587633746,357.69916078051483 L 461.773465175232,343.59840161513046 L 458.3121733768269,341.4078148025704 L 458.28809813073946,341.64062579274366" fill="none" stroke="#000000" stroke-width="1.197171370951183"/>
	<path d="M 425.8153252480841,145.85029853952287 L 426.1489193626701,146.2929184406859 L 430.1471515132804,154.49094028857493 L 432.82047039665775,158.37028820144977 L 433.4245866445486,157.33281045116422 L 431.7995723251579,153.31021079251445 L 432.1083723241761,151.52765346435652 L 434.35252107963703,151.68808506528472 L 438.3865360583743,153.04745026777692 L 441.8139071252423,155.8907088757325 L 444.9413863001245,158.88135255672785 L 447.61834164050674,162.16734349651307 L 450.2917793463947,166.1972557658388 L 453.7063564847327,171.71933763325706 L 457.8178544805185,176.72939366555013 L 460.4018173741206,180.38809567875015 L 473.1703182165088,192.97900062275258 L 476.12424361076415,197.98782751760623 L 477.3230337865352,203.40094666837493 L 475.7003618982312,208.65446633304228 L 476.8130511698131,207.44061892448894 L 475.9719110414808,214.4448348400349 L 476.8130511698131,235.36061237662062 L 473.93860370856146,252.51852573426143 L 471.9251659402825,255.12369050259304 L 468.30892552278357,257.92099343343375 L 465.2263455050652,258.8361263982569 L 454.10647261126985,264.82962166455815 L 451.1162192470793,267.15281500274847 L 449.7409551138705,269.16450843226005 L 448.5002733067925,277.1223812613019 L 448.0797032448794,278.5278632707901 L 447.26800296828634,280.03010152140837 L 446.1534923115281,280.7875214708468 L 444.57214880845544,281.0904874175614 L 442.5996750907232,281.1662287175462 L 439.66830156740053,282.0246248027511 L 437.99863837620643,283.06394430193154 L 436.64860850234294,284.3893719868733 L 431.86672653093467,291.819760979385 L 430.54613650430576,293.09455225265356 L 429.32648322228374,293.9401942900385 L 424.1955282326846,296.45603012984196 L 417.2056534728104,300.86485778106027 L 414.67802736702066,294.8489337491365 L 414.60232473538207,293.5615496522398 L 413.8200643060426,292.12268363269294 L 412.44900590712314,292.0848183657072 L 411.1115929433437,292.40036164384105 L 409.12229643484204,293.0566874597484 L 408.21386500155575,293.27125442429707 L 407.2423481395029,293.3974699313879 L 404.7778076088717,293.23338971753014 L 401.8464340855517,292.3624965123551 L 400.4207014336672,291.5925682131234 L 399.17581403868365,290.21256852703027 L 398.17906306366655,288.0794110277514 L 397.59026480132167,281.49444020358203 L 397.3757739628886,280.61079088103975 L 395.81966471916127,278.086022872696 L 391.49199868395755,276.61741126869725 L 389.6162561229077,276.80677542465736 L 388.6321220579937,277.60630769370687 L 385.59981179007224,280.7117797974565 L 384.69979182536593,281.2293464593211 L 383.7745376013238,281.5070634971287 L 382.836666320803,281.6711687607908 L 381.81888667434606,281.73428594140904 L 379.6697735803669,281.62067480323174 L 377.6888885404344,281.2924640027894 L 371.79670164655175,279.1085640003668 L 370.9555615227147,278.7045988047302 L 369.10505307462773,277.5137305570705 L 368.2176503127799,277.07188430942455 L 364.19279451137794,276.20080862243196 L 363.08248958889953,275.8473255880267 L 361.91330467917084,275.1656041738058 L 361.3917977262751,273.2466515408636 L 361.71143104359624,270.5280527636512 L 364.90776377765064,260.1788116824568 L 364.9834664092879,256.84099489526 L 364.8194439431536,255.02260117490323 L 361.52638019878975,243.03777634738546 L 361.27403819091643,240.7601470204522 L 361.35815214474036,238.47402706298183 L 361.7030197214096,236.20888845449517 L 370.77892200010433,208.6679644059508 L 371.695764901953,207.32855255693397 L 373.0079434600019,205.88802516784693 L 377.18841011259605,202.62356548076752 L 378.3533892880368,201.25876674750535 L 378.5973198273396,199.6748936980472 L 378.4795602919728,198.37322717537202 L 378.05478434938516,197.13472642801108 L 377.4239293297027,195.90884211762338 L 374.3369449552013,191.1651877354402 L 373.77338095220176,190.0108226665253 L 373.50421629994423,188.78481573705707 L 373.436924990495,187.53350857182724 L 374.45470449056,185.59541357465415 L 376.28839014788844,183.1811468076656 L 385.9741190675935,173.08499319764846 L 388.34192873429635,171.85447797352597 L 408.2264822044251,163.6828011476223 L 411.65833400920366,161.5038063770267 L 417.87435995468854,155.72091964294628 L 425.8153252480841,145.85029853952287" fill="none" stroke="#000000" stroke-width="1.197171370951183"/>
	<path d="M 454.8951456472786,349.2647749241616 L 456.81113551499476,349.16225454586464 L 455.5924757745847,348.1558795798301 L 458.28809813073946,341.64062579274366 L 458.3121733768269,341.4078148025704 L 461.773465175232,343.59840161513046 L 470.9166587633746,357.69916078051483 L 472.97324658132544,360.049052023365 L 474.64711550680073,361.62541759659246 L 481.27529989925944,365.74064086126464 L 487.5628225957207,372.80624452919335 L 489.539502047745,376.6309204309412 L 490.5152246440885,379.33330628310654 L 490.86850339656195,380.9849550659061 L 491.0451429191804,382.3970262327206 L 491.0451429191804,383.47287397612865 L 491.18813686026687,384.5066834785326 L 493.8629624950404,393.62971782945357 L 493.88819660799516,394.49952764556116 L 493.665294593747,395.9239799220913 L 494.21624124750565,396.30214902930487 L 495.0868213649693,396.4450126162289 L 502.2659527039488,396.87360165523114 L 504.0786096898388,397.4282429320298 L 505.3403200219728,397.97027544886845 L 508.1791681228793,399.8106391612403 L 512.4605715200736,401.68037467108786 L 513.3353573718157,401.62995526024156 L 514.6349188733899,401.44088271850416 L 517.5158240244098,400.0375304896874 L 523.5972673510086,398.3106195820373 L 529.0688841829781,403.1677306548827 L 530.1161035302953,403.70972700983225 L 532.5049417220459,404.03744401657826 L 534.3091873857479,409.3101562553038 L 534.3975069274787,412.1753524280887 L 532.3661535152488,418.7708269421928 L 534.1703993253263,421.6483144916131 L 536.4835347390642,422.6942683661161 L 547.531910735494,426.3277065169745 L 552.692305718721,427.2727959999053 L 553.9876614860032,427.36100365465745 L 560.8808050891854,428.48249568993737 L 561.5873628868972,429.59557277260734 L 562.731313537282,432.29210169470355 L 564.5313534666946,434.0351416229092 L 567.614132253289,438.23509738869564 L 568.6865860063258,438.8398747447588 L 570.0870843988718,438.9658694943293 L 571.6516049647967,438.8776732028704 L 573.931094796993,439.0540656988424 L 575.4367358148122,439.9864206777053 L 578.321846553739,442.86322023425254 L 579.5793510051985,443.11519824922146 L 580.769564439986,442.7120330275924 L 581.7326698334601,441.77970653901934 L 582.6032499509238,440.75497600728835 L 583.9658970276565,439.9234239701842 L 585.8500510572769,439.34385282480997 L 593.1847932474378,439.8100298726901 L 594.4465035795705,439.5328438914657 L 598.1937829673822,438.0839023740412 L 599.3335278834858,437.8193104830246 L 602.6644429436628,437.9075079645185 L 604.4897171324126,437.33632332986457 L 609.4776781809267,448.1084178926545 L 612.0641842739708,450.9345669868059 L 614.2511486837631,451.42587970883216 L 616.7577464108806,453.79422111945 L 616.9554143121741,455.2051185507063 L 617.0142940066594,456.64538706293354 L 616.7241006829635,457.9050786362634 L 613.7086132058196,465.34530258899713 L 604.9817840916832,501.57219615825136 L 603.6822224437346,517.1207562132552 L 602.9588420016481,520.649785473978 L 601.974707936726,523.0793285368519 L 596.7848732526386,528.5130630137098 L 594.2151899503613,533.0192690689264 L 590.3080938306978,543.2267072408813 L 585.017322255636,550.1904956357512 L 581.6695844046841,556.1512856435264 L 573.6493129418769,577.0679401824402 L 557.730735285908,594.8104690069358 L 553.6175597963806,600.4500524684855 L 551.0058195903845,607.1249253723093 L 548.5749244949029,617.2454650710412 L 542.1359965351685,635.6101561953925 L 539.2172402147097,637.2071254701101 L 534.2166619633358,638.2172704660492 L 506.95530910656936,638.8082637702503 L 504.56226532691176,639.1729178719436 L 492.5970465750009,641.9266460711025 L 468.08622198464525,642.132020421006 L 460.4696979393779,640.9207256880231 L 457.1219600884246,639.776480474593 L 454.7920017375431,638.4184600568154 L 453.66487387791693,637.5969336526315 L 451.9447423144404,636.7292946115851 L 444.9254275609289,634.4910065176754 L 441.85526597719695,632.8604653792919 L 437.93975853533584,627.4656782817955 L 435.5971832743608,620.5698628075573 L 433.2293736076579,618.0503727090994 L 425.8105174636731,620.2177245128897 L 423.60252438244095,617.4592691522095 L 419.4725262485307,594.3827709513811 L 415.51075602227775,584.0587934582252 L 415.1911228513459,577.3824757040885 L 419.12765867186965,553.957453602085 L 419.32112098525755,542.2660023383481 L 418.29072428232325,539.7236556824673 L 416.44442156851744,537.8860775629513 L 408.8447203140059,526.4193274803847 L 409.5638951681963,525.2612503758602 L 409.7026832286083,523.9730830536661 L 409.6648319127856,522.4625071718627 L 409.85408849188144,520.6749624488464 L 410.4176523485095,519.0971962388389 L 411.88123631621534,516.4283635087826 L 413.0672438703201,513.1132018892843 L 415.38458501834043,512.0808626170602 L 422.0800607202456,511.80389166947816 L 436.17336418745526,509.58389903475125 L 440.08887177569744,508.4130317450027 L 442.9151026737564,505.5172773420035 L 446.628736480032,498.39502857929125 L 449.57693279411865,491.70038541720953 L 451.5241722525164,485.0976186145478 L 452.43260368580275,478.22571531545776 L 452.27278710033204,467.03312501483504 L 453.3957090792851,456.64538706293354 L 452.73541406596655,446.374050912477 L 453.3957090792851,442.72463206864586 L 457.4415932593633,434.0855420820489 L 459.57808929685825,431.05305255052144 L 460.05333361174456,427.184587964728 L 460.06595052183815,413.8641774349303 L 459.6033234098198,412.16274903288604 L 457.8453405305097,408.2136266490866 L 457.74440378592044,404.84412692505344 L 460.06595052183815,383.13247055535084 L 459.59491208762495,381.56491575606634 L 458.6570408071041,380.1150067742013 L 458.01356873094426,378.7911548893551 L 458.4004932113226,377.5765552800427 L 459.20798760724387,376.44179230112263 L 459.7210832379447,375.05904179296533 L 459.9818365680156,373.55858454592374 L 460.06595052183815,372.0749128473536 L 459.5192094559877,369.2546029687095 L 455.6205249512771,361.4740877812364 L 455.26304017175767,358.30450588256423 L 455.2420117930841,351.0694996252906 L 454.8951456472786,349.2647749241616" fill="none" stroke="#000000" stroke-width="1.197171370951183"/>
	<path d="M 524.612331328341,284.3510723489995 L 525.268023380391,284.66913200063135 L 525.9170921357088,283.94686954205855 L 526.4800599868375,282.04510062718754 L 527.8642984016717,281.60775333739906 L 541.838670915673,283.32060396066106 L 551.9611869342796,288.1969613154417 L 555.194058254193,290.88938683194704 L 560.0378255009448,294.5223158601995 L 566.1348996660394,300.4830202087054 L 566.8955325531151,301.0488499730607 L 566.8955325385047,301.0488500278653 L 566.8234605017519,301.31918841869447 L 567.0421569281013,310.287474055389 L 567.5636637346065,312.48311816759303 L 568.5267692744726,314.7964702245457 L 569.8978278197759,317.332667689087 L 570.3898947790465,318.75004293033146 L 570.6548539897782,320.16318712117936 L 570.1207298340228,324.4571412765611 L 570.3099864131185,325.55477509855706 L 570.8188761631558,326.639777685611 L 572.030117976606,328.6751693556639 L 571.9544154913511,329.57089345245316 L 570.5286828394585,330.35306685584277 L 569.3048238231498,330.40352950791424 L 568.0683478967355,330.25214174938355 L 566.9580429742693,329.987212485673 L 565.8393264368393,329.86105543517374 L 564.686964464257,329.92413405837124 L 563.7028303993361,330.36568259502025 L 562.9289815849578,331.2740032942704 L 562.8196332253951,332.75420771631843 L 563.0887981704176,334.0283394211485 L 564.4177995192346,337.66560086566045 L 564.5565875796492,338.8261261819663 L 564.5019136194518,339.9992489606867 L 564.3042455717759,341.15974086511596 L 563.8752640412829,342.41271712766627 L 563.2065577057845,343.57317455585326 L 561.8481163633423,344.5948678618157 L 560.6410801377991,344.9354295462411 L 555.8423756683794,345.52825550587903 L 553.6680283150645,346.0580112983243 L 552.9110021450595,346.4364062908548 L 552.200238613068,346.93252139765366 L 551.0857279563097,348.26949452529726 L 547.6959330552526,353.3186836896751 L 546.2323492339306,354.8068949378364 L 544.8528793664296,355.82004031590805 L 543.7341628289997,356.41278766534515 L 542.5944180592894,357.23253750150127 L 541.2443878926489,358.8846240505774 L 540.0079119662454,361.0074858243092 L 531.4451051718676,383.30897618217705 L 530.9404210097385,385.18747804195647 L 530.6922845897708,387.6878804234312 L 530.9908893820386,396.22651531219645 L 532.5049417220459,404.03744401657826 L 530.1161035302953,403.70972700983225 L 529.0688841829781,403.1677306548827 L 523.5972673510086,398.3106195820373 L 517.5158240244098,400.0375304896874 L 514.6349188733899,401.44088271850416 L 513.3353573718157,401.62995526024156 L 512.4605715200736,401.68037467108786 L 508.1791681228793,399.8106391612403 L 510.85399375766235,395.5836261659836 L 511.0053990209355,393.46583947390764 L 510.54277190891037,391.7892212494127 L 508.91516576783647,387.88959018319537 L 508.46515585866973,386.170838374598 L 508.14972812925413,385.37658671248016 L 506.87960647493344,383.29636869141575 L 505.87444403134447,380.9471314010054 L 505.89967829068166,379.8880621890326 L 506.10996339483626,378.94245331746845 L 506.50950478531087,378.20697245783674 L 507.89318038709973,376.1896207013708 L 508.93198855860317,373.7771403310428 L 509.5922837182946,371.2427001416624 L 509.64275194421225,369.8052223471248 L 509.41143846138544,368.7165896374875 L 508.99086839947233,368.0230519410847 L 507.4053191621185,366.2828768208465 L 505.4622852916194,364.5804965138743 L 504.8650758534689,363.7061739407618 L 504.24263215597307,362.36945158905985 L 503.33420072269496,359.6791272236023 L 503.08185871482164,358.0396678829155 L 503.1070928277764,356.7280770739181 L 503.30055514116157,355.78220522762393 L 503.5781312619909,354.8951779273186 L 505.20153196154996,351.36378889218565 L 505.6473362828084,349.73257226413943 L 505.65574760500596,348.57220246225603 L 505.49593101953525,347.58839771417155 L 504.4318885886865,345.01110972723217 L 503.5024287767361,341.9207791313375 L 503.565514351896,340.7434792859341 L 503.8136507718624,339.75958023081256 L 504.23422068740126,339.05318343919254 L 506.22351719591103,336.56392725932267 L 511.62784271843407,331.09738622476243 L 512.002150142335,330.84507526444077 L 512.2334636251524,330.64322616031063 L 513.5666708546424,328.80132812313343 L 522.1673291112172,312.15503732585495 L 523.9673688942487,307.63327095609736 L 523.9926032999683,306.3965752305592 L 523.8243752459271,305.37439361402215 L 522.6930416520197,302.02591970650985 L 522.1000378017679,299.34619631285057 L 521.8476957938933,296.6958296446055 L 521.9654553292602,295.2023295681961 L 522.3902311254653,293.30911896616993 L 522.8065955994701,292.12268363269294 L 524.6444868447069,284.76806150613555 L 524.612331328341,284.3510723489995" fill="none" stroke="#000000" stroke-width="1.197171370951183"/>
	<path d="M 566.8955325531151,301.0488499730607 L 570.4817480981908,303.7165568493197 L 579.2413929184911,312.04196912185387 L 584.4398040032671,317.27126809791315 L 585.9295120419202,319.7179816526893 L 588.8803330761168,320.98753515858465 L 592.4411222852594,324.67363780709087 L 601.7769673891066,332.1743507896585 L 606.9346563732162,336.35386484883924 L 610.3722635920905,339.30330856872206 L 612.5805147661848,341.63627832597643 L 615.0346850688942,344.09279709478807 L 618.2245587557649,347.5312212790844 L 621.5752606583552,355.51802128340745 L 626.518650973303,367.0714996574952 L 628.300750924991,369.34598954389475 L 628.8136458325162,372.51913693498767 L 629.5639731745792,373.8118873189883 L 630.9451436495759,371.81377766074706 L 631.1622715804585,372.9575535981303 L 630.3001030779587,374.81527183110904 L 629.6440136525457,377.77828917400115 L 630.5608565544011,381.18668108989834 L 630.615530514608,382.14487231551027 L 630.2874860214799,383.1955082588251 L 629.5010198578417,384.09063971853016 L 627.8145337295052,385.0740127832938 L 625.4509299434741,385.7548027874721 L 619.8951991576807,386.71294243120207 L 618.911065239141,386.7885845890962 L 617.0899966382981,387.1331758210245 L 616.2404451922743,387.486170038327 L 615.4119221249146,387.96523129274874 L 614.5034906916363,388.96116624035767 L 613.8642242033834,390.0453349915279 L 613.4941225137608,392.11698379138 L 613.683379092858,394.52473944953397 L 614.9577064814666,399.7602186547106 L 615.3404250811856,400.45349663832286 L 615.9544576028662,400.98290504483003 L 616.635781141234,401.4282779066265 L 617.8133772267684,402.51228893469766 L 618.2339472886814,403.1929400604247 L 618.4189982798799,403.9996305680574 L 618.3432956482345,404.91975291980435 L 617.5610352188937,407.5330150555064 L 614.1754460521258,413.53649755224126 L 613.3553343069636,414.4103078363139 L 612.6319538648759,414.99004264523217 L 611.7697852159937,415.2547027842373 L 610.8907937763324,415.20429141193125 L 609.940305439337,414.6203571589639 L 608.6617723164363,413.41046636515614 L 608.0183000938925,412.9441499436521 L 607.2402453988316,412.5786568940268 L 606.0962947484495,412.50303743069736 L 604.6579450400782,412.9063403788666 L 602.6392088307081,413.8011621010433 L 600.662529378677,415.7210070005653 L 603.4382919044318,420.199080866358 L 604.3004605533167,424.084653777907 L 605.0070182046461,431.85108620657405 L 604.4897171324126,437.33632332986457 L 602.6644429436628,437.9075079645185 L 599.3335278834858,437.8193104830246 L 598.1937829673822,438.0839023740412 L 594.4465035795705,439.5328438914657 L 593.1847932474378,439.8100298726901 L 585.8500510572769,439.34385282480997 L 583.9658970276565,439.9234239701842 L 582.6032499509238,440.75497600728835 L 581.7326698334601,441.77970653901934 L 580.769564439986,442.7120330275924 L 579.5793510051985,443.11519824922146 L 578.321846553739,442.86322023425254 L 575.4367358148122,439.9864206777053 L 573.931094796993,439.0540656988424 L 571.6516049647967,438.8776732028704 L 570.0870843988718,438.9658694943293 L 568.6865860063258,438.8398747447588 L 567.614132253289,438.23509738869564 L 564.5313534666946,434.0351416229092 L 562.731313537282,432.29210169470355 L 561.5873628868972,429.59557277260734 L 560.8808050891854,428.48249568993737 L 553.9876614860032,427.36100365465745 L 552.692305718721,427.2727959999053 L 547.531910735494,426.3277065169745 L 536.4835347390642,422.6942683661161 L 534.1703993253263,421.6483144916131 L 532.3661535152488,418.7708269421928 L 534.3975069274787,412.1753524280887 L 534.3091873857479,409.3101562553038 L 532.5049417220459,404.03744401657826 L 530.9908893820386,396.22651531219645 L 530.6922845897708,387.6878804234312 L 530.9404210097385,385.18747804195647 L 531.4451051718676,383.30897618217705 L 540.0079119662454,361.0074858243092 L 541.2443878926489,358.8846240505774 L 542.5944180592894,357.23253750150127 L 543.7341628289997,356.41278766534515 L 544.8528793664296,355.82004031590805 L 546.2323492339306,354.8068949378364 L 547.6959330552526,353.3186836896751 L 551.0857279563097,348.26949452529726 L 552.200238613068,346.93252139765366 L 552.9110021450595,346.4364062908548 L 553.6680283150645,346.0580112983243 L 555.8423756683794,345.52825550587903 L 560.6410801377991,344.9354295462411 L 561.8481163633423,344.5948678618157 L 563.2065577057845,343.57317455585326 L 563.8752640412829,342.41271712766627 L 564.3042455717759,341.15974086511596 L 564.5019136194518,339.9992489606867 L 564.5565875796492,338.8261261819663 L 564.4177995192346,337.66560086566045 L 563.0887981704176,334.0283394211485 L 562.8196332253951,332.75420771631843 L 562.9289815849578,331.2740032942704 L 563.7028303993361,330.36568259502025 L 564.686964464257,329.92413405837124 L 565.8393264368393,329.86105543517374 L 566.9580429742693,329.987212485673 L 568.0683478967355,330.25214174938355 L 569.3048238231498,330.40352950791424 L 570.5286828394585,330.35306685584277 L 571.9544154913511,329.57089345245316 L 572.030117976606,328.6751693556639 L 570.8188761631558,326.639777685611 L 570.3099864131185,325.55477509855706 L 570.1207298340228,324.4571412765611 L 570.6548539897782,320.16318712117936 L 570.3898947790465,318.75004293033146 L 569.8978278197759,317.332667689087 L 568.5267692744726,314.7964702245457 L 567.5636637346065,312.48311816759303 L 567.0421569281013,310.287474055389 L 566.8234605017519,301.31918841869447 L 566.8955325385047,301.0488500278653 L 566.8955325531151,301.0488499730607" fill="none" stroke="#000000" stroke-width="1.197171370951183"/>
</svg>
