<?xml version="1.0" ?>
<svg xmlns="http://www.w3.org/2000/svg" xmlns:ev="http://www.w3.org/2001/xml-events" xmlns:xlink="http://www.w3.org/1999/xlink" baseProfile="full" height="458px" version="1.1" viewBox="-80.23108636324538 -61.199159633647994 958.7814400224646 730.398319267296" width="600px">
	<defs/>
	<path d="M 765.175708416482,112.4346450441596 L 767.6469309010339,120.57111302302688 L 768.6456998079432,125.8048403097343 L 768.3673180804007,130.50071771464707 L 767.9074793602312,138.25646961391072 L 769.1957463061985,144.9698118171863 L 777.0266731919446,163.47045831760724 L 780.3703776715815,186.56508078193605 L 780.18220372216,199.74822911406523 L 776.9832482619946,206.52910380856824 L 775.434432856823,208.21463753506097 L 771.8880796378165,217.21330928756961 L 769.2246964462145,219.30258799514954 L 761.6687925295079,223.6028579500671 L 759.8304788052006,225.46313784195777 L 761.2200704009315,231.34846404203122 L 766.2139149355598,238.3611160651133 L 767.3937604358575,239.5639250418895 L 767.2635718561633,239.58084061139573 L 757.7607927577321,240.81553897505836 L 747.8599539667435,239.96192387081558 L 742.7068854646242,240.32776082182772 L 736.3234495637267,239.10829350630848 L 728.709646515975,238.0412336888707 L 723.4986786649533,233.65079488841 L 713.120167285665,228.92452367107907 L 703.1469536158221,223.02364972196474 L 698.4860322243563,207.80303151353675 L 684.3585192998344,193.50829063524404 L 679.1330764226655,191.98245016193286 L 673.9800079205461,190.57863342956597 L 676.7591907744318,186.22958937529762 L 677.62768554222,178.40030203909745 L 672.8509649491447,170.70710736024287 L 669.9849326940483,161.97442276049054 L 666.2142181057911,154.9962723123057 L 665.3819109033873,148.0476330672771 L 666.4820040744086,144.290358614808 L 666.2793552196788,140.22727660268447 L 669.6737218988966,137.99701465850677 L 674.1681820010193,137.04988548256682 L 680.1463199405689,128.28038999785412 L 681.3983998785747,116.88064932913217 L 682.4623057360907,114.64927574032842 L 683.8104767446619,111.86295963239186 L 685.6776734886607,112.77162424892569 L 689.4844611634871,115.53957562110868 L 692.0375162380687,116.17738480831713 L 694.2030541620747,115.16651353657815 L 695.6277501204967,112.96418278847496 L 697.4171684325129,110.82192532333204 L 700.6312824228077,109.93129527519444 L 705.9539466444634,105.86306527241558 L 713.8980511719035,105.92324891002183 L 727.597927505808,109.93129527519444 L 735.1203222670863,110.96635047409977 L 737.1262940913836,112.45871530029996 L 735.4280566478781,116.17738480831713 L 733.0003747773181,117.75381872194606 L 729.6722848414278,118.3073631971008 L 721.8535535179952,118.19906152603276 L 724.794126023223,123.61383724497178 L 729.6494897643571,124.17934439830933 L 734.915166013222,122.71141806433592 L 739.0638806844569,122.03760039457828 L 744.1244006794552,126.284895924501 L 747.2473343614812,128.23395081748598 L 748.6264401657501,127.29552715387331 L 750.130918893923,123.24083951602358 L 749.5268479509652,121.12311838439648 L 743.3493660982475,119.51069820106369 L 741.3661893510233,117.69365061035863 L 740.3632034388689,115.0943075040954 L 740.8191061007483,112.13376890225157 L 742.9618489476907,110.29236360467118 L 746.16456539947,110.50900332242335 L 753.4134183955591,112.13376890225157 L 765.175708416482,112.4346450441596" fill="none" stroke="#000000" stroke-width="0.7983192672959739"/>
	<path d="M 767.3937604358575,239.5639250418895 L 776.6358505031324,248.9848466888734 L 794.7838073699992,257.78530208605804 L 798.3192672959739,259.4995580367022 L 797.0454751399241,277.0798790577063 L 795.6124588943466,282.14407161407917 L 792.0805807453352,287.3600134113378 L 782.5850392948211,294.1513125660574 L 778.3438902779279,297.9500635579498 L 769.9629166138466,309.6641675068608 L 757.8184664815375,323.08736772029295 L 754.1418390329206,325.3546382016177 L 739.7682524874874,329.2194053231116 L 734.9336320424336,332.47530837333096 L 735.7587017897825,337.57933392258656 L 740.7814961843376,336.7958892903555 L 747.7439283927544,334.4226602348377 L 754.3010631224413,334.6432536582833 L 756.8631222244632,336.7122198332153 L 760.8292479922227,345.04804315746554 L 763.3913070942234,348.0519354475838 L 769.8036925242955,353.90709141503913 L 771.8880796378165,356.56829287409477 L 773.4368950429905,362.011898340381 L 773.7263933621261,373.9385687722025 L 775.9844796351888,385.4975911430687 L 775.5647070864381,391.021550734249 L 774.1895908408292,396.4537236408169 L 772.2789023266405,401.4219254023429 L 768.9207230570837,406.8985194803778 L 764.9980222192625,410.1112719675121 L 757.4834308320743,414.7503809622779 L 755.5558786149286,415.9402787799497 L 755.4592819883528,415.82255037048805 L 753.5775434507564,413.5291001139017 L 742.9819086944033,407.2405490062192 L 731.2572309666324,404.1871213641734 L 721.8485387824925,400.7840732667314 L 712.2950973444252,397.4719513583064 L 689.7576609794221,401.57408757485416 L 667.574859984233,408.7747867195576 L 646.2171286783764,401.4373551983749 L 629.3538572227425,384.8291361852537 L 621.001833886864,379.0840866458342 L 611.4483927007041,376.6825165332559 L 602.256823893629,370.9061053323454 L 594.9397566148654,361.1454572755909 L 608.0467885084057,360.3547900033301 L 621.3347567174314,361.9057027137038 L 627.9208414730446,358.16518179855194 L 628.9775098174963,349.07117292573986 L 632.8278360419763,339.50390077391063 L 632.0244783880759,331.69962647915776 L 630.3164389048055,316.97001018666487 L 634.1740026423685,302.0075547954818 L 632.2777895824369,293.28365752991033 L 631.669843270169,286.1267512834464 L 634.2898020958899,279.8521623470989 L 626.76284844933,272.3581329955713 L 628.3623259921619,251.0120129496068 L 641.1943346559256,233.010489003991 L 649.4595088424958,235.90704328316076 L 655.596871062115,242.0197202336701 L 658.1661678000953,245.87594465636923 L 663.6014967931673,245.3577348474798 L 682.9689278729102,233.3153975136999 L 703.1469536158221,223.02364972196474 L 713.120167285665,228.92452367107907 L 723.4986786649533,233.65079488841 L 728.709646515975,238.0412336888707 L 736.3234495637267,239.10829350630848 L 742.7068854646242,240.32776082182772 L 747.8599539667435,239.96192387081558 L 757.7607927577321,240.81553897505836 L 767.2635718561633,239.58084061139573 L 767.3937604358575,239.5639250418895" fill="none" stroke="#000000" stroke-width="0.7983192672959739"/>
	<path d="M 755.5558786149286,415.9402787799497 L 754.8366345506804,416.3842681805641 L 751.0152583626437,420.6518787323806 L 745.2542438005105,430.45383390284593 L 741.6065662117946,434.36344316963346 L 730.764857535267,438.0602061143529 L 709.7038620305528,434.1812547296749 L 699.2964012528978,436.3750630333765 L 694.4762558778392,439.995772472153 L 696.96594047009,444.8002038884223 L 722.2970348516216,470.6966374663247 L 724.1063984358917,473.48047713193716 L 724.8011945138934,477.8872724586579 L 723.3102785484531,479.49516264548225 L 721.211416364944,480.6934623237882 L 720.1547477381672,483.91659301623486 L 721.8338376530618,489.3461483790247 L 726.0315617399979,491.65125578567984 L 736.9601194360919,494.38843236043255 L 739.3195300788311,496.4734382958761 L 743.5751538856159,502.74309568214767 L 745.8477149486124,505.3583790187182 L 756.4143998157857,512.3848549012665 L 771.4683073691763,518.0386703521522 L 775.4633827167498,520.668311144912 L 778.0399168887715,522.9643969601497 L 778.6478633869812,523.8130889336373 L 775.3502846253637,529.4659360793311 L 775.0872615236161,529.511312878724 L 750.5812369679173,533.7389227854063 L 736.0918511605148,524.7529319010501 L 717.216566939523,523.2980502712196 L 693.6658870566188,523.6011538706833 L 669.4493610087488,518.1298481268989 L 645.1097979942932,513.1430128085882 L 621.2479070643137,514.6285049541729 L 598.0590998123968,513.2339627730103 L 594.1942985617719,508.9136659168313 L 590.7854568564047,504.2594555619837 L 582.6795066979806,504.8810526488662 L 577.3382648711071,502.1823554363813 L 569.9922475400468,498.5585942381891 L 559.9032344166849,497.92175544386606 L 550.610341686064,502.25816360713833 L 543.691334099867,510.53571594453916 L 540.8687266713379,512.6882615633972 L 537.4815975052007,512.7943706270793 L 530.6060144936638,515.7350165232527 L 524.1212546692229,516.5383589115079 L 520.4012021686899,516.9930751989422 L 517.223959370349,519.6909741771202 L 511.8682425173096,520.3881603937774 L 506.4256757592616,520.6155015887845 L 503.16158355971237,523.4041368712454 L 500.0929021980166,526.2986973415765 L 495.22933220372363,525.6015932803534 L 490.8289590158757,523.2071188342076 L 490.07626395350906,527.4201052392316 L 488.54192327264593,531.0720845552428 L 485.1258443061029,533.7540747256214 L 482.9401327383402,537.8752719135686 L 473.676189556218,535.5419884738228 L 464.16617319661106,532.3297586624392 L 459.4328774301005,535.1631983818224 L 456.26287164102587,538.5570549320655 L 450.2340713618473,535.5116851394666 L 447.07130308585795,530.9054027452687 L 442.93147860543525,530.6629550332599 L 438.56005546989337,530.3598938133218 L 431.1054764503042,531.9964025720666 L 425.16352532043146,532.7994846038337 L 421.7981086935198,526.3593148462625 L 417.7596083885641,521.0247133001801 L 413.37371047878463,515.5228108966483 L 411.3110356257003,508.3982376021654 L 406.469177918749,503.531722256888 L 399.4705584444244,503.24365830675004 L 398.8408998448313,495.3591557369664 L 403.19061044113135,488.03454963966226 L 403.0530989522083,484.48559581632213 L 401.454642636548,481.2115065398386 L 421.16292212175534,477.70345070842774 L 445.4169460304395,483.5437994980151 L 443.9694549949539,488.34455492539314 L 449.31491429367327,487.3056247107295 L 456.81451397788555,484.6664056914558 L 461.7610583074105,484.64252048566306 L 465.85278500586867,486.3860936847474 L 485.75293826956175,489.7417027675651 L 496.5464349939444,487.2936828885872 L 504.14861252497377,480.85660739922866 L 509.74481823171294,471.8146341165785 L 514.4406161532345,461.5045381694941 L 521.2449640259761,453.1162980153751 L 530.1350670529913,451.14449675502516 L 576.8536971186018,455.30311279152113 L 578.5519345620908,454.6817324401617 L 579.2699814506299,453.29554859620595 L 579.7258841124952,451.90932596257255 L 580.6832798705153,451.2879033331207 L 582.4385052867926,451.64641737409494 L 583.2591300221512,452.3873381091929 L 583.8062132724239,453.1282480546938 L 584.6952235191027,453.4747988221218 L 590.5193808368779,459.99906112973724 L 593.1978091154506,461.5045381694941 L 598.1215583679073,460.17828682211376 L 600.4010719574054,455.25531442145456 L 601.0393357960689,448.4196972544122 L 600.5720353155497,430.53746135737225 L 601.0393357960689,427.22566824833336 L 602.9997174662294,423.2440484662599 L 605.1652551101344,420.8764465931755 L 606.1796388409264,418.6761484763803 L 604.6751598326478,415.17221045415727 L 602.1562973736827,413.36632911512345 L 589.3682263635441,407.1468928880067 L 585.9261610422932,406.5488287570688 L 579.1104153508976,406.33352382906435 L 575.8165183107272,405.3287551202393 L 570.1405295541336,400.46012085225203 L 565.0914070976695,394.35869322945695 L 559.6775625677286,390.1231381525177 L 552.873214694987,390.9128457057147 L 543.2992576751597,385.08546171367936 L 540.9057684201999,382.44077326440765 L 538.5464720609484,376.8517530180366 L 524.1855365312085,354.5730920311197 L 520.2191830367556,350.53766183347403 L 514.6115797914846,345.962971426287 L 508.7190372424901,342.22625537329964 L 503.93205873257523,340.6931606919314 L 499.46403686074575,338.41718992411796 L 503.3931819629408,333.43401812506755 L 508.0830531548101,329.9956025967462 L 525.9378558410245,330.6650478051959 L 547.0929382921678,333.66222289409734 L 553.6790225439664,334.4228977938698 L 560.6125049044056,334.10341587849354 L 563.6377614395694,338.3630032532185 L 566.4458943457471,342.8960108724108 L 573.4372760550863,345.90764100703274 L 580.8339557257918,348.8886671994431 L 588.3753843984802,354.39395946451276 L 594.9397566148654,361.1454572755909 L 602.256823893629,370.9061053323454 L 611.4483927007041,376.6825165332559 L 621.001833886864,379.0840866458342 L 629.3538572227425,384.8291361852537 L 646.2171286783764,401.4373551983749 L 667.574859984233,408.7747867195576 L 689.7576609794221,401.57408757485416 L 712.2950973444252,397.4719513583064 L 721.8485387824925,400.7840732667314 L 731.2572309666324,404.1871213641734 L 742.9819086944033,407.2405490062192 L 753.5775434507564,413.5291001139017 L 755.4592819883528,415.82255037048805 L 755.5558786149286,415.9402787799497" fill="none" stroke="#000000" stroke-width="0.7983192672959739"/>
	<path d="M 344.67384521047035,357.7700649366821 L 339.4423615772267,354.05820426334293 L 337.9720751845506,352.7649734819895 L 335.9205132061072,350.2023587815461 L 334.062709662886,347.1725517428002 L 333.1964944932733,343.9269758592903 L 334.1538902512933,340.6931606919314 L 337.618750649608,336.8122981663473 L 342.51970482499854,333.5300919606901 L 348.22988619719234,331.3018986489209 L 354.24780195019673,330.46330480552183 L 360.8811864647939,331.21803982881687 L 399.7810849268567,347.51985146039084 L 418.9745891206646,353.7827969841503 L 440.31083588130906,364.54647493825274 L 460.23378422206815,372.88998357858696 L 468.37164746483836,382.8835591641342 L 470.4915952347076,389.2496588356851 L 471.4945811468644,396.835246382791 L 470.6967512084685,404.2641564839948 L 467.4142517068324,410.06534160810764 L 464.4280890474538,411.30921801073526 L 462.4449123002249,409.5031951176429 L 459.9374473798106,404.2282708238594 L 457.54395812485313,402.1229272788014 L 455.40121555801653,401.5487270611645 L 449.0869629627429,401.14199800265567 L 424.12628970405154,395.5910032948195 L 415.6009090306187,394.9329776015583 L 406.64242077238663,392.7434823842084 L 381.95528899878343,376.8517530180366 L 357.01741109728016,370.08902190053794 L 350.31564107136035,365.70770860007474 L 344.67384521047035,357.7700649366821" fill="none" stroke="#000000" stroke-width="0.7983192672959739"/>
	<path d="M 775.3502846253637,529.4659360793311 L 775.1830505671679,529.7525984346361 L 762.7399359462022,551.0772595212328 L 760.5252746030661,556.582844990171 L 759.7436295055379,562.3528415768712 L 760.1634020542581,565.1240228411817 L 763.1741835649738,573.5199263240461 L 763.8400295029007,576.7976599908392 L 763.6518555534534,581.6722343427023 L 764.274276561461,590.1789095530816 L 763.2610328646083,595.2489359778958 L 759.9100321676146,604.1042098735288 L 755.3282099115664,600.9945120535194 L 735.7585861057499,575.6093993527071 L 727.2104103552512,567.9198494748005 L 717.3743093888698,561.767367961467 L 695.342811096879,554.2426746526719 L 686.2247567389335,549.4959359802126 L 677.1294977381572,546.0131194769394 L 666.2220253483011,545.9892638013 L 643.8599975984363,549.7344762103959 L 614.7278145914275,549.4601546431272 L 573.9017270748257,549.9968691008852 L 551.915818936981,553.9803038582787 L 546.2854203345265,551.0225740032241 L 542.9117402444971,549.7583301126856 L 541.4072615163218,550.9033070773507 L 543.2992576751597,562.1847109550932 L 540.6550220121848,565.0583232387573 L 537.3839200490804,565.1298634789583 L 529.7361520837945,562.1847109550932 L 525.4506666700156,561.4096425250975 L 492.51169598816887,564.4263811750641 L 485.75293826956175,563.9971328250032 L 486.3114190583686,565.3444832988956 L 487.1206465352963,568.6471284350698 L 487.667729785569,569.9943549860272 L 483.50761757579767,569.6962990049386 L 481.84357246779376,569.2432507138025 L 479.8603957205673,567.8125454387097 L 472.11004962835864,572.7959941449851 L 456.65494787817204,571.2819360694074 L 449.0869629627429,574.1788737875869 L 441.72413430119445,569.934743813118 L 431.8310453620271,566.0717990164902 L 421.23130735297457,563.2697872460076 L 414.8721097285588,562.5639492363455 L 415.18307413750324,561.1264409654462 L 414.30734210855564,556.0227054469894 L 413.63425893430497,550.8881600490863 L 413.0842119709535,544.4503061880432 L 413.0624999355354,538.0116290457403 L 416.652277704481,529.7234593248601 L 417.7596083885641,521.0247133001801 L 421.7981086935198,526.3593148462625 L 425.16352532043146,532.7994846038337 L 431.1054764503042,531.9964025720666 L 438.56005546989337,530.3598938133218 L 442.93147860543525,530.6629550332599 L 447.07130308585795,530.9054027452687 L 450.2340713618473,535.5116851394666 L 456.26287164102587,538.5570549320655 L 459.4328774301005,535.1631983818224 L 464.16617319661106,532.3297586624392 L 473.676189556218,535.5419884738228 L 482.9401327383402,537.8752719135686 L 485.1258443061029,533.7540747256214 L 488.54192327264593,531.0720845552428 L 490.07626395350906,527.4201052392316 L 490.8289590158757,523.2071188342076 L 495.22933220372363,525.6015932803534 L 500.0929021980166,526.2986973415765 L 503.16158355971237,523.4041368712454 L 506.4256757592616,520.6155015887845 L 511.8682425173096,520.3881603937774 L 517.223959370349,519.6909741771202 L 520.4012021686899,516.9930751989422 L 524.1212546692229,516.5383589115079 L 530.6060144936638,515.7350165232527 L 537.4815975052007,512.7943706270793 L 540.8687266713379,512.6882615633972 L 543.691334099867,510.53571594453916 L 550.610341686064,502.25816360713833 L 559.9032344166849,497.92175544386606 L 569.9922475400468,498.5585942381891 L 577.3382648711071,502.1823554363813 L 582.6795066979806,504.8810526488662 L 590.7854568564047,504.2594555619837 L 594.1942985617719,508.9136659168313 L 598.0590998123968,513.2339627730103 L 621.2479070643137,514.6285049541729 L 645.1097979942932,513.1430128085882 L 669.4493610087488,518.1298481268989 L 693.6658870566188,523.6011538706833 L 717.216566939523,523.2980502712196 L 736.0918511605148,524.7529319010501 L 750.5812369679173,533.7389227854063 L 775.0872615236161,529.511312878724 L 775.3502846253637,529.4659360793311" fill="none" stroke="#000000" stroke-width="0.7983192672959739"/>
	<path d="M 240.96737652809705,588.0055946287125 L 245.68596952668935,588.2916247605018 L 251.22518754074352,589.4357297535893 L 255.2257336507967,591.843033415701 L 255.2257336507967,595.9900012733225 L 251.73807789529388,598.2063452473785 L 246.02789652309772,598.742543100727 L 235.13182195189566,598.1825141655058 L 230.23086777650744,597.1101012829879 L 225.94538236271447,594.5123848284696 L 218.90168534038628,588.0055946287125 L 219.8020931255992,585.0856098144453 L 221.06722326440868,583.8818122516889 L 222.6628828610783,584.2989732148934 L 224.45230089297232,586.1701953221108 L 227.66641488328594,583.9414067177299 L 229.2050865071789,584.7399678563085 L 230.32204836489836,586.7303567297396 L 232.25963467787068,588.0055946287125 L 240.96737652809705,588.0055946287125" fill="none" stroke="#000000" stroke-width="0.7983192672959739"/>
	<path d="M 414.8721097285588,562.5639492363455 L 391.6888118382373,559.9906396764245 L 384.2803930225381,560.3483751650164 L 381.95528899878343,559.9906396764245 L 373.806028217479,554.8151154714855 L 371.355551269853,553.9803038582787 L 334.1538902512933,547.9931061531623 L 317.4450559008338,549.7106220036816 L 314.8578079305439,548.9949975869852 L 316.32809432322,545.1781620535307 L 320.0437014096555,543.7229172160019 L 330.1647413996522,543.8064160826099 L 330.1647413996522,541.9813395722532 L 311.4499352249002,539.9772576248376 L 288.7687755557116,540.1561968736141 L 282.1695836567099,541.9813395722532 L 273.1541077057951,547.301312407566 L 269.7348374616172,547.9931061531623 L 267.50091402628397,546.8242077778312 L 265.0846296942441,541.4445396819125 L 263.0330677158125,539.7983180327848 L 259.2946652721912,542.0529125560687 L 257.2658983708139,547.7784128117701 L 255.19154103519415,552.072110842442 L 251.39615089888784,549.9968691008852 L 249.65232302114464,549.9968691008852 L 246.3470284424237,552.0959636385376 L 243.56602203692344,550.5932116321538 L 242.3350845137306,546.800352486357 L 243.73698539506776,541.9813395722532 L 239.75923436208063,543.1622788846062 L 236.282976145112,550.8317466691343 L 232.25963467787068,553.9803038582787 L 232.4533933932008,550.0326497638133 L 233.3765965356042,546.5140872278754 L 236.08921742977955,539.7983180327848 L 233.88948689015456,541.5757578964987 L 230.7323605925236,545.7268500371218 L 228.4528472831476,547.9931061531623 L 228.22489567209283,547.2774573420321 L 226.58364592127472,546.6333648364741 L 223.57468818482542,545.9892638013 L 222.57170227268736,546.4902317895161 L 222.68567793814432,547.6591379144708 L 223.0162073960162,548.9711433233712 L 222.70847301522912,549.9968691008852 L 210.46748525536083,559.7282987658161 L 190.43056124912604,568.9809578354776 L 185.3472461770593,574.000055432727 L 180.46908707873948,582.010505700009 L 192.2541721767424,594.5362176313018 L 194.02079513155397,599.100005097295 L 195.4454910899736,604.8547979678656 L 194.7730346356933,607.1064964379111 L 191.06882508778966,608.0 L 172.51358473266416,607.928520186491 L 169.80096355836673,607.4758130544337 L 167.07694512563845,606.1772361961504 L 165.0367804056236,604.1399523310706 L 163.96540898216065,599.8268367118189 L 146.0484324656941,574.1788737875869 L 145.15942221901534,573.511281375454 L 143.03947472924946,572.5814059458476 L 142.0478863556292,571.9972447014835 L 141.05629798202065,570.8885118058944 L 140.8283466510856,569.9943549860272 L 140.69157562842645,569.0644146215022 L 139.93933640440687,567.8125454387097 L 134.71925030968097,562.947843955433 L 107.59303912696718,543.0549218835805 L 102.72627756719794,540.6930105082279 L 94.17810181669444,539.261494851233 L 90.58786821436986,537.7822193329976 L 87.53332004366636,535.5632246066642 L 86.23399728925668,532.7953088528099 L 85.64132360472512,529.6692893444581 L 84.0570618266954,528.7147409538023 L 81.6749701102745,528.5596252142069 L 78.75719268212683,527.784038740644 L 71.53113476310607,524.9798954323645 L 69.18323594240516,523.6075980491779 L 67.29123978356962,525.7793905191503 L 62.00276817753054,523.8939937916016 L 56.395164932259505,526.2566951869981 L 50.479827306182635,529.907923606848 L 44.32514081063889,531.793094771099 L 39.16204268871777,530.7192719690017 L 32.76800704358506,528.1420031496979 L 27.331367156474734,525.1230897375766 L 25.040456028440087,522.6887344793497 L 22.646967053588362,519.406941586896 L 12.115614275757363,514.0959482259774 L 10.228870125529896,509.8133225816078 L 11.304107696214983,509.3229732501842 L 18.01322891461795,508.61047343368864 L 25.79349350361521,510.0657816516821 L 41.31059810697323,508.5346751577081 L 56.625054107501725,505.2903929863817 L 84.73533095449757,499.55932446916387 L 113.12063153509864,497.3000717625778 L 124.93939642905625,500.19614238214314 L 136.5989372948466,504.1078451765672 L 149.95928013084077,507.8979634693049 L 163.2617233660161,508.9743044567899 L 162.7840512815237,502.01557721417976 L 166.66332730640727,496.22347929752294 L 173.13361260850124,496.07184451957085 L 179.61113542367346,496.05668117476597 L 188.56386755873908,493.63046370671793 L 197.50936268453376,491.1131384436648 L 206.59960681234853,492.37181695499834 L 215.88526228181004,491.9472061154226 L 221.50876510343406,494.7677676258578 L 226.24929863495115,496.3144595209812 L 232.60378423161418,491.00698332774067 L 241.59270418397833,489.76343563082514 L 249.22821977095785,490.43070920779485 L 254.13521433989436,494.6161286889325 L 258.1809521579307,499.5896492906678 L 264.43411383106667,502.7433325962779 L 261.9227166938818,507.8070038066429 L 259.1290590657537,514.1282930920718 L 273.32894661723003,517.7206130442968 L 291.1837493034304,514.8710301910944 L 300.02068248880306,514.0221871190515 L 308.8648529353187,514.3253470861356 L 318.91767874521526,511.71811153841037 L 327.67500004244147,508.1556809997137 L 342.2584725122141,510.171896011323 L 357.0880189151719,509.883870307374 L 364.4340364981464,510.76310186177534 L 371.5122678606057,511.56652402218333 L 377.88846599650117,509.65648065868925 L 384.6699618418514,511.5362062000359 L 395.29454665053163,520.1456618596449 L 404.2400415244191,528.4354126078556 L 406.49812771915487,541.1780462783606 L 413.63425893430497,550.8881600490863 L 414.30734210855564,556.0227054469894 L 415.18307413750324,561.1264409654462 L 414.8721097285588,562.5639492363455" fill="none" stroke="#000000" stroke-width="0.7983192672959739"/>
	<path d="M 194.02079513155397,431.2308772316343 L 200.68837226177018,428.08651656823895 L 209.8520167738666,428.81583495131264 L 216.8615209004748,432.7491848221897 L 216.96409902741632,439.26422707988837 L 210.51307568961502,443.1130775158366 L 201.57738250844892,443.0652676675731 L 194.6020709974433,439.0968787915912 L 194.02079513155397,431.2308772316343" fill="none" stroke="#000000" stroke-width="0.7983192672959739"/>
	<path d="M 10.228870125529896,509.8133225816078 L 9.733522839453888,508.6888979524374 L 9.106656539308046,502.9589353248186 L 7.271648073157506,498.8998144361032 L 0.0,489.7417027675651 L 9.733522839453888,475.5415117559032 L 8.890102746907212,474.3709200414383 L 7.659165503820074,471.5279394895916 L 12.788070730037616,467.8963327888026 L 16.081968050311335,454.2993408618314 L 20.25347779863094,451.2879033331207 L 21.017114841318527,449.7582139074606 L 20.53841682224862,446.31624029847563 L 19.432852783169043,442.6349757778719 L 18.338686282625996,440.3519759655869 L 17.6206396742043,437.2321042215883 L 19.786177318111626,434.50653764395787 L 29.280351288082244,428.9832177985057 L 41.72649530181951,423.9614813950942 L 47.02636416629879,423.02881658021494 L 53.488785042631946,424.60716171955806 L 56.34957477810869,424.51150583276166 L 57.534921586943994,422.12004949347005 L 58.92542492975868,420.08722058294387 L 62.03696107323647,419.1903574784553 L 65.33085811342558,418.9870661823961 L 81.05950134867692,419.8719749039591 L 92.20632260800214,422.2635403643904 L 128.86090037628676,438.5470168949925 L 144.98845886085698,439.26422707988837 L 145.56973472674864,439.7065015931765 L 147.39334565436266,441.75047549245147 L 147.7808628049078,442.36006527336946 L 148.41912664357142,444.6429723688945 L 149.98059334453043,444.4756422866443 L 151.92957747615668,443.4716510795012 L 153.68480289243408,443.2804122082866 L 161.82266641532405,447.52334871667017 L 165.43569537481804,448.8140853157066 L 178.03000766964763,449.28017637949716 L 181.01617032901217,449.8538209178664 L 184.29866983064835,451.2879033331207 L 190.32798312218452,456.45025573178924 L 192.10600361554668,457.4898310708072 L 194.98958842810822,457.7049129423644 L 196.38009149080312,456.8804272691691 L 197.31469217172435,455.84083914894757 L 198.8077736414665,455.30311279152113 L 201.60017758551732,455.7571933926175 L 205.06503826395408,457.4539838057121 L 207.57250318438255,457.4898310708072 L 209.28213816640576,456.70118965571163 L 210.02755049778068,456.15115697358726 L 210.01568577888688,456.1758994321639 L 207.68522520910875,461.0015224915192 L 202.82889247599385,466.5246152594484 L 204.19677161561614,470.6210182183119 L 208.80703091935078,472.77528713901233 L 202.56110650739288,479.78360095689925 L 197.50936268453376,491.1131384436648 L 188.56386755873908,493.63046370671793 L 179.61113542367346,496.05668117476597 L 173.13361260850124,496.07184451957085 L 166.66332730640727,496.22347929752294 L 162.7840512815237,502.01557721417976 L 163.2617233660161,508.9743044567899 L 149.95928013084077,507.8979634693049 L 136.5989372948466,504.1078451765672 L 124.93939642905625,500.19614238214314 L 113.12063153509864,497.3000717625778 L 84.73533095449757,499.55932446916387 L 56.625054107501725,505.2903929863817 L 41.31059810697323,508.5346751577081 L 25.79349350361521,510.0657816516821 L 18.01322891461795,508.61047343368864 L 11.304107696214983,509.3229732501842 L 10.228870125529896,509.8133225816078" fill="none" stroke="#000000" stroke-width="0.7983192672959739"/>
	<path d="M 458.9800516218069,0.37399080861575557 L 467.0723247104263,0.0 L 472.47477198193644,0.760042306343189 L 477.3073406459998,2.8953314401735057 L 483.66718339541245,6.646927123222188 L 510.1779258165099,17.043640052671876 L 521.4501202798427,24.17042367627229 L 518.2701989051458,31.103208137317626 L 513.7225695448035,29.162133492037015 L 489.9928335292039,25.894674448222197 L 478.9827830124227,21.57789740376847 L 465.37408726691854,18.514910594473918 L 460.7352770380843,16.39240672611932 L 457.5211630477707,17.00746046756413 L 454.19307339199776,18.249603036748166 L 451.16132029835796,18.780216919781914 L 445.3029703649825,17.59838677133677 L 438.4416347995583,15.306997667039797 L 432.2185627926709,12.159166031509734 L 428.22941394104856,8.468330662440664 L 429.4603514642414,8.480392963935284 L 430.2353860454608,8.094406046184323 L 431.86523825773304,6.646927123222188 L 444.8242726260324,2.304216133843977 L 458.9800516218069,0.37399080861575557" fill="none" stroke="#000000" stroke-width="0.7983192672959739"/>
	<path d="M 383.2883792643607,136.39018639805178 L 382.9126847567847,136.35414061632486 L 381.49938633691806,137.02775254312525 L 380.200063582506,138.47117416388275 L 378.35365785792465,139.9265790383595 L 375.36749491844034,140.5760842023986 L 371.2073827086573,139.55371103529836 L 365.01850359750864,136.9796378528078 L 358.9777924873185,133.63553744197753 L 355.19380016966613,130.31525941053826 L 349.54060649014093,135.81283855474328 L 337.504774984137,137.38861203538104 L 310.8116713862365,136.04138916759402 L 305.52320006030317,134.65803952069845 L 302.4230617354653,134.35730582414155 L 300.43988470811905,133.07014436405206 L 295.4933403785917,127.52411927977279 L 292.76932166576245,126.27286450073723 L 288.8827512211686,123.64993355587004 L 287.33268205875544,117.75381872194606 L 286.8083938855488,111.55608093798736 L 285.99916640862347,108.08980318596868 L 295.9948334747183,92.06696000242165 L 297.4765171258205,88.71964536677697 L 300.2233309157182,88.64739840315707 L 314.8578079305439,81.83160800824189 L 314.8578079305439,79.62770207515041 L 299.3913086418255,79.62770207515041 L 303.9161429250877,76.2192708260617 L 309.2502046852729,75.6531820149942 L 314.96038605748544,76.12291572663923 L 320.6021821984624,75.7615825465015 L 354.72649996924787,60.10110825594895 L 364.71076921670283,52.84731186811716 L 370.3183724619762,45.07412587048818 L 373.6692574749349,49.13562781942708 L 376.871973926719,50.2202415000175 L 384.8274762728084,49.30434705438903 L 388.9192029712525,49.90691115177348 L 396.30482698999145,52.5822015339164 L 400.21419251165605,53.172672637713845 L 403.5536799860829,53.10037034335762 L 405.41148352929946,52.82321104522753 L 411.0076892360387,51.32893167020511 L 415.1450063687534,50.786640851382906 L 419.43049178252994,51.14816867120129 L 423.3170622271238,52.59425200966498 L 426.29182762807625,55.3778349790926 L 428.2977994523711,50.786640851382906 L 433.5748732397703,47.93047139102012 L 440.00310150050325,47.30377785372843 L 445.4169460304395,49.30434705438903 L 452.89375063758337,46.23114792656244 L 461.81804600009787,43.905022125356254 L 471.152654150456,42.72383547355352 L 479.8603957205673,43.2300621048149 L 508.4454954773009,49.90691115177348 L 515.4891924996315,54.26924176787792 L 521.3133495373033,57.04067474997646 L 537.9310032993556,62.19750892247683 L 538.9220132473713,63.42567222550731 L 536.663764825139,65.04243783656499 L 533.8845819712697,69.20385972754453 L 532.0896930867887,72.78360790529233 L 529.7664697781676,74.58867540344444 L 526.6398890675672,77.52558447438766 L 522.9704989066679,80.73761638135574 L 520.010379737299,80.37053852423425 L 517.2456716576672,78.61158211843158 L 512.75844932053,77.44910474330104 L 508.8502234952405,78.5045130142646 L 507.92382912664755,82.0529559767207 L 507.99620350169226,83.84236991119236 L 499.4777186245707,82.6494348469029 L 492.60213561303374,87.5892101213224 L 487.94121447347277,90.28063153308483 L 482.06440070937856,91.80977896613136 L 464.6583200553622,106.6704805832436 L 443.51771237847294,110.38491682901949 L 432.0752956454666,108.26023417232169 L 420.5098414420439,107.31250280528423 L 409.2194109722124,104.53034205250125 L 398.4211276130368,105.58513675063595 L 385.241720840635,119.44812532952938 L 383.00534718514814,135.59860103068112 L 383.2883792643607,136.39018639805178" fill="none" stroke="#000000" stroke-width="0.7983192672959739"/>
	<path d="M 538.9220132473713,63.42567222550731 L 544.7581462491771,70.66648500341879 L 552.2577459333894,75.73749362713407 L 560.0536821797513,78.54377584031634 L 564.3391675935302,75.7615825465015 L 569.445278022785,78.4835571231828 L 577.9250682619613,81.75935035131938 L 585.8691730695072,83.78251906586932 L 589.3682263635441,82.74686027046364 L 591.1462468569016,87.41918494241612 L 604.6751598326478,100.01285933901241 L 604.6751598326478,101.86670771058779 L 603.3416444626379,101.26481702088759 L 598.9421833833878,100.01285933901241 L 602.4868268315593,108.63142583198736 L 603.7177640746464,109.93129527519444 L 608.675706222823,111.03856258631373 L 609.7242822891166,110.65342914441318 L 608.675706222823,108.08980318596868 L 612.3343253364725,103.86492925586678 L 611.4111224741865,103.81678046608266 L 609.5875115465725,103.96122698230963 L 608.675706222823,103.86492925586678 L 608.7440914540446,103.50381123440968 L 609.3253673199175,102.25191361887173 L 610.0092215928377,101.2888927383756 L 610.4195338204629,101.86670771058779 L 610.4195338204629,100.01285933901241 L 609.7698727233708,99.09794595173905 L 608.675706222823,95.99192193249186 L 610.4195338204629,95.99192193249186 L 614.579646030246,98.25524680170587 L 620.3012252210984,98.78494506922775 L 625.4073353702312,97.12359809885457 L 627.6412588055761,92.76529027214072 L 630.456458106801,89.85149815382137 L 635.9842783022153,89.70700792214639 L 639.7454755428016,92.885690974801 L 637.3633841064817,100.01285933901241 L 642.116169720693,102.85379157816752 L 646.6979919767413,103.33528865336768 L 657.7764277247392,101.3851957798996 L 658.7338234827452,101.4574227087346 L 660.3066877222408,101.86670771058779 L 662.2442743153164,103.16676516808327 L 666.2790133210896,107.23522974092916 L 668.991634495387,108.08980318596868 L 678.6567718234996,108.08980318596868 L 680.9248878744495,108.72771373045381 L 682.1672226560707,110.11182964077838 L 683.0562329027542,111.4959045560569 L 683.8104767446619,111.86295963239186 L 682.4623057360907,114.64927574032842 L 681.3983998785747,116.88064932913217 L 680.1463199405689,128.28038999785412 L 674.1681820010193,137.04988548256682 L 669.6737218988966,137.99701465850677 L 666.2793552196788,140.22727660268447 L 666.4820040744086,144.290358614808 L 665.3819109033873,148.0476330672771 L 666.2142181057911,154.9962723123057 L 669.9849326940483,161.97442276049054 L 672.8509649491447,170.70710736024287 L 677.62768554222,178.40030203909745 L 676.7591907744318,186.22958937529762 L 673.9800079205461,190.57863342956597 L 679.1330764226655,191.98245016193286 L 684.3585192998344,193.50829063524404 L 698.4860322243563,207.80303151353675 L 703.1469536158221,223.02364972196474 L 682.9689278729102,233.3153975136999 L 663.6014967931673,245.3577348474798 L 658.1661678000953,245.87594465636923 L 655.596871062115,242.0197202336701 L 649.4595088424958,235.90704328316076 L 641.1943346559256,233.010489003991 L 638.263165035053,225.06692919680006 L 633.5877688693308,216.67977566348742 L 632.2560770432115,208.2758896408896 L 633.7035680709427,200.09935748411746 L 628.9919848436575,189.55626255647914 L 617.7377411834981,184.04728667502016 L 606.932220311242,174.0501375636483 L 605.5788159458784,155.28641313664932 L 600.1869117793711,152.53764045545407 L 596.1049866478508,150.4606835092604 L 591.2993165062908,150.88829972504118 L 586.1317732299126,155.82087779418782 L 580.5589324960127,155.63763349777506 L 580.529982443702,163.28748196863836 L 572.120059255114,165.97455940307498 L 562.1106582717869,161.82173917591763 L 553.6355979693042,155.0115430384772 L 545.8770456676275,147.37562228113512 L 541.259548850824,135.3388928916533 L 537.4019853651658,123.5741309484309 L 530.6277270328939,120.67068335428675 L 527.1320359263183,115.59685835795268 L 529.7664697781676,105.60042357852308 L 523.9258433275716,101.28937409384767 L 517.882567770341,102.1149249520039 L 517.0719728552648,95.51010845606645 L 511.3181955539581,90.99933697718183 L 507.99620350169226,83.84236991119236 L 507.92382912664755,82.0529559767207 L 508.8502234952405,78.5045130142646 L 512.75844932053,77.44910474330104 L 517.2456716576672,78.61158211843158 L 520.010379737299,80.37053852423425 L 522.9704989066679,80.73761638135574 L 526.6398890675672,77.52558447438766 L 529.7664697781676,74.58867540344444 L 532.0896930867887,72.78360790529233 L 533.8845819712697,69.20385972754453 L 536.663764825139,65.04243783656499 L 538.9220132473713,63.42567222550731" fill="none" stroke="#000000" stroke-width="0.7983192672959739"/>
	<path d="M 499.46403686074575,338.41718992411796 L 498.71197291796676,338.0340847241396 L 469.35183829991036,306.41343972288365 L 468.00692539135923,298.861686323351 L 479.8603957205673,294.0782978308251 L 490.6083020106934,293.35894998401363 L 496.5464349939444,291.38068868757 L 499.1450802226604,287.05220912250695 L 497.4810353947739,281.5121467326549 L 493.40070623484763,278.6339403363537 L 488.3173911627809,276.69105354610997 L 483.66718339541245,273.9564874493414 L 480.7038158130952,270.21419682590357 L 473.9792507101094,258.3496860534645 L 472.2012302167472,253.658255025713 L 474.1160217327522,252.2903346219824 L 474.332575525153,251.7623546615045 L 474.02484114436356,251.18637001177342 L 474.27558755236464,249.62637662329797 L 477.01100380373043,247.0582769827374 L 480.08834705149997,240.26534802710077 L 481.9347530561847,237.54070420190692 L 485.0006987654224,236.02827934853102 L 489.44575027892887,235.15201159981564 L 493.9591870236545,234.95995062757194 L 497.24168652529534,235.52412727530296 L 493.21834505804935,227.5650188357673 L 490.32336298707577,225.9442230468609 L 484.7157597418047,225.43996432653134 L 481.38766980591436,222.90658321653308 L 480.29350330536664,217.14293911694136 L 480.72661089018,211.01830167840052 L 481.9347530561847,207.31911889846683 L 483.7013760110127,209.1567359917087 L 486.03787757329917,210.7540839733429 L 488.7277033904108,211.6067817431479 L 491.49731253748024,211.17442987324281 L 494.5860533237839,208.94054940070828 L 494.74561914341047,206.778629959197 L 493.7540307697902,204.340346942132 L 493.28673056937424,197.55333288602634 L 492.58008121938803,196.26789521664494 L 493.21834505804935,196.50816657202174 L 497.24168652529534,197.2289733312723 L 498.6435874066442,198.11795341863785 L 500.60396907678825,199.78774903667068 L 503.29379489391397,201.1932149538068 L 506.8042457264805,201.26528912011239 L 501.40179873507606,190.52504663755505 L 498.5752018953217,188.93903264636538 L 484.1002909802071,188.025848991802 L 480.43027404790837,185.35829068179956 L 477.96839956173176,181.41675806241793 L 474.27558755236464,176.89801153197274 L 469.009911303502,173.1120267237019 L 451.16132029835796,164.97413643228032 L 436.2988919525972,155.7887743150661 L 430.9876255496025,154.5142239156952 L 426.3944057550014,152.3738633758156 L 416.51271435438224,143.96779790839037 L 414.64351327261744,143.52279972415286 L 411.8397117900488,144.7735946352801 L 394.49261360092333,138.37494739714202 L 391.62042660701576,138.0501807141433 L 386.1040036700323,136.67891903391714 L 383.2883792643607,136.39018639805178 L 383.00534718514814,135.59860103068112 L 385.241720840635,119.44812532952938 L 398.4211276130368,105.58513675063595 L 409.2194109722124,104.53034205250125 L 420.5098414420439,107.31250280528423 L 432.0752956454666,108.26023417232169 L 443.51771237847294,110.38491682901949 L 464.6583200553622,106.6704805832436 L 482.06440070937856,91.80977896613136 L 487.94121447347277,90.28063153308483 L 492.60213561303374,87.5892101213224 L 499.4777186245707,82.6494348469029 L 507.99620350169226,83.84236991119236 L 511.3181955539581,90.99933697718183 L 517.0719728552648,95.51010845606645 L 517.882567770341,102.1149249520039 L 523.9258433275716,101.28937409384767 L 529.7664697781676,105.60042357852308 L 527.1320359263183,115.59685835795268 L 530.6277270328939,120.67068335428675 L 537.4019853651658,123.5741309484309 L 541.259548850824,135.3388928916533 L 545.8770456676275,147.37562228113512 L 553.6355979693042,155.0115430384772 L 562.1106582717869,161.82173917591763 L 572.120059255114,165.97455940307498 L 580.529982443702,163.28748196863836 L 580.5589324960127,155.63763349777506 L 586.1317732299126,155.82087779418782 L 591.2993165062908,150.88829972504118 L 596.1049866478508,150.4606835092604 L 600.1869117793711,152.53764045545407 L 605.5788159458784,155.28641313664932 L 606.932220311242,174.0501375636483 L 617.7377411834981,184.04728667502016 L 628.9919848436575,189.55626255647914 L 633.7035680709427,200.09935748411746 L 632.2560770432115,208.2758896408896 L 633.5877688693308,216.67977566348742 L 638.263165035053,225.06692919680006 L 641.1943346559256,233.010489003991 L 628.3623259921619,251.0120129496068 L 626.76284844933,272.3581329955713 L 634.2898020958899,279.8521623470989 L 631.669843270169,286.1267512834464 L 632.2777895824369,293.28365752991033 L 634.1740026423685,302.0075547954818 L 630.3164389048055,316.97001018666487 L 632.0244783880759,331.69962647915776 L 632.8278360419763,339.50390077391063 L 628.9775098174963,349.07117292573986 L 627.9208414730446,358.16518179855194 L 621.3347567174314,361.9057027137038 L 608.0467885084057,360.3547900033301 L 594.9397566148654,361.1454572755909 L 588.3753843984802,354.39395946451276 L 580.8339557257918,348.8886671994431 L 573.4372760550863,345.90764100703274 L 566.4458943457471,342.8960108724108 L 563.6377614395694,338.3630032532185 L 560.6125049044056,334.10341587849354 L 553.6790225439664,334.4228977938698 L 547.0929382921678,333.66222289409734 L 525.9378558410245,330.6650478051959 L 508.0830531548101,329.9956025967462 L 503.3931819629408,333.43401812506755 L 499.46403686074575,338.41718992411796" fill="none" stroke="#000000" stroke-width="0.7983192672959739"/>
	<path d="M 210.02755049778068,456.15115697358726 L 212.8609745103159,454.0603445900037 L 214.02352652218386,453.4747988221218 L 214.3654535185899,452.7697447399028 L 217.92149450531662,448.38384342486574 L 219.8020931255992,447.43968861706827 L 222.02461902241467,447.3440769434653 L 224.32692768896476,447.5353001059602 L 226.538055767138,447.451640026578 L 239.2349461888763,443.78241230076276 L 242.8821677640033,443.2804122082866 L 252.86643729156395,445.76645868353353 L 253.02600311117175,450.8098802805401 L 247.3500143545758,454.62198408825145 L 239.91880018169076,453.4747988221218 L 239.91880018169076,455.30311279152113 L 233.8780893516204,453.27164859539744 L 228.48703989874784,452.5426912691285 L 223.07319508870353,453.1521481246851 L 216.96409902741632,455.30311279152113 L 218.81050475199535,456.5577990395548 L 223.4607125193661,459.03123014143245 L 228.07672739101687,460.15439013970644 L 228.3844617718227,461.87492625277304 L 228.27048610634935,464.1210920632624 L 229.50142334943646,466.4149435966734 L 234.43657014042728,468.6131184981398 L 243.33807070598843,467.32289694922656 L 247.73753178523836,469.5210319606716 L 257.56223521308317,463.6192977262638 L 269.5980667190895,462.1138848579852 L 313.9004121725426,465.50697334736145 L 319.5650033906044,466.7733482886051 L 330.7232221884614,472.43579969474234 L 336.9462941953277,473.70199803341086 L 359.3881049950518,472.8897235790654 L 370.3525650775928,473.8453391374562 L 380.23425647821193,477.5242879426165 L 385.43154721575206,480.5341348588943 L 389.6714424753942,482.1464778465566 L 394.3900354739865,482.46894023710337 L 401.454642636548,481.2115065398386 L 403.0530989522083,484.48559581632213 L 403.19061044113135,488.03454963966226 L 398.8408998448313,495.3591557369664 L 399.4705584444244,503.24365830675004 L 406.469177918749,503.531722256888 L 411.3110356257003,508.3982376021654 L 413.37371047878463,515.5228108966483 L 417.7596083885641,521.0247133001801 L 416.652277704481,529.7234593248601 L 413.0624999355354,538.0116290457403 L 413.0842119709535,544.4503061880432 L 413.63425893430497,550.8881600490863 L 406.49812771915487,541.1780462783606 L 404.2400415244191,528.4354126078556 L 395.29454665053163,520.1456618596449 L 384.6699618418514,511.5362062000359 L 377.88846599650117,509.65648065868925 L 371.5122678606057,511.56652402218333 L 364.4340364981464,510.76310186177534 L 357.0880189151719,509.883870307374 L 342.2584725122141,510.171896011323 L 327.67500004244147,508.1556809997137 L 318.91767874521526,511.71811153841037 L 308.8648529353187,514.3253470861356 L 300.02068248880306,514.0221871190515 L 291.1837493034304,514.8710301910944 L 273.32894661723003,517.7206130442968 L 259.1290590657537,514.1282930920718 L 261.9227166938818,507.8070038066429 L 264.43411383106667,502.7433325962779 L 258.1809521579307,499.5896492906678 L 254.13521433989436,494.6161286889325 L 249.22821977095785,490.43070920779485 L 241.59270418397833,489.76343563082514 L 232.60378423161418,491.00698332774067 L 226.24929863495115,496.3144595209812 L 221.50876510343406,494.7677676258578 L 215.88526228181004,491.9472061154226 L 206.59960681234853,492.37181695499834 L 197.50936268453376,491.1131384436648 L 202.56110650739288,479.78360095689925 L 208.80703091935078,472.77528713901233 L 204.19677161561614,470.6210182183119 L 202.82889247599385,466.5246152594484 L 207.68522520910875,461.0015224915192 L 210.01568577888688,456.1758994321639 L 210.02755049778068,456.15115697358726" fill="none" stroke="#000000" stroke-width="0.7983192672959739"/>
</svg>
