<?xml version="1.0" ?>
<svg xmlns="http://www.w3.org/2000/svg" xmlns:ev="http://www.w3.org/2001/xml-events" xmlns:xlink="http://www.w3.org/1999/xlink" baseProfile="full" height="600px" version="1.1" viewBox="-81.11497386335895 -224.1097465351497 962.2299477267179 2678.1672197882067" width="216px">
	<defs/>
	<path d="M 0.0,1261.3134673201375 L 7.829714551490767,1254.078498297645 L 32.941159850877334,1235.504008536354 L 50.035095315453795,1217.1285303838517 L 51.446983692531965,1207.4098499160075 L 47.41301620385447,1187.8790160164885 L 47.564290167614594,1178.2137299642282 L 58.05260466237988,1158.2606428467711 L 113.21710458092254,1105.447064492577 L 120.57909488183198,1100.4452682110812 L 120.67994370312273,1100.4452682110812 L 136.5636889211192,1085.790215161009 L 137.62260520391456,1073.692311422562 L 128.34448095576397,1062.1805335597396 L 113.60623890948598,1049.898551578369 L 117.65982484932906,1040.0561123328841 L 129.57114521751865,1024.814869432002 L 172.8886459270558,950.2848175089924 L 176.26352010457757,945.8468204614916 L 203.73727876238547,883.9245778026374 L 205.64576923384138,883.2918805340558 L 209.881434582367,882.0361694613443 L 210.86471442219255,881.5929700718768 L 212.83127278554562,881.5634230720766 L 215.1003793319501,882.0066232267437 L 219.10913442076102,883.5873379338177 L 221.07569366164614,883.8680208111036 L 222.5884310667364,883.8532479575031 L 223.57171002902993,883.5577920634744 L 224.55498986885547,883.9418839881096 L 225.41220811201086,884.9464190875034 L 225.86602950906212,887.5610736935057 L 225.61390587692716,888.9052799348179 L 225.1600853574345,889.909718982032 L 223.79862072754128,891.3720301741918 L 223.2691627235085,892.0367030225926 L 223.04225202499714,892.9081508875987 L 223.11788950953928,893.7500441037186 L 223.64734751357616,897.2651704708841 L 223.57171002902993,898.3285237459382 L 223.34480020805472,899.3032450531738 L 222.73970471949815,901.2230972115713 L 222.73970471949815,906.0962512026571 L 222.5127940209868,907.1741909398331 L 221.90769897117383,907.9124929716951 L 221.22696687563982,908.3997662162735 L 220.31932452032987,908.62125236531 L 219.48731877203411,908.665549893574 L 218.6553130237098,908.62125236531 L 216.68875378282468,908.2816398176152 L 213.7389155796216,907.2037229336653 L 211.69671973172433,906.8198026280444 L 210.63780372368123,906.9526986551889 L 209.7301609296073,907.2627873851598 L 209.04942883407125,907.6910033036158 L 208.67124448279816,908.1044497188249 L 207.91487578024996,909.2709410566392 L 207.68796508171005,909.8910901825898 L 207.46105438319873,910.5259972599047 L 207.38541777621515,911.4561963560274 L 207.46105438319873,912.3716135903578 L 207.68796508171005,913.2279581733177 L 207.83923917323986,913.8037671989548 L 208.74688108978174,914.9110755608839 L 210.18398232665854,916.239814829022 L 213.43636827412666,918.557645224709 L 215.47856412199127,920.6391756541809 L 215.70547482053118,921.4363358969924 L 215.62983777475503,922.4106261802227 L 215.32729003049002,923.34061376591 L 214.79783202645726,924.182016678655 L 214.19273697667282,924.8462727058155 L 213.43636827412666,925.4514759484294 L 212.67999957157846,925.90906428136 L 209.881434582367,927.1784816187866 L 208.29305969273048,928.123144741423 L 207.6123284747285,928.7725900321266 L 207.08287003192564,929.5401063995197 L 206.70468568065255,930.4256881313212 L 206.55341202789285,931.4440891487293 L 206.70468568065255,932.1968071204935 L 206.8559593334143,932.8019258102004 L 207.1585070777038,933.4660723480871 L 207.53669099020883,933.9531074402439 L 219.2604080734942,937.9672865927538 L 221.45387757415114,938.2034050044067 L 223.1935261165249,937.5393191268224 L 228.18556060636476,933.7317286018965 L 230.17733190333936,932.6838540321033 L 232.9002589692631,931.8721070020649 L 233.65662811057527,930.9570301775213 L 233.65662811057527,930.204294361196 L 233.0515330607643,929.5253469707802 L 232.29516435821816,928.905430249063 L 231.84134296119345,928.0788637016308 L 231.3875215641687,927.1932422236908 L 231.08497381987718,926.1747589280698 L 230.5555158158444,925.3776709372305 L 229.79914711329823,924.787227610691 L 228.89150475801685,924.3148685592984 L 227.88301242333372,924.0048799701308 L 227.12664372078552,923.4882294357277 L 226.67282276250234,922.9125260690131 L 226.92494551710524,922.2334834693443 L 228.33683382035844,921.790625607302 L 236.3795560540065,920.5948887888366 L 237.5141091078278,919.9453413882256 L 239.02684651292216,918.0704666990913 L 240.46394774979896,918.3804894555147 L 242.9599649947189,919.2662607552523 L 251.2043849932588,924.0934483994057 L 252.79275944412723,925.3776709372305 L 254.40634638980225,927.7246171159711 L 255.61653648940168,930.5585241490038 L 258.86892243686776,940.4022087271197 L 259.92783888370343,942.4681140930535 L 260.75984463200325,943.7518855628019 L 261.9700347315721,945.1241583645476 L 262.57512978135856,945.6701060237164 L 266.58388443139734,943.57481511878 L 282.6945405159966,930.7356386568181 L 295.88057045345374,947.5292372610547 L 300.34314650051925,950.9669804014164 L 301.4776995543385,951.1292725026095 L 303.2929847036938,951.8522000571412 L 303.9737167992564,952.501351384956 L 304.5788118490408,953.5340754981187 L 304.956996200318,954.9798547259246 L 304.80572254755623,957.5467530778863 L 304.42753819630764,959.0514280240444 L 303.5955324479833,961.1756011374999 L 303.36862174947197,962.178653238072 L 303.36862174947197,963.2111860060235 L 303.5955324479833,964.2289492883979 L 305.56209125010236,970.18762761373 L 305.8646385556238,972.5178176727125 L 305.8646385556238,973.7566102656496 L 305.7890019486423,974.9363865621713 L 305.56209125010236,976.012907982582 L 304.35190115052944,978.8294574167379 L 304.1249908907862,979.8616626458384 L 303.9737167992564,981.0413010247796 L 303.9737167992564,982.26514762136 L 304.5788118490408,989.5633988093846 L 304.27626410477984,992.924675430918 L 304.35190115052944,994.0745369881548 L 305.1839068988293,997.1112285911946 L 305.33518055159107,998.2609973662798 L 305.25954394460746,1003.2872579042644 L 304.7300855018066,1006.5887035412295 L 308.91532673820217,1010.4499517027058 L 343.6830802644732,1035.4085809766586 L 343.8752754245436,1035.546518752817 L 336.1442102967947,1050.5484308818557 L 333.97595307655945,1065.9788148107089 L 333.77425494606734,1081.9050599616983 L 331.00090235864093,1100.4452682110812 L 309.0157817409942,1137.1827125629336 L 301.9059147130728,1156.2031951154065 L 307.6038928759769,1175.3049852703837 L 318.3947552982604,1183.4725698792045 L 331.30344979828124,1185.4995803901481 L 344.7163903564042,1183.384436807116 L 357.120839286264,1179.0951361787959 L 386.3166757531229,1175.0993104259812 L 447.1791543225048,1175.6281871450306 L 475.6690466008226,1164.9614874931465 L 528.8669879175693,1120.7143223201035 L 557.0543327562203,1104.6232718653132 L 590.2337120571162,1101.857588384783 L 590.4354101876083,1102.0341253912186 L 589.7472497936129,1135.1008744973726 L 589.628617177752,1140.7991891071283 L 587.662057600186,1153.70475903636 L 578.9890287192817,1176.5683992493182 L 569.9126026016252,1192.9312906789432 L 573.543172853524,1197.0432515614034 L 572.7363798437186,1209.3184926348686 L 565.8786356008827,1221.2386143764627 L 559.7772606890838,1235.0637756536266 L 562.4497639673621,1250.6164477201396 L 567.0888258474688,1265.1966096555807 L 572.2825584402344,1276.605658062586 L 579.5436994319426,1290.7682449013896 L 582.9725710654633,1306.2753279299675 L 580.6530403693519,1322.4225203005888 L 557.7602769447574,1367.6438067202173 L 554.633952262993,1384.2407232399974 L 554.6843769176089,1402.0027917189495 L 549.2385215397353,1412.2710852145142 L 536.0711790559043,1424.9667417473036 L 530.1276028187674,1430.6964200957873 L 523.9253781098566,1443.5026845846385 L 522.6143385540712,1456.305892421741 L 522.8664613392078,1468.959944434548 L 521.202450176989,1481.4649472485112 L 518.3786734228347,1486.8400359205136 L 510.1090408029206,1494.2591123518719 L 506.32719658723113,1498.6983847776 L 503.1000230842025,1505.531812500339 L 501.4360114341894,1511.897217252308 L 499.2173295593423,1526.1728416466258 L 495.46507865834053,1539.58022358867 L 495.4354858315633,1539.6859497074686 L 466.8951684107476,1597.640093327186 L 445.8176901121035,1666.65484537742 L 443.49815892810807,1680.074695638199 L 435.026828665637,1702.9768472140406 L 435.026828665637,1716.5040808735985 L 437.4472086709252,1722.2921275227884 L 444.45622638964124,1733.6919067129045 L 445.8176901121035,1741.687777032793 L 444.7587743171901,1749.5080566251056 L 442.08627103891394,1755.5541953047173 L 438.8086723933874,1761.3380946558525 L 435.8840463300298,1768.37095460342 L 431.29540910450834,1797.6551084626956 L 427.8161123285449,1807.3258883798394 L 427.6144137101402,1823.3819958253223 L 437.59848214680335,1857.743075413769 L 437.59848214680335,1875.4375913353201 L 429.68182210905405,1894.3151188858628 L 408.80604242878604,1925.5604224615197 L 403.15848843259135,1947.6648837955688 L 402.8559409929225,1954.4132330787456 L 401.0406558669721,1959.3653583787536 L 398.6202753737488,1963.7089616798053 L 396.70414142653624,1968.5444372437294 L 393.1239953413429,1987.563722199354 L 392.67017393785875,2021.591024130222 L 390.6027655389449,2032.9577243188824 L 367.9621258752244,2094.0463034506233 L 364.33155562332763,2107.983049832348 L 361.75990116634017,2139.3820785354155 L 357.120839286264,2153.321897392055 L 350.6160676255909,2163.8682407079878 L 347.1367708495723,2176.1000758755085 L 345.046925960265,2191.29140790395 L 342.98229705739385,2198.738745026897 L 339.88535394705974,2203.642546882179 L 331.4680211405896,2214.152485958482 L 327.5769896153954,2220.0762240420545 L 325.6314740967525,2224.0704214717507 L 324.7976818710086,2227.655877805166 L 323.2095060170523,2229.8115797082105 L 319.397883577292,2229.9477267179072 L 314.8715818081096,2229.471211012799 L 311.45700284396867,2229.7435063579023 L 307.25092126960266,2221.801483353043 L 296.1070872409428,2198.695951643541 L 292.67821511950956,2185.3442939781553 L 293.58585792642674,2146.7564757414866 L 281.0301350328088,2089.2362307198396 L 261.9192163118123,2036.65935211022 L 240.53919057347076,1978.1272709054754 L 237.46329054635092,1947.693848751968 L 237.71541381931644,1944.2469495409323 L 237.41286589176354,1940.8867396725327 L 236.55564822731773,1937.5842647340244 L 235.19418401691638,1934.455421187393 L 216.28496342644462,1880.396833215671 L 187.49252322054738,1797.567976141323 L 171.30623056288408,1751.1940670741503 L 165.91079983962226,1743.1414452011088 L 139.28661685398478,1719.8490066405698 L 135.9081693871369,1714.5552029823464 L 134.84925310431703,1708.0681366158497 L 135.70647076878936,1698.1760517697587 L 140.34553313675158,1681.3553756558292 L 140.4463819580709,1673.6999523598854 L 135.60562194747004,1666.7421874127667 L 127.84023538559893,1656.1437083654434 L 124.91560932224127,1646.562531675565 L 123.85669255153535,1623.2577704877822 L 113.21710458092254,1578.3969982906078 L 83.16404996176236,1499.2824725538171 L 58.30472793531479,1433.620493956972 L 39.597205475282024,1384.3285237440568 L 24.217705827475076,1336.57293510123 L 5.005937309395292,1276.8109398489933 L 0.0,1261.3134673201375" fill="none" stroke="#000000" stroke-width="2.2299477267179073"/>
	<path d="M 498.6626593345899,518.6883702133853 L 489.78793134743154,515.534263248633 L 475.8707452192028,504.04691017379304 L 469.3520863238417,500.6076152184242 L 468.18138950117316,498.00506617331774 L 454.41547656996806,484.8911001966584 L 452.82710211912206,483.81920853508876 L 450.6336326184937,482.5388650576928 L 449.80162687016934,482.8961733633644 L 449.0452577288551,483.38746834081684 L 447.83506806805235,484.77200234661836 L 446.4736038769496,487.39209312024576 L 445.9189338168273,488.19595786851414 L 445.3138383282748,488.9253791980962 L 444.55746962572664,489.4910464051093 L 440.17053018567526,491.7089956458803 L 439.41416148312504,492.3044014529788 L 438.7334298263305,492.974225359143 L 438.3552450362894,493.91196410992393 L 438.128334337778,494.8943384988446 L 437.97706112378233,496.0106496659036 L 437.447602681008,497.1120532332839 L 436.6155969326837,498.064599746718 L 433.96830603500405,499.74639577572947 L 433.13630072547227,500.4905354342071 L 432.6824793284476,501.249547393128 L 432.2286579313963,502.1424876942518 L 431.2453780915728,503.3479328814713 L 429.808277732228,504.8212157466408 L 426.55589178476197,507.2170703632359 L 424.5893325438769,508.02062405819436 L 423.0765947000144,508.243831354568 L 422.0176786919468,507.9908628047405 L 421.03439885212333,507.6337295225568 L 406.86508951357604,504.86586038166774 L 404.67162045168715,503.8539135386398 L 403.0832455620772,502.73777275519575 L 399.9821332673708,500.9816621643401 L 398.5450329080301,499.8208103315719 L 397.6373901139521,498.6152821501313 L 397.03229506416767,497.52879457722275 L 396.12465227009375,496.4422834406719 L 392.9479033684038,494.4329220303507 L 392.11589762007947,493.55473267011087 L 391.8133498758165,492.60210227870505 L 391.7125007739774,491.5006017188332 L 391.86377486550515,490.4288484226389 L 393.0235404141534,486.36491406840867 L 393.3260877196789,484.04252132150356 L 393.0235404141534,482.7919583098591 L 392.26717127283916,481.79446396609967 L 385.7371873218175,477.4171677459689 L 383.69499147394885,475.67507854008556 L 383.31680668390766,474.85612686488105 L 383.0142593783862,473.8584778312085 L 382.8629857256245,472.7267920974693 L 382.8629857256245,471.56529889950247 L 382.40916432860183,469.88257731200684 L 381.6527956260536,467.8572801783347 L 379.5349627324088,464.4915371544758 L 378.8542306368442,462.570283002122 L 378.8542306368442,461.25961871244795 L 379.383689079645,460.5149079387224 L 380.29133187372304,460.06807647586186 L 381.27461083601247,459.7850809718233 L 383.54371738242105,459.6510299778087 L 384.6026338292302,459.7552921804076 L 385.9640980203574,460.1574432881526 L 388.6870255250206,461.25961871244795 L 390.90570752051065,461.58728741574924 L 391.05698117327034,460.7830050459337 L 390.30061247072217,459.1595070053595 L 386.41791941738006,454.9292331898289 L 384.98081818050326,452.60541285519446 L 384.1488128709715,450.7730952105281 L 384.2244494779592,449.58130853109714 L 384.6782708750104,447.4658192723958 L 384.98081818050326,446.51233024248756 L 385.9640980203574,444.8585814096944 L 386.49355602436367,444.0987329475912 L 387.8550197766963,442.713097379776 L 388.61138847924246,442.2214104569869 L 389.54424332941,441.86381784424634 L 390.6031597762191,441.5807220470707 L 391.7125007739774,441.4615227741897 L 392.9479033684038,441.55092264384933 L 395.06573626204863,442.04261498208484 L 401.41923406545504,444.8585814096944 L 402.40251390530716,444.9926712028416 L 403.3857933063667,444.81388438808665 L 404.21779905466445,444.3073195590769 L 404.9741677572086,443.6815561328949 L 406.48690560107104,441.29762416260337 L 410.11747589981223,433.0424008237782 L 411.1763919078798,431.4627299344805 L 411.7814869576663,430.79210035897387 L 412.4622190532309,430.18107410302343 L 419.4460244012773,426.38062573135767 L 419.79899669646085,424.94979548072257 L 419.74857214554027,422.5798949493674 L 417.3786160585245,412.35377740801107 L 417.3786160585245,411.2803637535376 L 417.83243745557576,407.8065215196784 L 418.5383816072034,405.8831343531717 L 419.0426279939127,405.1227050209013 L 419.79899669646085,404.6902993582741 L 420.7318515465978,404.6306569281052 L 421.48822024914597,405.0779742327473 L 422.16895234470854,405.70421103805825 L 423.6060531428173,408.1643538114683 L 424.2111481926038,408.9247372809136 L 424.81624324238817,409.59565424546395 L 425.648248990686,409.9534734683601 L 426.48025430024427,409.90874639735154 L 427.3122604873081,409.5061994367505 L 428.0686291898543,408.9396467694915 L 429.3544563352053,407.6276054703357 L 430.48900938902256,406.0620570406291 L 431.2453780915728,404.4069973235373 L 431.32101469855434,403.2439495961013 L 431.32101469855434,401.9466733008266 L 431.0184673930615,399.02395286949894 L 431.32101469855434,397.502879319532 L 431.85047358012525,396.4142393855255 L 434.2708533405255,394.90800104503165 L 434.9515854360616,393.7745649925478 L 435.17849657336745,391.95504869059346 L 434.34649038627714,383.8708376778793 L 434.49776403903684,382.7669899058989 L 435.17849657336745,381.1410089108651 L 435.6323170928581,380.4846341313781 L 435.70795457737376,380.4398811981628 L 440.5487149757144,372.876043093732 L 441.0781729797492,371.30942731527733 L 441.6832680295336,369.11608445950327 L 442.21272603356846,364.4008223810977 L 442.21272603356846,362.11764331165426 L 442.06145281957475,360.4313086477702 L 436.99378128395676,349.4762300786096 L 436.01050188289923,346.6549900340098 L 435.4810438788624,344.53522560777606 L 435.5566804858766,343.38573899519065 L 436.842507631195,336.20459031631316 L 436.7668705854454,334.36808376178993 L 436.3130491884227,333.14370937226715 L 435.5566804858766,332.51657898130395 L 433.81703194347426,331.5460053464807 L 426.6315283917741,329.48534149536204 L 424.81624324238817,328.70883776158723 L 424.0598745398441,328.21604955269186 L 422.54713669598164,326.97659397042287 L 421.86640460041906,326.2597862897298 L 420.5049408480844,325.06508417881685 L 416.47097370324315,322.287293788159 L 415.71460500069696,321.1522386590685 L 415.4876943021857,320.0470292671406 L 416.6978844017545,312.84764411155726 L 416.54661074899275,311.0999217360626 L 416.09278935197005,309.93474006787665 L 414.12623054982447,308.6948378237881 L 413.29422436276064,307.5594794061225 L 412.3109454004671,305.81157448114186 L 410.57129729686346,301.89724523882865 L 409.36110675849596,300.313499405752 L 408.075280051917,299.32736857464755 L 404.5959829671695,298.2515679643006 L 403.5504722033052,297.91225477007487 L 405.5564324353906,290.5364048761756 L 404.68293542297647,283.5698533590808 L 398.6478663973877,280.5569943885172 L 401.6256966114347,271.96465496779217 L 405.00057078892786,236.70904207231231 L 411.5915009730709,217.9761339992768 L 413.65612987593795,206.87449533885854 L 411.6709100585068,196.83142226797662 L 413.77524326013764,194.70939096640126 L 416.395733809445,191.07815189795917 L 418.65888420612464,189.26243474002808 L 415.32371481530777,185.30064365792538 L 417.58686569989794,184.7582315895572 L 418.06331826092674,184.47523112093256 L 457.1127985924891,187.3959548334038 L 459.2306306702264,186.49747059194988 L 464.6260618813682,182.31931177420898 L 467.80281121766075,181.12120972770273 L 470.727437281049,181.33087965305782 L 477.6356056905372,183.1130391484339 L 481.11490246655376,183.3676278121667 L 499.1669049047835,177.42188990765246 L 505.11700634064704,177.42188990765246 L 507.6343603633487,178.57168277896142 L 510.462012897232,179.86317188622448 L 515.9078682750506,184.26616717321934 L 520.748629261444,190.15120512210964 L 524.1270762403487,197.02370108990326 L 528.6652892991913,202.9371919871941 L 535.1196367931303,203.8503534464197 L 562.6514620978562,196.69432159852923 L 585.9980464379956,186.67716883520387 L 600.9741493369569,185.41926944022214 L 603.394529342245,176.59811769961124 L 612.4709554598995,160.35957194127752 L 616.6561964244328,150.61992908866566 L 619.2782750481235,135.84204611741302 L 620.4380406400917,107.23317345016281 L 624.2198848557812,94.4228833457843 L 628.6572481175098,86.51607540322122 L 631.531450014162,78.5780097341954 L 634.8090481718066,73.0701454496714 L 640.5070268226173,72.42477054458061 L 643.3308035767757,75.87668050039683 L 652.1551064214381,89.80197751447862 L 658.3573311303508,94.36287422830756 L 658.4077557849096,94.34787208287409 L 658.5086050941151,94.4228833457843 L 661.3323818482693,96.83818782567307 L 661.3520315242984,96.70373411652908 L 661.6853539425828,94.4228833457843 L 661.6853539425828,94.36287422830756 L 660.1726162563012,83.69512924303824 L 664.5091306967371,79.31334607368768 L 671.5116391752455,77.7717314095516 L 679.2331108105637,76.07178089252915 L 688.9650564621434,68.28216601849702 L 707.521304958418,48.87040967732635 L 716.1439096725884,46.51286382931878 L 722.598256678668,45.88216404822604 L 729.5568502306521,43.92994714135124 L 736.3137446764313,40.94140779145196 L 742.1125726364187,37.2618049713324 L 750.0796578166638,28.39961226534912 L 759.8116029803615,8.942355012266578 L 767.3248667571225,0.0 L 767.9803862910456,3.1112186295009265 L 765.3078830127961,6.703158863178154 L 764.551514657525,16.20026936307134 L 763.0387769712435,19.400631122091117 L 761.8790113792468,27.15277132781958 L 753.8615015444408,33.02617220901882 L 750.0796578166638,37.12663071653578 L 739.3896447035796,42.052744948261775 L 758.0467425089699,54.786310710346385 L 741.709175887575,77.90269089682162 L 745.1380480089512,82.43465549471298 L 758.8031113521555,91.97745713572166 L 760.7696704418375,119.11052810313859 L 771.7622305067351,125.91774867229158 L 773.3253928476286,142.66199292919418 L 767.9803862910456,154.0065415389385 L 762.6353802223998,162.5919326945321 L 762.6353802223998,171.2058223843847 L 780.8890812789505,178.87469166831264 L 779.3763435927241,186.5573706569595 L 785.8306905987793,241.7095590900559 L 788.5536185316182,248.93400679040292 L 800.0,267.9100987988684 L 793.1422562450441,280.9903428702983 L 789.6629594690276,281.8871502954532 L 781.2924780278472,296.32356686624917 L 775.5944993770366,313.5492372441674 L 777.4602091575458,320.7485227719507 L 773.7287895964722,335.5621008163309 L 749.3232884856268,364.4451240204615 L 736.3393426789279,383.84756521031136 L 736.2633205096993,383.8852890599627 L 727.8424139259945,386.04816396089547 L 701.016532809863,402.9601732502772 L 684.8302401521996,417.42190609665636 L 677.0144284478877,421.47641848748145 L 665.4704874969171,420.09658947871975 L 665.4167735036257,420.0901691404169 L 656.4411966951725,426.54410697738723 L 649.0792068822267,436.30544126013643 L 644.7426919538539,440.1498519296767 L 641.2633956657703,441.6249556818136 L 640.2044793829484,443.5320978932727 L 639.9523561099563,448.2698453500756 L 641.9189151996954,452.4261873894509 L 646.0537315096392,454.8691836437781 L 646.0537315096392,458.45898494108167 L 642.6752840428504,458.45898494108167 L 642.6752840428504,462.763435475948 L 645.44863663033,467.9461685993965 L 646.9613738286724,482.80638114433793 L 649.6843017615645,489.93715597464455 L 647.6673180172135,493.06306949148046 L 646.9613738286724,493.3905352688236 L 646.7092510436195,492.0360045456893 L 646.0537315096392,489.93715597464455 L 644.893965917671,491.9913488803934 L 642.6752840428504,498.1683182491287 L 639.6498086702874,494.2240746530886 L 641.3138203203312,506.2791105832514 L 642.6752840428504,509.98434815892824 L 636.0192384183907,509.98434815892824 L 636.0192384183907,513.8827422214315 L 638.5908923874941,513.5851654986624 L 640.6078756439366,513.6744385817221 L 644.0871724199573,518.807389492533 L 645.0956640481631,521.2472203814702 L 649.6843017615645,526.0224079690124 L 649.6843017615645,529.62209929026 L 645.2973626665413,530.9310153810436 L 642.3727361152996,533.9800652615825 L 640.5574509893206,537.9063798839439 L 639.6498086702874,541.758041226277 L 641.4650937962664,543.0369067978783 L 642.5744347336757,544.1075609838999 L 643.8854742894611,544.8807970229086 L 646.0537315096392,545.3268892407935 L 646.0537315096392,549.6240487627206 L 642.9778314825479,551.7055881420699 L 639.6498086702874,553.1923506588539 L 642.6752840428504,557.1171963018179 L 636.0192384183907,561.4282338075268 L 637.0781547012411,562.439045685146 L 638.0866463294491,562.2458036992924 L 638.8934403150429,562.632286944236 L 639.6498086702874,565.3227227689354 L 636.0192384183907,565.3227227689354 L 636.0192384183907,568.8899344508328 L 639.0447137909231,571.9070071679331 L 639.4985351944114,574.2254266060258 L 637.4311267954688,575.830424262343 L 632.6912156061874,576.7517890506903 L 634.8594728264226,583.0968705775886 L 636.0192384183907,584.9690400543095 L 638.3891942569979,587.4800179724675 L 640.4061775134445,591.0456928535713 L 600.9741493369569,580.8680086104681 L 589.5277678685751,577.8811814658716 L 577.8796877818723,577.5096736923272 L 565.2231160669065,573.7498620153839 L 562.5506127886263,559.243029220148 L 562.7523109191204,541.4308842229882 L 558.4157964786825,527.8966588961559 L 543.8935149832074,518.8966534826615 L 529.3712334877304,517.1857299236091 L 498.6626593345899,518.6883702133853" fill="none" stroke="#000000" stroke-width="2.2299477267179073"/>
	<path d="M 469.3520863238417,500.6076152184242 L 468.5087554062019,500.1626504475686 L 459.7853013828302,500.6984280770202 L 452.97798228249025,505.89220265085174 L 440.72480731644765,520.161212765293 L 425.5974304536977,529.7113444600471 L 410.9742996490213,536.672002693001 L 398.1160293157039,545.9365427971973 L 388.5353576279415,562.632286944236 L 382.68906110643474,592.4926895320795 L 382.45958887952037,592.5169259996867 L 377.11458253324054,593.0814522118196 L 373.78655953999424,592.2792290083341 L 373.2571015359594,591.4769927797605 L 372.72764353195316,590.6301749906858 L 372.1225480433742,589.768485280595 L 371.13926908108067,588.9810675981371 L 369.5508941914686,588.0004917481177 L 361.8107201408761,580.9576293901946 L 359.7685242929809,579.7242862819398 L 358.1801494033668,579.0853138430858 L 333.8754978711258,577.064324642701 L 329.1860111255489,577.6884622752222 L 328.1270946787418,577.9559474388774 L 322.5299651390869,578.4314732404239 L 302.46097895539805,577.9410870735646 L 302.21977737819066,577.9410870735646 L 304.8660726597971,564.815471999409 L 319.9537447358748,489.8084548274794 L 322.7330529681415,484.2523524349531 L 325.6711783955163,458.5270058760204 L 328.1328512618316,450.83268411605275 L 327.259354737328,442.3394350919661 L 338.4559957760914,395.29598501988886 L 341.116190624189,343.5309105511072 L 345.046925960265,331.8453510790334 L 352.31283117507047,327.8006282895865 L 358.5067178836227,329.3056791983921 L 368.39311364773545,335.79570009922827 L 375.857540844264,337.25348908514655 L 380.2250249304891,336.3364975341519 L 397.3376216106456,317.9931908465865 L 399.4419548122499,313.076999965742 L 403.5504722033052,297.91225477007487 L 404.5959829671695,298.2515679643006 L 408.075280051917,299.32736857464755 L 409.36110675849596,300.313499405752 L 410.57129729686346,301.89724523882865 L 412.3109454004671,305.81157448114186 L 413.29422436276064,307.5594794061225 L 414.12623054982447,308.6948378237881 L 416.09278935197005,309.93474006787665 L 416.54661074899275,311.0999217360626 L 416.6978844017545,312.84764411155726 L 415.4876943021857,320.0470292671406 L 415.71460500069696,321.1522386590685 L 416.47097370324315,322.287293788159 L 420.5049408480844,325.06508417881685 L 421.86640460041906,326.2597862897298 L 422.54713669598164,326.97659397042287 L 424.0598745398441,328.21604955269186 L 424.81624324238817,328.70883776158723 L 426.6315283917741,329.48534149536204 L 433.81703194347426,331.5460053464807 L 435.5566804858766,332.51657898130395 L 436.3130491884227,333.14370937226715 L 436.7668705854454,334.36808376178993 L 436.842507631195,336.20459031631316 L 435.5566804858766,343.38573899519065 L 435.4810438788624,344.53522560777606 L 436.01050188289923,346.6549900340098 L 436.99378128395676,349.4762300786096 L 442.06145281957475,360.4313086477702 L 442.21272603356846,362.11764331165426 L 442.21272603356846,364.4008223810977 L 441.6832680295336,369.11608445950327 L 441.0781729797492,371.30942731527733 L 440.5487149757144,372.876043093732 L 435.70795457737376,380.4398811981628 L 435.6323170928581,380.4846341313781 L 435.17849657336745,381.1410089108651 L 434.49776403903684,382.7669899058989 L 434.34649038627714,383.8708376778793 L 435.17849657336745,391.95504869059346 L 434.9515854360616,393.7745649925478 L 434.2708533405255,394.90800104503165 L 431.85047358012525,396.4142393855255 L 431.32101469855434,397.502879319532 L 431.0184673930615,399.02395286949894 L 431.32101469855434,401.9466733008266 L 431.32101469855434,403.2439495961013 L 431.2453780915728,404.4069973235373 L 430.48900938902256,406.0620570406291 L 429.3544563352053,407.6276054703357 L 428.0686291898543,408.9396467694915 L 427.3122604873081,409.5061994367505 L 426.48025430024427,409.90874639735154 L 425.648248990686,409.9534734683601 L 424.81624324238817,409.59565424546395 L 424.2111481926038,408.9247372809136 L 423.6060531428173,408.1643538114683 L 422.16895234470854,405.70421103805825 L 421.48822024914597,405.0779742327473 L 420.7318515465978,404.6306569281052 L 419.79899669646085,404.6902993582741 L 419.0426279939127,405.1227050209013 L 418.5383816072034,405.8831343531717 L 417.83243745557576,407.8065215196784 L 417.3786160585245,411.2803637535376 L 417.3786160585245,412.35377740801107 L 419.74857214554027,422.5798949493674 L 419.79899669646085,424.94979548072257 L 419.4460244012773,426.38062573135767 L 412.4622190532309,430.18107410302343 L 411.7814869576663,430.79210035897387 L 411.1763919078798,431.4627299344805 L 410.11747589981223,433.0424008237782 L 406.48690560107104,441.29762416260337 L 404.9741677572086,443.6815561328949 L 404.21779905466445,444.3073195590769 L 403.3857933063667,444.81388438808665 L 402.40251390530716,444.9926712028416 L 401.41923406545504,444.8585814096944 L 395.06573626204863,442.04261498208484 L 392.9479033684038,441.55092264384933 L 391.7125007739774,441.4615227741897 L 390.6031597762191,441.5807220470707 L 389.54424332941,441.86381784424634 L 388.61138847924246,442.2214104569869 L 387.8550197766963,442.713097379776 L 386.49355602436367,444.0987329475912 L 385.9640980203574,444.8585814096944 L 384.98081818050326,446.51233024248756 L 384.6782708750104,447.4658192723958 L 384.2244494779592,449.58130853109714 L 384.1488128709715,450.7730952105281 L 384.98081818050326,452.60541285519446 L 386.41791941738006,454.9292331898289 L 390.30061247072217,459.1595070053595 L 391.05698117327034,460.7830050459337 L 390.90570752051065,461.58728741574924 L 388.6870255250206,461.25961871244795 L 385.9640980203574,460.1574432881526 L 384.6026338292302,459.7552921804076 L 383.54371738242105,459.6510299778087 L 381.27461083601247,459.7850809718233 L 380.29133187372304,460.06807647586186 L 379.383689079645,460.5149079387224 L 378.8542306368442,461.25961871244795 L 378.8542306368442,462.570283002122 L 379.5349627324088,464.4915371544758 L 381.6527956260536,467.8572801783347 L 382.40916432860183,469.88257731200684 L 382.8629857256245,471.56529889950247 L 382.8629857256245,472.7267920974693 L 383.0142593783862,473.8584778312085 L 383.31680668390766,474.85612686488105 L 383.69499147394885,475.67507854008556 L 385.7371873218175,477.4171677459689 L 392.26717127283916,481.79446396609967 L 393.0235404141534,482.7919583098591 L 393.3260877196789,484.04252132150356 L 393.0235404141534,486.36491406840867 L 391.86377486550515,490.4288484226389 L 391.7125007739774,491.5006017188332 L 391.8133498758165,492.60210227870505 L 392.11589762007947,493.55473267011087 L 392.9479033684038,494.4329220303507 L 396.12465227009375,496.4422834406719 L 397.03229506416767,497.52879457722275 L 397.6373901139521,498.6152821501313 L 398.5450329080301,499.8208103315719 L 399.9821332673708,500.9816621643401 L 403.0832455620772,502.73777275519575 L 404.67162045168715,503.8539135386398 L 406.86508951357604,504.86586038166774 L 421.03439885212333,507.6337295225568 L 422.0176786919468,507.9908628047405 L 423.0765947000144,508.243831354568 L 424.5893325438769,508.02062405819436 L 426.55589178476197,507.2170703632359 L 429.808277732228,504.8212157466408 L 431.2453780915728,503.3479328814713 L 432.2286579313963,502.1424876942518 L 432.6824793284476,501.249547393128 L 433.13630072547227,500.4905354342071 L 433.96830603500405,499.74639577572947 L 436.6155969326837,498.064599746718 L 437.447602681008,497.1120532332839 L 437.97706112378233,496.0106496659036 L 438.128334337778,494.8943384988446 L 438.3552450362894,493.91196410992393 L 438.7334298263305,492.974225359143 L 439.41416148312504,492.3044014529788 L 440.17053018567526,491.7089956458803 L 444.55746962572664,489.4910464051093 L 445.3138383282748,488.9253791980962 L 445.9189338168273,488.19595786851414 L 446.4736038769496,487.39209312024576 L 447.83506806805235,484.77200234661836 L 449.0452577288551,483.38746834081684 L 449.80162687016934,482.8961733633644 L 450.6336326184937,482.5388650576928 L 452.82710211912206,483.81920853508876 L 454.41547656996806,484.8911001966584 L 468.18138950117316,498.00506617331774 L 469.3520863238417,500.6076152184242" fill="none" stroke="#000000" stroke-width="2.2299477267179073"/>
	<path d="M 382.68906110643474,592.4926895320795 L 380.7699715539238,602.2908071984434 L 377.24025012334846,614.1126111192591 L 375.4249649974266,615.4787753968134 L 368.9201928488735,617.8694751240427 L 367.05448306830715,619.2058433477595 L 365.0374998118647,626.4958623429347 L 363.32306350723564,644.575410772276 L 361.8103263088381,652.099266587737 L 367.9117012206084,654.0134453567501 L 371.29014868742775,658.3163781917798 L 372.1473663519021,664.3695532947264 L 370.43293053515504,671.6680258092484 L 366.8527849378151,678.7726622389893 L 347.89313969272735,696.2408698699998 L 341.3883675441457,704.6762864284381 L 340.4303000826717,710.1904376667721 L 348.34696109615635,727.9147490432015 L 350.7673411014446,737.6042408443902 L 356.9191406678879,791.6188496026513 L 357.17126394082084,802.3025812889022 L 356.3140457885216,814.9959063977186 L 356.3140457885216,815.3805038773094 L 356.46531926439974,815.7355146310457 L 356.7678671919506,816.0313555517031 L 357.120839286264,816.2680265040342 L 357.5242355471951,818.1613576410132 L 357.6755099988678,820.2321093008379 L 357.5242355471951,822.3027785281853 L 357.120839286264,824.2550487204348 L 355.05343088732155,841.4082111992695 L 364.6845272296999,863.7579917309232 L 370.4833551897118,882.9073228193635 L 357.120839286264,890.3819282758312 L 343.9095968586638,895.0493207060988 L 341.0214499852087,902.7736087605425 L 340.5063309239886,903.4234565395373 L 340.17857156240416,903.8369362217978 L 332.96785507705187,906.9526986551889 L 325.47980378105603,906.9083996744099 L 323.43760793316494,907.6614710713266 L 322.15178122658193,909.4038308482154 L 318.5212104890747,917.8490195726604 L 315.42009819436834,920.8163237679624 L 312.3946229454156,922.5434825625566 L 282.6945405159966,930.7356386568181 L 266.58388443139734,943.57481511878 L 262.57512978135856,945.6701060237164 L 261.9700347315721,945.1241583645476 L 260.75984463200325,943.7518855628019 L 259.92783888370343,942.4681140930535 L 258.86892243686776,940.4022087271197 L 255.61653648940168,930.5585241490038 L 254.40634638980225,927.7246171159711 L 252.79275944412723,925.3776709372305 L 251.2043849932588,924.0934483994057 L 242.9599649947189,919.2662607552523 L 240.46394774979896,918.3804894555147 L 239.02684651292216,918.0704666990913 L 237.5141091078278,919.9453413882256 L 236.3795560540065,920.5948887888366 L 228.33683382035844,921.790625607302 L 226.92494551710524,922.2334834693443 L 226.67282276250234,922.9125260690131 L 227.12664372078552,923.4882294357277 L 227.88301242333372,924.0048799701308 L 228.89150475801685,924.3148685592984 L 229.79914711329823,924.787227610691 L 230.5555158158444,925.3776709372305 L 231.08497381987718,926.1747589280698 L 231.3875215641687,927.1932422236908 L 231.84134296119345,928.0788637016308 L 232.29516435821816,928.905430249063 L 233.0515330607643,929.5253469707802 L 233.65662811057527,930.204294361196 L 233.65662811057527,930.9570301775213 L 232.9002589692631,931.8721070020649 L 230.17733190333936,932.6838540321033 L 228.18556060636476,933.7317286018965 L 223.1935261165249,937.5393191268224 L 221.45387757415114,938.2034050044067 L 219.2604080734942,937.9672865927538 L 207.53669099020883,933.9531074402439 L 207.1585070777038,933.4660723480871 L 206.8559593334143,932.8019258102004 L 206.70468568065255,932.1968071204935 L 206.55341202789285,931.4440891487293 L 206.70468568065255,930.4256881313212 L 207.08287003192564,929.5401063995197 L 207.6123284747285,928.7725900321266 L 208.29305969273048,928.123144741423 L 209.881434582367,927.1784816187866 L 212.67999957157846,925.90906428136 L 213.43636827412666,925.4514759484294 L 214.19273697667282,924.8462727058155 L 214.79783202645726,924.182016678655 L 215.32729003049002,923.34061376591 L 215.62983777475503,922.4106261802227 L 215.70547482053118,921.4363358969924 L 215.47856412199127,920.6391756541809 L 213.43636827412666,918.557645224709 L 210.18398232665854,916.239814829022 L 208.74688108978174,914.9110755608839 L 207.83923917323986,913.8037671989548 L 207.68796508171005,913.2279581733177 L 207.46105438319873,912.3716135903578 L 207.38541777621515,911.4561963560274 L 207.46105438319873,910.5259972599047 L 207.68796508171005,909.8910901825898 L 207.91487578024996,909.2709410566392 L 208.67124448279816,908.1044497188249 L 209.04942883407125,907.6910033036158 L 209.7301609296073,907.2627873851598 L 210.63780372368123,906.9526986551889 L 211.69671973172433,906.8198026280444 L 213.7389155796216,907.2037229336653 L 216.68875378282468,908.2816398176152 L 218.6553130237098,908.62125236531 L 219.48731877203411,908.665549893574 L 220.31932452032987,908.62125236531 L 221.22696687563982,908.3997662162735 L 221.90769897117383,907.9124929716951 L 222.5127940209868,907.1741909398331 L 222.73970471949815,906.0962512026571 L 222.73970471949815,901.2230972115713 L 223.34480020805472,899.3032450531738 L 223.57171002902993,898.3285237459382 L 223.64734751357616,897.2651704708841 L 223.11788950953928,893.7500441037186 L 223.04225202499714,892.9081508875987 L 223.2691627235085,892.0367030225926 L 223.79862072754128,891.3720301741918 L 225.1600853574345,889.909718982032 L 225.61390587692716,888.9052799348179 L 225.86602950906212,887.5610736935057 L 225.41220811201086,884.9464190875034 L 224.55498986885547,883.9418839881096 L 223.57171002902993,883.5577920634744 L 222.5884310667364,883.8532479575031 L 221.07569366164614,883.8680208111036 L 219.10913442076102,883.5873379338177 L 215.1003793319501,882.0066232267437 L 212.83127278554562,881.5634230720766 L 210.86471442219255,881.5929700718768 L 209.881434582367,882.0361694613443 L 205.64576923384138,883.2918805340558 L 203.73727876238547,883.9245778026374 L 217.03993886236137,853.8652749988865 L 226.17195099825565,839.4777693277109 L 236.88694770628604,804.1570076418985 L 236.90901405804337,804.182087979444 L 241.29595305933074,809.1678839154448 L 243.71633369726504,810.6324628779585 L 259.3983808796686,812.6739283880539 L 269.3824489818142,812.8958222298023 L 271.0464604784343,812.6295497119993 L 272.71047197505845,812.0082416961344 L 273.08865632633155,811.8307244920976 L 273.2399299790933,811.7863445815047 L 273.2399299790933,811.7419646330087 L 273.3155670248429,811.7123784945519 L 280.67755716293044,803.826997967498 L 281.1313781212157,803.190788983873 L 281.9381713746824,802.451002608484 L 283.2492110148625,801.5040593221356 L 286.27468670258327,799.7876814722753 L 288.0899714131725,799.2993913732098 L 289.5270722112813,799.2402038833252 L 290.4347150053552,799.6101214989272 L 291.1910837079054,800.1427985688656 L 293.08200546427287,802.2290636639611 L 295.0485647051539,803.8713841585421 L 296.33439185050497,804.2708597171512 L 298.5278613511354,803.8713841585421 L 307.0748290939607,800.3647453931579 L 309.2178740436991,798.7075175609071 L 310.2767904905368,797.2426025312121 L 310.12551639900704,796.2363744449257 L 309.8229690934856,795.4816900763825 L 309.5204213492226,795.0377532466297 L 308.3606558005437,793.8834991175445 L 307.6042870979976,793.2767665732565 L 303.21734809671227,791.1901409451125 L 302.46097895539805,790.6425732641599 L 302.08279504288896,789.8434094876427 L 301.78024685986,788.8370380688069 L 299.6624144049526,775.2639152502046 L 299.2842304924476,774.2572606818823 L 298.90604570240646,773.3690202423451 L 298.3765876984022,772.5991994958038 L 297.015123946039,771.2963997512792 L 294.7460173996325,769.6974641715124 L 293.98964825831825,769.0756429281705 L 292.55254746023604,768.054062543163 L 292.09872606318476,767.565473935386 L 291.72054171191166,767.1657159166159 L 291.266720314887,766.5290581272776 L 290.88853640238193,765.6999106768963 L 290.5859882193244,764.7226840035369 L 290.4347150053552,763.6269838150764 L 290.4347150053552,762.5904893209289 L 290.88853640238193,760.4285911056282 L 291.41799440641677,758.4294956967542 L 291.72054171191166,752.7131380943769 L 292.09872606318476,750.1361284920997 L 292.55254746023604,748.980875742557 L 295.7292968007206,744.9817249331518 L 296.78821324752766,743.2190381007733 L 300.1162358020079,736.3750979809186 L 301.4020629473549,731.9897602190689 L 301.4020629473549,730.7896535921049 L 301.25078885582514,729.6339699356078 L 300.34314650051925,727.144716034189 L 300.19187240898947,726.3445737019327 L 300.2675094547676,725.0702465462496 L 300.72133085179235,723.1290605690327 L 301.09951564183143,720.7284092609466 L 301.09951564183143,716.4158488633786 L 301.0238781573138,715.2598432789019 L 300.72133085179235,714.2520225632967 L 300.2675094547676,713.39239588915 L 299.6624144049526,712.7402554632204 L 297.015123946039,711.391484579679 L 296.25875480472683,710.9023608599889 L 295.6536597549424,710.2501895678755 L 294.51910670112113,708.679014590733 L 292.17436310896295,707.1374377697254 L 289.30016151276993,704.6619255856542 L 288.4681557644456,704.0837954792203 L 286.72850722207187,703.2388236361799 L 284.6106747671931,702.6903255270746 L 274.2988464259024,701.3561169340187 L 271.3066103977463,701.4448273408598 L 287.51524969915374,650.8145751891927 L 302.21977737819066,577.9410870735646 L 302.46097895539805,577.9410870735646 L 322.5299651390869,578.4314732404239 L 328.1270946787418,577.9559474388774 L 329.1860111255489,577.6884622752222 L 333.8754978711258,577.064324642701 L 358.1801494033668,579.0853138430858 L 359.7685242929809,579.7242862819398 L 361.8107201408761,580.9576293901946 L 369.5508941914686,588.0004917481177 L 371.13926908108067,588.9810675981371 L 372.1225480433742,589.768485280595 L 372.72764353195316,590.6301749906858 L 373.2571015359594,591.4769927797605 L 373.78655953999424,592.2792290083341 L 377.11458253324054,593.0814522118196 L 382.45958887952037,592.5169259996867 L 382.68906110643474,592.4926895320795" fill="none" stroke="#000000" stroke-width="2.2299477267179073"/>
	<path d="M 341.0214499852087,902.7736087605425 L 340.0773284762423,905.2983959481659 L 344.6659657017617,914.8663223721089 L 360.7514095381322,917.700926818881 L 368.36552262406803,917.7895061411834 L 371.84481940008664,917.080870787397 L 376.6855794106875,914.0690618993686 L 385.30818412485786,904.7963269250705 L 388.93875486466516,902.4926531609551 L 395.8469227863265,903.6445027445654 L 421.3113406678758,915.8407349395443 L 455.2470883240428,923.8125204880547 L 463.51672094393234,928.9197293573343 L 467.34898981423174,936.0040487183392 L 468.2062074786224,945.5073367184432 L 467.50026329008534,957.7823219323772 L 465.68497816416146,961.0276306414861 L 463.4662962893429,961.7356710020102 L 460.94506697485343,960.4965938039368 L 458.17171438740246,957.8708334139561 L 428.0682351135998,964.3612387814181 L 418.7901108654778,969.0220326577022 L 410.0666573299881,976.071434578637 L 393.07357117461095,993.4106978965098 L 353.84324112861947,1022.9744894553936 L 344.9180889747803,1033.5226407876007 L 343.8752754245436,1035.546518752817 L 343.6830802644732,1035.4085809766586 L 308.91532673820217,1010.4499517027058 L 304.7300855018066,1006.5887035412295 L 305.25954394460746,1003.2872579042644 L 305.33518055159107,998.2609973662798 L 305.1839068988293,997.1112285911946 L 304.35190115052944,994.0745369881548 L 304.27626410477984,992.924675430918 L 304.5788118490408,989.5633988093846 L 303.9737167992564,982.26514762136 L 303.9737167992564,981.0413010247796 L 304.1249908907862,979.8616626458384 L 304.35190115052944,978.8294574167379 L 305.56209125010236,976.012907982582 L 305.7890019486423,974.9363865621713 L 305.8646385556238,973.7566102656496 L 305.8646385556238,972.5178176727125 L 305.56209125010236,970.18762761373 L 303.5955324479833,964.2289492883979 L 303.36862174947197,963.2111860060235 L 303.36862174947197,962.178653238072 L 303.5955324479833,961.1756011374999 L 304.42753819630764,959.0514280240444 L 304.80572254755623,957.5467530778863 L 304.956996200318,954.9798547259246 L 304.5788118490408,953.5340754981187 L 303.9737167992564,952.501351384956 L 303.2929847036938,951.8522000571412 L 301.4776995543385,951.1292725026095 L 300.34314650051925,950.9669804014164 L 295.88057045345374,947.5292372610547 L 282.6945405159966,930.7356386568181 L 312.3946229454156,922.5434825625566 L 315.42009819436834,920.8163237679624 L 318.5212104890747,917.8490195726604 L 322.15178122658193,909.4038308482154 L 323.43760793316494,907.6614710713266 L 325.47980378105603,906.9083996744099 L 332.96785507705187,906.9526986551889 L 340.17857156240416,903.8369362217978 L 340.5063309239886,903.4234565395373 L 341.0214499852087,902.7736087605425" fill="none" stroke="#000000" stroke-width="2.2299477267179073"/>
	<path d="M 236.88694770628604,804.1570076418985 L 241.4978498427328,788.9503083892275 L 241.81548472080016,786.2233641073557 L 241.18021447680997,779.929868994543 L 241.4978498427328,777.202450917726 L 248.16818911231175,773.6356108554661 L 271.3066103977463,701.4448273408598 L 274.2988464259024,701.3561169340187 L 284.6106747671931,702.6903255270746 L 286.72850722207187,703.2388236361799 L 288.4681557644456,704.0837954792203 L 289.30016151276993,704.6619255856542 L 292.17436310896295,707.1374377697254 L 294.51910670112113,708.679014590733 L 295.6536597549424,710.2501895678755 L 296.25875480472683,710.9023608599889 L 297.015123946039,711.391484579679 L 299.6624144049526,712.7402554632204 L 300.2675094547676,713.39239588915 L 300.72133085179235,714.2520225632967 L 301.0238781573138,715.2598432789019 L 301.09951564183143,716.4158488633786 L 301.09951564183143,720.7284092609466 L 300.72133085179235,723.1290605690327 L 300.2675094547676,725.0702465462496 L 300.19187240898947,726.3445737019327 L 300.34314650051925,727.144716034189 L 301.25078885582514,729.6339699356078 L 301.4020629473549,730.7896535921049 L 301.4020629473549,731.9897602190689 L 300.1162358020079,736.3750979809186 L 296.78821324752766,743.2190381007733 L 295.7292968007206,744.9817249331518 L 292.55254746023604,748.980875742557 L 292.09872606318476,750.1361284920997 L 291.72054171191166,752.7131380943769 L 291.41799440641677,758.4294956967542 L 290.88853640238193,760.4285911056282 L 290.4347150053552,762.5904893209289 L 290.4347150053552,763.6269838150764 L 290.5859882193244,764.7226840035369 L 290.88853640238193,765.6999106768963 L 291.266720314887,766.5290581272776 L 291.72054171191166,767.1657159166159 L 292.09872606318476,767.565473935386 L 292.55254746023604,768.054062543163 L 293.98964825831825,769.0756429281705 L 294.7460173996325,769.6974641715124 L 297.015123946039,771.2963997512792 L 298.3765876984022,772.5991994958038 L 298.90604570240646,773.3690202423451 L 299.2842304924476,774.2572606818823 L 299.6624144049526,775.2639152502046 L 301.78024685986,788.8370380688069 L 302.08279504288896,789.8434094876427 L 302.46097895539805,790.6425732641599 L 303.21734809671227,791.1901409451125 L 307.6042870979976,793.2767665732565 L 308.3606558005437,793.8834991175445 L 309.5204213492226,795.0377532466297 L 309.8229690934856,795.4816900763825 L 310.12551639900704,796.2363744449257 L 310.2767904905368,797.2426025312121 L 309.2178740436991,798.7075175609071 L 307.0748290939607,800.3647453931579 L 298.5278613511354,803.8713841585421 L 296.33439185050497,804.2708597171512 L 295.0485647051539,803.8713841585421 L 293.08200546427287,802.2290636639611 L 291.1910837079054,800.1427985688656 L 290.4347150053552,799.6101214989272 L 289.5270722112813,799.2402038833252 L 288.0899714131725,799.2993913732098 L 286.27468670258327,799.7876814722753 L 283.2492110148625,801.5040593221356 L 281.9381713746824,802.451002608484 L 281.1313781212157,803.190788983873 L 280.67755716293044,803.826997967498 L 273.3155670248429,811.7123784945519 L 273.2399299790933,811.7419646330087 L 273.2399299790933,811.7863445815047 L 273.08865632633155,811.8307244920976 L 272.71047197505845,812.0082416961344 L 271.0464604784343,812.6295497119993 L 269.3824489818142,812.8958222298023 L 259.3983808796686,812.6739283880539 L 243.71633369726504,810.6324628779585 L 241.29595305933074,809.1678839154448 L 236.90901405804337,804.182087979444 L 236.88694770628604,804.1570076418985" fill="none" stroke="#000000" stroke-width="2.2299477267179073"/>
</svg>
