<?xml version="1.0" ?>
<svg xmlns="http://www.w3.org/2000/svg" xmlns:ev="http://www.w3.org/2001/xml-events" xmlns:xlink="http://www.w3.org/1999/xlink" baseProfile="full" height="237px" version="1.1" viewBox="-79.77083035793531 -31.5968698027758 953.2812662674658 375.1937396055516" width="600px">
	<defs/>
	<path d="M 330.0904641298177,18.657053858677457 L 333.8314580699338,18.933308977412704 L 343.31379579198614,21.255081654333296 L 350.7874140667129,25.774558947349934 L 362.3080111532193,22.802883404426126 L 380.903436544123,22.84931714924178 L 400.0305818954842,25.000698370594684 L 413.20541869769903,28.374662959377023 L 414.8301181332441,30.07705496883809 L 416.17418799297644,34.78161460723358 L 417.93181741865567,36.406465108635544 L 420.058696897536,36.42193963902661 L 422.0231064691537,35.4934589733654 L 423.1751661415087,34.28641408179792 L 422.8945362027097,33.574556413637794 L 439.1119924560426,36.406465108635544 L 441.12071190338645,37.613470392709104 L 447.23549035979545,42.98282345351886 L 449.12604977557845,44.18970595747943 L 460.9715870396083,44.59199524777622 L 473.44943336921614,42.49677187326148 L 473.7479292174832,44.21662865780575 L 476.8804978619581,58.12756857432691 L 477.10559243893624,60.10197222791168 L 477.8183925855582,62.832641055251635 L 478.5687084949916,64.17828808776547 L 480.4726350091282,66.00517994232996 L 481.45742451786816,67.39004775467592 L 482.12332955289713,68.81417173991623 L 481.34487690293196,77.33861922886977 L 481.4761822360716,78.48756623449177 L 482.23587716783334,79.8918072121901 L 486.73777164519595,85.21390014944899 L 488.2759195533578,87.62931903947747 L 489.392014395207,91.12464455021544 L 489.8984773566193,94.35470790598319 L 490.4799721701077,96.43600157780303 L 490.92078262818285,97.43735506186295 L 493.33117210370744,100.66710543192687 L 500.29035149464073,107.64635462434966 L 478.5030559916605,119.87541880175448 L 471.12182418730265,122.71152806213243 L 422.4450855193936,128.86418660542324 L 389.59063182104074,128.42262742454375 L 371.7800097893907,125.16481057521412 L 364.792693984397,122.37787461523808 L 362.9262832330901,122.07365959397983 L 361.42565174062173,122.0442194656948 L 349.1204723925824,124.83116930330827 L 348.2388514764747,125.25312704739218 L 345.70653536369775,127.24512182219073 L 344.3465879002259,128.0105027203468 L 341.757998306428,129.0702464230508 L 340.0416509328809,129.38424129949982 L 338.46598758833034,129.4529273178113 L 329.2371034037389,127.87312724214497 L 320.7022606682611,125.06668094594508 L 335.1083243668834,56.663916804230084 L 335.2208719818135,54.79746678924854 L 335.0989456710021,53.0586735015476 L 333.16688208991707,50.66161620138912 L 332.6604191285291,49.59077093535774 L 332.65104010620684,48.22517195387945 L 333.6264505926184,45.83776029997079 L 333.91719832581583,43.62711576473251 L 333.6264505926184,40.88581108877472 L 329.46219798071706,30.11597751189016 L 329.17145057396067,27.00064481907266 L 329.9592819198071,19.442635752651988 L 330.0904641298177,18.657053858677457" fill="none" stroke="#000000" stroke-width="0.7937396055515952"/>
	<path d="M 231.9923331053029,6.9980778235360726 L 257.7659768735489,12.617664655871684 L 293.08103819811015,13.283313060061385 L 308.67815437657157,17.075830924898764 L 330.0904641298177,18.657053858677457 L 329.9592819198071,19.442635752651988 L 329.17145057396067,27.00064481907266 L 329.46219798071706,30.11597751189016 L 333.6264505926184,40.88581108877472 L 333.91719832581583,43.62711576473251 L 333.6264505926184,45.83776029997079 L 332.65104010620684,48.22517195387945 L 332.6604191285291,49.59077093535774 L 333.16688208991707,50.66161620138912 L 335.0989456710021,53.0586735015476 L 335.2208719818135,54.79746678924854 L 335.1083243668834,56.663916804230084 L 320.7022606682611,125.06668094594508 L 304.48606002578174,113.82006084380927 L 299.2901234464356,111.54302283851119 L 298.1365125153157,111.58228242206648 L 284.25566982273193,109.5014724837512 L 282.16416482091216,109.44258053904888 L 280.1383119959643,109.9922353705515 L 277.48406989882915,111.22894224552539 L 273.46050098946506,113.67284079205125 L 271.2376906545057,114.49726839747406 L 266.566974428316,115.66518883746639 L 215.34854127820807,110.50262536412592 L 231.8648683497417,7.666493484196554 L 231.9923331053029,6.9980778235360726" fill="none" stroke="#000000" stroke-width="0.7937396055515952"/>
	<path d="M 135.9369132873683,29.827166026152884 L 138.74934580762707,30.85085505759764 L 142.76678506527048,31.856780623693847 L 146.90238399149453,31.206799695040917 L 150.5801131130715,28.606809778090888 L 150.93459284472507,26.115054964785255 L 150.8312027717498,23.20530592655994 L 153.07624228217261,19.273841118113033 L 161.3031302589007,8.77844077684882 L 165.03993957776328,5.295076046147745 L 171.4501179315386,2.3998690649323846 L 186.13149413774383,0.0 L 202.7625103200039,0.6348126998295873 L 231.9923331053029,6.9980778235360726 L 231.8648683497417,7.666493484196554 L 215.34854127820807,110.50262536412592 L 173.79042374840807,125.27275272414272 L 177.24187686658777,115.23335502105614 L 177.4106979625328,111.62154232363484 L 174.50322422147713,102.44389101907994 L 173.43402383832063,100.54930587701098 L 172.89004511409686,99.82287041314412 L 172.23351844848983,99.11606005197197 L 171.48320286549134,98.55649652684806 L 170.5828235782738,98.0950981811666 L 168.50069727233526,95.5917110568726 L 164.52402380100511,87.06965679905619 L 159.90958138226534,77.80998458681238 L 159.00920242151312,76.60210360540552 L 157.20844449998438,74.89335652804624 L 152.14381260086543,72.24176254477729 L 150.83075992254555,71.29894758564309 L 150.08044433955314,70.50343662161374 L 148.2796860915834,66.39805327382724 L 144.17170728713793,58.864293231649384 L 143.1587807114556,56.48709753684239 L 142.59604361614635,53.74633751756564 L 141.70504400413307,51.88962784691288 L 141.095412450119,50.85809984878836 L 135.1866753976977,45.98513407588178 L 133.9486542450615,44.472082108822924 L 133.2921279058894,43.126025905668435 L 135.69313835911606,34.597075234633174 L 135.89009619556248,33.447349573325 L 135.9369132873683,29.827166026152884" fill="none" stroke="#000000" stroke-width="0.7937396055515952"/>
	<path d="M 10.389157332070264,86.37243024765574 L 10.98887712606708,83.55578956039659 L 10.471927487150918,72.0964593343123 L 11.16611699189084,68.84850810770317 L 13.928106504209996,64.34750716644557 L 14.2382763601618,61.48588371141011 L 15.508496064059411,59.98541444027081 L 21.15063475727834,59.521344782435186 L 24.695433888745455,57.21641582651288 L 27.575583069620933,52.761019049043846 L 31.312392388489602,49.728698883077676 L 37.39763056475962,51.73994740485319 L 41.14920984217126,40.97130268569106 L 52.28578691692758,30.757999430158296 L 65.22430401901919,26.48650263217223 L 74.5589417924066,33.574556413637794 L 79.94999046393063,27.229391932442716 L 85.71028882569982,27.105577579591195 L 92.44540735698652,29.58181836389739 L 100.70183525084306,31.206799695040917 L 124.18612963295834,28.328233571518325 L 132.01422763932658,28.374662959377023 L 135.9369132873683,29.827166026152884 L 135.89009619556248,33.447349573325 L 135.69313835911606,34.597075234633174 L 133.2921279058894,43.126025905668435 L 133.9486542450615,44.472082108822924 L 135.1866753976977,45.98513407588178 L 141.095412450119,50.85809984878836 L 141.70504400413307,51.88962784691288 L 142.59604361614635,53.74633751756564 L 143.1587807114556,56.48709753684239 L 144.17170728713793,58.864293231649384 L 148.2796860915834,66.39805327382724 L 150.08044433955314,70.50343662161374 L 150.83075992254555,71.29894758564309 L 152.14381260086543,72.24176254477729 L 157.20844449998438,74.89335652804624 L 159.00920242151312,76.60210360540552 L 159.90958138226534,77.80998458681238 L 164.52402380100511,87.06965679905619 L 134.098717296356,85.2728139973535 L 126.1453693743909,83.82941226665405 L 106.16821114168448,72.28104617581853 L 102.99812673437991,71.38733709102078 L 99.63108449062285,70.92574597311756 L 54.56524101451634,71.1319893786343 L 52.501872100315914,71.68196779261822 L 38.88364007396283,87.68823035838497 L 37.09226117475633,89.10209113885062 L 35.225850749908666,89.47518840898583 L 33.26565075474499,89.45555161998324 L 13.67302884621066,86.62781469775136 L 10.389157332070264,86.37243024765574" fill="none" stroke="#000000" stroke-width="0.7937396055515952"/>
	<path d="M 148.84057055375706,180.31348221986437 L 143.2689647456194,167.45222461722693 L 140.40358552329295,163.31323643183103 L 137.28711627931412,161.16642001393095 L 133.66846699200624,159.32844195606188 L 130.77354785256958,158.57161265603366 L 128.52850834212853,156.5791020617119 L 126.78564887504083,151.9914637730421 L 124.57014928175253,143.00061634992187 L 117.74641099904403,129.23388864139892 L 108.7071731230533,124.18072705441139 L 81.98824982840287,124.84523256714877 L 65.66740386508081,122.09444558352612 L 59.700325357367106,122.03262897840536 L 56.288456216003745,125.15430247467647 L 53.49692678655006,126.68417705007222 L 51.04510749315073,126.17422296025732 L 42.10925969013529,122.58897745998281 L 41.208289676458534,122.03262897840536 L 36.127411223848256,121.21355116350477 L 24.96129386897725,117.64348919132767 L 18.698815463872933,116.85526752051435 L 12.318177027226055,115.27879526858632 L 6.144318373549609,111.15196743356044 L 1.5951595184166785,105.3090461336403 L 0.0,98.67715974295912 L 2.008719447343781,95.52329884980026 L 7.384998160306621,91.73537200677286 L 9.925437568113992,88.55025034206679 L 10.389157332070264,86.37243024765574 L 13.67302884621066,86.62781469775136 L 33.26565075474499,89.45555161998324 L 35.225850749908666,89.47518840898583 L 37.09226117475633,89.10209113885062 L 38.88364007396283,87.68823035838497 L 52.501872100315914,71.68196779261822 L 54.56524101451634,71.1319893786343 L 99.63108449062285,70.92574597311756 L 102.99812673437991,71.38733709102078 L 106.16821114168448,72.28104617581853 L 126.1453693743909,83.82941226665405 L 134.098717296356,85.2728139973535 L 164.52402380100511,87.06965679905619 L 168.50069727233526,95.5917110568726 L 170.5828235782738,98.0950981811666 L 171.48320286549134,98.55649652684806 L 172.23351844848983,99.11606005197197 L 172.89004511409686,99.82287041314412 L 173.43402383832063,100.54930587701098 L 174.50322422147713,102.44389101907994 L 177.4106979625328,111.62154232363484 L 177.24187686658777,115.23335502105614 L 173.79042374840807,125.27275272414272 L 168.30373976230555,127.99087786486146 L 167.06571828320403,129.0113721092856 L 165.4431604799608,130.63039319663918 L 161.4571076598674,136.968719805347 L 159.1498867769446,141.78583051317474 L 158.5402548964895,144.14029749792854 L 158.41832858567818,145.27825977122075 L 158.5027391336598,146.33772387012718 L 159.00920242151312,148.3388872306293 L 159.34684428695607,149.24135276701975 L 158.52149685183895,154.8716727975807 L 151.37473897322855,175.40746252291387 L 148.84057055375706,180.31348221986437" fill="none" stroke="#000000" stroke-width="0.7937396055515952"/>
	<path d="M 294.05531133486244,253.6858386655492 L 285.4154100990045,252.2135227001017 L 236.23132210450225,255.02058351601625 L 233.74996253098215,254.55788937662177 L 226.18772450483354,249.43719223494182 L 213.41167767297858,243.12832229591058 L 210.2065883145978,240.62928890306537 L 208.6261987547484,237.75991230414033 L 204.85984988174965,228.0401361922648 L 204.10657981674998,224.96962522408901 L 202.7329704028694,222.56249229161526 L 196.23417193468603,220.24785875344605 L 194.19591220720935,218.61213576550907 L 193.66419260974413,210.6489827040081 L 194.31407223876406,201.07958615462425 L 192.0542627697618,193.03713492850167 L 182.82301506937398,189.65623435650156 L 157.65494141743844,189.44009763671272 L 151.8651027755485,187.29413259391418 L 148.84057055375706,180.31348221986437 L 151.37473897322855,175.40746252291387 L 158.52149685183895,154.8716727975807 L 159.34684428695607,149.24135276701975 L 159.00920242151312,148.3388872306293 L 158.5027391336598,146.33772387012718 L 158.41832858567818,145.27825977122075 L 158.5402548964895,144.14029749792854 L 159.1498867769446,141.78583051317474 L 161.4571076598674,136.968719805347 L 165.4431604799608,130.63039319663918 L 167.06571828320403,129.0113721092856 L 168.30373976230555,127.99087786486146 L 173.79042374840807,125.27275272414272 L 215.34854127820807,110.50262536412592 L 266.566974428316,115.66518883746639 L 268.39586974323424,149.7121994099172 L 293.1656701865067,251.97298881855494 L 294.05531133486244,253.6858386655492" fill="none" stroke="#000000" stroke-width="0.7937396055515952"/>
	<path d="M 355.75761392171336,255.10020623504374 L 355.38088279754766,254.88177557375644 L 347.36077496678837,251.93589482531942 L 338.897566926963,250.82537212919323 L 332.2067586343886,253.57079757638266 L 324.5263602137112,258.75286571081216 L 316.83119219745276,259.43144018893696 L 300.98298599732084,254.86635249332096 L 294.05531133486244,253.6858386655492 L 293.1656701865067,251.97298881855494 L 268.39586974323424,149.7121994099172 L 266.566974428316,115.66518883746639 L 271.2376906545057,114.49726839747406 L 273.46050098946506,113.67284079205125 L 277.48406989882915,111.22894224552539 L 280.1383119959643,109.9922353705515 L 282.16416482091216,109.44258053904888 L 284.25566982273193,109.5014724837512 L 298.1365125153157,111.58228242206648 L 299.2901234464356,111.54302283851119 L 304.48606002578174,113.82006084380927 L 320.7022606682611,125.06668094594508 L 321.5651238661836,130.71870229221173 L 361.07863085285044,211.34440772130307 L 360.57216756502146,213.49059547133328 L 359.55924131575586,216.47946241014566 L 359.4466937008439,218.32171326952684 L 359.6248938191112,220.87922121749503 L 360.43148353602487,226.02333555355642 L 361.0692515040872,228.31601195106802 L 361.6882624068706,229.952190359085 L 363.37647271346924,232.17615205084837 L 367.5219676071854,235.75196940379743 L 368.328557324093,237.08427962656313 L 368.6849572341865,238.34799016886456 L 368.5348938564267,239.5431052890239 L 366.3777363512516,246.60560164476192 L 365.6461781599973,251.23842663590113 L 365.2428831383351,252.2178413059085 L 364.64263093307824,252.92301055301374 L 363.8923146971795,253.45188284387154 L 362.935662255388,253.65755415362483 L 361.8101883912166,253.71631741440905 L 358.5838305029032,253.32456181764857 L 357.52400946851,253.64776021497013 L 356.7924516036967,254.1276577656692 L 355.75761392171336,255.10020623504374" fill="none" stroke="#000000" stroke-width="0.7937396055515952"/>
	<path d="M 450.1270882201665,243.07473270673768 L 447.56779482628684,244.57695655040266 L 441.60498359880916,256.4262234025923 L 440.1902019725569,259.8786785697781 L 442.9374215263149,270.38020768895836 L 440.29359204553225,271.428727749997 L 435.68535299313186,274.2195613509487 L 433.0267539167864,275.3296945736025 L 433.9720334431787,277.318637687731 L 434.6071434766115,281.1575926741843 L 435.4933431687348,283.56260868759273 L 431.6088342641995,281.80510537735654 L 427.7095550380683,281.62010244181386 L 423.92843620650837,282.9613627923103 L 420.4131769921758,285.8904586899942 L 426.7938154288166,289.8059968702243 L 433.5289335971171,291.2858257438956 L 440.58899194292286,290.7000640431795 L 447.90014031036276,288.4802890445493 L 451.57786943195794,302.72256705673766 L 450.47011963531077,309.25697214128274 L 441.5933516665765,312.0 L 434.0311136404522,311.63016029514915 L 427.26645519201276,310.104548940931 L 420.560876940865,306.88370047235287 L 389.04170440643696,278.79874282456666 L 382.51336602110086,270.61150008823955 L 355.75761392171336,255.10020623504374 L 356.7924516036967,254.1276577656692 L 357.52400946851,253.64776021497013 L 358.5838305029032,253.32456181764857 L 361.8101883912166,253.71631741440905 L 362.935662255388,253.65755415362483 L 363.8923146971795,253.45188284387154 L 364.64263093307824,252.92301055301374 L 365.2428831383351,252.2178413059085 L 365.6461781599973,251.23842663590113 L 366.3777363512516,246.60560164476192 L 368.5348938564267,239.5431052890239 L 368.6849572341865,238.34799016886456 L 368.328557324093,237.08427962656313 L 367.5219676071854,235.75196940379743 L 363.37647271346924,232.17615205084837 L 361.6882624068706,229.952190359085 L 361.0692515040872,228.31601195106802 L 360.43148353602487,226.02333555355642 L 359.6248938191112,220.87922121749503 L 359.4466937008439,218.32171326952684 L 359.55924131575586,216.47946241014566 L 360.57216756502146,213.49059547133328 L 361.07863085285044,211.34440772130307 L 321.5651238661836,130.71870229221173 L 320.7022606682611,125.06668094594508 L 329.2371034037389,127.87312724214497 L 338.46598758833034,129.4529273178113 L 340.0416509328809,129.38424129949982 L 341.757998306428,129.0702464230508 L 344.3465879002259,128.0105027203468 L 345.70653536369775,127.24512182219073 L 348.2388514764747,125.25312704739218 L 349.1204723925824,124.83116930330827 L 361.42565174062173,122.0442194656948 L 362.9262832330901,122.07365959397983 L 364.792693984397,122.37787461523808 L 371.7800097893907,125.16481057521412 L 389.59063182104074,128.42262742454375 L 422.4450855193936,128.86418660542324 L 432.75254878301064,154.89128994927475 L 434.18752777212364,161.64899587115298 L 432.8369593309923,164.3459999692499 L 431.7958963412192,167.89606901620243 L 430.95179118792294,173.38751140973466 L 431.064338149971,175.25057511298468 L 431.3738439277946,176.6135203246183 L 432.8369593309923,178.91771554497447 L 433.42783316680897,179.61386091356536 L 435.48182273224006,182.67289121797356 L 437.4982965348658,186.40824494683127 L 438.37053875511054,188.91797085063862 L 438.8488649759971,190.82961155101765 L 438.9520332421822,204.07233206196318 L 439.24278097536137,206.97341757101663 L 439.66483371522696,209.17854939494418 L 440.0962651509799,210.2271865548121 L 440.56521234956244,211.10920501160257 L 447.5994229396899,220.41868116070995 L 448.2278125383545,222.11384524211252 L 448.55607603435726,223.70118486858445 L 448.424770374807,224.93575601403361 L 450.1270882201665,243.07473270673768" fill="none" stroke="#000000" stroke-width="0.7937396055515952"/>
	<path d="M 553.4456569731149,202.4297417288895 L 552.3198939252047,206.339901572828 L 550.6168465565447,210.3492620159822 L 546.1113129828227,215.41196435429617 L 544.7204609399937,218.3324992534446 L 539.9465438974094,217.76094825174204 L 538.5377272436189,220.54979451604436 L 537.1197288227695,229.20388056568976 L 530.6280681394253,252.1002772675094 L 525.811871046835,258.9070877380452 L 519.9924924878165,262.60830974067386 L 515.2070135695864,262.6545739761529 L 512.0462344498875,261.22037571011657 L 509.1217750303119,259.24637524510746 L 505.13387605278314,257.67330152793534 L 485.07622113359685,257.67330152793534 L 485.07622113359685,254.86635249332096 L 492.7418492327025,252.27521745771622 L 488.82780004802225,248.86648770107604 L 483.9241614612418,242.29532147435023 L 480.1135023495368,239.3334567578869 L 475.68250352594646,237.62106872565474 L 465.225345997375,236.47945193684413 L 455.7505036027716,239.7738474770901 L 450.1270882201665,243.07473270673768 L 448.424770374807,224.93575601403361 L 448.55607603435726,223.70118486858445 L 448.2278125383545,222.11384524211252 L 447.5994229396899,220.41868116070995 L 440.56521234956244,211.10920501160257 L 440.0962651509799,210.2271865548121 L 439.66483371522696,209.17854939494418 L 439.24278097536137,206.97341757101663 L 438.9520332421822,204.07233206196318 L 438.8488649759971,190.82961155101765 L 438.37053875511054,188.91797085063862 L 437.4982965348658,186.40824494683127 L 435.48182273224006,182.67289121797356 L 433.42783316680897,179.61386091356536 L 432.8369593309923,178.91771554497447 L 431.3738439277946,176.6135203246183 L 431.064338149971,175.25057511298468 L 430.95179118792294,173.38751140973466 L 431.7958963412192,167.89606901620243 L 432.8369593309923,164.3459999692499 L 434.18752777212364,161.64899587115298 L 432.75254878301064,154.89128994927475 L 422.4450855193936,128.86418660542324 L 471.12182418730265,122.71152806213243 L 478.5030559916605,119.87541880175448 L 500.29035149464073,107.64635462434966 L 505.86144635516587,105.96786924053916 L 506.9025093449147,105.76173620949508 L 508.02798320909216,105.70284123097512 L 514.9871622735784,106.45865904568522 L 516.178288641087,107.32243991675178 L 517.2662467424286,108.69661278665953 L 519.4515413145523,113.90839264724912 L 520.6801837713376,115.57685940991949 L 523.5501417495818,117.66728992619552 L 525.0976680271657,119.34547459389327 L 526.4951312534672,122.29936737302772 L 527.2642048811041,125.37088204428598 L 527.7143946879243,128.59925145441701 L 528.5022260337706,130.2182823947752 L 532.7415104977724,136.0268401059433 L 536.5868789624283,139.76484516819912 L 545.1498584384135,143.2181411487403 L 544.296373936354,153.16497148490637 L 544.4745740546213,154.6362682273542 L 545.0466898458056,157.029507292398 L 547.4477006254733,162.0020645585679 L 547.7947215132385,163.8752581924206 L 547.7384477057644,165.31689413639364 L 546.5098055754261,168.05297395306417 L 546.0408580504268,168.87671762429522 L 545.4312264964067,169.6023879407733 L 544.7465634167271,170.229988147293 L 544.0243845742422,170.77913346191278 L 542.908289732393,172.77955311989393 L 541.651510861523,175.94675956871544 L 539.494352703484,183.61410270557886 L 538.9972687643939,186.91804060313186 L 539.0441632231109,189.0650219172815 L 541.6702685797263,191.41779749942802 L 541.9891530534312,191.81972174356991 L 542.36431068171,192.41770185841014 L 543.0395950655083,194.1429913163844 L 543.527300308711,194.94680350257107 L 544.1932056701811,195.53495277972726 L 545.0466898458056,195.858433230015 L 546.0502370727309,195.858433230015 L 546.9599950558053,195.6525822796922 L 548.8264054806651,194.8291730869274 L 549.7924375976608,194.62331927018084 L 552.2684795765225,198.04433179800301 L 553.4456569731149,202.4297417288895" fill="none" stroke="#000000" stroke-width="0.7937396055515952"/>
	<path d="M 567.0618602379625,210.29981127055595 L 564.6661411334679,208.8795261871742 L 558.2147241406209,204.67458178803435 L 553.4456569731149,202.4297417288895 L 552.2684795765225,198.04433179800301 L 549.7924375976608,194.62331927018084 L 548.8264054806651,194.8291730869274 L 546.9599950558053,195.6525822796922 L 546.0502370727309,195.858433230015 L 545.0466898458056,195.858433230015 L 544.1932056701811,195.53495277972726 L 543.527300308711,194.94680350257107 L 543.0395950655083,194.1429913163844 L 542.36431068171,192.41770185841014 L 541.9891530534312,191.81972174356991 L 541.6702685797263,191.41779749942802 L 539.0441632231109,189.0650219172815 L 538.9972687643939,186.91804060313186 L 539.494352703484,183.61410270557886 L 541.651510861523,175.94675956871544 L 542.908289732393,172.77955311989393 L 544.0243845742422,170.77913346191278 L 544.7465634167271,170.229988147293 L 545.4312264964067,169.6023879407733 L 546.0408580504268,168.87671762429522 L 546.5098055754261,168.05297395306417 L 547.7384477057644,165.31689413639364 L 547.7947215132385,163.8752581924206 L 547.4477006254733,162.0020645585679 L 545.0466898458056,157.029507292398 L 544.4745740546213,154.6362682273542 L 544.296373936354,153.16497148490637 L 545.1498584384135,143.2181411487403 L 550.0738056556539,141.19720064139457 L 550.8991530907467,140.53008010126158 L 551.7807740068727,139.51957620049544 L 552.1559322880578,138.5286784228921 L 552.6436372048195,137.62606510215318 L 554.050479779866,136.99815322106437 L 556.2639114189442,136.61551641959002 L 560.8971115558631,136.58608283199032 L 562.979237861826,136.14457572356878 L 569.047416987864,137.3317324879708 L 589.2121543611418,146.8968783045451 L 591.4724807853657,154.5970341071834 L 591.6037861184811,155.55826381682454 L 594.8489020514451,165.08152731430258 L 595.2990915318243,165.8955012580546 L 596.4058073513694,167.36651273195673 L 597.7563757925008,168.1902653379043 L 600.1104917870165,168.90613639938675 L 604.8093447537136,169.87696361813715 L 608.457755381923,169.21994074105328 L 610.2116185182998,168.4942662074954 L 610.943176383107,167.3763197857327 L 611.7497657735736,165.4934188709403 L 612.2937448242566,164.66963283694864 L 612.9877869262401,164.08120807039643 L 617.6960185888246,164.79712452851783 L 634.0904190230998,171.5636190169211 L 630.7515138462912,174.63282873305062 L 630.1325032699731,177.03514534833133 L 629.6635557449495,180.11390428445975 L 629.513493020096,185.82001434685912 L 630.0011979368578,188.1631023445699 L 630.8453034166012,190.31004247090095 L 631.8488509699612,191.99617515902915 L 633.8465667279364,199.11274881671628 L 634.484335022464,200.3673821371274 L 637.1104403790856,204.07233206196318 L 638.2828090284089,206.21875564930494 L 638.2828090284089,207.52225757064977 L 637.7106932372245,208.2573033526197 L 636.7071456838584,208.44351384555608 L 633.096250818503,208.1298959611224 L 631.6331350888582,208.44351384555608 L 630.2262928402588,209.10994653156453 L 628.6224927552007,211.52080937579814 L 628.256713822785,213.71598989316064 L 628.4630506815597,217.25360600243295 L 628.2848508897517,218.9096551372253 L 627.9003139126914,220.11491920056147 L 625.6118507479782,222.7311482923604 L 623.4320989018122,226.16655008906955 L 613.397949692755,223.7660696787816 L 610.6802704191177,222.2538792058074 L 605.0972115601921,220.00096000748152 L 597.5645134511963,220.44846375777368 L 584.4192165661403,223.5500447420164 L 578.8066181530361,224.22897821314803 L 559.8714826260903,223.5500447420164 L 559.8714826260903,220.9576883316403 L 599.7504731273501,218.61213576550907 L 598.097183653138,217.0270286963888 L 600.1011127646942,215.90129882691653 L 599.7728495951264,210.97200287446762 L 596.7434495432594,203.92531405405546 L 593.1513127225303,202.03365537744364 L 587.7584176538435,200.78885508649864 L 578.3982278096896,201.2495317242942 L 575.3125542768138,202.05325815344946 L 571.7016594114341,203.53326511744382 L 568.8879749142412,205.36607487113415 L 568.2595853155766,206.75780070873606 L 567.0618602379625,210.29981127055595" fill="none" stroke="#000000" stroke-width="0.7937396055515952"/>
	<path d="M 598.097183653138,217.0270286963888 L 597.2395736366711,216.20477196758492 L 595.4080940551816,214.44548913955524 L 590.6521550540858,213.36520473762354 L 579.6928178451593,213.21087695600016 L 572.2496963224652,213.37527867483334 L 567.0618602379625,210.29981127055595 L 568.2595853155766,206.75780070873606 L 568.8879749142412,205.36607487113415 L 571.7016594114341,203.53326511744382 L 575.3125542768138,202.05325815344946 L 578.3982278096896,201.2495317242942 L 587.7584176538435,200.78885508649864 L 593.1513127225303,202.03365537744364 L 596.7434495432594,203.92531405405546 L 599.7728495951264,210.97200287446762 L 600.1011127646942,215.90129882691653 L 598.097183653138,217.0270286963888" fill="none" stroke="#000000" stroke-width="0.7937396055515952"/>
	<path d="M 768.761744220947,200.89003053331837 L 771.6732308220788,207.90178160891173 L 777.0199696179131,216.97637240407116 L 783.8437079006156,224.16725741359946 L 793.7396055515951,231.55793391146565 L 789.9584863570246,234.61271198248608 L 771.2005910588887,239.3334567578869 L 757.9814440179676,246.56819600099155 L 750.40443603327,248.75851630944072 L 743.9351774822212,247.0926452319819 L 746.460846931443,245.2724795754113 L 747.4799766136883,243.97673791200103 L 748.8978962662751,239.3334567578869 L 742.3400179638106,241.7245556697617 L 736.5206394047618,250.36264884050112 L 730.1990811653884,252.27521745771622 L 724.5717124307429,250.671131390301 L 718.0286040868638,247.66336497726624 L 711.3673357113936,245.9511914348075 L 700.4670783367604,250.02331608142208 L 671.9314454191815,252.4911494173916 L 651.7999403441545,249.43719223494182 L 648.8754809245728,249.56058721767386 L 646.1430316923744,250.08501324767644 L 643.1742623970908,249.69940625246 L 639.4079131610937,247.0926452319819 L 637.7684437669752,243.6682243258104 L 637.0299436605428,239.28717669305652 L 635.9369641854613,235.5229469797002 L 633.1011248802877,233.91845678422874 L 630.1766654607059,233.02362756893504 L 628.2270258476494,230.8945036888597 L 626.5432462148368,228.3641515926057 L 624.2982070673942,226.37374601349882 L 623.4320989018122,226.16655008906955 L 625.6118507479782,222.7311482923604 L 627.9003139126914,220.11491920056147 L 628.2848508897517,218.9096551372253 L 628.4630506815597,217.25360600243295 L 628.256713822785,213.71598989316064 L 628.6224927552007,211.52080937579814 L 630.2262928402588,209.10994653156453 L 631.6331350888582,208.44351384555608 L 633.096250818503,208.1298959611224 L 636.7071456838584,208.44351384555608 L 637.7106932372245,208.2573033526197 L 638.2828090284089,207.52225757064977 L 638.2828090284089,206.21875564930494 L 637.1104403790856,204.07233206196318 L 634.484335022464,200.3673821371274 L 633.8465667279364,199.11274881671628 L 631.8488509699612,191.99617515902915 L 630.8453034166012,190.31004247090095 L 630.0011979368578,188.1631023445699 L 629.513493020096,185.82001434685912 L 629.6635557449495,180.11390428445975 L 630.1325032699731,177.03514534833133 L 630.7515138462912,174.63282873305062 L 634.0904190230998,171.5636190169211 L 640.8995353627325,176.21150339699568 L 643.6569460524694,179.94722392360637 L 644.3228510874984,180.62374894314772 L 645.0731669969562,181.27085309708158 L 647.4835564724808,182.90819517872163 L 650.2128304217284,184.20235331959506 L 667.404441550595,189.62381373309776 L 669.9555153815816,191.0942959786916 L 671.3342208896796,191.24134219692883 L 673.0224315227132,191.074689609522 L 675.9674207001636,189.98653552138646 L 677.3742629487631,189.07482505986087 L 678.9968207520305,187.50626175441766 L 679.7283786168377,186.91804060313186 L 680.5818631189034,186.4866755929425 L 682.054357870846,186.31020710523123 L 687.1752632509739,186.2807954172419 L 688.9947792171228,186.03569955468748 L 690.2984528731204,185.6827596944782 L 692.7276003932956,184.34941489733808 L 694.565874077654,183.57488585691277 L 696.0477478519189,183.64351524146255 L 697.8485057734233,184.10431151686305 L 705.820611087157,188.72190145589462 L 717.6943589994615,190.56492606206342 L 728.4332543516953,193.7410812134852 L 730.3746963022145,194.55470130240127 L 731.0499806860129,195.09384148341707 L 731.6596122400086,195.81922365587744 L 734.0324862791689,199.2499755547729 L 735.0454125284102,200.30857195078246 L 736.461633472897,201.51417440738473 L 741.37620199425,202.73935779330145 L 754.609897369996,204.53298582468437 L 758.4271290941505,204.09193423365497 L 768.5470135436129,200.95548316987157 L 768.761744220947,200.89003053331837" fill="none" stroke="#000000" stroke-width="0.7937396055515952"/>
	<path d="M 607.3523137958698,98.21639356630146 L 609.4395906323607,98.67715974295912 L 614.7715591066416,101.50622867773275 L 621.683917503746,108.46243370586481 L 627.0011163824458,111.89388828420536 L 633.1602047145749,113.81047816029007 L 645.2122270157788,113.04583719550608 L 651.523875335296,117.49690433233795 L 653.5427998112665,118.01441399199771 L 655.3595094341889,119.74536741778869 L 657.5897786230643,121.32173191926346 L 660.5880881984807,122.03262897840536 L 687.8387314535947,122.03262897840536 L 689.744060827945,123.17622937148792 L 692.5946700916859,128.61578590938808 L 693.9092000342898,130.2846499647847 L 720.6281233289342,135.29098726775496 L 734.5119199574181,140.2969419596357 L 736.2843193416645,148.1913589061935 L 746.5937769215711,158.0310147996612 L 754.5991151567433,169.45984913964375 L 766.2378722748286,194.81242432941565 L 768.761744220947,200.89003053331837 L 768.5470135436129,200.95548316987157 L 758.4271290941505,204.09193423365497 L 754.609897369996,204.53298582468437 L 741.37620199425,202.73935779330145 L 736.461633472897,201.51417440738473 L 735.0454125284102,200.30857195078246 L 734.0324862791689,199.2499755547729 L 731.6596122400086,195.81922365587744 L 731.0499806860129,195.09384148341707 L 730.3746963022145,194.55470130240127 L 728.4332543516953,193.7410812134852 L 717.6943589994615,190.56492606206342 L 705.820611087157,188.72190145589462 L 697.8485057734233,184.10431151686305 L 696.0477478519189,183.64351524146255 L 694.565874077654,183.57488585691277 L 692.7276003932956,184.34941489733808 L 690.2984528731204,185.6827596944782 L 688.9947792171228,186.03569955468748 L 687.1752632509739,186.2807954172419 L 682.054357870846,186.31020710523123 L 680.5818631189034,186.4866755929425 L 679.7283786168377,186.91804060313186 L 678.9968207520305,187.50626175441766 L 677.3742629487631,189.07482505986087 L 675.9674207001636,189.98653552138646 L 673.0224315227132,191.074689609522 L 671.3342208896796,191.24134219692883 L 669.9555153815816,191.0942959786916 L 667.404441550595,189.62381373309776 L 650.2128304217284,184.20235331959506 L 647.4835564724808,182.90819517872163 L 645.0731669969562,181.27085309708158 L 644.3228510874984,180.62374894314772 L 643.6569460524694,179.94722392360637 L 640.8995353627325,176.21150339699568 L 634.0904190230998,171.5636190169211 L 617.6960185888246,164.79712452851783 L 612.9877869262401,164.08120807039643 L 612.2937448242566,164.66963283694864 L 611.7497657735736,165.4934188709403 L 610.943176383107,167.3763197857327 L 610.2116185182998,168.4942662074954 L 608.457755381923,169.21994074105328 L 604.8093447537136,169.87696361813715 L 600.1104917870165,168.90613639938675 L 597.7563757925008,168.1902653379043 L 596.4058073513694,167.36651273195673 L 595.2990915318243,165.8955012580546 L 594.8489020514451,165.08152731430258 L 591.6037861184811,155.55826381682454 L 591.4724807853657,154.5970341071834 L 589.2121543611418,146.8968783045451 L 606.2724604833523,99.44983207307429 L 607.3523137958698,98.21639356630146" fill="none" stroke="#000000" stroke-width="0.7937396055515952"/>
	<path d="M 473.44943336921614,42.49677187326148 L 480.1135023495368,41.373611617349795 L 484.45588105871917,42.45673960135865 L 492.03288940640306,46.015460106347334 L 496.33095823988964,46.78906901055208 L 517.8065331746429,45.876209483213295 L 521.9936051705478,43.667458102613715 L 527.9018844332649,42.94478901790151 L 532.7006283641724,43.32127194383799 L 537.1288369033854,44.06434679447704 L 539.7032508457713,47.37207853632312 L 538.5819605289817,51.40468694150163 L 538.5701656154,56.539696198244194 L 542.6230288164415,60.21662744105763 L 555.5352855928456,68.3220485058197 L 566.9535721310178,74.94976066117626 L 568.8163811576956,78.63692055704301 L 572.1896596533163,88.61209906628568 L 574.346079049331,91.90544686955361 L 577.8170283879437,94.02361534667477 L 584.4192165661403,95.84796798850259 L 603.2066521444092,97.30122946229739 L 607.3523137958698,98.21639356630146 L 606.2724604833523,99.44983207307429 L 589.2121543611418,146.8968783045451 L 569.047416987864,137.3317324879708 L 562.979237861826,136.14457572356878 L 560.8971115558631,136.58608283199032 L 556.2639114189442,136.61551641959002 L 554.050479779866,136.99815322106437 L 552.6436372048195,137.62606510215318 L 552.1559322880578,138.5286784228921 L 551.7807740068727,139.51957620049544 L 550.8991530907467,140.53008010126158 L 550.0738056556539,141.19720064139457 L 545.1498584384135,143.2181411487403 L 536.5868789624283,139.76484516819912 L 532.7415104977724,136.0268401059433 L 528.5022260337706,130.2182823947752 L 527.7143946879243,128.59925145441701 L 527.2642048811041,125.37088204428598 L 526.4951312534672,122.29936737302772 L 525.0976680271657,119.34547459389327 L 523.5501417495818,117.66728992619552 L 520.6801837713376,115.57685940991949 L 519.4515413145523,113.90839264724912 L 517.2662467424286,108.69661278665953 L 516.178288641087,107.32243991675178 L 514.9871622735784,106.45865904568522 L 508.02798320909216,105.70284123097512 L 506.9025093449147,105.76173620949508 L 505.86144635516587,105.96786924053916 L 500.29035149464073,107.64635462434966 L 493.33117210370744,100.66710543192687 L 490.92078262818285,97.43735506186295 L 490.4799721701077,96.43600157780303 L 489.8984773566193,94.35470790598319 L 489.392014395207,91.12464455021544 L 488.2759195533578,87.62931903947747 L 486.73777164519595,85.21390014944899 L 482.23587716783334,79.8918072121901 L 481.4761822360716,78.48756623449177 L 481.34487690293196,77.33861922886977 L 482.12332955289713,68.81417173991623 L 481.45742451786816,67.39004775467592 L 480.4726350091282,66.00517994232996 L 478.5687084949916,64.17828808776547 L 477.8183925855582,62.832641055251635 L 477.10559243893624,60.10197222791168 L 476.8804978619581,58.12756857432691 L 473.7479292174832,44.21662865780575 L 473.44943336921614,42.49677187326148" fill="none" stroke="#000000" stroke-width="0.7937396055515952"/>
</svg>
