<?xml version="1.0" ?>
<svg xmlns="http://www.w3.org/2000/svg" xmlns:ev="http://www.w3.org/2001/xml-events" xmlns:xlink="http://www.w3.org/1999/xlink" baseProfile="full" height="600px" version="1.1" viewBox="-80.41910363645908 -90.1485 960.544243637509 1077.297" width="535px">
	<defs/>
	<path d="M 115.09783219687912,178.53881948726405 L 115.36429075035412,178.41521756694263 L 116.12560103468833,177.23534186642118 L 115.09783219687912,174.5438317197537 L 114.52684971384302,168.93484618898702 L 113.48004809590907,166.97862416246267 L 113.48004809590907,165.35390979885926 L 114.75524270704699,165.35390979885926 L 114.75524270704699,163.99893970849155 L 113.19455676229934,163.0768310508396 L 112.4522792580991,161.50802022197234 L 112.54744315874353,159.71975798458726 L 112.94713098895987,158.99990737431926 L 114.260390976197,158.44312963126256 L 115.89720804147359,156.99205726237395 L 118.67599025697571,153.30764275031135 L 122.06382069995522,150.87160464960752 L 122.08409504059874,150.8740280055679 L 126.44135423633347,151.3948443076006 L 129.3914314729882,149.8644690679683 L 135.50094579110564,144.40588965399036 L 145.6263715597747,138.02245367597504 L 148.80484178966495,137.20607679122315 L 148.83353634877244,137.1918379284734 L 149.98487250019002,136.62051578169255 L 151.06973949420083,136.38403453466006 L 152.02137739566368,136.55295007012077 L 152.80172027595083,137.16666428888848 L 152.7826874958261,137.18918557305045 L 152.7826874958261,137.20607679122315 L 154.47660290146686,139.35673287552564 L 174.27066826822679,143.96125681788095 L 176.02168164593894,144.98558557777486 L 179.2001516916674,148.21017644276532 L 180.11372403286924,148.5140365969818 L 182.4928184181743,148.4859018207472 L 183.19703036210507,148.86290745668634 L 183.482521695714,150.31459182277246 L 183.23509592236377,151.72678474814182 L 182.64508029089092,152.61568165584856 L 181.95990112707486,152.51441696175218 L 183.63478375258163,154.59586157587665 L 185.2525678535617,156.1202363817614 L 187.174876252428,156.7895733246892 L 189.83946197132275,156.30022843420784 L 194.1408645713423,156.63208461334506 L 194.99733857214915,159.1067618635453 L 194.4453886850652,162.81256008562718 L 194.57861796181888,166.8999214396415 L 196.31059874355807,170.54239721375924 L 204.6088798298643,183.13400087231696 L 205.6366486676627,185.6670629940929 L 205.67471422791294,186.59932615252805 L 206.34086061159348,186.7565709172082 L 208.557200741246,186.82837807971808 L 210.82322308793997,204.64623251966373 L 209.53851215990932,210.28975403466754 L 208.22525203758596,210.74408137941117 L 206.61698418141478,210.40754361232663 L 203.24818654111763,207.76551882348602 L 201.16409999446256,207.0418445054162 L 198.88016941894048,207.42892939357694 L 196.2441327209829,209.59982904307648 L 195.61605193692117,211.36666104097228 L 195.84444482885803,213.13894029685068 L 196.81511544766892,214.88301956593955 L 197.7572368721748,217.04187153301115 L 198.3282194332494,220.26007794005216 L 198.0807934690909,221.92503828743236 L 196.64382061309544,223.80845803753888 L 190.5343062821758,223.55061960736418 L 184.81496322445798,221.90261554305718 L 182.35973781436167,222.6425530350073 L 176.04086300127497,225.34420673829797 L 172.07253360559895,219.75551660846395 L 168.44679371345774,216.81758617217912 L 167.5332214832469,215.0400349570114 L 166.73384586462168,212.202344408048 L 165.49671670626958,211.6470958574211 L 164.18345674955685,212.49959251635224 L 162.87019646160977,214.3390631325491 L 160.67191330337985,215.62883180595216 L 157.674254360901,216.077427002973 L 152.32605016661438,215.77462635228787 L 149.2998421954442,216.3690082661009 L 143.69469558369983,219.4527730910291 L 139.2695800729234,220.71417209306122 L 134.6351040799799,220.40023156205592 L 131.437601274247,220.64689978603138 L 128.81108119520013,221.76807853348387 L 127.01248576347055,224.04947769822908 L 125.71825838214136,227.41223156830029 L 122.89189427422674,240.98064288945557 L 123.20593458345574,244.28448088309327 L 124.31935084252432,247.79489510158407 L 126.86974012320056,253.64418143805088 L 127.32652607269956,255.5189404906268 L 127.18378059804405,256.78919716524825 L 126.35585561950163,258.9490032330183 L 113.54681132435616,257.4103058844805 L 112.3660695780721,257.53127456946623 L 114.75524270704699,247.30206862772323 L 112.33808276149172,247.30206862772323 L 112.64260687521539,246.0983789829873 L 113.13745842191514,245.30334307360837 L 113.84167055001694,244.7210426168797 L 114.75524270704699,244.20031702074715 L 113.28972047879277,241.66928030561743 L 112.60454131496671,237.54164142240813 L 112.6616396553509,233.40752491876978 L 113.48004809590907,230.88068846465137 L 111.8051654703815,227.65863552011248 L 111.95742771140088,221.15126304648902 L 110.96772443386115,219.03772005733776 L 110.96772443386115,217.54632837685867 L 112.33808276149172,217.54632837685867 L 112.33808276149172,219.03772005733776 L 113.48004809590907,219.03772005733776 L 113.17552398218463,217.0641245632365 L 112.62357409510221,215.39874758324865 L 111.86226399492747,214.05288400592468 L 110.96772443386115,213.1051156770109 L 110.52997104340614,212.3984655214823 L 109.7115626028472,210.00351522260365 L 111.50064154080958,209.65574618829353 L 112.28098460527008,209.04994000591412 L 112.10968976826695,208.17485285334595 L 110.96772443386115,207.036059100275 L 110.96772443386115,205.68961545766666 L 112.33808276149172,205.68961545766666 L 112.05259161204377,204.67411076239014 L 111.74806731416986,204.528232705652 L 111.36741226408827,204.6011718711795 L 110.96772443386115,204.21964104322217 L 113.48004809590907,202.59244042822525 L 112.33808276149172,201.11100788778884 L 113.59424459252723,200.54982954534537 L 114.75524270704699,199.76415274394148 L 114.75524270704699,198.14219037234068 L 113.9368342665096,197.97381291556226 L 113.44198253565962,197.68195506080073 L 113.02326192531855,197.27783676036 L 112.33808276149172,196.79512909617185 L 112.68067225132386,195.34131996166434 L 113.3658514151507,193.85933295512186 L 114.46975137345882,192.7084694253569 L 116.12560103468833,192.21441919612977 L 116.12560103468833,190.85571611735193 L 114.39362025294913,189.05332210688817 L 114.0129652028683,188.13240821604182 L 112.69970503145937,186.1949764800015 L 111.93839493128617,186.1612803649793 L 110.96772443386115,186.27360066505955 L 110.96772443386115,184.8021522706521 L 113.48004809590907,184.8021522706521 L 112.96616376907458,183.40361077017414 L 112.33808276149172,178.85343883281695 L 113.48004809590907,180.3421931284302 L 114.31748931659197,178.01069674448254 L 114.75524270704699,177.23534186642118 L 115.00266848040727,178.02755202025696 L 115.09783219687912,178.53881948726405" fill="none" stroke="#000000" stroke-width="0.897"/>
	<path d="M 93.50236760324648,420.75231386299293 L 93.76211366549784,408.2712731830569 L 93.68598272914069,408.204639310106 L 93.80017922574807,408.2823789501396 L 93.87631034625699,408.21574489943305 L 93.85727756614227,408.015841623924 L 93.80017922574807,407.6715592215712 L 94.808915283421,391.7280858743461 L 97.73995955582077,376.11664052313387 L 101.85389901001554,366.59111913599037 L 104.11608128842934,366.8653484405375 L 116.78237977769341,367.5720168968981 L 119.35180179936611,366.35341537773746 L 121.66428140357101,364.1163351961303 L 124.69048970596711,358.63386295279037 L 126.8411909289063,352.832476145095 L 127.95460718797564,351.3790788511078 L 130.18143937490842,349.89772905283695 L 132.4653701160342,349.2015674423151 L 137.3853372239117,348.76158071040976 L 139.75491538232885,347.3524433868338 L 146.673321785183,345.5588502916081 L 155.98033908744847,345.52542788006144 L 158.81621964866315,344.817970976889 L 161.12869941847947,343.86537083541975 L 162.35631212352303,344.0603512106704 L 163.6695720802342,345.2970389821046 L 164.09780933226472,360.90495947960744 L 163.6981214401522,362.91978282115537 L 162.6132542097657,364.9065763821117 L 159.4443004327141,368.701521066364 L 158.53072836812547,370.34836766542634 L 158.27378611626983,372.21759500863476 L 158.55927739680678,374.30357800379954 L 159.98673413071884,379.84844410092944 L 161.3570924760293,383.2291060733818 L 169.36036610927073,391.85052291493434 L 170.4737822027371,394.5734679430191 L 170.33103656246865,396.61820972817395 L 169.70295561279474,398.17385093657623 L 169.87425044735747,399.87936013704683 L 170.9591173465296,401.21255564715466 L 172.41512327473592,402.62342339274556 L 172.7577127782592,403.94532664424025 L 172.18673005157314,405.30601778171706 L 169.64585738980765,408.9933009048266 L 168.41824468476565,411.33081768349376 L 165.26832364871976,421.0499475663328 L 164.46894803009457,422.44831306693794 L 163.0700404904775,423.9076136763577 L 161.95662423140894,424.77315571789035 L 159.9581849364238,426.6761071446317 L 151.72651841123474,424.78425225850754 L 147.84383626723866,424.7065771169731 L 141.5535108140592,425.3168747017267 L 135.86271678502342,427.13101319156914 L 133.32184412325793,427.1088229074303 L 129.8388500369981,426.41536365837163 L 111.37707736042049,420.250837616866 L 97.43558423082293,419.6903316378661 L 93.50236760324648,420.75231386299293" fill="none" stroke="#000000" stroke-width="0.897"/>
	<path d="M 73.24234082329954,530.1621524067529 L 78.21235274251659,525.3701782959761 L 80.26789023397323,521.4944120868383 L 80.24885745383772,514.7901213646411 L 81.42888834851455,508.525617116586 L 90.06975929295643,491.4568477135066 L 90.94526588973702,485.3620917942751 L 89.65103868261538,479.50894507321425 L 86.91032184319091,474.16327828568785 L 84.94994806822693,469.85693426529275 L 83.198934690514,464.35365380515134 L 82.19019863283953,458.48329950691993 L 84.49316189763564,453.26499395916204 L 87.0816166801925,448.76574536689753 L 87.38614060975516,444.1324570233081 L 86.01578228212381,442.58039785705824 L 89.44167828536357,436.4042263525992 L 92.71531204758547,427.7743479610688 L 93.45758973591592,422.9031420627387 L 93.50236760324648,420.75231386299293 L 97.43558423082293,419.6903316378661 L 111.37707736042049,420.250837616866 L 129.8388500369981,426.41536365837163 L 133.32184412325793,427.1088229074303 L 135.86271678502342,427.13101319156914 L 141.5535108140592,425.3168747017267 L 147.84383626723866,424.7065771169731 L 151.72651841123474,424.78425225850754 L 159.9581849364238,426.6761071446317 L 164.44039867017733,434.5522849296307 L 165.69656056952437,438.6389081698809 L 166.1818958789306,441.4607965407296 L 165.83930637540578,443.389873965641 L 164.3547512528952,447.6575739302313 L 163.6695720802342,450.6942918105827 L 163.21278613074597,454.8662566941837 L 163.86941610910273,457.442135845828 L 165.69656056952437,459.07058553298265 L 221.4244679371468,460.42198708606327 L 224.50777413129407,481.4456026983139 L 228.81869319610786,493.37023815644454 L 219.4260284765487,523.2503655143764 L 197.85240057714327,563.3819787517016 L 189.963323555489,555.4678437683764 L 182.15989378549313,549.6846070099114 L 180.7038880229013,548.0579467818449 L 178.79109614519598,544.8428413644303 L 177.35412328921205,543.2819803590467 L 175.44133124589533,542.1346984935846 L 168.76083435390186,539.0510561718942 L 166.448354584084,537.3959561278846 L 164.72589011632644,535.7407209954608 L 163.95506352638407,534.2233031912036 L 163.44117918829733,532.9209921077866 L 162.2135664832538,531.839347852212 L 132.69376317359482,520.0754929069398 L 116.98222364094897,519.3024048971816 L 114.34618710860356,518.2697339028598 L 111.7767652525438,516.5908408910457 L 109.72122773457156,514.7626768910142 L 107.63714102230506,514.1385223947002 L 105.29611205818216,513.9838616227471 L 102.03199441054988,514.4533639176803 L 99.6909656120515,514.3539408497746 L 97.9494685689112,514.9118082900297 L 96.80750328114902,516.5853179420843 L 96.0081274969124,520.9313771608698 L 94.14291755450859,526.4689013565745 L 92.9724030724429,535.1503209415159 L 91.77333939609298,537.2690596929141 L 89.71780187811919,538.5159219559554 L 86.43465165510494,538.2842100620178 L 83.86522963343224,537.5835408726596 L 74.66289248944382,531.1329369650242 L 73.24234082329954,530.1621524067529" fill="none" stroke="#000000" stroke-width="0.897"/>
	<path d="M 57.915572858037486,573.4229980598556 L 59.33185953279904,568.3623832745046 L 60.16930075349195,562.9740504745378 L 60.79738176106326,560.5714291766733 L 62.015478031827755,557.9921526618547 L 63.44293469984406,556.3165497909174 L 66.56430658934936,553.5162202378044 L 67.63014080324547,551.4873936314102 L 68.2582216266989,546.7673817450666 L 68.16305791019545,541.9911112556135 L 68.65790964104544,537.1585419172866 L 70.9989386502628,532.3248188461055 L 73.24234082329954,530.1621524067529 L 74.66289248944382,531.1329369650242 L 83.86522963343224,537.5835408726596 L 86.43465165510494,538.2842100620178 L 89.71780187811919,538.5159219559554 L 91.77333939609298,537.2690596929141 L 92.9724030724429,535.1503209415159 L 94.14291755450859,526.4689013565745 L 96.0081274969124,520.9313771608698 L 96.80750328114902,516.5853179420843 L 97.9494685689112,514.9118082900297 L 99.6909656120515,514.3539408497746 L 102.03199441054988,514.4533639176803 L 105.29611205818216,513.9838616227471 L 107.63714102230506,514.1385223947002 L 109.72122773457156,514.7626768910142 L 111.7767652525438,516.5908408910457 L 114.34618710860356,518.2697339028598 L 116.98222364094897,519.3024048971816 L 132.69376317359482,520.0754929069398 L 162.2135664832538,531.839347852212 L 163.44117918829733,532.9209921077866 L 163.95506352638407,534.2233031912036 L 164.72589011632644,535.7407209954608 L 166.448354584084,537.3959561278846 L 168.76083435390186,539.0510561718942 L 175.44133124589533,542.1346984935846 L 177.35412328921205,543.2819803590467 L 178.79109614519598,544.8428413644303 L 180.7038880229013,548.0579467818449 L 182.15989378549313,549.6846070099114 L 189.963323555489,555.4678437683764 L 197.85240057714327,563.3819787517016 L 183.84429277126006,586.9628231520227 L 177.12573023166146,589.4503813492314 L 172.18673005157314,587.5242013415453 L 170.2453891451873,587.3645954778934 L 168.27549904449563,587.7883741227057 L 165.98205185006285,589.384343952886 L 164.1549073896404,591.1727826440183 L 161.55693633928564,592.8180075963884 L 148.50046624559462,595.9485210852293 L 131.29485563397776,598.2644620060161 L 125.03307920948035,597.7033792430319 L 106.72356862648127,598.2809641448835 L 99.20563046825825,597.1532834124274 L 91.83043778468148,597.1697862579175 L 87.63371516585269,596.9882515432862 L 85.54962861919915,596.22908841313 L 82.94214111553427,594.9362460643803 L 80.68675956869427,592.0036653097806 L 78.48847641046434,588.1846263026599 L 76.09034922335435,586.0216545322484 L 73.25446866214119,584.5300061286692 L 60.683333877854864,575.5282584937687 L 57.915572858037486,573.4229980598556" fill="none" stroke="#000000" stroke-width="0.897"/>
	<path d="M 1.140258272422079,819.4113102733018 L 1.929069987612623,813.6773437312413 L 3.2423301590207827,809.0604389419015 L 5.697555480685287,805.0797228597684 L 7.448568858386668,799.8181398217105 L 8.419239539963456,787.9665800177705 L 9.789597867594026,782.7061566850188 L 18.335304727240484,759.6482794568986 L 19.11564779169019,755.3579197666894 L 19.286942628691776,742.5143185325848 L 20.63826836034939,735.3354915946119 L 21.361512900252343,733.5103418943366 L 22.27508524145418,731.8708493236007 L 22.960264405270234,730.0016701937407 L 23.07446090187761,727.4545065262342 L 25.206129513822372,719.1111801159886 L 33.085690173939284,707.3176438438625 L 36.07383260255146,700.192323222275 L 36.07383260255146,693.5135302051666 L 32.30534710948958,680.5439446322653 L 32.38147823000929,674.483568707642 L 33.69473840139665,670.8333339305524 L 35.42671899898563,659.7800333952692 L 36.53061877314198,657.1254812099277 L 37.76774800819299,654.9423490593063 L 38.77648406586669,652.6602347040514 L 39.17617171192201,649.7084710635802 L 38.66228738510908,646.6904307230059 L 36.01673444632905,642.3875853674688 L 35.10316228929825,640.2028878196695 L 35.10316228929825,635.0970350172082 L 38.30066493098966,626.4526205161485 L 39.17617171192201,621.3872995653128 L 47.13186349254785,595.3376892728282 L 57.904403048944516,573.4629043713416 L 57.915572858037486,573.4229980598556 L 60.683333877854864,575.5282584937687 L 73.25446866214119,584.5300061286692 L 76.09034922335435,586.0216545322484 L 78.48847641046434,588.1846263026599 L 80.68675956869427,592.0036653097806 L 82.94214111553427,594.9362460643803 L 85.54962861919915,596.22908841313 L 87.63371516585269,596.9882515432862 L 91.83043778468148,597.1697862579175 L 90.77411991421144,610.4669488334355 L 87.00563438179097,627.3097074488262 L 78.8310659139776,653.1980425234569 L 79.20220461180588,677.0867414864683 L 77.71764982052122,683.2668698665595 L 66.94511030235304,704.4887756988472 L 64.83247456140371,715.0150056737299 L 64.40423747498538,720.587806130011 L 65.26071148220987,724.5518422145252 L 66.23138193539701,726.6237754637468 L 67.65883866930754,729.0671883189068 L 69.3432374894615,731.2643749598528 L 71.59861903629226,733.3520338879439 L 74.12045895706129,734.8274779031655 L 77.14666709383364,735.8274417926797 L 80.08722764771322,735.9531169451258 L 82.82794450394788,735.6088745607149 L 85.2070389500614,734.7455116411207 L 87.57661694286558,734.2591713262101 L 92.31577309408692,734.1225566625385 L 97.80672276302978,735.1990548383668 L 101.23261879192546,736.4776656954932 L 104.83932594308253,738.4773865442075 L 108.40796744663524,741.5967861858023 L 111.71966686394451,745.1362748250275 L 114.46038372017993,749.3850521368083 L 124.14805600796083,771.2542061969933 L 136.0911100081862,819.7900882232566 L 145.20779973489326,886.3694397795703 L 145.62652036800148,888.1705289091623 L 145.6403710661153,888.2301038560562 L 123.87193241806314,884.4595155912124 L 96.54089606517098,879.7603541885385 L 70.94184012572761,875.3315562022076 L 42.29754360142731,870.3914885965598 L 20.42890796309758,866.6015143598682 L 0.0,863.0306474979599 L 2.3991177628814135,861.3317223556749 L 3.613017920057092,842.1798910924449 L 4.916836559649853,836.6656042096851 L 8.9182109608483,828.048788730253 L 8.738373996012594,824.6987583457061 L 4.916836559649853,820.8511359655085 L 2.3991177628814135,820.8511359655085 L 2.249253564126955,820.1655168652894 L 2.249253564126955,819.5998644000011 L 1.9944843157730343,819.2998911707149 L 1.140258272422079,819.4113102733018" fill="none" stroke="#000000" stroke-width="0.897"/>
	<path d="M 101.85389901001554,366.59111913599037 L 106.47599403257274,355.8835316778871 L 112.33808276149172,349.3573358495274 L 108.45540058766144,337.7251148784286 L 108.45540058766144,336.12013241479485 L 110.43480714276171,333.4337235807835 L 105.94307710977607,316.158387719955 L 106.4569614366098,314.40658712589726 L 107.59892658686537,313.77054440803994 L 108.87412138216507,313.40229984899156 L 109.7115626028472,312.40912099601894 L 109.84479187959009,310.6904680000299 L 108.7599248855577,308.3019606399817 L 108.45540058766144,306.5048079306877 L 108.34120427521663,303.55756827401643 L 107.94151626084852,301.2575207499847 L 105.94307710977607,296.1875330235749 L 105.60048743579216,286.21124196972863 L 106.60922349347742,282.4786029772135 L 109.7115626028472,279.9413434159853 L 107.77022142384617,277.2584205103615 L 107.8844181046261,274.75402750715466 L 110.96772443386115,269.47586356866395 L 109.99705375228513,268.08899087056665 L 109.99705375228513,266.91454586650275 L 110.83449515712904,265.9413810724461 L 112.33808276149172,265.1695261193337 L 112.33808276149172,263.55860009485576 L 111.55773969705356,260.99091247484984 L 112.3660695780721,257.53127456946623 L 113.54681132435616,257.4103058844805 L 126.35585561950163,258.9490032330183 L 129.35351456197895,262.68613459878964 L 132.4653701160342,263.9559253694491 L 137.27114077793826,264.93478230321864 L 137.5280830297931,266.74134429633057 L 139.41232571319262,267.4404332360773 L 141.8675511232774,267.6753216530502 L 157.87409822414654,267.2726543732171 L 161.4998381162993,267.9605392993421 L 164.06925997235905,269.0622235486247 L 166.15334668462555,271.16475823275516 L 167.5332214832469,272.98751771222356 L 174.2993659581339,278.0299732999226 L 175.35568382861396,283.6131729641999 L 176.2978052531198,284.7307393834995 L 177.79187666331677,286.1276078595553 L 179.04803839705238,286.6751530052932 L 182.64522909489935,288.80372937061423 L 177.22089393662995,290.5801597295733 L 171.47300185023008,296.2100450946767 L 168.58953951933913,297.8294549530196 L 161.58548553358065,299.9679876698893 L 158.84476867734523,302.2346901094363 L 150.55600392917907,312.0354453116868 L 145.9500771305306,315.38310256661003 L 135.2346360009617,320.86645035296914 L 132.4653701160342,323.3482366058459 L 131.1806590224014,325.72376601310526 L 131.5803470801284,327.7087302633425 L 132.86505800815752,329.2084724611328 L 134.83494794323545,330.2119536409056 L 137.27114077793826,330.93108359927965 L 141.4964124254591,331.62789012862646 L 142.55273029593917,332.7873213200504 L 142.86677077077036,334.6155167073848 L 140.5257419722612,341.224589706301 L 140.09750505145504,343.4976881056411 L 139.75491538232885,347.3524433868338 L 137.3853372239117,348.76158071040976 L 132.4653701160342,349.2015674423151 L 130.18143937490842,349.89772905283695 L 127.95460718797564,351.3790788511078 L 126.8411909289063,352.832476145095 L 124.69048970596711,358.63386295279037 L 121.66428140357101,364.1163351961303 L 119.35180179936611,366.35341537773746 L 116.78237977769341,367.5720168968981 L 104.11608128842934,366.8653484405375 L 101.85389901001554,366.59111913599037" fill="none" stroke="#000000" stroke-width="0.897"/>
	<path d="M 342.00633965094363,230.9479254925775 L 344.3664012561355,230.13546081405352 L 373.9623356818655,209.90255061208845 L 402.1498460355537,191.55192285416132 L 402.1879115958032,191.55192285416132 L 422.57199240989496,178.53881948726405 L 454.09023505034025,158.36439208068612 L 468.71037352761743,149.018603655209 L 485.66557584701803,138.17446468694476 L 517.2218838635617,117.9689580997186 L 548.7781920642558,97.71394085592075 L 572.2265464274694,82.64976051160622 L 604.2967389550095,62.53249878453402 L 619.925223138178,52.7125406988441 L 659.3014013347646,27.948524758131462 L 704.4090311232056,0.0 L 712.9737711312896,31.283501820346387 L 720.6249386140292,59.37824903650011 L 727.0009116697719,82.63846811422079 L 735.3943566567033,113.64570002164076 L 744.0923257573776,145.6384259100998 L 756.4636168187614,191.1027602513765 L 742.246148663172,195.56585363554748 L 741.9987227056607,195.64443977395777 L 741.9225917693128,195.8016110943885 L 741.9987227056607,196.07104461495783 L 742.246148663172,196.4246706141794 L 751.2296089132942,227.63061534653363 L 752.5999674250666,230.88068846465137 L 754.4651774835579,231.93404375669945 L 789.3522176026854,222.31165187838656 L 793.1397358758828,224.52012314425463 L 795.861419935171,231.1832536943629 L 799.7060363645908,245.80164392754918 L 795.0049459343542,252.65898649310142 L 772.8508187782629,271.50007357993826 L 772.888884522685,273.16625495465337 L 771.0236742800427,273.7700708440236 L 767.4455164040978,276.46465215716347 L 745.5768807657657,297.2150371328729 L 739.2009077100231,299.90639673307203 L 739.2009077100231,299.93989674281687 L 739.1818749298899,299.92873015128606 L 718.2648770088605,305.9913057474677 L 676.8496017771095,317.96581457042646 L 635.4723919214493,329.9441893821254 L 594.0761492856852,341.9041443186874 L 559.2983974293412,351.94171046293127 L 552.6608740539358,353.85685506335 L 517.8436298187706,364.2736972998727 L 517.7359169616402,364.23320362153527 L 517.469458422099,364.13303050634926 L 288.8575194629196,285.004533291088 L 282.3768664341801,281.24372095424263 L 276.5147777361946,275.7325188993542 L 273.28872573616593,274.03860214793383 L 263.3441111965294,272.96515361243036 L 259.93724790862865,273.30620359958596 L 257.5676699158237,274.3796334219533 L 255.62632900943862,275.8666841363313 L 253.25675085102225,276.9511535769818 L 250.48748496609474,277.02382205122535 L 247.65160440488003,276.18532313080794 L 244.42555257046354,273.8373349490112 L 236.99326149829827,270.17502947639383 L 229.54193801636166,269.45367000720057 L 227.24849082192733,269.7556377016999 L 225.3356991098365,270.2085803052183 L 221.51011535443894,271.76863611806857 L 218.95972607376194,271.98110712788696 L 216.1333619658473,271.21508210205326 L 211.65114806647082,267.80954217157296 L 209.3386682966545,266.37780815038303 L 207.50200738293353,266.1373113064391 L 204.9896837498609,268.63162327519365 L 203.1339900951442,269.6549823216992 L 200.96425596559482,270.1191110409065 L 198.99436586490393,269.772413483115 L 197.10060672820663,268.44707753664073 L 196.18703433238284,266.9538699433263 L 196.04428885772734,264.90122242150994 L 196.58672239010832,263.3406186177721 L 197.4146472030378,262.01484661492026 L 197.7001384835747,260.61066041185103 L 197.04350833960734,259.1168539814877 L 195.47330613103975,257.42709207444744 L 191.7619188216064,256.16806868351404 L 189.84912710951556,251.74125688719948 L 187.42245056249837,247.68852813438127 L 186.15677254107638,246.53524992942732 L 184.64366838988448,245.5274750738213 L 183.7586453539787,244.049311008124 L 183.90139099424715,241.91025393792873 L 185.6714372316825,238.53320167455902 L 194.04584939712925,229.09339057688527 L 196.64382061309544,223.80845803753888 L 198.0807934690909,221.92503828743236 L 198.3282194332494,220.26007794005216 L 197.7572368721748,217.04187153301115 L 196.81511544766892,214.88301956593955 L 195.84444482885803,213.13894029685068 L 195.61605193692117,211.36666104097228 L 196.2441327209829,209.59982904307648 L 198.88016941894048,207.42892939357694 L 201.16409999446256,207.0418445054162 L 203.24818654111763,207.76551882348602 L 206.61698418141478,210.40754361232663 L 208.22525203758596,210.74408137941117 L 209.53851215990932,210.28975403466754 L 210.82322308793997,204.64623251966373 L 208.557200741246,186.82837807971808 L 211.19421328283798,186.91381440409359 L 218.00793972905726,185.99279869233663 L 219.16893765942677,186.11635219279736 L 221.07221309402811,186.85765597630947 L 222.1761128681837,187.0598249450377 L 223.0896852093655,186.62178979962786 L 225.18328826106236,184.72913850999888 L 226.13492597836188,184.42584773173186 L 228.13336531358533,185.52104194285607 L 234.12868313507616,191.54069400299494 L 246.00512246562917,199.71925590269262 L 262.18296439619326,215.02864446337722 L 264.90464845548223,216.57069441124855 L 268.53990448765023,217.67528781548106 L 278.91275621384057,218.72375220457656 L 281.900898642442,220.59066385367456 L 288.6230070056059,221.4100332825979 L 313.81882911309435,224.48088864483685 L 320.46126072231203,229.51348227404634 L 323.6587635481745,227.63061534653363 L 327.6556422186121,227.7482997608938 L 339.41788486838675,230.84146636015333 L 342.00633965094363,230.9479254925775" fill="none" stroke="#000000" stroke-width="0.897"/>
	<path d="M 418.45798810290756,460.7099468243777 L 442.06153366292887,486.21391999321787 L 466.0237725371172,512.0945236405572 L 466.59475502017415,512.7684569272354 L 467.1847706516578,513.4534149343059 L 467.75575313471467,514.1383499135424 L 468.3457685820381,514.8232616548877 L 488.5395217790128,538.5929862335296 L 508.7523079402748,562.3238277344012 L 528.9841266975089,586.0159787123049 L 549.1778798944829,609.6916216456916 L 558.2945696054791,620.3652934464654 L 558.3516677617015,620.5081576696324 L 558.2755368253643,620.5960734721451 L 558.1042419883628,620.6620100232358 L 556.8671131216153,621.4202668065958 L 543.3919222860636,628.95734933694 L 521.1426315976407,641.4215164097852 L 501.1392058336313,652.6382900395748 L 496.87586879387123,656.1930158499839 L 494.4777414442997,660.0323079753101 L 489.0724388859612,673.2011274283648 L 482.44904024103005,689.2642582326754 L 476.3585585188971,704.0234451599406 L 468.1744737450565,723.9448127744365 L 464.21566063486836,727.4654393457246 L 442.5183198335194,731.9582920902046 L 417.8709017955173,737.0730603510254 L 391.58666687640886,742.5361679271107 L 365.0930717442104,748.0415315261504 L 348.7058694163845,751.4270447895863 L 332.7373878830722,754.7464988325493 L 327.67467499873686,757.279411080494 L 323.2781084980937,762.0059644771131 L 313.09558457317985,779.2657251134203 L 304.6260084657411,793.5962244092817 L 293.1492571495554,813.0022936829337 L 281.32991615939585,832.9670156876199 L 267.1314807839212,844.6900003633871 L 245.71963113202023,862.3654981752582 L 226.249122659121,878.4361536346122 L 206.26472967523634,894.8851247446007 L 201.54460646489497,896.804789489287 L 196.50092617652263,897.0 L 177.35397459748185,893.6974489133527 L 156.13245237854693,890.0472356081646 L 145.6403710661153,888.2301038560562 L 145.62652036800148,888.1705289091623 L 145.20779973489326,886.3694397795703 L 136.0911100081862,819.7900882232566 L 124.14805600796083,771.2542061969933 L 114.46038372017993,749.3850521368083 L 111.71966686394451,745.1362748250275 L 108.40796744663524,741.5967861858023 L 104.83932594308253,738.4773865442075 L 101.23261879192546,736.4776656954932 L 97.80672276302978,735.1990548383668 L 92.31577309408692,734.1225566625385 L 87.57661694286558,734.2591713262101 L 85.2070389500614,734.7455116411207 L 82.82794450394788,735.6088745607149 L 80.08722764771322,735.9531169451258 L 77.14666709383364,735.8274417926797 L 74.12045895706129,734.8274779031655 L 71.59861903629226,733.3520338879439 L 69.3432374894615,731.2643749598528 L 67.65883866930754,729.0671883189068 L 66.23138193539701,726.6237754637468 L 65.26071148220987,724.5518422145252 L 64.40423747498538,720.587806130011 L 64.83247456140371,715.0150056737299 L 66.94511030235304,704.4887756988472 L 77.71764982052122,683.2668698665595 L 79.20220461180588,677.0867414864683 L 78.8310659139776,653.1980425234569 L 87.00563438179097,627.3097074488262 L 90.77411991421144,610.4669488334355 L 91.83043778468148,597.1697862579175 L 99.20563046825825,597.1532834124274 L 106.72356862648127,598.2809641448835 L 125.03307920948035,597.7033792430319 L 131.29485563397776,598.2644620060161 L 148.50046624559462,595.9485210852293 L 161.55693633928564,592.8180075963884 L 164.1549073896404,591.1727826440183 L 165.98205185006285,589.384343952886 L 168.27549904449563,587.7883741227057 L 170.2453891451873,587.3645954778934 L 172.18673005157314,587.5242013415453 L 177.12573023166146,589.4503813492314 L 183.84429277126006,586.9628231520227 L 197.85240057714327,563.3819787517016 L 219.4260284765487,523.2503655143764 L 228.81869319610786,493.37023815644454 L 224.50777413129407,481.4456026983139 L 221.4244679371468,460.42198708606327 L 418.45798810290756,460.7099468243777" fill="none" stroke="#000000" stroke-width="0.897"/>
	<path d="M 377.24258214443233,406.29510212513054 L 370.17481740865884,408.40454068963106 L 394.13705609870544,434.3746546363684 L 418.09929497290386,460.3221236817486 L 418.45798810290756,460.7099468243777 L 221.4244679371468,460.42198708606327 L 165.69656056952437,459.07058553298265 L 163.86941610910273,457.442135845828 L 163.21278613074597,454.8662566941837 L 163.6695720802342,450.6942918105827 L 164.3547512528952,447.6575739302313 L 165.83930637540578,443.389873965641 L 166.1818958789306,441.4607965407296 L 165.69656056952437,438.6389081698809 L 164.44039867017733,434.5522849296307 L 159.9581849364238,426.6761071446317 L 161.95662423140894,424.77315571789035 L 163.0700404904775,423.9076136763577 L 164.46894803009457,422.44831306693794 L 165.26832364871976,421.0499475663328 L 168.41824468476565,411.33081768349376 L 169.64585738980765,408.9933009048266 L 172.18673005157314,405.30601778171706 L 172.7577127782592,403.94532664424025 L 172.41512327473592,402.62342339274556 L 170.9591173465296,401.21255564715466 L 169.87425044735747,399.87936013704683 L 169.70295561279474,398.17385093657623 L 170.33103656246865,396.61820972817395 L 170.4737822027371,394.5734679430191 L 169.36036610927073,391.85052291493434 L 161.3570924760293,383.2291060733818 L 159.98673413071884,379.84844410092944 L 158.55927739680678,374.30357800379954 L 158.27378611626983,372.21759500863476 L 158.53072836812547,370.34836766542634 L 159.4443004327141,368.701521066364 L 162.6132542097657,364.9065763821117 L 163.6981214401522,362.91978282115537 L 164.09780933226472,360.90495947960744 L 163.6695720802342,345.2970389821046 L 162.35631212352303,344.0603512106704 L 161.12869941847947,343.86537083541975 L 158.81621964866315,344.817970976889 L 155.98033908744847,345.52542788006144 L 146.673321785183,345.5588502916081 L 139.75491538232885,347.3524433868338 L 140.09750505145504,343.4976881056411 L 140.5257419722612,341.224589706301 L 142.86677077077036,334.6155167073848 L 142.55273029593917,332.7873213200504 L 141.4964124254591,331.62789012862646 L 137.27114077793826,330.93108359927965 L 134.83494794323545,330.2119536409056 L 132.86505800815752,329.2084724611328 L 131.5803470801284,327.7087302633425 L 131.1806590224014,325.72376601310526 L 132.4653701160342,323.3482366058459 L 135.2346360009617,320.86645035296914 L 145.9500771305306,315.38310256661003 L 150.55600392917907,312.0354453116868 L 158.84476867734523,302.2346901094363 L 161.58548553358065,299.9679876698893 L 168.58953951933913,297.8294549530196 L 171.47300185023008,296.2100450946767 L 177.22089393662995,290.5801597295733 L 182.64522909489935,288.80372937061423 L 186.87050074241944,294.35593578138213 L 191.30513287211818,298.43809490596936 L 197.5098110736285,305.99148010230374 L 201.07845257717042,308.5476959011419 L 203.5051287929617,309.3011021600336 L 207.10231949081947,307.247304451881 L 209.3672173253466,306.7784726716871 L 212.33632723913183,306.5105638016958 L 221.36736954855752,303.6358947457963 L 233.2247761315008,303.7196291935046 L 237.0218106926033,303.01066840057814 L 239.40090497309387,301.5480076166874 L 242.91244841927167,297.2822208022568 L 245.1107317431253,295.37795151186646 L 249.0314792035006,294.53465278910477 L 268.5115042685669,296.23238267405435 L 272.37515334034214,297.96346898686403 L 276.1721882326698,301.15720168595345 L 286.6306871103838,312.62132631187416 L 291.9217930816933,319.48878437137887 L 292.235833556526,322.89651911392843 L 290.54191844868495,325.534180342538 L 285.374525376659,328.7624643770744 L 281.2349009808065,332.1462979772464 L 279.8264771535039,334.06930547225215 L 279.56953490164904,336.09244112663475 L 280.72101647710684,338.4552899591449 L 285.68856568587796,344.11605939707914 L 293.9487814053613,351.79673268831766 L 301.95205503860194,357.27553330636584 L 306.2344249091099,358.88436440635 L 309.68886996668766,358.7841642056636 L 318.4344211611894,353.38930494778606 L 321.5843420316223,352.5317819866522 L 325.01023789490654,353.3336227153529 L 376.5890044133772,405.93912398945616 L 377.1599871400648,406.2501161087087 L 377.24258214443233,406.29510212513054" fill="none" stroke="#000000" stroke-width="0.897"/>
	<path d="M 517.8436298187706,364.2736972998727 L 507.0393599386488,367.50507221961396 L 461.4178458233725,381.1550091636992 L 415.796331523956,394.7844457435295 L 377.24258214443233,406.29510212513054 L 377.1599871400648,406.2501161087087 L 376.5890044133772,405.93912398945616 L 325.01023789490654,353.3336227153529 L 321.5843420316223,352.5317819866522 L 318.4344211611894,353.38930494778606 L 309.68886996668766,358.7841642056636 L 306.2344249091099,358.88436440635 L 301.95205503860194,357.27553330636584 L 293.9487814053613,351.79673268831766 L 285.68856568587796,344.11605939707914 L 280.72101647710684,338.4552899591449 L 279.56953490164904,336.09244112663475 L 279.8264771535039,334.06930547225215 L 281.2349009808065,332.1462979772464 L 285.374525376659,328.7624643770744 L 290.54191844868495,325.534180342538 L 292.235833556526,322.89651911392843 L 291.9217930816933,319.48878437137887 L 286.6306871103838,312.62132631187416 L 276.1721882326698,301.15720168595345 L 272.37515334034214,297.96346898686403 L 268.5115042685669,296.23238267405435 L 249.0314792035006,294.53465278910477 L 245.1107317431253,295.37795151186646 L 242.91244841927167,297.2822208022568 L 239.40090497309387,301.5480076166874 L 237.0218106926033,303.01066840057814 L 233.2247761315008,303.7196291935046 L 221.36736954855752,303.6358947457963 L 212.33632723913183,306.5105638016958 L 209.3672173253466,306.7784726716871 L 207.10231949081947,307.247304451881 L 203.5051287929617,309.3011021600336 L 201.07845257717042,308.5476959011419 L 197.5098110736285,305.99148010230374 L 191.30513287211818,298.43809490596936 L 186.87050074241944,294.35593578138213 L 182.64522909489935,288.80372937061423 L 179.04803839705238,286.6751530052932 L 177.79187666331677,286.1276078595553 L 176.2978052531198,284.7307393834995 L 175.35568382861396,283.6131729641999 L 174.2993659581339,278.0299732999226 L 181.189223332306,268.7882063254922 L 183.3304082675596,267.1048736809327 L 186.24241995836852,265.371057272824 L 188.65006343315332,264.24679087167874 L 190.22026564172089,262.6357889607664 L 191.13383803754468,260.72255155020355 L 191.7619188216064,256.16806868351404 L 195.47330613103975,257.42709207444744 L 197.04350833960734,259.1168539814877 L 197.7001384835747,260.61066041185103 L 197.4146472030378,262.01484661492026 L 196.58672239010832,263.3406186177721 L 196.04428885772734,264.90122242150994 L 196.18703433238284,266.9538699433263 L 197.10060672820663,268.44707753664073 L 198.99436586490393,269.772413483115 L 200.96425596559482,270.1191110409065 L 203.1339900951442,269.6549823216992 L 204.9896837498609,268.63162327519365 L 207.50200738293353,266.1373113064391 L 209.3386682966545,266.37780815038303 L 211.65114806647082,267.80954217157296 L 216.1333619658473,271.21508210205326 L 218.95972607376194,271.98110712788696 L 221.51011535443894,271.76863611806857 L 225.3356991098365,270.2085803052183 L 227.24849082192733,269.7556377016999 L 229.54193801636166,269.45367000720057 L 236.99326149829827,270.17502947639383 L 244.42555257046354,273.8373349490112 L 247.65160440488003,276.18532313080794 L 250.48748496609474,277.02382205122535 L 253.25675085102225,276.9511535769818 L 255.62632900943862,275.8666841363313 L 257.5676699158237,274.3796334219533 L 259.93724790862865,273.30620359958596 L 263.3441111965294,272.96515361243036 L 273.28872573616593,274.03860214793383 L 276.5147777361946,275.7325188993542 L 282.3768664341801,281.24372095424263 L 288.8575194629196,285.004533291088 L 517.469458422099,364.13303050634926 L 517.7359169616402,364.23320362153527 L 517.8436298187706,364.2736972998727" fill="none" stroke="#000000" stroke-width="0.897"/>
	<path d="M 137.27114077793826,264.93478230321864 L 132.4653701160342,263.9559253694491 L 129.35351456197895,262.68613459878964 L 126.35585561950163,258.9490032330183 L 127.18378059804405,256.78919716524825 L 127.32652607269956,255.5189404906268 L 126.86974012320056,253.64418143805088 L 124.31935084252432,247.79489510158407 L 123.20593458345574,244.28448088309327 L 122.89189427422674,240.98064288945557 L 125.71825838214136,227.41223156830029 L 127.01248576347055,224.04947769822908 L 128.81108119520013,221.76807853348387 L 131.437601274247,220.64689978603138 L 134.6351040799799,220.40023156205592 L 139.2695800729234,220.71417209306122 L 143.69469558369983,219.4527730910291 L 149.2998421954442,216.3690082661009 L 152.32605016661438,215.77462635228787 L 157.674254360901,216.077427002973 L 160.67191330337985,215.62883180595216 L 162.87019646160977,214.3390631325491 L 164.18345674955685,212.49959251635224 L 165.49671670626958,211.6470958574211 L 166.73384586462168,212.202344408048 L 167.5332214832469,215.0400349570114 L 168.44679371345774,216.81758617217912 L 172.07253360559895,219.75551660846395 L 176.04086300127497,225.34420673829797 L 172.129631994199,227.4962928528405 L 170.1311926992123,228.35369833483105 L 167.2667629437049,230.25890870681297 L 164.3547512528952,233.14998903825392 L 161.2428958644537,238.05151785459032 L 159.9581849364238,241.61905526656452 L 159.4443004327141,244.63723037528658 L 159.58704623859552,246.70320711332 L 159.15880915217642,248.62901542659168 L 157.5029595263275,250.5210487732231 L 144.9508574830384,256.2016437697683 L 137.27114077793826,264.93478230321864" fill="none" stroke="#000000" stroke-width="0.897"/>
	<path d="M 141.8675511232774,267.6753216530502 L 139.41232571319262,267.4404332360773 L 137.5280830297931,266.74134429633057 L 137.27114077793826,264.93478230321864 L 144.9508574830384,256.2016437697683 L 157.5029595263275,250.5210487732231 L 159.15880915217642,248.62901542659168 L 159.58704623859552,246.70320711332 L 159.4443004327141,244.63723037528658 L 159.9581849364238,241.61905526656452 L 161.2428958644537,238.05151785459032 L 164.3547512528952,233.14998903825392 L 167.2667629437049,230.25890870681297 L 170.1311926992123,228.35369833483105 L 172.129631994199,227.4962928528405 L 176.04086300127497,225.34420673829797 L 182.35973781436167,222.6425530350073 L 184.81496322445798,221.90261554305718 L 190.5343062821758,223.55061960736418 L 196.64382061309544,223.80845803753888 L 194.04584939712925,229.09339057688527 L 185.6714372316825,238.53320167455902 L 183.90139099424715,241.91025393792873 L 183.7586453539787,244.049311008124 L 184.64366838988448,245.5274750738213 L 186.15677254107638,246.53524992942732 L 187.42245056249837,247.68852813438127 L 189.84912710951556,251.74125688719948 L 191.7619188216064,256.16806868351404 L 191.13383803754468,260.72255155020355 L 190.22026564172089,262.6357889607664 L 188.65006343315332,264.24679087167874 L 186.24241995836852,265.371057272824 L 183.3304082675596,267.1048736809327 L 181.189223332306,268.7882063254922 L 174.2993659581339,278.0299732999226 L 167.5332214832469,272.98751771222356 L 166.15334668462555,271.16475823275516 L 164.06925997235905,269.0622235486247 L 161.4998381162993,267.9605392993421 L 157.87409822414654,267.2726543732171 L 141.8675511232774,267.6753216530502" fill="none" stroke="#000000" stroke-width="0.897"/>
</svg>
