<?xml version="1.0" ?>
<svg xmlns="http://www.w3.org/2000/svg" xmlns:ev="http://www.w3.org/2001/xml-events" xmlns:xlink="http://www.w3.org/1999/xlink" baseProfile="full" height="472px" version="1.1" viewBox="-80.4 -63.30444513036398 960.8 755.6533415643678" width="600px">
	<defs/>
	<path d="M 349.9041374885351,584.3561418935744 L 354.95083163016216,586.5701335061368 L 387.21009329467716,607.9065313408194 L 394.1864063746705,618.5757979454621 L 392.10835563118036,623.5080588091436 L 382.8560827341881,624.8166430548833 L 368.5076378192231,624.8166430548833 L 327.24349081561263,616.4620191408915 L 284.64345331000766,615.304485081377 L 274.7974519766081,611.8319338611878 L 272.1256727966851,607.2019821516769 L 272.719401233123,596.5334746871666 L 270.98769258422806,590.6962905419251 L 265.6936108847703,585.7147237076172 L 260.15214284345967,583.3497922337456 L 255.7981322829655,580.0288826695695 L 254.01694575769935,571.8275372344942 L 253.32426217653088,549.540105953442 L 256.8866346190869,540.3845385498805 L 266.8315910972222,543.9058486891869 L 275.4901355577816,548.533973690271 L 301.02047109212225,553.3634634157964 L 312.49922714566407,556.8850579448188 L 344.164759765765,577.9156123247454 L 349.9041374885351,584.3561418935744" fill="none" stroke="#000000" stroke-width="0.8"/>
	<path d="M 800.0,537.8693634887368 L 799.6536585134166,613.2410755574243 L 796.2891957523506,624.4140009380486 L 789.3128826723267,629.0444513036398 L 783.9693243125113,626.8298713619441 L 777.7351726900271,621.5955314854353 L 772.6884779403933,615.2541578383763 L 770.6104278049098,609.869220238137 L 769.4229703240629,602.1695791176005 L 766.1079848313258,597.7915162813325 L 721.2814647771525,566.9974930095713 L 716.2842479039153,558.9980516594202 L 712.5734430482643,549.540105953442 L 703.3706474196314,544.9622572271472 L 679.3246335843922,539.9821077554639 L 641.5239038785717,520.6666196002906 L 636.4277324685802,516.5925536869721 L 612.0353765387205,502.107816965399 L 603.8221287095106,493.20638162325156 L 613.6186527745508,492.90464677126783 L 621.7329460670318,494.9162238762479 L 637.3678023916066,501.65518974071085 L 647.9559651825153,504.370972055166 L 667.5984911889619,507.23767952964056 L 674.7727133424437,510.10443837229144 L 677.9887442984163,507.53944168345004 L 684.0744635078055,504.370972055166 L 687.1915393190119,501.65518974071085 L 705.448698163147,505.4271215048349 L 721.5783289953714,490.69194063898493 L 730.8306018923688,467.71175137391054 L 728.7030738804835,446.84633718764024 L 734.6403612847488,445.086725729727 L 743.0020409190826,440.2101869883527 L 749.5330573677873,438.4003742442853 L 752.5511780342988,437.0933002093651 L 755.1734805538284,435.1327084478496 L 758.0926466835755,433.6245764171301 L 762.2982254389457,433.7753891794995 L 765.8111200051305,436.3392237193381 L 770.6104278049098,444.9359025258828 L 772.6884779403933,446.84633718764024 L 798.3672458878341,529.217461856383 L 800.0,537.8693634887368" fill="none" stroke="#000000" stroke-width="0.8"/>
	<path d="M 154.0231304162341,283.93589158833163 L 155.55692999167627,290.11371424828116 L 159.36668938409193,297.0954322128814 L 173.61617915432132,315.9826986821161 L 173.31931493610236,321.15697829625697 L 166.44195700080908,332.1591390649832 L 164.46286079408344,338.38899679746 L 163.77017721290986,342.860571013888 L 162.18690097710999,346.3273808822322 L 157.7339352719208,349.492792050505 L 151.94508028075575,351.3518709073858 L 143.68235518315095,352.5577713586955 L 136.4586551533031,351.75383695277486 L 133.24262480533721,347.1312889040327 L 129.33391026819098,339.3938343870433 L 95.29346268641653,307.94530156689314 L 86.2885767392788,304.22813727305504 L 60.21398942888854,302.7212024903277 L 53.831405393304244,301.1138200617409 L 46.85509292132274,297.2963493943107 L 35.128950525892456,287.95396144224634 L 30.181210920989248,281.675769215414 L 28.498979540458766,276.2013788154067 L 27.707340814549525,270.8276096430086 L 24.936607097897607,264.801158689523 L 9.450182578456824,249.73598126416667 L 2.7707337166519204,239.84391805293922 L 0.0,224.73077449010387 L 1.6822313805304807,218.70597990521642 L 5.640422578070031,211.22549347050315 L 18.801410012177975,192.14924579944045 L 18.949842425273022,185.57346022884482 L 17.218133168376415,178.9477360481091 L 16.62440473193343,171.71996952840132 L 25.035561634662134,62.738380071300135 L 23.74914961705067,55.515533869983884 L 20.434164124343994,48.894857480258544 L 26.371451528609203,38.212030448500556 L 32.16030651977428,23.066620033310887 L 38.49341328695851,11.282202051606053 L 45.667635440470725,11.031478496944642 L 71.49483580100649,2.306524057398446 L 86.63491883386895,0.0 L 97.76733218484951,4.512792820450268 L 105.0405094830974,14.04018511247466 L 110.433545719279,23.969289557592813 L 113.20427943593091,35.20290246966818 L 99.6474732468751,150.28944605286816 L 105.08998675145676,175.28362152695416 L 132.10464459284455,213.88629954057345 L 141.9011686578848,239.1409509380943 L 142.19803287610884,245.4677603977298 L 141.25796295308243,258.52383655593303 L 141.9011686578848,264.801158689523 L 144.67190298254346,269.32097668970533 L 148.6795720564186,273.23825087212896 L 152.39037630406298,277.70807382905815 L 154.0231304162341,283.93589158833163" fill="none" stroke="#000000" stroke-width="0.8"/>
</svg>
