<?xml version="1.0" ?>
<svg xmlns="http://www.w3.org/2000/svg" xmlns:ev="http://www.w3.org/2001/xml-events" xmlns:xlink="http://www.w3.org/1999/xlink" baseProfile="full" height="600px" version="1.1" viewBox="-80.25450495279048 -81.20400000000001 959.0140594334857 970.408" width="593px">
	<defs/>
	<path d="M 589.721326001841,736.8254455716843 L 577.8892236238843,705.1615138308537 L 650.745259428562,711.129023453406 L 695.4701218034833,692.8541991088124 L 661.9264766830862,726.0806265270666 L 621.9935642437936,734.3868641755475 L 589.721326001841,736.8254455716843" fill="none" stroke="#000000" stroke-width="0.808"/>
	<path d="M 727.1705962834961,808.0 L 612.8551301656452,798.7277458112759 L 589.721326001841,736.8254455716843 L 621.9935642437936,734.3868641755475 L 661.9264766830862,726.0806265270666 L 695.4701218034833,692.8541991088124 L 727.1705962834961,808.0" fill="none" stroke="#000000" stroke-width="0.808"/>
	<path d="M 798.0547718058323,711.0512695343034 L 798.5050495279048,733.2958557666669 L 794.3973053169815,755.5937306443949 L 781.7735118599937,786.6422832969762 L 771.8548175286385,797.4775382563377 L 727.1705962834961,808.0 L 695.4701218034833,692.8541991088124 L 735.4030320284392,681.2243949573066 L 768.9466771488363,692.8541991088124 L 798.0547718058323,711.0512695343034" fill="none" stroke="#000000" stroke-width="0.808"/>
	<path d="M 611.9253370549098,581.1034156098525 L 644.7151807879765,545.7017256427554 L 695.9116771585525,546.7441224535 L 740.3955212378921,561.650144880575 L 774.5599166540858,594.7961026717098 L 794.3973053169815,650.7636762904446 L 797.3027816083962,673.8991588095378 L 798.0547718058323,711.0512695343034 L 768.9466771488363,692.8541991088124 L 735.4030320284392,681.2243949573066 L 695.4701218034833,692.8541991088124 L 653.9398941951988,611.4395204736184 L 611.9253370549098,581.1034156098525" fill="none" stroke="#000000" stroke-width="0.808"/>
	<path d="M 577.8892236238843,705.1615138308537 L 596.925103623425,597.2975880191649 L 611.9253370549098,581.1034156098525 L 653.9398941951988,611.4395204736184 L 695.4701218034833,692.8541991088124 L 650.745259428562,711.129023453406 L 577.8892236238843,705.1615138308537" fill="none" stroke="#000000" stroke-width="0.808"/>
	<path d="M 10.924825583774723,90.81993702809419 L 19.536822914047505,54.160740673862726 L 29.154951496739816,45.39526934974963 L 35.76741520509542,40.69941246230199 L 43.081198993904756,37.881875480929594 L 54.70310415952253,35.06432392563167 L 84.75975782704624,22.228584404002284 L 95.37977470108798,14.714814685764718 L 104.46303763095055,36.1481778073788 L 104.46303763095055,61.103310667346825 L 106.06035279994241,91.04769971373464 L 114.04693528778857,106.01916795313414 L 130.02010026352212,111.00954844868436 L 131.61741543236977,125.98037480949218 L 61.33549263935795,111.00954844868436 L 64.53012519165789,92.71121876975555 L 50.15427759917064,86.0571021283853 L 40.57037772809877,99.36523993712537 L 10.924825583774723,90.81993702809419" fill="none" stroke="#000000" stroke-width="0.808"/>
	<path d="M 72.53671870168448,219.73440880916243 L 0.0,137.32011644872733 L 10.924825583774723,90.81993702809419 L 40.57037772809877,99.36523993712537 L 50.15427759917064,86.0571021283853 L 64.53012519165789,92.71121876975555 L 61.33549263935795,111.00954844868436 L 131.61741543236977,125.98037480949218 L 114.04693528778857,160.91042067863924 L 102.86572024760126,160.91042067863924 L 90.08718782422946,190.84836849595538 L 72.53671870168448,219.73440880916243" fill="none" stroke="#000000" stroke-width="0.808"/>
	<path d="M 220.24313010310965,302.09151960164326 L 178.13575594529115,285.02953950809257 L 72.53671870168448,219.73440880916243 L 90.08718782422946,190.84836849595538 L 102.86572024760126,160.91042067863924 L 114.04693528778857,160.91042067863924 L 131.61741543236977,125.98037480949218 L 181.13422552850045,169.22671133066214 L 198.70470567320524,189.18520105895243 L 201.89934043988322,205.81661915342994 L 262.59736557603645,217.45825895609883 L 253.01346570500576,252.381430067102 L 233.84566817697228,262.3589988359695 L 225.8590856890849,283.97632704025136 L 220.24313010310965,302.09151960164326" fill="none" stroke="#000000" stroke-width="0.808"/>
	<path d="M 337.98694009734515,318.2998261644279 L 288.14310068633364,321.1152517307965 L 256.38323864688317,316.7350551423689 L 220.24313010310965,302.09151960164326 L 225.8590856890849,283.97632704025136 L 233.84566817697228,262.3589988359695 L 253.01346570500576,252.381430067102 L 262.59736557603645,217.45825895609883 L 284.9597956564111,217.45825895609883 L 302.53027580111586,219.1213275513602 L 312.11417345783025,249.05552704305106 L 324.8927058813463,273.9992238918916 L 318.5034407768494,282.3134925134127 L 337.98694009734515,318.2998261644279" fill="none" stroke="#000000" stroke-width="0.808"/>
	<path d="M 442.9799647031329,298.54641900285765 L 450.4490211345387,316.9436363776075 L 478.20133000817947,364.91496451821007 L 518.5774323388081,385.1448710120696 L 552.1406937952783,404.1226465283836 L 581.6963996237265,446.03785745942287 L 581.8967792518856,488.47057110169993 L 526.9932930019918,509.2163700882211 L 495.7343763394045,487.94930937501823 L 469.2845215059409,391.4013650979387 L 420.49255851214923,361.1608640219093 L 388.33193967886046,324.86967464910316 L 365.6892633074719,316.7350551423689 L 337.98694009734515,318.2998261644279 L 318.5034407768494,282.3134925134127 L 324.8927058813463,273.9992238918916 L 312.11417345783025,249.05552704305106 L 328.0873384335432,244.06662908701355 L 339.2685534737099,262.3589988359695 L 372.81219859414824,269.0105909914278 L 398.3692612266992,282.3134925134127 L 420.73169352128707,300.60435962103975 L 442.9799647031329,298.54641900285765" fill="none" stroke="#000000" stroke-width="0.808"/>
	<path d="M 387.8324408458983,190.3594172650087 L 407.7685740100478,211.8065802988443 L 442.9799647031329,298.54641900285765 L 420.73169352128707,300.60435962103975 L 398.3692612266992,282.3134925134127 L 372.81219859414824,269.0105909914278 L 339.2685534737099,262.3589988359695 L 328.0873384335432,244.06662908701355 L 312.11417345783025,249.05552704305106 L 302.53027580111586,219.1213275513602 L 318.5034407768494,197.5009833393869 L 342.46318602605106,200.82725736022064 L 368.02025087298006,200.82725736022064 L 387.8324408458983,190.3594172650087" fill="none" stroke="#000000" stroke-width="0.808"/>
	<path d="M 321.48179497258224,131.36212263478342 L 347.4548944336221,146.9184811234347 L 387.8324408458983,190.3594172650087 L 368.02025087298006,200.82725736022064 L 342.46318602605106,200.82725736022064 L 318.5034407768494,197.5009833393869 L 302.53027580111586,219.1213275513602 L 284.9597956564111,217.45825895609883 L 283.36247827308233,184.1956584220523 L 294.5436933132491,157.58386318482687 L 304.1275909699841,140.9507159451225 L 321.48179497258224,131.36212263478342" fill="none" stroke="#000000" stroke-width="0.808"/>
	<path d="M 225.66526622088128,73.9691477758817 L 321.48179497258224,131.36212263478342 L 304.1275909699841,140.9507159451225 L 294.5436933132491,157.58386318482687 L 283.36247827308233,184.1956584220523 L 284.9597956564111,217.45825895609883 L 262.59736557603645,217.45825895609883 L 201.89934043988322,205.81661915342994 L 198.70470567320524,189.18520105895243 L 181.13422552850045,169.22671133066214 L 211.48323809672124,124.31697274092404 L 208.28860554438012,106.01916795313414 L 225.66526622088128,73.9691477758817" fill="none" stroke="#000000" stroke-width="0.808"/>
	<path d="M 95.37977470108798,14.714814685764718 L 102.19261557539052,0.0 L 225.66526622088128,73.9691477758817 L 208.28860554438012,106.01916795313414 L 211.48323809672124,124.31697274092404 L 181.13422552850045,169.22671133066214 L 131.61741543236977,125.98037480949218 L 130.02010026352212,111.00954844868436 L 114.04693528778857,106.01916795313414 L 106.06035279994241,91.04769971373464 L 104.46303763095055,61.103310667346825 L 104.46303763095055,36.1481778073788 L 95.37977470108798,14.714814685764718" fill="none" stroke="#000000" stroke-width="0.808"/>
</svg>
