<?xml version="1.0" ?>
<svg xmlns="http://www.w3.org/2000/svg" xmlns:ev="http://www.w3.org/2001/xml-events" xmlns:xlink="http://www.w3.org/1999/xlink" baseProfile="full" height="564px" version="1.1" viewBox="-80.4 -75.56412377285051 960.8 902.769485274206" width="600px">
	<defs/>
	<path d="M 480.64485487232673,0.0 L 504.74888803600317,4.6782645287722975 L 595.9223423878393,50.406359545408705 L 598.9028859092956,58.51335251690546 L 603.2880536068658,65.87141648796786 L 607.3991481918023,75.293585329231 L 609.2833996836346,85.50046938200661 L 609.1806221611229,103.43096966328336 L 610.5167282695983,114.86993650742481 L 615.9639285420179,130.78558561166602 L 626.961106609337,153.9422258719029 L 639.8767952022989,171.6703946385924 L 651.0110098259614,171.1992992327018 L 658.2396844886728,192.80604499089043 L 667.9692749361966,214.32461436312255 L 685.7154999295622,239.81271935754808 L 693.9711903763289,258.7945607974554 L 692.2203933553311,268.5690081224542 L 682.8576591497049,269.92981766144993 L 665.605395707724,262.44659347760455 L 656.7665422448711,257.0585413648963 L 653.9915533474212,252.63009027806922 L 645.7408611497171,251.40827126348097 L 635.458074026796,249.22296948654284 L 627.8535935915916,247.91510923811785 L 603.2986672559454,252.01402269394242 L 590.8574789109052,262.7391787753552 L 580.1825946619451,273.44431855274365 L 554.3505056054314,287.791991149345 L 536.579075089905,304.32324144914924 L 527.2792338695068,319.0284583699175 L 518.4023384817156,330.62544206063575 L 499.25708197949234,339.63392271962454 L 497.4970234846349,347.1920123257722 L 493.5023435214822,354.323443594299 L 502.88256381077946,355.1435024555017 L 518.5214199870353,352.36937820135665 L 530.1384874451239,350.0712291142781 L 539.5073380122956,346.46020834758593 L 549.3184706856177,342.84974793533013 L 555.147883986538,346.36198082572315 L 543.1334976150632,354.4205530177069 L 543.1683093904911,360.1857498161833 L 540.5327140944665,366.8534546518328 L 550.8432624853514,373.8798308676662 L 557.9899592120015,373.8325806845496 L 558.236444818174,373.74927997936123 L 558.6787380187906,375.35281350099933 L 560.9194555171007,380.10629297760397 L 552.9355386238677,381.2728718456542 L 551.1516663598861,401.1004288236571 L 526.9171058963803,431.13654503867286 L 522.5879520135416,495.6478462078786 L 520.9563616205273,502.03610713615683 L 511.21032679998234,505.3041967795024 L 417.0566680539179,518.6961338416332 L 396.4986260732073,533.0122962203498 L 384.72477556983546,540.1375164943681 L 379.5732520903312,531.3540722895565 L 379.5297429489462,531.3416997820747 L 379.3121976630803,531.2922116362759 L 379.2686885217446,531.2922116362759 L 355.77378291620903,528.1867041738271 L 313.8745349301589,522.680440791427 L 271.93177738175257,517.1611826541317 L 229.9890198333674,511.6413017446116 L 188.08977184733843,506.14555546033756 L 140.99118799333957,500.30255352012057 L 94.02313156348518,494.49599790848725 L 47.033320352421015,488.70113533017025 L 0.0,482.8932011988956 L 12.221945262671854,469.26849693594085 L 75.53177047922945,398.6313438715767 L 101.89827562603391,354.37197766567704 L 128.87390790998336,324.83497732159543 L 135.1392162678848,315.4161114685494 L 147.62632342141953,282.72162901079037 L 179.08339137224218,230.75021041222743 L 187.30660814473083,212.65840033703452 L 188.35082627454,207.80121397518576 L 189.96066240011265,193.22670391866907 L 192.13611652149817,186.29914480287005 L 207.5383323576656,157.6063922166027 L 243.34630897222692,66.42814638329362 L 257.7478158199244,45.91209256743775 L 279.80692186531826,30.963030878965213 L 347.6375840054664,2.95211398810773 L 371.87214417222106,0.0 L 480.64485487232673,0.0" fill="none" stroke="#000000" stroke-width="0.8"/>
	<path d="M 766.2929537942789,187.68489073898368 L 758.3448373161004,202.3993795525313 L 745.3948896892857,218.81542292571177 L 729.9097668228522,232.91265892761652 L 714.2190889114694,240.6359557120473 L 711.4098409801597,240.34194455234194 L 696.0274956362416,238.69544720435053 L 685.8525364859055,226.2861007737944 L 671.1553730816348,191.2756424409153 L 653.648962167075,159.69527525363037 L 651.1823054161117,156.7501144906722 L 648.8526852214917,153.96186197825827 L 640.4249410066236,148.97401937666734 L 637.2045838273327,143.94637557541898 L 645.2554774070553,138.27000183403172 L 650.1545318751221,135.67710840280446 L 659.2674580296624,129.33178384137054 L 663.9266984189234,128.0744056264878 L 665.5026181852369,125.28447975059409 L 667.9692749361966,108.62011946433525 L 661.2887460777887,105.9469917974154 L 657.7600567520078,105.37696724586765 L 653.7174802347593,105.57352818900038 L 653.648962167075,105.59318419047649 L 657.8285748196921,98.41818700251764 L 663.7896618626047,98.94897729433116 L 674.0331395015963,105.59318419047649 L 678.7951574133444,106.34010817497114 L 684.6192078999383,105.907679594982 L 687.9080835678847,102.66434291149025 L 685.5099453055592,95.11535936463224 L 693.1154701824449,91.75331774881315 L 699.350630338016,87.91912138170161 L 700.9265496833336,83.61265572531715 L 694.1775027572661,78.91246116963502 L 694.143243723438,78.89279415950213 L 689.3469667778548,78.24377681704894 L 683.7969889829517,80.82012737741515 L 679.7886719205059,78.89279415950213 L 677.9386794625262,75.70662302806653 L 676.9109055005408,70.63191068066733 L 676.499796252556,65.51731107845802 L 676.9109055005408,62.13350524377071 L 676.9109055005408,62.09415686052914 L 669.4766762138265,62.19252703236786 L 668.448902672837,61.3465386462528 L 666.9415013952035,60.06769117908642 L 668.6887163306715,56.526086775008004 L 674.0331395015963,52.511949767515944 L 680.097004066996,49.973423117738506 L 686.0580911099084,49.619199294951514 L 691.8136235288181,51.44932713537244 L 697.2608238012341,55.483230564576886 L 762.8327825361823,148.6990835177846 L 769.1707197932482,166.13472822155248 L 766.2929537942789,187.68489073898368" fill="none" stroke="#000000" stroke-width="0.8"/>
	<path d="M 651.0110098259614,45.565117318867934 L 648.3045389961713,48.14323844182882 L 644.2277038660658,53.594225641118236 L 642.3777109870903,55.483230564576886 L 630.9009051831274,61.54328139552061 L 627.7833255263271,62.09415686052914 L 624.6657454485276,60.24476449977577 L 622.3361248329118,56.97863960839279 L 621.7194609609239,53.86971046274285 L 627.5435114474967,49.85534912590745 L 636.1768102863432,38.32201198884556 L 640.8360506756288,35.684303128310866 L 657.280429015364,33.36142250075567 L 657.3146880491956,33.36142250075567 L 663.7896618626047,33.99136769015375 L 662.4878156299244,38.99125843920898 L 651.0110098259614,45.565117318867934" fill="none" stroke="#000000" stroke-width="0.8"/>
	<path d="M 478.09957368080495,751.641237728505 L 474.5970922212236,738.9900320852086 L 466.7219481586749,730.7841199408385 L 457.0629314050521,723.9941193537446 L 448.0783057111199,715.7240979675498 L 441.70422471030844,704.9130639042329 L 435.961025206796,690.8317616162688 L 431.914680532587,676.2776966812409 L 430.3048444069685,650.5385884898984 L 428.3469355714489,638.4911392549639 L 405.0043121711619,574.6992320091332 L 384.72477556983546,540.1375164943681 L 396.4986260732073,533.0122962203498 L 417.0566680539179,518.6961338416332 L 511.21032679998234,505.3041967795024 L 520.9563616205273,502.03610713615683 L 522.5879520135416,495.6478462078786 L 526.9171058963803,431.13654503867286 L 551.1516663598861,401.1004288236571 L 559.4183922797894,409.3367838912421 L 565.640191245689,419.6798678186722 L 566.1187911952607,440.0743524963886 L 632.3613721307768,428.70656622789704 L 658.814895377353,426.89640091003463 L 662.487940647302,426.4078381134978 L 666.0779443105218,436.1331290799596 L 671.882475398947,445.41836008793206 L 674.1376586021343,455.14657073274657 L 684.5164307984224,520.4875033888102 L 691.9164010513051,536.5234964995079 L 712.9172422578179,567.8788730249429 L 719.255179935876,573.913945458271 L 735.4597441967842,579.28648239598 L 736.6930727827514,586.4878760363706 L 734.9115983924596,595.9064853981598 L 734.363452588135,605.5178360021843 L 737.8578828800843,614.9328052701405 L 749.3689477179034,631.1519013991048 L 751.8356044688633,636.9459205344766 L 756.2207721664334,643.5751550842964 L 766.1216582041322,647.7544198319274 L 783.4910325623488,651.4863016427133 L 779.3799379774123,658.8326198998383 L 777.6327230419479,667.2659355771566 L 778.078091323789,675.9892108916039 L 780.6132665634042,684.0894059836066 L 774.2410698515145,679.6606866620849 L 771.9799677245295,677.6015857587403 L 771.4660809540366,681.370063764848 L 771.8771906230382,683.7980548476836 L 773.7614421148495,685.6044031007592 L 777.7355001434427,687.6437491911753 L 774.5836610318361,691.7027690877918 L 772.5966320175378,692.8679763403613 L 770.9521941835646,692.18827520281 L 769.1707197932482,690.615217391458 L 766.2929537942789,690.615217391458 L 765.9161035801258,700.5964911425953 L 769.7873840862318,702.9652921817022 L 775.5429165051413,700.0528163799052 L 780.6132665634042,694.1690921846085 L 781.7780766607124,699.0625351800151 L 783.4910325623488,722.0086683253452 L 784.9984342609744,727.8890902193738 L 788.4243460642682,734.2927173381308 L 795.0020974001644,743.0236060259992 L 799.8668928344242,748.203208271801 L 800.0,748.3162606919027 L 725.2529272602287,749.0792282531494 L 650.3955474197256,749.8429177697527 L 575.538168000162,750.6312304036164 L 500.7025429408229,751.4195305379023 L 478.09957368080495,751.641237728505" fill="none" stroke="#000000" stroke-width="0.8"/>
	<path d="M 657.3075890498294,379.8903536352996 L 656.9825497050647,382.1666306392084 L 656.5701051209187,391.0253304513791 L 657.9605929200923,405.18324488409473 L 662.487940647302,426.4078381134978 L 658.814895377353,426.89640091003463 L 632.3613721307768,428.70656622789704 L 627.8146726097971,402.03081001541534 L 621.4812935571973,387.1159940749755 L 638.8419114472332,387.1159940749755 L 657.3075890498294,379.8903536352996" fill="none" stroke="#000000" stroke-width="0.8"/>
	<path d="M 621.3303174537576,351.6694786576962 L 622.2333477314205,352.93469218422325 L 628.4342484321676,358.5271432863536 L 632.7166390282466,360.0131406431094 L 644.4461769831981,364.0611058933802 L 660.0191924996698,360.8966101442663 L 657.3075890498294,379.8903536352996 L 638.8419114472332,387.1159940749755 L 621.4812935571973,387.1159940749755 L 614.3486113903285,370.3133682998272 L 609.2580485312267,360.2577387733526 L 621.3303174537576,351.6694786576962" fill="none" stroke="#000000" stroke-width="0.8"/>
	<path d="M 558.236444818174,373.74927997936123 L 566.010189735612,371.1220412623083 L 575.3687225998947,367.96199737676824 L 577.9795775523422,356.4235074022782 L 584.2164674986371,353.72786739165366 L 592.2671089136686,356.34164467699856 L 600.7069090416544,350.0922656656859 L 605.1310898560138,342.97773322681365 L 611.8063514616096,339.84234540992287 L 614.8676365123694,342.6475890811772 L 621.3303174537576,351.6694786576962 L 609.2580485312267,360.2577387733526 L 614.3486113903285,370.3133682998272 L 579.5413437414359,374.89357523323747 L 560.9194555171007,380.10629297760397 L 558.6787380187906,375.35281350099933 L 558.236444818174,373.74927997936123" fill="none" stroke="#000000" stroke-width="0.8"/>
	<path d="M 760.1948301950513,306.64506812595664 L 766.7725815309474,309.2287508086659 L 770.0614571988903,312.02758436869794 L 774.9262522121577,316.13746566840877 L 778.2493873349315,320.50138541689915 L 781.5725220367094,324.8844781800215 L 785.9740577054712,337.9781350036685 L 785.0869651107831,342.8534795125412 L 778.8501446255426,340.64605641523633 L 774.8396161757264,339.7666818734313 L 770.8268115081893,337.11408619644743 L 759.2268057898677,326.94234589831973 L 751.2029944437114,323.85494019777707 L 740.0624150826093,322.106463518457 L 731.1539586967103,322.56994278774454 L 731.4856861681911,309.9725126157948 L 731.4856861681911,309.93336764428466 L 736.1449265574521,302.65183240405815 L 743.4763787426506,301.67304784096837 L 760.1948301950513,306.64506812595664" fill="none" stroke="#000000" stroke-width="0.8"/>
	<path d="M 560.9194555171007,380.10629297760397 L 579.5413437414359,374.89357523323747 L 614.3486113903285,370.3133682998272 L 621.4812935571973,387.1159940749755 L 627.8146726097971,402.03081001541534 L 632.3613721307768,428.70656622789704 L 566.1187911952607,440.0743524963886 L 565.640191245689,419.6798678186722 L 559.4183922797894,409.3367838912421 L 551.1516663598861,401.1004288236571 L 552.9355386238677,381.2728718456542 L 560.9194555171007,380.10629297760397" fill="none" stroke="#000000" stroke-width="0.8"/>
</svg>
