<?xml version="1.0" ?>
<svg xmlns="http://www.w3.org/2000/svg" xmlns:ev="http://www.w3.org/2001/xml-events" xmlns:xlink="http://www.w3.org/1999/xlink" baseProfile="full" height="600px" version="1.1" viewBox="-80.48921665016913 -104.52 960.6705998020295 1249.04" width="462px">
	<defs/>
	<path d="M 264.7784154679392,920.7164140479597 L 258.02126287439336,915.7474429923872 L 248.40742854050364,900.5762163357035 L 245.33100172376217,896.8154557368314 L 239.1232112896353,897.518573878855 L 235.55235858258925,903.5192399594611 L 232.42099496520385,912.1675433571298 L 227.58661019526687,920.7817923247595 L 223.4663953288641,934.7382497356762 L 222.202862734437,965.9068266922858 L 219.3461804624947,982.006922211692 L 214.7864759749307,992.6179942141563 L 204.89796029556453,1010.3094415150995 L 202.2610231000132,1019.9198428081186 L 185.94497244168983,1021.2902894717176 L 160.5095133397791,1032.203700860599 L 130.51434975024654,1040.0 L 123.48251634284932,1039.0051358001162 L 118.53825850314956,1032.562550723165 L 114.85753378950648,1025.0751560974632 L 109.58365833527809,1018.6635697222847 L 103.65054924662768,1013.8666279120124 L 100.56989987487579,1012.4595861842049 L 101.31619010374094,1007.911167574727 L 101.7282115137958,1000.6978698309811 L 101.48099857216441,999.0657700856938 L 101.23378563053303,995.6871715601437 L 101.39859457697997,994.2834407557455 L 102.14023340187636,991.3289604914492 L 102.30504139227413,988.423294370667 L 102.46985033872109,987.0030541494446 L 108.9797893824179,969.7286796426686 L 110.46306703226848,967.4261069929062 L 113.34721738067822,967.0994934633399 L 117.38502796404363,967.9813463852324 L 118.70349618942157,967.9813463852324 L 119.7747519511649,967.4914300339864 L 120.68119924448254,966.8871934847067 L 123.15332818283963,964.5028451878835 L 124.47179688621658,962.4450358997948 L 125.40571249662986,960.0114956738128 L 125.81773390668472,953.5923115004928 L 126.31215978998307,951.9751468424961 L 128.5370757866732,951.4360815505818 L 133.48133366338516,951.403410480862 L 134.9646108352145,951.0930366223936 L 136.61269647543838,950.3579339350558 L 141.80416729377728,947.1397030029412 L 142.5458061186759,946.2085043340737 L 141.80416729377728,943.9539575880004 L 140.65050753682283,942.87566342961 L 139.24963436020687,942.0097451667756 L 137.84876118362644,941.4705819043244 L 136.5302924802206,940.7680276380801 L 135.5414407136617,939.6896702501132 L 135.70624966011087,938.2681681857151 L 136.69510142666755,936.7159100873623 L 139.66165577026618,934.8694838368071 L 141.80416729377728,933.9217354149182 L 145.2651475206387,932.7125163195776 L 147.8196809322348,930.751564021552 L 150.786235275829,927.6138939300063 L 165.4816687546415,909.0293194470394 L 167.9537967369472,906.6097552895121 L 169.68428732840027,903.5197507457391 L 170.6731386169357,900.2006625714956 L 170.59073462172233,889.8987628764647 L 170.1787127336418,887.3475162652381 L 170.59073462172233,883.8148259563685 L 175.6998009668578,876.6996855109859 L 167.459371331679,878.2700023569334 L 165.06964686656093,880.0529128132098 L 162.9271348650219,880.4127591609451 L 159.46615463816272,880.24919220822 L 145.42995646708786,877.6320669507595 L 135.12941930360685,874.2950491737864 L 126.80658567324585,865.4607841799111 L 129.19630966036934,855.4468914880707 L 127.87784143498696,851.3884509046806 L 126.55937273161446,850.1119437675775 L 125.15849955499849,849.1136288914576 L 119.44513501432017,845.8894380591512 L 118.04426231572988,845.6603003887911 L 116.64338913914503,845.8567039209825 L 110.71027997389986,845.5948323877594 L 109.2270023240782,845.3329590290631 L 107.74372515224887,844.7110058371643 L 106.34285197566847,843.8926356713336 L 105.18919221870956,842.9924136388001 L 104.69476633544679,842.354065665609 L 105.7660220971879,841.6993419115844 L 110.79268396908431,841.4701866573814 L 112.7703870241764,840.5371884960127 L 114.3360691472082,838.6875118562202 L 116.0665592606667,834.7424178608255 L 116.7257931343317,832.4996443662458 L 116.97300607596308,830.6824391720206 L 116.89060208077863,829.8474862292373 L 117.05541054920212,827.1624538448547 L 117.38502796404363,825.688904711075 L 118.78590114065517,824.1170748763117 L 121.34043407419448,822.6434434925519 L 126.72418167806363,821.1370233366978 L 129.4435226020007,821.4153860778615 L 131.33882166187948,822.3487123253296 L 132.1628644819892,823.7568574710182 L 133.15171624854588,826.5566664491054 L 133.81095060023213,827.8500963755621 L 134.9646108352145,829.0125210814714 L 137.4367397735716,830.9607532211952 L 138.34318658886352,832.0412562210528 L 138.92001742339326,833.1544778955197 L 140.15608165356008,835.020712347581 L 141.30974141048338,835.7246254193545 L 142.463401645468,835.3808554110313 L 143.36984941681132,833.7438219244303 L 142.71061458709937,828.3412649577917 L 143.5346574072091,825.2632052923461 L 153.09355622378828,807.8721803922388 L 153.53304547291535,806.4144883539273 L 153.6978539413366,804.8421029295591 L 153.58798162905651,803.5153671306637 L 152.7639383309233,802.4834397553252 L 151.6102785739644,802.3360198827016 L 148.80853222076803,803.1222544063146 L 147.73727645899578,802.7946583038325 L 147.4900635173644,801.7954767487832 L 148.23170234228968,799.7806795006443 L 152.54419370635645,792.8020235102331 L 153.75279009748,790.2462354670035 L 155.09872711792144,788.3129324047371 L 156.58200428974857,787.2315625380834 L 162.5975179282061,786.7072549612143 L 165.9760936818551,786.0846323039561 L 167.37696685846888,785.3636929059962 L 168.61303156665915,784.085639667467 L 169.10745744992192,781.0378527031457 L 168.5306275714458,779.2680914596821 L 167.2945628632533,778.0882198198481 L 165.9760936818551,777.4327233887454 L 165.15205086174538,776.6133423241089 L 170.2611176849065,773.5651376986592 L 193.27938383802865,768.2877339826144 L 197.3171948994153,769.17280026225 L 200.69577065306657,769.1236304810589 L 202.34385677131172,768.7794396281979 L 205.3928155881449,767.7632445482714 L 211.32592475339231,764.4031075605895 L 212.8092019251883,763.8294049871832 L 214.48475636053354,763.4687888294055 L 217.5337151773356,763.419613324669 L 218.9345883539516,763.1737374166021 L 220.41786552574757,762.583629792101 L 221.7363342291534,761.5017499555231 L 222.7251855176555,760.3214920460838 L 223.87884623066356,758.7477753922248 L 223.961250225848,758.6166303783826 L 225.36212340245953,757.9608999973061 L 226.51578315941842,757.9608999973061 L 227.5046349259751,758.3543388318689 L 227.91665633602997,758.5838437902637 L 228.08146480442232,758.7149888830908 L 228.16386927766135,758.8461342304539 L 227.7518478676065,764.222801966272 L 225.19731445601258,779.9235657994315 L 225.11491046082813,781.6277597678194 L 226.84540009623427,822.7416864812266 L 225.77414433449314,831.2554378754144 L 227.42223045273607,836.4121606504788 L 235.66266008791484,854.7268670468331 L 241.59576925316225,837.8363124526062 L 244.26017497700732,833.5801163312277 L 246.48509049570734,832.9416582876146 L 247.55634673547414,832.4669021986622 L 249.36924132214278,831.3864081954883 L 250.35809261064483,831.0262387740694 L 251.51175284562945,830.9771253290271 L 252.6654130806096,831.2554378754144 L 253.6542643691139,831.746575809811 L 254.9727335505432,832.2377081849048 L 256.6208191907649,832.4341605812455 L 259.6697784856238,831.9757713162234 L 261.4002685990511,830.9607532211952 L 262.71873730242584,829.3235877201363 L 263.2955671809042,828.0465645669221 L 265.60288717281213,821.2680173760015 L 274.77723241840863,812.5398073284449 L 277.90859570845197,811.27876923008 L 280.05110770999323,809.3134554239816 L 284.50093970340686,801.0583646659668 L 294.6366674424152,804.5636550102071 L 298.7568824990175,802.9256964109373 L 303.975821156433,796.2423176205617 L 308.4256531498533,789.0502169053293 L 314.11154985149057,782.0701863011421 L 321.44553171529486,774.6140020114789 L 325.0713208886321,772.10652804996 L 327.70825877343617,770.992057791392 L 338.1186677711449,774.4501181874951 L 348.9136303398919,780.8903747960256 L 351.9625891566962,784.8229819532559 L 353.5282708017334,789.3942802373814 L 358.71974162007456,800.4686673665856 L 360.9721254558435,803.2205325681292 L 362.839956676679,804.7274477072931 L 387.25909600638596,807.8721803922388 L 395.9115470516196,810.1978549178446 L 396.2611080535794,810.2918109032223 L 383.4955372314644,817.9106676824714 L 375.31004376777554,827.6531165938616 L 364.7073581848707,848.851261208329 L 356.0274388308795,858.5063755000901 L 349.7097758585838,862.5152011886306 L 342.34832589966805,865.7711323047778 L 334.7671303329142,867.8980187293371 L 327.73529745702643,868.5851487289057 L 318.34120766796264,871.1536298447826 L 298.1246872195985,892.3022024718804 L 287.52200110515975,900.7887728267324 L 279.1096709276342,902.640821983947 L 271.4806312608056,904.3203686006708 L 266.7561184975012,909.0942003943794 L 268.4042044440685,920.7164140479597 L 268.4042044440685,920.7817923247595 L 268.041058871487,923.2667162713043 L 268.0196510919283,923.4131998755098 L 264.94322427519126,920.7817923247595 L 264.83335173699135,920.7000696246789 L 264.7784154679392,920.7164140479597" fill="none" stroke="#000000" stroke-width="1.04"/>
	<path d="M 100.56989987487579,1012.4595861842049 L 97.8273121645454,1011.2069185936158 L 91.34484091653827,1011.2069185936158 L 71.67768262753091,1017.6846358946832 L 67.88708484412726,1017.4072685740576 L 60.360826078019485,1015.4656550044964 L 57.1745267230514,1015.2372254092471 L 53.71354602270247,1016.5425245125267 L 47.83537267157025,1021.0945131966796 L 45.528053090547544,1022.073386973 L 2.9847223208874105,1018.8913391216225 L 2.9847223208874105,1017.863590997542 L 3.6335749761997014,1015.0885750043474 L 1.211191835908254,1015.4483069297992 L 0.4325684368852368,1014.6774493812418 L 0.4325684368852368,1013.0843096654179 L 0.0,1011.1570623680826 L 3.2875205456247807,1004.0899111322424 L 8.04577388302975,996.9704439257197 L 13.755677568977106,991.4181619106502 L 25.52154043452132,986.4823287409631 L 29.32814289184105,980.183355503583 L 32.61566343746806,972.9836445557756 L 36.24923841370333,967.6346769080945 L 33.048231874355515,963.3396950437686 L 36.24923841370333,962.7481445621763 L 37.97951269281381,963.5711697207339 L 39.882813921470344,967.6346769080945 L 55.88784768122175,933.0852703291055 L 58.22371734676796,914.2192561848544 L 47.14996440547485,898.153570504354 L 58.526515571536464,889.6811418871406 L 66.5290321856274,877.9102711258818 L 76.56462130362844,850.2374573039457 L 77.86232661431528,841.8864809852745 L 78.20838157642861,824.8197115139741 L 80.19819627985927,816.0006481802924 L 89.88773043568918,801.505405964859 L 93.26176445609255,793.6629561917576 L 91.09892227163301,785.7161653244714 L 118.74004815327349,764.5276564906607 L 132.62549646593465,749.9670676445489 L 138.59494110768722,731.1926122250028 L 139.71961946885247,723.0041961222734 L 147.46775538841482,701.9558549854689 L 150.12700140216842,703.0646324626017 L 165.81128569145733,703.7374353337578 L 179.49039860858514,710.8259711762427 L 192.53774501310335,713.2378312354434 L 198.38845018313518,713.0573553080357 L 200.44855771143295,713.2542382120264 L 201.2726010095706,712.4010757103141 L 201.84943088804673,711.4658622960364 L 202.67347370815645,710.7931563219812 L 204.0743468847724,710.5798567162266 L 209.34822169830022,710.8587860106395 L 213.13881934005872,709.9891779181748 L 219.34660928598078,707.7084417840852 L 220.33546105253743,707.1833664529563 L 222.3131641076006,706.3957447923322 L 223.63163328902993,706.2644728336539 L 226.51578315941842,706.4285623040544 L 230.05916785951442,705.5424739579124 L 232.44889232463248,705.3127449255928 L 233.52014808640692,704.951740931017 L 236.07468197599317,703.1795015710502 L 236.8163203228972,702.4738719029705 L 237.88757608463834,700.5702670653404 L 238.5468104363246,699.8317814293923 L 240.88159874533483,699.1917526085094 L 241.87045051186038,698.7486511798425 L 242.52968486357776,697.9609065656673 L 243.0241107468405,697.0090330698348 L 243.68334462050552,696.1884389530683 L 244.6721963870622,695.6468404621072 L 245.743452626829,695.4006577509069 L 248.29798556039944,695.302184011021 L 253.07743449066444,694.350263884267 L 254.39590319403916,694.3174390696505 L 255.71437237543736,694.0876625266104 L 256.9504366056042,693.4803918773383 L 258.2689053090078,692.3150684108134 L 259.91699142725514,691.3630964559391 L 261.6474815406825,690.8871036443436 L 264.0372060058295,691.3302692631543 L 266.1797175293162,694.4651520071068 L 267.7453991743534,699.4050963872941 L 267.4981862326909,712.2041897134812 L 267.0037603494281,717.5526610739518 L 265.93250458768256,721.4242317590332 L 265.7676961192613,723.2286826803575 L 266.5093349441866,725.3283332413403 L 268.98146340451797,727.6739396768644 L 270.65701783982985,728.7072869170252 L 273.3488914027516,729.6258009855392 L 275.3540627749127,730.5771024575411 L 275.84848818014973,732.9388834078511 L 276.34291406344363,734.6117497077852 L 273.1840829343304,752.583612867873 L 274.61242394998516,767.6485112582037 L 276.7549354735007,775.8922775410371 L 277.6613827668206,778.3012536625943 L 280.29832065162464,784.085639667467 L 282.688044638717,787.4609458013264 L 284.50093970340686,801.0583646659668 L 280.05110770999323,809.3134554239816 L 277.90859570845197,811.27876923008 L 274.77723241840863,812.5398073284449 L 265.60288717281213,821.2680173760015 L 263.2955671809042,828.0465645669221 L 262.71873730242584,829.3235877201363 L 261.4002685990511,830.9607532211952 L 259.6697784856238,831.9757713162234 L 256.6208191907649,832.4341605812455 L 254.9727335505432,832.2377081849048 L 253.6542643691139,831.746575809811 L 252.6654130806096,831.2554378754144 L 251.51175284562945,830.9771253290271 L 250.35809261064483,831.0262387740694 L 249.36924132214278,831.3864081954883 L 247.55634673547414,832.4669021986622 L 246.48509049570734,832.9416582876146 L 244.26017497700732,833.5801163312277 L 241.59576925316225,837.8363124526062 L 235.66266008791484,854.7268670468331 L 227.42223045273607,836.4121606504788 L 225.77414433449314,831.2554378754144 L 226.84540009623427,822.7416864812266 L 225.11491046082813,781.6277597678194 L 225.19731445601258,779.9235657994315 L 227.7518478676065,764.222801966272 L 228.16386927766135,758.8461342304539 L 228.08146480442232,758.7149888830908 L 227.91665633602997,758.5838437902637 L 227.5046349259751,758.3543388318689 L 226.51578315941842,757.9608999973061 L 225.36212340245953,757.9608999973061 L 223.961250225848,758.6166303783826 L 223.87884623066356,758.7477753922248 L 222.7251855176555,760.3214920460838 L 221.7363342291534,761.5017499555231 L 220.41786552574757,762.583629792101 L 218.9345883539516,763.1737374166021 L 217.5337151773356,763.419613324669 L 214.48475636053354,763.4687888294055 L 212.8092019251883,763.8294049871832 L 211.32592475339231,764.4031075605895 L 205.3928155881449,767.7632445482714 L 202.34385677131172,768.7794396281979 L 200.69577065306657,769.1236304810589 L 197.3171948994153,769.17280026225 L 193.27938383802865,768.2877339826144 L 170.2611176849065,773.5651376986592 L 165.15205086174538,776.6133423241089 L 165.9760936818551,777.4327233887454 L 167.2945628632533,778.0882198198481 L 168.5306275714458,779.2680914596821 L 169.10745744992192,781.0378527031457 L 168.61303156665915,784.085639667467 L 167.37696685846888,785.3636929059962 L 165.9760936818551,786.0846323039561 L 162.5975179282061,786.7072549612143 L 156.58200428974857,787.2315625380834 L 155.09872711792144,788.3129324047371 L 153.75279009748,790.2462354670035 L 152.54419370635645,792.8020235102331 L 148.23170234228968,799.7806795006443 L 147.4900635173644,801.7954767487832 L 147.73727645899578,802.7946583038325 L 148.80853222076803,803.1222544063146 L 151.6102785739644,802.3360198827016 L 152.7639383309233,802.4834397553252 L 153.58798162905651,803.5153671306637 L 153.6978539413366,804.8421029295591 L 153.53304547291535,806.4144883539273 L 153.09355622378828,807.8721803922388 L 143.5346574072091,825.2632052923461 L 142.71061458709937,828.3412649577917 L 143.36984941681132,833.7438219244303 L 142.463401645468,835.3808554110313 L 141.30974141048338,835.7246254193545 L 140.15608165356008,835.020712347581 L 138.92001742339326,833.1544778955197 L 138.34318658886352,832.0412562210528 L 137.4367397735716,830.9607532211952 L 134.9646108352145,829.0125210814714 L 133.81095060023213,827.8500963755621 L 133.15171624854588,826.5566664491054 L 132.1628644819892,823.7568574710182 L 131.33882166187948,822.3487123253296 L 129.4435226020007,821.4153860778615 L 126.72418167806363,821.1370233366978 L 121.34043407419448,822.6434434925519 L 118.78590114065517,824.1170748763117 L 117.38502796404363,825.688904711075 L 117.05541054920212,827.1624538448547 L 116.89060208077863,829.8474862292373 L 116.97300607596308,830.6824391720206 L 116.7257931343317,832.4996443662458 L 116.0665592606667,834.7424178608255 L 114.3360691472082,838.6875118562202 L 112.7703870241764,840.5371884960127 L 110.79268396908431,841.4701866573814 L 105.7660220971879,841.6993419115844 L 104.69476633544679,842.354065665609 L 105.18919221870956,842.9924136388001 L 106.34285197566847,843.8926356713336 L 107.74372515224887,844.7110058371643 L 109.2270023240782,845.3329590290631 L 110.71027997389986,845.5948323877594 L 116.64338913914503,845.8567039209825 L 118.04426231572988,845.6603003887911 L 119.44513501432017,845.8894380591512 L 125.15849955499849,849.1136288914576 L 126.55937273161446,850.1119437675775 L 127.87784143498696,851.3884509046806 L 129.19630966036934,855.4468914880707 L 126.80658567324585,865.4607841799111 L 135.12941930360685,874.2950491737864 L 145.42995646708786,877.6320669507595 L 159.46615463816272,880.24919220822 L 162.9271348650219,880.4127591609451 L 165.06964686656093,880.0529128132098 L 167.459371331679,878.2700023569334 L 175.6998009668578,876.6996855109859 L 170.59073462172233,883.8148259563685 L 170.1787127336418,887.3475162652381 L 170.59073462172233,889.8987628764647 L 170.6731386169357,900.2006625714956 L 169.68428732840027,903.5197507457391 L 167.9537967369472,906.6097552895121 L 165.4816687546415,909.0293194470394 L 150.786235275829,927.6138939300063 L 147.8196809322348,930.751564021552 L 145.2651475206387,932.7125163195776 L 141.80416729377728,933.9217354149182 L 139.66165577026618,934.8694838368071 L 136.69510142666755,936.7159100873623 L 135.70624966011087,938.2681681857151 L 135.5414407136617,939.6896702501132 L 136.5302924802206,940.7680276380801 L 137.84876118362644,941.4705819043244 L 139.24963436020687,942.0097451667756 L 140.65050753682283,942.87566342961 L 141.80416729377728,943.9539575880004 L 142.5458061186759,946.2085043340737 L 141.80416729377728,947.1397030029412 L 136.61269647543838,950.3579339350558 L 134.9646108352145,951.0930366223936 L 133.48133366338516,951.403410480862 L 128.5370757866732,951.4360815505818 L 126.31215978998307,951.9751468424961 L 125.81773390668472,953.5923115004928 L 125.40571249662986,960.0114956738128 L 124.47179688621658,962.4450358997948 L 123.15332818283963,964.5028451878835 L 120.68119924448254,966.8871934847067 L 119.7747519511649,967.4914300339864 L 118.70349618942157,967.9813463852324 L 117.38502796404363,967.9813463852324 L 113.34721738067822,967.0994934633399 L 110.46306703226848,967.4261069929062 L 108.9797893824179,969.7286796426686 L 102.46985033872109,987.0030541494446 L 102.30504139227413,988.423294370667 L 102.14023340187636,991.3289604914492 L 101.39859457697997,994.2834407557455 L 101.23378563053303,995.6871715601437 L 101.48099857216441,999.0657700856938 L 101.7282115137958,1000.6978698309811 L 101.31619010374094,1007.911167574727 L 100.56989987487579,1012.4595861842049" fill="none" stroke="#000000" stroke-width="1.04"/>
	<path d="M 409.5352947618463,802.3682682960867 L 396.2611080535794,810.2918109032223 L 395.9115470516196,810.1978549178446 L 387.25909600638596,807.8721803922388 L 362.839956676679,804.7274477072931 L 360.9721254558435,803.2205325681292 L 358.71974162007456,800.4686673665856 L 353.5282708017334,789.3942802373814 L 351.9625891566962,784.8229819532559 L 348.9136303398919,780.8903747960256 L 338.1186677711449,774.4501181874951 L 327.70825877343617,770.992057791392 L 325.0713208886321,772.10652804996 L 321.44553171529486,774.6140020114789 L 314.11154985149057,782.0701863011421 L 308.4256531498533,789.0502169053293 L 303.975821156433,796.2423176205617 L 298.7568824990175,802.9256964109373 L 294.6366674424152,804.5636550102071 L 284.50093970340686,801.0583646659668 L 282.688044638717,787.4609458013264 L 280.29832065162464,784.085639667467 L 277.6613827668206,778.3012536625943 L 276.7549354735007,775.8922775410371 L 274.61242394998516,767.6485112582037 L 273.1840829343304,752.583612867873 L 277.8261917132675,748.6978650989474 L 280.05110770999323,746.3367686103255 L 284.0065138201441,740.7779493856242 L 285.4073865187033,737.940928356598 L 286.808259695317,733.9721305543519 L 294.14224155915025,703.4584688835307 L 300.26762798791356,687.1282583181165 L 303.8110126880118,680.4142136916442 L 334.4928785978343,634.1155607001506 L 339.6843494161799,631.3551152017118 L 341.7444569444799,629.7447904604419 L 344.4637983464427,625.9652675747041 L 348.83122586665286,621.1336672894847 L 349.2432477547334,619.3586855827797 L 349.1608432815233,617.9945395764447 L 340.92041412436794,609.6281203970372 L 355.50597385679214,588.4186265956531 L 359.4613799669786,588.4021817680311 L 365.5043619224984,589.0764104449056 L 367.0700435675379,589.0435217573862 L 368.63572521254395,588.8461869225839 L 370.2838113307891,588.2048457359266 L 371.6846845074029,587.2181507584978 L 372.83834426435953,585.9354209803876 L 376.29932449122094,580.2285482424057 L 373.992004499313,575.5244476265792 L 356.41242115014535,562.9562398296948 L 390.96728917490543,521.8917556272277 L 399.97682547405503,506.1489355691932 L 402.28414594401977,500.9277582264581 L 402.69616735407465,499.44531308565274 L 408.6292765192887,492.1477923075911 L 432.6363949169976,470.3481756574697 L 438.81671702387416,467.52989329417085 L 453.6769584930533,444.9948032391917 L 477.49179962721297,397.3218028423808 L 479.4145665261639,358.52529646211235 L 480.2935459804405,353.98344268322325 L 484.6060373445073,343.3622583073394 L 496.8018730898413,342.3214998648708 L 498.2851502616373,341.9250155165393 L 499.60361896504315,341.214639946797 L 501.6637264933454,339.0008502622597 L 512.7333703207617,320.2295211687364 L 514.381456439009,314.577002695592 L 516.1943505476497,298.0622745611935 L 535.9713815764741,272.9745836288671 L 552.2324957442436,256.0994968436532 L 558.1656053875143,235.31263772297171 L 559.2368606712298,233.16066809767713 L 561.1321597311086,230.4954166139037 L 565.7468006709757,225.6943168147589 L 576.569231078766,217.15059865617985 L 580.9366590769997,212.79542431363404 L 583.5735960057546,209.6157571148649 L 598.1591566942568,179.61484950328685 L 598.6810504165651,178.00747674552548 L 596.5110705760139,170.1190438414259 L 606.6742671101125,157.07404454412114 L 607.4159059350378,155.5323011097055 L 607.7455233498771,154.1065644976108 L 607.8279273450927,151.32129244047732 L 607.9927362915396,150.06124031307755 L 608.3223532283577,149.00012098813502 L 608.899183106836,147.97214111375843 L 610.9592906351382,145.21971021606723 L 634.6367916179723,126.94392875564144 L 635.8728563261603,125.55059815668942 L 642.5476043163042,122.86335800828245 L 653.727120456036,121.46991964847771 L 653.9173075586058,121.44621413311737 L 655.4297130980909,124.28941617846831 L 656.8580539682918,124.73728714863118 L 658.3413316390831,124.85340087076095 L 659.8246087784029,124.73728714863118 L 661.2529496485748,124.28941617846831 L 671.5809549491333,121.17080286505579 L 687.1278989032141,120.45747748842294 L 701.6859910767724,121.618700166879 L 708.9925052981099,124.18988835467395 L 708.9925052981099,124.28941617846831 L 712.398549197846,135.02068917780304 L 717.6724241205694,143.31230406903757 L 724.8141300661309,149.28146448958734 L 733.8236659715807,153.19421699382096 L 741.5147335449983,162.7427760224948 L 745.3602675974853,165.27882341771146 L 749.2607379190288,163.91964946961474 L 757.7209121966602,170.00251090402884 L 760.6325302061496,175.6206657053359 L 760.1930411164934,182.72951534592593 L 758.3252106251291,193.25019380142996 L 756.896868691827,197.6732280130302 L 754.9741019313794,200.70453298177063 L 753.2710802472939,204.03380084014861 L 752.8315906260726,209.30057430629398 L 754.2599314963068,214.43434981215617 L 756.896868691827,219.40204716781986 L 768.3785340486772,235.52731217614655 L 774.0369623234474,241.70130142848805 L 777.8275601068243,243.35640502804813 L 781.728029896834,243.05849014777965 L 785.1890105972162,243.88602729894245 L 787.9358203310209,248.86752870074827 L 786.8370965437813,257.1910589851795 L 781.728029896834,264.2559386539344 L 777.717688100194,272.52744247729896 L 780.2447527575742,284.56846050107407 L 783.7057329263914,293.7793282505665 L 796.5608034158998,306.5098700255884 L 799.4012519200678,312.7475898410651 L 799.6921665016913,313.3864064975482 L 784.6945847069717,329.9129251335885 L 772.3888769084163,350.54737707611855 L 748.6015032215366,370.87667397486223 L 738.2185621833976,384.0015681825017 L 735.1421348351245,393.03028923354026 L 734.0983473170571,400.53931085116477 L 731.1867287760316,406.44676852207385 L 722.5068099535765,410.7861905326164 L 715.2002952007051,411.1491676103885 L 703.773566644501,406.8922767787182 L 697.6756487485696,406.3642666579571 L 686.4686647371936,412.0566014772368 L 668.7792089462744,434.50656145896244 L 647.62877298648,453.04008679429967 L 639.2784712470152,463.32640273437687 L 631.9719570257066,474.7313620586389 L 620.6001642070853,497.7646439216599 L 621.5340791869837,500.0707242561749 L 624.9401236183139,506.16489086096476 L 628.2912317805274,510.051620316719 L 643.9480477412408,522.2370050541086 L 664.8238028871548,525.793300132327 L 673.9981475998566,531.4400835262278 L 675.0419356495156,544.5258360854126 L 668.6144006705629,552.951709699717 L 658.3962679081976,554.5972341203873 L 638.3445557355806,549.8250743405283 L 611.0412656107382,536.4113979391727 L 601.8119846289264,534.6336299230327 L 593.7363637034019,537.6788446487088 L 586.3199769439001,543.7029268609756 L 577.7499301281332,548.8541347418966 L 566.6528186549527,549.117441787904 L 562.3677949813045,546.4020235780329 L 555.610642919295,537.8928264091481 L 552.0947264813655,535.851736705274 L 533.0318655577591,547.5375783242473 L 523.8025851075414,551.5036063672101 L 513.9140688966079,554.0871266045735 L 505.39895888149164,557.6248688238732 L 500.125083958795,564.5186858722906 L 492.9833785447385,578.0898575196661 L 475.40379476042295,593.1046472121744 L 468.09728107062165,604.0218752100767 L 464.8560454466303,611.2714067519919 L 455.1323385745718,620.1963653616773 L 451.17693198388713,625.8661548256335 L 450.4078252797001,631.1902855812701 L 451.9460392196059,642.7241057927264 L 450.5176978178689,648.8350490363646 L 447.9906326289813,651.2989444962232 L 441.06867229128244,653.9269753827816 L 438.9261599229099,656.0950055086909 L 436.89352062423575,669.6760674757633 L 443.92535403163293,674.0600364317628 L 455.6817002023634,676.2600972657477 L 468.09728107062165,683.2044802264185 L 475.6784761058972,685.3056786876656 L 485.45711924706785,690.1808016672576 L 494.35678314582935,696.7787556418957 L 499.02635964005043,703.9502482409519 L 497.32333742440426,715.7311023009472 L 489.13784449224715,725.3606275081861 L 478.2055412947848,732.5775501837577 L 468.09728107062165,737.2188376549071 L 455.6267639332779,737.0548420510141 L 443.1013110583626,741.1054060121527 L 437.0583294314856,749.5171543418058 L 444.25497164615933,762.4028057055659 L 435.79479683705847,782.643184873241 L 419.313937903017,796.5530598182262 L 409.5352947618463,802.3682682960867" fill="none" stroke="#000000" stroke-width="1.04"/>
	<path d="M 642.7943876850069,0.0 L 650.7052003347533,5.187333450484201 L 663.2306526781346,27.925781082014975 L 673.9432113307422,37.530168147019964 L 686.5236010063059,41.84991224992501 L 699.7082880472437,41.58409107437358 L 712.5633580051559,37.43047778113884 L 710.4757824374252,57.697026402804056 L 706.6851846540216,60.686515761438585 L 701.0267563792513,56.10256288366475 L 693.1708805300933,53.843657787342295 L 685.3150041493969,58.726758194571275 L 684.2162803622174,66.43250438529024 L 684.8755145282356,75.89707840667411 L 682.4583218774858,85.99076084587668 L 672.0753808393779,94.1572666160247 L 657.51728813425,102.02380744121415 L 648.6176242354929,111.48202668911675 L 653.9173075586058,121.44621413311737 L 653.727120456036,121.46991964847771 L 642.5476043163042,122.86335800828245 L 635.8728563261603,125.55059815668942 L 634.6367916179723,126.94392875564144 L 610.9592906351382,145.21971021606723 L 608.899183106836,147.97214111375843 L 608.3223532283577,149.00012098813502 L 607.9927362915396,150.06124031307755 L 607.8279273450927,151.32129244047732 L 607.7455233498771,154.1065644976108 L 607.4159059350378,155.5323011097055 L 606.6742671101125,157.07404454412114 L 596.5110705760139,170.1190438414259 L 598.6810504165651,178.00747674552548 L 598.1591566942568,179.61484950328685 L 583.5735960057546,209.6157571148649 L 580.9366590769997,212.79542431363404 L 576.569231078766,217.15059865617985 L 565.7468006709757,225.6943168147589 L 561.1321597311086,230.4954166139037 L 559.2368606712298,233.16066809767713 L 558.1656053875143,235.31263772297171 L 552.2324957442436,256.0994968436532 L 535.9713815764741,272.9745836288671 L 516.1943505476497,298.0622745611935 L 514.381456439009,314.577002695592 L 512.7333703207617,320.2295211687364 L 501.6637264933454,339.0008502622597 L 499.60361896504315,341.214639946797 L 498.2851502616373,341.9250155165393 L 496.8018730898413,342.3214998648708 L 484.6060373445073,343.3622583073394 L 479.46950268230506,340.6859819846302 L 476.17333092384047,341.7432915354058 L 472.71235069694796,341.52852765513506 L 469.0865620016675,340.83466754650294 L 451.3421697060218,332.1771767258911 L 448.37561536242765,329.40119645530456 L 447.3867635958665,328.8558973042448 L 444.66742171587805,327.89747966179937 L 443.1841445440821,327.7322333657152 L 441.783271845494,328.0296766760449 L 440.54720761532496,329.94648947112654 L 439.228738433929,333.08594835145493 L 438.2398866673701,334.2094998139275 L 437.00382243720327,334.9034464323378 L 435.52054478738165,335.18432682258623 L 434.11967208879355,335.18432682258623 L 430.1642659786405,334.04427359450875 L 426.9504986933816,332.49111746766516 L 423.07749657844187,332.6728728814053 L 420.0285377616087,331.6814765513226 L 409.4533193394006,325.0221242383033 L 405.3331047608218,323.2208170350268 L 398.65835677067804,318.08097365845623 L 395.7742064222683,317.254585926555 L 391.7913319950196,316.97361133690055 L 384.70456307284667,317.66778167714386 L 378.0298150827029,319.25442206848135 L 374.2392174409444,320.75838137931953 L 371.84949249780067,321.03933665162566 L 358.71974162007456,320.59311359291786 L 351.05614186337857,322.31187716541416 L 349.1608432815233,322.377982906274 L 339.5195409477564,320.98975611221675 L 304.22303409806665,303.13791476166233 L 290.5164528638387,301.7822536821939 L 289.86893778305244,301.5111360936062 L 291.33487201546376,298.63783060001225 L 291.63766970866715,278.5072630902302 L 294.1465673868029,258.49938367646627 L 300.6350944717777,241.53369945112757 L 313.1363234674706,230.663441650844 L 322.22026170536196,238.17119492074028 L 330.9148882437351,224.7972727310853 L 338.96066159519756,204.45621691918197 L 346.0980418670831,191.2564498017742 L 375.5559555026082,175.10445283053028 L 384.8129206900167,162.57609979278487 L 375.1666438030967,147.0681713486221 L 375.1666438030967,143.07297131413975 L 385.02920490847487,145.68424690686902 L 427.2046317580932,134.6899080067758 L 455.6243810387901,107.65137989916533 L 464.1892373650154,101.43187441429178 L 469.63960009513306,95.73437589668605 L 472.62432241602494,86.69029948206297 L 473.05689085291016,56.514780510488215 L 471.5861580611678,42.93803015441285 L 468.29863751550965,31.555987393687232 L 462.5885845960759,24.253697606268446 L 469.36081366510655,24.003764826792242 L 474.03039015933206,25.300056733551163 L 477.9308599493372,27.128106680302693 L 487.21507773179957,34.67229774974311 L 498.7516788261724,38.02861780010563 L 510.89257888048587,38.360915601183144 L 524.9562451638019,36.36710003772697 L 538.1949924956757,37.31986381798473 L 561.4338794698388,38.992274704872166 L 563.7412001139005,38.26122680165445 L 570.1137988237745,34.4064411273357 L 573.3550344477902,33.60886452394661 L 576.0469079124848,34.77199331693881 L 582.3096346157262,39.45748191949638 L 585.550870239713,40.58725410451194 L 617.6336093969742,38.792899298728656 L 622.9074843196374,36.40033127769026 L 627.7968058902251,31.149593486964196 L 629.7745089197871,25.23358091658576 L 629.9942534646129,12.634920766419517 L 631.7522119493445,7.714310572413074 L 642.7943876850069,0.0" fill="none" stroke="#000000" stroke-width="1.04"/>
	<path d="M 238.38147757361875,500.4357040834768 L 243.3630274735588,500.77342050345123 L 251.1060031318467,498.0237877999865 L 254.48003768378626,493.74341915374714 L 259.5410887143924,481.05596548460716 L 262.30952681682163,475.8400092061025 L 262.4825542978794,473.19291234387947 L 261.703930898852,472.2326587267181 L 258.3731536158534,471.9212216289605 L 262.9151227347958,466.5746004577224 L 269.31713634499647,451.310446804031 L 273.16699607122166,444.975069487359 L 276.6708003037462,443.7286777631135 L 285.4951975858301,443.5988433230916 L 287.70129703922845,440.97612695331753 L 287.44175555186257,435.1589513055832 L 284.9761151426034,432.1462379666314 L 282.12116356542674,430.3281396729261 L 280.43414655522616,427.9385449192072 L 280.30437581154433,412.35162370394255 L 288.99900234991753,384.3617341591647 L 291.33487201546376,364.5234644459537 L 289.64785500526096,357.03345220015245 L 282.12116356542674,342.98685417422223 L 280.43414655522616,333.95866796176784 L 280.43414655522616,312.09737964185587 L 282.12116356542674,307.4116549743683 L 289.64785500526096,301.94445614658315 L 289.86893778305244,301.5111360936062 L 290.5164528638387,301.7822536821939 L 304.22303409806665,303.13791476166233 L 339.5195409477564,320.98975611221675 L 349.1608432815233,322.377982906274 L 351.05614186337857,322.31187716541416 L 358.71974162007456,320.59311359291786 L 371.84949249780067,321.03933665162566 L 374.2392174409444,320.75838137931953 L 378.0298150827029,319.25442206848135 L 384.70456307284667,317.66778167714386 L 391.7913319950196,316.97361133690055 L 395.7742064222683,317.254585926555 L 398.65835677067804,318.08097365845623 L 405.3331047608218,323.2208170350268 L 409.4533193394006,325.0221242383033 L 420.0285377616087,331.6814765513226 L 423.07749657844187,332.6728728814053 L 426.9504986933816,332.49111746766516 L 430.1642659786405,334.04427359450875 L 434.11967208879355,335.18432682258623 L 435.52054478738165,335.18432682258623 L 437.00382243720327,334.9034464323378 L 438.2398866673701,334.2094998139275 L 439.228738433929,333.08594835145493 L 440.54720761532496,329.94648947112654 L 441.783271845494,328.0296766760449 L 443.1841445440821,327.7322333657152 L 444.66742171587805,327.89747966179937 L 447.3867635958665,328.8558973042448 L 448.37561536242765,329.40119645530456 L 451.3421697060218,332.1771767258911 L 469.0865620016675,340.83466754650294 L 472.71235069694796,341.52852765513506 L 476.17333092384047,341.7432915354058 L 479.46950268230506,340.6859819846302 L 484.6060373445073,343.3622583073394 L 480.2935459804405,353.98344268322325 L 479.4145665261639,358.52529646211235 L 477.49179962721297,397.3218028423808 L 453.6769584930533,444.9948032391917 L 438.81671702387416,467.52989329417085 L 432.6363949169976,470.3481756574697 L 408.6292765192887,492.1477923075911 L 402.69616735407465,499.44531308565274 L 402.28414594401977,500.9277582264581 L 399.97682547405503,506.1489355691932 L 390.96728917490543,521.8917556272277 L 356.41242115014535,562.9562398296948 L 373.992004499313,575.5244476265792 L 376.29932449122094,580.2285482424057 L 372.83834426435953,585.9354209803876 L 371.6846845074029,587.2181507584978 L 370.2838113307891,588.2048457359266 L 368.63572521254395,588.8461869225839 L 367.0700435675379,589.0435217573862 L 365.5043619224984,589.0764104449056 L 359.4613799669786,588.4021817680311 L 355.50597385679214,588.4186265956531 L 340.92041412436794,609.6281203970372 L 349.1608432815233,617.9945395764447 L 349.2432477547334,619.3586855827797 L 348.83122586665286,621.1336672894847 L 344.4637983464427,625.9652675747041 L 341.7444569444799,629.7447904604419 L 339.6843494161799,631.3551152017118 L 334.4928785978343,634.1155607001506 L 303.8110126880118,680.4142136916442 L 300.26762798791356,687.1282583181165 L 294.14224155915025,703.4584688835307 L 286.808259695317,733.9721305543519 L 285.4073865187033,737.940928356598 L 284.0065138201441,740.7779493856242 L 280.05110770999323,746.3367686103255 L 277.8261917132675,748.6978650989474 L 273.1840829343304,752.583612867873 L 276.34291406344363,734.6117497077852 L 275.84848818014973,732.9388834078511 L 275.3540627749127,730.5771024575411 L 273.3488914027516,729.6258009855392 L 270.65701783982985,728.7072869170252 L 268.98146340451797,727.6739396768644 L 266.5093349441866,725.3283332413403 L 265.7676961192613,723.2286826803575 L 265.93250458768256,721.4242317590332 L 267.0037603494281,717.5526610739518 L 267.4981862326909,712.2041897134812 L 267.7453991743534,699.4050963872941 L 266.1797175293162,694.4651520071068 L 264.0372060058295,691.3302692631543 L 261.6474815406825,690.8871036443436 L 259.91699142725514,691.3630964559391 L 258.2689053090078,692.3150684108134 L 256.9504366056042,693.4803918773383 L 255.71437237543736,694.0876625266104 L 254.39590319403916,694.3174390696505 L 253.07743449066444,694.350263884267 L 248.29798556039944,695.302184011021 L 245.743452626829,695.4006577509069 L 244.6721963870622,695.6468404621072 L 243.68334462050552,696.1884389530683 L 243.0241107468405,697.0090330698348 L 242.52968486357776,697.9609065656673 L 241.87045051186038,698.7486511798425 L 240.88159874533483,699.1917526085094 L 238.5468104363246,699.8317814293923 L 237.88757608463834,700.5702670653404 L 236.8163203228972,702.4738719029705 L 236.07468197599317,703.1795015710502 L 233.52014808640692,704.951740931017 L 232.44889232463248,705.3127449255928 L 230.05916785951442,705.5424739579124 L 226.51578315941842,706.4285623040544 L 223.63163328902993,706.2644728336539 L 222.3131641076006,706.3957447923322 L 220.33546105253743,707.1833664529563 L 219.34660928598078,707.7084417840852 L 213.13881934005872,709.9891779181748 L 209.34822169830022,710.8587860106395 L 204.0743468847724,710.5798567162266 L 202.67347370815645,710.7931563219812 L 201.84943088804673,711.4658622960364 L 201.2726010095706,712.4010757103141 L 200.44855771143295,713.2542382120264 L 198.38845018313518,713.0573553080357 L 192.53774501310335,713.2378312354434 L 179.49039860858514,710.8259711762427 L 165.81128569145733,703.7374353337578 L 150.12700140216842,703.0646324626017 L 147.46775538841482,701.9558549854689 L 160.00708139174765,667.8746148482219 L 156.67630357718184,663.5301005186509 L 164.938361678672,656.3401992025191 L 171.1673478078149,630.2364583122544 L 180.12151530198886,624.4914284597243 L 179.77546087141394,616.8563230387175 L 200.75503218702184,565.6085169406491 L 202.87461763411207,553.015714126565 L 203.7794962845271,526.5856121240365 L 213.9079260040295,528.7242890561477 L 220.99469540422814,528.4608823253287 L 222.88999446410244,527.2755349619689 L 224.86769751919675,524.3449823855989 L 226.26857021778704,522.7643925566172 L 232.11927538781663,522.2375189790482 L 238.29959797271889,503.3325274865641 L 238.38147757361875,500.4357040834768" fill="none" stroke="#000000" stroke-width="1.04"/>
	<path d="M 203.7794962845271,526.5856121240365 L 203.912781988967,521.935706159745 L 202.18250824139494,514.4157475091146 L 198.89498769573459,508.29528306200496 L 197.12145667925483,503.0560276965396 L 199.97640878799436,498.0237877999865 L 205.68631300548233,496.1041494515527 L 212.69392200211877,497.24556444171935 L 218.7931379191138,499.8914778393989 L 222.0374011958376,502.77070716846544 L 225.6709767036046,502.77070716846544 L 230.81854174048993,499.8914778393989 L 238.38147757361875,500.4357040834768 L 238.29959797271889,503.3325274865641 L 232.11927538781663,522.2375189790482 L 226.26857021778704,522.7643925566172 L 224.86769751919675,524.3449823855989 L 222.88999446410244,527.2755349619689 L 220.99469540422814,528.4608823253287 L 213.9079260040295,528.7242890561477 L 203.7794962845271,526.5856121240365" fill="none" stroke="#000000" stroke-width="1.04"/>
</svg>
