<?xml version="1.0" ?>
<svg xmlns="http://www.w3.org/2000/svg" xmlns:ev="http://www.w3.org/2001/xml-events" xmlns:xlink="http://www.w3.org/1999/xlink" baseProfile="full" height="600px" version="1.1" viewBox="-80.83176290822252 -167.18434455272512 961.663525816445 1997.8945055504764" width="289px">
	<defs/>
	<path d="M 403.16271204548195,286.49274440958436 L 419.142738390332,212.49043093700692 L 435.4556797457723,183.5017717499091 L 535.497296333127,40.250650243647506 L 593.4248860073817,0.0 L 672.4927202675535,25.924346657831606 L 654.1822727164766,98.23586437280238 L 681.4814817844432,135.75381137654887 L 726.0923839159701,161.33337218398992 L 667.0781626577126,198.61643023142224 L 615.8081514945718,245.88448959836853 L 595.3001440861376,314.1564145107557 L 584.7237548376233,393.5966354243842 L 492.76011440187716,377.1722920514625 L 461.9981069679244,324.6593520718962 L 403.16271204548195,286.49274440958436" fill="none" stroke="#000000" stroke-width="1.6635258164450262"/>
	<path d="M 212.40116520354044,521.761292313198 L 311.9434042228529,371.912195082061 L 333.25010288589533,355.0335132873733 L 373.200165435566,332.52813441713823 L 393.5081150913722,312.40923983641414 L 403.16271204548195,286.49274440958436 L 461.9981069679244,324.6593520718962 L 492.76011440187716,377.1722920514625 L 584.7237548376233,393.5966354243842 L 579.9191403693153,429.68232736552795 L 564.5381366524588,555.6945759307782 L 538.903129231385,660.6920455068679 L 497.8871180934548,770.9269493088582 L 482.50611069742047,886.3974993011051 L 482.50611069742047,975.6152001747423 L 436.3630995469192,959.8715037852686 L 400.4740884215942,917.8870478424121 L 400.4740884215942,839.1612305808229 L 400.4740884215942,786.6737535882432 L 395.34708840898895,697.4384291156402 L 385.09308470473763,613.4446142285265 L 354.3310772710929,560.9447265000332 L 282.55305502054557,545.1941917083903 L 212.40116520354044,521.761292313198" fill="none" stroke="#000000" stroke-width="1.6635258164450262"/>
	<path d="M 47.607158076128755,850.0171909140975 L 55.59717123390538,815.2539973800584 L 77.90262299450937,756.9716855312248 L 175.78027521846894,615.8524128485692 L 212.40116520354044,521.761292313198 L 282.55305502054557,545.1941917083903 L 354.3310772710929,560.9447265000332 L 385.09308470473763,613.4446142285265 L 395.34708840898895,697.4384291156402 L 400.4740884215942,786.6737535882432 L 400.4740884215942,839.1612305808229 L 400.4740884215942,917.8870478424121 L 390.2200883964179,996.6063957884445 L 359.4580772837324,1028.0923242080978 L 277.4260550079061,1007.1018175597692 L 221.02904015315346,912.6388591393802 L 154.3780215939784,865.4038890750384 L 92.85400304757971,849.6583810976766 L 47.607158076128755,850.0171909140975" fill="none" stroke="#000000" stroke-width="1.6635258164450262"/>
	<path d="M 42.613401287826,1339.1244687347298 L 17.64461078906671,1311.7028809788442 L 1.6645857692121184,1280.02231348947 L 30.129006102738444,1214.4436331501931 L 34.62338890672246,1172.0280296052888 L 30.129006102738444,1089.5762860104003 L 23.637121194196194,1062.6586864632438 L 11.985016719454467,1041.532954745114 L 1.6645857692121184,1014.9547623701538 L 0.0,972.3599683763724 L 10.653351376906345,928.059375398224 L 47.607158076128755,850.0171909140975 L 92.85400304757971,849.6583810976766 L 154.3780215939784,865.4038890750384 L 221.02904015315346,912.6388591393802 L 277.4260550079061,1007.1018175597692 L 359.4580772837324,1028.0923242080978 L 390.2200883964179,996.6063957884445 L 400.4740884215942,917.8870478424121 L 436.3630995469192,959.8715037852686 L 482.50611069742047,975.6152001747423 L 482.50611069742047,1017.5971282806191 L 467.1251069805639,1117.2968523840275 L 422.5822433150201,1142.1616799699318 L 396.5842596743835,1156.6740415682445 L 354.3310772710929,1180.25976616649 L 215.90203646154163,1232.7257161859009 L 118.48901046865338,1279.9426289075293 L 42.613401287826,1339.1244687347298" fill="none" stroke="#000000" stroke-width="1.6635258164450262"/>
	<path d="M 243.81080848842186,1489.5289977315629 L 124.17811228516905,1443.1831603317637 L 55.59717123390538,1361.0952438357058 L 42.613401287826,1339.1244687347298 L 118.48901046865338,1279.9426289075293 L 215.90203646154163,1232.7257161859009 L 354.3310772710929,1180.25976616649 L 396.5842596743835,1156.6740415682445 L 399.18237194149566,1177.4663539024364 L 379.8923128962859,1189.8850286723125 L 366.9457122218874,1225.2145799262257 L 316.59782275439755,1340.0266713530275 L 272.00397516979115,1428.3343674088019 L 243.81080848842186,1489.5289977315629" fill="none" stroke="#000000" stroke-width="1.6635258164450262"/>
	<path d="M 455.8618650218745,1596.6847231150464 L 430.12900610289245,1561.7044498389164 L 243.81080848842186,1489.5289977315629 L 272.00397516979115,1428.3343674088019 L 316.59782275439755,1340.0266713530275 L 366.9457122218874,1225.2145799262257 L 379.8923128962859,1189.8850286723125 L 399.18237194149566,1177.4663539024364 L 401.469981913297,1195.77337789237 L 415.8550921384165,1250.2388952228634 L 443.186806717215,1344.4422467095626 L 469.08000806594356,1407.7299580072777 L 473.39554039766097,1493.088211824641 L 474.83405362766246,1550.4800453729035 L 455.8618650218745,1596.6847231150464" fill="none" stroke="#000000" stroke-width="1.6635258164450262"/>
	<path d="M 656.5143598380995,1415.222183399533 L 636.8705782632352,1420.7033444322456 L 619.3924256419956,1432.2839200760168 L 600.4161495103807,1472.4742561532921 L 563.4623380724361,1632.3675718413829 L 537.9941770323475,1656.7153531148174 L 525.343323550609,1663.525816445026 L 505.0353738948029,1663.525816445026 L 455.8618650218745,1596.6847231150464 L 474.83405362766246,1550.4800453729035 L 473.39554039766097,1493.088211824641 L 469.08000806594356,1407.7299580072777 L 443.186806717215,1344.4422467095626 L 415.8550921384165,1250.2388952228634 L 401.469981913297,1195.77337789237 L 399.18237194149566,1177.4663539024364 L 396.5842596743835,1156.6740415682445 L 422.5822433150201,1142.1616799699318 L 477.37911068481526,1206.4930986232614 L 559.4111329608127,1295.6810844511997 L 610.68114780296,1353.3865584709133 L 656.5143598380995,1415.222183399533" fill="none" stroke="#000000" stroke-width="1.6635258164450262"/>
	<path d="M 762.213901813793,1167.428634177126 L 711.444029719423,1372.3359109498424 L 700.4577620068626,1401.288537414438 L 688.1398248609837,1406.3977343290649 L 656.5143598380995,1415.222183399533 L 610.68114780296,1353.3865584709133 L 559.4111329608127,1295.6810844511997 L 477.37911068481526,1206.4930986232614 L 422.5822433150201,1142.1616799699318 L 467.1251069805639,1117.2968523840275 L 554.2841329482073,1138.2849471203278 L 667.0781626577126,1169.7662321807045 L 762.213901813793,1167.428634177126" fill="none" stroke="#000000" stroke-width="1.6635258164450262"/>
	<path d="M 770.2972561985052,852.2277947168866 L 750.3953391712583,982.5828904518596 L 762.213901813793,1167.428634177126 L 667.0781626577126,1169.7662321807045 L 554.2841329482073,1138.2849471203278 L 467.1251069805639,1117.2968523840275 L 482.50611069742047,1017.5971282806191 L 482.50611069742047,975.6152001747423 L 482.50611069742047,886.3974993011051 L 569.665136665064,870.6523329129267 L 641.443155236639,896.8941280188963 L 702.9671737830034,865.4038890750384 L 770.2972561985052,852.2277947168866" fill="none" stroke="#000000" stroke-width="1.6635258164450262"/>
	<path d="M 800.0,550.0577877307251 L 799.6670836644486,659.826599679362 L 770.2972561985052,852.2277947168866 L 702.9671737830034,865.4038890750384 L 641.443155236639,896.8941280188963 L 569.665136665064,870.6523329129267 L 482.50611069742047,886.3974993011051 L 497.8871180934548,770.9269493088582 L 538.903129231385,660.6920455068679 L 564.5381366524588,555.6945759307782 L 646.5701589282507,545.1941917083903 L 723.4751811914376,539.9439580494906 L 800.0,550.0577877307251" fill="none" stroke="#000000" stroke-width="1.6635258164450262"/>
	<path d="M 726.0923839159701,161.33337218398992 L 759.0511884434011,197.82569122773222 L 770.3703724914446,250.00384341886277 L 784.3528954065698,426.6379808274856 L 800.0,550.0577877307251 L 723.4751811914376,539.9439580494906 L 646.5701589282507,545.1941917083903 L 564.5381366524588,555.6945759307782 L 579.9191403693153,429.68232736552795 L 584.7237548376233,393.5966354243842 L 595.3001440861376,314.1564145107557 L 615.8081514945718,245.88448959836853 L 667.0781626577126,198.61643023142224 L 726.0923839159701,161.33337218398992" fill="none" stroke="#000000" stroke-width="1.6635258164450262"/>
</svg>
