<?xml version="1.0" ?>
<svg xmlns="http://www.w3.org/2000/svg" xmlns:ev="http://www.w3.org/2001/xml-events" xmlns:xlink="http://www.w3.org/1999/xlink" baseProfile="full" height="600px" version="1.1" viewBox="-80.88234303074546 -177.35094917983702 961.7646860614909 2119.3879598505896" width="273px">
	<defs/>
	<path d="M 642.8464588034443,1676.1485738684328 L 602.512933217672,1727.2678534774855 L 484.8484843285536,1764.6860614909156 L 327.51137276986356,1738.4900520771225 L 321.9570687618133,1681.537949079917 L 306.04996011511366,1611.6963049164603 L 267.87290244954494,1546.5008481852824 L 264.6914796911369,1476.6379332527351 L 207.4258957654302,1462.6640232763555 L 154.32372105974835,1410.4924881586571 L 208.72135848169276,1298.7881996262238 L 205.76496713374556,1119.9161208773703 L 293.3242742264751,1108.5114454953937 L 328.31990913364774,1155.1266449656127 L 334.68275465045184,1239.0216385541537 L 350.5898581521818,1341.5384035649583 L 411.0368648362846,1388.1290944790421 L 461.9396083904919,1397.4466496375626 L 484.209557409026,1458.0059629494579 L 449.2139225018653,1509.2419956354859 L 484.209557409026,1569.7860358053115 L 541.4751464797143,1569.7860358053115 L 547.8379868515368,1509.2419956354859 L 525.5680378326797,1462.6640232763555 L 611.4664162937246,1476.6379332527351 L 621.0106794239551,1574.4429296323272 L 642.8464588034443,1676.1485738684328" fill="none" stroke="#000000" stroke-width="1.7646860614909157"/>
	<path d="M 739.4032590176704,1553.7471829889157 L 642.8464588034443,1676.1485738684328 L 621.0106794239551,1574.4429296323272 L 611.4664162937246,1476.6379332527351 L 697.3647947547814,1444.0314657460212 L 713.2719034018161,1513.8995177605298 L 739.4032590176704,1553.7471829889157" fill="none" stroke="#000000" stroke-width="1.7646860614909157"/>
	<path d="M 764.4487501934988,1178.2729059520054 L 791.060068032771,1276.4273874619885 L 710.090480643408,1276.3032070233266 L 662.3691598479319,1271.6431805722848 L 627.3735249407712,1285.6231054109558 L 573.2893586284789,1294.9428153730591 L 560.5636727398523,1169.1102456145534 L 538.2937237213063,1089.8639940103715 L 487.390980167434,1052.5667364607339 L 500.11666605573754,963.9731654949352 L 554.2008323680298,996.6149622797919 L 598.740730405421,1043.2419352378377 L 652.8248967177013,1103.849654311972 L 703.7276351266039,1187.7543626221477 L 764.4487501934988,1178.2729059520054" fill="none" stroke="#000000" stroke-width="1.7646860614909157"/>
	<path d="M 435.18107649569913,732.473325208528 L 435.77235590963676,805.307235110391 L 414.21828759469264,856.7046039612595 L 356.9527036689859,842.7111385992692 L 283.7800110965796,819.3877086911335 L 239.24011305917642,852.0401696633002 L 210.60731852383825,800.7280818186865 L 169.24883810018457,786.7328475575199 L 185.15594674689612,922.0016096417015 L 112.40601771180859,897.0624032899801 L 95.78713918196348,864.6926839798907 L 52.032519766864,725.9697192674471 L 60.34205970355788,553.3372689946775 L 137.43462595141995,595.4202783902248 L 236.0586903011034,600.0874243742531 L 315.5942232453323,572.0838178776972 L 309.23138287350974,646.756155491349 L 372.85981231602057,716.750033052694 L 435.18107649569913,732.473325208528" fill="none" stroke="#000000" stroke-width="1.7646860614909157"/>
	<path d="M 791.060068032771,1276.4273874619885 L 800.0,1309.3969909275768 L 760.3843307610101,1527.1458062877052 L 739.4032590176704,1553.7471829889157 L 713.2719034018161,1513.8995177605298 L 697.3647947547814,1444.0314657460212 L 700.5462175131775,1374.1524020857776 L 662.3691598479319,1271.6431805722848 L 710.090480643408,1276.3032070233266 L 791.060068032771,1276.4273874619885" fill="none" stroke="#000000" stroke-width="1.7646860614909157"/>
	<path d="M 484.209557409026,1458.0059629494579 L 461.9396083904919,1397.4466496375626 L 411.0368648362846,1388.1290944790421 L 350.5898581521818,1341.5384035649583 L 334.68275465045184,1239.0216385541537 L 328.31990913364774,1155.1266449656127 L 293.3242742264751,1108.5114454953937 L 296.5056969848831,1005.9407524893439 L 318.7756460037403,982.6259163937652 L 379.22265268752,982.6259163937652 L 398.3111789479811,931.3289632338445 L 414.21828759469264,856.7046039612595 L 455.5767680186694,917.3378554189442 L 500.11666605573754,963.9731654949352 L 487.390980167434,1052.5667364607339 L 538.2937237213063,1089.8639940103715 L 560.5636727398523,1169.1102456145534 L 573.2893586284789,1294.9428153730591 L 528.7494605910877,1304.2623218493022 L 531.9308833494838,1383.4702509974425 L 525.5680378326797,1462.6640232763555 L 484.209557409026,1458.0059629494579" fill="none" stroke="#000000" stroke-width="1.7646860614909157"/>
	<path d="M 521.912534096091,856.1785223859994 L 606.0606039801789,905.8677007506856 L 742.0546918152374,1095.6567212628122 L 764.4487501934988,1178.2729059520054 L 703.7276351266039,1187.7543626221477 L 652.8248967177013,1103.849654311972 L 598.740730405421,1043.2419352378377 L 554.2008323680298,996.6149622797919 L 500.11666605573754,963.9731654949352 L 521.912534096091,856.1785223859994" fill="none" stroke="#000000" stroke-width="1.7646860614909157"/>
	<path d="M 327.51137276986356,1738.4900520771225 L 135.40280842145594,1706.502635135178 L 6.504066093493203,1668.430528198378 L 0.0,1590.3292213971965 L 66.81448795028517,1500.5281757646067 L 154.32372105974835,1410.4924881586571 L 207.4258957654302,1462.6640232763555 L 264.6914796911369,1476.6379332527351 L 267.87290244954494,1546.5008481852824 L 306.04996011511366,1611.6963049164603 L 321.9570687618133,1681.537949079917 L 327.51137276986356,1738.4900520771225" fill="none" stroke="#000000" stroke-width="1.7646860614909157"/>
	<path d="M 484.209557409026,1458.0059629494579 L 525.5680378326797,1462.6640232763555 L 547.8379868515368,1509.2419956354859 L 541.4751464797143,1569.7860358053115 L 484.209557409026,1569.7860358053115 L 449.2139225018653,1509.2419956354859 L 484.209557409026,1458.0059629494579" fill="none" stroke="#000000" stroke-width="1.7646860614909157"/>
	<path d="M 435.77235590963676,805.307235110391 L 521.912534096091,856.1785223859994 L 500.11666605573754,963.9731654949352 L 455.5767680186694,917.3378554189442 L 414.21828759469264,856.7046039612595 L 435.77235590963676,805.307235110391" fill="none" stroke="#000000" stroke-width="1.7646860614909157"/>
	<path d="M 491.94382585244284,606.2862438270914 L 435.18107649569913,732.473325208528 L 372.85981231602057,716.750033052694 L 309.23138287350974,646.756155491349 L 315.5942232453323,572.0838178776972 L 366.49696679921647,530.0750973626728 L 433.30681900012337,548.7461345453069 L 491.94382585244284,606.2862438270914" fill="none" stroke="#000000" stroke-width="1.7646860614909157"/>
	<path d="M 448.78048585142454,429.95434507469184 L 497.85661426986275,546.432365905148 L 491.94382585244284,606.2862438270914 L 433.30681900012337,548.7461345453069 L 366.49696679921647,530.0750973626728 L 315.5942232453323,572.0838178776972 L 245.6029534310109,530.0750973626728 L 191.51878711871865,488.06238183521987 L 185.15594674689612,404.0249916472667 L 210.60731852383825,319.9716311753448 L 251.9657938028334,315.3015376964057 L 280.59858833817157,385.34784773476247 L 379.22265268752,436.70809485658083 L 448.78048585142454,429.95434507469184" fill="none" stroke="#000000" stroke-width="1.7646860614909157"/>
	<path d="M 384.71165077705245,235.11878042388147 L 368.9578679593516,283.0659048950754 L 394.3828541500843,356.8416761919857 L 448.78048585142454,429.95434507469184 L 379.22265268752,436.70809485658083 L 280.59858833817157,385.34784773476247 L 251.9657938028334,315.3015376964057 L 309.23138287350974,259.2565024928098 L 384.71165077705245,235.11878042388147" fill="none" stroke="#000000" stroke-width="1.7646860614909157"/>
	<path d="M 333.5055221286792,97.68686188430578 L 407.3909840913935,166.08440179261498 L 384.71165077705245,235.11878042388147 L 309.23138287350974,259.2565024928098 L 251.9657938028334,315.3015376964057 L 248.78437618940694,263.92718761659506 L 286.96143385497567,207.87565069885204 L 306.04996011511366,151.81700276541324 L 333.5055221286792,97.68686188430578" fill="none" stroke="#000000" stroke-width="1.7646860614909157"/>
	<path d="M 258.9800400075695,0.0 L 311.01256549549237,76.8624933175886 L 333.5055221286792,97.68686188430578 L 306.04996011511366,151.81700276541324 L 286.96143385497567,207.87565069885204 L 248.78437618940694,263.92718761659506 L 251.9657938028334,315.3015376964057 L 210.60731852383825,319.9716311753448 L 159.70457496995402,296.6206481517792 L 121.04059698346418,284.5233189723369 L 164.3754653742051,160.22365957772485 L 258.9800400075695,0.0" fill="none" stroke="#000000" stroke-width="1.7646860614909157"/>
	<path d="M 205.76496713374556,1119.9161208773703 L 157.87139754269202,985.6063274496081 L 112.40601771180859,897.0624032899801 L 185.15594674689612,922.0016096417015 L 169.24883810018457,786.7328475575199 L 210.60731852383825,800.7280818186865 L 239.24011305917642,852.0401696633002 L 283.7800110965796,819.3877086911335 L 356.9527036689859,842.7111385992692 L 414.21828759469264,856.7046039612595 L 398.3111789479811,931.3289632338445 L 379.22265268752,982.6259163937652 L 318.7756460037403,982.6259163937652 L 296.5056969848831,1005.9407524893439 L 293.3242742264751,1108.5114454953937 L 205.76496713374556,1119.9161208773703" fill="none" stroke="#000000" stroke-width="1.7646860614909157"/>
	<path d="M 525.5680378326797,1462.6640232763555 L 531.9308833494838,1383.4702509974425 L 528.7494605910877,1304.2623218493022 L 573.2893586284789,1294.9428153730591 L 627.3735249407712,1285.6231054109558 L 662.3691598479319,1271.6431805722848 L 700.5462175131775,1374.1524020857776 L 697.3647947547814,1444.0314657460212 L 611.4664162937246,1476.6379332527351 L 525.5680378326797,1462.6640232763555" fill="none" stroke="#000000" stroke-width="1.7646860614909157"/>
	<path d="M 60.34205970355788,553.3372689946775 L 65.63192912226634,443.40402978672637 L 121.04059698346418,284.5233189723369 L 159.70457496995402,296.6206481517792 L 210.60731852383825,319.9716311753448 L 185.15594674689612,404.0249916472667 L 191.51878711871865,488.06238183521987 L 245.6029534310109,530.0750973626728 L 315.5942232453323,572.0838178776972 L 236.0586903011034,600.0874243742531 L 137.43462595141995,595.4202783902248 L 60.34205970355788,553.3372689946775" fill="none" stroke="#000000" stroke-width="1.7646860614909157"/>
</svg>
