<?xml version="1.0" ?>
<svg xmlns="http://www.w3.org/2000/svg" xmlns:ev="http://www.w3.org/2001/xml-events" xmlns:xlink="http://www.w3.org/1999/xlink" baseProfile="full" height="590px" version="1.1" viewBox="-80.23989330137174 -78.79920344926055 958.8866851238553 941.598406898521" width="600px">
	<defs/>
	<path d="M 609.1532675014563,75.22387035997838 L 613.6896915689682,79.16135398317587 L 617.8939748006912,84.2418462734155 L 631.0832172440863,107.45900904696974 L 649.1209474280146,125.91185168094117 L 653.9016240640568,125.642121932391 L 661.632079810312,127.76147823796879 L 668.7013784356172,131.11415480439035 L 671.7020157101983,134.85254253416795 L 671.8037320389591,142.17621661773816 L 673.7024406692902,146.9180793117291 L 678.0423457820133,149.88686236407673 L 685.4337463336992,151.8533260330613 L 696.7242804747876,157.0205955103979 L 723.7808757507069,185.56886946242722 L 734.5967328162067,188.84943209824658 L 747.7181641550928,189.19680243244935 L 757.6863833981965,193.36549248876662 L 759.3477534907698,214.87238017562154 L 763.0265011544814,219.35290373271175 L 768.163185597216,223.2544799700415 L 772.6726181431895,228.3155369750174 L 775.1477198497605,234.65246819645154 L 778.7417037968894,247.8320375859007 L 787.896190769853,260.2428011066291 L 791.2189309549432,268.3255162478367 L 791.5240805972745,270.6075521130293 L 791.2189309549432,276.3325866036061 L 791.557985821499,279.04067547940775 L 793.0159226004466,281.3233580453308 L 797.3897329373859,285.65696533193386 L 798.4068985211118,287.8239555565374 L 797.2032528920246,293.28067747990036 L 791.1341669102728,301.951133918203 L 790.5238679537032,307.8357927181939 L 790.744253879375,313.2566861126771 L 789.218505995891,317.4390503980371 L 786.4721598711966,320.76978393125324 L 782.7425537150157,323.5585312044291 L 774.0966493698979,327.3546577712255 L 764.3318631123115,330.3763385939769 L 755.075659154501,334.4443687063468 L 748.1589356783859,341.49666257740176 L 745.7855503005386,349.36424296804034 L 745.6852068853739,357.49329495312173 L 745.5315239553229,357.46638656350626 L 740.106642616682,356.5165590379118 L 738.6826111694065,356.78793573569936 L 737.2585800171396,357.4857712071376 L 729.4772660185057,363.4178949331026 L 727.4429355902695,364.63933080856236 L 718.271495626913,367.41194413992383 L 715.0674250180534,369.0019267950486 L 708.9644334383197,374.8001165605707 L 707.3369693907526,375.40131767683994 L 704.2685210071314,374.7031493994788 L 701.8273241982259,373.05474769828606 L 697.3517972561106,368.59472987542165 L 694.7580259232188,364.65871915534393 L 691.0962311524098,356.90424097221785 L 687.5191999404411,353.6672198663101 L 682.2807989033439,350.58552498606934 L 672.5160128478261,346.5932643751597 L 662.1748327038285,343.5702813913843 L 659.1741955803396,343.53152680302964 L 656.5804242474479,344.1516053466682 L 651.6810783309096,346.690158979185 L 648.7312992837274,347.4653237898981 L 645.4763703035155,347.62035893989173 L 641.7128590850283,347.32966868461483 L 625.5738369993153,348.1629861568899 L 621.1491684285343,347.8529123578315 L 606.2307448947597,343.1246055308276 L 600.9923438576652,342.40766010190583 L 586.3790702569202,343.45401740893135 L 584.0904482670259,342.87270423716916 L 582.81899193377,340.39253540531854 L 582.6155587434258,339.11376177080945 L 582.76813326739,337.75753495903444 L 582.0391652450168,336.61446685947396 L 586.3282115905621,332.4880872673739 L 589.0236996661185,328.2072048633802 L 590.7528804563694,322.62922802462924 L 591.3631797323593,314.9608584918172 L 590.6003056373775,299.4352504097501 L 591.1088884657057,291.73289322627244 L 591.1258413544884,291.69419191002885 L 589.3288493041217,291.17172785408485 L 587.9556762281792,289.8172241607043 L 585.5144797143014,288.59821273654705 L 580.1743619345203,287.43728583886275 L 576.2413233032861,286.99227353920605 L 572.8338195040823,287.05031847088793 L 570.8503477422055,287.8049090149802 L 569.7314656379081,289.1206415311935 L 568.6634421999509,290.82342227433827 L 566.9342614097178,291.81029597774966 L 564.7473561624716,290.8040722456232 L 559.915821211038,284.2449213877547 L 557.2542389130417,282.23290299466356 L 552.5752787805999,280.54985411151694 L 549.6763578097243,278.80884847273563 L 548.5066179241261,276.04274826161037 L 549.2694917240815,273.663677443019 L 552.5752787805999,267.6876463251601 L 562.0010100106073,246.03485613497108 L 563.1707498962041,240.9714352121312 L 563.0690334485453,237.12600577107713 L 561.5941439249644,233.41621219088015 L 559.966679582371,230.86593987676397 L 558.1696875320042,229.37835996347886 L 555.8302077607925,230.13180248823315 L 552.2701291425968,232.5661022652282 L 533.3847612000278,248.7794352751293 L 524.8405731064136,253.57326229118513 L 511.7530474006043,256.5697121098623 L 512.7702127622356,249.99716441562845 L 513.0245037338601,243.07789075932038 L 514.2451019907901,238.4206543278246 L 516.7880152473559,233.6480641467558 L 521.7890779066001,227.81356614727738 L 525.501730753735,224.47169159784244 L 529.1635258195911,222.3276380538079 L 535.5208083709493,220.82107829254923 L 538.674020608458,219.50771583912908 L 542.1493350777414,216.9390647530146 L 569.324599847271,191.976180118235 L 574.2069925800234,186.4375276279874 L 576.6481890939025,180.93826907759248 L 578.9537636775698,173.20205836668805 L 581.4966769341341,136.68363040338653 L 582.6155587434258,131.57691713044778 L 585.3619048953094,126.00848539511779 L 586.9385108665492,118.5338017240242 L 595.906517934607,114.50809468767233 L 597.5339822771812,112.9865259839504 L 599.6191707817419,110.21318883150812 L 599.9243204197259,108.49921298399421 L 599.7208875244095,107.20896715029586 L 599.0088718007812,106.22686862220327 L 598.195139629475,105.41810083718403 L 597.4322655344959,104.4167923310113 L 596.6693917345597,103.18444907950798 L 596.0082343822468,101.10495906089089 L 595.7030847442628,93.05762485700897 L 598.6528640864701,71.08043747704413 L 598.958013429429,70.21469327260252 L 604.1283386249523,72.15753468045006 L 609.078542694245,75.15901499573657 L 609.1532675014563,75.22387035997838" fill="none" stroke="#000000" stroke-width="0.7984068985211118"/>
	<path d="M 535.4357796272362,0.0 L 541.6404874899689,4.570717055303671 L 546.0142981549601,9.833472527013274 L 548.9979828174675,15.980662852687956 L 550.9984077765306,23.281722030873333 L 553.3717934824313,38.54154962313653 L 556.8301548924176,43.77048563155506 L 571.3756177860572,44.15499435492877 L 576.2241055266261,48.23102099263687 L 585.7515532464272,66.19374817672728 L 588.4639938188727,68.27134949986355 L 598.7034571520355,70.1182001284337 L 598.958013429429,70.21469327260252 L 598.6528640864701,71.08043747704413 L 595.7030847442628,93.05762485700897 L 596.0082343822468,101.10495906089089 L 596.6693917345597,103.18444907950798 L 597.4322655344959,104.4167923310113 L 598.195139629475,105.41810083718403 L 599.0088718007812,106.22686862220327 L 599.7208875244095,107.20896715029586 L 599.9243204197259,108.49921298399421 L 599.6191707817419,110.21318883150812 L 597.5339822771812,112.9865259839504 L 595.906517934607,114.50809468767233 L 586.9385108665492,118.5338017240242 L 578.1908898776157,120.82613992554346 L 576.0378901129418,121.94346384003963 L 574.3595673990154,123.44612257493576 L 570.4943397328872,128.32053857568076 L 561.6450022962974,142.0223204128141 L 559.8649628396856,145.81960362582353 L 558.6443645827544,149.81004935508213 L 556.7965144560644,161.7646029817574 L 555.8810658371184,164.77311209497498 L 554.2027431231727,167.72399585399174 L 552.1175543236048,170.28932889233295 L 549.3203500954145,172.7390934122216 L 546.3705707532044,174.68744338027093 L 542.7087759823776,176.42368099324918 L 538.7757370561155,177.7548501882944 L 534.7070761996445,178.62302912662273 L 531.1469978764751,179.00889240628058 L 527.434344439286,178.79666728698965 L 524.026841230135,178.21787638296564 L 509.41356733438414,172.6040628579375 L 506.7180792588071,172.31471313614327 L 504.36164659883326,172.66193279717987 L 502.7341822562399,173.8193543866579 L 501.4118675516331,175.86421828291554 L 497.2923483238276,184.2377288309526 L 496.2751829621949,185.85862099897605 L 494.7494350672618,186.95855098152103 L 492.1556637343893,186.53401303339592 L 489.561892401499,184.27632066828002 L 486.61211335431676,178.06353346936268 L 485.67971184659206,173.37567184139468 L 485.7475225166702,169.07414982896492 L 492.7151046390255,144.77868679278782 L 493.0202542770287,141.21279597888892 L 492.4608133723746,137.16543116502638 L 490.8842071061071,132.02011415526692 L 490.1213333061531,127.85811643365169 L 489.86704203950217,123.5039184609684 L 489.2567427635151,119.57400558976906 L 487.7309948685806,115.52892785432823 L 483.3402317803526,113.2176462750718 L 480.6956023711735,112.63984782506441 L 475.30462622003876,112.52428891207273 L 471.8462646395547,112.00427945540811 L 468.99820174500496,110.86798657117987 L 466.387477818361,108.82659565286367 L 463.2851239521867,104.89818740799075 L 460.2844862386258,101.99065394919427 L 455.55466832488594,99.6031751184354 L 452.0454480780411,98.46724989433025 L 448.2819365645275,96.48427360737486 L 436.720158458625,88.32242214743346 L 432.34634796416856,86.80189180277533 L 428.464167409241,86.59017677553203 L 425.66696288602566,87.34080710253863 L 423.02233318180095,87.55252593191153 L 414.6815782785309,85.82031527673946 L 412.69810622162765,84.14591900256384 L 411.20626380924756,80.87432169012496 L 409.782232361972,72.69654523863285 L 409.68051591431305,59.69265126948369 L 408.15476801937996,54.50001556978168 L 401.39061908734965,50.19258233277085 L 398.90310674552757,48.29904324883681 L 403.0347715813961,47.884926784439145 L 409.6463454152127,50.80759998933909 L 417.2072737281983,51.61522021994478 L 424.8021075934534,50.61531214816112 L 431.4136814272398,48.07720100218842 L 437.72010594678665,42.34783717943814 L 446.60334915775,27.0865047100511 L 452.9775847818318,20.706980579898104 L 459.69087527240214,17.90186067098444 L 505.36159413657856,14.866412072183984 L 511.87145164163303,13.291146568444328 L 530.5533866624593,0.6145185107248654 L 535.4357796272362,0.0" fill="none" stroke="#000000" stroke-width="0.7984068985211118"/>
	<path d="M 381.1657189125645,50.076910999947096 L 398.90310674552757,48.29904324883681 L 401.39061908734965,50.19258233277085 L 408.15476801937996,54.50001556978168 L 409.68051591431305,59.69265126948369 L 409.782232361972,72.69654523863285 L 411.20626380924756,80.87432169012496 L 412.69810622162765,84.14591900256384 L 414.6815782785309,85.82031527673946 L 423.02233318180095,87.55252593191153 L 425.66696288602566,87.34080710253863 L 428.464167409241,86.59017677553203 L 432.34634796416856,86.80189180277533 L 436.720158458625,88.32242214743346 L 448.2819365645275,96.48427360737486 L 452.0454480780411,98.46724989433025 L 455.55466832488594,99.6031751184354 L 460.2844862386258,101.99065394919427 L 463.2851239521867,104.89818740799075 L 466.387477818361,108.82659565286367 L 468.99820174500496,110.86798657117987 L 471.8462646395547,112.00427945540811 L 475.30462622003876,112.52428891207273 L 480.6956023711735,112.63984782506441 L 483.3402317803526,113.2176462750718 L 487.7309948685806,115.52892785432823 L 489.2567427635151,119.57400558976906 L 489.86704203950217,123.5039184609684 L 490.1213333061531,127.85811643365169 L 490.8842071061071,132.02011415526692 L 492.4608133723746,137.16543116502638 L 493.0202542770287,141.21279597888892 L 492.7151046390255,144.77868679278782 L 485.7475225166702,169.07414982896492 L 485.67971184659206,173.37567184139468 L 486.61211335431676,178.06353346936268 L 489.561892401499,184.27632066828002 L 492.1556637343893,186.53401303339592 L 494.7494350672618,186.95855098152103 L 496.2751829621949,185.85862099897605 L 497.2923483238276,184.2377288309526 L 501.4118675516331,175.86421828291554 L 502.7341822562399,173.8193543866579 L 504.36164659883326,172.66193279717987 L 506.7180792588071,172.31471313614327 L 509.41356733438414,172.6040628579375 L 524.026841230135,178.21787638296564 L 527.434344439286,178.79666728698965 L 531.1469978764751,179.00889240628058 L 534.7070761996445,178.62302912662273 L 538.7757370561155,177.7548501882944 L 542.7087759823776,176.42368099324918 L 546.3705707532044,174.68744338027093 L 549.3203500954145,172.7390934122216 L 552.1175543236048,170.28932889233295 L 554.2027431231727,167.72399585399174 L 555.8810658371184,164.77311209497498 L 556.7965144560644,161.7646029817574 L 558.6443645827544,149.81004935508213 L 559.8649628396856,145.81960362582353 L 561.6450022962974,142.0223204128141 L 570.4943397328872,128.32053857568076 L 574.3595673990154,123.44612257493576 L 576.0378901129418,121.94346384003963 L 578.1908898776157,120.82613992554346 L 586.9385108665492,118.5338017240242 L 585.3619048953094,126.00848539511779 L 582.6155587434258,131.57691713044778 L 581.4966769341341,136.68363040338653 L 578.9537636775698,173.20205836668805 L 576.6481890939025,180.93826907759248 L 574.2069925800234,186.4375276279874 L 569.324599847271,191.976180118235 L 542.1493350777414,216.9390647530146 L 538.674020608458,219.50771583912908 L 535.5208083709493,220.82107829254923 L 529.1635258195911,222.3276380538079 L 525.501730753735,224.47169159784244 L 521.7890779066001,227.81356614727738 L 516.7880152473559,233.6480641467558 L 514.2451019907901,238.4206543278246 L 513.0245037338601,243.07789075932038 L 512.7702127622356,249.99716441562845 L 511.7530474006043,256.5697121098623 L 512.0073386672552,260.59112710335165 L 512.5667792768636,261.96391956981927 L 513.9908110191669,264.4582752461687 L 523.2639671351545,276.7390898804018 L 525.501730753735,278.80884847273563 L 529.2143838958964,281.6138417024751 L 530.5366988955323,283.4323624737792 L 530.8927066098228,284.7672899883209 L 529.8755412481914,286.12161228539367 L 527.9937856389678,287.49533179100865 L 525.5525888300417,288.36602470483086 L 515.7708498857246,289.19803892935397 L 512.1599134862486,288.90779933562504 L 507.43009498245453,287.16640826509496 L 491.189356744091,278.18984325320247 L 480.44131080949484,274.1665576671431 L 471.23596536356763,272.0970538122127 L 467.9810366784014,271.86496644220347 L 464.30228931381805,270.43379559933715 L 461.0982187049585,267.4169102062213 L 452.96089669698847,250.90565471244605 L 444.0437480002637,225.4568380123791 L 440.17852003910906,217.8274507809823 L 439.05963852484655,214.10023119931031 L 438.9070637058532,210.41199577421725 L 439.11049660117106,207.071651287251 L 438.85620562954654,204.4652276652969 L 437.5338906299121,202.43813294775936 L 435.3978437540361,201.1640146851136 L 433.00750561149005,200.41114623256368 L 427.80301005694724,199.48455971667843 L 424.5989394480863,199.34943433150843 L 421.29315239156784,199.87063474564144 L 417.5804992494065,200.93236085346769 L 414.12213737387543,204.34939085786817 L 403.1706585439628,201.33775531251905 L 400.0174460114264,197.34191484722618 L 398.49169811649466,194.3501350000158 L 396.66080117361116,191.3778896000965 L 390.99858116207184,184.39209675059254 L 387.6419360292467,181.1505061215129 L 383.87842451575096,178.29504790623477 L 380.62349583056556,176.65518547202382 L 377.419425221706,175.6905934779 L 370.38403242925193,174.4559511840142 L 366.97652892509376,173.37567184139468 L 363.9758912115328,171.2152056221289 L 361.33126180233586,167.2032352961849 L 359.29693137411743,162.74812812935662 L 357.0083096792317,158.79489668267337 L 354.2450106385679,155.59404319020413 L 346.8197043542247,149.34736765998872 L 342.70018542144555,144.68230690159723 L 338.56371330484205,141.15497367645946 L 334.49505244836956,138.4374140127849 L 330.7315412299002,136.8763501140062 L 327.4257538783553,136.47164037972152 L 324.3234000121811,138.03268776180022 L 320.6616052413514,142.8318616503596 L 318.55946355298283,149.2316981954107 L 315.91483414378587,153.66594793925216 L 311.69359817329496,156.40387266382615 L 308.64210238342605,159.62407732831252 L 299.31808819113314,173.95438924394597 L 296.26659240126423,176.67447737954066 L 292.3505060687573,179.2982925972018 L 286.8069556887039,178.95101249745878 L 283.3994521845265,178.15999767514805 L 280.53443669620526,176.67447737954066 L 275.44861047810144,172.9127047794096 L 272.65140624991113,171.44667814830453 L 269.95591817435337,171.56241493816395 L 257.78384079246376,179.60698871269653 L 255.39350235490915,180.8610918669069 L 252.5454400503957,182.01876240805953 L 248.7310704605741,182.96421911890494 L 236.35555988835674,191.31999089736934 L 232.59204837484316,192.32357896991718 L 228.47252944206397,190.56731745209962 L 224.38691569681276,189.8146588827554 L 218.94508146937133,189.8725552968625 L 210.24831885179148,193.8290101742829 L 207.43758839931155,193.82901010402702 L 206.21329854608697,186.91965513412367 L 208.43410943082193,184.3724991303834 L 210.6888255397813,186.91965513412367 L 212.31628975203574,186.30214743649879 L 215.35083290693834,184.75842104774975 L 217.43602158265688,184.3724991303834 L 214.5879588011511,180.66784884592533 L 210.48539255426408,176.46196374545102 L 208.97659728288397,173.02814464072878 L 214.1810928300974,171.60069285443893 L 218.26670646489967,169.78752018265442 L 222.28450932321894,165.46711586209022 L 228.62483939500376,156.326444256036 L 229.8793431884727,155.86368338923452 L 231.43899629618255,156.36500757264955 L 232.76131119415896,156.48069887560888 L 233.3037990461922,154.93817884940418 L 233.32075198634817,152.20035962786943 L 233.6767597930297,151.04359348560575 L 234.40572834654878,149.84830558641042 L 235.16860212428404,147.84338959426447 L 235.50765731885338,144.83621316752007 L 235.5415628711202,139.6705911434406 L 238.22009789129885,136.70260125151108 L 243.3906878862633,134.92962626375032 L 246.89990811674497,132.0390827959727 L 244.4926168585679,125.7577203231886 L 281.8564865721589,128.30096987214813 L 290.6041075740976,124.37056453083039 L 293.6556033410836,118.74539168482505 L 295.7238390766585,112.85140531168673 L 298.36846887259213,107.92118458728984 L 303.1491455086453,105.18672630237427 L 309.31994814715364,105.95697682156732 L 313.2190810804989,109.5388435937852 L 316.27057684748485,113.46772753404025 L 319.9662774513715,115.35527604114223 L 328.8834258865785,115.35527604114223 L 331.79929944451237,114.50779352482095 L 332.2061654155647,112.31213158943878 L 332.1044490868328,109.42329449810475 L 333.49457508932636,106.45764769358333 L 345.9039908148494,89.93895443142853 L 360.4494537084603,74.427863994337 L 361.50052451641193,72.27297169921783 L 370.5532948325628,58.96149303181612 L 374.9271054975554,53.53819283981607 L 378.1820342501149,48.923219477301515 L 381.1657189125645,50.076910999947096" fill="none" stroke="#000000" stroke-width="0.7984068985211118"/>
	<path d="M 660.5833644109506,526.7865320921137 L 647.6291050967877,534.8277290344623 L 609.4854086652684,559.8834908637014 L 588.3622774901215,568.577091901574 L 566.6627522545486,573.2561104444864 L 537.1988660485139,584.4491677632336 L 526.111765221003,584.37115588611 L 510.1761763248711,578.2087169370562 L 504.6834837474399,577.5847298227967 L 499.36031925936175,578.8717148537196 L 485.1200060080438,587.4137523136717 L 477.01658984300303,590.3005496544758 L 461.1827176036565,587.9988953837089 L 453.2827344241618,589.2472325398909 L 446.7898295311825,594.9433065826805 L 444.00420453601697,600.2081564562742 L 443.9081263650974,600.0747330142212 L 438.24590635355946,592.2125071623525 L 436.66930008729196,591.2371618544511 L 434.68582773536235,590.2813483039376 L 432.7023559735061,590.6519671234812 L 430.24420627579855,590.7690052586657 L 401.7974854680395,587.2775247883569 L 398.18654877351787,585.6781858431028 L 395.745351964611,583.2403027903196 L 394.5247540026882,580.783079896152 L 394.0670298407387,578.3065206642971 L 394.0670298407387,575.4791561472161 L 394.47389563135516,572.3790535065297 L 395.9996435262883,565.9457096555341 L 397.52539142122276,563.0803078574892 L 400.11916275409385,560.3905410694011 L 410.13824007628176,555.1480076339199 L 416.4107590687626,554.699795605855 L 417.93650696369707,553.2772463595142 L 418.90281424902173,550.3543710744127 L 416.71590870676715,543.9053773216204 L 414.18994863400917,535.334435993258 L 415.8513184591542,534.1463481581104 L 425.97211252400956,529.1217439939342 L 437.8390402679152,531.6534360781083 L 441.483882444972,535.2565275041775 L 446.840952523479,544.762580662333 L 448.06155078042957,546.2042854891944 L 448.9261413230689,545.6392862532432 L 450.3671253640968,545.2496366463722 L 461.8102341335603,537.5938551819318 L 469.04906041136576,531.5950106727495 L 470.7782412016167,530.4654669947503 L 472.3039890965512,529.6475425472408 L 474.13488633444183,528.9464793548183 L 476.1692167626781,527.310716600877 L 478.8138464669028,524.7598491342404 L 482.9333656947084,518.6852083931108 L 486.2052469736461,515.6482610496113 L 489.6636088491579,513.2149894852107 L 500.9032847233036,508.67979655389604 L 504.73460720192315,506.6946077572591 L 507.12494563949696,504.3008446098607 L 508.54897679174474,499.94186755150594 L 508.4981187154189,495.27210296392394 L 506.5655044398152,483.8531093756672 L 507.2266620871367,476.812820709449 L 509.2101344390663,467.5380098337559 L 509.3118505916974,459.50948373612863 L 504.48031593527224,450.6082020120237 L 510.02386661035337,448.52895118734256 L 513.2279369241866,448.33463440895986 L 517.5508890473086,448.5095193286628 L 524.2302741254515,450.04465519194946 L 533.3847612000278,453.6398407347852 L 539.6911856750615,457.2548095056841 L 545.7602717722451,461.80317164474195 L 548.0997515434568,464.09700080689095 L 549.8289326287163,466.5465000260991 L 550.7952396190145,469.3655671460166 L 551.0495308856655,472.6709527490378 L 550.4392316096784,479.8465936999134 L 550.5918064286703,482.91951378433714 L 551.354680228623,485.2924484798874 L 552.8804281235562,487.295945785181 L 554.7113256564745,488.7548710668874 L 556.1353571037693,489.4162691945318 L 560.2887818141264,487.5293701311394 L 562.7130254392268,485.0201366616007 L 564.7982142387962,482.33602852733276 L 567.1376943050163,480.002178706405 L 570.2739539487906,478.54359646922245 L 573.3932604087171,478.71862364266184 L 576.4786616811376,479.7104574800434 L 579.6149213248913,480.0605229554739 L 582.920708086382,478.3296762764594 L 585.4805742317485,473.6431807365438 L 584.5990308003085,468.89894849833803 L 582.513842295767,464.2719597175908 L 583.0224248290687,464.1553204652458 L 586.0739206189362,463.4554922842824 L 592.8380692559401,463.39717372184026 L 597.6356987248402,464.3497197604406 L 602.0603672956224,466.2548845989778 L 619.7251369812587,480.7023181053067 L 624.5566719327117,482.8222654928494 L 629.8459310461142,483.42520845834383 L 636.5761744955901,482.53052248286775 L 641.8145752376595,480.8773550991052 L 646.6969685604647,478.3296762764594 L 651.7997473723209,472.65150829268083 L 654.1392274385424,468.4712191993384 L 655.4615421431505,464.29139945936447 L 658.0553134760216,441.22334384369515 L 659.88621100894,438.289846077037 L 663.0394232464665,436.5415131335549 L 669.8205247722697,438.1732877513562 L 680.8567677510948,442.4084650743919 L 687.5870109055456,443.10789818851373 L 692.503309710886,441.8644705320798 L 692.6716236548468,441.8219014637838 L 692.2487534810549,450.19981208619873 L 690.2822340742681,460.1506211056318 L 690.112706312941,469.1708381340909 L 694.8933829489654,475.8985438052784 L 699.0298550761712,479.1267184772663 L 699.9453036750419,481.81059540815914 L 699.7418706895261,485.15598865025805 L 700.4538863028795,490.44699190197093 L 704.047869921929,497.6844372421081 L 704.8276966398174,501.38152595892444 L 702.725555352032,504.6119158448992 L 698.9620439716637,506.48022097348496 L 690.2822340742681,509.04929395985005 L 686.281384156087,510.83996553482797 L 660.5833644109506,526.7865320921137" fill="none" stroke="#000000" stroke-width="0.7984068985211118"/>
	<path d="M 745.6852068853739,357.49329495312173 L 745.6668810316219,358.97810420637336 L 747.9215971405908,367.93516443148184 L 752.6005574478943,373.75258244904984 L 747.2434870795247,377.43741370864575 L 746.7349044516775,383.29510152802504 L 746.8027155561946,389.5029221602844 L 743.107014952308,394.19826924297365 L 717.847411649936,401.99927961011707 L 708.3199639301334,409.53015570999895 L 702.9967994420554,418.926467506259 L 698.8433747027661,429.568118439336 L 692.7234305566229,440.7956289646562 L 692.6716236548468,441.8219014637838 L 692.503309710886,441.8644705320798 L 687.5870109055456,443.10789818851373 L 680.8567677510948,442.4084650743919 L 669.8205247722697,438.1732877513562 L 663.0394232464665,436.5415131335549 L 659.88621100894,438.289846077037 L 658.0553134760216,441.22334384369515 L 655.4615421431505,464.29139945936447 L 654.1392274385424,468.4712191993384 L 651.7997473723209,472.65150829268083 L 646.6969685604647,478.3296762764594 L 641.8145752376595,480.8773550991052 L 636.5761744955901,482.53052248286775 L 629.8459310461142,483.42520845834383 L 624.5566719327117,482.8222654928494 L 619.7251369812587,480.7023181053067 L 602.0603672956224,466.2548845989778 L 597.6356987248402,464.3497197604406 L 592.8380692559401,463.39717372184026 L 586.0739206189362,463.4554922842824 L 583.0224248290687,464.1553204652458 L 582.513842295767,464.2719597175908 L 584.5990308003085,468.89894849833803 L 585.4805742317485,473.6431807365438 L 582.920708086382,478.3296762764594 L 579.6149213248913,480.0605229554739 L 576.4786616811376,479.7104574800434 L 573.3932604087171,478.71862364266184 L 570.2739539487906,478.54359646922245 L 567.1376943050163,480.002178706405 L 564.7982142387962,482.33602852733276 L 562.7130254392268,485.0201366616007 L 560.2887818141264,487.5293701311394 L 556.1353571037693,489.4162691945318 L 554.7113256564745,488.7548710668874 L 552.8804281235562,487.295945785181 L 551.354680228623,485.2924484798874 L 550.5918064286703,482.91951378433714 L 550.4392316096784,479.8465936999134 L 551.0495308856655,472.6709527490378 L 550.7952396190145,469.3655671460166 L 549.8289326287163,466.5465000260991 L 548.0997515434568,464.09700080689095 L 545.7602717722451,461.80317164474195 L 539.6911856750615,457.2548095056841 L 533.3847612000278,453.6398407347852 L 524.2302741254515,450.04465519194946 L 517.5508890473086,448.5095193286628 L 513.2279369241866,448.33463440895986 L 510.02386661035337,448.52895118734256 L 504.48031593527224,450.6082020120237 L 495.15630115290463,457.70184631009727 L 491.95223083907285,461.9781197800852 L 483.40804274545854,463.20277939881623 L 475.9318780897987,465.6522197956863 L 467.3876902912122,471.1737711792451 L 459.3690376196812,476.07386167600345 L 453.48643211907034,477.901838904652 L 447.0782909013498,474.8487788953581 L 439.07659111861807,477.901838904652 L 437.4660796648254,484.0476116051909 L 437.4660796648254,489.5524409579717 L 432.6514976021538,490.7780086048756 L 426.24335638443335,491.4005348821831 L 419.83521575676707,495.0775423207295 L 416.6311451479075,488.94939894513243 L 413.9695625548835,484.0476116051909 L 409.1549804922312,482.19988319446134 L 404.88288644541444,479.7493534436739 L 404.28954005822527,477.026732518064 L 399.4071470304657,454.02853027687456 L 394.47389563135516,445.0896969629038 L 402.7468395695385,435.04578214962413 L 394.7281868980061,426.4804772582428 L 387.7436521818792,425.52889819225857 L 382.81040107779376,406.482988905609 L 382.3526766208179,403.20286883010544 L 382.7595427064607,399.3020349341899 L 374.30011876176025,350.72119184214836 L 373.4355282191209,347.87229204288593 L 372.2657880384962,346.24444613819145 L 369.6211583342729,345.08174216606756 L 368.85828453433663,343.647790350669 L 368.29884392471035,341.7101045121817 L 367.63768627738887,340.1600274454991 L 365.5524977728459,339.2687624940693 L 364.68790693517883,338.3000198842109 L 363.7216002399083,336.71133609639566 L 361.8398443356376,334.5415342630735 L 360.7718208976996,332.15877172565416 L 360.16152162171255,328.9432493819638 L 361.0261121643519,323.4038980333821 L 360.67010445004075,319.7243591302862 L 361.0261121643519,316.200085650953 L 361.7889862593324,313.00528661765003 L 363.00958451628014,309.4235618243918 L 364.5353324112146,306.268053801848 L 366.36622964910526,304.3129326623212 L 368.90914261064466,303.9645058028633 L 373.0795202098025,302.29984437020875 L 376.30054370744216,300.53848050898637 L 394.0670298407387,284.0127601075711 L 397.3219585259049,278.8862244170229 L 398.33912359250985,276.971206490858 L 401.0854697443921,272.59991320724356 L 402.66207601065963,270.89795352905094 L 416.9702002684458,260.1270958974363 L 419.5639716013169,257.03369972576854 L 421.08971949625135,253.22530308792813 L 421.03886082989055,247.36846486221535 L 416.5124758114493,236.33377994818258 L 414.7832950212162,230.73070286891968 L 413.76612965958486,228.41243062593486 L 412.59638947896156,226.3261061732827 L 409.9856655523162,222.61736824598145 L 408.91764181933263,217.07425265708872 L 414.12213737387543,204.34939085786817 L 417.5804992494065,200.93236085346769 L 421.29315239156784,199.87063474564144 L 424.5989394480863,199.34943433150843 L 427.80301005694724,199.48455971667843 L 433.00750561149005,200.41114623256368 L 435.3978437540361,201.1640146851136 L 437.5338906299121,202.43813294775936 L 438.85620562954654,204.4652276652969 L 439.11049660117106,207.071651287251 L 438.9070637058532,210.41199577421725 L 439.05963852484655,214.10023119931031 L 440.17852003910906,217.8274507809823 L 444.0437480002637,225.4568380123791 L 452.96089669698847,250.90565471244605 L 461.0982187049585,267.4169102062213 L 464.30228931381805,270.43379559933715 L 467.9810366784014,271.86496644220347 L 471.23596536356763,272.0970538122127 L 480.44131080949484,274.1665576671431 L 491.189356744091,278.18984325320247 L 507.43009498245453,287.16640826509496 L 512.1599134862486,288.90779933562504 L 515.7708498857246,289.19803892935397 L 525.5525888300417,288.36602470483086 L 527.9937856389678,287.49533179100865 L 529.8755412481914,286.12161228539367 L 530.8927066098228,284.7672899883209 L 530.5366988955323,283.4323624737792 L 529.2143838958964,281.6138417024751 L 525.501730753735,278.80884847273563 L 523.2639671351545,276.7390898804018 L 513.9908110191669,264.4582752461687 L 512.5667792768636,261.96391956981927 L 512.0073386672552,260.59112710335165 L 511.7530474006043,256.5697121098623 L 524.8405731064136,253.57326229118513 L 533.3847612000278,248.7794352751293 L 552.2701291425968,232.5661022652282 L 555.8302077607925,230.13180248823315 L 558.1696875320042,229.37835996347886 L 559.966679582371,230.86593987676397 L 561.5941439249644,233.41621219088015 L 563.0690334485453,237.12600577107713 L 563.1707498962041,240.9714352121312 L 562.0010100106073,246.03485613497108 L 552.5752787805999,267.6876463251601 L 549.2694917240815,273.663677443019 L 548.5066179241261,276.04274826161037 L 549.6763578097243,278.80884847273563 L 552.5752787805999,280.54985411151694 L 557.2542389130417,282.23290299466356 L 559.915821211038,284.2449213877547 L 564.7473561624716,290.8040722456232 L 566.9342614097178,291.81029597774966 L 568.6634421999509,290.82342227433827 L 569.7314656379081,289.1206415311935 L 570.8503477422055,287.8049090149802 L 572.8338195040823,287.05031847088793 L 576.2413233032861,286.99227353920605 L 580.1743619345203,287.43728583886275 L 585.5144797143014,288.59821273654705 L 587.9556762281792,289.8172241607043 L 589.3288493041217,291.17172785408485 L 591.1258413544884,291.69419191002885 L 591.1088884657057,291.73289322627244 L 590.6003056373775,299.4352504097501 L 591.3631797323593,314.9608584918172 L 590.7528804563694,322.62922802462924 L 589.0236996661185,328.2072048633802 L 586.3282115905621,332.4880872673739 L 582.0391652450168,336.61446685947396 L 582.76813326739,337.75753495903444 L 582.6155587434258,339.11376177080945 L 582.81899193377,340.39253540531854 L 584.0904482670259,342.87270423716916 L 586.3790702569202,343.45401740893135 L 600.9923438576652,342.40766010190583 L 606.2307448947597,343.1246055308276 L 621.1491684285343,347.8529123578315 L 625.5738369993153,348.1629861568899 L 641.7128590850283,347.32966868461483 L 645.4763703035155,347.62035893989173 L 648.7312992837274,347.4653237898981 L 651.6810783309096,346.690158979185 L 656.5804242474479,344.1516053466682 L 659.1741955803396,343.53152680302964 L 662.1748327038285,343.5702813913843 L 672.5160128478261,346.5932643751597 L 682.2807989033439,350.58552498606934 L 687.5191999404411,353.6672198663101 L 691.0962311524098,356.90424097221785 L 694.7580259232188,364.65871915534393 L 697.3517972561106,368.59472987542165 L 701.8273241982259,373.05474769828606 L 704.2685210071314,374.7031493994788 L 707.3369693907526,375.40131767683994 L 708.9644334383197,374.8001165605707 L 715.0674250180534,369.0019267950486 L 718.271495626913,367.41194413992383 L 727.4429355902695,364.63933080856236 L 729.4772660185057,363.4178949331026 L 737.2585800171396,357.4857712071376 L 738.6826111694065,356.78793573569936 L 740.106642616682,356.5165590379118 L 745.5315239553229,357.46638656350626 L 745.6852068853739,357.49329495312173" fill="none" stroke="#000000" stroke-width="0.7984068985211118"/>
	<path d="M 166.8266772721326,261.0096765362588 L 169.52753889355387,260.126793684843 L 172.7994205862405,257.34272591873406 L 172.25693240616351,253.01236074771745 L 170.20564928272137,244.31446113255268 L 170.3751767159883,240.7199119953944 L 172.56208204845646,237.39622383383775 L 175.86786896536887,235.42533696517322 L 179.22451437468484,234.1501119574126 L 181.59790008061296,232.8362881604614 L 200.3815511021096,209.8131135466592 L 207.80685753412385,195.91325044092667 L 207.43758839931155,193.82901010402702 L 210.24831885179148,193.8290101742829 L 218.94508146937133,189.8725552968625 L 224.38691569681276,189.8146588827554 L 228.47252944206397,190.56731745209962 L 232.59204837484316,192.32357896991718 L 236.35555988835674,191.31999089736934 L 248.7310704605741,182.96421911890494 L 252.5454400503957,182.01876240805953 L 255.39350235490915,180.8610918669069 L 257.78384079246376,179.60698871269653 L 269.95591817435337,171.56241493816395 L 272.65140624991113,171.44667814830453 L 275.44861047810144,172.9127047794096 L 280.53443669620526,176.67447737954066 L 283.3994521845265,178.15999767514805 L 286.8069556887039,178.95101249745878 L 292.3505060687573,179.2982925972018 L 296.26659240126423,176.67447737954066 L 299.31808819113314,173.95438924394597 L 308.64210238342605,159.62407732831252 L 311.69359817329496,156.40387266382615 L 315.91483414378587,153.66594793925216 L 318.55946355298283,149.2316981954107 L 320.6616052413514,142.8318616503596 L 324.3234000121811,138.03268776180022 L 327.4257538783553,136.47164037972152 L 330.7315412299002,136.8763501140062 L 334.49505244836956,138.4374140127849 L 338.56371330484205,141.15497367645946 L 342.70018542144555,144.68230690159723 L 346.8197043542247,149.34736765998872 L 354.2450106385679,155.59404319020413 L 357.0083096792317,158.79489668267337 L 359.29693137411743,162.74812812935662 L 361.33126180233586,167.2032352961849 L 363.9758912115328,171.2152056221289 L 366.97652892509376,173.37567184139468 L 370.38403242925193,174.4559511840142 L 377.419425221706,175.6905934779 L 380.62349583056556,176.65518547202382 L 383.87842451575096,178.29504790623477 L 387.6419360292467,181.1505061215129 L 390.99858116207184,184.39209675059254 L 396.66080117361116,191.3778896000965 L 398.49169811649466,194.3501350000158 L 400.0174460114264,197.34191484722618 L 403.1706585439628,201.33775531251905 L 414.12213737387543,204.34939085786817 L 408.91764181933263,217.07425265708872 L 409.9856655523162,222.61736824598145 L 412.59638947896156,226.3261061732827 L 413.76612965958486,228.41243062593486 L 414.7832950212162,230.73070286891968 L 416.5124758114493,236.33377994818258 L 421.03886082989055,247.36846486221535 L 421.08971949625135,253.22530308792813 L 419.5639716013169,257.03369972576854 L 416.9702002684458,260.1270958974363 L 402.66207601065963,270.89795352905094 L 401.0854697443921,272.59991320724356 L 398.33912359250985,276.971206490858 L 397.3219585259049,278.8862244170229 L 394.0670298407387,284.0127601075711 L 384.4887234966938,268.8479669286449 L 383.06469234444603,268.32581820331865 L 381.2846531828593,267.88103045319605 L 380.52177908788025,269.19607008211295 L 379.4028975736356,270.3564369468097 L 378.131440945352,271.226735199816 L 371.04518978156625,273.7023599632041 L 368.5022768200282,274.97891744336033 L 366.3153715727986,276.7390898804018 L 362.55186005928505,281.43973256198586 L 351.9563889436808,289.75917497728454 L 344.378508135372,297.4030688863304 L 341.0727207838271,299.4352504097501 L 338.56371330484205,298.81590743127487 L 336.52938258157803,296.6095801740418 L 335.5122178100009,293.82282488923636 L 335.2579262483222,290.3977195549162 L 335.9699419719696,282.1361739362484 L 335.9699419719696,278.3059058336271 L 335.6647923339843,274.8048388553984 L 333.2744538964118,264.14888876170016 L 332.20643045845463,261.05516399644057 L 330.7315412299002,258.7930376464309 L 329.00236014462286,258.7157024457658 L 326.9680297163852,260.7458056600962 L 320.86503813665144,269.8922856609604 L 318.00002264834797,273.1994855745353 L 311.18501563999183,278.59606434848126 L 304.98030790764335,282.0007537376867 L 301.4032766956747,283.335630682017 L 291.68934871646354,285.2896654736301 L 287.7732623839566,284.7285958076973 L 284.77262526046906,283.6258271368066 L 264.9209500325754,271.8262854645066 L 259.6147383254,270.0083231168437 L 255.95294355457173,269.5635155873067 L 252.59629812672023,269.6602124900003 L 246.57807069589884,271.0720141368124 L 244.13687388699196,272.2324382080279 L 242.3568347254066,273.7023599632041 L 241.23795321114412,275.7912946705617 L 240.67851201148153,278.07378102906335 L 239.86478013522083,280.54985411151694 L 238.18645742127515,282.29094027922815 L 233.30406409848916,283.2002061854945 L 227.9639466137358,281.2075885133829 L 218.23306604076956,279.2344199776134 L 213.19809819400015,276.8358051299051 L 204.99296492589502,270.89795352905094 L 202.3991938880517,270.25973792803853 L 200.11057219316456,271.36211648075107 L 196.29620260334292,276.62303210950114 L 193.04127391817673,279.46655224530286 L 189.05737662056384,281.2075885133829 L 181.68292841254646,282.3683236883853 L 177.97027527038375,282.02009925823324 L 174.91877948051618,280.54985411151694 L 173.44389025196173,278.34459343961976 L 172.5623468205231,276.13946173004695 L 172.5284413379701,274.4180004550326 L 172.73187452831434,273.23816795654017 L 174.30848049955546,269.08003511739594 L 174.2067640519144,268.05507718175824 L 173.64732314726172,267.22352845007885 L 172.35891392522444,266.4886857796463 L 170.73144958263106,266.0052449320507 L 169.45999295434885,265.2704265901832 L 168.5445443354042,264.4582752461687 L 167.06965451677638,261.6158829287621 L 166.8266772721326,261.0096765362588" fill="none" stroke="#000000" stroke-width="0.7984068985211118"/>
	<path d="M 112.43066400729852,341.0703876793426 L 114.1937501005517,339.48158651579854 L 115.58387610304663,332.7396165299205 L 119.21176527436283,326.8898054940715 L 132.8417795691304,311.97883380320644 L 135.01173196144262,310.3525392950651 L 136.30014130715088,308.1068192180075 L 136.77481838274778,303.3447859336307 L 135.8254642315814,300.40269221276947 L 133.89285037705463,298.0801480237423 L 132.57053547907682,295.9125699680948 L 133.35036219694746,293.3193801272154 L 136.30014130715088,290.9198711539751 L 139.31773152188788,289.91367053570167 L 142.3692272889027,288.2496287228384 L 145.5563452649792,283.9157240992336 L 146.370077207066,280.54955200897325 L 147.01428171590373,271.8453238123062 L 147.99754174737242,268.82832579814175 L 153.4393755043371,265.3861473230509 L 166.8266772721326,261.0096765362588 L 167.06965451677638,261.6158829287621 L 168.5445443354042,264.4582752461687 L 169.45999295434885,265.2704265901832 L 170.73144958263106,266.0052449320507 L 172.35891392522444,266.4886857796463 L 173.64732314726172,267.22352845007885 L 174.2067640519144,268.05507718175824 L 174.30848049955546,269.08003511739594 L 172.73187452831434,273.23816795654017 L 172.5284413379701,274.4180004550326 L 172.5623468205231,276.13946173004695 L 173.44389025196173,278.34459343961976 L 174.91877948051618,280.54985411151694 L 177.97027527038375,282.02009925823324 L 181.68292841254646,282.3683236883853 L 189.05737662056384,281.2075885133829 L 193.04127391817673,279.46655224530286 L 196.29620260334292,276.62303210950114 L 200.11057219316456,271.36211648075107 L 202.3991938880517,270.25973792803853 L 204.99296492589502,270.89795352905094 L 213.19809819400015,276.8358051299051 L 218.23306604076956,279.2344199776134 L 227.9639466137358,281.2075885133829 L 233.30406409848916,283.2002061854945 L 238.18645742127515,282.29094027922815 L 239.86478013522083,280.54985411151694 L 240.67851201148153,278.07378102906335 L 241.23795321114412,275.7912946705617 L 242.3568347254066,273.7023599632041 L 244.13687388699196,272.2324382080279 L 246.57807069589884,271.0720141368124 L 252.59629812672023,269.6602124900003 L 255.95294355457173,269.5635155873067 L 259.6147383254,270.0083231168437 L 264.9209500325754,271.8262854645066 L 284.77262526046906,283.6258271368066 L 287.7732623839566,284.7285958076973 L 291.68934871646354,285.2896654736301 L 301.4032766956747,283.335630682017 L 304.98030790764335,282.0007537376867 L 311.18501563999183,278.59606434848126 L 318.00002264834797,273.1994855745353 L 320.86503813665144,269.8922856609604 L 326.9680297163852,260.7458056600962 L 329.00236014462286,258.7157024457658 L 330.7315412299002,258.7930376464309 L 332.20643045845463,261.05516399644057 L 333.2744538964118,264.14888876170016 L 335.6647923339843,274.8048388553984 L 335.9699419719696,278.3059058336271 L 335.9699419719696,282.1361739362484 L 335.2579262483222,290.3977195549162 L 335.5122178100009,293.82282488923636 L 336.52938258157803,296.6095801740418 L 338.56371330484205,298.81590743127487 L 341.0727207838271,299.4352504097501 L 344.378508135372,297.4030688863304 L 351.9563889436808,289.75917497728454 L 362.55186005928505,281.43973256198586 L 366.3153715727986,276.7390898804018 L 368.5022768200282,274.97891744336033 L 371.04518978156625,273.7023599632041 L 378.131440945352,271.226735199816 L 379.4028975736356,270.3564369468097 L 380.52177908788025,269.19607008211295 L 381.2846531828593,267.88103045319605 L 383.06469234444603,268.32581820331865 L 384.4887234966938,268.8479669286449 L 394.0670298407387,284.0127601075711 L 376.30054370744216,300.53848050898637 L 373.0795202098025,302.29984437020875 L 368.90914261064466,303.9645058028633 L 366.36622964910526,304.3129326623212 L 364.5353324112146,306.268053801848 L 363.00958451628014,309.4235618243918 L 361.7889862593324,313.00528661765003 L 361.0261121643519,316.200085650953 L 360.67010445004075,319.7243591302862 L 361.0261121643519,323.4038980333821 L 360.16152162171255,328.9432493819638 L 360.7718208976996,332.15877172565416 L 361.8398443356376,334.5415342630735 L 363.7216002399083,336.71133609639566 L 364.68790693517883,338.3000198842109 L 365.5524977728459,339.2687624940693 L 367.63768627738887,340.1600274454991 L 368.29884392471035,341.7101045121817 L 368.85828453433663,343.647790350669 L 369.6211583342729,345.08174216606756 L 372.2657880384962,346.24444613819145 L 373.4355282191209,347.87229204288593 L 374.30011876176025,350.72119184214836 L 382.7595427064607,399.3020349341899 L 382.3526766208179,403.20286883010544 L 382.81040107779376,406.482988905609 L 387.7436521818792,425.52889819225857 L 374.43574069197075,423.41220680382986 L 366.95957603629444,423.41220680382986 L 356.8048761938597,422.79081535911985 L 348.786223817355,425.2570227181928 L 346.1246415193766,428.9275069043495 L 352.5327827371163,432.59835153517764 L 357.3304119109693,441.1650603915188 L 358.9409233647812,448.5095193286628 L 360.5514351136017,455.2529286110129 L 360.5514351136017,458.92636534997473 L 369.6211583342729,459.52892099245435 L 376.5717878628937,457.70184631009727 L 380.3013935988087,458.92636534997473 L 377.09732298994777,466.27432537594024 L 378.7078344437419,472.39873365355703 L 381.3694170367659,479.12702256818346 L 381.3694170367659,481.5969600963919 L 374.43574069197075,481.5969600963919 L 368.5531348963335,484.6505741028277 L 369.6211583342729,490.1749467051289 L 369.6211583342729,498.7549130743823 L 364.28104084953594,504.88467493003105 L 355.73685305094807,507.33686283137484 L 352.9735543053121,499.0078676602573 L 349.71862532510033,496.24492214280633 L 348.65060188716234,493.73510046868427 L 346.15854700193097,490.7196475338196 L 342.0898861454584,488.5797969823829 L 327.27317905936195,486.53732737622886 L 322.0856363935992,485.0006860871703 L 314.89766878215454,479.5354259778475 L 307.5740789454894,476.0544157797879 L 265.27695833693934,467.8879604776603 L 258.24156524945886,465.4966947708797 L 245.35747243896753,465.39949234083593 L 217.9279164027664,469.3655671460166 L 214.2152632606037,467.47968487705697 L 213.70668043227553,464.8551621360438 L 216.24959368884134,461.72541725685517 L 219.4536642977009,458.53762471686423 L 221.13198701162597,454.145138166698 L 220.87769544994867,448.8009959048909 L 204.94210684958972,422.6937241539598 L 201.53460334541234,420.07235021058585 L 198.1270998412528,419.3345154319528 L 187.7350616209472,419.6840144786515 L 180.00460569862,417.7035633162904 L 176.2919525564573,414.32538928586314 L 174.91877948051618,410.36515983304764 L 175.12221296588817,401.80550847913844 L 174.25762242324882,398.7392611784629 L 172.66406356320977,398.29292988835607 L 170.73144958263106,399.5543153614049 L 165.0861824598924,406.69649817677765 L 163.6621510126182,407.9193454192519 L 161.78039540337392,408.98694326147245 L 153.11753797330005,411.51047717207865 L 149.96432603082053,411.5298894494001 L 147.42141277425472,411.16105452477063 L 142.48816137514422,409.72457386921235 L 140.14868160395042,408.09404119375233 L 138.6737917853226,405.7260125970294 L 138.57207533766368,403.0476037672144 L 137.91091798536993,399.6707529771556 L 136.28345334774878,395.4210110550743 L 127.92574585072641,385.9530020928477 L 125.58626578448701,381.9957721987005 L 124.31480915620479,378.3492835197489 L 120.24614829973228,371.1543274022984 L 119.22898293810096,368.01302722043965 L 118.21181757646963,361.4985757873405 L 116.78778642422184,358.3774685445455 L 115.0925111165417,356.8073200292136 L 113.10903876461073,355.8381253642443 L 110.87127544107585,355.4116875923927 L 109.19295272713157,355.48922131136186 L 105.58201603262916,356.2451839632565 L 98.61443450030879,354.61697569237805 L 97.81034468257718,354.4267638235485 L 98.52940562253501,353.66691699243654 L 100.69935801486643,350.33327085779393 L 102.32682255514403,346.37979430227057 L 102.9710270639804,342.0779545879938 L 104.7341134852595,340.7216206628987 L 112.43066400729852,341.0703876793426" fill="none" stroke="#000000" stroke-width="0.7984068985211118"/>
	<path d="M 27.463461246942753,389.8133398336562 L 28.95530357815865,388.76568946133233 L 39.5677276581892,377.5537828520392 L 41.33081375141493,376.35132061659306 L 50.58701770924325,372.62781134562283 L 60.2161817577763,371.6194243221975 L 63.53892161481586,370.37837029520637 L 69.40457428300806,367.15957695601816 L 78.6268723605176,365.2594552384861 L 85.61140726920175,362.3125179872702 L 96.29164212565901,356.0316594436728 L 97.81034468257718,354.4267638235485 L 98.61443450030879,354.61697569237805 L 105.58201603262916,356.2451839632565 L 109.19295272713157,355.48922131136186 L 110.87127544107585,355.4116875923927 L 113.10903876461073,355.8381253642443 L 115.0925111165417,356.8073200292136 L 116.78778642422184,358.3774685445455 L 118.21181757646963,361.4985757873405 L 119.22898293810096,368.01302722043965 L 120.24614829973228,371.1543274022984 L 124.31480915620479,378.3492835197489 L 125.58626578448701,381.9957721987005 L 127.92574585072641,385.9530020928477 L 136.28345334774878,395.4210110550743 L 137.91091798536993,399.6707529771556 L 138.57207533766368,403.0476037672144 L 138.6737917853226,405.7260125970294 L 140.14868160395042,408.09404119375233 L 142.48816137514422,409.72457386921235 L 147.42141277425472,411.16105452477063 L 149.96432603082053,411.5298894494001 L 153.11753797330005,411.51047717207865 L 161.78039540337392,408.98694326147245 L 163.6621510126182,407.9193454192519 L 165.0861824598924,406.69649817677765 L 170.73144958263106,399.5543153614049 L 172.66406356320977,398.29292988835607 L 174.25762242324882,398.7392611784629 L 175.12221296588817,401.80550847913844 L 174.91877948051618,410.36515983304764 L 176.2919525564573,414.32538928586314 L 180.00460569862,417.7035633162904 L 187.7350616209472,419.6840144786515 L 198.1270998412528,419.3345154319528 L 201.53460334541234,420.07235021058585 L 204.94210684958972,422.6937241539598 L 220.87769544994867,448.8009959048909 L 221.13198701162597,454.145138166698 L 219.4536642977009,458.53762471686423 L 216.24959368884134,461.72541725685517 L 213.70668043227553,464.8551621360438 L 214.2152632606037,467.47968487705697 L 217.9279164027664,469.3655671460166 L 245.35747243896753,465.39949234083593 L 258.24156524945886,465.4966947708797 L 265.27695833693934,467.8879604776603 L 307.5740789454894,476.0544157797879 L 314.89766878215454,479.5354259778475 L 322.0856363935992,485.0006860871703 L 327.27317905936195,486.53732737622886 L 342.0898861454584,488.5797969823829 L 346.15854700193097,490.7196475338196 L 348.65060188716234,493.73510046868427 L 349.71862532510033,496.24492214280633 L 352.9735543053121,499.0078676602573 L 346.1246415193766,503.0359103023573 L 345.58215320849547,511.63831453723583 L 340.78452403462325,510.41205786082116 L 332.2233833472539,507.9402038293788 L 323.6791955486674,502.43264867654653 L 315.6774954709065,502.43264867654653 L 307.1163544884929,502.43264867654653 L 301.776237298766,496.30329189379427 L 295.910584391928,492.6261634829464 L 292.1640257672123,497.5290822556776 L 291.09600232927437,506.7140696944696 L 288.9599551583528,512.241725144684 L 285.23034942241856,506.7140696944696 L 279.3477436267813,499.3581149512708 L 273.4651381261897,498.7549130743823 L 275.07564957998375,506.7140696944696 L 274.0076264370722,511.63831453723583 L 268.66750895231746,517.7702043561486 L 261.71687971874223,519.6002346717999 L 254.24071535809233,515.317326437131 L 248.90059787333897,510.41205786082116 L 242.49245695064624,514.090948818781 L 239.81392176386856,520.2232442019259 L 235.0162922949686,521.4498249910396 L 229.48969450866892,521.6834645447818 L 226.26867130605567,524.0199359985716 L 222.60687624019963,525.5387213469264 L 219.50452237400754,525.5387213469264 L 216.1987356125333,523.4163330207058 L 214.01183007025946,521.1383091189773 L 212.02835801337548,518.529461574723 L 207.3324452871622,511.1127709987607 L 204.4335243162866,509.4194036806454 L 200.31400508848103,508.8938919090364 L 193.29556488980123,509.6529667817041 L 189.05737662056384,509.26369576334673 L 185.9550224593632,507.5509504389146 L 184.48013293576315,505.50743737057496 L 183.46296757413046,504.6316806412997 L 182.8018102218367,504.8068304019473 L 181.22520395556916,510.8402697973201 L 180.56404660325484,512.5726319793175 L 179.6485979843102,514.2077448917752 L 178.27542490836908,515.726128326838 L 176.4953860418293,517.2445739283123 L 174.81706332788502,518.3931834758854 L 173.49474832826837,519.5028902619099 L 172.93530742363217,520.6905086436749 L 172.4267248903304,522.6764467052981 L 171.54518145889176,524.6430194769641 L 170.62973283994575,526.0449966230783 L 156.94886045192095,539.7365349901091 L 156.13512828061604,540.8079215745278 L 155.42311255698786,542.0351841923524 L 154.08384496359832,545.0548132121634 L 153.11753797330005,546.3406659545666 L 151.59179037341255,547.5486286818336 L 149.35402704985984,548.3669480739093 L 146.3533893362989,550.0231268873404 L 144.5224918033805,550.2374609627411 L 142.13215336580666,549.6529152692397 L 135.09676086839957,542.9507877873285 L 126.70514759377726,536.8731634285966 L 125.58626578448701,535.6850262225951 L 125.12854162253612,534.8085563645114 L 122.58562836597169,529.004900583144 L 121.41588818534701,525.3050578287679 L 120.50043956638316,521.0993694378517 L 119.78842413778277,515.7845290614232 L 119.78842413778277,509.30262268141325 L 120.7038727567274,502.37426929069363 L 121.61932137567341,499.0078676602573 L 127.26458820338569,483.42520845834383 L 127.36630494607238,481.013495590304 L 125.84055705113789,478.95199381146443 L 122.89077800395563,478.13520394920636 L 117.95752660484513,479.06867978339034 L 114.83821955486304,481.4802665305361 L 113.05818068830546,483.42520845834383 L 110.82041706972495,485.23409602127407 L 107.92149609884935,486.24555487489994 L 101.25906390950574,486.7512951295781 L 98.64833998286177,485.89543150544455 L 96.71572570725803,484.7089259840847 L 95.1391197360169,484.35881708569696 L 92.79963966977749,485.17574331575514 L 83.49257777620917,492.3537979274499 L 60.87760380267956,503.2110521953205 L 55.50542792152401,505.27935715191376 L 28.412815726133655,440.7956289646562 L 28.37890984583271,440.7956289646562 L 28.37890984583271,440.7567739485197 L 25.58170555676752,435.16202697572874 L 16.02035228469962,420.75164503408195 L 11.646541947750771,416.86839559537145 L 7.340542387304117,414.46098349539665 L 2.6446294678995046,410.6560354441955 L 0.0,409.3748647815301 L 4.034755470393067,400.0585778868085 L 4.1703773513931806,394.00423508898234 L 6.645479386025772,390.47298677442984 L 10.103841124102503,390.47298677442984 L 13.189242443385472,394.9356088725649 L 15.42700594023265,392.1027521483693 L 17.93601352713204,386.04969476255445 L 19.69909962035777,384.45898954829664 L 22.920123148702448,384.3813957891155 L 23.937288404358494,386.321285712032 L 24.78492589871348,388.64928550586126 L 27.463461246942753,389.8133398336562" fill="none" stroke="#000000" stroke-width="0.7984068985211118"/>
	<path d="M 356.8048761938597,422.79081535911985 L 366.95957603629444,423.41220680382986 L 374.43574069197075,423.41220680382986 L 387.7436521818792,425.52889819225857 L 394.7281868980061,426.4804772582428 L 402.7468395695385,435.04578214962413 L 394.47389563135516,445.0896969629038 L 399.4071470304657,454.02853027687456 L 404.28954005822527,477.026732518064 L 404.88288644541444,479.7493534436739 L 409.1549804922312,482.19988319446134 L 413.9695625548835,484.0476116051909 L 416.6311451479075,488.94939894513243 L 419.83521575676707,495.0775423207295 L 426.24335638443335,504.88467493003105 L 428.92189157121106,512.241725144684 L 425.7178212573587,515.9207975739256 L 422.5137506484991,520.2232442019259 L 417.6991685858455,516.5437456249294 L 412.9015391169455,512.241725144684 L 408.086957054274,506.1107486290635 L 399.5427689606597,501.20669644751433 L 390.45609314623493,499.98078469522636 L 382.9799284905586,499.3581149512708 L 369.6211583342729,498.7549130743823 L 369.6211583342729,490.1749467051289 L 368.5531348963335,484.6505741028277 L 374.43574069197075,481.5969600963919 L 381.3694170367659,481.5969600963919 L 381.3694170367659,479.12702256818346 L 378.7078344437419,472.39873365355703 L 377.09732298994777,466.27432537594024 L 380.3013935988087,458.92636534997473 L 376.5717878628937,457.70184631009727 L 369.6211583342729,459.52892099245435 L 360.5514351136017,458.92636534997473 L 360.5514351136017,455.2529286110129 L 358.9409233647812,448.5095193286628 L 357.3304119109693,441.1650603915188 L 352.5327827371163,432.59835153517764 L 346.1246415193766,428.9275069043495 L 348.786223817355,425.2570227181928 L 356.8048761938597,422.79081535911985" fill="none" stroke="#000000" stroke-width="0.7984068985211118"/>
	<path d="M 104.93754647080418,585.6973847660668 L 101.90300364395358,584.4881739523403 L 97.85129556142086,578.2087169370562 L 95.6474372887885,572.9051634383823 L 91.20581584730468,555.011289963784 L 86.52685586806426,547.4119394610182 L 70.79470028550162,534.1265674398699 L 64.52218131823255,526.7651738291569 L 55.50542792152401,505.27935715191376 L 60.87760380267956,503.2110521953205 L 83.49257777620917,492.3537979274499 L 92.79963966977749,485.17574331575514 L 95.1391197360169,484.35881708569696 L 96.71572570725803,484.7089259840847 L 98.64833998286177,485.89543150544455 L 101.25906390950574,486.7512951295781 L 107.92149609884935,486.24555487489994 L 110.82041706972495,485.23409602127407 L 113.05818068830546,483.42520845834383 L 114.83821955486304,481.4802665305361 L 117.95752660484513,479.06867978339034 L 122.89077800395563,478.13520394920636 L 125.84055705113789,478.95199381146443 L 127.36630494607238,481.013495590304 L 127.26458820338569,483.42520845834383 L 121.61932137567341,499.0078676602573 L 120.7038727567274,502.37426929069363 L 119.78842413778277,509.30262268141325 L 119.78842413778277,515.7845290614232 L 120.50043956638316,521.0993694378517 L 121.41588818534701,525.3050578287679 L 122.58562836597169,529.004900583144 L 125.12854162253612,534.8085563645114 L 125.58626578448701,535.6850262225951 L 126.70514759377726,536.8731634285966 L 135.09676086839957,542.9507877873285 L 142.13215336580666,549.6529152692397 L 144.5224918033805,550.2374609627411 L 146.3533893362989,550.0231268873404 L 149.35402704985984,548.3669480739093 L 151.59179037341255,547.5486286818336 L 153.11753797330005,546.3406659545666 L 154.08384496359832,545.0548132121634 L 155.42311255698786,542.0351841923524 L 156.13512828061604,540.8079215745278 L 156.94886045192095,539.7365349901091 L 170.62973283994575,526.0449966230783 L 171.54518145889176,524.6430194769641 L 172.4267248903304,522.6764467052981 L 172.93530742363217,520.6905086436749 L 173.49474832826837,519.5028902619099 L 174.81706332788502,518.3931834758854 L 176.4953860418293,517.2445739283123 L 178.27542490836908,515.726128326838 L 179.6485979843102,514.2077448917752 L 180.56404660325484,512.5726319793175 L 181.22520395556916,510.8402697973201 L 182.8018102218367,504.8068304019473 L 183.46296757413046,504.6316806412997 L 184.48013293576315,505.50743737057496 L 185.9550224593632,507.5509504389146 L 189.05737662056384,509.26369576334673 L 193.29556488980123,509.6529667817041 L 200.31400508848103,508.8938919090364 L 204.4335243162866,509.4194036806454 L 207.3324452871622,511.1127709987607 L 212.02835801337548,518.529461574723 L 214.01183007025946,521.1383091189773 L 216.1987356125333,523.4163330207058 L 219.50452237400754,525.5387213469264 L 222.60687624019963,525.5387213469264 L 226.26867130605567,524.0199359985716 L 229.48969450866892,521.6834645447818 L 235.0162922949686,521.4498249910396 L 239.81392176386856,520.2232442019259 L 242.49245695064624,514.090948818781 L 248.90059787333897,510.41205786082116 L 254.24071535809233,515.317326437131 L 261.71687971874223,519.6002346717999 L 268.66750895231746,517.7702043561486 L 274.0076264370722,511.63831453723583 L 275.07564957998375,506.7140696944696 L 273.4651381261897,498.7549130743823 L 279.3477436267813,499.3581149512708 L 285.23034942241856,506.7140696944696 L 288.9599551583528,512.241725144684 L 291.09600232927437,506.7140696944696 L 292.1640257672123,497.5290822556776 L 295.910584391928,492.6261634829464 L 301.776237298766,496.30329189379427 L 307.1163544884929,502.43264867654653 L 315.6774954709065,502.43264867654653 L 323.6791955486674,502.43264867654653 L 332.2233833472539,507.9402038293788 L 340.78452403462325,510.41205786082116 L 345.58215320849547,511.63831453723583 L 346.1246415193766,503.0359103023573 L 352.9735543053121,499.0078676602573 L 355.73685305094807,507.33686283137484 L 364.28104084953594,504.88467493003105 L 369.6211583342729,498.7549130743823 L 382.9799284905586,499.3581149512708 L 390.45609314623493,499.98078469522636 L 399.5427689606597,501.20669644751433 L 408.086957054274,506.1107486290635 L 412.9015391169455,512.241725144684 L 417.6991685858455,516.5437456249294 L 422.5137506484991,520.2232442019259 L 425.7178212573587,515.9207975739256 L 428.92189157121106,512.241725144684 L 426.24335638443335,504.88467493003105 L 419.83521575676707,495.0775423207295 L 426.24335638443335,491.4005348821831 L 432.6514976021538,490.7780086048756 L 437.4660796648254,489.5524409579717 L 437.4660796648254,484.0476116051909 L 439.07659111861807,477.901838904652 L 447.0782909013498,474.8487788953581 L 453.48643211907034,477.901838904652 L 459.3690376196812,476.07386167600345 L 467.3876902912122,471.1737711792451 L 475.9318780897987,465.6522197956863 L 483.40804274545854,463.20277939881623 L 491.95223083907285,461.9781197800852 L 495.15630115290463,457.70184631009727 L 504.48031593527224,450.6082020120237 L 509.3118505916974,459.50948373612863 L 509.2101344390663,467.5380098337559 L 507.2266620871367,476.812820709449 L 506.5655044398152,483.8531093756672 L 508.4981187154189,495.27210296392394 L 508.54897679174474,499.94186755150594 L 507.12494563949696,504.3008446098607 L 504.73460720192315,506.6946077572591 L 500.9032847233036,508.67979655389604 L 489.6636088491579,513.2149894852107 L 486.2052469736461,515.6482610496113 L 482.9333656947084,518.6852083931108 L 478.8138464669028,524.7598491342404 L 476.1692167626781,527.310716600877 L 474.13488633444183,528.9464793548183 L 472.3039890965512,529.6475425472408 L 470.7782412016167,530.4654669947503 L 469.04906041136576,531.5950106727495 L 461.8102341335603,537.5938551819318 L 450.3671253640968,545.2496366463722 L 448.9261413230689,545.6392862532432 L 448.06155078042957,546.2042854891944 L 446.840952523479,544.762580662333 L 441.483882444972,535.2565275041775 L 437.8390402679152,531.6534360781083 L 425.97211252400956,529.1217439939342 L 415.8513184591542,534.1463481581104 L 414.18994863400917,535.334435993258 L 406.0187208484762,541.1975244159613 L 395.0333365359914,544.8210268520319 L 380.82692872588336,543.554708889337 L 373.3338114764534,544.762580662333 L 370.078882791268,549.6529152692397 L 368.0784578455847,554.85569498761 L 363.2299700053517,557.9543273905417 L 351.9902944262338,561.4040533045606 L 346.1246415193766,562.2031886333788 L 329.10407659228036,557.8763709139109 L 326.2560136977306,558.0712615658285 L 317.93221168324203,559.922775540295 L 309.04896876409805,559.8837950358692 L 305.6075597773855,561.2676172678509 L 302.8612136255019,563.5091293691013 L 300.5386864480631,566.5305127303086 L 293.6050098082594,579.4960283215493 L 292.3505060687573,584.3519574749564 L 292.299647992452,589.8912277915463 L 294.94427740162973,599.255266648032 L 295.40200185862625,603.7820717264235 L 293.5541517319349,608.3679808549276 L 291.94364027814083,609.8902388337623 L 288.04450653940677,612.5641002361272 L 286.3492312317088,614.4183519985826 L 285.23034942241856,616.4874165441139 L 283.4672628546061,621.152999018409 L 282.31447585778926,623.3200606399348 L 273.36342167853076,628.2403506348371 L 268.1250206414363,634.5869354307666 L 266.65013141286266,635.9930963235881 L 261.0218168838763,638.10243841846 L 255.1900694595913,638.3954121596138 L 244.069062921886,635.9930963235881 L 242.7976062936038,634.8798807961905 L 240.55984267504115,631.0522405275228 L 238.94933122122922,629.997756692972 L 235.84697735505497,630.3492480561493 L 234.6263790981058,632.5949663697934 L 234.67723717443167,635.8368533399363 L 235.28753645042013,639.3329443117162 L 240.15297688440546,654.141309062345 L 240.5259371924882,661.2741189258645 L 236.7115676026679,668.6037932342317 L 225.60751395374135,673.6865619259559 L 203.29768961821625,664.7139967834556 L 191.61724217585555,667.8805335294661 L 189.41338433487365,671.2819331814003 L 187.22647908764543,679.532617568018 L 184.93785739275827,682.3679975418709 L 182.2254167234276,682.7199907950469 L 178.7331493653642,681.8400134981948 L 174.26614518700922,683.4371771390104 L 173.05371173616695,679.1999025937855 L 161.0850675339726,673.6862563213083 L 155.93143047913392,669.3854064707666 L 152.40525763657848,663.6386950570045 L 149.9979667064342,654.3754853242003 L 147.60762806036112,651.9135064785254 L 142.33532173666333,651.8353514075532 L 135.38469270827875,654.7272097516827 L 133.07911810688563,655.1180190886399 L 129.73942563773522,654.6099680271867 L 123.202258798624,652.75932510329 L 122.97527698278311,652.6950693694521 L 119.41519858793207,652.2652076813409 L 119.9576867680461,646.3648907549591 L 112.65104960495542,626.0141184504665 L 112.04075032032563,615.1988124537149 L 119.21176527436283,597.4014736826708 L 124.12806379138729,592.4072745455567 L 124.39930820949287,588.6620692830044 L 121.31390689023871,586.1264692588134 L 116.29589171642759,584.7222119533661 L 109.00620749347503,584.7222119533661 L 104.93754647080418,585.6973847660668" fill="none" stroke="#000000" stroke-width="0.7984068985211118"/>
	<path d="M 444.00420453601697,600.2081564562742 L 438.4490745003057,610.7096373583341 L 433.3123900575984,615.8624758643277 L 430.2608942905836,618.1658720728245 L 426.1922332679224,624.1007101231473 L 423.92056421879744,626.3655717289453 L 420.7503995109481,627.7714180645072 L 411.1042825222495,629.1773181666379 L 405.10300764500516,631.5987168610375 L 398.2201893931324,635.7779575972698 L 393.168268995079,641.4812393593222 L 392.4562530536722,648.5139032253065 L 396.05023700077356,653.632966589354 L 400.8648191890674,655.8605682623408 L 404.6961413459187,659.2217672304449 L 405.57768472057467,667.8606808067276 L 403.27211011921037,676.0323873462971 L 398.93220500645845,681.1552956312157 L 371.061877788462,703.101973520964 L 368.4850590970455,707.6024746205147 L 369.1970747104004,710.5770230851264 L 373.02839719527617,717.2314949180484 L 374.07946767517586,720.9898508443426 L 373.67260170412357,724.082954102515 L 368.1120983501984,741.7069044467826 L 366.9932164377392,744.0182320962306 L 364.36553990999425,747.4659085346539 L 361.75481599436154,749.6992366786898 L 358.957611377206,751.2273824078239 L 356.2282181926867,753.1866372064379 L 354.10912363667546,756.7135618322884 L 352.22736827453303,764.3564047277612 L 352.4477538721529,770.5110399043057 L 353.2614861423205,776.5882946344777 L 353.1936750377759,783.9999999999999 L 345.29369185827983,780.5488594487333 L 306.53969647022944,777.1764703861924 L 299.6568782183292,774.9414543886948 L 293.11311516099835,771.6479973670614 L 289.99380861752803,769.1781006897212 L 287.4169895980211,766.5907692875343 L 284.63673824912007,764.3956029829275 L 280.83932131650283,763.1020843822719 L 277.9912585350053,763.5724492534016 L 271.7187398957868,766.6691710359371 L 268.42990526295387,767.2179845940933 L 254.66426908718617,765.3755715753739 L 243.2381130651086,761.8086117772402 L 233.37161047879013,755.5378823173004 L 215.65598222118615,735.3613009954094 L 195.66868557060099,720.12852685636 L 193.60044950699327,716.9183164365444 L 193.05796165494084,713.5126698357083 L 192.88843389363979,710.107341214589 L 191.80345786150076,706.7414659813354 L 183.90347435392528,695.5893285873993 L 175.3253807852535,687.1394474442874 L 174.26614518700922,683.4371771390104 L 178.7331493653642,681.8400134981948 L 182.2254167234276,682.7199907950469 L 184.93785739275827,682.3679975418709 L 187.22647908764543,679.532617568018 L 189.41338433487365,671.2819331814003 L 191.61724217585555,667.8805335294661 L 203.29768961821625,664.7139967834556 L 225.60751395374135,673.6865619259559 L 236.7115676026679,668.6037932342317 L 240.5259371924882,661.2741189258645 L 240.15297688440546,654.141309062345 L 235.28753645042013,639.3329443117162 L 234.67723717443167,635.8368533399363 L 234.6263790981058,632.5949663697934 L 235.84697735505497,630.3492480561493 L 238.94933122122922,629.997756692972 L 240.55984267504115,631.0522405275228 L 242.7976062936038,634.8798807961905 L 244.069062921886,635.9930963235881 L 255.1900694595913,638.3954121596138 L 261.0218168838763,638.10243841846 L 266.65013141286266,635.9930963235881 L 268.1250206414363,634.5869354307666 L 273.36342167853076,628.2403506348371 L 282.31447585778926,623.3200606399348 L 283.4672628546061,621.152999018409 L 285.23034942241856,616.4874165441139 L 286.3492312317088,614.4183519985826 L 288.04450653940677,612.5641002361272 L 291.94364027814083,609.8902388337623 L 293.5541517319349,608.3679808549276 L 295.40200185862625,603.7820717264235 L 294.94427740162973,599.255266648032 L 292.299647992452,589.8912277915463 L 292.3505060687573,584.3519574749564 L 293.6050098082594,579.4960283215493 L 300.5386864480631,566.5305127303086 L 302.8612136255019,563.5091293691013 L 305.6075597773855,561.2676172678509 L 309.04896876409805,559.8837950358692 L 317.93221168324203,559.922775540295 L 326.2560136977306,558.0712615658285 L 329.10407659228036,557.8763709139109 L 346.1246415193766,562.2031886333788 L 351.9902944262338,561.4040533045606 L 363.2299700053517,557.9543273905417 L 368.0784578455847,554.85569498761 L 370.078882791268,549.6529152692397 L 373.3338114764534,544.762580662333 L 380.82692872588336,543.554708889337 L 395.0333365359914,544.8210268520319 L 406.0187208484762,541.1975244159613 L 414.18994863400917,535.334435993258 L 416.71590870676715,543.9053773216204 L 418.90281424902173,550.3543710744127 L 417.93650696369707,553.2772463595142 L 416.4107590687626,554.699795605855 L 410.13824007628176,555.1480076339199 L 400.11916275409385,560.3905410694011 L 397.52539142122276,563.0803078574892 L 395.9996435262883,565.9457096555341 L 394.47389563135516,572.3790535065297 L 394.0670298407387,575.4791561472161 L 394.0670298407387,578.3065206642971 L 394.5247540026882,580.783079896152 L 395.745351964611,583.2403027903196 L 398.18654877351787,585.6781858431028 L 401.7974854680395,587.2775247883569 L 430.24420627579855,590.7690052586657 L 432.7023559735061,590.6519671234812 L 434.68582773536235,590.2813483039376 L 436.66930008729196,591.2371618544511 L 438.24590635355946,592.2125071623525 L 443.9081263650974,600.0747330142212 L 444.00420453601697,600.2081564562742" fill="none" stroke="#000000" stroke-width="0.7984068985211118"/>
</svg>
