<?xml version="1.0" ?>
<svg xmlns="http://www.w3.org/2000/svg" xmlns:ev="http://www.w3.org/2001/xml-events" xmlns:xlink="http://www.w3.org/1999/xlink" baseProfile="full" height="577px" version="1.1" viewBox="-80.35856409777337 -77.19979385123271 960.3048306609534 922.3995877024654" width="600px">
	<defs/>
	<path d="M 70.38818414994377,72.84481528096936 L 71.37237940141772,72.53941038979279 L 73.05957120350331,71.16792837000412 L 74.8873623560229,70.0374907038341 L 76.53810248586173,68.39029199001828 L 78.56898150502273,63.69039723641471 L 79.94373037333423,62.21567015627832 L 95.51880050867078,54.77738011881339 L 108.70410184301711,48.47226712484002 L 112.2242921865677,46.126325825677235 L 112.83817836259836,45.54033707849605 L 113.22675392174203,45.77953452049871 L 116.21579125229829,48.44623768056477 L 118.73616417868143,51.20512788683844 L 121.63667603383004,52.19699724037476 L 129.79664385441865,52.0881612930657 L 129.79664385441865,59.14104256104183 L 128.65622711342533,65.0944237588734 L 127.78659435814305,72.56389111548116 L 128.64060502401378,78.87611116887624 L 129.43733448392646,83.21833612441839 L 128.52083523385076,89.14666699591686 L 128.2969177882449,96.13595430331412 L 128.91659629734227,102.00159657241225 L 128.48959091909234,109.42489033664862 L 129.30714989196935,114.62172224028579 L 131.4265544219287,119.33372452706114 L 133.97817166306734,124.02958945578526 L 134.8530118872172,124.37598353238958 L 130.03097605650652,133.14204048300277 L 123.26137926841076,143.11994772090853 L 119.12151048569095,149.7564280099813 L 116.49178252562679,152.55328511712742 L 116.05436239089452,155.80900196770608 L 117.38224488449704,163.31821478210705 L 117.17394957361451,173.56780659875366 L 117.55408845707113,185.3999686851196 L 119.05381452324762,198.24812667259437 L 121.10031571252266,211.59474164443984 L 123.10515783056,223.85094621655665 L 123.07912089404269,239.90339474470807 L 127.05756086067369,246.70819781788256 L 131.54632421209467,252.95650985039856 L 132.76485167201332,257.7163409339187 L 134.2906146293925,268.05502135437735 L 134.20208910867308,268.22022300031705 L 133.28038248035628,269.5151264544642 L 131.57236114861198,271.82401531321364 L 126.07336564815468,270.5296145768414 L 122.84999607019583,267.1846869712489 L 117.7363468314392,268.2556227222049 L 115.92417788956098,268.33822130416536 L 111.13859370653824,267.5829914083364 L 109.23789919863177,268.65090559445036 L 105.85830818282214,270.904105695201 L 102.65056083021301,270.91737463585304 L 95.95386742811326,268.173022991594 L 93.63137496550972,266.4720979164041 L 87.15339163077472,265.39936450240367 L 84.00292543881186,261.22758194886103 L 83.2218181136226,257.07354457370906 L 81.78978800989208,253.78901847469746 L 78.90489833477561,254.77663809661894 L 75.25973084743718,257.2050649391829 L 74.31719466084418,257.95423171216447 L 71.51041570465314,260.3385207557645 L 67.01123755143819,262.39408745284885 L 62.50685201998485,264.31462940751175 L 58.15348059345031,266.36881698519267 L 54.83637816184565,266.97077174231146 L 47.61373914960894,262.9034386422097 L 42.8958509743411,261.0739994953443 L 40.557736331702465,261.7680421897468 L 36.027313909043805,263.1499784225413 L 32.059288698895024,264.5005980909169 L 29.403523847625426,265.88927504698125 L 27.24450902349672,266.7078417040732 L 28.453135924857108,257.1444311173532 L 28.30212184691617,246.28326780554997 L 27.187742073291535,237.52113136289276 L 23.196283684986824,223.73869139234566 L 19.204825296679267,209.92340737154692 L 13.257994877796527,198.7272527117423 L 6.811255825328821,189.10624877824728 L 4.17896484429064,185.97596891410853 L 1.182075729172721,182.40976623008962 L 0.0,180.5112922310407 L 11.747854048006312,174.02952802502676 L 23.021836407167704,168.08362173605838 L 24.50594029221798,167.6904069136336 L 28.17714471371381,167.44726032327753 L 29.46336807068129,166.69974389875938 L 35.72784876190813,158.59677426092009 L 41.04458587390485,150.02739718032984 L 45.63228959132222,144.80651191858124 L 48.74109671186118,138.35573838247976 L 49.53782616276076,135.99853766334493 L 49.5586557185509,134.04199397963913 L 48.293261816599944,129.94550563499172 L 48.069344394162705,127.8719362870839 L 48.35054304463961,125.62519424603849 L 48.282847089087305,124.53626848844577 L 46.68938813690287,121.18647260404005 L 45.153210412758206,115.00805681404051 L 41.39348053031386,104.96843475943686 L 41.299747630025934,103.94827536327439 L 41.836107986240016,100.11489983230022 L 42.627630098579495,98.7534328924896 L 45.84579218547753,95.16275351766299 L 49.24621273438573,89.16184315857274 L 51.839489054504966,87.07883887189749 L 57.499913433962476,87.15194028933998 L 60.25982594848066,86.06140801379401 L 61.08259229373037,85.40027998997016 L 61.82204056697546,84.65070066161621 L 62.426096878741944,83.7638689793185 L 63.2749001687316,81.72451821844312 L 65.39951208818053,79.73929804180051 L 66.05564223903697,77.77775621337372 L 66.477440189557,73.04637298271487 L 67.61264951897189,71.8338587015546 L 68.56039304781378,71.96214770594752 L 69.4664775154577,72.47832730566321 L 70.38818414994377,72.84481528096936" fill="none" stroke="#000000" stroke-width="0.7995877024654067"/>
	<path d="M 112.83817836259836,45.54033707849605 L 113.85941014956458,44.56537080836147 L 114.75507988970041,42.71066028160228 L 114.57802891740356,40.20853677418399 L 113.40636791574052,38.07104208412692 L 110.03198431156646,34.753218373928 L 109.00092266033604,32.45042658768036 L 108.964470937704,29.17063623104646 L 109.69871182200086,22.883923273281027 L 109.33419504913384,16.69770597642051 L 110.23507217821357,12.64826690304103 L 110.2611091229534,9.30198865595454 L 110.3860863065441,8.382390926778937 L 111.828531130398,2.68654831267848 L 111.781432357343,0.0 L 112.82830713265979,0.2563206090180171 L 114.5586341105571,0.9169598703222379 L 115.30078858553817,1.3947131653983442 L 115.94043549849138,2.930051674563427 L 116.71539239734963,3.5781698483916164 L 118.36371331555138,4.343137915792848 L 124.45266016207759,5.312585731507392 L 126.31009644433603,6.016418555572892 L 125.27682064637041,4.903393588295875 L 121.99247963074976,3.836420026062685 L 121.1519179345156,2.710745336753006 L 123.57929604196616,4.087348992759226 L 129.00809442282588,5.892219683927142 L 140.78415859970318,13.36810996969938 L 142.88351261951462,15.548996562006877 L 144.810654039921,16.125065701187438 L 148.04579147010696,18.26107321001971 L 152.02718361527522,20.22135173956007 L 154.2659479113795,20.843046739792563 L 165.59733518174565,22.042506924180138 L 165.59218857104423,22.04692210486372 L 164.67568932096856,22.833104824821145 L 161.9782653531495,31.311782856963262 L 159.99946012631474,34.662527448555565 L 153.70373516594782,38.81646844433078 L 151.14691059187984,42.19317742802877 L 147.2205444529717,44.07723832584435 L 142.8671729811253,46.195431979345926 L 141.6330234317951,49.308257027648644 L 129.79664385441865,52.0881612930657 L 121.63667603383004,52.19699724037476 L 118.73616417868143,51.20512788683844 L 116.21579125229829,48.44623768056477 L 113.22675392174203,45.77953452049871 L 112.83817836259836,45.54033707849605" fill="none" stroke="#000000" stroke-width="0.7995877024654067"/>
	<path d="M 740.388194178428,768.0 L 734.1653725484034,764.7554380865182 L 727.9425509183744,761.515128519462 L 721.7197292883484,758.272201044008 L 715.496907607934,755.0238996052293 L 709.2740859779136,751.7770918796863 L 703.0460569589349,748.5331524599475 L 696.8284427178586,745.2810693078734 L 690.6004136485002,742.0332232517746 L 684.3775920688553,738.7813503200291 L 678.1547704388248,735.5309552353772 L 671.9319487584163,732.2751431176634 L 665.70912712839,729.0194212123229 L 659.486305498361,725.7610268275389 L 653.2634838683308,722.5054749500576 L 647.0406621879222,719.2472423006085 L 640.8178405578961,715.9877037294215 L 634.5898115893071,712.7240906639472 L 628.3721972978409,709.4646901711689 L 622.1441682788682,706.2012055164727 L 615.9213466488419,702.9308613224023 L 609.6985250188129,699.6647197888207 L 603.475703338403,696.3972436443554 L 597.2476743194286,693.1256574477336 L 591.030060078348,689.8582685033056 L 584.8020310593736,686.586759787282 L 578.584416818293,683.3111230174468 L 572.3615951378828,680.0396758326909 L 566.1335661692938,676.7613143986844 L 559.9159518778292,673.4788044647414 L 553.6879228588549,670.2032529680912 L 547.4651012288244,666.923545513775 L 541.2422795987997,663.6396737983584 L 535.0194579687694,660.3599763079268 L 528.7914288994111,657.0733211625505 L 522.5738146583304,653.7880503648684 L 516.3457856393559,650.5013768103462 L 510.1229640093313,647.2105082513615 L 503.90014232891696,643.9182245780634 L 498.77091167047473,641.2057543308457 L 498.77091167047473,636.9777961714743 L 498.77091167047473,636.4084410730186 L 498.77091167047473,635.8404389076373 L 498.76570429223364,635.2723942126553 L 498.76570429223364,634.7029111071477 L 498.76570429223364,634.1347811714385 L 498.7604969139925,633.5666086291762 L 498.7604969139925,632.9969972850079 L 498.7604969139925,632.4287393478461 L 498.6511418803116,605.5150805059135 L 498.53657946838666,578.504695502719 L 498.4272244800176,551.3934103089751 L 498.3178694010219,524.1784014950807 L 498.2085143673412,496.856798014093 L 498.099159378969,469.4256791460578 L 497.98980434528534,441.8820732726465 L 497.8752419333633,414.2215150493199 L 497.9221083828422,386.0285302197546 L 497.96376745408276,357.7086557824676 L 515.0804325098608,357.6388879848097 L 532.197097475018,357.56911935840566 L 554.2087017475023,357.3874267246259 L 576.225513398228,357.2057288124234 L 606.4491592737094,357.604003768879 L 636.6728051038818,358.0037068497797 L 666.1205510324177,357.8045851894929 L 695.5735042938801,357.60691081538454 L 725.0472871136215,357.0894393497575 L 754.5210699333599,356.57337882183816 L 773.1166314970383,356.1067071679216 L 790.7436200282328,355.663264102834 L 790.7696162293606,355.6626100645975 L 790.7696162422345,366.30445235830797 L 790.7696162422345,377.2740236231079 L 790.7696162422345,393.6177095447726 L 790.7696162422345,409.9226154966502 L 790.7696162422345,426.18647785167803 L 790.7696162422345,442.4013172370591 L 790.7696162422345,458.58212678321075 L 790.7696162422345,474.7266234052222 L 790.7696162422345,490.83112180113557 L 790.7696162422345,506.89339200198094 L 790.7696162422345,522.9211462241554 L 790.7696162422345,538.9149539018257 L 790.7696162422345,554.8711458108064 L 790.7696162422345,570.7874932442359 L 790.7696162422345,586.674430002482 L 790.7696162422345,602.5240747407267 L 790.7696162422345,618.3398041807089 L 790.7696162422345,634.1221740242564 L 790.7696162422345,640.8476785464195 L 790.7644088532846,647.5728237897432 L 790.7644088532846,654.2892839781997 L 790.7644088532846,660.9971084891621 L 790.7644088532846,667.7019062022736 L 790.7592014643366,674.400934342685 L 790.7539940753883,681.0914597078496 L 790.7539940753883,687.7790762860172 L 790.7539940753883,694.4610480300365 L 790.7487867368283,701.1374163184323 L 790.7487867368283,707.8082221607417 L 790.7487867368283,714.473506574121 L 790.7435793478785,719.5537925858665 L 790.7383719589303,724.6336680374304 L 790.7383719589303,729.7131456926048 L 790.733164569982,734.7867255206872 L 790.733164569982,740.7387621143772 L 790.733164569982,741.0761123121263 L 790.6862981198402,741.158745002083 L 790.6394316696941,741.2386224045933 L 790.5925652195536,741.3212534219103 L 790.5456988197916,741.4011293125044 L 790.4311364141029,741.4176552260276 L 790.3217813973586,741.4300496662188 L 790.2124263302303,741.4424440878822 L 790.1030713134812,741.4548384910314 L 785.0258737907681,741.4548384910314 L 777.6730502202724,741.4507070076065 L 771.5179244954105,741.4493298637743 L 765.2430290766754,741.4424440878822 L 758.5046765958373,741.4369354524001 L 752.8130079330767,741.4355583062797 L 748.5065029165248,741.4300496662188 L 740.388194178428,741.4300496662188 L 740.388194178428,748.0804416563961 L 740.388194178428,754.7227873120257 L 740.388194178428,761.361255055169 L 740.388194178428,768.0" fill="none" stroke="#000000" stroke-width="0.7995877024654067"/>
	<path d="M 498.77091167047473,641.2057543308457 L 497.6773207492763,640.627310247547 L 491.4597065081956,637.3349731443391 L 485.2316774388373,634.0412083912167 L 479.00885580881265,630.7432178135584 L 472.7860341787822,627.4493757844936 L 466.5632125487575,624.1485023412005 L 460.3351834793992,620.8461786436142 L 454.1175692383171,617.5451977890481 L 447.8895402697282,614.2427590536169 L 441.66671858931386,610.9360569773613 L 435.4438969592892,607.6334879878519 L 429.22107532926304,604.3266455212447 L 422.99825369923406,601.0155205802624 L 416.775432018824,597.705715508104 L 410.5474030502352,594.3916152913697 L 404.32978880915425,591.0774232081563 L 398.10696712874,587.7645406418521 L 391.8789381097656,584.4473450129041 L 385.66132381830107,581.1300453363789 L 379.4332948497149,577.8140448022975 L 373.21047316930054,574.4923059585485 L 366.9876515392759,571.1662258058872 L 360.7648299092469,567.8414292593471 L 354.5368008902726,564.5150967621979 L 348.319186649192,561.1886328806225 L 342.0911576302175,557.8634448473916 L 337.50345396318835,555.4016967112148 L 336.4723923119536,555.5385611583516 L 334.233217986812,556.6404359672306 L 331.32749878329986,558.065143682891 L 328.4217795294136,559.4923877833251 L 325.5160602755174,560.9193473284904 L 322.6155485113446,562.3446130695281 L 319.7098292574486,563.7724141825101 L 316.804110003558,565.1985223689394 L 313.8931834111019,566.6243475915481 L 310.9874641572113,568.0498902064359 L 308.0817449537005,569.4751507328947 L 305.17602569980863,570.9015375116101 L 302.2703065466862,572.3248269417164 L 299.3645872927957,573.7464287996361 L 296.4536607003395,575.1677511499423 L 293.55835622433693,576.5916081548946 L 290.65263697044657,578.0151855238211 L 287.7417103779905,579.4384836100436 L 286.8573436440572,579.8822020771023 L 286.82521108206885,579.8983236130201 L 286.8200037435044,579.9011360316671 L 278.1965789324978,584.6033334141208 L 269.58356894976885,589.298286975276 L 260.965351527712,593.9902299143982 L 252.34192671670542,598.6791768451445 L 249.16021620128626,600.4097689733129 L 248.3791089172286,600.4995131476009 L 247.6448680329274,600.1237023942308 L 245.35361986869572,598.0872603639239 L 239.04748011627672,592.49536764002 L 232.7517551417544,586.9020180784952 L 226.4456153893354,581.2987580333026 L 220.14207930619935,575.6925848073162 L 217.30926344718338,573.1651541037605 L 211.39888470055027,569.8609929294861 L 206.28002811663632,568.6231267001078 L 201.8329238000355,567.5484469682748 L 197.38581943305073,566.4792419001495 L 192.93871511644548,565.4028328999162 L 188.49161074946073,564.3290810415261 L 184.04971382180958,563.2551686132235 L 179.60260950520873,562.1825050779532 L 175.16071252717222,561.1082712490381 L 170.70840082162306,560.0324662077287 L 166.2665038939677,558.957909743493 L 161.82460691593104,557.884602370225 L 157.372295210382,556.8125444930698 L 152.93039823234113,555.7346819187231 L 148.4885013046897,554.6608899922747 L 144.03618959913948,553.5869362832776 L 139.58908523215462,552.5128207250948 L 135.14718825411376,551.4343077495989 L 131.29372552176687,543.632799935906 L 127.76312045070367,536.4862314627826 L 122.1116973624526,525.0060308192991 L 122.03500011569534,524.8500998137066 L 118.40024736645198,517.4602038770747 L 114.90609396763692,510.3634948721638 L 113.60945583277585,508.6776661176123 L 111.9587157029326,507.78132497672027 L 109.87329853174501,507.0926929370758 L 110.56578164691955,499.57392580857044 L 109.27955826986944,492.364769175984 L 103.16088426031486,481.17591384061706 L 103.32752049995962,470.7741715772845 L 103.46291247015783,459.3204996363329 L 103.08798091963054,448.3903143032041 L 106.46236455719905,439.3926490104811 L 116.26265770177991,433.8063115615117 L 125.33912477244422,438.17987970905665 L 129.58314116529502,439.59499470194504 L 139.01371018290146,438.74825858495973 L 144.77307482196395,438.03347111552415 L 149.90234624075566,433.68709608093945 L 155.03682499247955,429.3421514824244 L 161.91056943601805,430.6930713238196 L 168.20108701814388,429.9759688064749 L 172.32533366614342,426.7171199971447 L 177.01718495020575,425.01013987300854 L 185.36461852340352,422.15458718528527 L 197.45095239227948,421.29839683150635 L 202.63229763879107,417.49814147864913 L 207.76156901227398,411.08448321773653 L 211.38069956309815,407.84931136930646 L 220.8216833824985,405.5214065756743 L 234.17861849370135,400.65229819700323 L 234.1838259172542,400.75624178038856 L 244.18720694916453,399.4885923618644 L 249.95177896646814,397.27032534322615 L 258.8668171757288,393.4183059123447 L 264.58973016710354,387.5361034297999 L 269.79190488127074,381.6629446429242 L 275.0044943972289,376.3147744225246 L 279.1808148276365,372.03530178132 L 286.5596753230387,369.282264870656 L 292.8970593546462,367.60200220111665 L 301.87458614811163,365.363857312386 L 311.40409544291686,364.1791468552957 L 320.92318998124273,362.4771861965376 L 326.21389021612634,361.36165783913 L 352.34453366774574,354.20331428503306 L 351.90190620008707,358.28275704983906 L 351.81338072467946,362.4103763046707 L 352.2820451288554,367.07664673135235 L 354.5108046471867,370.0758082123033 L 356.9947259711941,371.1506317613652 L 361.41058598193075,373.44471656064536 L 364.4516971402068,375.2016945225506 L 367.23243915988064,379.15745711660475 L 366.8731298347003,384.91715363305644 L 369.5288947312816,390.6485043522542 L 374.91332786512567,396.21869103392146 L 378.7615832397966,398.5196391214418 L 382.74523053935684,401.36687656599537 L 385.6405350162645,405.31367161569176 L 393.30059407260967,406.9176734094179 L 401.9083967844099,408.80100078865496 L 409.2872572345002,411.51542893219425 L 413.51044415969835,409.73669186739426 L 417.18685591648637,407.4137946225549 L 423.7377426372175,406.8700783555885 L 427.8359523486996,405.6454673511904 L 434.39204644767176,400.87750721046217 L 436.7145388649637,398.01272149114476 L 442.1874974742154,395.1582146149509 L 449.3059888763241,393.4081888003427 L 455.17470850375554,396.03810461503025 L 459.80407120361576,401.3971901941492 L 464.969794315407,406.075333728805 L 470.01574754641155,406.65950223596786 L 475.74386791602467,408.0713847860565 L 483.64346659801083,409.6458679879637 L 490.45472241203544,411.35544909864825 L 495.75583740340113,413.18849424997865 L 497.8752419333633,414.2215150493199 L 497.98980434528534,441.8820732726465 L 498.099159378969,469.4256791460578 L 498.2085143673412,496.856798014093 L 498.3178694010219,524.1784014950807 L 498.4272244800176,551.3934103089751 L 498.53657946838666,578.504695502719 L 498.6511418803116,605.5150805059135 L 498.7604969139925,632.4287393478461 L 498.7604969139925,632.9969972850079 L 498.7604969139925,633.5666086291762 L 498.76570429223364,634.1347811714385 L 498.76570429223364,634.7029111071477 L 498.76570429223364,635.2723942126553 L 498.77091167047473,635.8404389076373 L 498.77091167047473,636.4084410730186 L 498.77091167047473,636.9777961714743 L 498.77091167047473,641.2057543308457" fill="none" stroke="#000000" stroke-width="0.7995877024654067"/>
	<path d="M 799.3170825943646,90.57667218002449 L 796.1696714766196,93.10639383797891 L 794.7584709360657,95.11713270849515 L 792.9098502781397,100.11489983230022 L 784.7238455844965,106.81698798134407 L 784.1041671058939,108.68008512394042 L 784.0885449390519,110.82762456002321 L 784.5884536230164,115.7625595606136 L 784.6353200731627,120.56591615857678 L 785.801773685877,126.82276420487813 L 786.1506682919011,128.00798149780223 L 787.9159708274284,131.63763857981832 L 788.5721009782849,134.61876307667197 L 790.7696162422345,139.31221657051515 L 791.4569906763853,141.6649946788582 L 791.1393403536644,143.67914650932246 L 790.384269963957,145.68051507584312 L 789.7593841467899,148.01252811934586 L 789.22823112914,151.21971241434863 L 787.702468182889,155.23136898257462 L 787.5358319381048,156.38948914413984 L 787.0619601484946,158.35624037113396 L 786.0777649474048,160.35235844471566 L 783.135594071646,164.81700355898158 L 781.6098310750137,166.36948417976134 L 780.2454969845973,168.1016309429657 L 779.7664178060375,168.91198461599836 L 778.9228219049961,170.9043588083723 L 776.8346616577911,174.66814538492505 L 776.0275174793833,176.70644087909756 L 776.011895262156,178.94472211545022 L 776.4649375463613,180.19381975597858 L 777.8865528648118,182.75705232423763 L 782.2243022150535,193.60802939506164 L 782.4534269760551,194.90768331672965 L 782.3909384094524,196.0547182381526 L 781.5473424580256,199.06757525408764 L 781.8858223365423,201.47164642301382 L 784.4686838283754,205.8190959066021 L 785.1977173237268,208.1920254327863 L 785.1925099851671,209.59564696231266 L 784.7394677513428,213.77170632759726 L 784.8540301570313,215.99849538633063 L 785.3539388410015,217.98937478516868 L 789.5302592850234,228.09390585396926 L 790.4207216362049,231.18210122023578 L 790.7696162422345,234.4882171753514 L 790.7696162422345,241.57195295243446 L 790.7696162422345,251.1831089473643 L 790.7696162422345,273.9610308839898 L 790.7696162293606,296.4369378794175 L 790.7436200282328,296.43205192449744 L 790.7279978481978,296.42911578156145 L 790.2385039310603,296.32635069637763 L 789.7438026356789,296.22211573905054 L 765.8262965223585,295.67154919371643 L 741.908790454347,295.11946395014303 L 717.9912843410268,294.5687967322803 L 694.0737782730181,294.0180792077156 L 694.0112896888161,256.51787575768344 L 693.9488010592994,218.77933352316649 L 693.8863125204091,180.79285634884388 L 693.8186165579657,142.54858446556665 L 692.771932715933,142.1143694106672 L 691.7200415409679,141.6786126592039 L 690.6733576989352,141.2428216324287 L 689.6214665692821,140.80850464398745 L 689.5641853180093,140.81453705326237 L 689.5016967338071,140.82056945598802 L 689.4392081496051,140.82660185216207 L 689.3767195654028,140.83263424178665 L 689.3715121871618,128.7441261531991 L 688.7101746521355,124.38959677830734 L 688.7570411016173,115.44445575307952 L 690.2099006730003,105.44965197126332 L 694.5424426318823,99.06956555753409 L 696.2504639636297,89.88040229069804 L 696.911801498653,79.28334320266322 L 699.4477966050683,70.09864930429305 L 701.9108883254877,63.08622321125335 L 703.5355915600684,57.86872054250508 L 703.6100347733337,57.47457022336888 L 703.9112816146651,57.64966214592209 L 704.7108402558567,57.89080921415623 L 705.3258854264766,58.24286445744016 L 705.7195143114891,58.92038480759412 L 706.1869485746535,60.200446706454784 L 706.674884390528,60.67285916997501 L 706.5846777500537,59.694244181654966 L 706.0147359752483,57.032275920207546 L 706.986507266229,57.40850418345085 L 709.1842685576743,57.45191337337401 L 709.6312013185121,57.63519295170634 L 711.0458051303237,58.819123844497845 L 711.3656285868003,59.01923289149625 L 717.7046937516552,59.56889141340639 L 724.6875061702384,59.45799994031907 L 733.2858371335269,61.48020208555685 L 741.2650226861888,64.7492978205997 L 740.0841360311513,65.91480052312836 L 739.8545191647682,66.36504053503552 L 740.2604489713312,66.62264746100192 L 741.5766455115056,67.17393286549527 L 744.7502784347063,69.64318859569075 L 745.8983626658638,69.96319407409185 L 755.4848661320714,69.85732972925999 L 768.8436464297773,70.81003399511786 L 773.3867798193618,69.42422642149191 L 774.5102622578017,68.61086025089172 L 775.1007055853204,68.38704258118699 L 777.1344548077558,68.79135156711159 L 777.5362842735472,68.6758378312732 L 777.9258128681716,68.45202287227569 L 778.2989402508548,68.34372194986312 L 778.7089703478056,68.58920088256275 L 778.9098850807028,68.75525376592365 L 779.5249302513225,69.12343968458791 L 780.226081671261,69.31353884980727 L 781.2224548053427,69.84529952572831 L 782.8666754331537,70.12679860865785 L 784.933227079469,70.93512405861134 L 790.7925570596118,72.20029404549622 L 792.6171909683743,73.31609041747929 L 793.3962481072365,75.24894814168123 L 792.9452150056296,77.59437052246224 L 792.8345069132099,78.8892020740147 L 793.203534005505,79.93877236508392 L 794.9256603522425,81.87405755814318 L 797.603156828403,85.77373486445131 L 797.8655760682853,86.78359265967039 L 798.6036302528755,88.45028533455165 L 799.5877024654067,90.18837518737291 L 799.3990886036764,90.38013024175994 L 799.3170825943646,90.57667218002449" fill="none" stroke="#000000" stroke-width="0.7995877024654067"/>
	<path d="M 790.7696162293606,296.4369378794175 L 790.7696162422345,300.8756549645138 L 790.7696162293606,320.8304870094296 L 790.7696162422345,323.01892946521343 L 790.7696162422345,331.6322619324099 L 790.7696162422345,350.6639450415805 L 790.7696162293606,355.6626100645975 L 790.7436200282328,355.663264102834 L 773.1166314970383,356.1067071679216 L 754.5210699333599,356.57337882183816 L 725.0472871136215,357.0894393497575 L 695.5735042938801,357.60691081538454 L 666.1205510324177,357.8045851894929 L 636.6728051038818,358.0037068497797 L 606.4491592737094,357.604003768879 L 576.225513398228,357.2057288124234 L 554.2087017475023,357.3874267246259 L 532.197097475018,357.56911935840566 L 515.0804325098608,357.6388879848097 L 497.96376745408276,357.7086557824676 L 498.0835372442459,282.17500181794463 L 489.62154130443776,281.55839230910647 L 489.6319560156083,281.4480139652133 L 475.2283370623698,277.09159376881917 L 464.17827218842376,273.3598295380945 L 464.2095164578703,251.99520787466415 L 464.9020983076521,235.44502523074252 L 468.240030297533,223.6963804372781 L 474.2545566063332,215.1621082194027 L 475.96257798339207,206.59581833721293 L 474.98359010379966,196.92982154878945 L 475.62409812586145,187.26240815120875 L 477.3685711052935,175.97668244220503 L 478.34962958098333,165.4928657745222 L 485.67686724875745,170.28839668572093 L 487.79672282128183,171.19551952838881 L 492.27015107271575,171.8663186520789 L 496.7640808768659,171.95134384301187 L 501.4876274970152,171.41282940353398 L 504.1036194661904,170.6545705958483 L 506.465392776265,169.97181425637302 L 510.5164900092,167.9726816859917 L 516.1380025421779,164.27974542806066 L 517.1712783905277,163.8067231511546 L 519.4387447697372,163.3951612858451 L 520.4638199869242,162.8510965233889 L 527.1391098201972,157.64196425643374 L 535.4750215436064,147.62425884482954 L 537.6850837062186,143.73034754849422 L 538.894672444364,142.042376938945 L 540.7357075650651,140.57477924120215 L 541.6295731371217,139.68168208857335 L 544.823707562652,132.90989434115278 L 547.1813805319521,126.4441282288051 L 547.4684016149354,123.9481301616212 L 547.1813805319521,116.4151706120556 L 546.9289661051716,116.00036738488771 L 547.5224231018822,115.73230755349444 L 547.3714090422724,115.2187087481866 L 547.2308097391449,114.95355778839377 L 546.6319607883236,114.36563452827517 L 546.4861540616433,113.83978374672219 L 549.3241773325899,113.71551194620238 L 554.8596245260436,115.54141803684416 L 557.0779692878926,118.87042812189792 L 560.8272844306767,123.94185299263997 L 566.1700584932831,127.6240704157627 L 569.7058709469408,128.70029560368764 L 576.9805837869002,128.3027817919509 L 586.8537802721654,126.41004205501169 L 606.2512787193093,127.05866577144914 L 610.2036817494229,127.19170737045526 L 623.1908927789601,126.58543498546886 L 626.3101146561645,125.26985183469105 L 630.1219183831508,123.66653301344962 L 639.13068944606,122.82233427843582 L 646.2283512898924,122.09301172948825 L 653.6072117399829,120.61288605821822 L 657.4867114294092,124.03412754610748 L 663.5637263677261,129.5330169346291 L 666.3496758109527,135.33591323477538 L 671.7601458360025,139.10106812657133 L 675.2907509114187,139.80703314230524 L 680.3575337460085,141.28806108432303 L 685.3409984381226,141.20361390397758 L 689.3767195654028,140.83263424178665 L 689.4392081496051,140.82660185216207 L 689.5016967338071,140.82056945598802 L 689.5641853180093,140.81453705326237 L 689.6214665692821,140.80850464398745 L 690.6733576989352,141.2428216324287 L 691.7200415409679,141.6786126592039 L 692.771932715933,142.1143694106672 L 693.8186165579657,142.54858446556665 L 693.8863125204091,180.79285634884388 L 693.9488010592994,218.77933352316649 L 694.0112896888161,256.51787575768344 L 694.0737782730181,294.0180792077156 L 717.9912843410268,294.5687967322803 L 741.908790454347,295.11946395014303 L 765.8262965223585,295.67154919371643 L 789.7438026356789,296.22211573905054 L 790.2385039310603,296.32635069637763 L 790.7279978481978,296.42911578156145 L 790.7436200282328,296.43205192449744 L 790.7696162293606,296.4369378794175" fill="none" stroke="#000000" stroke-width="0.7995877024654067"/>
	<path d="M 32.484391929347765,312.2149033695382 L 32.63466375782286,311.7186722251769 L 32.71798188021718,309.4895056508183 L 25.359950920776157,290.02786581945105 L 24.709028209253205,286.72030832864743 L 27.24450902349672,266.7078417040732 L 29.403523847625426,265.88927504698125 L 32.059288698895024,264.5005980909169 L 36.027313909043805,263.1499784225413 L 40.557736331702465,261.7680421897468 L 42.8958509743411,261.0739994953443 L 47.61373914960894,262.9034386422097 L 54.83637816184565,266.97077174231146 L 58.15348059345031,266.36881698519267 L 62.50685201998485,264.31462940751175 L 67.01123755143819,262.39408745284885 L 71.51041570465314,260.3385207557645 L 74.31719466084418,257.95423171216447 L 75.25973084743718,257.2050649391829 L 78.90489833477561,254.77663809661894 L 81.78978800989208,253.78901847469746 L 83.2218181136226,257.07354457370906 L 84.00292543881186,261.22758194886103 L 87.15339163077472,265.39936450240367 L 93.63137496550972,266.4720979164041 L 95.95386742811326,268.173022991594 L 102.65056083021301,270.91737463585304 L 105.85830818282214,270.904105695201 L 109.23789919863177,268.65090559445036 L 111.13859370653824,267.5829914083364 L 115.92417788956098,268.33822130416536 L 117.7363468314392,268.2556227222049 L 122.84999607019583,267.1846869712489 L 126.07336564815468,270.5296145768414 L 131.57236114861198,271.82401531321364 L 133.28038248035628,269.5151264544642 L 134.20208910867308,268.22022300031705 L 134.2906146293925,268.05502135437735 L 135.87365879273554,265.07470272162294 L 142.2370797155457,266.8984813283656 L 144.6220607170425,267.21714240956106 L 150.73552734835314,269.7569678480258 L 154.38069483569453,270.16689601640104 L 158.43203814300963,270.42345535326206 L 161.52522312900865,270.9999362910095 L 161.98868015494338,275.44330527656354 L 166.39412540919804,277.64239480603123 L 171.4036270378265,277.45241835479936 L 174.88736566376426,273.83729561728546 L 176.54331316778868,269.8705119565811 L 179.51672836362457,267.249597619083 L 182.37558114753548,265.47167313354146 L 186.74457475410227,262.80304822199895 L 192.36334009003448,259.81417789366685 L 197.601966497201,253.9043478048952 L 202.2677808447461,247.4542607900772 L 205.18912221285913,242.87869119594785 L 208.27189244237593,238.7161135955303 L 210.792265368759,234.56985402957582 L 213.15120947904742,229.58480520066118 L 217.19213802988043,224.4067545563229 L 220.30615252884377,220.65921801821474 L 223.03482076610652,218.18876900688088 L 228.65358610204146,213.52312082766213 L 232.97571325912944,212.27384294084405 L 237.08433777240282,213.14345231906907 L 240.08899723768525,214.89120873828625 L 246.64509133665746,218.09058365981934 L 251.94620632802327,221.88735705651493 L 256.143356316707,226.4155426519787 L 258.75746214204787,229.72139805052444 L 258.6376923518818,232.89627944376562 L 258.4241897080702,238.56194206102143 L 258.0492582028546,245.57411890517847 L 258.773084322083,251.8517385766486 L 261.12682105413023,256.4070312343934 L 264.03774762044924,260.9469956590407 L 267.0319923292495,263.5308400517197 L 270.73444106786354,266.51636054163697 L 279.79528591318103,272.31487042287296 L 285.7889827543314,278.7394272809616 L 287.4605524383911,285.10854599240827 L 287.5594926702808,289.5561448461566 L 288.7571905719232,293.7008430939483 L 294.053098185051,294.57173378096707 L 300.43214128789623,293.8976489469256 L 307.02989445810897,290.1689936918697 L 313.4089375609541,289.507643373541 L 317.5800506584326,289.72075309693423 L 324.15176689212797,291.9851284685971 L 327.7813121994343,293.04575629400284 L 332.1503058513157,297.43171759146804 L 332.91579099647004,302.1401055904317 L 331.738922607789,306.7319875098485 L 329.73928786799274,312.16386760717415 L 328.00522964504006,316.4804250068932 L 327.9687779520436,317.7342742990212 L 316.29382723607057,316.60479735890584 L 308.8576855800192,319.34912213574006 L 305.6811824968539,320.9810893874961 L 296.63595974094505,322.171156691193 L 291.3192225695442,322.78218250545785 L 283.9039104264573,326.07453388630154 L 280.2639503173569,332.478821432854 L 273.93177370930243,336.28669624360816 L 268.6619029873831,339.55142836878747 L 263.92839263208015,342.80715414804524 L 261.8506471280468,346.0116598805168 L 258.70538835963976,348.71090123003154 L 253.40948070120035,349.3440486935729 L 236.63650288119132,351.1776298639147 L 218.6033385753376,347.7472289545468 L 204.7048357192746,343.34912317584303 L 196.7010893818457,341.9766256659559 L 187.7235625883802,344.33532710800984 L 175.69971725839733,352.0680317960771 L 165.82131339489112,359.7446608447472 L 152.32898631349016,370.17445015475346 L 137.27965195995162,380.6666611855294 L 123.82377652623536,390.0672139515897 L 111.9249084099686,397.8480729069543 L 105.21259282783384,402.2949880112169 L 104.41586336792118,394.4588397724863 L 102.58807220069912,387.1758808678284 L 99.43760605405099,372.5761946705547 L 97.45359344897523,361.0682177102902 L 96.115296289517,353.21285518884497 L 94.59474066506431,340.0761910300454 L 91.71505836819169,333.8475925728838 L 87.35127218517493,330.8484486756496 L 80.87849618336917,328.4656055549463 L 69.07856829899227,326.3111994707461 L 59.387630142780516,323.5509943734645 L 49.6810698518484,320.7997812208339 L 39.90681359847022,316.47310895521406 L 32.67375982975129,312.2985775303972 L 32.484391929347765,312.2149033695382" fill="none" stroke="#000000" stroke-width="0.7995877024654067"/>
	<path d="M 56.63028058818121,499.00778338449925 L 55.68774444828912,498.63936787691216 L 49.06395437314918,493.31575544449504 L 48.15266251655692,492.2978058511727 L 47.522569260051974,490.37823718554085 L 46.63731434819818,485.2548393391669 L 45.68957076897239,483.76097497579826 L 38.19094050948413,479.3629975275486 L 37.56084725298202,477.88780858846104 L 37.456699625187255,470.2227633816468 L 37.23278220274854,462.40452436612384 L 37.02448689676931,455.11546974248716 L 36.34752724051084,451.6011671583436 L 34.410381071248054,448.05347215795416 L 26.713870334061124,437.3357876796259 L 20.52750037628324,428.71685247319823 L 12.836196927276497,417.979009184057 L 5.774986785154507,408.10594789572997 L 4.598118444927161,405.00489692094203 L 5.842682740702539,402.36710767040256 L 6.54567934169958,401.46931995431 L 7.4673859761897,399.2488495946291 L 9.185822061575236,397.62560112055826 L 9.628449517502867,396.81382278727017 L 9.815915267691851,395.86035742468215 L 9.878403884675626,394.74491177748956 L 27.67202859041417,386.25710350241576 L 28.619772169639965,385.12840067504095 L 30.723554583682553,377.9318244224019 L 30.60899212760586,376.74367634261233 L 30.030972710193932,375.18425581236835 L 30.176779449576248,373.23008928583386 L 31.44217325075791,367.2507572258095 L 31.244292722670906,366.44379454244967 L 30.447563271771326,365.76447230344615 L 28.192766830171816,364.5072421860989 L 27.640784307115712,363.99905235488274 L 27.1564977899916,362.8983174447119 L 26.177509977847045,357.0196192269155 L 21.90745658315758,341.9940660922046 L 21.9334935278932,341.0584981889662 L 22.167825728228358,340.14319526696255 L 23.00100685137609,337.9185031819196 L 23.66755172974096,334.59309306058003 L 24.38617049757982,333.3966740720003 L 26.557648816790902,331.00897823363204 L 26.958617261908813,329.9242848960212 L 26.45870857793867,328.7459423338153 L 25.724467693641802,327.4811996107798 L 25.56303888819255,326.30384945121887 L 26.802395795018285,325.3995029616808 L 28.218803724526165,324.63238404094 L 29.062399625567597,323.5041796648258 L 32.484391929347765,312.2149033695382 L 32.67375982975129,312.2985775303972 L 39.90681359847022,316.47310895521406 L 49.6810698518484,320.7997812208339 L 59.387630142780516,323.5509943734645 L 69.07856829899227,326.3111994707461 L 80.87849618336917,328.4656055549463 L 87.35127218517493,330.8484486756496 L 91.71505836819169,333.8475925728838 L 94.59474066506431,340.0761910300454 L 96.115296289517,353.21285518884497 L 97.45359344897523,361.0682177102902 L 99.43760605405099,372.5761946705547 L 102.58807220069912,387.1758808678284 L 104.41586336792118,394.4588397724863 L 105.21259282783384,402.2949880112169 L 104.1288691897914,409.4137795093297 L 102.25599731464082,417.7048074323067 L 101.63170668958968,428.3984148095983 L 103.19243325221616,434.5995812644385 L 106.46236455719905,439.3926490104811 L 103.08798091963054,448.3903143032041 L 103.46291247015783,459.3204996363329 L 103.32752049995962,470.7741715772845 L 103.16088426031486,481.17591384061706 L 109.27955826986944,492.364769175984 L 110.56578164691955,499.57392580857044 L 109.87329853174501,507.0926929370758 L 93.88909968528579,501.8122131828305 L 81.86525437575068,497.8398807880508 L 72.25763436365541,494.6566546363256 L 71.16929148438523,494.44600000772067 L 70.07574126655221,494.5712548924953 L 64.5038423984344,496.63051469365274 L 58.62991537442903,498.8072198412185 L 56.63028058818121,499.00778338449925" fill="none" stroke="#000000" stroke-width="0.7995877024654067"/>
	<path d="M 345.1758353794998,113.80848985401808 L 356.32467522712517,115.80922463038644 L 374.93594096551385,116.00246662151721 L 385.71153166753766,118.37807182811572 L 396.7167392359446,122.15641166034531 L 405.2945686969067,124.04818239929935 L 407.0740993106226,124.04103583351832 L 407.533332993011,124.24828136536328 L 407.88595887336476,124.50077681214137 L 409.7310942844565,125.47253811835559 L 411.1744001793762,126.84414496037387 L 411.70333899990965,127.15842351204529 L 412.15847239190725,127.3560288425387 L 419.57181640976773,129.54825958385234 L 423.49170404795365,131.46842440381573 L 427.739615773776,132.8980025338427 L 431.39708412169864,133.5734151298223 L 432.05313229697435,134.15838895475136 L 433.4390339752966,136.24571885470868 L 434.36160168084245,137.08708507837065 L 435.33337297182294,137.57425853572204 L 439.87240607101677,138.5841160248867 L 447.85569191406944,141.60783742935126 L 449.5204140442095,142.59084552608144 L 450.8981151417531,143.8988790489778 L 455.35924252202324,149.14217066591985 L 467.66014517866205,158.27413423695495 L 470.4278482952999,161.43391523435182 L 471.9326586972017,162.79668717197958 L 475.26210300786903,164.58718862013623 L 477.3655573684523,165.01048671810625 L 478.34962958098333,165.4928657745222 L 477.3685711052935,175.97668244220503 L 475.62409812586145,187.26240815120875 L 474.98359010379966,196.92982154878945 L 475.96257798339207,206.59581833721293 L 474.2545566063332,215.1621082194027 L 468.240030297533,223.6963804372781 L 464.9020983076521,235.44502523074252 L 464.2095164578703,251.99520787466415 L 464.17827218842376,273.3598295380945 L 464.17827218842376,274.3559809120788 L 458.4032854146409,272.48142766337224 L 450.3839169424916,270.32171763738523 L 443.4476839600629,265.510040663596 L 438.12053207749153,260.17162229259486 L 436.01674968225257,252.16973286150912 L 433.9077599087727,245.76364083130204 L 429.63249920116334,240.41914213006388 L 425.3520310700041,235.60669509104116 L 423.2222117835598,230.26031482634778 L 422.16511323035644,225.9817507989743 L 417.8690230097859,222.23523284211004 L 414.0936709304874,222.23969263651617 L 410.3183188965008,224.38594984688356 L 405.45983137279075,228.6731138698813 L 400.61696598380684,227.08102322362612 L 393.0766766723158,224.9625096333493 L 387.69224353846874,220.16699718769908 L 381.22467496021596,219.66134905556183 L 375.8350344934425,221.8308623439325 L 366.1336815807515,222.4270015738866 L 360.20247332380313,220.86293465669561 L 359.34325523437656,221.4160560425003 L 363.95699584482816,214.40742802780474 L 365.01930177627264,208.50352077357473 L 363.37897645228037,201.0046868280486 L 361.72823628118516,191.88669932627388 L 357.3592426746154,180.09203194858904 L 353.5214020564268,169.35467545133557 L 351.8498323723671,158.5862980525584 L 349.6262802322741,147.26999223919745 L 346.30397046774004,134.86640999231216 L 344.0804182370264,126.22708313255534 L 344.02834445461815,116.47459259743557 L 344.9083920116944,114.39745672088709 L 345.1739685285408,113.8125048033226 L 345.1758353794998,113.80848985401808" fill="none" stroke="#000000" stroke-width="0.7995877024654067"/>
	<path d="M 275.5669917408461,43.650315369877475 L 283.39262335701903,43.99258253565454 L 293.65157621044386,45.841817906444625 L 295.93134346082,46.68040914262767 L 297.0384247377055,46.868892673480914 L 297.7436764984158,47.207179651153766 L 299.6216142830036,49.741231017501306 L 301.4585490629328,50.82550362412412 L 302.13099839976604,51.511210157783445 L 302.5902321325355,53.66916060910065 L 303.0248640222067,54.861210327782075 L 304.1237446679296,57.032275920207546 L 306.2353996092915,59.964224844586575 L 306.53472156343884,60.889769235850466 L 306.44451497334836,62.13803626112868 L 305.98938158135076,64.26279397886368 L 305.84997130505496,66.65635209822305 L 305.7679652957432,68.02602672884728 L 306.0631869595025,72.35421077826895 L 306.53472156343884,74.47733077065001 L 312.57856506453436,90.08290698040625 L 313.7881538530637,92.2326144152472 L 319.24975460741945,99.94729488683727 L 322.5094938303228,103.44187787861665 L 326.23666731639037,106.36068552466575 L 340.5016141077007,112.96945195094347 L 345.1758353794998,113.80848985401808 L 345.1739685285408,113.8125048033226 L 344.9083920116944,114.39745672088709 L 344.02834445461815,116.47459259743557 L 344.0804182370264,126.22708313255534 L 346.30397046774004,134.86640999231216 L 349.6262802322741,147.26999223919745 L 351.8498323723671,158.5862980525584 L 353.5214020564268,169.35467545133557 L 357.3592426746154,180.09203194858904 L 361.72823628118516,191.88669932627388 L 363.37897645228037,201.0046868280486 L 365.01930177627264,208.50352077357473 L 363.95699584482816,214.40742802780474 L 359.34325523437656,221.4160560425003 L 356.9634816111239,219.8160226162167 L 352.1102015109696,218.24827447083908 L 345.0854430078215,216.16819514231523 L 340.2425776188375,217.8227969673603 L 335.41012703164483,220.54917832448766 L 332.1919649225534,223.25941253117097 L 325.18282855412866,222.26793804209137 L 321.3762322053835,218.0295888757353 L 318.09558146677836,212.7116421684048 L 316.4604634757153,211.1240892998412 L 313.21105700655386,209.55695696504247 L 307.27464141667906,209.63740952849204 L 302.94209945779704,208.08924544518197 L 298.0731972229195,207.08919899512549 L 290.4860414166349,204.52196382166372 L 286.653408221999,200.28992948002727 L 282.82598231497786,196.5953447615985 L 280.52431941065043,195.28113900741903 L 281.0971314702691,194.18474068739937 L 284.4038191000799,190.72985744869823 L 286.8460813528464,186.30508573826683 L 286.98147327773285,179.66071228515304 L 286.3982464616349,172.31724446942005 L 285.35677004315215,163.55853596775916 L 281.04505768785805,160.4636139300248 L 280.74823685625614,160.25171465724853 L 276.873944545068,158.34877053150302 L 265.7353541957144,155.33670956821206 L 260.24156607350113,151.3492126149465 L 255.502848339957,149.33482096172318 L 248.15002478107223,145.40180024023033 L 245.40573436377437,138.64847927334068 L 240.80761597866965,127.23706171826986 L 234.1682037825309,114.8656763956882 L 233.28294880190174,113.89131029876123 L 230.51262153871025,112.11336559304785 L 227.3152888972686,110.20594281228415 L 221.8110859732585,103.36225209617585 L 218.96264794582981,99.29901970677496 L 217.32753000007864,93.04711169435888 L 214.9998301592339,87.67280702262951 L 211.78166800483078,81.31599337155917 L 209.90701047875064,72.61428391941759 L 207.13668317024727,67.30058801244598 L 210.21945335445218,67.22263096626817 L 218.15550372943503,67.46108433549195 L 221.22785915716057,66.95053666047976 L 226.26339767699184,65.51646306493679 L 229.1066283261824,64.35577498677468 L 232.40810857775196,64.28083389772351 L 235.5221230767153,65.74276034565929 L 237.06350821412946,65.92623754513899 L 240.79720117687566,65.18923264693777 L 243.6352244478251,61.86839422498211 L 251.8472660961334,67.58030701729415 L 255.8777798451725,71.65521303937231 L 261.18930959302054,73.5197462938939 L 267.7766480067511,72.73797324778435 L 271.0781282583208,72.20960135085681 L 271.8800650964744,66.97805239717002 L 273.57246429349834,62.13309674689571 L 275.5252325838158,59.689073368913036 L 275.6970762016988,56.18254166213127 L 274.3327420604115,52.92047013498052 L 273.8484555668241,49.86036685335102 L 274.89513936354786,45.67517135698969 L 275.5356473856097,44.28602545498618 L 275.5669917408461,43.650315369877475" fill="none" stroke="#000000" stroke-width="0.7995877024654067"/>
	<path d="M 235.18938257880345,25.283236101467466 L 237.04282214680364,26.09780039453804 L 246.33000365886394,27.701092916785488 L 246.82203976512963,27.89025407251737 L 247.73230659950877,28.73412109698917 L 248.03162855365613,28.920820538813025 L 248.88859141144485,29.296624022772107 L 250.7091250298195,31.119496873952286 L 253.46452722490653,32.89812963611542 L 257.8436485454781,36.68360442966241 L 260.1275161366261,39.150090915553925 L 261.1402904826492,39.527586982277185 L 269.30808984665754,40.91634732797007 L 270.11584911900883,41.356609950250444 L 270.8867056770952,42.04112150648532 L 273.0926675493195,43.257543959914706 L 274.1054418953426,43.586389580541145 L 275.5669917408461,43.650315369877475 L 275.5356473856097,44.28602545498618 L 274.89513936354786,45.67517135698969 L 273.8484555668241,49.86036685335102 L 274.3327420604115,52.92047013498052 L 275.6970762016988,56.18254166213127 L 275.5252325838158,59.689073368913036 L 273.57246429349834,62.13309674689571 L 271.8800650964744,66.97805239717002 L 271.0781282583208,72.20960135085681 L 267.7766480067511,72.73797324778435 L 261.18930959302054,73.5197462938939 L 255.8777798451725,71.65521303937231 L 251.8472660961334,67.58030701729415 L 243.6352244478251,61.86839422498211 L 240.79720117687566,65.18923264693777 L 237.06350821412946,65.92623754513899 L 235.5221230767153,65.74276034565929 L 232.40810857775196,64.28083389772351 L 229.1066283261824,64.35577498677468 L 226.26339767699184,65.51646306493679 L 221.22785915716057,66.95053666047976 L 218.15550372943503,67.46108433549195 L 210.21945335445218,67.22263096626817 L 207.13668317024727,67.30058801244598 L 206.8398623386454,63.8066925674644 L 205.40262490198563,58.36941774735124 L 202.2261218188202,54.290507533860094 L 199.7369931618836,51.50562100462158 L 199.01316704265534,50.53508994713806 L 204.75170216875338,48.74381890288058 L 206.4909677699472,47.600954835557935 L 207.30852674282136,44.50862022207925 L 209.83931447099553,38.95784795302561 L 213.58862961377957,37.792891073344386 L 215.98923274999686,37.04583122300491 L 222.56094898368946,34.03192529168803 L 223.34205630887882,33.94886485524017 L 227.85685664212886,33.46893394342363 L 228.05473715121732,32.36431198771246 L 231.9550663536111,28.09903884765335 L 235.18938257880345,25.283236101467466" fill="none" stroke="#000000" stroke-width="0.7995877024654067"/>
	<path d="M 192.30050164698042,18.17170269738454 L 192.91948436152578,17.889339247768255 L 194.54320348701015,16.584417260454238 L 195.40016639518004,16.06187137460402 L 196.5605515478909,15.852838412569993 L 200.05400787718435,15.709427203953165 L 204.82265779237744,16.56983526843692 L 205.3966999079575,16.849315955830654 L 205.92153843810308,17.298884089688368 L 215.89347020854456,22.62515477879884 L 218.1855383804741,23.185883887192624 L 226.75926755104544,22.81449856578536 L 228.9365273401645,23.144620134426138 L 233.21724143948293,24.416365356530747 L 235.18938257880345,25.283236101467466 L 231.9550663536111,28.09903884765335 L 228.05473715121732,32.36431198771246 L 227.85685664212886,33.46893394342363 L 223.34205630887882,33.94886485524017 L 222.56094898368946,34.03192529168803 L 215.98923274999686,37.04583122300491 L 213.58862961377957,37.792891073344386 L 209.83931447099553,38.95784795302561 L 207.30852674282136,44.50862022207925 L 206.4909677699472,47.600954835557935 L 204.75170216875338,48.74381890288058 L 199.01316704265534,50.53508994713806 L 196.55007532223604,47.20664807665789 L 196.6750524906431,43.03471525148023 L 195.86270085069532,36.689172843061016 L 195.32113310583514,31.77959952508722 L 190.94693216633905,27.49075227313783 L 192.6914051457711,23.80873274755528 L 192.3581327117962,18.976599000763557 L 192.3320957752789,18.57552011438311 L 192.30085146052048,18.175953297133482 L 192.30050164698042,18.17170269738454" fill="none" stroke="#000000" stroke-width="0.7995877024654067"/>
	<path d="M 165.59733518174565,22.042506924180138 L 173.4881584292322,22.877611665015365 L 178.25270805403738,22.532907891530385 L 190.85293271521044,18.83198578496357 L 192.30050164698042,18.17170269738454 L 192.30085146052048,18.175953297133482 L 192.3320957752789,18.57552011438311 L 192.3581327117962,18.976599000763557 L 192.6914051457711,23.80873274755528 L 190.94693216633905,27.49075227313783 L 190.7907106831764,27.818773766478117 L 185.5520842760127,30.603823493874355 L 183.3493616035722,34.561021021262185 L 181.9485758599091,37.078113811040566 L 178.19926067181603,46.186224198015815 L 178.52211839462345,50.34494936176641 L 178.01179491920695,54.897257162169495 L 173.79902275049082,55.49781006115351 L 171.4036270378265,56.075318752638125 L 169.4144070545126,56.533298485798866 L 165.63384764228488,55.33389032791177 L 161.4106607170838,54.14953560397749 L 156.94793425686825,52.31656101744102 L 151.44373133285805,52.712021931480145 L 143.93468629081073,52.520426340794465 L 129.79664385441865,52.0881612930657 L 141.6330234317951,49.308257027648644 L 142.8671729811253,46.195431979345926 L 147.2205444529717,44.07723832584435 L 151.14691059187984,42.19317742802877 L 153.70373516594782,38.81646844433078 L 159.99946012631474,34.662527448555565 L 161.9782653531495,31.311782856963262 L 164.67568932096856,22.833104824821145 L 165.59218857104423,22.04692210486372 L 165.59733518174565,22.042506924180138" fill="none" stroke="#000000" stroke-width="0.7995877024654067"/>
	<path d="M 639.8647535306965,16.04107725672927 L 645.4081885544985,15.444470858780965 L 645.6665075039899,15.245137082209657 L 646.1954463245235,14.379648585843007 L 646.441464402848,14.185137128677695 L 647.5567462101255,13.980892282470936 L 648.0979859522096,13.959008431187907 L 648.6925295701191,14.185137128677695 L 649.0984593766821,14.54011512058211 L 649.1804653859938,14.856171194904698 L 649.1804653859938,15.254860833798265 L 649.3813801188909,15.852838412569993 L 650.9804974516579,17.532158280098724 L 653.022447305256,17.96708968660617 L 657.6721884968695,17.889339247768255 L 659.6649347650331,18.59391064985094 L 664.609897620406,22.370258121244177 L 665.5898695425462,22.952860873502985 L 666.4509326907228,23.331518008709963 L 667.3776006866595,23.5353990348128 L 669.7270731255675,23.71014792245821 L 681.4990369616729,27.293645760932712 L 684.2298373640429,29.10266429662665 L 685.1278032264876,29.364508252174094 L 685.6977450516767,29.459059818060574 L 687.3788684441425,30.142689962768433 L 688.0554180713638,30.24207559427852 L 689.7816447588731,30.142689962768433 L 690.9297289900303,30.50871079067577 L 693.0290830602257,31.58238683986203 L 695.300649729826,31.943461245234705 L 696.2929225735169,32.338433838088996 L 696.9243689056942,32.96354476295379 L 697.0391772885021,33.8041779830241 L 696.7521562559053,34.41700492668132 L 695.878792186178,35.504415940357305 L 695.7024792459981,36.05651230299074 L 696.1781141403253,39.687288767121345 L 696.6537490346523,40.611528701298006 L 697.4287058831264,41.34451534302954 L 698.4496808099256,41.96130666170574 L 698.0478513441343,43.122130998424545 L 697.4164050119598,46.868892673480914 L 696.4200318778779,46.462919787862276 L 696.596344818055,45.8925721950375 L 696.4815363848633,45.39467626678281 L 696.153512297224,44.92815861378554 L 695.7024792459981,44.43500729330499 L 694.9316226375307,49.30649392717876 L 695.0054280660665,50.516423935738594 L 695.7598834122115,51.13939435579616 L 698.8310088237712,52.327182366350755 L 699.96269184299,52.53960431350246 L 700.7745514057322,53.03200449278588 L 701.7545233278726,54.173521874797125 L 702.5745835217774,55.46437276709615 L 703.2142304347307,57.24451047394222 L 703.6100347733337,57.47457022336888 L 703.5355915600684,57.86872054250508 L 701.9108883254877,63.08622321125335 L 699.4477966050683,70.09864930429305 L 696.911801498653,79.28334320266322 L 696.2504639636297,89.88040229069804 L 694.5424426318823,99.06956555753409 L 690.2099006730003,105.44965197126332 L 688.7570411016173,115.44445575307952 L 688.7101746521355,124.38959677830734 L 689.3715121871618,128.7441261531991 L 689.3767195654028,140.83263424178665 L 685.3409984381226,141.20361390397758 L 680.3575337460085,141.28806108432303 L 675.2907509114187,139.80703314230524 L 671.7601458360025,139.10106812657133 L 666.3496758109527,135.33591323477538 L 663.5637263677261,129.5330169346291 L 657.4867114294092,124.03412754610748 L 653.6072117399829,120.61288605821822 L 646.2283512898924,122.09301172948825 L 636.4176433435176,112.5893596239951 L 637.964235859173,106.38758332653508 L 638.9171867569365,102.06690364069699 L 638.9276015587304,92.55571581604426 L 640.12009203682,89.3232596980954 L 640.588756440996,82.80378006155964 L 640.4950235420356,76.80897205255832 L 640.7814296171581,67.2746024563219 L 639.5733169137187,61.78729782336244 L 639.4587545017968,56.59762691423367 L 638.5110109822743,51.381439671250426 L 639.3962659629063,49.4923000226333 L 640.0784330108941,45.13490588746703 L 641.5833664553089,40.7969741997918 L 642.2342891885411,37.530048710643534 L 641.8176986573968,33.13818702340691 L 640.2606913399476,29.811103980422175 L 639.0161270794497,25.39277915158295 L 639.4379249888323,20.469577124082754 L 639.5524874007571,16.754853130383445 L 639.599353850236,16.751766692706823 L 639.8647535306965,16.04107725672927" fill="none" stroke="#000000" stroke-width="0.7995877024654067"/>
	<path d="M 608.1660587250107,23.965240262454188 L 611.0763692587133,23.185883887192624 L 613.0814163980433,22.042515680415956 L 620.8432859554885,14.987450428053025 L 621.577239799304,14.627640258937364 L 624.0210191186933,14.440431963742384 L 626.2679840459602,13.813113790453041 L 627.6456851435039,14.980157183850434 L 629.8516470157283,15.869852991541848 L 632.3036269158932,16.431304529148576 L 634.3865797741498,16.630593231094387 L 639.8647535306965,16.04107725672927 L 639.599353850236,16.751766692706823 L 639.5524874007571,16.754853130383445 L 639.4379249888323,20.469577124082754 L 639.0161270794497,25.39277915158295 L 640.2606913399476,29.811103980422175 L 641.8176986573968,33.13818702340691 L 642.2342891885411,37.530048710643534 L 641.5833664553089,40.7969741997918 L 640.0784330108941,45.13490588746703 L 639.3962659629063,49.4923000226333 L 638.5110109822743,51.381439671250426 L 639.4587545017968,56.59762691423367 L 639.5733169137187,61.78729782336244 L 640.7814296171581,67.2746024563219 L 640.4950235420356,76.80897205255832 L 640.588756440996,82.80378006155964 L 640.12009203682,89.3232596980954 L 638.9276015587304,92.55571581604426 L 638.9171867569365,102.06690364069699 L 637.964235859173,106.38758332653508 L 636.4176433435176,112.5893596239951 L 646.2283512898924,122.09301172948825 L 639.13068944606,122.82233427843582 L 630.1219183831508,123.66653301344962 L 626.3101146561645,125.26985183469105 L 626.03933076108,112.60300215717533 L 624.4406645083254,111.20825656915063 L 623.1492337077225,108.46320846516991 L 621.1600137244084,101.35607754495358 L 621.3526868552558,94.56665853484168 L 623.4096028463276,89.44961121462373 L 623.8470228904335,83.74562990153831 L 623.5189578800088,75.83996590603311 L 622.0244391920761,70.35377948340302 L 616.6504208147111,66.13722862237717 L 613.4530881732726,62.51559166868598 L 611.6825782573203,56.74466050877799 L 608.5373194436016,50.93681621459934 L 607.0480081792188,44.88931250313391 L 606.8969941196093,39.96276299493081 L 609.7454321470408,36.46778658008669 L 613.432258660308,32.71818540652779 L 613.2552077094929,28.87969871337439 L 610.0578750680543,24.696350637314666 L 609.6933582740062,23.95205620606771 L 609.6100401768398,23.996747643864712 L 609.1309610614962,24.041438755355216 L 608.7039556832464,24.275675471570423 L 608.2769503503109,24.2371503811987 L 608.167595361939,23.969008210617762 L 608.1660587250107,23.965240262454188" fill="none" stroke="#000000" stroke-width="0.7995877024654067"/>
	<path d="M 568.8152292319528,36.9292130366161 L 579.9263834165206,32.149432245376865 L 586.8558919088973,27.407637127910718 L 592.7439239721423,24.445485674245777 L 595.0482930656227,23.9212950375844 L 604.6265959510516,24.51343249482212 L 606.8981626206519,24.304735908253683 L 608.1660587250107,23.965240262454188 L 608.167595361939,23.969008210617762 L 608.2769503503109,24.2371503811987 L 608.7039556832464,24.275675471570423 L 609.1309610614962,24.041438755355216 L 609.6100401768398,23.996747643864712 L 609.6933582740062,23.95205620606771 L 610.0578750680543,24.696350637314666 L 613.2552077094929,28.87969871337439 L 613.432258660308,32.71818540652779 L 609.7454321470408,36.46778658008669 L 606.8969941196093,39.96276299493081 L 607.0480081792188,44.88931250313391 L 608.5373194436016,50.93681621459934 L 611.6825782573203,56.74466050877799 L 613.4530881732726,62.51559166868598 L 616.6504208147111,66.13722862237717 L 622.0244391920761,70.35377948340302 L 623.5189578800088,75.83996590603311 L 623.8470228904335,83.74562990153831 L 623.4096028463276,89.44961121462373 L 621.3526868552558,94.56665853484168 L 621.1600137244084,101.35607754495358 L 623.1492337077225,108.46320846516991 L 624.4406645083254,111.20825656915063 L 626.03933076108,112.60300215717533 L 626.3101146561645,125.26985183469105 L 623.1908927789601,126.58543498546886 L 610.2036817494229,127.19170737045526 L 606.2512787193093,127.05866577144914 L 604.7307231401682,112.92738119696511 L 602.3874011646033,108.26448024541513 L 601.450072401563,102.27041368123678 L 601.028274446866,97.37191191262531 L 597.5549505774103,94.03737514646525 L 594.8002454036304,94.79478202208162 L 588.7700969147951,95.21754550417609 L 582.224417617617,94.27464651465522 L 578.3865769541162,94.47540642540046 L 574.2415007931526,96.30167710484172 L 567.4302449791279,95.09589035045587 L 565.3004256926862,92.06731841034353 L 563.243509746929,85.77660155503675 L 560.603367030383,81.10559707766421 L 557.4476934601818,74.51817391254377 L 555.3751553796985,68.216116616746 L 555.4636808551061,63.852579040689726 L 557.7913806506389,57.34041121360034 L 561.4729998309798,52.21079319577084 L 565.9565558494686,48.18852501152575 L 568.2425965737639,44.3996267286549 L 568.9351784235455,37.84668760664696 L 568.9351784235455,37.812872705194906 L 568.8152292319528,36.9292130366161" fill="none" stroke="#000000" stroke-width="0.7995877024654067"/>
	<path d="M 546.9289661051716,116.00036738488771 L 546.2465119552392,114.87870479466302 L 544.995920162057,111.02132846538701 L 543.9339422305992,109.38541977631522 L 541.723880067987,107.07998809157571 L 540.9120205052449,105.85162009800493 L 537.5169713468205,96.28765860995922 L 537.2176493926704,93.84253959747288 L 537.1725460976267,91.24773719377461 L 536.9880325262872,90.2842535625244 L 536.1105681661688,88.06183590935794 L 535.7948450000832,86.9682731015153 L 535.622632350294,84.52134528917006 L 535.7456413642645,81.84044807212047 L 536.4836955488549,76.89757915480209 L 537.1725460976267,74.6792600458079 L 537.0618379548227,74.08787435630776 L 536.8568229315381,73.44112210461459 L 536.7748169222234,72.80150618677578 L 537.0003334478376,72.22434382001154 L 537.6358800704002,71.32480888525153 L 542.2118158838617,61.66093382329799 L 543.3968028292899,59.862983724126416 L 552.9792060051097,50.19042197898696 L 553.7582631439717,48.92727752939073 L 556.1897415921943,46.01824724874286 L 557.2107165189934,45.41884704646759 L 559.2157636583237,44.54379463467596 L 560.1137295207682,43.789489946337746 L 560.7902791983732,43.06893212438146 L 568.1421186588647,37.21863195501341 L 568.8152292319528,36.9292130366161 L 568.9351784235455,37.812872705194906 L 568.9351784235455,37.84668760664696 L 568.2425965737639,44.3996267286549 L 565.9565558494686,48.18852501152575 L 561.4729998309798,52.21079319577084 L 557.7913806506389,57.34041121360034 L 555.4636808551061,63.852579040689726 L 555.3751553796985,68.216116616746 L 557.4476934601818,74.51817391254377 L 560.603367030383,81.10559707766421 L 563.243509746929,85.77660155503675 L 565.3004256926862,92.06731841034353 L 567.4302449791279,95.09589035045587 L 574.2415007931526,96.30167710484172 L 578.3865769541162,94.47540642540046 L 582.224417617617,94.27464651465522 L 588.7700969147951,95.21754550417609 L 594.8002454036304,94.79478202208162 L 597.5549505774103,94.03737514646525 L 601.028274446866,97.37191191262531 L 601.450072401563,102.27041368123678 L 602.3874011646033,108.26448024541513 L 604.7307231401682,112.92738119696511 L 606.2512787193093,127.05866577144914 L 586.8537802721654,126.41004205501169 L 576.9805837869002,128.3027817919509 L 569.7058709469408,128.70029560368764 L 566.1700584932831,127.6240704157627 L 560.8272844306767,123.94185299263997 L 557.0779692878926,118.87042812189792 L 554.8596245260436,115.54141803684416 L 549.3241773325899,113.71551194620238 L 546.4861540616433,113.83978374672219 L 546.6319607883236,114.36563452827517 L 547.2308097391449,114.95355778839377 L 547.3714090422724,115.2187087481866 L 547.5224231018822,115.73230755349444 L 546.9289661051716,116.00036738488771" fill="none" stroke="#000000" stroke-width="0.7995877024654067"/>
	<path d="M 199.7369931618836,51.50562100462158 L 196.6542229323669,51.807630063386455 L 194.91495728586133,52.95112362433612 L 189.63987923101274,53.75418139150052 L 185.2292265532053,53.878307359041806 L 178.01179491920695,54.897257162169495 L 178.52211839462345,50.34494936176641 L 178.19926067181603,46.186224198015815 L 181.9485758599091,37.078113811040566 L 183.3493616035722,34.561021021262185 L 185.5520842760127,30.603823493874355 L 190.7907106831764,27.818773766478117 L 190.94693216633905,27.49075227313783 L 195.32113310583514,31.77959952508722 L 195.86270085069532,36.689172843061016 L 196.6750524906431,43.03471525148023 L 196.55007532223604,47.20664807665789 L 199.01316704265534,50.53508994713806 L 199.7369931618836,51.50562100462158" fill="none" stroke="#000000" stroke-width="0.7995877024654067"/>
	<path d="M 178.01179491920695,54.897257162169495 L 185.2292265532053,53.878307359041806 L 189.63987923101274,53.75418139150052 L 194.91495728586133,52.95112362433612 L 196.6542229323669,51.807630063386455 L 199.7369931618836,51.50562100462158 L 202.2261218188202,54.290507533860094 L 205.40262490198563,58.36941774735124 L 206.8398623386454,63.8066925674644 L 207.13668317024727,67.30058801244598 L 209.90701047875064,72.61428391941759 L 211.78166800483078,81.31599337155917 L 214.9998301592339,87.67280702262951 L 217.32753000007864,93.04711169435888 L 218.96264794582981,99.29901970677496 L 221.8110859732585,103.36225209617585 L 227.3152888972686,110.20594281228415 L 230.51262153871025,112.11336559304785 L 233.28294880190174,113.89131029876123 L 234.1682037825309,114.8656763956882 L 240.80761597866965,127.23706171826986 L 245.40573436377437,138.64847927334068 L 248.15002478107223,145.40180024023033 L 255.502848339957,149.33482096172318 L 260.24156607350113,151.3492126149465 L 265.7353541957144,155.33670956821206 L 276.873944545068,158.34877053150302 L 280.74823685625614,160.25171465724853 L 281.04505768785805,160.4636139300248 L 285.35677004315215,163.55853596775916 L 286.3982464616349,172.31724446942005 L 286.98147327773285,179.66071228515304 L 286.8460813528464,186.30508573826683 L 284.4038191000799,190.72985744869823 L 281.0971314702691,194.18474068739937 L 280.52431941065043,195.28113900741903 L 278.93606786906923,198.31978120877034 L 275.9314084037868,202.47122705066545 L 274.5983185772579,205.5984936666388 L 274.6972588544566,209.9606982107887 L 275.6397949957378,214.0203741944199 L 275.74915002942157,218.65735789678195 L 275.3950480824794,221.61528572777235 L 273.3589616043748,224.46916818512335 L 269.349277413612,226.94436824951023 L 263.0118933820044,231.582898948085 L 258.6376923518818,232.89627944376562 L 258.75746214204787,229.72139805052444 L 256.143356316707,226.4155426519787 L 251.94620632802327,221.88735705651493 L 246.64509133665746,218.09058365981934 L 240.08899723768525,214.89120873828625 L 237.08433777240282,213.14345231906907 L 232.97571325912944,212.27384294084405 L 228.65358610204146,213.52312082766213 L 223.03482076610652,218.18876900688088 L 220.30615252884377,220.65921801821474 L 217.19213802988043,224.4067545563229 L 213.15120947904742,229.58480520066118 L 210.792265368759,234.56985402957582 L 208.27189244237593,238.7161135955303 L 205.18912221285913,242.87869119594785 L 202.2677808447461,247.4542607900772 L 197.601966497201,253.9043478048952 L 192.36334009003448,259.81417789366685 L 186.74457475410227,262.80304822199895 L 182.37558114753548,265.47167313354146 L 179.51672836362457,267.249597619083 L 176.54331316778868,269.8705119565811 L 174.88736566376426,273.83729561728546 L 171.4036270378265,277.45241835479936 L 166.39412540919804,277.64239480603123 L 161.98868015494338,275.44330527656354 L 161.52522312900865,270.9999362910095 L 158.43203814300963,270.42345535326206 L 154.38069483569453,270.16689601640104 L 150.73552734835314,269.7569678480258 L 144.6220607170425,267.21714240956106 L 142.2370797155457,266.8984813283656 L 135.87365879273554,265.07470272162294 L 134.2906146293925,268.05502135437735 L 132.76485167201332,257.7163409339187 L 131.54632421209467,252.95650985039856 L 127.05756086067369,246.70819781788256 L 123.07912089404269,239.90339474470807 L 123.10515783056,223.85094621655665 L 121.10031571252266,211.59474164443984 L 119.05381452324762,198.24812667259437 L 117.55408845707113,185.3999686851196 L 117.17394957361451,173.56780659875366 L 117.38224488449704,163.31821478210705 L 116.05436239089452,155.80900196770608 L 116.49178252562679,152.55328511712742 L 119.12151048569095,149.7564280099813 L 123.26137926841076,143.11994772090853 L 130.03097605650652,133.14204048300277 L 134.8530118872172,124.37598353238958 L 133.97817166306734,124.02958945578526 L 131.4265544219287,119.33372452706114 L 129.30714989196935,114.62172224028579 L 128.48959091909234,109.42489033664862 L 128.91659629734227,102.00159657241225 L 128.2969177882449,96.13595430331412 L 128.52083523385076,89.14666699591686 L 129.43733448392646,83.21833612441839 L 128.64060502401378,78.87611116887624 L 127.78659435814305,72.56389111548116 L 128.65622711342533,65.0944237588734 L 129.79664385441865,59.14104256104183 L 129.79664385441865,52.0881612930657 L 143.93468629081073,52.520426340794465 L 151.44373133285805,52.712021931480145 L 156.94793425686825,52.31656101744102 L 161.4106607170838,54.14953560397749 L 165.63384764228488,55.33389032791177 L 169.4144070545126,56.533298485798866 L 171.4036270378265,56.075318752638125 L 173.79902275049082,55.49781006115351 L 178.01179491920695,54.897257162169495" fill="none" stroke="#000000" stroke-width="0.7995877024654067"/>
	<path d="M 258.6376923518818,232.89627944376562 L 263.0118933820044,231.582898948085 L 269.349277413612,226.94436824951023 L 273.3589616043748,224.46916818512335 L 275.3950480824794,221.61528572777235 L 275.74915002942157,218.65735789678195 L 275.6397949957378,214.0203741944199 L 274.6972588544566,209.9606982107887 L 274.5983185772579,205.5984936666388 L 275.9314084037868,202.47122705066545 L 278.93606786906923,198.31978120877034 L 280.52431941065043,195.28113900741903 L 282.82598231497786,196.5953447615985 L 286.653408221999,200.28992948002727 L 290.4860414166349,204.52196382166372 L 298.0731972229195,207.08919899512549 L 302.94209945779704,208.08924544518197 L 307.27464141667906,209.63740952849204 L 313.21105700655386,209.55695696504247 L 316.4604634757153,211.1240892998412 L 318.09558146677836,212.7116421684048 L 321.3762322053835,218.0295888757353 L 325.18282855412866,222.26793804209137 L 332.1919649225534,223.25941253117097 L 335.41012703164483,220.54917832448766 L 340.2425776188375,217.8227969673603 L 345.0854430078215,216.16819514231523 L 352.1102015109696,218.24827447083908 L 356.9634816111239,219.8160226162167 L 359.34325523437656,221.4160560425003 L 360.20247332380313,220.86293465669561 L 366.1336815807515,222.4270015738866 L 375.8350344934425,221.8308623439325 L 381.22467496021596,219.66134905556183 L 387.69224353846874,220.16699718769908 L 393.0766766723158,224.9625096333493 L 400.61696598380684,227.08102322362612 L 405.45983137279075,228.6731138698813 L 410.3183188965008,224.38594984688356 L 414.0936709304874,222.23969263651617 L 417.8690230097859,222.23523284211004 L 422.16511323035644,225.9817507989743 L 423.2222117835598,230.26031482634778 L 425.3520310700041,235.60669509104116 L 429.63249920116334,240.41914213006388 L 433.9077599087727,245.76364083130204 L 436.01674968225257,252.16973286150912 L 438.12053207749153,260.17162229259486 L 443.4476839600629,265.510040663596 L 450.3839169424916,270.32171763738523 L 458.4032854146409,272.48142766337224 L 464.17827218842376,274.3559809120788 L 464.17827218842376,273.3598295380945 L 475.2283370623698,277.09159376881917 L 489.6319560156083,281.4480139652133 L 489.62154130443776,281.55839230910647 L 498.0835372442459,282.17500181794463 L 497.96376745408276,357.7086557824676 L 497.9221083828422,386.0285302197546 L 497.8752419333633,414.2215150493199 L 495.75583740340113,413.18849424997865 L 490.45472241203544,411.35544909864825 L 483.64346659801083,409.6458679879637 L 475.74386791602467,408.0713847860565 L 470.01574754641155,406.65950223596786 L 464.969794315407,406.075333728805 L 459.80407120361576,401.3971901941492 L 455.17470850375554,396.03810461503025 L 449.3059888763241,393.4081888003427 L 442.1874974742154,395.1582146149509 L 436.7145388649637,398.01272149114476 L 434.39204644767176,400.87750721046217 L 427.8359523486996,405.6454673511904 L 423.7377426372175,406.8700783555885 L 417.18685591648637,407.4137946225549 L 413.51044415969835,409.73669186739426 L 409.2872572345002,411.51542893219425 L 401.9083967844099,408.80100078865496 L 393.30059407260967,406.9176734094179 L 385.6405350162645,405.31367161569176 L 382.74523053935684,401.36687656599537 L 378.7615832397966,398.5196391214418 L 374.91332786512567,396.21869103392146 L 369.5288947312816,390.6485043522542 L 366.8731298347003,384.91715363305644 L 367.23243915988064,379.15745711660475 L 364.4516971402068,375.2016945225506 L 361.41058598193075,373.44471656064536 L 356.9947259711941,371.1506317613652 L 354.5108046471867,370.0758082123033 L 352.2820451288554,367.07664673135235 L 351.81338072467946,362.4103763046707 L 351.90190620008707,358.28275704983906 L 352.34453366774574,354.20331428503306 L 352.39660749546573,353.7364654588867 L 351.25098346685485,349.89272443569837 L 347.92346623345617,348.0005349082276 L 344.71571888084696,345.00387554181407 L 341.38299435983083,343.11165334624934 L 339.4250186459605,341.2042801093282 L 337.84718186086144,336.8088192651727 L 336.39952962240767,332.1329323463113 L 331.5931159264205,324.8720733234143 L 327.9167041696325,319.38861036302416 L 327.9687779520436,317.7342742990212 L 328.00522964504006,316.4804250068932 L 329.73928786799274,312.16386760717415 L 331.738922607789,306.7319875098485 L 332.91579099647004,302.1401055904317 L 332.1503058513157,297.43171759146804 L 327.7813121994343,293.04575629400284 L 324.15176689212797,291.9851284685971 L 317.5800506584326,289.72075309693423 L 313.4089375609541,289.507643373541 L 307.02989445810897,290.1689936918697 L 300.43214128789623,293.8976489469256 L 294.053098185051,294.57173378096707 L 288.7571905719232,293.7008430939483 L 287.5594926702808,289.5561448461566 L 287.4605524383911,285.10854599240827 L 285.7889827543314,278.7394272809616 L 279.79528591318103,272.31487042287296 L 270.73444106786354,266.51636054163697 L 267.0319923292495,263.5308400517197 L 264.03774762044924,260.9469956590407 L 261.12682105413023,256.4070312343934 L 258.773084322083,251.8517385766486 L 258.0492582028546,245.57411890517847 L 258.4241897080702,238.56194206102143 L 258.6376923518818,232.89627944376562" fill="none" stroke="#000000" stroke-width="0.7995877024654067"/>
	<path d="M 327.9687779520436,317.7342742990212 L 327.9167041696325,319.38861036302416 L 331.5931159264205,324.8720733234143 L 336.39952962240767,332.1329323463113 L 337.84718186086144,336.8088192651727 L 339.4250186459605,341.2042801093282 L 341.38299435983083,343.11165334624934 L 344.71571888084696,345.00387554181407 L 347.92346623345617,348.0005349082276 L 351.25098346685485,349.89272443569837 L 352.39660749546573,353.7364654588867 L 352.34453366774574,354.20331428503306 L 326.21389021612634,361.36165783913 L 320.92318998124273,362.4771861965376 L 311.40409544291686,364.1791468552957 L 301.87458614811163,365.363857312386 L 292.8970593546462,367.60200220111665 L 286.5596753230387,369.282264870656 L 279.1808148276365,372.03530178132 L 275.0044943972289,376.3147744225246 L 269.79190488127074,381.6629446429242 L 264.58973016710354,387.5361034297999 L 258.8668171757288,393.4183059123447 L 249.95177896646814,397.27032534322615 L 244.18720694916453,399.4885923618644 L 234.1838259172542,400.75624178038856 L 234.17861849370135,400.65229819700323 L 234.07447088357048,394.99060283432107 L 236.07410562336955,388.6484694629139 L 241.79181119118857,383.2714386159569 L 244.85375190774366,376.90022218180417 L 244.27052509164287,373.75787714356056 L 241.5731011238239,370.66038409369366 L 239.38079325318023,366.4989953166919 L 239.77655431667185,359.1183800350101 L 238.61530810802597,353.34667089284653 L 236.63650288119132,351.1776298639147 L 253.40948070120035,349.3440486935729 L 258.70538835963976,348.71090123003154 L 261.8506471280468,346.0116598805168 L 263.92839263208015,342.80715414804524 L 268.6619029873831,339.55142836878747 L 273.93177370930243,336.28669624360816 L 280.2639503173569,332.478821432854 L 283.9039104264573,326.07453388630154 L 291.3192225695442,322.78218250545785 L 296.63595974094505,322.171156691193 L 305.6811824968539,320.9810893874961 L 308.8576855800192,319.34912213574006 L 316.29382723607057,316.60479735890584 L 327.9687779520436,317.7342742990212" fill="none" stroke="#000000" stroke-width="0.7995877024654067"/>
	<path d="M 236.63650288119132,351.1776298639147 L 238.61530810802597,353.34667089284653 L 239.77655431667185,359.1183800350101 L 239.38079325318023,366.4989953166919 L 241.5731011238239,370.66038409369366 L 244.27052509164287,373.75787714356056 L 244.85375190774366,376.90022218180417 L 241.79181119118857,383.2714386159569 L 236.07410562336955,388.6484694629139 L 234.07447088357048,394.99060283432107 L 234.17861849370135,400.65229819700323 L 220.8216833824985,405.5214065756743 L 211.38069956309815,407.84931136930646 L 207.76156901227398,411.08448321773653 L 202.63229763879107,417.49814147864913 L 197.45095239227948,421.29839683150635 L 185.36461852340352,422.15458718528527 L 177.01718495020575,425.01013987300854 L 172.32533366614342,426.7171199971447 L 168.20108701814388,429.9759688064749 L 161.91056943601805,430.6930713238196 L 155.03682499247955,429.3421514824244 L 149.90234624075566,433.68709608093945 L 144.77307482196395,438.03347111552415 L 139.01371018290146,438.74825858495973 L 129.58314116529502,439.59499470194504 L 125.33912477244422,438.17987970905665 L 116.26265770177991,433.8063115615117 L 106.46236455719905,439.3926490104811 L 103.19243325221616,434.5995812644385 L 101.63170668958968,428.3984148095983 L 102.25599731464082,417.7048074323067 L 104.1288691897914,409.4137795093297 L 105.21259282783384,402.2949880112169 L 111.9249084099686,397.8480729069543 L 123.82377652623536,390.0672139515897 L 137.27965195995162,380.6666611855294 L 152.32898631349016,370.17445015475346 L 165.82131339489112,359.7446608447472 L 175.69971725839733,352.0680317960771 L 187.7235625883802,344.33532710800984 L 196.7010893818457,341.9766256659559 L 204.7048357192746,343.34912317584303 L 218.6033385753376,347.7472289545468 L 236.63650288119132,351.1776298639147" fill="none" stroke="#000000" stroke-width="0.7995877024654067"/>
</svg>
