<?xml version="1.0" ?>
<svg xmlns="http://www.w3.org/2000/svg" xmlns:ev="http://www.w3.org/2001/xml-events" xmlns:xlink="http://www.w3.org/1999/xlink" baseProfile="full" height="600px" version="1.1" viewBox="-80.47854287261306 -96.187117395226 960.9570857452261 1149.4599800165813" width="502px">
	<defs/>
	<path d="M 26.18562027699248,641.6480096536428 L 26.76275986044079,633.3144889483539 L 24.697466678376546,627.0120404311526 L 17.46893991676109,622.8291425180914 L 14.241918929521992,620.8246599817662 L 8.906577758245914,614.4473170956937 L 4.474802380128916,607.0225661038777 L 1.5059429885984643,598.317178747468 L 1.2047548071980891,588.5482849522709 L 3.5282095849579203,570.3987980650656 L 1.5919969926318762,561.2768628476983 L 5.894691781048116,557.333469502065 L 10.584628338555314,555.3543295210037 L 15.403646734732545,555.732702893727 L 20.093583708546873,558.7595454956436 L 24.396278080657726,558.1483768872763 L 25.945248071278556,554.7139951337786 L 25.041682278118607,549.6636760305836 L 22.11584988860007,544.0303238444768 L 30.501929197789888,539.1509294825829 L 37.41226536815386,547.9756760816628 L 51.46056293454945,567.3879684364518 L 62.26032609517836,573.9775424487495 L 73.9636559377257,582.2818338077366 L 82.9132603185913,596.9367794517512 L 91.84406140511685,621.7071650208645 L 72.90542962216587,625.3211432958552 L 28.692701974842468,619.5568991217351 L 28.692701974842468,623.7429329086915 L 36.51886289944162,629.4836176271649 L 33.06315555928866,645.762823880182 L 40.07620884995012,650.6085397887402 L 31.94513251058801,647.8657644148119 L 26.18562027699248,641.6480096536428" fill="none" stroke="#000000" stroke-width="0.9570857452261293"/>
	<path d="M 93.67355389370417,658.3328689854679 L 91.437507796302,669.7562668303418 L 88.6593900817197,669.7562668303418 L 85.30532093561689,667.4947297371253 L 76.2594987682678,668.7511572069084 L 74.43000627968223,667.7003300553233 L 72.26171939460495,664.0678809158258 L 67.17979678658008,659.9552188753721 L 61.3525253406588,656.5276312145969 L 57.08371036657163,654.7680059299239 L 58.06621540690525,652.8254595833238 L 58.100094804915,652.208393363149 L 58.50664841372985,651.7970094628121 L 60.20062289394927,650.6085397887402 L 49.73186226313572,643.156831091934 L 46.47943172739018,637.5784399394361 L 48.5460800020858,631.0844371740919 L 53.83127983082609,629.1634451471939 L 88.01567985415879,640.5049199477306 L 91.41108192009465,650.1546250022087 L 94.27237410401942,658.3102470447783 L 93.67355389370417,658.3328689854679" fill="none" stroke="#000000" stroke-width="0.9570857452261293"/>
	<path d="M 795.9124402215781,409.90019452140706 L 785.0111060933161,411.7632571419108 L 762.22234178097,415.65758546797895 L 746.2593452691625,421.58932998475615 L 742.7311356842038,423.86825311101245 L 739.2459531012316,430.10530937275433 L 738.9017370852198,435.5380849175832 L 739.5471412826337,440.6925945415159 L 738.9017370852198,446.1675116047253 L 728.4892163383737,457.90282673827596 L 714.3763779985525,453.7433733582668 L 698.8006240884266,444.328035441063 L 683.9133005451845,440.42977678810684 L 679.2233635713213,442.678264304092 L 675.3014658713113,445.8376280924255 L 675.2437075291936,445.58401789348017 L 671.9521462098626,431.1281272613529 L 675.6094364814526,403.89382714147837 L 683.0315844956928,393.4707624816487 L 686.9255229789667,378.2471694301613 L 690.7118943655747,367.1872276868406 L 697.2950170041895,355.143092986971 L 706.0359866784621,327.13115775236855 L 710.8051418279028,328.71282043088706 L 733.1361267264972,330.96856183839446 L 745.0545904619391,336.16792462862907 L 766.8692521691162,351.9077140895605 L 792.4702846406536,364.8894886466271 L 799.3545958025392,373.94604281890986 L 800.0,387.98707208704315 L 795.9124402215781,409.90019452140706" fill="none" stroke="#000000" stroke-width="0.9570857452261293"/>
	<path d="M 675.3014658713113,445.8376280924255 L 666.5734416344312,452.8676355699263 L 663.1743130554917,457.5087945288735 L 662.4428548539983,468.68589793943283 L 667.1758188298707,477.3945447186145 L 667.544675467788,477.7476283805049 L 651.7725084097933,479.9182041084729 L 614.4251197525354,487.9533159713537 L 614.2960390119359,487.74918042564815 L 602.0333596677815,473.04824336204774 L 593.5355376918831,463.4484460984722 L 593.5355376918831,453.8459972912028 L 601.1943339177828,446.1679674510658 L 586.9309014092635,442.32831632993674 L 558.8558195460307,433.844541126665 L 540.698448179864,420.55253469148784 L 521.9602136681324,410.47058782038573 L 517.1411956078027,411.1135815162816 L 517.0121148671824,409.82758119627306 L 515.2264962705191,385.9402327842884 L 518.4965443202672,379.2271788977067 L 525.3808557280628,365.08017211177236 L 526.7362048149457,364.5826548015934 L 545.4314124131366,357.7191044064299 L 558.6191709599734,353.7086403502099 L 569.0101786291767,344.8810563779044 L 582.219451194369,341.19124983852595 L 598.2469882811735,346.1548262148064 L 608.1431855086794,346.1548262148064 L 623.7189398161224,338.45292536109326 L 635.9816195346727,333.63470600827765 L 639.7679909212808,330.74931068584056 L 652.6330474293538,325.6077319490507 L 663.3467571373226,320.48004166739565 L 675.5953013506817,300.36606167262704 L 700.8228902684676,325.40218160445386 L 706.0359866784621,327.13115775236855 L 697.2950170041895,355.143092986971 L 690.7118943655747,367.1872276868406 L 686.9255229789667,378.2471694301613 L 683.0315844956928,393.4707624816487 L 675.6094364814526,403.89382714147837 L 671.9521462098626,431.1281272613529 L 675.2437075291936,445.58401789348017 L 675.3014658713113,445.8376280924255" fill="none" stroke="#000000" stroke-width="0.9570857452261293"/>
	<path d="M 667.544675467788,477.7476283805049 L 691.3569623168047,500.53407346399376 L 694.5839833040446,506.34934220856064 L 695.4014950931703,508.36041248135365 L 689.851019328207,522.8862170980018 L 685.1180553523695,531.9599500140228 L 683.6551389494384,536.5614533148854 L 683.5260583597376,545.6461845642525 L 684.6877857486419,553.5642748807435 L 684.2144891428685,560.8839985654594 L 679.1803365693121,568.2894717222821 L 668.466627224782,562.091677552452 L 659.5170224645259,568.5804212754691 L 644.5436453335209,588.5482849522709 L 633.9590169950013,591.6158953414233 L 613.6502986927298,591.005302972305 L 603.3238315335648,598.2008988716153 L 603.2377779458855,598.317178747468 L 599.4083793468999,602.0088766406526 L 583.6605174287803,611.3381222249872 L 580.9755064067816,612.1977018497602 L 577.0343678626025,613.4593789649825 L 569.4616255012797,612.5295288638611 L 562.4052063313273,608.9115950880185 L 548.7226375952703,598.317178747468 L 541.5371378356658,580.8853498292145 L 540.1172484347562,575.664284296319 L 539.8590868390468,571.8534319508799 L 540.6335716261979,563.3429648299405 L 541.365030243954,559.3707022693213 L 544.4629702251835,552.7201526089407 L 546.3991828175105,549.6054547485352 L 547.1306406026506,550.1876620678959 L 546.763831799062,544.5377610866129 L 553.6710725334193,541.2501584863128 L 578.4330794333633,522.9012388719932 L 593.6431047885247,502.77913343155234 L 612.4028533186083,488.3907465564106 L 614.4251197525354,487.9533159713537 L 651.7725084097933,479.9182041084729 L 667.544675467788,477.7476283805049" fill="none" stroke="#000000" stroke-width="0.9570857452261293"/>
	<path d="M 317.15161629734814,8.635476169970275 L 308.761361730557,21.89497488763093 L 309.0625503282758,38.32549896548215 L 315.8608079024473,53.38974514574406 L 326.7466252550651,62.72035238500872 L 383.88640898116074,88.49921064022412 L 390.81374714502255,93.5435235060151 L 408.19663305778676,119.69717795895933 L 432.76501914646167,145.41862690993472 L 437.7991717200181,152.92813794994015 L 444.9416444776132,168.97238826940213 L 449.1582852620335,175.40270901689445 L 463.90130277994405,187.8305204181978 L 459.48508840985335,203.6264688950456 L 458.32336099550963,218.3540015399871 L 455.80628449428286,231.2097304641719 L 451.2239146456128,241.07968021681683 L 443.88782083285,250.02188465742213 L 432.52870704742367,257.0682967363439 L 427.3654736787684,272.5506727718419 L 427.1073121975242,283.99289985496347 L 412.9944736992097,283.02485754792366 L 406.99221495495345,286.5302137531822 L 397.0745037090694,271.3035347799145 L 384.68274362431737,257.0682967363439 L 369.5372588266789,243.73762193219648 L 348.9918920743035,229.0062317267802 L 329.1349566873729,216.16437712638862 L 313.8819047930702,204.89075526376337 L 295.18669682048164,197.363156321688 L 280.14877911948474,199.53927219706452 L 265.7992927839066,199.862736594575 L 255.8170413549234,189.657426539247 L 252.03067034271132,174.77049043811658 L 246.75986950299415,148.54088662626427 L 245.20908804173908,143.55461903454966 L 246.11412882516464,142.31127125827462 L 250.93314680498773,139.68968238936918 L 261.8619911595922,139.0858048251486 L 264.83085055112093,136.55234973380877 L 252.3100092039316,112.66683753190006 L 239.9612758647272,78.2608127079584 L 225.54724892718542,59.25119790343449 L 222.621416953974,57.06618879638134 L 213.45667718372363,59.443117841350144 L 213.49970418573469,56.505150051880975 L 215.30683577205284,51.809786212800255 L 215.52197036573912,48.08847542367622 L 209.97149460077588,39.43338933171648 L 206.95960820723613,37.527795468277176 L 200.54859365108916,35.75505498380514 L 196.54708787669975,32.75596035285322 L 196.33195286670548,27.939131218584695 L 198.78448865047406,23.239855136476045 L 202.74296783916043,20.417024215443018 L 210.40176420450348,16.559271480729855 L 220.29796175990617,5.486145573140486 L 226.45081472034536,0.946459800579091 L 235.91674267200656,0.0 L 241.76840745104363,5.781869497479422 L 246.2432098311734,14.223716206996466 L 251.70763200845738,21.09688906110173 L 258.7210237600803,23.56498319593892 L 267.6276015182783,23.25463362152925 L 275.8027214913954,20.01796642003344 L 286.94670043967574,6.8316692742797205 L 297.3161941845456,5.574862903970489 L 317.15161629734814,8.635476169970275" fill="none" stroke="#000000" stroke-width="0.9570857452261293"/>
	<path d="M 463.90130277994405,187.8305204181978 L 464.7770665904523,188.56861486525577 L 477.6421235373837,205.47832007032957 L 484.8276232969898,212.07820679134724 L 493.38998545550504,216.60479333297775 L 511.8485451694456,222.14464443210923 L 520.8411769316779,223.1584725599549 L 526.1334911009437,221.17486699501774 L 529.5326196798816,217.78043325818683 L 532.8887216731285,218.1037266731482 L 545.0653474206229,240.33026150828118 L 552.7241433696597,250.4325065376417 L 561.2865055281749,257.4054428273751 L 571.0105954918902,261.1041972006039 L 584.822244817648,262.0141473303165 L 598.9350831574692,260.8693671031213 L 603.7541011373289,257.84579125513176 L 613.4781906846996,247.86317502292692 L 617.4366698734208,245.70478874740542 L 622.642930038689,247.49611173183956 L 625.7408704361916,252.0474165715867 L 628.1073522159746,257.87514795822733 L 631.2483196155215,263.3937041560442 L 635.3789059795786,267.576065410346 L 660.420588673992,285.2977878333516 L 674.7810671788849,299.55770527611674 L 675.5953013506817,300.36606167262704 L 663.3467571373226,320.48004166739565 L 652.6330474293538,325.6077319490507 L 639.7679909212808,330.74931068584056 L 635.9816195346727,333.63470600827765 L 623.7189398161224,338.45292536109326 L 608.1431855086794,346.1548262148064 L 598.2469882811735,346.1548262148064 L 582.219451194369,341.19124983852595 L 569.0101786291767,344.8810563779044 L 558.6191709599734,353.7086403502099 L 545.4314124131366,357.7191044064299 L 526.7362048149457,364.5826548015934 L 517.119681963824,352.58152821136775 L 509.805101420644,345.9937776186103 L 512.4082317489277,338.45292536109326 L 511.93493495121083,324.1720554019045 L 505.80359546633247,312.75777070482866 L 494.5950760654843,304.4034688499005 L 475.6201933420931,299.90303507876905 L 462.64756898856217,296.2084305500518 L 459.57114223693304,293.481206927449 L 450.0191603177284,288.4954040506204 L 434.0991903275881,284.4769103325895 L 427.1073121975242,283.99289985496347 L 427.3654736787684,272.5506727718419 L 432.52870704742367,257.0682967363439 L 443.88782083285,250.02188465742213 L 451.2239146456128,241.07968021681683 L 455.80628449428286,231.2097304641719 L 458.32336099550963,218.3540015399871 L 459.48508840985335,203.6264688950456 L 463.90130277994405,187.8305204181978" fill="none" stroke="#000000" stroke-width="0.9570857452261293"/>
	<path d="M 232.68972210112335,160.33297330152115 L 237.0354434752078,156.43201624965033 L 240.34851846647857,151.66194339299037 L 242.97316184192414,146.6261492111947 L 245.20908804173908,143.55461903454966 L 246.75986950299415,148.54088662626427 L 252.03067034271132,174.77049043811658 L 255.8170413549234,189.657426539247 L 265.7992927839066,199.862736594575 L 280.14877911948474,199.53927219706452 L 295.18669682048164,197.363156321688 L 313.8819047930702,204.89075526376337 L 329.1349566873729,216.16437712638862 L 348.9918920743035,229.0062317267802 L 369.5372588266789,243.73762193219648 L 384.68274362431737,257.0682967363439 L 397.0745037090694,271.3035347799145 L 406.99221495495345,286.5302137531822 L 403.9157882033505,288.33408689980934 L 394.3853195537043,296.5309911471844 L 381.2836148339472,299.90303507876905 L 375.38892318633253,305.6933875347465 L 373.90449373324776,317.76938374924686 L 348.4110281799467,307.58420378548556 L 340.9458532521641,303.8317850289131 L 335.5674849414094,296.3257255679578 L 323.8641558476801,285.0635804596036 L 310.78396439748497,285.0635804596036 L 301.70527890159957,288.9793520079331 L 296.09026237920784,278.8150275714949 L 286.2155787956599,269.4254061851344 L 272.23182141236344,271.3035347799145 L 263.3897837537417,271.3035347799145 L 256.63455308654557,263.79040778445795 L 246.11446505111613,258.68289703455054 L 246.30808634925944,249.06757260195792 L 237.35848159399615,233.72154787954003 L 233.33546237010182,219.4708035968054 L 232.75459847574328,202.36213565499824 L 231.82951927305916,169.25245235999512 L 231.4637899463815,157.69849551121033 L 231.45855848649384,157.53319881438262 L 232.68972210112335,160.33297330152115" fill="none" stroke="#000000" stroke-width="0.9570857452261293"/>
	<path d="M 193.83639008091365,111.98878316586557 L 203.9477222300392,114.8777911345323 L 215.13472818034103,122.7328971147932 L 218.06056015354199,126.84395388164786 L 218.31872216555777,130.76299898084494 L 217.97450656582788,134.8436351239626 L 218.9641263630204,139.6160394070367 L 222.75049754367475,146.0223933563845 L 231.22680569819224,157.00614687936437 L 231.45855848649384,157.53319881438262 L 231.4637899463815,157.69849551121033 L 231.82951927305916,169.25245235999512 L 232.75459847574328,202.36213565499824 L 233.33546237010182,219.4708035968054 L 237.35848159399615,233.72154787954003 L 246.30808634925944,249.06757260195792 L 246.11446505111613,258.68289703455054 L 241.83328397162694,256.59858051962533 L 226.34358386566288,258.77096364597236 L 215.32868538853597,271.77305059586314 L 207.06751199869487,295.0794450220596 L 209.4770210288597,310.86723718560665 L 229.0973082041533,323.8497523992513 L 230.925953339937,346.8136547422263 L 226.70931281794634,349.91730012900996 L 218.74932782286228,346.3451561961193 L 195.12753431888558,343.84150776959825 L 173.44195417054462,337.58891730775764 L 159.32911567222925,323.8497523992513 L 146.1198438558332,300.70934504770435 L 136.37424026411196,273.7977657564017 L 126.49955630616543,258.1544906070989 L 112.51579892286985,250.02188465742213 L 85.53790391645964,243.26772434853498 L 78.0987566665508,241.43166370268685 L 81.40698121705255,224.20165681871404 L 88.16221178924783,209.8146915735614 L 106.1044478954291,184.61201621421122 L 96.079169333995,179.65459641263985 L 102.40413071877155,170.3703865272334 L 155.5424082541584,131.3080939043962 L 166.51427961073912,127.81639052859894 L 165.18044421385073,125.53259553192895 L 162.8139620177971,120.25718507891841 L 161.39407303319547,117.98762579571878 L 169.05286939854025,114.31769639622087 L 193.83639008091365,111.98878316586557" fill="none" stroke="#000000" stroke-width="0.9570857452261293"/>
	<path d="M 85.5375675811436,300.6795668613027 L 78.09390622579222,257.42012108513063 L 77.87877163210509,242.57709187103714 L 78.0987566665508,241.43166370268685 L 85.53790391645964,243.26772434853498 L 112.51579892286985,250.02188465742213 L 126.49955630616543,258.1544906070989 L 136.37424026411196,273.7977657564017 L 146.1198438558332,300.70934504770435 L 159.32911567222925,323.8497523992513 L 173.44195417054462,337.58891730775764 L 195.12753431888558,343.84150776959825 L 218.74932782286228,346.3451561961193 L 226.70931281794634,349.91730012900996 L 241.01577186558438,356.32866769249244 L 259.840060953191,368.9722717522662 L 273.15690024064986,378.802999132988 L 296.43447806190676,388.6309397411065 L 322.65940151979567,392.08175830900836 L 326.8545283978075,402.9729809715196 L 325.4776664157829,416.2278842966132 L 321.45464719189033,429.93050100930196 L 323.64902127997834,447.37963236923724 L 323.562967078501,448.29930185068173 L 322.8315091739358,457.188183474056 L 322.7239417028983,466.06020353733385 L 324.55258721310054,477.2637305660264 L 309.8803984643854,484.7307446496312 L 288.0872504705866,482.60164256506465 L 273.15690024064986,479.75777487925455 L 265.9283735245287,476.95743220145 L 256.63455308654557,479.75777487925455 L 241.83328397162694,489.09062334563686 L 234.60475725550575,502.1524077155565 L 233.80875879344546,518.6184335557383 L 228.19374227102938,525.7707146659039 L 209.670642327003,526.9067876013431 L 207.73442972015744,515.354990313113 L 200.16168694691876,505.8834459171961 L 189.7921932960919,499.353866526743 L 181.8106950314494,492.8230617010286 L 177.50800030795529,487.07843932051725 L 162.5346231644805,484.1182761797456 L 151.34761740758762,484.58491972875817 L 139.12796497699745,476.6511311399264 L 122.32594232329517,471.67700619173615 L 118.9268139073462,481.6245444416416 L 114.96833486657451,487.8366670897045 L 109.28877778666335,490.32995369937146 L 106.77170165983429,496.1615057153847 L 107.00835024589074,505.2567765836547 L 104.19008497550578,514.6556413023284 L 98.27388005833095,520.8036036815894 L 89.41032913014905,521.7650358261978 L 85.43033681981805,522.2020408368264 L 69.83306886841966,524.5326450356056 L 46.25430265237787,523.60042236839 L 45.50347109770289,523.4040071550672 L 48.31925997188308,516.3598246594635 L 48.491367979902016,499.9218828116356 L 44.1886731914849,484.46780399356794 L 37.04620001754784,475.1920615069089 L 28.56989186306608,466.4099126574541 L 14.112837923514977,442.8242648389078 L 8.476308154517465,429.287398629195 L 4.603882969829676,415.75986521883004 L 4.216640784429847,405.9249915586756 L 8.304200562805658,399.5958796488013 L 13.510460728073848,395.5463971489434 L 16.565374123601142,390.0342476999374 L 14.198891927547518,379.19746836451117 L 4.345721374084458,359.28465151688056 L 0.2151350100412988,347.9404968901696 L 0.0,338.13029745636743 L 8.003011965086836,315.9079731564774 L 20.609906900001608,303.86064447325265 L 43.88748459376608,298.6124428664267 L 68.62797827411798,298.2899015578325 L 85.5375675811436,300.6795668613027" fill="none" stroke="#000000" stroke-width="0.9570857452261293"/>
	<path d="M 30.501929197789888,539.1509294825829 L 34.85182624583073,536.6196963843513 L 43.6723495837361,527.9841102191433 L 45.50347109770289,523.4040071550672 L 46.25430265237787,523.60042236839 L 69.83306886841966,524.5326450356056 L 85.43033681981805,522.2020408368264 L 89.41032913014905,521.7650358261978 L 90.12027376512881,524.765696678462 L 96.89701732749006,541.9344153367964 L 104.25462515863018,551.5562668581188 L 108.83699500730022,563.0378764450182 L 110.106289892705,571.8102485520153 L 120.30367626378938,579.1843169958191 L 136.13759205245145,590.4242295011635 L 140.95661011278114,607.7059885976718 L 140.8490426417436,621.493287890708 L 140.05304417968156,628.7842644624325 L 136.71845594681085,636.5964130627985 L 138.20288539991827,644.8858372696716 L 143.8824424798303,662.4598874387406 L 149.88470122408654,676.5301791043371 L 146.2919511355992,684.4766710420384 L 146.74373428935826,701.9294218137555 L 147.56124602097958,717.6062938120506 L 147.87924487508297,720.3872053216472 L 146.89822431036688,721.4576423537571 L 143.6457937746231,722.9402213765952 L 140.9015554580488,719.8837593597691 L 136.93765589872459,711.8992065101575 L 123.21646431585924,700.4439007312461 L 116.98263926110047,692.7745121100534 L 116.81324185472543,685.1034443647394 L 114.40779835092472,683.1169114085535 L 110.81657300240647,678.9836500113472 L 108.27561190654848,677.0881234881647 L 108.27561190654848,674.6406686253787 L 108.34218493999958,674.5577783323293 L 117.05514185799919,663.7075844646756 L 125.35934216138274,634.9847555876245 L 114.79622683801577,615.3920979482389 L 105.00759670715063,607.7205198157941 L 104.96342805484912,607.6859585866245 L 105.66689118203409,604.2267030170609 L 91.84406140511685,621.7071650208645 L 82.9132603185913,596.9367794517512 L 73.9636559377257,582.2818338077366 L 62.26032609517836,573.9775424487495 L 51.46056293454945,567.3879684364518 L 37.41226536815386,547.9756760816628 L 30.501929197789888,539.1509294825829" fill="none" stroke="#000000" stroke-width="0.9570857452261293"/>
	<path d="M 546.763831799062,544.5377610866129 L 546.3991828175105,538.9202166856965 L 542.8709732325516,524.5467559451678 L 536.4599582600966,512.3239210465529 L 526.9510033064123,507.39861095069097 L 517.2699403447081,511.98878887716273 L 509.775635568296,518.7901742623525 L 509.6760206800219,518.5601600027469 L 508.3636985066796,515.5298252450491 L 497.3272871343902,501.6131232696562 L 503.09289804138274,495.57839442693563 L 512.4082317489277,480.7203406809102 L 512.6233663166313,466.01643233356054 L 511.4616389022892,447.4526229561846 L 510.17083037292747,435.12965233646236 L 503.91040977302936,429.52154575404785 L 497.88663738479084,423.59115640945333 L 503.91040977302936,412.8671416790096 L 517.1411956078027,411.1135815162816 L 521.9602136681324,410.47058782038573 L 540.698448179864,420.55253469148784 L 558.8558195460307,433.844541126665 L 586.9309014092635,442.32831632993674 L 601.1943339177828,446.1679674510658 L 593.5355376918831,453.8459972912028 L 593.5355376918831,463.4484460984722 L 602.0333596677815,473.04824336204774 L 614.2960390119359,487.74918042564815 L 614.4251197525354,487.9533159713537 L 612.4028533186083,488.3907465564106 L 593.6431047885247,502.77913343155234 L 578.4330794333633,522.9012388719932 L 553.6710725334193,541.2501584863128 L 546.763831799062,544.5377610866129" fill="none" stroke="#000000" stroke-width="0.9570857452261293"/>
	<path d="M 509.775635568296,518.7901742623525 L 505.56661120295234,522.609452459006 L 494.6807938504059,535.4839409484467 L 487.71042868448603,546.8398349700755 L 485.3009199027285,554.6121230028837 L 482.97746470866065,569.3805184894852 L 480.6540099308886,576.1151593539913 L 475.4907759350155,582.0341701932565 L 469.51003056628986,585.4658642279426 L 464.51890499471835,589.7695466319334 L 462.1954498006749,598.229968736259 L 462.1954498006749,598.317178747468 L 457.16129722711855,608.7953504717283 L 451.3956864520792,618.2099448498216 L 444.5974292942261,626.0244562593548 L 436.37928231909973,631.4412989646264 L 430.82880655409997,640.6465540657904 L 409.53046845470914,665.3609876124439 L 407.37912126862454,668.5669252895846 L 403.4636690819475,677.7624205352673 L 402.646157292787,681.837254469394 L 402.9043188884965,689.5215936834596 L 402.5170762867782,692.4209063286158 L 362.6310974674033,754.5245664651944 L 353.79231155654634,764.0727377377684 L 349.01340534388805,760.6598982264103 L 335.58899858539166,743.8442984502202 L 326.7469613011659,737.2142494604709 L 314.4627683130537,735.2018252878053 L 301.7267921711841,730.7277493069163 L 292.4329721075952,725.3117608204897 L 285.54866069979965,715.1146906556066 L 281.4180740048904,706.7694262403623 L 292.08875679929406,686.9704532107935 L 295.18669682048164,667.1747902337539 L 282.9025034579752,654.1746264911286 L 268.5745307663549,641.1696306928528 L 259.06557576068917,630.788290855503 L 250.22353810206923,621.3480332018564 L 234.6262705250659,610.5103794727517 L 219.00748930410822,597.7943687450671 L 217.50154620704294,592.0524816147782 L 223.5898591527765,589.1012200150204 L 229.72119863765485,591.0348334472403 L 238.28356079668026,593.7533415009356 L 252.97726318935156,600.2652702233872 L 266.5092374188872,601.8203953336375 L 297.9404211589721,601.5151889646969 L 318.59335500796465,601.675059348227 L 319.97021736440786,599.0298410810542 L 322.61637460625667,584.7683739426186 L 324.5741004826607,566.7624034251638 L 327.672040878246,554.6707905976444 L 332.83527387250354,548.1357914008825 L 340.5155841167815,539.7651288884733 L 344.7537379083323,525.7707146659039 L 343.9577394462703,514.4225220139737 L 354.865070077962,502.1524077155565 L 361.1254906778357,494.95153906197316 L 364.95488897798447,497.6338181102311 L 387.90976438612705,503.39127312219006 L 405.5723256849922,500.59283202604445 L 421.858024627416,495.92826206774106 L 432.2920588357623,488.9302364011243 L 442.0591753226478,477.2637305660264 L 443.4360380534869,466.2206959563542 L 458.58152247672945,459.84419021062286 L 474.2003040721092,461.55151564791026 L 476.0289492079155,473.5296221742128 L 479.0193217580412,485.503605817061 L 488.8724924464284,490.9568928120833 L 497.3272871343902,501.6131232696562 L 508.3636985066796,515.5298252450491 L 509.6760206800219,518.5601600027469 L 509.775635568296,518.7901742623525" fill="none" stroke="#000000" stroke-width="0.9570857452261293"/>
	<path d="M 353.79231155654634,764.0727377377684 L 350.28236454453827,767.8636669081347 L 349.0776097373532,773.7937449928148 L 353.2087339753526,782.7252615772378 L 353.2512235197259,782.8171124815319 L 359.7913194982244,790.0312480530688 L 383.62824696911014,807.7205761742972 L 389.86167985879695,815.2874287193732 L 384.7903107209589,817.270144971026 L 359.44743992663206,825.2714940369485 L 351.40140073007234,823.4229679330392 L 336.49256451849124,817.8768089584545 L 325.13345110745905,818.0212514147793 L 328.2313907542507,830.1956071020894 L 339.9347202223986,854.372974046653 L 336.49256451849124,868.381035287971 L 297.1444226968874,863.303576428207 L 294.69188675318185,863.7074917030104 L 294.603981928048,863.7219689995201 L 293.7657906380709,851.0947590261246 L 270.1856692539179,829.4307760034495 L 266.9332387181724,821.3573628050297 L 270.72774087109894,813.2820969448386 L 267.6447081580599,810.0059676709415 L 262.46114693967604,807.6396850013762 L 256.0918034602466,796.4431865065154 L 240.23620480664175,796.807356539082 L 236.7127382541395,790.8436005783508 L 235.76411261183915,784.7649911383193 L 233.66358493910852,783.3305589852665 L 230.85158741021195,783.2850206221422 L 228.17510830596342,781.4178924498252 L 223.9382286788633,772.3452781796684 L 223.99861501859894,772.2756133471819 L 236.19675417962804,758.2002876558811 L 234.10994756260192,750.8638368680665 L 224.6870460096217,739.6174250709291 L 213.2418783971139,726.4124038578827 L 206.09940588247005,712.9995852637815 L 203.5823293812677,705.7406188776187 L 203.75443740980378,705.6971476424412 L 219.41624516993062,709.2181561464581 L 236.3903751033754,716.1287361971004 L 246.09295140716,715.9983604623893 L 247.83554271588318,703.958247469824 L 255.38677184511872,694.6391718871366 L 275.71700402979064,703.5524915317108 L 281.4180740048904,706.7694262403623 L 285.54866069979965,715.1146906556066 L 292.4329721075952,725.3117608204897 L 301.7267921711841,730.7277493069163 L 314.4627683130537,735.2018252878053 L 326.7469613011659,737.2142494604709 L 335.58899858539166,743.8442984502202 L 349.01340534388805,760.6598982264103 L 353.79231155654634,764.0727377377684" fill="none" stroke="#000000" stroke-width="0.9570857452261293"/>
	<path d="M 389.86167985879695,815.2874287193732 L 390.89980114905507,816.5474608122946 L 391.88942094621274,821.9060759158351 L 384.273651582879,838.5977712348313 L 382.25138498651955,848.1962436214093 L 381.77808879712376,859.2492878534174 L 383.2840317856865,869.923872086645 L 387.1134295520805,878.331437274179 L 387.2425109744077,878.4179545012885 L 390.2974239536157,882.2821561103545 L 388.1030493492382,891.6813577702882 L 385.6074865634481,893.7569173498026 L 382.20835798454334,894.2181362900129 L 380.05701079848313,896.2358979094503 L 382.724681592293,909.0892139995942 L 381.7350617950657,913.0653010570509 L 380.1430643861624,915.9606474696211 L 379.6267411947207,918.74053316091 L 379.841876204762,922.4851111255729 L 379.5837141927445,924.7892688374228 L 380.57333398988993,927.0068788082108 L 384.4457591745908,930.7505803908708 L 387.7588341658494,936.6820938030039 L 387.457645568094,951.2475095736585 L 387.81524015792445,957.0857452261293 L 380.26011525007937,950.6278355847722 L 364.98046761166523,933.6050238905058 L 357.8996555249869,930.1133138685622 L 327.50975765457815,920.0443730142691 L 320.32730654121275,915.462507994118 L 310.12958192715325,911.6513946794603 L 306.70775398500916,909.3826798756597 L 303.38756423691524,903.82371136571 L 303.25204622855085,900.7602322183055 L 303.79411826203636,897.6737917317355 L 302.5744566029793,892.0902797277918 L 300.609446522333,891.1596080030062 L 296.3067521502369,887.2777632756208 L 293.2575984188979,882.9868054979229 L 295.3242471099007,881.0114273266537 L 295.59528271034935,878.6499103642484 L 294.603981928048,863.7219689995201 L 294.69188675318185,863.7074917030104 L 297.1444226968874,863.303576428207 L 336.49256451849124,868.381035287971 L 339.9347202223986,854.372974046653 L 328.2313907542507,830.1956071020894 L 325.13345110745905,818.0212514147793 L 336.49256451849124,817.8768089584545 L 351.40140073007234,823.4229679330392 L 359.44743992663206,825.2714940369485 L 384.7903107209589,817.270144971026 L 389.86167985879695,815.2874287193732" fill="none" stroke="#000000" stroke-width="0.9570857452261293"/>
	<path d="M 223.9382286788633,772.3452781796684 L 222.51723426644068,769.3019164425444 L 216.4528066180822,763.0601031000779 L 199.75022051622713,750.5275652338458 L 194.9054541106177,741.9800875677721 L 191.99181838764486,723.4876195608251 L 188.36671364111862,715.7092055659149 L 182.37004478880053,712.28706980458 L 175.0520760833735,712.28706980458 L 168.75049181629072,714.9563645232906 L 165.6335792889113,719.5416018285509 L 163.6008104122237,716.9182807445039 L 161.0937282980657,714.4088331535337 L 159.9079464533482,711.8992065101575 L 153.19980857745054,715.7092055659149 L 150.04901623575603,717.9676328397761 L 147.87924487508297,720.3872053216472 L 147.56124602097958,717.6062938120506 L 146.74373428935826,701.9294218137555 L 146.2919511355992,684.4766710420384 L 149.88470122408654,676.5301791043371 L 151.36913067717217,673.2669554419273 L 164.87959163714763,677.893391241048 L 174.5821679409305,682.1277134975849 L 187.76992648776897,684.7956526359775 L 200.0971467638161,695.6972941371237 L 203.5823293812677,705.7406188776187 L 206.09940588247005,712.9995852637815 L 213.2418783971139,726.4124038578827 L 224.6870460096217,739.6174250709291 L 234.10994756260192,750.8638368680665 L 236.19675417962804,758.2002876558811 L 223.99861501859894,772.2756133471819 L 223.9382286788633,772.3452781796684" fill="none" stroke="#000000" stroke-width="0.9570857452261293"/>
	<path d="M 108.27561190654848,674.6406686253787 L 108.27561190654848,673.5936915539701 L 109.19035773453457,665.5528896457494 L 101.97402763946482,658.6984756356618 L 93.67355389370417,658.3328689854679 L 94.27237410401942,658.3102470447783 L 91.41108192009465,650.1546250022087 L 88.01567985415879,640.5049199477306 L 92.8265668617576,642.1052350762156 L 104.92154276044566,648.5743352626316 L 111.12148841717118,654.7680059299239 L 114.34003955488433,646.0371274697695 L 113.66244992933717,638.9959841057167 L 104.21007373686612,617.7725356641712 L 103.97291711811917,612.5561812457252 L 104.96342805484912,607.6859585866245 L 105.00759670715063,607.7205198157941 L 114.79622683801577,615.3920979482389 L 125.35934216138274,634.9847555876245 L 117.05514185799919,663.7075844646756 L 108.34218493999958,674.5577783323293 L 108.27561190654848,674.6406686253787" fill="none" stroke="#000000" stroke-width="0.9570857452261293"/>
	<path d="M 373.90449373324776,317.76938374924686 L 375.38892318633253,305.6933875347465 L 381.2836148339472,299.90303507876905 L 394.3853195537043,296.5309911471844 L 403.9157882033505,288.33408689980934 L 406.99221495495345,286.5302137531822 L 412.9944736992097,283.02485754792366 L 427.1073121975242,283.99289985496347 L 434.0991903275881,284.4769103325895 L 450.0191603177284,288.4954040506204 L 459.57114223693304,293.481206927449 L 462.64756898856217,296.2084305500518 L 475.6201933420931,299.90303507876905 L 494.5950760654843,304.4034688499005 L 505.80359546633247,312.75777070482866 L 511.93493495121083,324.1720554019045 L 512.4082317489277,338.45292536109326 L 509.805101420644,345.9937776186103 L 517.119681963824,352.58152821136775 L 526.7362048149457,364.5826548015934 L 525.3808557280628,365.08017211177236 L 518.4965443202672,379.2271788977067 L 502.9638169263647,374.39999738377287 L 491.8843782661369,371.6642956293372 L 476.5667861887334,367.9773406978792 L 448.620784691725,368.62112305591853 L 422.78310383009836,369.26489345790145 L 408.9714541009421,359.6363526283471 L 391.6531084847984,350.0197745420816 L 390.8140831091957,349.30244932308415 L 378.0996209856782,338.46756950056107 L 373.732385704689,319.1906741172848 L 373.90449373324776,317.76938374924686" fill="none" stroke="#000000" stroke-width="0.9570857452261293"/>
	<path d="M 122.32594232329517,471.67700619173615 L 139.12796497699745,476.6511311399264 L 151.34761740758762,484.58491972875817 L 162.5346231644805,484.1182761797456 L 177.50800030795529,487.07843932051725 L 181.8106950314494,492.8230617010286 L 189.7921932960919,499.353866526743 L 200.16168694691876,505.8834459171961 L 207.73442972015744,515.354990313113 L 209.670642327003,526.9067876013431 L 209.79972306760072,527.6350194423104 L 209.92880380822282,536.9550470721281 L 218.98597603452365,542.5458674561017 L 228.10768844394798,549.3730229619515 L 232.75459847574328,556.2133952509662 L 238.19750734399483,561.4810225981365 L 236.43340239131203,566.7624034251638 L 230.0654143203764,579.0970593342568 L 229.72119863765485,591.0348334472403 L 223.5898591527765,589.1012200150204 L 217.50154620704294,592.0524816147782 L 219.00748930410822,597.7943687450671 L 234.6262705250659,610.5103794727517 L 250.22353810206923,621.3480332018564 L 259.06557576068917,630.788290855503 L 268.5745307663549,641.1696306928528 L 282.9025034579752,654.1746264911286 L 295.18669682048164,667.1747902337539 L 292.08875679929406,686.9704532107935 L 281.4180740048904,706.7694262403623 L 275.71700402979064,703.5524915317108 L 255.38677184511872,694.6391718871366 L 247.83554271588318,703.958247469824 L 246.09295140716,715.9983604623893 L 236.3903751033754,716.1287361971004 L 219.41624516993062,709.2181561464581 L 203.75443740980378,705.6971476424412 L 203.5823293812677,705.7406188776187 L 200.0971467638161,695.6972941371237 L 187.76992648776897,684.7956526359775 L 174.5821679409305,682.1277134975849 L 164.87959163714763,677.893391241048 L 151.36913067717217,673.2669554419273 L 149.88470122408654,676.5301791043371 L 143.8824424798303,662.4598874387406 L 138.20288539991827,644.8858372696716 L 136.71845594681085,636.5964130627985 L 140.05304417968156,628.7842644624325 L 140.8490426417436,621.493287890708 L 140.95661011278114,607.7059885976718 L 136.13759205245145,590.4242295011635 L 120.30367626378938,579.1843169958191 L 110.106289892705,571.8102485520153 L 108.83699500730022,563.0378764450182 L 104.25462515863018,551.5562668581188 L 96.89701732749006,541.9344153367964 L 90.12027376512881,524.765696678462 L 89.41032913014905,521.7650358261978 L 98.27388005833095,520.8036036815894 L 104.19008497550578,514.6556413023284 L 107.00835024589074,505.2567765836547 L 106.77170165983429,496.1615057153847 L 109.28877778666335,490.32995369937146 L 114.96833486657451,487.8366670897045 L 118.9268139073462,481.6245444416416 L 122.32594232329517,471.67700619173615" fill="none" stroke="#000000" stroke-width="0.9570857452261293"/>
	<path d="M 246.11446505111613,258.68289703455054 L 256.63455308654557,263.79040778445795 L 263.3897837537417,271.3035347799145 L 272.23182141236344,271.3035347799145 L 286.2155787956599,269.4254061851344 L 296.09026237920784,278.8150275714949 L 301.70527890159957,288.9793520079331 L 310.78396439748497,285.0635804596036 L 323.8641558476801,285.0635804596036 L 335.5674849414094,296.3257255679578 L 340.9458532521641,303.8317850289131 L 348.4110281799467,307.58420378548556 L 373.90449373324776,317.76938374924686 L 373.732385704689,319.1906741172848 L 378.0996209856782,338.46756950056107 L 390.8140831091957,349.30244932308415 L 385.1560400476383,358.8314139140067 L 378.6159439481422,368.3431274333018 L 357.61879441642805,367.5676551141703 L 330.66241342839606,362.8851866557568 L 323.64902127997834,367.5676551141703 L 319.0451377873278,375.8482223014282 L 319.97021736440786,385.0481589002192 L 322.65940151979567,392.08175830900836 L 296.43447806190676,388.6309397411065 L 273.15690024064986,378.802999132988 L 259.840060953191,368.9722717522662 L 241.01577186558438,356.32866769249244 L 226.70931281794634,349.91730012900996 L 230.925953339937,346.8136547422263 L 229.0973082041533,323.8497523992513 L 209.4770210288597,310.86723718560665 L 207.06751199869487,295.0794450220596 L 215.32868538853597,271.77305059586314 L 226.34358386566288,258.77096364597236 L 241.83328397162694,256.59858051962533 L 246.11446505111613,258.68289703455054" fill="none" stroke="#000000" stroke-width="0.9570857452261293"/>
	<path d="M 323.562967078501,448.29930185068173 L 323.64902127997834,447.37963236923724 L 321.45464719189033,429.93050100930196 L 325.4776664157829,416.2278842966132 L 326.8545283978075,402.9729809715196 L 322.65940151979567,392.08175830900836 L 319.97021736440786,385.0481589002192 L 319.0451377873278,375.8482223014282 L 323.64902127997834,367.5676551141703 L 330.66241342839606,362.8851866557568 L 357.61879441642805,367.5676551141703 L 378.6159439481422,368.3431274333018 L 385.1560400476383,358.8314139140067 L 390.8140831091957,349.30244932308415 L 391.6531084847984,350.0197745420816 L 408.9714541009421,359.6363526283471 L 422.78310383009836,369.26489345790145 L 448.620784691725,368.62112305591853 L 476.5667861887334,367.9773406978792 L 491.8843782661369,371.6642956293372 L 502.9638169263647,374.39999738377287 L 518.4965443202672,379.2271788977067 L 515.2264962705191,385.9402327842884 L 517.0121148671824,409.82758119627306 L 517.1411956078027,411.1135815162816 L 503.91040977302936,412.8671416790096 L 497.88663738479084,423.59115640945333 L 503.91040977302936,429.52154575404785 L 510.17083037292747,435.12965233646236 L 511.4616389022892,447.4526229561846 L 512.6233663166313,466.01643233356054 L 512.4082317489277,480.7203406809102 L 503.09289804138274,495.57839442693563 L 497.3272871343902,501.6131232696562 L 488.8724924464284,490.9568928120833 L 479.0193217580412,485.503605817061 L 476.0289492079155,473.5296221742128 L 474.2003040721092,461.55151564791026 L 458.58152247672945,459.84419021062286 L 443.4360380534869,466.2206959563542 L 442.0591753226478,477.2637305660264 L 432.2920588357623,488.9302364011243 L 421.858024627416,495.92826206774106 L 405.5723256849922,500.59283202604445 L 387.90976438612705,503.39127312219006 L 364.95488897798447,497.6338181102311 L 361.1254906778357,494.95153906197316 L 344.7322242643762,483.4912143571328 L 344.3019551289936,475.0904121789834 L 343.8501723496305,468.5550512839028 L 337.76185902949743,452.83890004132587 L 323.562967078501,448.29930185068173" fill="none" stroke="#000000" stroke-width="0.9570857452261293"/>
	<path d="M 309.8803984643854,484.7307446496312 L 324.55258721310054,477.2637305660264 L 322.7239417028983,466.06020353733385 L 322.8315091739358,457.188183474056 L 323.562967078501,448.29930185068173 L 337.76185902949743,452.83890004132587 L 343.8501723496305,468.5550512839028 L 344.3019551289936,475.0904121789834 L 344.7322242643762,483.4912143571328 L 361.1254906778357,494.95153906197316 L 354.865070077962,502.1524077155565 L 343.9577394462703,514.4225220139737 L 344.7537379083323,525.7707146659039 L 340.5155841167815,539.7651288884733 L 332.83527387250354,548.1357914008825 L 327.672040878246,554.6707905976444 L 324.5741004826607,566.7624034251638 L 322.61637460625667,584.7683739426186 L 319.97021736440786,599.0298410810542 L 318.59335500796465,601.675059348227 L 297.9404211589721,601.5151889646969 L 266.5092374188872,601.8203953336375 L 252.97726318935156,600.2652702233872 L 238.28356079668026,593.7533415009356 L 229.72119863765485,591.0348334472403 L 230.0654143203764,579.0970593342568 L 236.43340239131203,566.7624034251638 L 238.19750734399483,561.4810225981365 L 232.75459847574328,556.2133952509662 L 228.10768844394798,549.3730229619515 L 218.98597603452365,542.5458674561017 L 209.92880380822282,536.9550470721281 L 209.79972306760072,527.6350194423104 L 209.670642327003,526.9067876013431 L 228.19374227102938,525.7707146659039 L 233.80875879344546,518.6184335557383 L 234.60475725550575,502.1524077155565 L 241.83328397162694,489.09062334563686 L 256.63455308654557,479.75777487925455 L 265.9283735245287,476.95743220145 L 273.15690024064986,479.75777487925455 L 288.0872504705866,482.60164256506465 L 309.8803984643854,484.7307446496312" fill="none" stroke="#000000" stroke-width="0.9570857452261293"/>
</svg>
