<?xml version="1.0" ?>
<svg xmlns="http://www.w3.org/2000/svg" xmlns:ev="http://www.w3.org/2001/xml-events" xmlns:xlink="http://www.w3.org/1999/xlink" baseProfile="full" height="600px" version="1.1" viewBox="-80.55823266428082 -120.6 960.6987919713698 1441.2" width="400px">
	<defs/>
	<path d="M 334.0320408688071,1078.8054896817484 L 334.0609713369863,1078.7718004103428 L 334.764947840299,1079.050939315208 L 335.71001228949285,1079.2675118576615 L 336.40434530340843,1079.0365011607064 L 336.9443821315096,1078.0498842125278 L 337.1758264694828,1077.039188566283 L 337.1372523933994,1076.0284779061783 L 336.8093729244853,1075.0514433396215 L 337.69657620029864,1076.5290222187314 L 337.214400427067,1078.5311625270251 L 335.8257343992279,1079.7439689146363 L 334.0320408688071,1078.8054896817484" fill="none" stroke="#000000" stroke-width="1.2"/>
	<path d="M 403.272471880389,1200.0 L 409.15501557917054,1198.0251281738028 L 410.25437609567183,1197.0689082831018 L 413.0702822274334,1193.4745757209785 L 411.9323476348488,1196.3577424976963 L 409.90720964795963,1198.5777125960944 L 406.9948683852611,1199.8846803640602 L 403.272471880389,1200.0" fill="none" stroke="#000000" stroke-width="1.2"/>
	<path d="M 510.50834851418324,1054.9541079417418 L 512.8517224805935,1053.6541907970538 L 513.7292822670097,1052.9031157463073 L 514.4429022597274,1051.834263500402 L 515.1661658603252,1050.3128040834144 L 516.2365959086472,1046.7401241170273 L 517.0080770747177,1041.202563653053 L 518.2328033088462,1038.1591110376467 L 520.6629689168161,1036.0112714741474 L 523.5270924955549,1034.2341928681476 L 525.7065266682546,1032.211441568404 L 527.5966554481234,1029.841851327857 L 526.0440497450688,1034.1619528026033 L 519.380381509323,1038.640679640637 L 517.8759932532457,1043.2491085929253 L 517.3166694463505,1046.778644641773 L 515.8026378193753,1051.627231601002 L 513.4592638529651,1055.2092737898538 L 510.50834851418324,1054.9541079417418" fill="none" stroke="#000000" stroke-width="1.2"/>
	<path d="M 411.8551994826979,876.3830320910376 L 420.4186399877097,876.3830320910376 L 418.66352041486124,878.2181056502976 L 415.84761428311157,878.1070372782615 L 410.46653345485885,876.8273189037893 L 404.5068417224216,875.7359118359807 L 402.0477456462605,874.8473157775027 L 402.53956490890107,873.147350677828 L 404.2946844817337,874.7410694988655 L 406.93700733039157,875.4992763249107 L 409.5407561029661,876.2478135859074 L 411.8551994826979,876.3830320910376" fill="none" stroke="#000000" stroke-width="1.2"/>
	<path d="M 390.4080242033348,864.9654917046321 L 388.88434896847536,863.9414608656296 L 387.84284938834446,861.8546935672559 L 387.6692661052408,859.5359640108463 L 388.71076568537165,857.8161718613543 L 389.17365436131405,859.400701547058 L 389.896917961912,863.3424899974159 L 390.4080242033348,864.9654917046321" fill="none" stroke="#000000" stroke-width="1.2"/>
	<path d="M 192.1952356487585,415.2956455616659 L 191.0187269801104,417.42467015624993 L 188.77178826313235,418.65026450297586 L 186.17768286145574,418.5965541273643 L 184.0946838196971,416.9363734457423 L 188.36676064205943,416.57014630587975 L 192.1952356487585,415.2956455616659" fill="none" stroke="#000000" stroke-width="1.2"/>
	<path d="M 454.12272169025056,1074.2139739401218 L 454.35416602822374,1072.8999923732392 L 454.8459852908564,1073.1165845236144 L 454.12272169025056,1074.2139739401218" fill="none" stroke="#000000" stroke-width="1.2"/>
	<path d="M 436.4750909494112,844.7177639943667 L 436.71617877677744,844.0074254044279 L 436.774039831647,843.5483576955372 L 436.06041983894124,842.6930308795373 L 434.78747592084113,842.2194539181174 L 433.26380068597774,842.1373023278935 L 433.92920323170614,841.9343391127717 L 434.84533709420583,841.8038622772555 L 435.7711144460985,841.8763494894324 L 436.4750909494112,842.2581134506123 L 436.9090490386792,843.2825797189494 L 436.96691009355266,843.6208422795977 L 436.9090490386792,844.2393738102566 L 436.83190088651645,845.1236673247192 L 436.4750909494112,844.7177639943667" fill="none" stroke="#000000" stroke-width="1.2"/>
	<path d="M 251.15568077707854,756.3827201945758 L 251.86930088829524,757.6365411402388 L 250.91459294971227,757.2202182754855 L 251.15568077707854,756.3827201945758" fill="none" stroke="#000000" stroke-width="1.2"/>
	<path d="M 290.2504869157762,707.9606327736113 L 290.1444082954303,707.2724537029835 L 290.0961906114587,706.6908855885673 L 290.4240701988799,706.1626211863121 L 291.2726993986218,705.6682761684826 L 291.4269955844283,706.4000986385427 L 291.24376881193155,706.933206573558 L 290.2504869157762,707.9606327736113" fill="none" stroke="#000000" stroke-width="1.2"/>
	<path d="M 30.56993970975738,359.942971671738 L 30.878532081386243,360.0359055982502 L 31.360707854629783,360.27557607782865 L 31.804309433278977,360.76469408622216 L 32.17076297828835,361.6206332436236 L 30.56993970975738,359.942971671738" fill="none" stroke="#000000" stroke-width="1.2"/>
	<path d="M 0.0,352.48783940470446 L 0.0,350.96627616934137 L 0.5400368281011546,350.6727187777405 L 0.7907681448605052,351.2647233582492 L 0.0,352.48783940470446" fill="none" stroke="#000000" stroke-width="1.2"/>
	<path d="M 763.4191488641063,1019.3558312791243 L 763.8820375400566,1019.837542457948 L 764.344926215999,1020.4926637665208 L 765.6178700156039,1021.5475874318053 L 765.8493143535771,1022.0292819009775 L 765.0585462087047,1022.0244649875857 L 763.8434634639733,1022.0100141268155 L 763.2069915049193,1021.5186857243408 L 763.0719822978989,1020.6275408473047 L 763.4191488641063,1019.3558312791243" fill="none" stroke="#000000" stroke-width="1.2"/>
	<path d="M 785.3484999166972,901.1994234251708 L 786.3032077367731,900.4464110429344 L 786.7950269994097,899.6595983543681 L 786.717878847243,898.8631198207335 L 786.0235458333235,898.0714567154074 L 787.6243692203495,898.8824284819839 L 787.0264713373829,900.5332976428067 L 785.2617082751414,901.9717329527662 L 783.2655008749424,902.1455010923239 L 783.7283895508888,901.7786566380415 L 784.2298521844035,901.5566179736892 L 785.3484999166972,901.1994234251708" fill="none" stroke="#000000" stroke-width="1.2"/>
	<path d="M 799.5823266428082,1024.986804700615 L 797.0364389251032,1024.741152473899 L 794.1723152278653,1025.2758059708444 L 791.597497041977,1025.2613559742617 L 789.9388126000854,1023.3731897608054 L 790.1895439168447,1023.5128774601294 L 790.9320944962367,1023.8018854852339 L 792.0796726967135,1024.0571747692322 L 795.5899118423946,1024.1775939598533 L 799.5823266428082,1024.986804700615" fill="none" stroke="#000000" stroke-width="1.2"/>
	<path d="M 767.2186934026182,916.2236946554945 L 764.0941947807327,915.8135141522927 L 759.1663591390292,912.1362293792624 L 755.8104162976656,911.3640647468148 L 750.3039697517817,912.1941413810249 L 747.7773690128628,911.1034566444591 L 745.9643883851606,907.3196731146107 L 747.1408970538128,908.8737589658797 L 748.4138409719129,909.9837930486073 L 749.9760901643605,910.5532799704961 L 757.6716144908441,910.2057971715204 L 759.253150780589,910.5532799704961 L 764.5377964778888,914.7325531445739 L 767.2186934026182,916.2236946554945" fill="none" stroke="#000000" stroke-width="1.2"/>
	<path d="M 724.1893335183883,899.8768177677242 L 721.0262609389146,901.7110796933305 L 712.3278112268824,902.990199180604 L 708.7404240475456,904.8871016628485 L 705.4230551637504,904.8871016628485 L 701.5077883970083,904.322381953437 L 684.7666480292636,896.8549760255117 L 681.7771586144103,894.518483123704 L 683.5129912084568,892.6646640870919 L 683.541921676636,893.8136532860393 L 683.7444355464299,894.5474485800821 L 684.3230463321154,895.899150332021 L 704.3815555836235,903.9314186174241 L 705.6930735778109,903.9121117654647 L 708.7597110263279,903.3329014563453 L 711.3055987440368,902.4399401806239 L 724.1893335183883,899.8768177677242" fill="none" stroke="#000000" stroke-width="1.2"/>
	<path d="M 771.4329090516119,906.3929920820341 L 771.6932839762753,906.0647887610505 L 771.8668671408799,905.7751959653382 L 772.098311478853,905.5724801107694 L 772.4647650238505,905.4807750475156 L 771.6932839762753,907.0156077129062 L 770.6903584722198,908.3814756856609 L 769.4945627062825,909.5783918943764 L 768.1058966784394,910.6015412983028 L 768.8195167896442,909.491519817032 L 771.4329090516119,906.3929920820341" fill="none" stroke="#000000" stroke-width="1.2"/>
	<path d="M 659.9828167688358,687.3299290739312 L 659.1534745478959,688.6729687149373 L 658.4880721206508,688.4741820096783 L 658.4205675763922,688.4499397384825 L 658.3434194242413,688.4160004167256 L 658.2855583693719,688.3675156760639 L 658.2566277826816,688.3044854673857 L 658.7484470453143,687.2329570925991 L 659.1341875690979,686.9711315801804 L 659.78994650695,686.8935534373328 L 659.9828167688358,687.3299290739312" fill="none" stroke="#000000" stroke-width="1.2"/>
	<path d="M 587.5214520044156,621.5025650857744 L 587.3478687213118,619.4823177855596 L 587.9554100936756,619.5211696637238 L 588.3315071280741,620.5507303166469 L 587.5214520044156,621.5025650857744" fill="none" stroke="#000000" stroke-width="1.2"/>
	<path d="M 662.7022877696485,522.9385553136262 L 662.6830007908624,521.5022994719487 L 663.1651764455949,521.4341368597377 L 663.1844634243811,522.8801324569102 L 662.7022877696485,522.9385553136262" fill="none" stroke="#000000" stroke-width="1.2"/>
	<path d="M 441.8272411909895,0.03961311650263688 L 442.17440775719683,0.0 L 441.4222136884118,0.9407950157621973 L 440.18784384637917,2.1192173117317554 L 439.04990913530736,2.8767467645096927 L 440.35178364008976,1.3963258695038225 L 441.8272411909895,0.03961311650263688" fill="none" stroke="#000000" stroke-width="1.2"/>
</svg>
