<?xml version="1.0" ?>
<svg xmlns="http://www.w3.org/2000/svg" xmlns:ev="http://www.w3.org/2001/xml-events" xmlns:xlink="http://www.w3.org/1999/xlink" baseProfile="full" height="528px" version="1.1" viewBox="-80.4 -70.77292679212024 960.8 845.2751215054428" width="600px">
	<defs/>
	<path d="M 711.8680249586563,455.6806100243018 L 760.1103324258938,476.17129900852365 L 745.8778951121222,486.52711252299514 L 743.4095027902855,494.8684696984347 L 729.2162474085432,494.8684696984347 L 721.1939718936683,497.90160496977524 L 720.4552439079602,478.945810387698 L 711.6362347156613,475.15259943562717 L 700.5139589343478,465.3723221984795 L 711.8680249586563,455.6806100243018" fill="none" stroke="#000000" stroke-width="0.8"/>
	<path d="M 688.987905538541,448.5299340355904 L 700.1909601608675,450.72051892368876 L 711.8680249586563,455.6806100243018 L 700.5139589343478,465.3723221984795 L 692.001059524976,473.3855827824764 L 682.3167914176748,478.9437587804438 L 663.1867495164619,463.01778730012455 L 674.9116144521693,453.91666638249126 L 688.987905538541,448.5299340355904" fill="none" stroke="#000000" stroke-width="0.8"/>
	<path d="M 681.6142643945112,387.5715993842494 L 686.7812433193192,397.30513570207864 L 689.1576491788003,422.8670005812717 L 688.987905538541,448.5299340355904 L 674.9116144521693,453.91666638249126 L 675.5382646292719,445.517447593387 L 654.4161868850439,440.936015212078 L 645.0976249398257,433.68186774120784 L 652.2418560146234,412.6815411939007 L 681.6142643945112,387.5715993842494" fill="none" stroke="#000000" stroke-width="0.8"/>
	<path d="M 662.9277620175726,372.7412753805762 L 676.2571608235268,377.47940928591265 L 681.6142643945112,387.5715993842494 L 652.2418560146234,412.6815411939007 L 645.0976249398257,433.68186774120784 L 636.0896803504563,438.6452610380561 L 629.8773032192378,431.77283734684954 L 623.6649279638252,427.5729085334406 L 622.4582752681275,419.0252194513718 L 629.8634522336243,412.9565239089961 L 630.4805507831288,403.8531371435728 L 626.7779613624142,399.30128803477135 L 627.395059911792,392.4733222831655 L 642.205413842908,389.43859665355404 L 662.9277620175726,372.7412753805762" fill="none" stroke="#000000" stroke-width="0.8"/>
	<path d="M 586.7192714241469,331.24939919424816 L 615.4890717076775,355.87757811057156 L 662.9277620175726,372.7412753805762 L 642.205413842908,389.43859665355404 L 627.395059911792,392.4733222831655 L 626.7779613624142,399.30128803477135 L 609.4992151094615,400.8185832905232 L 601.476939594578,398.5426361128151 L 599.0085472726322,387.16252294294975 L 591.6033703071266,380.33414487334244 L 581.7298010197974,375.78176549374194 L 582.9639981185576,359.08882017829217 L 586.7192714241469,331.24939919424816" fill="none" stroke="#000000" stroke-width="0.8"/>
	<path d="M 531.0730966101246,290.16480699133075 L 545.3851040687366,295.8602995616531 L 586.7192714241469,331.24939919424816 L 582.9639981185576,359.08882017829217 L 581.7298010197974,375.78176549374194 L 566.3023485392948,376.5405010127472 L 557.0458778013435,380.33414487334244 L 552.1090931575524,384.8864234611627 L 549.64070083572,399.30128803477135 L 550.2577975093009,409.16349560355246 L 558.2800730242978,417.50806158388843 L 552.1090931575524,426.6108301746446 L 555.8116807024655,435.71318904482274 L 548.4065037369598,439.50571429616235 L 536.0645421276762,441.78119788639106 L 524.3396771920867,435.71318904482274 L 521.8712848702544,428.88645966977367 L 521.2541881965602,421.3009324837303 L 520.0199910977957,413.71512144506187 L 518.1686973253413,406.88764519587363 L 513.8490093552531,400.0599370940946 L 505.20963716667535,398.5426361128151 L 497.8044602011785,389.43859665355404 L 494.71896932984606,384.8864234611627 L 497.8044602011785,381.09286551515464 L 497.8044602011785,373.50553483284887 L 493.48477223108586,363.6415776618419 L 495.33606787934616,353.0183148869356 L 502.12414629546515,340.8767541372999 L 515.0832064541311,319.62725495229006 L 531.0730966101246,290.16480699133075" fill="none" stroke="#000000" stroke-width="0.8"/>
	<path d="M 463.45749919665735,276.63257253397353 L 510.75747940680895,282.0798883097027 L 531.0730966101246,290.16480699133075 L 515.0832064541311,319.62725495229006 L 502.12414629546515,340.8767541372999 L 495.33606787934616,353.0183148869356 L 493.48477223108586,363.6415776618419 L 497.8044602011785,373.50553483284887 L 497.8044602011785,381.09286551515464 L 494.71896932984606,384.8864234611627 L 497.8044602011785,389.43859665355404 L 505.20963716667535,398.5426361128151 L 499.0386554241284,406.1290219000201 L 493.48477223108586,410.6807164346691 L 487.93089091372275,406.1290219000201 L 485.4624985918948,397.7839836340899 L 479.90861539884355,393.2319971090123 L 471.8863398838466,387.16252294294975 L 460.77857349763065,384.8864234611627 L 444.11692579418246,387.9212178118865 L 439.79723782408985,391.7146469002705 L 442.26563014592216,394.7493381715332 L 450.28790566080136,393.990669071755 L 456.45888740334834,396.2666654755992 L 458.9272797251806,403.8531371435728 L 466.33245669080407,408.4048808946904 L 473.73763365630094,411.43932025092005 L 475.58892742875094,416.74948066344854 L 471.26924133446425,420.5423635659669 L 463.2469658194673,425.0937318440459 L 458.31018117579833,429.644997112465 L 451.52210275967934,428.88645966977367 L 442.26563014592216,425.0937318440459 L 434.86045318029875,419.0252194513718 L 433.6262579573488,409.16349560355246 L 431.1578656355165,395.5080021020118 L 426.22108099172976,388.67990751122693 L 410.79362851134493,387.16252294294975 L 404.0055482193066,385.6451246144028 L 403.3884496699243,378.05796807144577 L 408.9423328630933,372.74678785725655 L 412.0278237343036,365.1591421089207 L 408.3252361893992,360.60641669684173 L 396.600371253801,357.5712098930512 L 392.2806851595143,345.4299242362912 L 393.5148803825907,334.0468032235107 L 399.6858621250199,329.49337285990606 L 416.34750982859026,324.18090892529966 L 429.9236685366385,315.07350006773885 L 450.9050042103014,309.00166477269835 L 463.45749919665735,276.63257253397353" fill="none" stroke="#000000" stroke-width="0.8"/>
	<path d="M 328.07150819452823,385.08018559562584 L 322.5122005395395,330.2028141962298 L 310.6301712423782,289.492195362427 L 288.7332900212532,263.07807423535013 L 315.2132401325371,239.3754882159192 L 341.8629309867125,223.08486502681788 L 371.05877261484426,213.58139174169162 L 403.98896690381724,210.44827728801778 L 403.98896690381724,229.45507315583134 L 384.9777200283347,233.00559490704376 L 372.75620507369763,239.27106561750892 L 345.7670264762481,263.07807423535013 L 463.45749919665735,276.63257253397353 L 450.9050042103014,309.00166477269835 L 429.9236685366385,315.07350006773885 L 416.34750982859026,324.18090892529966 L 399.6858621250199,329.49337285990606 L 393.5148803825907,334.0468032235107 L 392.2806851595143,345.4299242362912 L 396.600371253801,357.5712098930512 L 392.2806851595143,362.88279344771286 L 378.7045264514748,364.40036131778845 L 371.2993494859692,370.47052282550294 L 354.6376999065929,378.05796807144577 L 341.0615430743506,382.6102959008281 L 328.07150819452823,385.08018559562584" fill="none" stroke="#000000" stroke-width="0.8"/>
	<path d="M 331.67833623407205,450.1244105534682 L 331.67833623407205,420.6761112861473 L 328.07150819452823,385.08018559562584 L 341.0615430743506,382.6102959008281 L 354.6376999065929,378.05796807144577 L 371.2993494859692,370.47052282550294 L 378.7045264514748,364.40036131778845 L 392.2806851595143,362.88279344771286 L 396.600371253801,357.5712098930512 L 408.3252361893992,360.60641669684173 L 412.0278237343036,365.1591421089207 L 408.9423328630933,372.74678785725655 L 403.3884496699243,378.05796807144577 L 404.0055482193066,385.6451246144028 L 410.79362851134493,387.16252294294975 L 426.22108099172976,388.67990751122693 L 431.1578656355165,395.5080021020118 L 433.6262579573488,409.16349560355246 L 434.86045318029875,419.0252194513718 L 442.26563014592216,425.0937318440459 L 451.52210275967934,428.88645966977367 L 458.31018117579833,429.644997112465 L 460.1614749482571,437.23020726626675 L 450.9050042103014,440.26421168673676 L 439.79723782408985,440.26421168673676 L 424.9868838929695,442.5396843898687 L 412.0278237343036,444.0566534269002 L 405.8568438675669,451.6413223870679 L 399.0687635756376,452.3997717084256 L 391.04648806075846,448.60748958551375 L 384.25840964463947,452.3997717084256 L 376.2361341296381,452.3997717084256 L 370.0651523870955,459.22570304981195 L 365.12836774342657,463.01778730012455 L 357.72319077792093,462.25937570779627 L 349.08381858935195,453.1582204753702 L 341.0615430743506,455.4335473121145 L 331.67833623407205,450.1244105534682" fill="none" stroke="#000000" stroke-width="0.8"/>
	<path d="M 377.96044547265996,541.8306667338518 L 374.28389470374333,536.0305191457778 L 367.66390769736864,528.3144779754366 L 338.1285804117699,512.36009950738 L 331.67833623407205,500.15883960716843 L 331.67833623407205,450.1244105534682 L 341.0615430743506,455.4335473121145 L 349.08381858935195,453.1582204753702 L 357.72319077792093,462.25937570779627 L 365.12836774342657,463.01778730012455 L 370.0651523870955,459.22570304981195 L 376.2361341296381,452.3997717084256 L 384.25840964463947,452.3997717084256 L 391.04648806075846,448.60748958551375 L 399.0687635756376,452.3997717084256 L 405.8568438675669,451.6413223870679 L 412.0278237343036,444.0566534269002 L 424.9868838929695,442.5396843898687 L 439.79723782408985,440.26421168673676 L 450.9050042103014,440.26421168673676 L 460.1614749482571,437.23020726626675 L 466.33245669080407,444.81513365481703 L 471.8863398838466,450.1244105534682 L 478.67441829996557,456.9504191082731 L 477.44022307701124,466.051402771726 L 475.58892742875094,472.87687090419956 L 468.1837504631363,475.15197472095747 L 458.9272797251806,475.15197472095747 L 448.436611888347,475.9103377110848 L 442.26563014592216,482.7354713793663 L 443.49982724468236,493.35188376510496 L 456.45888740334834,497.90160496977524 L 461.3956720470173,502.4512210038463 L 471.8863398838466,502.4512210038463 L 478.05731975058325,503.2094811110726 L 477.44022307701124,513.8248157211663 L 481.1428106218022,516.8576652987888 L 485.4624985918948,543.3931493700493 L 478.05731975058325,553.2482962837274 L 465.0982595919173,555.5224940439558 L 448.436611888347,552.4902269593962 L 442.8827286953044,544.9093582833198 L 441.648533472228,538.0863328518192 L 436.7117469527575,532.7793764303324 L 425.6039824423518,532.7793764303324 L 404.0055482193066,535.811940418101 L 389.19519428830404,535.0538031279932 L 377.96044547265996,541.8306667338518" fill="none" stroke="#000000" stroke-width="0.8"/>
	<path d="M 428.79070130843235,605.616701934444 L 412.8156169408697,596.810086028256 L 377.96044547265996,541.8306667338518 L 389.19519428830404,535.0538031279932 L 404.0055482193066,535.811940418101 L 425.6039824423518,532.7793764303324 L 436.7117469527575,532.7793764303324 L 441.648533472228,538.0863328518192 L 442.8827286953044,544.9093582833198 L 448.436611888347,552.4902269593962 L 447.2024147895911,560.8288509803685 L 438.56304260101774,575.9891019343928 L 431.1578656355165,582.8108430916739 L 428.79070130843235,605.616701934444" fill="none" stroke="#000000" stroke-width="0.8"/>
	<path d="M 511.4674371764837,649.0304637094006 L 502.4400599415765,646.212549343646 L 428.79070130843235,605.616701934444 L 431.1578656355165,582.8108430916739 L 438.56304260101774,575.9891019343928 L 447.2024147895911,560.8288509803685 L 448.436611888347,552.4902269593962 L 465.0982595919173,555.5224940439558 L 478.05731975058325,553.2482962837274 L 485.4624985918948,543.3931493700493 L 492.86767555751385,542.6350429356155 L 499.0386554241284,547.1836479378615 L 511.3806170334208,552.4902269593962 L 524.3396771920867,558.5547154611568 L 537.2987373507483,554.0063650580255 L 543.4697190931819,547.9417395480638 L 546.5552099645099,541.8769313418637 L 558.8971715736758,539.6025817348935 L 567.536545638055,541.1188168931047 L 574.324624054174,547.1836479378615 L 578.0272115990871,549.4579142047905 L 583.5810947921296,546.4255557772595 L 590.3691750841723,552.4902269593962 L 597.1572535002913,552.4902269593962 L 598.3914505990559,562.3449262886809 L 588.5178794359164,570.6831445090561 L 581.1127024702973,579.0210151662309 L 572.4733302818418,580.5369558165298 L 570.6220346335815,585.8426536220414 L 564.4510547668448,588.8744185116097 L 561.9826624450125,596.453632226589 L 557.0458778013435,606.3061827715621 L 549.64070083572,608.579779135421 L 543.4697190931819,610.0954950203728 L 536.0645421276762,616.9160811308298 L 537.9158359001306,624.494239825448 L 536.0645421276762,629.0409963762016 L 526.8080695139147,629.0409963762016 L 518.7857958747236,634.3454190740616 L 511.4674371764837,649.0304637094006" fill="none" stroke="#000000" stroke-width="0.8"/>
	<path d="M 563.123631543396,665.1542931982616 L 511.4674371764837,649.0304637094006 L 518.7857958747236,634.3454190740616 L 526.8080695139147,629.0409963762016 L 536.0645421276762,629.0409963762016 L 537.9158359001306,624.494239825448 L 536.0645421276762,616.9160811308298 L 543.4697190931819,610.0954950203728 L 549.64070083572,608.579779135421 L 557.0458778013435,606.3061827715621 L 568.7707408611315,608.579779135421 L 578.6443101484607,612.3690509191362 L 590.9862717577444,610.0954950203728 L 593.454664079581,617.6739102892168 L 587.28368421284,620.7051961111877 L 586.6665856634577,626.009835975875 L 590.9862717577444,629.798779926561 L 586.0494871140841,634.3454190740616 L 579.8785072473387,639.6496998239794 L 567.536545638055,654.0463304653522 L 563.123631543396,665.1542931982616" fill="none" stroke="#000000" stroke-width="0.8"/>
	<path d="M 654.9741133813053,682.7136608092337 L 602.9280710956781,677.5778670088426 L 563.123631543396,665.1542931982616 L 567.536545638055,654.0463304653522 L 579.8785072473387,639.6496998239794 L 586.0494871140841,634.3454190740616 L 590.9862717577444,629.798779926561 L 586.6665856634577,626.009835975875 L 587.28368421284,620.7051961111877 L 593.454664079581,617.6739102892168 L 590.9862717577444,610.0954950203728 L 602.7111366933426,609.3376396554531 L 610.7334122083396,608.579779135421 L 619.9898829462952,612.3690509191362 L 625.5437661393377,619.1895577497984 L 616.9043920750806,628.2832122791771 L 617.5214906244629,633.5876526239402 L 624.3095690405819,640.407443476116 L 631.0976493325024,642.6806550323045 L 640.3541200704581,638.1342039706518 L 648.376395585455,632.8298833237327 L 655.7815725509563,636.6186990220755 L 661.335455744121,638.8919533220533 L 668.7406327096265,632.0721111737182 L 678.6142019969558,630.5565606267992 L 681.6996928682926,641.1651819754085 L 686.0193789625793,654.0463304653522 L 684.1680851901249,658.5924225376854 L 674.9116144521693,660.107762237365 L 663.1867495164619,656.3193904721518 L 657.6328663234107,656.3193904721518 L 656.3986711003429,662.3807538781831 L 660.7183571946252,672.2300811981597 L 658.2499648727929,676.7757608284724 L 654.9741133813053,682.7136608092337" fill="none" stroke="#000000" stroke-width="0.8"/>
	<path d="M 743.9145009475504,632.5961992094368 L 727.6893693302549,650.5893975288179 L 717.3350296630301,672.1596236197217 L 717.3350296630301,703.7292679212023 L 683.8956068880136,690.2893311597935 L 674.729471193481,684.6630436366933 L 654.9741133813053,682.7136608092337 L 658.2499648727929,676.7757608284724 L 660.7183571946252,672.2300811981597 L 656.3986711003429,662.3807538781831 L 657.6328663234107,656.3193904721518 L 663.1867495164619,656.3193904721518 L 674.9116144521693,660.107762237365 L 684.1680851901249,658.5924225376854 L 686.0193789625793,654.0463304653522 L 681.6996928682926,641.1651819754085 L 678.6142019969558,630.5565606267992 L 687.253576061335,629.798779926561 L 692.1903607051219,623.7364363229495 L 694.041654477454,616.9160811308298 L 699.5955376706187,614.6425788544193 L 709.4691069579567,612.3690509191362 L 712.5545978292847,604.7904360693269 L 719.9597747947903,604.7904360693269 L 728.5991488591695,608.579779135421 L 738.4727181464988,619.9473783557455 L 743.9145009475504,632.5961992094368" fill="none" stroke="#000000" stroke-width="0.8"/>
	<path d="M 797.2245685221736,600.0542032317916 L 788.7969441034708,630.4759484818269 L 760.1103330471678,614.6338905292873 L 743.9145009475504,632.5961992094368 L 738.4727181464988,619.9473783557455 L 728.5991488591695,608.579779135421 L 719.9597747947903,604.7904360693269 L 712.5545978292847,604.7904360693269 L 711.3204026062169,592.6640610212039 L 724.279462764883,593.4219814273187 L 729.2162474085432,588.8744185116097 L 741.5582090178356,590.3902849940022 L 753.9001706270014,597.2115360684863 L 760.6882490431203,589.6323531788873 L 771.7960154293363,594.9378113790629 L 783.5208784892377,596.453632226589 L 797.2245685221736,600.0542032317916" fill="none" stroke="#000000" stroke-width="0.8"/>
	<path d="M 786.9367266865098,519.7685009433008 L 791.682580534772,527.4802930223631 L 800.0,590.0345415223196 L 797.2245685221736,600.0542032317916 L 783.5208784892377,596.453632226589 L 771.7960154293363,594.9378113790629 L 760.6882490431203,589.6323531788873 L 757.6027600477117,584.3267552140454 L 756.9856614983294,579.0210151662309 L 759.4540538201661,572.9571430530827 L 756.3685629489559,564.6190213039703 L 749.5804845327148,550.9740751387657 L 755.1343677258794,545.667458457671 L 761.3053475926205,544.9093582833198 L 766.8592307856674,538.0863328518192 L 769.3276231074997,530.5049240336806 L 786.9367266865098,519.7685009433008" fill="none" stroke="#000000" stroke-width="0.8"/>
	<path d="M 777.1110383945703,503.80127457727207 L 786.9367266865098,519.7685009433008 L 769.3276231074997,530.5049240336806 L 766.8592307856674,538.0863328518192 L 761.3053475926205,544.9093582833198 L 755.1343677258794,545.667458457671 L 749.5804845327148,550.9740751387657 L 732.9188349534562,549.4579142047905 L 726.7478550867196,542.6350429356155 L 717.4913824729537,541.8769313418637 L 712.5545978292847,538.8444587209908 L 715.0229901511213,530.5049240336806 L 718.7255795718316,524.4395881523424 L 720.5768733441726,518.3740717968509 L 715.6400887005036,516.0994566127008 L 716.2571872498859,507.75897945157004 L 721.1939718936683,497.90160496977524 L 729.2162474085432,494.8684696984347 L 743.4095027902855,494.8684696984347 L 750.8146797557912,506.2424906642884 L 760.6882490431203,510.791920439714 L 777.1110383945703,503.80127457727207" fill="none" stroke="#000000" stroke-width="0.8"/>
	<path d="M 760.1103324258938,476.17129900852365 L 777.1110383945703,503.80127457727207 L 760.6882490431203,510.791920439714 L 750.8146797557912,506.2424906642884 L 743.4095027902855,494.8684696984347 L 745.8778951121222,486.52711252299514 L 760.1103324258938,476.17129900852365" fill="none" stroke="#000000" stroke-width="0.8"/>
	<path d="M 23.444252545727554,118.64953586669216 L 2.7158915168478246,105.2517513242964 L 9.166135694536948,77.5592796450696 L 1.5276896300544303,49.54941754747118 L 0.0,27.807720760010547 L 16.326508189809523,41.39138433038302 L 38.53976372820208,51.11820213563878 L 47.42506406770258,47.47070223021591 L 51.374088108212945,56.58932982844905 L 58.77850537047028,60.84454785112747 L 55.32311027291303,72.39396962444226 L 48.4123200778029,79.0801736559714 L 48.4123200778029,88.80516260395105 L 34.59073968769171,103.3917603701683 L 23.444252545727554,118.64953586669216" fill="none" stroke="#000000" stroke-width="0.8"/>
	<path d="M 54.36615210779757,134.80290481060726 L 36.6645448639287,127.1940096515188 L 23.444252545727554,118.64953586669216 L 34.59073968769171,103.3917603701683 L 48.4123200778029,88.80516260395105 L 48.4123200778029,79.0801736559714 L 55.32311027291303,72.39396962444226 L 58.77850537047028,60.84454785112747 L 73.58734177067743,62.06030816483108 L 80.00450489864907,69.35471287142839 L 93.8260852887559,71.78612288458324 L 99.74961947377443,79.6879982771331 L 102.71138750418447,88.80516260395105 L 108.14129274613208,91.8441244677638 L 108.63492168908085,96.70636948022275 L 108.14129274613208,112.50784682859296 L 97.77510745346035,109.46919816422245 L 89.3834341811027,108.25372534229737 L 81.48538797589224,111.90011939403384 L 68.15743465292826,121.01581904493248 L 54.36615210779757,134.80290481060726" fill="none" stroke="#000000" stroke-width="0.8"/>
	<path d="M 103.03408149484686,151.74144875821753 L 77.74241370343209,144.85056273364233 L 54.36615210779757,134.80290481060726 L 68.15743465292826,121.01581904493248 L 81.48538797589224,111.90011939403384 L 89.3834341811027,108.25372534229737 L 97.77510745346035,109.46919816422245 L 108.14129274613208,112.50784682859296 L 112.0903167866381,118.58500601556197 L 119.98836299185291,121.01581904493248 L 118.50747803879946,125.87735439741088 L 113.07757279673842,135.60007386287947 L 104.68589764857484,145.32232200323526 L 103.03408149484686,151.74144875821753" fill="none" stroke="#000000" stroke-width="0.8"/>
	<path d="M 187.78541670187846,153.1652610301048 L 159.38892498229407,159.4761162771234 L 120.68745991636875,156.55109087896213 L 103.03408149484686,151.74144875821753 L 104.68589764857484,145.32232200323526 L 113.07757279673842,135.60007386287947 L 118.50747803879946,125.87735439741088 L 125.91189717686707,127.70040179048189 L 141.70798958717455,127.70040179048189 L 151.08691886974597,130.13110201996855 L 157.99770906486046,136.81538094281498 L 167.87026729026718,139.8536152698713 L 177.24919657272082,145.32232200323526 L 183.66635782488655,144.71469631134025 L 187.78541670187846,153.1652610301048" fill="none" stroke="#000000" stroke-width="0.8"/>
	<path d="M 243.0296751906641,129.94955697139702 L 196.05346984622278,151.3277260664434 L 187.78541670187846,153.1652610301048 L 183.66635782488655,144.71469631134025 L 184.6536138349825,141.67653331250466 L 193.0452889831461,133.16943760931738 L 194.03254311755828,121.62351654344792 L 198.47519422520713,116.76187806036162 L 202.42421826571749,108.25372534229737 L 211.30952048102827,114.33101346220583 L 220.19482082053312,116.1541635188626 L 236.48454217390716,116.1541635188626 L 241.42082034870757,122.23121450966606 L 243.0296751906641,129.94955697139702" fill="none" stroke="#000000" stroke-width="0.8"/>
	<path d="M 285.38912956245804,75.38244449319654 L 314.1947810744249,105.87870477333166 L 288.7332900212532,124.37299845203725 L 252.0687451573245,125.83574985854933 L 243.0296751906641,129.94955697139702 L 241.42082034870757,122.23121450966606 L 236.48454217390716,116.1541635188626 L 253.76151766169338,113.72329386258298 L 258.69779583648943,107.03824515221386 L 259.191422903641,94.88304026505993 L 260.67230785668573,88.80516260395105 L 268.0767251189474,86.98176383465133 L 275.48114425701067,82.11928295062516 L 285.38912956245804,75.38244449319654" fill="none" stroke="#000000" stroke-width="0.8"/>
	<path d="M 220.00002001101234,28.571905901354064 L 273.6261407209693,62.92774950638162 L 285.38912956245804,75.38244449319654 L 275.48114425701067,82.11928295062516 L 268.0767251189474,86.98176383465133 L 260.67230785668573,88.80516260395105 L 259.191422903641,94.88304026505993 L 258.69779583648943,107.03824515221386 L 253.76151766169338,113.72329386258298 L 236.48454217390716,116.1541635188626 L 220.19482082053312,116.1541635188626 L 211.30952048102827,114.33101346220583 L 202.42421826571749,108.25372534229737 L 202.9178453328647,96.70636948022275 L 205.87961336327473,89.41295773829192 L 207.3604964405179,77.86451657459342 L 213.77765956848955,74.82534277026303 L 213.77765956848955,46.254853404798276 L 220.00002001101234,28.571905901354064" fill="none" stroke="#000000" stroke-width="0.8"/>
	<path d="M 184.36899678616007,11.778830941492354 L 206.40780742754438,19.86305081079905 L 220.00002001101234,28.571905901354064 L 213.77765956848955,46.254853404798276 L 213.77765956848955,74.82534277026303 L 207.3604964405179,77.86451657459342 L 205.87961336327473,89.41295773829192 L 202.9178453328647,96.70636948022275 L 202.42421826571749,108.25372534229737 L 191.0707769629498,99.74521157668681 L 183.17273075773934,96.09859414780877 L 173.79380147528573,97.92190999840462 L 161.94673122956053,100.35297354491773 L 149.1124068494319,97.92190999840462 L 150.09966285965,91.23633670428617 L 145.65701175187465,85.15834617017674 L 139.73347756697825,76.6488521205723 L 145.1633846847318,76.04101828368516 L 147.63152377218873,71.1782719915201 L 144.66975574177866,62.66818440112605 L 145.65701175187465,54.15773544712599 L 153.06143088994224,45.64692507064265 L 162.93398723966087,40.78344355143036 L 175.27468455252452,40.17549861766816 L 177.24919657272082,35.31188429612384 L 176.75556762977206,26.800273416691805 L 175.76831349547766,20.112324814763035 L 184.36899678616007,11.778830941492354" fill="none" stroke="#000000" stroke-width="0.8"/>
	<path d="M 104.12383715778665,7.263738619341753 L 152.25970740397287,0.0 L 184.36899678616007,11.778830941492354 L 175.76831349547766,20.112324814763035 L 176.75556762977206,26.800273416691805 L 177.24919657272082,35.31188429612384 L 175.27468455252452,40.17549861766816 L 162.93398723966087,40.78344355143036 L 153.06143088994224,45.64692507064265 L 145.65701175187465,54.15773544712599 L 144.66975574177866,62.66818440112605 L 147.63152377218873,71.1782719915201 L 145.1633846847318,76.04101828368516 L 139.73347756697825,76.6488521205723 L 128.38003626421056,76.6488521205723 L 116.53296789429567,67.53113716036798 L 115.54571188419534,52.94192719263981 L 110.60943370939928,46.254853404798276 L 103.6986435142848,48.68654136859322 L 99.25599240662723,46.86277758458061 L 97.28148038631315,33.48799877809732 L 97.77510745346035,17.68028773059083 L 104.12383715778665,7.263738619341753" fill="none" stroke="#000000" stroke-width="0.8"/>
	<path d="M 61.157822854231526,13.747119662362916 L 104.12383715778665,7.263738619341753 L 97.77510745346035,17.68028773059083 L 97.28148038631315,33.48799877809732 L 99.25599240662723,46.86277758458061 L 103.6986435142848,48.68654136859322 L 110.60943370939928,46.254853404798276 L 115.54571188419534,52.94192719263981 L 116.53296789429567,67.53113716036798 L 106.16678260174172,66.92327336307655 L 96.78785144336439,68.13899680422844 L 93.8260852887559,71.78612288458324 L 80.00450489864907,69.35471287142839 L 73.58734177067743,62.06030816483108 L 72.10645869343426,45.03899720218295 L 67.66380758578106,32.88003170916475 L 60.259390323523725,23.760325085706185 L 61.157822854231526,13.747119662362916" fill="none" stroke="#000000" stroke-width="0.8"/>
	<path d="M 0.0,27.807720760010547 L 24.78251556664959,19.235828230134203 L 61.157822854231526,13.747119662362916 L 60.259390323523725,23.760325085706185 L 67.66380758578106,32.88003170916475 L 72.10645869343426,45.03899720218295 L 73.58734177067743,62.06030816483108 L 58.77850537047028,60.84454785112747 L 51.374088108212945,56.58932982844905 L 47.42506406770258,47.47070223021591 L 38.53976372820208,51.11820213563878 L 16.326508189809523,41.39138433038302 L 0.0,27.807720760010547" fill="none" stroke="#000000" stroke-width="0.8"/>
	<path d="M 108.63492168908085,96.70636948022275 L 108.14129274613208,91.8441244677638 L 102.71138750418447,88.80516260395105 L 99.74961947377443,79.6879982771331 L 93.8260852887559,71.78612288458324 L 96.78785144336439,68.13899680422844 L 106.16678260174172,66.92327336307655 L 116.53296789429567,67.53113716036798 L 128.38003626421056,76.6488521205723 L 139.73347756697825,76.6488521205723 L 145.65701175187465,85.15834617017674 L 150.09966285965,91.23633670428617 L 149.1124068494319,97.92190999840462 L 147.13789670504588,110.6846613084082 L 139.73347756697825,111.29239242691565 L 132.82268737186376,110.6846613084082 L 127.39278025411024,115.54644944494414 L 126.8991531869674,107.03824515221386 L 119.49473404889979,102.7840076134922 L 115.54571188419534,96.70636948022275 L 108.63492168908085,96.70636948022275" fill="none" stroke="#000000" stroke-width="0.8"/>
	<path d="M 108.14129274613208,112.50784682859296 L 108.63492168908085,96.70636948022275 L 115.54571188419534,96.70636948022275 L 119.49473404889979,102.7840076134922 L 126.8991531869674,107.03824515221386 L 127.39278025411024,115.54644944494414 L 119.98836299185291,121.01581904493248 L 112.0903167866381,118.58500601556197 L 108.14129274613208,112.50784682859296" fill="none" stroke="#000000" stroke-width="0.8"/>
	<path d="M 118.50747803879946,125.87735439741088 L 119.98836299185291,121.01581904493248 L 127.39278025411024,115.54644944494414 L 132.82268737186376,110.6846613084082 L 139.73347756697825,111.29239242691565 L 147.13789670504588,110.6846613084082 L 149.1124068494319,97.92190999840462 L 161.94673122956053,100.35297354491773 L 173.79380147528573,97.92190999840462 L 183.17273075773934,96.09859414780877 L 191.0707769629498,99.74521157668681 L 202.42421826571749,108.25372534229737 L 198.47519422520713,116.76187806036162 L 194.03254311755828,121.62351654344792 L 193.0452889831461,133.16943760931738 L 184.6536138349825,141.67653331250466 L 183.66635782488655,144.71469631134025 L 177.24919657272082,145.32232200323526 L 167.87026729026718,139.8536152698713 L 157.99770906486046,136.81538094281498 L 151.08691886974597,130.13110201996855 L 141.70798958717455,127.70040179048189 L 125.91189717686707,127.70040179048189 L 118.50747803879946,125.87735439741088" fill="none" stroke="#000000" stroke-width="0.8"/>
	<path d="M 460.1614749482571,437.23020726626675 L 458.31018117579833,429.644997112465 L 463.2469658194673,425.0937318440459 L 471.26924133446425,420.5423635659669 L 475.58892742875094,416.74948066344854 L 473.73763365630094,411.43932025092005 L 466.33245669080407,408.4048808946904 L 458.9272797251806,403.8531371435728 L 456.45888740334834,396.2666654755992 L 450.28790566080136,393.990669071755 L 442.26563014592216,394.7493381715332 L 439.79723782408985,391.7146469002705 L 444.11692579418246,387.9212178118865 L 460.77857349763065,384.8864234611627 L 471.8863398838466,387.16252294294975 L 479.90861539884355,393.2319971090123 L 485.4624985918948,397.7839836340899 L 487.93089091372275,406.1290219000201 L 493.48477223108586,410.6807164346691 L 499.0386554241284,406.1290219000201 L 505.20963716667535,398.5426361128151 L 513.8490093552531,400.0599370940946 L 518.1686973253413,406.88764519587363 L 520.0199910977957,413.71512144506187 L 521.2541881965602,421.3009324837303 L 521.8712848702544,428.88645966977367 L 524.3396771920867,435.71318904482274 L 520.637089647178,440.26421168673676 L 520.637089647178,448.60748958551375 L 524.9567757414646,463.01778730012455 L 517.5515987759677,462.25937570779627 L 510.14642181034435,456.9504191082731 L 498.42155687475486,451.6413223870679 L 485.4624985918948,453.1582204753702 L 478.67441829996557,456.9504191082731 L 471.8863398838466,450.1244105534682 L 466.33245669080407,444.81513365481703 L 460.1614749482571,437.23020726626675" fill="none" stroke="#000000" stroke-width="0.8"/>
	<path d="M 524.9567757414646,463.01778730012455 L 520.637089647178,448.60748958551375 L 520.637089647178,440.26421168673676 L 524.3396771920867,435.71318904482274 L 536.0645421276762,441.78119788639106 L 548.4065037369598,439.50571429616235 L 552.7261898312465,447.8490236585116 L 547.1723066380863,463.77619603315287 L 534.2132483552263,464.5345996016106 L 524.9567757414646,463.01778730012455" fill="none" stroke="#000000" stroke-width="0.8"/>
	<path d="M 498.42155687475486,451.6413223870679 L 510.14642181034435,456.9504191082731 L 517.5515987759677,462.25937570779627 L 524.9567757414646,463.01778730012455 L 534.2132483552263,464.5345996016106 L 547.1723066380863,463.77619603315287 L 552.7261898312465,472.1184964794376 L 560.1313667967522,476.66869784243573 L 571.8562317323417,478.9437587804438 L 570.0049379598873,487.2854303336041 L 565.0681533162227,494.11017816046007 L 541.6184253208409,495.6267583786974 L 528.6593651621749,496.3850418964486 L 521.8712848702544,503.2094811110726 L 511.3806170334208,505.4842419851354 L 500.2728525230151,503.967738361093 L 489.7821846861815,500.93469452313377 L 478.05731975058325,503.2094811110726 L 474.3547322056832,491.07698573786405 L 474.97183075505677,482.7354713793663 L 475.58892742875094,472.87687090419956 L 477.44022307701124,466.051402771726 L 478.67441829996557,456.9504191082731 L 485.4624985918948,453.1582204753702 L 498.42155687475486,451.6413223870679" fill="none" stroke="#000000" stroke-width="0.8"/>
	<path d="M 456.45888740334834,497.90160496977524 L 443.49982724468236,493.35188376510496 L 442.26563014592216,482.7354713793663 L 448.436611888347,475.9103377110848 L 458.9272797251806,475.15197472095747 L 468.1837504631363,475.15197472095747 L 475.58892742875094,472.87687090419956 L 474.97183075505677,482.7354713793663 L 474.3547322056832,491.07698573786405 L 466.9495552401776,491.07698573786405 L 459.5443782746807,493.35188376510496 L 456.45888740334834,497.90160496977524" fill="none" stroke="#000000" stroke-width="0.8"/>
	<path d="M 456.45888740334834,497.90160496977524 L 459.5443782746807,493.35188376510496 L 466.9495552401776,491.07698573786405 L 474.3547322056832,491.07698573786405 L 478.05731975058325,503.2094811110726 L 471.8863398838466,502.4512210038463 L 461.3956720470173,502.4512210038463 L 456.45888740334834,497.90160496977524" fill="none" stroke="#000000" stroke-width="0.8"/>
	<path d="M 485.4624985918948,543.3931493700493 L 481.1428106218022,516.8576652987888 L 477.44022307701124,513.8248157211663 L 478.05731975058325,503.2094811110726 L 489.7821846861815,500.93469452313377 L 500.2728525230151,503.967738361093 L 511.3806170334208,505.4842419851354 L 521.8712848702544,503.2094811110726 L 528.6593651621749,496.3850418964486 L 541.6184253208409,495.6267583786974 L 565.0681533162227,494.11017816046007 L 562.5997591185845,500.93469452313377 L 558.8971715736758,507.00073648639255 L 560.7484653461345,517.6158711283339 L 565.6852499897947,522.9232273522118 L 576.1759178266284,524.4395881523424 L 582.3468995691753,529.7467667553466 L 582.3468995691753,538.0863328518192 L 583.5810947921296,546.4255557772595 L 578.0272115990871,549.4579142047905 L 574.324624054174,547.1836479378615 L 567.536545638055,541.1188168931047 L 558.8971715736758,539.6025817348935 L 546.5552099645099,541.8769313418637 L 543.4697190931819,547.9417395480638 L 537.2987373507483,554.0063650580255 L 524.3396771920867,558.5547154611568 L 511.3806170334208,552.4902269593962 L 499.0386554241284,547.1836479378615 L 492.86767555751385,542.6350429356155 L 485.4624985918948,543.3931493700493" fill="none" stroke="#000000" stroke-width="0.8"/>
	<path d="M 583.5810947921296,546.4255557772595 L 582.3468995691753,538.0863328518192 L 582.3468995691753,529.7467667553466 L 576.1759178266284,524.4395881523424 L 565.6852499897947,522.9232273522118 L 560.7484653461345,517.6158711283339 L 558.8971715736758,507.00073648639255 L 562.5997591185845,500.93469452313377 L 565.0681533162227,494.11017816046007 L 570.0049379598873,487.2854303336041 L 571.8562317323417,478.9437587804438 L 584.1981933416254,489.56037353279 L 597.7743520496736,491.07698573786405 L 605.1795290151748,494.8684696984347 L 616.2872954013865,497.1433248617585 L 626.7779613624142,512.3083726413092 L 619.9898829462952,516.0994566127008 L 618.7556877232188,522.1650415158488 L 611.9676074312982,529.7467667553466 L 597.1572535002913,552.4902269593962 L 590.3691750841723,552.4902269593962 L 583.5810947921296,546.4255557772595" fill="none" stroke="#000000" stroke-width="0.8"/>
	<path d="M 566.3023485392948,376.5405010127472 L 581.7298010197974,375.78176549374194 L 591.6033703071266,380.33414487334244 L 599.0085472726322,387.16252294294975 L 601.476939594578,398.5426361128151 L 609.4992151094615,400.8185832905232 L 626.7779613624142,399.30128803477135 L 630.4805507831288,403.8531371435728 L 629.8634522336243,412.9565239089961 L 622.4582752681275,419.0252194513718 L 618.1385891738452,414.4737138131019 L 612.584705980794,419.7837940924292 L 602.0940381439602,423.5766197620248 L 589.7520765346766,422.8180617346738 L 584.1981933416254,420.5423635659669 L 582.3468995691753,408.4048808946904 L 577.4101149255064,400.0599370940946 L 575.5588192772504,387.9212178118865 L 566.3023485392948,384.12771713809934 L 566.3023485392948,376.5405010127472" fill="none" stroke="#000000" stroke-width="0.8"/>
	<path d="M 558.2800730242978,417.50806158388843 L 550.2577975093009,409.16349560355246 L 549.64070083572,399.30128803477135 L 552.1090931575524,384.8864234611627 L 557.0458778013435,380.33414487334244 L 566.3023485392948,376.5405010127472 L 566.3023485392948,384.12771713809934 L 575.5588192772504,387.9212178118865 L 577.4101149255064,400.0599370940946 L 582.3468995691753,408.4048808946904 L 584.1981933416254,420.5423635659669 L 581.1127024702973,426.6108301746446 L 573.0904269554181,420.5423635659669 L 566.3023485392948,418.2666419484318 L 558.2800730242978,417.50806158388843" fill="none" stroke="#000000" stroke-width="0.8"/>
	<path d="M 618.1385891738452,414.4737138131019 L 622.4582752681275,419.0252194513718 L 623.6649279638252,427.5729085334406 L 629.8773032192378,431.77283734684954 L 636.0896803504563,438.6452610380561 L 630.4985416827741,449.71700399862164 L 609.6870831701964,450.8623212982315 L 601.9216136319758,453.53470373782005 L 581.7298010197974,447.8490236585116 L 581.1127024702973,426.6108301746446 L 584.1981933416254,420.5423635659669 L 589.7520765346766,422.8180617346738 L 602.0940381439602,423.5766197620248 L 612.584705980794,419.7837940924292 L 618.1385891738452,414.4737138131019" fill="none" stroke="#000000" stroke-width="0.8"/>
	<path d="M 558.2800730242978,417.50806158388843 L 566.3023485392948,418.2666419484318 L 573.0904269554181,420.5423635659669 L 581.1127024702973,426.6108301746446 L 581.7298010197974,447.8490236585116 L 573.7075255047918,450.88286790017975 L 565.0681533162227,453.1582204753702 L 552.7261898312465,447.8490236585116 L 548.4065037369598,439.50571429616235 L 555.8116807024655,435.71318904482274 L 552.1090931575524,426.6108301746446 L 558.2800730242978,417.50806158388843" fill="none" stroke="#000000" stroke-width="0.8"/>
	<path d="M 565.0681533162227,453.1582204753702 L 573.7075255047918,450.88286790017975 L 581.7298010197974,447.8490236585116 L 601.9216136319758,453.53470373782005 L 609.3764639385504,459.6428744550872 L 611.5507966847724,465.75085970232243 L 605.9596580169723,471.8586618063999 L 601.9216136319758,474.1490377720152 L 600.6791385809448,480.6382985880027 L 597.7743520496736,491.07698573786405 L 584.1981933416254,489.56037353279 L 571.8562317323417,478.9437587804438 L 573.0904269554181,469.84335835743224 L 570.0049379598873,460.7425462503534 L 565.0681533162227,453.1582204753702" fill="none" stroke="#000000" stroke-width="0.8"/>
	<path d="M 552.7261898312465,447.8490236585116 L 565.0681533162227,453.1582204753702 L 570.0049379598873,460.7425462503534 L 573.0904269554181,469.84335835743224 L 571.8562317323417,478.9437587804438 L 560.1313667967522,476.66869784243573 L 552.7261898312465,472.1184964794376 L 547.1723066380863,463.77619603315287 L 552.7261898312465,447.8490236585116" fill="none" stroke="#000000" stroke-width="0.8"/>
	<path d="M 616.2872954013865,497.1433248617585 L 605.1795290151748,494.8684696984347 L 597.7743520496736,491.07698573786405 L 600.6791385809448,480.6382985880027 L 601.9216136319758,474.1490377720152 L 605.9596580169723,471.8586618063999 L 611.5507966847724,473.3855827824764 L 623.0436913762126,476.8211131835441 L 632.051635965582,485.60053342138224 L 619.626883578833,490.56264587658774 L 616.2872954013865,497.1433248617585" fill="none" stroke="#000000" stroke-width="0.8"/>
	<path d="M 626.7779613624142,512.3083726413092 L 616.2872954013865,497.1433248617585 L 619.626883578833,490.56264587658774 L 632.051635965582,485.60053342138224 L 641.0595805548336,486.74564644797516 L 651.9312367828553,480.6382985880027 L 655.9692811678431,486.3639420614829 L 652.863094478042,490.56264587658774 L 643.4396109417947,496.3850418964486 L 639.1199248475081,513.0665956095179 L 626.7779613624142,512.3083726413092" fill="none" stroke="#000000" stroke-width="0.8"/>
	<path d="M 618.7556877232188,522.1650415158488 L 619.9898829462952,516.0994566127008 L 626.7779613624142,512.3083726413092 L 639.1199248475081,513.0665956095179 L 643.4396109417947,496.3850418964486 L 652.863094478042,490.56264587658774 L 657.0157696498343,493.35188376510496 L 661.335455744121,502.4512210038463 L 660.7183571946252,518.3740717968509 L 655.164474001574,534.2956629827038 L 645.908003263627,545.667458457671 L 637.8857277486213,545.667458457671 L 629.2463555600524,538.8444587209908 L 622.4582752681275,537.3282041276403 L 622.4582752681275,530.5049240336806 L 618.7556877232188,522.1650415158488" fill="none" stroke="#000000" stroke-width="0.8"/>
	<path d="M 597.1572535002913,552.4902269593962 L 611.9676074312982,529.7467667553466 L 618.7556877232188,522.1650415158488 L 622.4582752681275,530.5049240336806 L 622.4582752681275,537.3282041276403 L 629.2463555600524,538.8444587209908 L 637.8857277486213,545.667458457671 L 645.908003263627,545.667458457671 L 648.9934941348373,557.0386093086179 L 648.9934941348373,567.6511057348877 L 648.376395585455,576.7470850979656 L 652.0789850060563,586.6005996991045 L 652.0789850060563,591.9061377630835 L 652.6960816797504,601.7589107502291 L 657.6328663234107,606.3061827715621 L 666.8893389371722,613.1268948794881 L 673.6774173532912,621.4630110158281 L 678.6142019969558,630.5565606267992 L 668.7406327096265,632.0721111737182 L 657.0157696498343,620.7051961111877 L 649.6105926842196,610.8533498377197 L 639.7370215210801,605.5483108461071 L 637.8857277486213,596.453632226589 L 633.5660416543391,594.179896677326 L 627.395059911792,585.8426536220414 L 621.8411767187451,582.8108430916739 L 614.4359997531261,588.1164809919426 L 603.3282352427204,585.0847046924143 L 595.3059597278412,580.5369558165298 L 586.0494871140841,587.3585429237952 L 578.6443101484607,590.3902849940022 L 570.6220346335815,585.8426536220414 L 572.4733302818418,580.5369558165298 L 581.1127024702973,579.0210151662309 L 588.5178794359164,570.6831445090561 L 598.3914505990559,562.3449262886809 L 597.1572535002913,552.4902269593962" fill="none" stroke="#000000" stroke-width="0.8"/>
	<path d="M 557.0458778013435,606.3061827715621 L 561.9826624450125,596.453632226589 L 564.4510547668448,588.8744185116097 L 570.6220346335815,585.8426536220414 L 578.6443101484607,590.3902849940022 L 586.0494871140841,587.3585429237952 L 595.3059597278412,580.5369558165298 L 603.3282352427204,585.0847046924143 L 614.4359997531261,588.1164809919426 L 617.5214906244629,594.9378113790629 L 614.4359997531261,599.4852373943436 L 610.7334122083396,608.579779135421 L 602.7111366933426,609.3376396554531 L 590.9862717577444,610.0954950203728 L 578.6443101484607,612.3690509191362 L 568.7707408611315,608.579779135421 L 557.0458778013435,606.3061827715621" fill="none" stroke="#000000" stroke-width="0.8"/>
	<path d="M 625.5437661393377,619.1895577497984 L 619.9898829462952,612.3690509191362 L 610.7334122083396,608.579779135421 L 614.4359997531261,599.4852373943436 L 617.5214906244629,594.9378113790629 L 614.4359997531261,588.1164809919426 L 621.8411767187451,582.8108430916739 L 627.395059911792,585.8426536220414 L 633.5660416543391,594.179896677326 L 637.8857277486213,596.453632226589 L 639.7370215210801,605.5483108461071 L 625.5437661393377,619.1895577497984" fill="none" stroke="#000000" stroke-width="0.8"/>
	<path d="M 631.0976493325024,642.6806550323045 L 624.3095690405819,640.407443476116 L 617.5214906244629,633.5876526239402 L 616.9043920750806,628.2832122791771 L 625.5437661393377,619.1895577497984 L 639.7370215210801,605.5483108461071 L 649.6105926842196,610.8533498377197 L 657.0157696498343,620.7051961111877 L 668.7406327096265,632.0721111737182 L 661.335455744121,638.8919533220533 L 655.7815725509563,636.6186990220755 L 648.376395585455,632.8298833237327 L 640.3541200704581,638.1342039706518 L 631.0976493325024,642.6806550323045" fill="none" stroke="#000000" stroke-width="0.8"/>
	<path d="M 712.5545978292847,604.7904360693269 L 709.4691069579567,612.3690509191362 L 699.5955376706187,614.6425788544193 L 694.041654477454,616.9160811308298 L 692.1903607051219,623.7364363229495 L 687.253576061335,629.798779926561 L 678.6142019969558,630.5565606267992 L 673.6774173532912,621.4630110158281 L 666.8893389371722,613.1268948794881 L 671.8261235808368,608.579779135421 L 671.8261235808368,604.0325584410123 L 672.443222130337,595.6957232288986 L 674.9116144521693,589.6323531788873 L 679.2313005464558,586.6005996991045 L 680.4654976452161,578.2630405617989 L 681.6996928682926,574.4731293522082 L 680.4654976452161,566.1350680746704 L 682.9338899670483,561.5868912135817 L 692.8074592545041,564.6190213039703 L 701.4468314430775,575.9891019343928 L 711.3204026062169,592.6640610212039 L 712.5545978292847,604.7904360693269" fill="none" stroke="#000000" stroke-width="0.8"/>
	<path d="M 753.9001706270014,597.2115360684863 L 741.5582090178356,590.3902849940022 L 729.2162474085432,588.8744185116097 L 724.279462764883,593.4219814273187 L 711.3204026062169,592.6640610212039 L 701.4468314430775,575.9891019343928 L 692.8074592545041,564.6190213039703 L 682.9338899670483,561.5868912135817 L 686.0193789625793,557.7966638119983 L 694.041654477454,552.4902269593962 L 698.361342447551,549.4579142047905 L 700.2126362200011,542.6350429356155 L 705.14942086367,541.1188168931047 L 712.5545978292847,538.8444587209908 L 717.4913824729537,541.8769313418637 L 726.7478550867196,542.6350429356155 L 732.9188349534562,549.4579142047905 L 749.5804845327148,550.9740751387657 L 756.3685629489559,564.6190213039703 L 759.4540538201661,572.9571430530827 L 756.9856614983294,579.0210151662309 L 757.6027600477117,584.3267552140454 L 760.6882490431203,589.6323531788873 L 753.9001706270014,597.2115360684863" fill="none" stroke="#000000" stroke-width="0.8"/>
	<path d="M 712.5545978292847,538.8444587209908 L 705.14942086367,541.1188168931047 L 700.2126362200011,542.6350429356155 L 698.361342447551,549.4579142047905 L 694.041654477454,552.4902269593962 L 690.9561654820454,544.9093582833198 L 692.8074592545041,538.8444587209908 L 687.253576061335,532.7793764303324 L 677.3800067740059,529.7467667553466 L 688.4877712844116,517.6158711283339 L 695.8929501257144,517.6158711283339 L 707.6178131856244,516.8576652987888 L 715.6400887005036,516.0994566127008 L 720.5768733441726,518.3740717968509 L 718.7255795718316,524.4395881523424 L 715.0229901511213,530.5049240336806 L 712.5545978292847,538.8444587209908" fill="none" stroke="#000000" stroke-width="0.8"/>
	<path d="M 694.041654477454,552.4902269593962 L 686.0193789625793,557.7966638119983 L 682.9338899670483,561.5868912135817 L 680.4654976452161,566.1350680746704 L 665.6551418384076,563.1029608143227 L 655.7815725509563,561.5868912135817 L 648.9934941348373,557.0386093086179 L 660.1012605210533,549.4579142047905 L 666.8893389371722,545.667458457671 L 669.9748298085046,537.3282041276403 L 677.3800067740059,529.7467667553466 L 687.253576061335,532.7793764303324 L 692.8074592545041,538.8444587209908 L 690.9561654820454,544.9093582833198 L 694.041654477454,552.4902269593962" fill="none" stroke="#000000" stroke-width="0.8"/>
	<path d="M 680.4654976452161,566.1350680746704 L 681.6996928682926,574.4731293522082 L 680.4654976452161,578.2630405617989 L 665.6551418384076,577.5050654083634 L 648.376395585455,576.7470850979656 L 648.9934941348373,567.6511057348877 L 648.9934941348373,557.0386093086179 L 655.7815725509563,561.5868912135817 L 665.6551418384076,563.1029608143227 L 680.4654976452161,566.1350680746704" fill="none" stroke="#000000" stroke-width="0.8"/>
	<path d="M 680.4654976452161,578.2630405617989 L 679.2313005464558,586.6005996991045 L 674.9116144521693,589.6323531788873 L 672.443222130337,595.6957232288986 L 671.8261235808368,604.0325584410123 L 671.8261235808368,608.579779135421 L 666.8893389371722,613.1268948794881 L 657.6328663234107,606.3061827715621 L 652.6960816797504,601.7589107502291 L 652.0789850060563,591.9061377630835 L 652.0789850060563,586.6005996991045 L 648.376395585455,576.7470850979656 L 665.6551418384076,577.5050654083634 L 680.4654976452161,578.2630405617989" fill="none" stroke="#000000" stroke-width="0.8"/>
	<path d="M 677.3800067740059,529.7467667553466 L 669.9748298085046,537.3282041276403 L 666.8893389371722,545.667458457671 L 660.1012605210533,549.4579142047905 L 648.9934941348373,557.0386093086179 L 645.908003263627,545.667458457671 L 655.164474001574,534.2956629827038 L 660.7183571946252,518.3740717968509 L 661.335455744121,502.4512210038463 L 669.3577312590089,495.6267583786974 L 677.3800067740059,488.0437475912134 L 688.4877712844116,500.93469452313377 L 682.3167914176748,512.3083726413092 L 688.4877712844116,517.6158711283339 L 677.3800067740059,529.7467667553466" fill="none" stroke="#000000" stroke-width="0.8"/>
	<path d="M 674.9116144521693,453.91666638249126 L 663.1867495164619,463.01778730012455 L 655.3480445802305,457.7340927596036 L 637.3321554016052,457.35233332473797 L 630.4985416827741,449.71700399862164 L 636.0896803504563,438.6452610380561 L 645.0976249398257,433.68186774120784 L 654.4161868850439,440.936015212078 L 675.5382646292719,445.517447593387 L 674.9116144521693,453.91666638249126" fill="none" stroke="#000000" stroke-width="0.8"/>
	<path d="M 655.7815725509563,469.84335835743224 L 663.1867495164619,463.01778730012455 L 682.3167914176748,478.9437587804438 L 677.3800067740059,488.0437475912134 L 669.3577312590089,495.6267583786974 L 661.335455744121,502.4512210038463 L 657.0157696498343,493.35188376510496 L 652.863094478042,490.56264587658774 L 655.9692811678431,486.3639420614829 L 651.9312367828553,480.6382985880027 L 655.7815725509563,469.84335835743224" fill="none" stroke="#000000" stroke-width="0.8"/>
	<path d="M 663.1867495164619,463.01778730012455 L 655.7815725509563,469.84335835743224 L 645.908003263627,472.1184964794376 L 637.8857277486213,471.3601191959516 L 637.3321554016052,457.35233332473797 L 655.3480445802305,457.7340927596036 L 663.1867495164619,463.01778730012455" fill="none" stroke="#000000" stroke-width="0.8"/>
	<path d="M 682.3167914176748,478.9437587804438 L 692.001059524976,473.3855827824764 L 704.2752105804523,483.6937014815116 L 688.4877712844116,500.93469452313377 L 677.3800067740059,488.0437475912134 L 682.3167914176748,478.9437587804438" fill="none" stroke="#000000" stroke-width="0.8"/>
	<path d="M 721.1939718936683,497.90160496977524 L 716.2571872498859,507.75897945157004 L 715.6400887005036,516.0994566127008 L 707.6178131856244,516.8576652987888 L 695.8929501257144,517.6158711283339 L 688.4877712844116,517.6158711283339 L 682.3167914176748,512.3083726413092 L 688.4877712844116,500.93469452313377 L 704.2752105804523,483.6937014815116 L 721.1939718936683,497.90160496977524" fill="none" stroke="#000000" stroke-width="0.8"/>
	<path d="M 655.7815725509563,469.84335835743224 L 651.9312367828553,480.6382985880027 L 641.0595805548336,486.74564644797516 L 632.051635965582,485.60053342138224 L 637.3321554016052,479.11143265591954 L 637.8857277486213,471.3601191959516 L 645.908003263627,472.1184964794376 L 655.7815725509563,469.84335835743224" fill="none" stroke="#000000" stroke-width="0.8"/>
	<path d="M 632.051635965582,485.60053342138224 L 623.0436913762126,476.8211131835441 L 611.5507966847724,473.3855827824764 L 605.9596580169723,471.8586618063999 L 611.5507966847724,465.75085970232243 L 609.3764639385504,459.6428744550872 L 601.9216136319758,453.53470373782005 L 609.6870831701964,450.8623212982315 L 630.4985416827741,449.71700399862164 L 637.3321554016052,457.35233332473797 L 637.8857277486213,471.3601191959516 L 637.3321554016052,479.11143265591954 L 632.051635965582,485.60053342138224" fill="none" stroke="#000000" stroke-width="0.8"/>
	<path d="M 704.2752105804523,483.6937014815116 L 692.001059524976,473.3855827824764 L 700.5139589343478,465.3723221984795 L 711.6362347156613,475.15259943562717 L 720.4552439079602,478.945810387698 L 721.1939718936683,497.90160496977524 L 704.2752105804523,483.6937014815116" fill="none" stroke="#000000" stroke-width="0.8"/>
</svg>
