<?xml version="1.0" ?>
<svg xmlns="http://www.w3.org/2000/svg" xmlns:ev="http://www.w3.org/2001/xml-events" xmlns:xlink="http://www.w3.org/1999/xlink" baseProfile="full" height="600px" version="1.1" viewBox="83.76464118334727 1136.0031503079242 67.86850289885471 78.57175509330591" width="519px">
	<defs/>
	<path d="M 121.22504893495527,1145.0680229316897 L 121.88824644558986,1144.6826494089357 L 122.39265034127037,1143.8229983159006 L 123.08387032881996,1142.9633863212835 L 124.29817578680031,1142.5780557091541 L 126.11029312900837,1142.854702442743 L 131.2570801730535,1144.3565702318554 L 132.63017947555753,1145.0680229316897 L 133.21865057240672,1146.411951106223 L 132.57413463651855,1148.5070889495605 L 133.02249357838252,1149.663467388976 L 133.83514414616323,1150.8199167465236 L 134.70383955297424,1152.8562309208146 L 135.67528396527186,1154.5961689408473 L 135.97418984999837,1156.0000997172617 L 136.55332015946428,1156.7515423934633 L 137.0203607908628,1156.8504186523326 L 138.37477840383224,1156.632891617681 L 138.82313734569524,1156.7515423934633 L 127.02326924843318,1163.9674995515654 L 125.6674263663947,1158.0948448756915 L 127.51630308940476,1155.876764119453 L 124.18832504991272,1152.4849111632213 L 124.92787565654191,1150.7892136416351 L 124.6813587876684,1149.224089875671 L 121.22504893495527,1145.0680229316897" fill="none" stroke="#000000" stroke-width="0.06542194429084588"/>
	<path d="M 111.2957664727664,1159.9356195419346 L 111.37049300133897,1157.6711118398882 L 113.10788381497446,1154.4775316364028 L 114.52768716913029,1150.1280154876165 L 115.22824805884076,1148.8233562826529 L 115.73265183974176,1148.0919959842367 L 118.89918690969205,1145.5423396171611 L 119.68381500055679,1145.1866010471965 L 121.22504893495527,1145.0680229316897 L 124.6813587876684,1149.224089875671 L 124.92787565654191,1150.7892136416351 L 124.18832504991272,1152.4849111632213 L 127.51630308940476,1155.876764119453 L 125.6674263663947,1158.0948448756915 L 127.02326924843318,1163.9674995515654 L 126.53023551067847,1165.1422510874374 L 124.55810035323164,1166.4476169218601 L 124.38684024201643,1167.5359220806731 L 122.70922373343845,1167.6225239567707 L 120.36731327267367,1169.1891813230284 L 118.39517811522013,1169.9725591327292 L 117.31436383295137,1169.6147846091828 L 117.77888594303442,1166.4476169218601 L 117.40911053649864,1161.4877101596733 L 116.54630149543462,1159.9216962184128 L 114.45090790354239,1160.443686316777 L 111.91926940734403,1160.0360199524478 L 111.2957664727664,1159.9356195419346" fill="none" stroke="#000000" stroke-width="0.06542194429084588"/>
	<path d="M 107.85834788022031,1164.7028561458642 L 108.97924523487782,1164.2082731416397 L 110.94081563422432,1162.1806195588172 L 111.2957664727664,1159.9356195419346 L 111.91926940734403,1160.0360199524478 L 111.95195087513655,1161.160511073683 L 112.67458511875755,1161.9659127356597 L 113.47328601620528,1161.3215886195155 L 114.233953586743,1161.4826675475813 L 114.5382206149529,1163.1338063359192 L 113.43525268928855,1164.180945229137 L 113.13098566107865,1165.2684206501617 L 112.1801511462923,1165.9128802711832 L 111.00111646357283,1165.5100904108826 L 109.44174789236571,1165.2281426050201 L 108.03383733685317,1165.4297163652366 L 107.85834788022031,1164.7028561458642" fill="none" stroke="#000000" stroke-width="0.06542194429084588"/>
	<path d="M 100.44174376472947,1205.6404155274492 L 98.0131328487649,1206.740856400136 L 91.4091793010538,1200.7933081097622 L 89.95201268260831,1199.0986074204086 L 89.44760890170635,1197.4734261050312 L 91.26906703128233,1196.7599769883868 L 94.10867373960649,1197.3446069556198 L 95.67793003612702,1197.0473351262567 L 96.36915002367179,1195.4718746011633 L 96.96696190790045,1192.0538830622095 L 96.83619065506842,1190.8057301862307 L 95.58452193280705,1190.1024428839198 L 96.50926217865607,1187.1311005887203 L 96.6213519715183,1180.4176156042793 L 97.15377822932662,1176.7351383354278 L 97.93840632019231,1174.6170534140126 L 100.54449265542505,1169.4515166982098 L 101.49725549297433,1168.442325597711 L 101.73077575127952,1168.0663663323585 L 104.27147634531433,1165.949262988899 L 105.37369212522447,1165.4150784948927 L 107.85834788022031,1164.7028561458642 L 108.03383733685317,1165.4297163652366 L 108.65776096884883,1168.0141759796663 L 107.64194967978445,1169.7914632250206 L 107.37781576281294,1171.694133259691 L 106.96966050610935,1174.6346313061792 L 107.06466093445516,1176.1953147504937 L 107.32221978689805,1180.4271960551719 L 107.42517652124806,1182.1191190171946 L 107.79495182456026,1184.2096477309672 L 108.68141363240048,1185.0449835594632 L 108.90427783772331,1185.2550002234555 L 108.41124409997532,1186.0390531803937 L 106.80888424583301,1186.0390531803937 L 106.06933363921151,1186.8231390937046 L 106.6856258113953,1189.3062963256739 L 107.42517652124806,1191.2669182333004 L 106.31585050808405,1192.1819460250056 L 107.30191808681131,1193.4892068511585 L 109.52057011313836,1194.0121369468254 L 110.62989612630334,1194.6658204236985 L 110.50663769186562,1196.4962566649237 L 109.1507947065978,1195.7117617794754 L 106.6856258113953,1196.4962566649237 L 104.34371535063052,1197.4115426876147 L 101.63202958655451,1199.5037948680792 L 99.53663609788876,1200.1576722796078 L 99.53663609788876,1202.6426171847936 L 100.76922054548857,1203.8198130097346 L 100.44174376472947,1205.6404155274492" fill="none" stroke="#000000" stroke-width="0.06542194429084588"/>
	<path d="M 127.03758540901606,1204.9169167811647 L 122.14978918080429,1206.4731756242113 L 112.41666382742584,1208.0 L 108.97924523487782,1207.7223861428843 L 103.6176196220544,1205.9973081440992 L 100.44174376472947,1205.6404155274492 L 100.76922054548857,1203.8198130097346 L 99.53663609788876,1202.6426171847936 L 99.53663609788876,1200.1576722796078 L 101.63202958655451,1199.5037948680792 L 104.34371535063052,1197.4115426876147 L 106.6856258113953,1196.4962566649237 L 109.1507947065978,1195.7117617794754 L 110.50663769186562,1196.4962566649237 L 112.3555143116521,1196.7577623087882 L 113.09506502150487,1194.273607527049 L 113.34158189037935,1193.2277472252933 L 115.06720007573387,1193.4892068511585 L 116.05326765445535,1194.273607527049 L 117.28585210205613,1194.0121369468254 L 120.49057170711043,1193.8814030398935 L 122.8324821678752,1194.404344200467 L 124.92787565654191,1196.7577623087882 L 126.4069770762417,1200.8115727039064 L 126.7767523795587,1203.5582073679661 L 127.03758540901606,1204.9169167811647" fill="none" stroke="#000000" stroke-width="0.06542194429084588"/>
	<path d="M 143.93256109434364,1182.120512196116 L 143.67101839023823,1184.0216042681768 L 144.31553444090878,1185.8832785130369 L 141.51329099687425,1186.814185410963 L 138.31873356479426,1189.3199433417526 L 136.36650395282243,1192.1826655576378 L 137.25388104917474,1194.1937691980581 L 137.337948365121,1195.0557376775396 L 137.9544419388785,1196.0960976367548 L 138.03850925482476,1196.7599769883868 L 137.63685436461932,1197.8797080842555 L 136.9829975265789,1198.1076262642164 L 136.2544142747464,1198.0679881023605 L 135.6285799136143,1198.424734372054 L 134.08734597921773,1201.1996630146912 L 133.20930978502534,1202.428693049139 L 131.77082485611442,1203.4099933731184 L 127.03758540901606,1204.9169167811647 L 126.7767523795587,1203.5582073679661 L 126.4069770762417,1200.8115727039064 L 124.92787565654191,1196.7577623087882 L 122.8324821678752,1194.404344200467 L 120.49057170711043,1193.8814030398935 L 117.28585210205613,1194.0121369468254 L 123.44877434006668,1186.8231390937046 L 127.39304455174344,1186.9538234043264 L 129.9814719846063,1186.169731869362 L 131.33731486664476,1184.9936566200295 L 133.67922532740954,1184.8629861953823 L 138.11652927684102,1184.4709804289746 L 141.44450731633304,1181.8578194475986 L 143.93256109434364,1182.120512196116" fill="none" stroke="#000000" stroke-width="0.06542194429084588"/>
	<path d="M 138.82313734569524,1156.7515423934633 L 140.10282854486587,1157.8392099625214 L 140.43909769387432,1158.62039192534 L 140.06546528058294,1162.5465700240225 L 140.95284237693525,1163.8126162285203 L 142.13912535800543,1164.7622069442955 L 143.24134113790788,1168.2246640053593 L 145.44577258294188,1170.856559628245 L 145.9501763638429,1172.1429591522594 L 145.74467846766072,1175.0624251190088 L 145.16554815819288,1178.3981025028384 L 143.93256109434364,1182.120512196116 L 141.44450731633304,1181.8578194475986 L 138.11652927684102,1184.4709804289746 L 133.67922532740954,1184.8629861953823 L 131.33731486664476,1184.9936566200295 L 132.56989931425227,1180.4207372298558 L 126.90001081399642,1175.7183334636072 L 130.59776415679775,1172.061727255903 L 126.65349394511426,1169.0586215431658 L 124.31158348434948,1168.0141759796663 L 124.38684024201643,1167.5359220806731 L 124.55810035323164,1166.4476169218601 L 126.53023551067847,1165.1422510874374 L 127.02326924843318,1163.9674995515654 L 138.82313734569524,1156.7515423934633" fill="none" stroke="#000000" stroke-width="0.06542194429084588"/>
	<path d="M 124.38684024201643,1167.5359220806731 L 124.31158348434948,1168.0141759796663 L 126.65349394511426,1169.0586215431658 L 130.59776415679775,1172.061727255903 L 126.90001081399642,1175.7183334636072 L 132.56989931425227,1180.4207372298558 L 131.33731486664476,1184.9936566200295 L 129.9814719846063,1186.169731869362 L 127.39304455174344,1186.9538234043264 L 123.44877434006668,1186.8231390937046 L 120.98360544486513,1185.1243279626985 L 119.87427943170113,1183.0336965000283 L 120.36731327267367,1181.4658768581612 L 118.39517811522013,1178.8531374735508 L 117.28585210205613,1177.2856696219337 L 115.06720007573387,1177.024437804498 L 112.3555143116521,1174.5429176799096 L 110.7531545607401,1170.4948293391278 L 110.38337915419952,1168.2752818799222 L 112.60203118052657,1167.491974993573 L 114.08113249700854,1168.1447284745893 L 116.4230429577733,1169.319742013764 L 117.31436383295137,1169.6147846091828 L 118.39517811522013,1169.9725591327292 L 120.36731327267367,1169.1891813230284 L 122.70922373343845,1167.6225239567707 L 124.38684024201643,1167.5359220806731" fill="none" stroke="#000000" stroke-width="0.06542194429084588"/>
	<path d="M 123.44877434006668,1186.8231390937046 L 117.28585210205613,1194.0121369468254 L 116.05326765445535,1194.273607527049 L 115.06720007573387,1193.4892068511585 L 113.34158189037935,1193.2277472252933 L 113.09506502150487,1194.273607527049 L 112.3555143116521,1196.7577623087882 L 110.50663769186562,1196.4962566649237 L 110.62989612630334,1194.6658204236985 L 109.52057011313836,1194.0121369468254 L 107.30191808681131,1193.4892068511585 L 106.31585050808405,1192.1819460250056 L 107.42517652124806,1191.2669182333004 L 106.6856258113953,1189.3062963256739 L 106.06933363921151,1186.8231390937046 L 106.80888424583301,1186.0390531803937 L 108.41124409997532,1186.0390531803937 L 108.90427783772331,1185.2550002234555 L 108.68141363240048,1185.0449835594632 L 110.06781435313749,1184.2230556203688 L 112.41520301930493,1187.2470121628774 L 118.26411903670305,1184.7523608069853 L 117.79351661512877,1183.3269960260136 L 115.30604656932101,1181.1178961915448 L 113.2891789450808,1178.6953137084338 L 111.40676915557351,1175.2757330247302 L 110.06219080822432,1171.7143356010617 L 107.37781576281294,1171.694133259691 L 107.64194967978445,1169.7914632250206 L 108.65776096884883,1168.0141759796663 L 110.38337915419952,1168.2752818799222 L 110.7531545607401,1170.4948293391278 L 112.3555143116521,1174.5429176799096 L 115.06720007573387,1177.024437804498 L 117.28585210205613,1177.2856696219337 L 118.39517811522013,1178.8531374735508 L 120.36731327267367,1181.4658768581612 L 119.87427943170113,1183.0336965000283 L 120.98360544486513,1185.1243279626985 L 123.44877434006668,1186.8231390937046" fill="none" stroke="#000000" stroke-width="0.06542194429084588"/>
	<path d="M 107.06466093445516,1176.1953147504937 L 106.96966050610935,1174.6346313061792 L 107.37781576281294,1171.694133259691 L 110.06219080822432,1171.7143356010617 L 111.40676915557351,1175.2757330247302 L 107.06466093445516,1176.1953147504937" fill="none" stroke="#000000" stroke-width="0.06542194429084588"/>
	<path d="M 108.65776096884883,1168.0141759796663 L 108.03383733685317,1165.4297163652366 L 109.44174789236571,1165.2281426050201 L 111.00111646357283,1165.5100904108826 L 112.1801511462923,1165.9128802711832 L 113.13098566107865,1165.2684206501617 L 113.43525268928855,1164.180945229137 L 114.5382206149529,1163.1338063359192 L 114.233953586743,1161.4826675475813 L 113.47328601620528,1161.3215886195155 L 112.67458511875755,1161.9659127356597 L 111.95195087513655,1161.160511073683 L 111.91926940734403,1160.0360199524478 L 114.45090790354239,1160.443686316777 L 116.54630149543462,1159.9216962184128 L 117.40911053649864,1161.4877101596733 L 117.77888594303442,1166.4476169218601 L 117.31436383295137,1169.6147846091828 L 116.4230429577733,1169.319742013764 L 114.08113249700854,1168.1447284745893 L 112.60203118052657,1167.491974993573 L 110.38337915419952,1168.2752818799222 L 108.65776096884883,1168.0141759796663" fill="none" stroke="#000000" stroke-width="0.06542194429084588"/>
	<path d="M 107.32221978689805,1180.4271960551719 L 107.06466093445516,1176.1953147504937 L 111.40676915557351,1175.2757330247302 L 113.2891789450808,1178.6953137084338 L 107.32221978689805,1180.4271960551719" fill="none" stroke="#000000" stroke-width="0.06542194429084588"/>
	<path d="M 108.68141363240048,1185.0449835594632 L 107.79495182456026,1184.2096477309672 L 107.42517652124806,1182.1191190171946 L 107.32221978689805,1180.4271960551719 L 113.2891789450808,1178.6953137084338 L 115.30604656932101,1181.1178961915448 L 110.06781435313749,1184.2230556203688 L 108.68141363240048,1185.0449835594632" fill="none" stroke="#000000" stroke-width="0.06542194429084588"/>
	<path d="M 110.06781435313749,1184.2230556203688 L 115.30604656932101,1181.1178961915448 L 117.79351661512877,1183.3269960260136 L 118.26411903670305,1184.7523608069853 L 112.41520301930493,1187.2470121628774 L 110.06781435313749,1184.2230556203688" fill="none" stroke="#000000" stroke-width="0.06542194429084588"/>
</svg>
