<?xml version="1.0" ?>
<svg xmlns="http://www.w3.org/2000/svg" xmlns:ev="http://www.w3.org/2001/xml-events" xmlns:xlink="http://www.w3.org/1999/xlink" baseProfile="full" height="600px" version="1.1" viewBox="-82.90616178938706 -584.1385196667972 965.8123235787741 6980.600618107695" width="84px">
	<defs/>
	<path d="M 358.1352830830033,5807.299182818036 L 365.204144157961,5812.3235787741005 L 360.20719039417736,5812.202509212172 L 358.50091435762755,5810.870740588198 L 358.1352830830033,5807.299182818036" fill="none" stroke="#000000" stroke-width="5.812323578774101"/>
	<path d="M 388.8482629733143,5799.369125729587 L 386.6544790698342,5802.27479326145 L 385.1919562179215,5804.9383245297995 L 383.1200489067787,5806.935973175972 L 379.3418648102393,5808.025600726534 L 379.9512492695007,5803.848697928549 L 382.1450331729808,5801.851050273665 L 388.8482629733143,5799.369125729587" fill="none" stroke="#000000" stroke-width="5.812323578774101"/>
	<path d="M 329.0676416819014,5788.230755438059 L 331.078610696888,5795.737044992189 L 328.7629494523177,5794.586886704924 L 328.3363806303904,5792.952451636786 L 328.7629494523177,5790.894275601409 L 329.0676416819014,5788.230755438059" fill="none" stroke="#000000" stroke-width="5.812323578774101"/>
	<path d="M 415.7221204709361,5765.469841854015 L 406.2157223079049,5778.303105972715 L 405.8500917821275,5770.675783510272 L 408.22669132289155,5763.774885523914 L 411.882998078253,5760.86924804086 L 415.7221204709361,5765.469841854015" fill="none" stroke="#000000" stroke-width="5.812323578774101"/>
	<path d="M 420.78001253090724,5737.987427421148 L 419.19561233784793,5751.789145018021 L 414.4424132563073,5746.704295951064 L 412.9798904043883,5740.771980920543 L 414.99085941941877,5734.839673798132 L 421.2065813528345,5729.996981289614 L 421.99878144939237,5732.1761920698145 L 421.572211878612,5733.931668521422 L 420.840950827101,5735.687145718897 L 420.78001253090724,5737.987427421148" fill="none" stroke="#000000" stroke-width="5.812323578774101"/>
	<path d="M 309.01889057699435,5746.220024735999 L 314.6252288000394,5751.304873186214 L 319.561243518864,5759.174293721535 L 323.15661197808186,5768.436016856189 L 324.8628887634785,5777.152953126098 L 319.25655054043347,5777.152953126098 L 307.0688606069606,5749.912592556292 L 304.26569149546,5736.05034781155 L 314.6252288000394,5730.965519190535 L 314.6252288000394,5736.474084246687 L 309.9939063108048,5736.897819981708 L 309.2626445104344,5739.016501545586 L 309.87202896965823,5742.224792036216 L 309.87202896965823,5742.285325689016 L 309.01889057699435,5746.220024735999" fill="none" stroke="#000000" stroke-width="5.812323578774101"/>
	<path d="M 561.7915907744468,5511.112154843675 L 567.7635587744287,5517.891659033634 L 569.2870199224913,5521.463006747217 L 568.860451100564,5526.487108833567 L 563.9853746778894,5522.249914346176 L 561.9134673667465,5518.557503227813 L 561.4259594998225,5514.925624901767 L 561.7915907744468,5511.112154843675" fill="none" stroke="#000000" stroke-width="5.812323578774101"/>
	<path d="M 307.49542942888166,5130.5555303742285 L 310.05484460694845,5132.855707911242 L 312.7970746734962,5134.429513700963 L 314.13772093312167,5136.759955811565 L 313.10176690313,5141.330042387729 L 313.04082860697383,5141.3905731655805 L 310.05484460694845,5139.211459006608 L 309.2626445104344,5137.425796110799 L 308.9579522808132,5136.72969041009 L 308.897013984657,5136.336238695486 L 308.409506117733,5133.7636732184965 L 307.49542942888166,5130.5555303742285" fill="none" stroke="#000000" stroke-width="5.812323578774101"/>
	<path d="M 392.5045704775164,5121.657471094196 L 398.8421697521163,5123.322074896928 L 398.7812307071697,5123.352340336924 L 395.2468005440641,5127.528980611039 L 393.96709332943533,5127.4684497556 L 393.4795854625552,5124.86561594132 L 392.5045704775164,5121.657471094196" fill="none" stroke="#000000" stroke-width="5.812323578774101"/>
	<path d="M 263.5588055751499,5099.382020530767 L 263.5588055751499,5099.563614370997 L 266.24009734555403,5107.160274978133 L 266.24009734555403,5107.251071449229 L 263.0712977082259,5106.070714280195 L 262.8275445235888,5105.223278175598 L 262.5228522940051,5104.406107492483 L 262.8275445235888,5103.28628170876 L 263.1931750493725,5102.166455043505 L 263.1931750493725,5101.924330240441 L 263.5588055751499,5099.382020530767" fill="none" stroke="#000000" stroke-width="5.812323578774101"/>
	<path d="M 519.9268742318578,5088.00214997268 L 519.8659351868548,5088.0324155286735 L 512.7970748607063,5091.876149934578 L 513.8939671868416,5087.45736845846 L 515.8439979056845,5086.730993547232 L 517.8549661718682,5087.366571783958 L 519.9268742318578,5088.00214997268" fill="none" stroke="#000000" stroke-width="5.812323578774101"/>
	<path d="M 223.76599634369745,5073.111445027685 L 224.6800730325488,5074.47340039318 L 226.32541152180184,5074.92738595888 L 226.81291863987278,5075.351105152197 L 227.1176108695066,5075.593230714225 L 225.533211425244,5077.288108699143 L 225.533211425244,5077.348639889719 L 221.93784296603863,5075.47216830603 L 221.75502732870459,5074.322072361369 L 223.76599634369745,5073.111445027685" fill="none" stroke="#000000" stroke-width="5.812323578774101"/>
	<path d="M 204.8141375649257,5000.170762066629 L 204.87507586108185,5000.291825808846 L 206.88604487606847,5006.889813186826 L 206.94698392106517,5007.07140859735 L 204.38756874299838,5005.013321754379 L 203.96099917223052,5003.25789416833 L 204.57038363144804,5001.6235305309865 L 204.8141375649257,5000.170762066629" fill="none" stroke="#000000" stroke-width="5.812323578774101"/>
	<path d="M 191.77330923879524,4930.982224217419 L 191.52955530531128,4937.701361252086 L 188.84826353495728,4934.614191004419 L 188.84826353495728,4932.979805838503 L 191.77330923879524,4930.982224217419" fill="none" stroke="#000000" stroke-width="5.812323578774101"/>
	<path d="M 620.4753197396743,5011.7323682771785 L 620.4143814435307,5011.792900033773 L 616.879951280469,5016.998642293839 L 616.8190129843254,5017.089439852242 L 615.2346127912598,5013.760186264469 L 614.8080439692949,5012.943006271702 L 615.3564901324,5011.7323682771785 L 617.7330896731265,5011.9744952998635 L 620.4753197396743,5011.7323682771785" fill="none" stroke="#000000" stroke-width="5.812323578774101"/>
	<path d="M 604.3875683685656,4922.295758280596 L 604.4485066647593,4922.447090186073 L 606.3985373835521,4929.014907369705 L 603.2297377462742,4927.743717241226 L 602.7422306281907,4926.321195742982 L 603.6563073170482,4924.565742308036 L 604.3875683685656,4922.295758280596" fill="none" stroke="#000000" stroke-width="5.812323578774101"/>
	<path d="M 526.4472883948948,4822.808771953039 L 525.9597805279772,4824.77613814509 L 525.9597805279772,4826.501366011632 L 525.5941500021996,4827.530449238951 L 525.4722726610906,4827.530449238951 L 524.1316271502807,4827.4093802446705 L 523.2175504614733,4824.927474306759 L 523.7659966245409,4823.868123279019 L 525.3503960687533,4823.504917420021 L 526.4472883948948,4822.808771953039" fill="none" stroke="#000000" stroke-width="5.812323578774101"/>
	<path d="M 515.3564900387605,4732.550895954115 L 514.8689821718804,4734.518313069781 L 514.8689821718804,4736.243586084265 L 514.4424133499593,4737.393767573464 L 513.7720898457326,4737.2121604673885 L 513.040828794184,4737.060820460511 L 512.1876904014825,4734.518313069781 L 512.9189522018467,4733.610274381412 L 512.9798904980279,4733.580006494996 L 513.6502132533952,4733.398399170662 L 514.259597712619,4733.247058981874 L 515.3564900387605,4732.550895954115" fill="none" stroke="#000000" stroke-width="5.812323578774101"/>
	<path d="M 500.97501545304846,4669.592859231799 L 500.97501545304846,4669.7139333625955 L 500.54844588227434,4671.166826249457 L 500.4875075861244,4671.408975115816 L 500.4875075861244,4672.952673376904 L 500.3656309938247,4673.558044753672 L 500.2437536526781,4674.1936844870515 L 499.6343691934167,4674.496370060156 L 498.96404643806187,4674.8293240792755 L 498.9031081419057,4674.859592556924 L 497.9280924080702,4672.317032623736 L 498.41560027498167,4671.106289215583 L 499.817184830757,4670.410111746193 L 500.97501545304846,4669.592859231799" fill="none" stroke="#000000" stroke-width="5.812323578774101"/>
	<path d="M 109.75015219016086,2687.3402684327916 L 109.87202953130745,2687.461560510421 L 110.7251679239588,2689.068672369255 L 112.24862907207151,2690.16029382523 L 112.55332130166147,2691.160944807211 L 112.49238300550533,2691.160944807211 L 109.50639825667066,2692.5557898115912 L 107.25167605704694,2691.160944807211 L 107.19073701210034,2691.160944807211 L 107.67824487897425,2690.16029382523 L 109.01889113859973,2689.068672369255 L 109.75015219016086,2687.3402684327916" fill="none" stroke="#000000" stroke-width="5.812323578774101"/>
	<path d="M 81.53564918176046,2682.6098778283217 L 81.59658747790407,2682.7311699968536 L 82.32784852946521,2683.7924785369974 L 82.63254150789574,2684.3079707065244 L 84.46069488559215,2685.4299226500743 L 85.3747715744059,2686.3092890067865 L 83.54661819674708,2687.0976849585095 L 79.64655675906107,2687.0976849585095 L 79.34186452943979,2686.248642496259 L 79.34186452943979,2686.1879967256286 L 80.8043873813525,2684.611201081992 L 81.53564918176046,2682.6098778283217" fill="none" stroke="#000000" stroke-width="5.812323578774101"/>
	<path d="M 182.38878766802,2656.531494607325 L 169.95734305230408,2664.1125226875697 L 169.8354664600043,2664.173171161765 L 172.88238875614203,2658.714839745454 L 176.0511883934138,2656.3495493590876 L 179.34186462302918,2656.106954873673 L 182.38878766802,2656.531494607325" fill="none" stroke="#000000" stroke-width="5.812323578774101"/>
	<path d="M 192.50457029031878,2606.6462072704726 L 193.41864697916384,2608.2838382136683 L 194.39366271300563,2608.981346053745 L 194.94210812727655,2609.4059155242 L 195.24680110570708,2610.46733913592 L 192.26081635687243,2611.832024049347 L 189.945155112252,2610.46733913592 L 190.31078638687626,2609.4059155242 L 191.59049360146744,2608.2838382136683 L 192.50457029031878,2606.6462072704726" fill="none" stroke="#000000" stroke-width="5.812323578774101"/>
	<path d="M 5.789153111526027,2526.063693152873 L 5.789153111526027,2526.215344760238 L 6.886045437673834,2528.7630798915025 L 8.714198815370246,2530.4918948765953 L 9.445459866925116,2532.1297155803695 L 9.384521570775235,2532.1297155803695 L 7.31261425960115,2534.980726607321 L 5.728214815382411,2534.01017062441 L 3.6563075042396496,2532.766644488266 L 3.6563075042396496,2530.6132154847605 L 5.057891311168185,2528.5810995691277 L 5.789153111526027,2526.063693152873" fill="none" stroke="#000000" stroke-width="5.812323578774101"/>
	<path d="M 200.3656307129813,2520.937860429519 L 201.40158474297297,2522.5757045686205 L 202.92504589108566,2523.6979291395 L 202.92504589108566,2524.7594912909162 L 200.06093848339134,2526.12435350191 L 197.80621553492077,2524.8504819957834 L 198.1109077645546,2523.758589710421 L 199.45155402412996,2522.6666963262473 L 200.3656307129813,2520.937860429519" fill="none" stroke="#000000" stroke-width="5.812323578774101"/>
	<path d="M 195.42961599415045,2492.3962326673222 L 196.40463097919553,2494.094812909639 L 197.5015233053308,2494.8834384231714 L 197.86715383110825,2495.186755554877 L 198.1109077645546,2496.2180331745844 L 195.06398546837303,2497.5526243981403 L 194.75929323878307,2497.370635256218 L 192.87020081608995,2496.2180331745844 L 193.23583209072046,2495.186755554877 L 194.57647760149285,2494.094812909639 L 195.42961599415045,2492.3962326673222" fill="none" stroke="#000000" stroke-width="5.812323578774101"/>
	<path d="M 194.5155393053054,2444.13644081388 L 195.42961599415045,2445.7744823628927 L 196.03900045341183,2446.2598275740747 L 196.89213884606943,2446.957510752262 L 197.1358927795471,2447.9888660071333 L 194.1499087795718,2449.3235593672252 L 191.9561241272386,2447.9888660071333 L 192.32175540186287,2446.957510752262 L 193.60146261645406,2445.7744823628927 L 194.5155393053054,2444.13644081388" fill="none" stroke="#000000" stroke-width="5.812323578774101"/>
	<path d="M 593.4186473536091,2365.65704780038 L 593.2967700124689,2365.748062278379 L 587.9341864716669,2370.875160025177 L 586.1060330940143,2371.9673175968774 L 587.385740308593,2369.5099610689804 L 589.0920170940021,2368.205433901016 L 593.4186473536091,2365.65704780038" fill="none" stroke="#000000" stroke-width="5.812323578774101"/>
	<path d="M 616.5143207546915,2245.263893558693 L 616.6361973469913,2252.849865581427 L 616.6361973469913,2252.9105528083555 L 613.8330289842874,2250.483052888144 L 612.248628791228,2249.026547982915 L 612.1267521989283,2247.3576314782617 L 614.3205361024084,2246.4473115922488 L 616.5143207546915,2245.263893558693" fill="none" stroke="#000000" stroke-width="5.812323578774101"/>
	<path d="M 762.2790980797279,1998.2704535069447 L 760.8165752278088,2000.0918921608884 L 758.3790373908887,2000.699036775336 L 758.2571600497483,2000.7597510503415 L 762.2790980797279,1998.2704535069447" fill="none" stroke="#000000" stroke-width="5.812323578774101"/>
	<path d="M 762.2790980797279,1984.6094730533323 L 762.157221487428,1984.700547907805 L 760.0853141762477,1987.4934865145583 L 760.1462524724415,1985.641648369785 L 762.2790980797279,1984.6094730533323" fill="none" stroke="#000000" stroke-width="5.812323578774101"/>
	<path d="M 518.098720105302,1968.6408686735056 L 518.5252896760825,1975.4716031364394 L 515.9658744980219,1974.1965394840051 L 515.9658744980219,1972.830395982504 L 515.9658744980219,1972.7696785791127 L 517.0018285280136,1971.0695840340907 L 518.098720105302,1968.6408686735056" fill="none" stroke="#000000" stroke-width="5.812323578774101"/>
	<path d="M 539.2443635364008,1848.83073061281 L 539.2443635364008,1849.012925405725 L 539.2443635364008,1850.8956064230754 L 539.6709323583218,1852.596086412533 L 539.4881167210378,1853.7499795879082 L 537.7818406844692,1854.4787537335785 L 536.4411944248939,1852.6871831583487 L 536.9287022918179,1851.5636525286934 L 538.2084095064029,1850.5008508927317 L 539.2443635364008,1848.83073061281" fill="none" stroke="#000000" stroke-width="5.812323578774101"/>
	<path d="M 603.2906767912708,1782.8718289214864 L 603.2297377462742,1784.9369688337426 L 603.6563073170482,1786.6376662003518 L 603.4734916797142,1787.8220769628358 L 601.7672148943551,1788.399096635358 L 601.4015843685777,1787.973924661733 L 600.4265693835828,1786.7287753346668 L 600.9140765016537,1785.544362039657 L 602.193784465123,1784.51179398104 L 603.2906767912708,1782.8718289214864" fill="none" stroke="#000000" stroke-width="5.812323578774101"/>
	<path d="M 570.9323584117068,1597.7643463373665 L 562.8884823517415,1598.858062830321 L 564.716636478291,1595.3642358117138 L 566.3619742186534,1595.0908047641135 L 568.37294323364,1596.4883395272543 L 570.9323584117068,1597.7643463373665" fill="none" stroke="#000000" stroke-width="5.812323578774101"/>
	<path d="M 563.4369285148091,2436.8562023953573 L 561.9134673667465,2438.130249935991 L 560.5728211071712,2439.7683078960113 L 559.7196834632726,2440.5266660347474 L 559.1102982552396,2439.0402824155094 L 559.84156005561,2436.7045295061416 L 560.9384523817453,2436.279846563036 L 562.2790978925302,2436.7045295061416 L 563.4369285148091,2436.8562023953573" fill="none" stroke="#000000" stroke-width="5.812323578774101"/>
	<path d="M 568.1291893002061,2381.7359725526608 L 568.06825100405,2381.7966467853757 L 567.7635587744287,2383.0708072728407 L 564.3510052036605,2384.678673404619 L 564.1072520190296,2384.8000212838956 L 568.1291893002061,2381.7359725526608" fill="none" stroke="#000000" stroke-width="5.812323578774101"/>
	<path d="M 494.39366224500844,2363.715413809348 L 494.27178565266485,2363.83676583479 L 491.71237047461057,2365.71772436909 L 491.71237047461057,2364.928935962552 L 494.39366224500844,2363.715413809348" fill="none" stroke="#000000" stroke-width="5.812323578774101"/>
	<path d="M 552.4680074998653,2234.2488876267394 L 552.4070692036715,2234.370266663585 L 551.5539308110077,2235.735773688558 L 549.8476540256111,2236.1909424867467 L 549.7257766844644,2236.2212869612868 L 552.4680074998653,2234.2488876267394" fill="none" stroke="#000000" stroke-width="5.812323578774101"/>
	<path d="M 682.205971749924,2067.2380161627702 L 682.0840951575866,2067.298723091096 L 679.6465573206789,2068.816397872484 L 677.3308960760961,2068.5128632478127 L 677.1480804387558,2068.5128632478127 L 682.205971749924,2067.2380161627702" fill="none" stroke="#000000" stroke-width="5.812323578774101"/>
	<path d="M 693.906154565282,2051.6967843844436 L 693.906154565282,2051.818201639421 L 693.7842779729447,2053.791233517775 L 694.2717858398687,2055.4303617337378 L 694.1499084987283,2056.6141745733153 L 692.4436317133693,2057.2819647028064 L 691.0420479064408,2055.4303617337378 L 691.4686167283744,2054.428672886839 L 692.6873856468094,2053.396627257592 L 693.906154565282,2051.6967843844436" fill="none" stroke="#000000" stroke-width="5.812323578774101"/>
	<path d="M 713.711151736749,2046.1419022631721 L 713.6502134406054,2046.2329661226343 L 713.0408289813815,2047.993535595812 L 713.3455212110154,2049.8148083001174 L 713.3455212110154,2049.936226714519 L 713.0408289813815,2051.059341120458 L 712.0658132475336,2050.8468606150927 L 710.6032903956208,2050.5433161482893 L 710.4814138033273,2050.512961767041 L 709.0188909514021,2047.689989561173 L 709.9939059364033,2046.9007687917692 L 711.8220600629089,2046.870414210342 L 713.711151736749,2046.1419022631721" fill="none" stroke="#000000" stroke-width="5.812323578774101"/>
	<path d="M 736.1974406786201,2029.02158525111 L 736.0755633375111,2031.116120562765 L 736.5630712043912,2032.7553169297125 L 736.4411946120978,2033.9695329773847 L 734.8567944190385,2034.6677057668062 L 733.4552106121099,2032.876738356782 L 733.8817794340372,2031.7839415635738 L 735.1005483524723,2030.660787122066 L 736.1974406786201,2029.02158525111" fill="none" stroke="#000000" stroke-width="5.812323578774101"/>
	<path d="M 650.517976874618,1859.6408723538289 L 650.517976874618,1859.8230633687265 L 650.4570385784743,1861.7664354630442 L 650.8836074004016,1863.4061501145018 L 650.7617308080643,1864.5600201381535 L 649.0554540227052,1865.258413601155 L 648.5679461557812,1864.6207499117272 L 647.7148077630735,1863.4668800221218 L 648.2023156299975,1862.373737619926 L 649.3601462522889,1861.3413238317273 L 650.517976874618,1859.6408723538289" fill="none" stroke="#000000" stroke-width="5.812323578774101"/>
	<path d="M 13.711151830344697,2320.0269997607006 L 14.076782356128396,2321.817072994478 L 14.929920748823589,2322.575576593926 L 15.539305208047374,2323.0913589736897 L 16.026813074971397,2323.6678209359293 L 16.39244360074883,2324.0319016951466 L 16.331505304592685,2324.062242431986 L 14.808044156530093,2325.1848232711245 L 10.9689217638408,2323.9105417150267 L 10.907982718850358,2323.8498617158275 L 10.725167830356861,2323.00033884894 L 10.664228785410273,2322.909318710485 L 12.248628978431984,2321.817072994478 L 13.711151830344697,2320.0269997607006" fill="none" stroke="#000000" stroke-width="5.812323578774101"/>
	<path d="M 213.89396690603579,2124.1783620959877 L 214.01584424718237,2124.269413980139 L 215.4174280541485,2125.5137810502615 L 216.81901260987374,2126.181488972112 L 217.73308929871882,2126.849196851813 L 217.8549666398654,2128.306010156635 L 215.4174280541485,2128.306010156635 L 214.68616700258735,2127.395501627889 L 214.62522870644375,2125.938685979219 L 213.89396690603579,2124.1783620959877" fill="none" stroke="#000000" stroke-width="5.812323578774101"/>
	<path d="M 194.94210812727655,2123.905207847424 L 205.05789149837204,2126.727795138697 L 204.99695320222216,2126.727795138697 L 201.88909186109402,2127.4865529941844 L 201.82815356490028,2127.5169031977694 L 199.45155402412996,2126.849196851813 L 194.94210812727655,2123.905207847424" fill="none" stroke="#000000" stroke-width="5.812323578774101"/>
	<path d="M 203.83912257989314,1995.5990000587367 L 203.10786077952906,2007.681151945014 L 197.7452772387709,2007.0740151108287 L 196.40463097919553,2006.9525872152533 L 193.60146261645406,2000.607964604126 L 203.83912257989314,1995.5990000587367" fill="none" stroke="#000000" stroke-width="5.812323578774101"/>
	<path d="M 220.5362584102633,1654.4217392593002 L 220.5362584102633,1654.4824941883753 L 213.284582446812,1665.4182879169332 L 213.16270585452477,1665.5701718419484 L 213.58927467645208,1658.2189176441557 L 215.53930539524498,1655.2419324097784 L 218.0987205733431,1654.6343822248937 L 220.5362584102633,1654.4217392593002" fill="none" stroke="#000000" stroke-width="5.812323578774101"/>
	<path d="M 174.2230350157675,1652.082662821052 L 178.2449722968939,1651.718130612003 L 178.12309570459414,1651.7788858744755 L 176.78244944497493,1652.6294610020552 L 174.34491160805473,1652.1434180385604 L 174.2230350157675,1652.082662821052" fill="none" stroke="#000000" stroke-width="5.812323578774101"/>
	<path d="M 170.74954314885565,1550.9144756342487 L 168.19012797075126,1553.375574177816 L 168.00731233346107,1553.5274938050616 L 168.7385741338189,1551.9475306149418 L 170.74954314885565,1550.9144756342487" fill="none" stroke="#000000" stroke-width="5.812323578774101"/>
	<path d="M 181.90127980109597,1549.0914314741358 L 181.84034150495236,1549.2737357542342 L 181.47471023036567,1550.7929398713304 L 181.41377193422207,1551.0360113663155 L 180.3778186530334,1551.3702352173866 L 179.40280291922292,1551.6740756943968 L 179.34186462302918,1551.7044595821433 L 181.90127980109597,1549.0914314741358" fill="none" stroke="#000000" stroke-width="5.812323578774101"/>
	<path d="M 269.53077357516946,1485.4020369877453 L 269.53077357516946,1485.5235902229626 L 268.55575859012436,1487.6203709401213 L 266.91042084976203,1487.9546393811331 L 269.53077357516946,1485.4020369877453" fill="none" stroke="#000000" stroke-width="5.812323578774101"/>
	<path d="M 272.7605122574442,1476.832485799639 L 272.8214505535878,1476.9236518289267 L 273.4308350128116,1479.0204708512013 L 274.5277273389469,1480.7222303804388 L 274.5277273389469,1481.7858271475134 L 271.6636199313089,1481.9985463618684 L 269.8964048497561,1480.1144599332922 L 270.5057893089674,1479.0812486700595 L 271.8464348197523,1478.321532464938 L 272.7605122574442,1476.832485799639" fill="none" stroke="#000000" stroke-width="5.812323578774101"/>
	<path d="M 304.3875688366066,1455.8637747546659 L 304.14381490312263,1457.9910778468247 L 301.82815365850223,1458.3861478785939 L 301.7062763173995,1458.4165377523539 L 304.3875688366066,1455.8637747546659" fill="none" stroke="#000000" stroke-width="5.812323578774101"/>
	<path d="M 313.77209040734425,1447.1417298505917 L 314.0158443407781,1447.2329024071034 L 316.08775165196465,1448.0838399318495 L 318.7690434223187,1449.1779012503803 L 318.5252894888723,1449.147510775834 L 316.2096282442519,1448.6916526730226 L 313.77209040734425,1447.1417298505917" fill="none" stroke="#000000" stroke-width="5.812323578774101"/>
	<path d="M 131.26142614702448,1398.666059869472 L 131.200487850837,1398.7572412130137 L 130.5911026428165,1400.4896877943106 L 128.82388756126372,1401.1887437752266 L 128.6410726727702,1401.279924619677 L 131.26142614702448,1398.666059869472" fill="none" stroke="#000000" stroke-width="5.812323578774101"/>
	<path d="M 334.73491745229336,1393.7118336997312 L 334.73491745229336,1395.2619344966918 L 332.1755030230734,1396.2649386843475 L 334.73491745229336,1393.7118336997312" fill="none" stroke="#000000" stroke-width="5.812323578774101"/>
	<path d="M 320.4753202077153,1353.3769711992402 L 320.353442866575,1353.4681615579407 L 317.79402768852077,1355.9303010669125 L 317.79402768852077,1354.775225095371 L 320.4753202077153,1353.3769711992402" fill="none" stroke="#000000" stroke-width="5.812323578774101"/>
	<path d="M 200.91407687604894,1312.886538206847 L 200.3656307129813,1314.8929063298963 L 198.23278510569492,1315.4704954874555 L 200.91407687604894,1312.886538206847" fill="none" stroke="#000000" stroke-width="5.812323578774101"/>
	<path d="M 610.2376597762415,1391.979361615858 L 610.1767214800916,1392.0401500632083 L 608.4095063985451,1393.3471034734355 L 608.3485681023889,1393.3774976077582 L 605.7891529243346,1392.6480355889878 L 610.2376597762415,1391.979361615858" fill="none" stroke="#000000" stroke-width="5.812323578774101"/>
	<path d="M 680.4996949645649,1365.2315947810685 L 672.4558196534214,1370.5508779020256 L 668.5557589645822,1371.3107699059522 L 662.9494207415372,1369.730192492436 L 662.8275441491998,1369.6694010880515 L 667.2760510011066,1367.2985240364017 L 671.84643519416,1365.900308517921 L 676.2340037499107,1365.2923875227236 L 680.4996949645649,1365.2315947810685" fill="none" stroke="#000000" stroke-width="5.812323578774101"/>
	<path d="M 588.1170021090009,1346.5072270554217 L 588.0560630640105,1346.5376243025553 L 583.7294335532376,1347.175968264141 L 583.6075562121036,1347.2063654665656 L 585.7404025682306,1346.0816646351136 L 585.8013408643804,1346.0816646351136 L 586.7763558493817,1346.2640482581114 L 588.1170021090009,1346.5072270554217" fill="none" stroke="#000000" stroke-width="5.812323578774101"/>
	<path d="M 707.4344915071457,1327.7820882056328 L 707.3126141660055,1327.8428852074726 L 705.6672764256431,1329.0588272650039 L 702.7422307217988,1328.511653930119 L 707.4344915071457,1327.7820882056328" fill="none" stroke="#000000" stroke-width="5.812323578774101"/>
	<path d="M 720.2315658998361,1319.9999843202368 L 720.1096893074988,1319.9999843202368 L 715.2955511810053,1320.7903605517147 L 715.173674588668,1320.7903605517147 L 717.7940280629222,1319.483199831808 L 720.2315658998361,1319.9999843202368" fill="none" stroke="#000000" stroke-width="5.812323578774101"/>
	<path d="M 533.6380253133557,1305.833779829016 L 533.6989643583461,1305.9857797101179 L 534.5521027510476,1307.779379660756 L 536.0146256029666,1309.238573830922 L 536.4411944248939,1310.3633654727666 L 535.1005481652746,1310.8801611554684 L 532.6630103283545,1309.6337711738834 L 532.5411337360609,1308.6305768967807 L 533.3942721287186,1307.3537800657894 L 533.6380253133557,1305.833779829016" fill="none" stroke="#000000" stroke-width="5.812323578774101"/>
	<path d="M 478.0621569404095,1301.3345488857487 L 479.28092660769136,1302.428960070152 L 479.34186490387884,1302.428960070152 L 481.53564880732137,1302.246558764612 L 481.59658710350254,1302.246558764612 L 481.7794027408053,1302.246558764612 L 483.18098729653053,1302.3681596432016 L 482.2669106077293,1304.3137744589194 L 475.13711123656526,1305.2865783378138 L 475.0152346442718,1305.2865783378138 L 473.9183423181302,1303.1585667938025 L 475.0152346442718,1302.5201614423008 L 477.14808025155816,1302.3377594266497 L 478.0621569404095,1301.3345488857487" fill="none" stroke="#000000" stroke-width="5.812323578774101"/>
	<path d="M 498.65935420842175,1256.917415431608 L 494.27178565266485,1257.5558866327335 L 494.028031719231,1257.6166931525343 L 496.22181562270487,1256.0965239278169 L 498.65935420842175,1256.917415431608" fill="none" stroke="#000000" stroke-width="5.812323578774101"/>
	<path d="M 638.4521635334825,1239.1918896282857 L 636.5630711107956,1240.3472628782708 L 633.8208410442478,1239.921599006759 L 638.4521635334825,1239.1918896282857" fill="none" stroke="#000000" stroke-width="5.812323578774101"/>
	<path d="M 507.80012184571933,1230.4656838521773 L 507.80012184571933,1230.6785196418018 L 507.9219984380567,1233.2325478467528 L 506.2766606976567,1234.296722097069 L 506.09384506036025,1234.3879366574263 L 507.80012184571933,1230.4656838521773" fill="none" stroke="#000000" stroke-width="5.812323578774101"/>
	<path d="M 582.2669107013187,1170.289679108246 L 579.9512494566983,1171.6885072932328 L 577.8184031005713,1171.0195030047382 L 577.696526508234,1170.9890937624205 L 582.2669107013187,1170.289679108246" fill="none" stroke="#000000" stroke-width="5.812323578774101"/>
	<path d="M 707.4344915071457,1263.758124538799 L 711.1517365586884,1269.413030777777 L 712.797075047904,1275.4326914787412 L 712.1876905886801,1281.7258856763085 L 709.6282754106259,1287.866985391186 L 709.6282754106259,1288.018992100681 L 706.0938452475641,1267.6800831309004 L 707.4344915071457,1263.758124538799" fill="none" stroke="#000000" stroke-width="5.812323578774101"/>
	<path d="M 193.41864697916384,1227.0906936565111 L 193.35770868301395,1227.1819097045875 L 192.26081635687243,1228.6109623999546 L 191.89518583109498,1230.1008207655086 L 191.2858013718712,1231.165002556103 L 189.76234022380862,1231.6514849348594 L 188.84826353495728,1228.6413676467464 L 189.70140192761488,1227.7596123991186 L 191.52955530531128,1227.6988017820574 L 193.41864697916384,1227.0906936565111" fill="none" stroke="#000000" stroke-width="5.812323578774101"/>
	<path d="M 247.89762377480906,1208.2085167326766 L 246.73979315248005,1209.6680375380358 L 246.37416187789336,1211.157960697633 L 245.76477741868212,1212.2525938517072 L 244.30225456676314,1212.7086907556006 L 244.2413162705694,1212.7390970994009 L 243.4491161740617,1210.1849501656147 L 243.32723958172434,1209.6984448393555 L 244.18037797441326,1208.755837696117 L 245.88665475982245,1208.755837696117 L 247.89762377480906,1208.2085167326766" fill="none" stroke="#000000" stroke-width="5.812323578774101"/>
	<path d="M 240.21937824058992,1043.4335300189164 L 238.81779368485215,1045.0761188944925 L 238.3912248628935,1046.8707916201165 L 237.7209021075261,1048.0875145082962 L 235.8318096848267,1048.1787683595674 L 235.1005486333157,1044.4373353395754 L 236.13650191446052,1043.52478487475 L 236.19744095945097,1043.52478487475 L 236.62400978138456,1043.5856221819515 L 238.08653263330353,1043.7985500716331 L 240.21937824058992,1043.4335300189164" fill="none" stroke="#000000" stroke-width="5.812323578774101"/>
	<path d="M 240.21937824058992,1230.3744677351224 L 240.1584399444463,1230.4352787310088 L 239.12248666329518,1231.7122950077194 L 237.9646560409662,1234.5703664689706 L 236.74588637367805,1235.5737272193096 L 235.28336352175907,1232.0163459938603 L 235.28336352175907,1231.9555359628268 L 236.01462532212318,1230.9217611659149 L 238.08653263330353,1230.9217611659149 L 240.21937824058992,1230.3744677351224" fill="none" stroke="#000000" stroke-width="5.812323578774101"/>
	<path d="M 149.1163925996547,1207.2963138610303 L 148.01950027350688,1208.8470582885686 L 147.53199240658287,1210.306576973529 L 146.9835469923558,1211.492432290513 L 145.5210241404368,1211.9485292354295 L 144.42413181430152,1208.7862443132744 L 145.21633116200627,1207.9956700884472 L 147.04448528851194,1207.9348567425664 L 149.1163925996547,1207.2963138610303" fill="none" stroke="#000000" stroke-width="5.812323578774101"/>
	<path d="M 250.2742233155731,1114.819439074862 L 250.21328427058893,1114.941091827478 L 248.99451535210378,1116.400925910036 L 248.62888482632007,1117.8607550345864 L 248.08043866325244,1118.9860367110102 L 246.6179158113397,1119.4726435461782 L 246.49603921903997,1119.5030571558411 L 245.64290082634477,1116.400925910036 L 246.4351009228901,1115.51894342706 L 248.32419259673637,1115.51894342706 L 250.2742233155731,1114.819439074862" fill="none" stroke="#000000" stroke-width="5.812323578774101"/>
	<path d="M 246.98354633711716,1070.6266762741004 L 245.88665475982245,1072.0562454529106 L 245.3382085967548,1073.577058215365 L 244.91163902597438,1074.6720403375134 L 243.32723958172434,1075.189114332299 L 242.41316289291058,1072.0866616867395 L 243.32723958172434,1071.2654203686734 L 245.03351636712097,1071.1437551855572 L 246.98354633711716,1070.6266762741004" fill="none" stroke="#000000" stroke-width="5.812323578774101"/>
	<path d="M 226.1425958844615,1000.5110275419564 L 225.4113348329505,1004.3745365067208 L 223.15661188447368,1006.6256988364505 L 223.09567358833007,1006.6561197853349 L 226.1425958844615,1000.5110275419564" fill="none" stroke="#000000" stroke-width="5.812323578774101"/>
	<path d="M 218.46435109908919,968.4455637275128 L 218.46435109908919,968.5064119405646 L 217.36745877294138,975.2300191645946 L 217.36745877294138,975.3212888693342 L 215.35648975795476,973.37419225703 L 214.25959818066005,972.3397940101205 L 214.32053647680993,970.8186142532569 L 216.39244378794643,969.8754805454713 L 218.46435109908919,968.4455637275128" fill="none" stroke="#000000" stroke-width="5.812323578774101"/>
	<path d="M 208.7751372987616,930.5357581479755 L 208.8360755949052,930.7487437650876 L 210.90798290604795,941.0632280802184 L 208.04387549835988,938.659580299064 L 207.49542933529224,936.255919257263 L 208.7751372987616,930.5357581479755" fill="none" stroke="#000000" stroke-width="5.812323578774101"/>
	<path d="M 184.8263255049402,852.2101878394217 L 183.7294331787924,861.2789543820655 L 180.438756949177,856.5315718987348 L 180.92626481610102,854.2795886438523 L 184.8263255049402,852.2101878394217" fill="none" stroke="#000000" stroke-width="5.812323578774101"/>
	<path d="M 172.88238875614203,843.0194857505315 L 172.82145045999215,843.0803518615716 L 171.48080420036666,844.2976751473777 L 171.1761119707767,846.0019218810689 L 170.74954314885565,846.793177009016 L 169.65265082267024,846.2149524040963 L 168.49482020037883,845.5758612458427 L 168.37294360808534,842.4412557418146 L 169.28702029693667,841.9847574664172 L 170.93235803729902,842.8064535416129 L 172.88238875614203,843.0194857505315" fill="none" stroke="#000000" stroke-width="5.812323578774101"/>
	<path d="M 198.1109077645546,567.3514078489245 L 198.1109077645546,567.4427712976341 L 199.26873838684602,568.9045872350108 L 199.45155402412996,568.9959503107236 L 200.79219953495246,569.726856371734 L 201.09689251338926,570.0009456890862 L 201.52346133531032,570.4882145170762 L 200.91407687604894,572.0718359579655 L 197.44058500913707,571.3713885664752 L 196.89213884606943,570.2445805553093 L 197.80621553492077,568.6609515108274 L 198.1109077645546,567.3514078489245" fill="none" stroke="#000000" stroke-width="5.812323578774101"/>
	<path d="M 155.57586846654186,490.78088398629654 L 156.79463738502702,492.3952996346566 L 158.257160236946,493.18727498723825 L 158.80560640001363,493.7051041487098 L 159.04936033349756,493.9183278450802 L 159.04936033349756,493.9792486650054 L 158.37903682928334,495.502269686415 L 154.96648400732434,494.80168101017205 L 154.84460666617775,494.58845781660864 L 154.2961612519632,493.67464371769654 L 155.21023794081455,492.1516152648315 L 155.57586846654186,490.78088398629654" fill="none" stroke="#000000" stroke-width="5.812323578774101"/>
	<path d="M 423.7659965309326,766.685923491812 L 423.70505823475145,766.7772400684152 L 422.4862885674633,769.5776123666553 L 419.8049967971093,769.3949797324982 L 423.7659965309326,766.685923491812" fill="none" stroke="#000000" stroke-width="5.812323578774101"/>
	<path d="M 424.80194981208376,745.8651408453951 L 424.6800732197464,745.9260225143773 L 421.1456430566909,748.300377098516 L 420.840950827101,748.4830187076989 L 422.36441197516984,746.6565943297238 L 424.80194981208376,745.8651408453951" fill="none" stroke="#000000" stroke-width="5.812323578774101"/>
	<path d="M 401.09689195174,730.2792764932497 L 401.0359536555964,730.3401598198591 L 400.00000037444534,732.3493095536226 L 397.13589296675724,732.8972577704878 L 401.09689195174,730.2792764932497" fill="none" stroke="#000000" stroke-width="5.812323578774101"/>
	<path d="M 438.39122505013495,711.6789310162752 L 438.33028675394746,711.7702610733711 L 437.2943327239558,713.505518392134 L 436.7458865608819,715.0581102646127 L 436.1365021016644,716.1540541228026 L 434.6739792497454,716.3671533802366 L 434.55210265744563,716.39759687005 L 434.73491754588906,714.2057074533866 L 435.64899423474037,713.2315308653407 L 436.8677639020285,712.6835552377476 L 438.39122505013495,711.6789310162752" fill="none" stroke="#000000" stroke-width="5.812323578774101"/>
	<path d="M 400.0609386705952,700.1407945990632 L 399.93906132944863,700.2016826009293 L 396.2827545740558,702.819864450694 L 397.6234000848282,700.9932280070884 L 400.0609386705952,700.1407945990632" fill="none" stroke="#000000" stroke-width="5.812323578774101"/>
	<path d="M 438.8177938720623,687.3540711421389 L 438.8177938720623,687.4149611368777 L 436.7458865608819,695.3914892771513 L 434.73491754588906,692.3470318793139 L 435.16148711666943,690.672570981287 L 436.98964049436586,689.3025514974589 L 438.8177938720623,687.3540711421389" fill="none" stroke="#000000" stroke-width="5.812323578774101"/>
	<path d="M 261.6087748563132,662.7232246357335 L 261.4868982640134,662.8145654059203 L 257.83059075981134,665.2503180834796 L 257.708714167474,665.3721049794532 L 258.8056064936156,663.7279741704565 L 261.6087748563132,662.7232246357335" fill="none" stroke="#000000" stroke-width="5.812323578774101"/>
	<path d="M 417.0018284344054,649.7525838639838 L 417.3674589601515,652.1579701120478 L 418.4643512863369,653.9848357022559 L 418.6471661747803,655.7812452058089 L 415.90493610823256,657.7907783876275 L 412.9798904043883,655.4158746209894 L 413.5283365675061,653.8021492316938 L 415.5393055824927,652.1579701120478 L 417.0018284344054,649.7525838639838" fill="none" stroke="#000000" stroke-width="5.812323578774101"/>
	<path d="M 332.1755030230734,614.4617108348965 L 330.46922623767676,616.5932614769351 L 328.1535649930563,617.0804716913736 L 328.0316876519473,617.0804716913736 L 332.1755030230734,614.4617108348965" fill="none" stroke="#000000" stroke-width="5.812323578774101"/>
	<path d="M 397.13589296675724,608.493305044705 L 397.13589296675724,608.6151105999094 L 395.55149277369793,612.6955597642442 L 392.6264470698537,614.5835137479519 L 392.32175484022616,614.7662187935139 L 392.74832441099403,614.4617108348965 L 397.13589296675724,608.493305044705" fill="none" stroke="#000000" stroke-width="5.812323578774101"/>
	<path d="M 298.41560008778407,598.2006328695445 L 298.35466179159033,598.2919896803309 L 296.9530772358651,600.4236301860575 L 294.75929333238497,600.7890529316365 L 294.5155393989073,600.8195047489951 L 298.41560008778407,598.2006328695445" fill="none" stroke="#000000" stroke-width="5.812323578774101"/>
	<path d="M 383.54661772870605,584.0705965734692 L 383.6075560248935,584.1924091547093 L 384.4606944175511,586.1414104067293 L 385.25289451410896,586.5068467999444 L 386.0450946106229,586.8722828434551 L 387.20292523295194,588.0294952980701 L 386.53260172873775,590.9529637014781 L 382.08409487678705,589.9175716053248 L 382.02315658064344,589.7044020099856 L 381.41377212141964,588.4558362388303 L 382.75441838099505,586.4459408834432 L 383.54661772870605,584.0705965734692" fill="none" stroke="#000000" stroke-width="5.812323578774101"/>
	<path d="M 329.2504573192417,580.2943775373311 L 329.00670338575776,580.4770989515806 L 325.5941498149895,582.7915591294167 L 325.3503958815557,582.9742785990795 L 326.5691648000346,581.3907032127149 L 329.2504573192417,580.2943775373311" fill="none" stroke="#000000" stroke-width="5.812323578774101"/>
	<path d="M 376.2340034691049,566.6204972235963 L 374.4667883876022,567.8995897089956 L 373.4917734025634,569.2091314837719 L 372.3948810764219,569.9400371352835 L 370.9323582244966,569.3614038909535 L 371.541742683758,567.3209533611383 L 372.76051160219305,566.8336797279778 L 374.40585009140847,566.9554978205425 L 376.2340034691049,566.6204972235963" fill="none" stroke="#000000" stroke-width="5.812323578774101"/>
	<path d="M 251.37111489288034,553.0070372301868 L 252.34613062671588,554.6516418005659 L 253.9305300709346,555.3216645611636 L 254.6617918713363,556.1135069594922 L 254.11334570826867,557.6971882959449 L 250.45703820402275,557.0271697300843 L 250.03046938209542,555.8089522137454 L 250.8836077747969,554.3470858812206 L 251.37111489288034,553.0070372301868" fill="none" stroke="#000000" stroke-width="5.812323578774101"/>
	<path d="M 163.25411325192044,499.70577573928057 L 164.4728821704056,501.3506134966091 L 165.93540502232457,502.1425699277417 L 166.30103629689873,502.5080874288085 L 166.7276051188323,502.873604573849 L 166.7276051188323,502.93452393863595 L 166.0572823634649,504.45750933625646 L 162.64472879269667,503.75693664124304 L 162.52285220040943,503.54371853982354 L 161.9744060373418,502.5690068529396 L 162.76660538504655,501.1069342008322 L 163.25411325192044,499.70577573928057" fill="none" stroke="#000000" stroke-width="5.812323578774101"/>
	<path d="M 272.5586318742554,498.8294963044313 L 270.62766590131724,502.62992626716925 L 268.43388199783715,504.42704903008416 L 268.31200465669053,504.54888799409406 L 272.5586318742554,498.8294963044313" fill="none" stroke="#000000" stroke-width="5.812323578774101"/>
	<path d="M 509.3235829937882,3967.7266046818772 L 509.44546033493475,3967.7568848492674 L 517.4283973499347,3969.603978236934 L 513.4064593199677,3974.085441274691 L 511.7611215795552,3973.782640246964 L 511.7001825345585,3973.782640246964 L 510.78610584570714,3970.996867011502 L 509.3235829937882,3967.7266046818772" fill="none" stroke="#000000" stroke-width="5.812323578774101"/>
	<path d="M 535.709932624536,3956.3714647106835 L 535.7708716694826,3956.522866823862 L 536.4411944248939,3959.8234375558527 L 537.842778980663,3962.5789529134013 L 537.1115171802613,3964.3654929324202 L 535.9536865579761,3964.486614644942 L 531.3223640687728,3965.0013801270397 L 531.6270570472034,3962.094467540863 L 531.6270570472034,3962.003625909399 L 531.9317492767933,3961.5797009429507 L 533.0286408541319,3960.0354007060237 L 534.734917639491,3958.4608175655612 L 535.709932624536,3956.3714647106835" fill="none" stroke="#000000" stroke-width="5.812323578774101"/>
	<path d="M 574.9542964417238,3941.140285290074 L 583.18098739017,3941.5036552483625 L 578.0012187378616,3945.9246505094393 L 576.0511880190186,3945.8035278543816 L 575.5027426047915,3943.4416271660903 L 574.9542964417238,3941.140285290074" fill="none" stroke="#000000" stroke-width="5.812323578774101"/>
	<path d="M 623.9488116065861,3929.300419636402 L 618.5252897696781,3933.6003321230355 L 609.8110909543079,3940.4135443290093 L 609.8110909543079,3940.4741059049975 L 609.5063987247179,3940.171297252951 L 609.3235830873964,3939.929050132423 L 608.9579525616127,3939.6565221616474 L 608.7751369243163,3939.3234325083695 L 610.4814137097254,3937.234049493062 L 612.1267521989283,3935.11438224882 L 615.9049362954803,3932.540495623382 L 623.8269350142864,3929.3307006810064 L 623.9488116065861,3929.300419636402" fill="none" stroke="#000000" stroke-width="5.812323578774101"/>
	<path d="M 637.7209017331246,3908.92106471366 L 637.5990251407873,3909.193599112009 L 635.1005482588766,3915.21962120188 L 634.673979436943,3916.3703158286175 L 634.0036566815756,3913.826674332899 L 634.673979436943,3912.221754392477 L 635.1614865550578,3911.706968272773 L 636.1365022888682,3910.798522072487 L 637.7209017331246,3908.92106471366" fill="none" stroke="#000000" stroke-width="5.812323578774101"/>
	<path d="M 424.4972575824562,3892.326641883989 L 418.4643512863369,3895.0520178011893 L 418.70810447097404,3891.0547971986193 L 419.9268741382496,3890.509720622079 L 421.26751964902826,3891.1456437681613 L 421.93784315323626,3891.4787458163714 L 424.4972575824562,3892.326641883989" fill="none" stroke="#000000" stroke-width="5.812323578774101"/>
	<path d="M 650.1523463488405,3862.5288121710114 L 646.9835467115249,3878.2151557034504 L 644.6069471707984,3885.513175432825 L 641.2553318961801,3891.963257392575 L 641.0115779627399,3892.326641883989 L 647.7148077630735,3868.070535056339 L 650.1523463488405,3862.5288121710114" fill="none" stroke="#000000" stroke-width="5.812323578774101"/>
	<path d="M 647.89762340037,3829.823057784679 L 647.7148077630735,3837.7875944896628 L 647.7148077630735,3837.908727422015 L 646.130408318861,3835.8191774514703 L 646.2522849111546,3834.123307950166 L 647.89762340037,3829.823057784679" fill="none" stroke="#000000" stroke-width="5.812323578774101"/>
	<path d="M 473.55271179235905,3818.6483910788766 L 475.50274251119583,3820.283714802119 L 477.5746498223323,3821.1922267796785 L 478.0621569404095,3822.3127241709703 L 474.4058501850167,3824.826267885623 L 472.2120655327273,3823.372652599913 L 472.45581946621127,3822.0704544518567 L 473.49177349620294,3820.556268541301 L 473.55271179235905,3818.6483910788766" fill="none" stroke="#000000" stroke-width="5.812323578774101"/>
	<path d="M 643.510054844613,3792.452629413232 L 642.5959781557617,3795.7536295389127 L 640.6459474369562,3795.481070918036 L 640.585009140775,3795.481070918036 L 642.0475319926941,3793.9668507565852 L 643.510054844613,3792.452629413232" fill="none" stroke="#000000" stroke-width="5.812323578774101"/>
	<path d="M 525.7769656395337,3787.667677137544 L 525.7769656395337,3790.9384061418564 L 525.2285194764536,3789.666457251319 L 525.7769656395337,3787.667677137544" fill="none" stroke="#000000" stroke-width="5.812323578774101"/>
	<path d="M 652.1023763188367,3750.841061551415 L 648.9335774303679,3758.23070543304 L 648.9335774303679,3758.3518471834423 L 648.2023156299975,3755.7775913885425 L 648.8117000892213,3754.142178650245 L 650.2742229411402,3752.7793336843897 L 652.1023763188367,3750.841061551415" fill="none" stroke="#000000" stroke-width="5.812323578774101"/>
	<path d="M 661.060329067647,3730.4284380231447 L 674.3449113272615,3730.6707266115586 L 674.4058503722581,3730.6707266115586 L 672.9433275203329,3731.761023507012 L 670.6276662757188,3733.517611631297 L 661.1212673638407,3739.453648658973 L 656.6727605118838,3741.755368937541 L 656.6727605118838,3738.7267883133372 L 657.5868372007352,3736.061631263372 L 661.060329067647,3730.4284380231447" fill="none" stroke="#000000" stroke-width="5.812323578774101"/>
	<path d="M 268.7385742274647,3688.3603171482537 L 266.9713591459119,3689.662666012743 L 265.81352852362676,3689.7232401683295 L 264.65569790129774,3689.7838143206313 L 264.7775744936351,3689.7232401683295 L 268.7385742274647,3688.3603171482537" fill="none" stroke="#000000" stroke-width="5.812323578774101"/>
	<path d="M 313.77209040734425,3673.368056389828 L 313.77209040734425,3673.428631436453 L 313.04082860697383,3675.003585201547 L 313.04082860697383,3676.6996872002046 L 312.6142597850528,3677.54773722266 L 310.4814134289196,3676.820836924277 L 310.05484460694845,3674.8218603113105 L 310.72516736235343,3674.1555332246194 L 312.1876902142787,3674.0343832080034 L 313.77209040734425,3673.368056389828" fill="none" stroke="#000000" stroke-width="5.812323578774101"/>
	<path d="M 322.4862892227082,3663.6154050803443 L 323.52224250385933,3665.129797401834 L 326.5082265038409,3669.491236057176 L 322.1206579480902,3669.491236057176 L 321.3284586003792,3668.249439516242 L 322.0597196519341,3666.038431790821 L 322.4862892227082,3663.6154050803443" fill="none" stroke="#000000" stroke-width="5.812323578774101"/>
	<path d="M 197.37964671299346,3607.6419741259256 L 195.85618556491835,3609.489629092858 L 195.79524651993415,3609.519918406288 L 193.41864697916384,3609.0352877986397 L 197.37964671299346,3607.6419741259256" fill="none" stroke="#000000" stroke-width="5.812323578774101"/>
	<path d="M 180.68251088266092,3568.5072843167304 L 181.35283363802833,3576.9886107895527 L 178.0012191122568,3574.3836392458184 L 177.8793417711165,3572.505632817935 L 179.34186462302918,3570.7487847308275 L 180.68251088266092,3568.5072843167304" fill="none" stroke="#000000" stroke-width="5.812323578774101"/>
	<path d="M 493.6014628973037,3553.180138897968 L 493.540523852307,3553.6345045172884 L 493.29676991886066,3556.0577824407646 L 492.3217549338218,3557.390583310333 L 492.13894004537843,3557.602619060951 L 493.6014628973037,3553.180138897968" fill="none" stroke="#000000" stroke-width="5.812323578774101"/>
	<path d="M 501.2797076826823,3486.8103277538867 L 506.5813529272467,3496.1102418824744 L 509.56733692727215,3504.1680777712763 L 510.2376596826395,3505.9250407829873 L 510.8470441419009,3515.982079798671 L 507.5563679122855,3525.584641001008 L 507.49542961609177,3525.73610058159 L 500.97501545304846,3492.8992065066614 L 501.2797076826823,3486.8103277538867" fill="none" stroke="#000000" stroke-width="5.812323578774101"/>
	<path d="M 471.7245584146501,3435.734961072731 L 472.02925064428393,3444.429474578813 L 472.02925064428393,3444.4900630926145 L 470.9323583180986,3443.6418220650585 L 469.4698354661858,3442.4603406011356 L 469.4698354661858,3442.3694576380467 L 469.28701982889567,3440.6123808694324 L 470.566727792365,3438.4917668925364 L 471.7245584146501,3435.734961072731" fill="none" stroke="#000000" stroke-width="5.812323578774101"/>
	<path d="M 344.9725774157262,3400.380499468202 L 343.69287020109743,3402.5617893246044 L 341.6819011861108,3402.5617893246044 L 341.5600245938111,3402.5617893246044 L 344.9725774157262,3400.380499468202" fill="none" stroke="#000000" stroke-width="5.812323578774101"/>
	<path d="M 161.18220594077766,3304.3986573259535 L 163.07129836347707,3305.3076234946557 L 165.08226662961684,3305.4288186165436 L 165.93540502232457,3306.277186246131 L 164.4728821704056,3309.216167628524 L 161.9744060373418,3308.8828816620694 L 161.54783646656136,3307.8527243263834 L 161.6697138077017,3306.216588744417 L 161.18220594077766,3304.3986573259535" fill="none" stroke="#000000" stroke-width="5.812323578774101"/>
	<path d="M 140.58500942160597,3295.4907389637283 L 141.4381478142761,3303.3078964120864 L 141.4381478142761,3303.3684941098936 L 136.68494798392624,3301.065772760643 L 136.38025575429867,3299.369026853973 L 138.51310211043187,3297.6722784804147 L 140.58500942160597,3295.4907389637283" fill="none" stroke="#000000" stroke-width="5.812323578774101"/>
	<path d="M 252.71176115249958,3260.100578767202 L 260.1462520043942,3257.5553419744947 L 260.1462520043942,3257.615942794358 L 256.97745311591916,3262.6761091714593 L 255.0274223970824,3263.1306140610327 L 252.77269944864318,3260.130879834584 L 252.71176115249958,3260.100578767202" fill="none" stroke="#000000" stroke-width="5.812323578774101"/>
	<path d="M 242.35222459671684,3102.493706339761 L 247.16636197440735,3106.8880705883284 L 243.8147474486421,3108.494280231978 L 243.4491161740617,3108.1609162537015 L 242.77879341864417,3107.6154109982294 L 242.77879341864417,3105.372775369391 L 242.77879341864417,3105.3121629063517 L 242.35222459671684,3102.493706339761" fill="none" stroke="#000000" stroke-width="5.812323578774101"/>
	<path d="M 138.756855295069,3090.674263802352 L 138.756855295069,3090.765183011701 L 136.9287019173726,3096.8567625089554 L 134.97867119856718,3098.8872788737663 L 134.8567946062298,3096.8567625089554 L 138.756855295069,3090.674263802352" fill="none" stroke="#000000" stroke-width="5.812323578774101"/>
	<path d="M 500.73126151956455,3232.8600950805176 L 500.12187706034075,3234.7690773506124 L 500.73126151956455,3236.314441727687 L 500.73126151956455,3237.5870919798535 L 499.2078003714957,3238.465825768019 L 499.1468613265428,3238.4961268402953 L 496.9530774230627,3235.0114876745592 L 497.56246188228647,3233.678231172343 L 499.26873866764555,3233.405519227458 L 500.73126151956455,3232.8600950805176" fill="none" stroke="#000000" stroke-width="5.812323578774101"/>
	<path d="M 534.9786715729749,3227.3149311013603 L 528.5191957060314,3235.0114876745592 L 529.4332723948827,3230.466285625696 L 531.3223640687728,3228.3451824368244 L 533.6380253133557,3227.6179464149427 L 534.9786715729749,3227.3149311013603" fill="none" stroke="#000000" stroke-width="5.812323578774101"/>
	<path d="M 646.8007310742285,3147.6181646029036 L 646.9226084153687,3147.7090775178867 L 647.9585616965637,3148.6485126265748 L 648.6288852007779,3149.193990783209 L 647.1663623488527,3151.042553160043 L 647.1663623488527,3150.587988813305 L 646.8007310742285,3147.6181646029036" fill="none" stroke="#000000" stroke-width="5.812323578774101"/>
	<path d="M 505.85009112687635,3139.3147215604276 L 506.3375989938003,3141.0723915018702 L 507.3126139787953,3142.40579413824 L 507.6782452534258,3143.4058441534053 L 506.2157224015006,3144.0119346218053 L 506.09384506036025,3144.0422398039173 L 503.53442988230603,3142.345185143179 L 503.53442988230603,3141.314828571679 L 504.93601443803124,3140.496603456792 L 505.85009112687635,3139.3147215604276" fill="none" stroke="#000000" stroke-width="5.812323578774101"/>
	<path d="M 658.5009138895865,3101.4329939029453 L 658.5009138895865,3101.52391191046 L 656.8555761492241,3107.8578579060772 L 656.3071299861565,3106.100117127015 L 656.6727605118838,3104.675738104068 L 658.5009138895865,3101.4329939029453" fill="none" stroke="#000000" stroke-width="5.812323578774101"/>
	<path d="M 674.7714808979918,3096.3112496980148 L 674.7105426018481,3096.3718628299052 L 668.4338816234356,3104.0999246186498 L 669.1651434237934,3099.4934021143113 L 671.2979890310799,3097.402274954386 L 673.43083463841,3096.584006149162 L 674.7714808979918,3096.3112496980148" fill="none" stroke="#000000" stroke-width="5.812323578774101"/>
	<path d="M 695.0639851875734,2988.201480755688 L 694.698354661796,2991.020342721486 L 691.5904933206616,2992.9298879874996 L 695.0639851875734,2988.201480755688" fill="none" stroke="#000000" stroke-width="5.812323578774101"/>
	<path d="M 162.34003656307536,3005.2963565878113 L 163.25411325192044,3006.7512223215767 L 164.22912823696552,3007.024009391954 L 164.71663610383942,3007.1755573094133 L 165.63071279268448,3007.8423692874703 L 164.4728821704056,3010.085279084003 L 161.06032934849046,3010.479302812716 L 160.6946980738599,3009.479088001411 L 161.6697138077017,3007.6605119379174 L 162.34003656307536,3005.2963565878113" fill="none" stroke="#000000" stroke-width="5.812323578774101"/>
	<path d="M 219.439366084128,2985.655403106385 L 219.5612434252746,2985.7463343555446 L 220.41438181792591,2987.231547717891 L 221.99878126218226,2988.2924117063408 L 222.36441178796596,2989.4745160746174 L 219.6831200175618,2991.202203951869 L 217.36745877294138,2990.1110329512994 L 217.55027441027545,2988.989550875243 L 218.70810503256686,2987.5346519690356 L 219.439366084128,2985.655403106385" fill="none" stroke="#000000" stroke-width="5.812323578774101"/>
	<path d="M 267.6416819012793,2914.6649381536117 L 268.55575859012436,2916.119975834334 L 268.6166968863181,2916.150289011821 L 270.2010970793774,2916.6049880176815 L 271.11517376819114,2917.21125243487 L 269.77452750860954,2919.5453661080387 L 266.48385127899417,2919.878810221762 L 266.1182207532167,2918.908790504361 L 266.9713591459119,2917.0293728629886 L 267.6416819012793,2914.6649381536117" fill="none" stroke="#000000" stroke-width="5.812323578774101"/>
	<path d="M 259.7806214786105,2879.258150004644 L 259.84155977480424,2879.3490940221664 L 260.877513804752,2880.8345151202866 L 262.3400366566773,2881.986472382049 L 262.7056671824547,2883.1384278553837 L 259.96343711595085,2884.805728820887 L 259.7806214786105,2884.7147847271744 L 257.708714167474,2883.8053483927965 L 257.9524681009141,2882.6533939545334 L 259.0493604270995,2881.1376619023276 L 259.7806214786105,2879.258150004644" fill="none" stroke="#000000" stroke-width="5.812323578774101"/>
	<path d="M 111.15173674588611,2834.9366488175438 L 112.06581343473745,2836.39184327244 L 113.71115192399049,2836.7859584180524 L 114.01584415357418,2837.0588069535015 L 114.4424129755015,2837.483237391621 L 113.2845823532226,2839.78728594428 L 109.87202953130745,2840.0601333562536 L 109.75015219016086,2840.0601333562536 L 109.62827559781725,2839.1506418344366 L 110.4814139905187,2837.301338236954 L 111.15173674588611,2834.9366488175438" fill="none" stroke="#000000" stroke-width="5.812323578774101"/>
	<path d="M 622.669104391995,2798.6164734673994 L 622.7909809842947,2798.7377463134567 L 623.4613037397122,2799.3137900032534 L 624.4972577696537,2800.1930136516257 L 624.5581960658475,2800.374921395673 L 624.7410117031377,2802.0727292551933 L 624.8019499992939,2802.224319393404 L 622.669104391995,2798.6164734673994" fill="none" stroke="#000000" stroke-width="5.812323578774101"/>
	<path d="M 795.7952470815834,2731.6406241291315 L 795.9171236738769,2731.7315875580744 L 799.9390617038563,2735.127527479641 L 800.0,2735.188169712849 L 798.5374771480809,2734.61207387365 L 796.5265081331006,2733.823731233925 L 796.4046315408009,2733.4902015886423 L 795.7952470815834,2731.6406241291315" fill="none" stroke="#000000" stroke-width="5.812323578774101"/>
	<path d="M 614.8080439692949,2694.314503169654 L 616.7580746881316,2697.771271665063 L 616.8190129843254,2697.831916414801 L 615.0517979027725,2696.9828871979635 L 614.9908596066226,2696.922242373596 L 614.8080439692949,2694.314503169654" fill="none" stroke="#000000" stroke-width="5.812323578774101"/>
	<path d="M 645.0055253395901,2141.2573208970616 L 650.0119465123042,2145.911607755092 L 649.3444236892735,2152.2280790671657 L 647.341855220188,2164.195938278026 L 638.997819932327,2185.8039400711327 L 630.320023232954,2194.7793332091724 L 618.5680932897258,2201.633428584558 L 600.6152576081945,2200.098018929875 L 592.9387451433704,2196.7738460832675 L 558.895081168915,2184.8066655492653 L 559.5626039919393,2180.8175502004874 L 619.4094224462482,2183.5749698148375 L 625.7880573208795,2179.9788724695127 L 629.9862618214418,2167.520299181587 L 635.3264444056742,2150.2334114789014 L 645.0055253395901,2141.2573208970616" fill="none" stroke="#000000" stroke-width="5.812323578774101"/>
	<path d="M 530.1645341952844,1025.2125353745432 L 529.8598412168539,1025.8817676074173 L 521.08470410534,1042.4905597782592 L 521.0237658091463,1042.36888558731 L 520.4753196460787,1042.1559569770636 L 520.4143813499287,1042.1255385954225 L 520.2315664614415,1042.064701077951 L 522.4862886610653,1036.8631121283506 L 530.1645341952844,1025.2125353745432" fill="none" stroke="#000000" stroke-width="5.812323578774101"/>
	<path d="M 522.3034737726218,982.3794366784741 L 522.3034737726218,982.5619736802843 L 522.547226957259,984.8436753436291 L 523.7659966245409,986.6690287277472 L 523.9488115129842,988.3422612513455 L 523.9488115129842,988.4031065556079 L 521.08470410534,990.5022435590844 L 518.1596584014958,988.0988829361206 L 518.82998190571,986.4560711076199 L 520.7190735795625,984.8436753436291 L 522.3034737726218,982.3794366784741" fill="none" stroke="#000000" stroke-width="5.812323578774101"/>
	<path d="M 572.8823891305435,948.1523843257797 L 572.8214500855969,948.1828095498612 L 560.8165750405988,955.5456666588981 L 560.5728211071712,955.6673661145419 L 564.716636478291,950.0083233836209 L 567.8244970705723,947.7872807143048 L 570.3839122486391,947.6047284137544 L 572.8823891305435,948.1523843257797" fill="none" stroke="#000000" stroke-width="5.812323578774101"/>
	<path d="M 557.2821448775433,895.3610985615769 L 557.2821448775433,895.4828158305758 L 556.855576055616,897.4302797235009 L 556.855576055616,897.4911376803415 L 556.855576055616,899.225590127751 L 556.855576055616,900.534032194882 L 555.2102375663629,901.4164672256366 L 552.8945763217926,898.7082986532254 L 553.5648998260006,897.5519963759748 L 555.4539914998469,896.7608401041707 L 557.2821448775433,895.3610985615769" fill="none" stroke="#000000" stroke-width="5.812323578774101"/>
	<path d="M 527.9098112468201,851.2972135967386 L 532.0364975502918,860.6315756928095 L 525.5941500021996,857.5053990198109 L 523.9488115129842,855.4360139615983 L 527.9098112468201,851.2972135967386" fill="none" stroke="#000000" stroke-width="5.812323578774101"/>
	<path d="M 4.570384193090988,521.0881010367686 L 4.509445148094281,521.1185599933468 L 2.985984000031688,522.489179798742 L 1.767215081546531,524.2252917604002 L 0.7922000965515765,524.9258263348501 L 0.0,523.4942986190096 L 0.7922000965515765,521.0881010367686 L 2.0109690149866157,520.6007686252678 L 3.229737933471773,521.0881010367686 L 4.570384193090988,521.0881010367686" fill="none" stroke="#000000" stroke-width="5.812323578774101"/>
	<path d="M 207.61730667643258,410.7214363962644 L 206.03290648336073,411.8487254314331 L 205.30164543181212,413.37208320783793 L 204.57038363144804,414.22516096118227 L 202.92504589108566,413.493952007107 L 203.6563069425967,409.9902204870528 L 204.8141375649257,409.47227456933894 L 204.87507586108185,409.502741908334 L 206.21572212066346,410.3558286231643 L 207.61730667643258,410.7214363962644" fill="none" stroke="#000000" stroke-width="5.812323578774101"/>
	<path d="M 179.09811068959536,406.05990765672277 L 180.25594131189305,407.7051600998982 L 181.71846416380578,408.4363805477948 L 182.63254085265712,409.1676002918346 L 181.90127980109597,410.7823708650168 L 178.42778793418412,410.0816223679134 L 178.0012191122568,408.8629257622193 L 178.73248016381166,407.46141937819044 L 179.09811068959536,406.05990765672277" fill="none" stroke="#000000" stroke-width="5.812323578774101"/>
	<path d="M 258.4399759678381,393.2632504137898 L 258.3790369228853,393.3851258779109 L 258.0743446932515,395.2741832825936 L 258.56185256017545,396.8585472382268 L 258.74466819746567,397.9249414279465 L 258.8056064936156,397.95540972368696 L 257.0993297082565,398.6257138369758 L 256.4899452489951,397.6507259037247 L 255.14929898941975,395.5788690744683 L 255.57586856018764,394.42106157023136 L 257.22120630054997,393.99450034488956 L 258.4399759678381,393.2632504137898" fill="none" stroke="#000000" stroke-width="5.812323578774101"/>
	<path d="M 269.53077357516946,363.64641651567075 L 267.9463741309131,364.80432139075003 L 267.09323573821166,366.29740371369144 L 266.48385127899417,367.1810618334541 L 264.7775744936351,366.4497590760805 L 265.50883629399294,362.9151066739165 L 266.727605212428,362.3666229558875 L 266.7885435086217,362.39709421198455 L 268.1901280643532,363.18934822364224 L 269.53077357516946,363.64641651567075" fill="none" stroke="#000000" stroke-width="5.812323578774101"/>
	<path d="M 288.0560635320076,329.1513511025164 L 282.2669104204816,334.3928619158888 L 282.63254094625904,329.94367757709364 L 284.0341255020219,328.81613573560395 L 285.92321792472126,329.0294549136926 L 288.0560635320076,329.1513511025164" fill="none" stroke="#000000" stroke-width="5.812323578774101"/>
	<path d="M 315.3564898515567,297.70069151151046 L 313.5283364738603,300.7483557169032 L 312.6142597850528,303.39980282568615 L 311.21267522927747,305.31980443380513 L 307.86106070351843,306.29503901399005 L 307.80012165852173,306.3255149819359 L 308.409506117733,300.5654970412487 L 310.35953683658227,298.4626096064912 L 315.3564898515567,297.70069151151046" fill="none" stroke="#000000" stroke-width="5.812323578774101"/>
	<path d="M 263.4369289828502,260.425661896139 L 263.4369289828502,260.4866223668823 L 263.0712977082259,262.34589337842215 L 263.1322367532289,262.62021131959074 L 263.5588055751499,263.90035842952585 L 263.61974387130607,265.0890625709902 L 261.9744061309312,265.75961243942476 L 261.36502167167606,264.8147465236937 L 259.96343711595085,262.7726096686664 L 260.63375987131826,261.5229382920267 L 262.09628272323096,261.157180117377 L 263.4369289828502,260.425661896139" fill="none" stroke="#000000" stroke-width="5.812323578774101"/>
	<path d="M 174.95429606727853,257.22525366130316 L 173.49177321535953,258.38349996622395 L 172.63863482269568,259.87702243483875 L 171.84643547499093,260.7914215684471 L 170.38391262307195,260.15134227075964 L 170.32297357807525,260.0903824918855 L 171.05423537843936,256.55468853084597 L 172.2730042969245,256.0365233635283 L 173.67458885268732,256.8594910870664 L 174.95429606727853,257.22525366130316" fill="none" stroke="#000000" stroke-width="5.812323578774101"/>
	<path d="M 355.45399131264924,240.3388157097042 L 358.98842147570474,239.94255345033287 L 359.96343720955275,240.94844828681687 L 359.96343720955275,241.00941133728577 L 359.96343720955275,242.86878385729747 L 360.69469826106376,244.97199771944926 L 350.4570382976247,268.28940041616335 L 344.4241320014991,278.5302891699131 L 334.73491745229336,286.30219736817344 L 334.6130408599936,286.39363034307166 L 337.8427787934153,274.29376688045346 L 350.2132843641909,254.05529790502692 L 355.45399131264924,240.3388157097042" fill="none" stroke="#000000" stroke-width="5.812323578774101"/>
	<path d="M 372.0292505506444,207.38661460479196 L 383.7294333660025,209.18519477383919 L 377.8793419583203,213.14813634985057 L 373.61364999490075,214.39797764180238 L 371.41986609142066,212.69087583643346 L 372.0292505506444,207.38661460479196" fill="none" stroke="#000000" stroke-width="5.812323578774101"/>
	<path d="M 232.84582568483887,199.15570684566447 L 232.78488738869527,199.1861919652986 L 231.26142624062012,200.3446275583213 L 230.34734955177507,201.86887893199378 L 229.67702604756084,202.72245697864076 L 228.15356489944813,202.08227382430763 L 228.09262660330452,202.05178895461773 L 228.70201106252202,198.45454686919115 L 230.04265657333826,198.02775257197104 L 231.44424112907603,198.7898844555302 L 232.84582568483887,199.15570684566447" fill="none" stroke="#000000" stroke-width="5.812323578774101"/>
	<path d="M 344.1194390230686,197.72289950777488 L 342.5350395788123,198.8813399012765 L 341.80377852725115,200.3446275583213 L 341.07251672688705,201.25917917175727 L 339.36623994152797,200.52753837010866 L 340.0975017418921,196.960765320848 L 341.3162706603271,196.50348461816344 L 342.77879351224607,197.3265903554788 L 344.1194390230686,197.72289950777488" fill="none" stroke="#000000" stroke-width="5.812323578774101"/>
	<path d="M 218.0987205733431,190.65023388457362 L 217.73308929871882,192.57084206700694 L 218.22059716564283,194.1865844203522 L 218.22059716564283,194.24755551540684 L 218.2815354617927,195.28406551552197 L 216.69713601758025,195.89377559354185 L 216.63619772143036,195.89377559354185 L 214.68616700258735,192.96715731002732 L 215.29555146181116,191.7477259836105 L 216.81901260987374,191.2904377744615 L 218.0987205733431,190.65023388457362" fill="none" stroke="#000000" stroke-width="5.812323578774101"/>
	<path d="M 309.5063984438808,191.13800873907562 L 309.44546014772465,191.19898036111522 L 307.92199899966204,192.35744217391624 L 307.1907371992979,193.75978571093958 L 306.3985378515932,194.61338261347294 L 305.4844604139013,194.3085265998835 L 304.7531993623402,194.0341558875228 L 305.60633775504164,190.46731795285288 L 306.76416837737065,189.91857033743094 L 308.1657529331084,190.71120559097704 L 308.2266912292896,190.74169144027076 L 309.5063984438808,191.13800873907562" fill="none" stroke="#000000" stroke-width="5.812323578774101"/>
	<path d="M 209.56733664646632,184.79688596816206 L 208.04387549835988,185.89439629761426 L 207.12979880950854,187.29676479843394 L 206.52041435028477,188.24183705154712 L 205.11882979451568,187.66259985807042 L 204.93601490607227,187.57114075413432 L 204.8141375649257,187.5406546306292 L 205.4844610691462,184.065210265181 L 206.88604487606847,183.45547972584987 L 208.22669113564382,184.3091023350976 L 209.56733664646632,184.79688596816206" fill="none" stroke="#000000" stroke-width="5.812323578774101"/>
	<path d="M 315.539305488897,157.78486225410725 L 315.17367496311334,159.79711563507504 L 315.6002437850406,161.38252020542814 L 315.78305942233084,162.41912631757037 L 315.84399771848075,162.48010366928287 L 314.13772093312167,163.15084709500002 L 312.1876902142787,160.16297932587935 L 312.6142597850528,158.91294484583025 L 314.25959752541513,158.516591957155 L 315.539305488897,157.78486225410725" fill="none" stroke="#000000" stroke-width="5.812323578774101"/>
	<path d="M 396.2827545740558,141.38151147183692 L 396.2827545740558,141.44249174039675 L 395.55149277369793,151.869987401765 L 392.32175484022616,161.99228905414537 L 388.72638638101455,166.59601031569815 L 386.53260172873775,160.46786494355365 L 387.20292523295194,153.63836231227663 L 389.4576474325757,146.50382966156369 L 392.6264470698537,141.62543248220737 L 396.2827545740558,141.38151147183692" fill="none" stroke="#000000" stroke-width="5.812323578774101"/>
	<path d="M 180.56063354151433,112.29263213521601 L 180.56063354151433,112.59755959008568 L 180.8043874749607,115.00647714799523 L 179.53504980478408,116.57923706864727 L 180.56063354151433,112.29263213521601" fill="none" stroke="#000000" stroke-width="5.812323578774101"/>
	<path d="M 384.6435100548476,101.86395130966449 L 381.7794026471971,116.92750116332029 L 381.17001818793574,117.11045552744585 L 380.8043876621583,117.11045552744585 L 380.68251032106184,117.11045552744585 L 380.56063372871193,117.04947025053437 L 380.19500320294077,116.92750116332029 L 379.707495336023,116.62257750867097 L 379.1590491729491,109.36531464320583 L 379.707495336023,104.66935795421996 L 381.35283382527604,102.19938150299052 L 384.6435100548476,101.86395130966449" fill="none" stroke="#000000" stroke-width="5.812323578774101"/>
	<path d="M 155.08836059966794,87.10469586442171 L 155.08836059966794,89.60527544577117 L 154.052407318473,91.2824825479405 L 153.99146827352016,91.31297782852627 L 155.08836059966794,87.10469586442171" fill="none" stroke="#000000" stroke-width="5.812323578774101"/>
	<path d="M 220.84095063985325,59.59712817362831 L 220.84095063985325,59.74961556200364 L 222.120657854482,69.90509905693537 L 219.01279726219443,66.1235123362625 L 218.95185896601322,63.43978060034551 L 218.95185896601322,63.37878660728616 L 220.84095063985325,59.59712817362831" fill="none" stroke="#000000" stroke-width="5.812323578774101"/>
	<path d="M 198.53747733532248,38.004280900405085 L 198.53747733532248,38.095779399199365 L 197.44058500913707,42.274161065364055 L 196.89213884606943,39.98673190842729 L 198.53747733532248,38.004280900405085" fill="none" stroke="#000000" stroke-width="5.812323578774101"/>
	<path d="M 170.74954314885565,10.889299924806602 L 170.74954314885565,10.980804938097316 L 170.0182813484477,18.026635181185434 L 165.93540502232457,13.664947809319626 L 166.0572823634649,12.170370873177676 L 168.37294360808534,11.71284640863432 L 170.74954314885565,10.889299924806602" fill="none" stroke="#000000" stroke-width="5.812323578774101"/>
	<path d="M 148.9945152585081,0.0 L 149.54296142157574,1.1591017658573228 L 149.54296142157574,2.653727040262669 L 148.01950027350688,4.209350300217395 L 148.9945152585081,0.0" fill="none" stroke="#000000" stroke-width="5.812323578774101"/>
</svg>
