<?xml version="1.0" ?>
<svg xmlns="http://www.w3.org/2000/svg" xmlns:ev="http://www.w3.org/2001/xml-events" xmlns:xlink="http://www.w3.org/1999/xlink" baseProfile="full" height="600px" version="1.1" viewBox="-80.4464294828145 -95.676 960.5971537937739 1143.352" width="505px">
	<defs/>
	<path d="M 377.53359600074,45.38461040737632 L 496.3244074116899,0.0 L 499.0378694243593,213.38479686244912 L 377.53359600074,45.38461040737632" fill="none" stroke="#000000" stroke-width="0.9520000000000001"/>
	<path d="M 282.8425645155853,81.56179653751643 L 377.53359600074,45.38461040737632 L 499.0378694243593,213.38479686244912 L 484.3931716470894,311.5786955344324 L 282.8425645155853,81.56179653751643" fill="none" stroke="#000000" stroke-width="0.9520000000000001"/>
	<path d="M 172.73672541225304,123.62830391508619 L 282.8425645155853,81.56179653751643 L 484.3931716470894,311.5786955344324 L 477.12963373634307,360.2813193024491 L 471.7908034052555,404.4756122290319 L 172.73672541225304,123.62830391508619" fill="none" stroke="#000000" stroke-width="0.9520000000000001"/>
	<path d="M 100.28037452470271,151.31063846653242 L 172.73672541225304,123.62830391508619 L 471.7908034052555,404.4756122290319 L 464.89696455076444,461.5420482358613 L 100.28037452470271,151.31063846653242" fill="none" stroke="#000000" stroke-width="0.9520000000000001"/>
	<path d="M 51.762611366560584,336.15933710739534 L 100.28037452470271,151.31063846653242 L 464.89696455076444,461.5420482358613 L 460.6984569694174,496.29681673792817 L 454.5641459276007,538.9513147512638 L 334.72607370930814,501.7374395042558 L 208.75370447340117,469.0936935887372 L 51.762611366560584,336.15933710739534" fill="none" stroke="#000000" stroke-width="0.9520000000000001"/>
	<path d="M 0.0,533.371025893281 L 51.762611366560584,336.15933710739534 L 208.75370447340117,469.0936935887372 L 153.98310122524342,523.4999336565047 L 0.0,533.371025893281" fill="none" stroke="#000000" stroke-width="0.9520000000000001"/>
	<path d="M 77.9904797504784,721.3242317034177 L 0.0,533.371025893281 L 153.98310122524342,523.4999336565047 L 143.0289833814963,599.6687161606309 L 170.41427799216905,692.1594599231836 L 77.9904797504784,721.3242317034177" fill="none" stroke="#000000" stroke-width="0.9520000000000001"/>
	<path d="M 145.97776646884702,885.1705442000085 L 77.9904797504784,721.3242317034177 L 170.41427799216905,692.1594599231836 L 204.34978982510958,749.7401914293496 L 175.8913369148256,773.7690170552593 L 145.97776646884702,885.1705442000085" fill="none" stroke="#000000" stroke-width="0.9520000000000001"/>
	<path d="M 400.0473027181289,933.6349082043496 L 145.97776646884702,885.1705442000085 L 175.8913369148256,773.7690170552593 L 204.34978982510958,749.7401914293496 L 285.43254341061913,681.2781928760163 L 400.0473027181289,933.6349082043496" fill="none" stroke="#000000" stroke-width="0.9520000000000001"/>
	<path d="M 720.8097886460649,665.8164766608587 L 691.8076787555328,755.2945753686728 L 496.3244074116899,952.0 L 400.0473027181289,933.6349082043496 L 285.43254341061913,681.2781928760163 L 444.2672802045797,610.5499737927113 L 597.6249440475056,648.6343992939373 L 720.8097886460649,665.8164766608587" fill="none" stroke="#000000" stroke-width="0.9520000000000001"/>
	<path d="M 786.2090086367884,324.10249653758234 L 799.704294828145,422.40942698542153 L 720.8097886460649,665.8164766608587 L 597.6249440475056,648.6343992939373 L 444.2672802045797,610.5499737927113 L 454.5641459276007,538.9513147512638 L 460.6984569694174,496.29681673792817 L 464.89696455076444,461.5420482358613 L 471.7908034052555,404.4756122290319 L 477.12963373634307,360.2813193024491 L 484.3931716470894,311.5786955344324 L 499.0378694243593,213.38479686244912 L 619.5331937638999,284.1127253185204 L 786.2090086367884,324.10249653758234" fill="none" stroke="#000000" stroke-width="0.9520000000000001"/>
	<path d="M 757.8150196096916,117.26571323776082 L 786.2090086367884,324.10249653758234 L 619.5331937638999,284.1127253185204 L 499.0378694243593,213.38479686244912 L 757.8150196096916,117.26571323776082" fill="none" stroke="#000000" stroke-width="0.9520000000000001"/>
	<path d="M 496.3244074116899,0.0 L 757.8150196096916,117.26571323776082 L 499.0378694243593,213.38479686244912 L 496.3244074116899,0.0" fill="none" stroke="#000000" stroke-width="0.9520000000000001"/>
	<path d="M 454.5641459276007,538.9513147512638 L 444.2672802045797,610.5499737927113 L 285.43254341061913,681.2781928760163 L 204.34978982510958,749.7401914293496 L 170.41427799216905,692.1594599231836 L 143.0289833814963,599.6687161606309 L 153.98310122524342,523.4999336565047 L 208.75370447340117,469.0936935887372 L 334.72607370930814,501.7374395042558 L 454.5641459276007,538.9513147512638" fill="none" stroke="#000000" stroke-width="0.9520000000000001"/>
</svg>
