<?xml version="1.0" ?>
<svg xmlns="http://www.w3.org/2000/svg" xmlns:ev="http://www.w3.org/2001/xml-events" xmlns:xlink="http://www.w3.org/1999/xlink" baseProfile="full" height="600px" version="1.1" viewBox="-80.5303460296083 -106.59955195126737 961.0606920592165 1273.8911631191254" width="453px">
	<defs/>
	<path d="M 444.4983956244803,122.72579711920937 L 444.01555725535184,125.80155892527047 L 441.1729618797348,127.27485293562873 L 438.805698117087,128.11452304038903 L 437.64763468686425,129.11378606514666 L 434.6413726656539,131.26896205476177 L 432.97005909501206,131.9911288995487 L 431.36181404159163,131.534723933945 L 430.107442055065,130.9111743400245 L 430.0156675607998,130.25538306936022 L 429.95471530820635,129.8198200384944 L 430.183805326794,127.04906097228856 L 432.90447421596997,125.69552815454726 L 433.8971977654375,124.51976345418535 L 433.28629098141033,123.59587615956399 L 432.9595476754707,122.47274645965962 L 432.7517475708261,120.65581140702234 L 435.49775713059745,118.58019218897056 L 438.55536191731915,118.9754849237765 L 440.4552327806819,121.9087288093346 L 444.4983956244803,122.72579711920937 M 435.74201744250104,127.73693062775969 L 437.7712915661514,127.03760982186029 L 438.3153007768574,125.19776075881695 L 436.8389419865843,124.15045123086571 L 435.95042543230244,124.1631860921147 L 435.39134652787294,124.74412335158291 L 435.74201744250104,127.73693062775969" fill="none" stroke="#000000" stroke-width="1.0606920592165907"/>
	<path d="M 424.5006476138486,81.94917844998916 L 424.3296836262041,81.84962174811682 L 423.7515562635771,80.50420350887948 L 423.2680315750877,75.48667455871885 L 423.35212293139193,73.56036554136129 L 424.4453090377098,72.38819682708251 L 425.7592347509035,71.37261980469943 L 426.4845217836375,69.9042473766437 L 426.01150851468446,68.50536911650835 L 423.6464421699099,65.33557692050798 L 423.1944517400338,63.419398613516776 L 423.6884878480654,61.74106171946054 L 425.6541206572363,58.98208413616203 L 426.33736211352453,57.36708759519851 L 426.75781828479336,47.2775756160408 L 427.4305483215453,43.93400191633354 L 427.651287826719,41.8750984652183 L 427.1362288796156,39.57153400840726 L 425.5384952457246,35.23088691262824 L 424.3822406221913,35.0912173850146 L 419.22114034183875,36.43547386752253 L 416.86273528500254,36.6388966644874 L 416.87167489109095,36.60527666833989 L 417.3351699823428,35.55141456736524 L 418.2952668698968,31.518460246129752 L 425.03249863873975,20.86178499457247 L 427.48240101692045,15.796342136730425 L 428.5087115179981,14.772919235347217 L 430.1723277187008,13.868751992811886 L 430.26337136101284,14.492955431513009 L 430.1723277187008,16.016619914285336 L 431.35589547561494,17.856711035057977 L 431.0413809639428,18.489899051168592 L 430.5944393269254,20.10025956495623 L 431.35589547561494,20.10025956495623 L 432.3325457156997,19.090940111885246 L 434.98108893445294,18.944123510464504 L 435.5107975375204,18.21001536343326 L 436.1315498846138,17.884241630548473 L 437.46409822110166,18.379781571532764 L 438.6724960068153,19.64607556178507 L 438.98701051849343,21.632440056164608 L 439.698806507893,20.384690024054272 L 440.4023258210365,20.448915328995977 L 441.27137896456884,20.912246043850903 L 442.4632233977518,20.86178499457247 L 445.2276403893194,18.82483373549098 L 446.3118877259499,18.558721902770383 L 449.4156492579832,19.421271534291865 L 450.09433844062943,19.32033776225845 L 450.37574624724607,18.375193337031398 L 449.91225115600025,17.365739708568896 L 449.1176882005455,16.567298044506842 L 448.3893388586084,16.24607204282047 L 446.4029314699707,16.01203084383608 L 445.16970355376657,16.09004504617494 L 444.2675435017594,16.63154224496968 L 443.6881746376991,17.33820801275596 L 442.68669426711784,18.338487289849816 L 441.4948498339349,18.96247563418372 L 440.3609422363056,18.558721902770383 L 440.34438888377485,17.306087758688182 L 441.12239848670396,12.56517128689337 L 441.12239848670396,10.784011023334333 L 444.1020095696609,13.175667307861957 L 445.4428344807087,13.657617524437764 L 445.98909653800894,12.014323187376798 L 445.5090480942323,11.13291739974644 L 444.36686382033935,9.99434608934133 L 442.9598252957688,9.011788660097455 L 441.7679808625859,8.616908255386655 L 442.19836914707247,7.569957362143034 L 442.76118455690425,7.363312273735076 L 443.3819369039926,7.367904410143438 L 443.9778591205836,7.005119706654762 L 445.2276403893194,5.462022825421334 L 445.7904557991452,4.116255160442334 L 445.65802867380603,1.6586044804453546 L 445.98909653800894,0.0 L 446.61812556136516,0.0 L 448.0086107334118,3.078127093947086 L 449.5811832917914,2.039915461564147 L 450.09433844062943,1.5437495015076999 L 450.8557946910286,2.375276161483065 L 450.37574624724607,3.2297173273361657 L 450.334362764224,3.519112067021127 L 450.55783353187616,3.7947200016974714 L 450.8557946910286,4.621508641157719 L 451.8158915785827,3.8222805169024907 L 452.41181379517377,4.107068575251121 L 452.91669236945273,4.855755760608467 L 453.63676503512187,5.462022825421334 L 455.9956237709905,6.109594874323433 L 457.23712836345663,6.229001694114698 L 458.55312324571685,6.16470585996129 L 458.3379291543275,5.6549199670641075 L 457.9903078358901,4.35969796503664 L 457.79166709702645,3.8498408604220633 L 459.9436084177626,3.078127093947086 L 460.96991891884704,5.92588970385741 L 460.7547248274518,7.028081008392164 L 459.3311328486459,7.1382950277841255 L 456.7488032434172,7.005119706654762 L 455.04380355969244,7.634246209096692 L 451.9979788632128,10.311136039485877 L 450.3095326337276,11.408363125078534 L 450.43368308280486,11.412953826241083 L 450.4088529523025,12.060228090501955 L 449.53152303079764,13.235338266265055 L 451.79933812434825,15.612774482208195 L 452.9580758524748,16.535175768548307 L 454.33200757028783,17.017001103547237 L 455.2589976510877,16.548942532427084 L 456.3184149589246,15.654077442351802 L 457.42749242605834,15.438382780498562 L 458.55312324571685,17.017001103547237 L 456.66603627736794,20.361752265679804 L 455.73904619656804,20.74710034943701 L 455.0934637189833,18.558721902770383 L 454.05059986537407,18.678014123770875 L 452.92496904571556,18.558721902770383 L 453.31397384718093,19.673602248999327 L 453.42157084202375,20.38927754831601 L 453.2725902624501,20.967294104393858 L 452.92496904571556,21.632440056164608 L 454.2078571212157,22.97180302431913 L 455.747322872836,23.88450903046746 L 457.0881478855926,25.040205524297807 L 457.79166709702645,27.089938444138223 L 456.59982266384435,27.071597681808466 L 455.50729865094513,26.796484158698195 L 454.5306483091515,26.264581472617802 L 453.63676503512187,25.480443847968335 L 452.171789573288,26.191213839270688 L 450.93856165707786,25.66845783950131 L 450.1771055083824,24.29726953951153 L 450.09433844062943,22.476438300686453 L 449.4984162240384,22.852550352725014 L 447.9589505741218,23.577223218281468 L 447.37958171005556,23.944130768897853 L 447.32992155077153,22.742469862138694 L 447.5285622896352,21.825096621007088 L 448.0086107334118,21.20124584322294 L 448.7700668821022,20.86178499457247 L 446.4608683055295,20.47185293339602 L 443.9364755358536,21.953532781145547 L 442.4301166926954,24.045028619896364 L 443.15846603463166,25.480443847968335 L 442.64531078409067,26.69560776521265 L 442.52943701127623,28.07112799615347 L 442.7280777501399,29.524436465362598 L 443.15846603463166,30.940912269052514 L 444.0523493086621,28.667141682198864 L 444.8965725251165,27.447576846812577 L 445.98909653800894,27.089938444138223 L 446.6346789138908,27.805205421004064 L 446.7339993341796,29.116426206559233 L 446.4525916292607,30.574201951595253 L 445.98909653800894,31.70180340673706 L 447.9755039266466,32.535982310086595 L 457.09642456185543,32.40765056071932 L 456.2190946403506,33.90172041278759 L 454.6796288887303,35.230657065876706 L 451.5344838736698,37.08635933920621 L 448.57142614323766,38.20881666391965 L 447.6527127387116,39.20749336207001 L 448.0086107334118,41.00308708439798 L 450.57438698610974,39.642672668482454 L 451.9979788632128,40.90690084080497 L 452.04763912421157,42.99077808307969 L 449.7136104171365,44.58437669726273 L 450.1853821846512,45.71076883708349 L 451.5344838736698,47.56956197324281 L 451.9234886751343,48.393572917700034 L 452.8422020796663,48.83302427219376 L 455.0934637189833,49.455555107890106 L 454.29890076352774,49.9865140403367 L 454.00921638235195,50.343525972002375 L 453.63676503512187,51.82639451938404 L 452.1304060902608,51.0300600071808 L 450.4750665658269,50.55406683110684 L 448.99353775146824,50.72798941630656 L 448.0086107334118,51.82639451938404 L 449.6142899968469,54.49879610008422 L 448.9190474616818,56.96021881839599 L 447.2471545847163,59.3388508017619 L 445.98909653800894,61.735344698720766 L 445.8732227652004,62.55846705576889 L 445.98909653800894,65.22868733486706 L 443.9778591205836,67.17614347546304 L 442.2894127893905,70.2247516156724 L 441.15550519176037,71.66425417979352 L 439.6822530536594,72.54158823300914 L 439.6822530536594,70.16991034572432 L 438.275214529088,72.55986547120133 L 436.83506919775135,76.2056555762648 L 436.1067197541114,80.30710929814202 L 436.83506919775135,84.0420714574677 L 437.3722294379095,85.3730348846497 L 433.1487530237332,86.59229088398094 L 431.51948513123494,86.89952021124626 L 429.9217513956471,86.45896284475924 L 429.2069757824485,85.61838493663235 L 428.19788093073197,83.35725570990473 L 427.2833886514323,82.6092587813977 L 424.89729946758,82.18015621684961 L 424.5006476138486,81.94917844998916" fill="none" stroke="#000000" stroke-width="1.0606920592165907"/>
	<path d="M 416.91914251429745,185.70462585430502 L 419.0739807734287,185.62118726618957 L 421.0185908452255,185.07450778286952 L 421.93308302281633,183.9292876206223 L 422.55325596188914,182.02133380310255 L 424.73962837793664,179.36184111910518 L 426.4004304273333,175.20750734731897 L 426.4198243742174,175.19870151816662 L 427.9350957474036,174.510676110235 L 431.7402246364138,174.03842313814582 L 433.56920929671,173.15146502924705 L 436.9275356357981,169.86188225905926 L 437.5004750167504,169.30059143328197 L 440.3490659483114,167.27246892040586 L 440.88514773447986,166.1689742206783 L 440.9544866120124,165.4003933740713 L 441.13507701252047,163.398450833543 L 441.463274995404,159.7594442857475 L 441.9891486435463,159.1564839820619 L 442.4513471097525,158.62651065577668 L 447.9755039266466,158.00969098862203 L 450.2267656676724,167.0371712198525 L 456.7488032434172,180.6283753426669 L 457.84132725631645,181.76603081097687 L 458.503463086426,184.35826297458775 L 459.1821522690731,188.99767747860253 L 471.1502567601891,211.67382789867978 L 473.633266046837,214.44581636679894 L 479.3855707976243,219.57230605740145 L 490.501175497726,233.14789751504162 L 492.70277697775896,236.67854193541143 L 493.63804383652456,238.74594670997942 L 494.5319271105601,241.92770696773158 L 504.5384543435349,253.89006087898554 L 516.6224326074594,264.170791575607 L 526.1075279136295,271.86853331099417 L 529.4347603150238,274.00279786156966 L 543.8858739910858,279.5620791668887 L 562.5249966375194,284.52982351086195 L 564.871286018388,285.58088962587175 L 553.0574299141173,306.2368571496179 L 539.868517540266,317.453414958356 L 527.3415421646849,321.53612714119964 L 497.95165170547796,322.99782272635923 L 496.16471277766834,320.6670173090235 L 486.76751598966473,284.8194198748712 L 456.59978135226874,258.1804424818033 L 440.79062716512846,251.1863667229569 L 440.1389199449707,241.57562778458697 L 430.15308450729225,207.67171005125462 L 416.6566174089334,190.2221662861489 L 416.7480994767665,185.6807579142621 L 416.91914251429745,185.70462585430502" fill="none" stroke="#000000" stroke-width="1.0606920592165907"/>
	<path d="M 402.42391399102036,158.06433305461968 L 406.5373569020753,158.69080446045885 L 406.7966588231042,158.7302947923748 L 409.56115850006904,160.46856084618702 L 410.7174131236083,163.76575446214446 L 411.5594342437934,168.67865275982058 L 411.96827042128433,171.06343004666078 L 409.52962424145585,169.30059143328197 L 408.2156985282622,168.62938548832966 L 406.7966588231042,168.2836870929308 L 405.00971973925897,168.82527726978455 L 404.6838661404189,170.22812644915018 L 405.40915317315296,171.87852175326836 L 409.20377064262175,175.31692386137746 L 412.1995213459986,182.9882939202294 L 415.31089746087616,185.48020357350052 L 416.7480994767665,185.6807579142621 L 416.6566174089334,190.2221662861489 L 430.15308450729225,207.67171005125462 L 440.1389199449707,241.57562778458697 L 440.79062716512846,251.1863667229569 L 437.3352889350248,262.2145349726918 L 425.2998986481716,262.2145349726918 L 410.4326518017237,265.29770071115496 L 404.76893868251636,269.15070905722814 L 404.76893868251636,278.393638518481 L 398.3972615148714,281.4732725937865 L 394.1494766754661,286.8610218123545 L 397.6892973749695,303.01202164104086 L 390.6096560674286,307.62323317165016 L 377.1583375007785,311.46477351764537 L 366.5388754022648,317.60909508806003 L 352.57882773745325,316.209420517895 L 355.93196629827827,302.511862126916 L 356.8569698954054,300.6457194562456 L 361.60812532231665,293.6298044782891 L 362.0390930148298,292.1622474478928 L 361.7132394159838,283.7794195378059 L 361.2507375665722,280.5963602587388 L 359.62146967407995,278.1700114286861 L 355.93196629827827,275.9605000986523 L 354.2291185707202,274.41392260990585 L 353.33564902879453,272.421132268765 L 353.7455938822308,270.8055362739576 L 358.1183387143258,269.98194007484415 L 362.43852644872464,268.34032369512596 L 364.4146706774259,267.2562943069149 L 367.39990996127244,265.6200817210677 L 370.17492105777444,264.4986512388856 L 373.0760690870145,263.95792978641646 L 376.4502302835116,264.04089896214026 L 379.7613231661922,264.5987826275932 L 381.32752264316684,264.5587302904382 L 382.9988361121058,263.9293196200612 L 384.8278206707,263.6117426685665 L 387.47669493615314,265.6687130846462 L 389.36874801197973,265.9004252221855 L 401.215102269785,261.0651458121652 L 407.64808268688034,259.48831365913935 L 408.7728030518114,257.7281194815892 L 404.9992084214204,250.9514586078875 L 403.80090811973247,246.25139312964404 L 402.192663066306,242.27185845612877 L 399.14435536694697,240.9938121253872 L 393.44717350383,243.3033801376305 L 391.7338143567424,243.20882705959824 L 385.36390245688034,241.8105143749185 L 384.1445793161087,241.2058727568972 L 383.98690832815714,239.52649352690733 L 384.7962865137888,237.58607176304216 L 388.74857507290693,230.5616071893475 L 389.40028227058787,228.9497810792325 L 389.75767002633233,223.57089516314988 L 389.52641910162396,222.63834291828695 L 388.7590863907395,221.65694340819397 L 386.71987374650877,220.2794234302837 L 386.0681666505366,219.49876801051596 L 385.7423130517025,217.81102443472417 L 385.97356397641175,211.79317560925938 L 384.701683839652,207.102835208426 L 384.5650355890804,204.75850373809826 L 385.59515338158957,203.21550938144918 L 387.024704506277,201.66659451312287 L 387.6553888648802,197.93583977626258 L 390.5039798981441,195.31968414001904 L 390.1676148797737,193.16601320510782 L 388.64354318520816,189.76957518482018 L 388.11789071429774,188.58150872484777 L 387.9076626286731,186.53610702786423 L 388.34914163901294,182.3868297812626 L 388.34914163901294,180.29157106420047 L 387.4977177752368,171.72875581793878 L 388.55936972463843,168.2836870929308 L 391.6392116826107,164.37380343697058 L 394.531476370886,161.7321828698488 L 394.97132730266196,161.33040453818361 L 398.5136710083438,159.08200178796992 L 402.42391399102036,158.06433305461968" fill="none" stroke="#000000" stroke-width="1.0606920592165907"/>
	<path d="M 326.2898019523419,409.53639888549446 L 327.38298816036865,393.53641818589705 L 326.7417924839269,377.51622799131286 L 326.7417924839269,377.5048741409596 L 327.09918023967134,374.25160654636755 L 330.2631134522398,363.68059241755543 L 339.94411803137757,346.75442367270637 L 342.1935589646464,340.0171296548794 L 344.3168628634615,329.0281501103868 L 345.45209464793487,325.3537993981679 L 347.35465914328506,322.50481989823544 L 347.37568198235687,322.4934227208144 L 351.1702994518248,318.34144493096306 L 352.57882773745325,316.209420517895 L 366.5388754022648,317.60909508806003 L 377.1583375007785,311.46477351764537 L 390.6096560674286,307.62323317165016 L 397.6892973749695,303.01202164104086 L 394.1494766754661,286.8610218123545 L 398.3972615148714,281.4732725937865 L 404.76893868251636,278.393638518481 L 404.76893868251636,269.15070905722814 L 410.4326518017237,265.29770071115496 L 425.2998986481716,262.2145349726918 L 437.3352889350248,262.2145349726918 L 440.79062716512846,251.1863667229569 L 456.59978135226874,258.1804424818033 L 486.76751598966473,284.8194198748712 L 496.16471277766834,320.6670173090235 L 497.95165170547796,322.99782272635923 L 478.43197121530227,410.20490259491 L 462.25491764345804,458.76050480564606 L 442.10455282044114,484.79764804183907 L 370.7636419604176,500.62498669170395 L 368.32698800512856,501.06371411343997 L 372.1300425491008,488.7566322845324 L 372.0774854514217,486.25450505552004 L 371.0263449215505,483.87034071400456 L 365.6234823986612,474.9052555055011 L 357.4035631011272,461.2727145025111 L 349.1941552231236,447.6222369197226 L 340.9637245060481,433.95937523575805 L 332.7543165263416,420.2840416579904 L 326.2898019523419,409.53639888549446" fill="none" stroke="#000000" stroke-width="1.0606920592165907"/>
	<path d="M 0.7194340492611372,812.5038835481059 L 0.0,810.8033710148062 L 11.320783891166366,806.8469519578938 L 28.72767186322502,800.7448026414534 L 46.12404841575331,794.6405251011812 L 63.51516920765051,788.5341117492769 L 80.93256859923868,782.4310888108639 L 98.33945657130243,776.3176145520915 L 115.73583312381881,770.2047486683476 L 133.1532325154189,764.0924863544014 L 150.54960906793525,757.975281032769 L 167.95649693829105,751.8614378834191 L 185.3528734908074,745.7370904538318 L 202.7597614628652,739.6133180150017 L 220.1771608544653,733.4901157518251 L 237.58404882652397,727.3619271110075 L 254.9699139594989,721.2370721592713 L 272.37680182985383,715.1099933349298 L 289.7836897002096,708.9723459320913 L 305.08829661251815,703.5774763890958 L 308.35734381705095,693.1830711420778 L 309.03007375209995,691.0577887778775 L 310.92212682791467,685.0476680742465 L 313.8442975945296,675.7054018206159 L 317.649426483539,663.5687196165275 L 322.15881946450355,649.2031619982816 L 327.17276007472526,633.1583666157362 L 332.54408844071014,615.9854326431031 L 338.09411063370646,598.2290316651213 L 342.33673987029056,584.6421293368342 L 343.6862606911416,586.6530923908517 L 467.699825884677,792.6219705818066 L 555.9833763953927,816.1807748731584 L 531.8018957271553,819.9593049785395 L 519.2130388889518,823.5505657348675 L 502.05544505688107,830.6092257870876 L 495.47547064558853,835.3583322985488 L 491.1467578736079,837.5173876127515 L 488.79617581400805,839.3330505369206 L 487.78641866545433,841.6175693322173 L 486.94219555070964,842.7206352206692 L 476.08316852672647,853.5479142220556 L 474.19608145666365,857.3970987513575 L 473.76569317217707,862.4427524891555 L 474.4278290022926,865.9344026107193 L 474.5188726446046,867.1704150625686 L 474.19608145666365,868.5234265029355 L 472.7228293185678,870.5527536865166 L 472.17656726126677,872.2870411126835 L 471.2661305329976,874.4156518837056 L 470.99299960605543,875.5383825523116 L 470.99299960605543,879.9679395880897 L 470.0742860998146,884.4484089335477 L 464.8103065707823,896.7488755166829 L 466.32494219190534,898.8356695270992 L 466.0766412937517,901.069401870216 L 464.6447726386779,903.1470485941213 L 462.6500885737774,904.7440800023327 L 458.2303320577759,906.6785095767456 L 456.0370072540117,907.963689443465 L 452.92496904571556,913.5187906140727 L 452.2793865681308,914.024896674203 L 450.8226878842634,914.4747571344645 L 450.09433844062943,914.907304889641 L 445.36834429263024,920.1489810042413 L 445.0952132639793,920.9446173960139 L 445.2276403893194,923.3140281436523 L 444.0689027628965,923.5474937981102 L 428.1610901995607,921.4980834376513 L 426.10019262284544,921.8180485158089 L 423.0626446026269,923.253499457339 L 420.8113828616011,923.6771958017526 L 412.15395731765085,922.9508533862065 L 410.08478296295885,923.2751168983049 L 403.5048085516663,925.9208956030154 L 399.7802946725447,926.8589325599959 L 373.7500812051242,928.0605883383103 L 363.5200831027885,930.7229738805553 L 361.24399133297504,930.930416526476 L 360.4245982470171,931.129213585806 L 359.9031663202133,931.5743384276484 L 359.44794800693313,932.0799527392173 L 358.81064230732005,932.4515921490387 L 356.94838536775876,932.5077695172091 L 356.7994047881791,932.4515921490387 L 353.4556190342609,933.3633737649637 L 352.5617356585224,933.8300504182575 L 351.1878039407103,935.5670222911959 L 349.73110515513923,939.753239247019 L 348.77928494384287,941.5069384435706 L 347.264649322719,943.2647925832973 L 346.8177076857076,944.0983120109103 L 345.26168858155654,948.4466971197896 L 344.86440710382914,949.1850023019365 L 343.46564525551975,950.752185638272 L 334.055040239136,958.586149967559 L 331.19130292898757,963.7724770554108 L 330.49606029211367,965.8992374865928 L 330.2146525872007,968.3708119758486 L 330.6284874174529,971.2172534862586 L 331.7044580778273,972.6403147515985 L 335.1310108995045,974.5203174719003 L 337.10914161187935,976.6113873170669 L 337.87887443683763,978.8229294405437 L 337.91198124359687,983.6589785002229 L 337.2084619304602,985.6757932764887 L 333.0618365448176,991.2855608276113 L 332.8383656754566,992.2548249268397 L 332.6645550670902,993.7237053629876 L 332.78042883989787,995.0460327735207 L 333.40945776154615,995.618869599117 L 334.2205741712345,995.9806525285001 L 334.2536809779997,996.7989459927331 L 333.75707907998265,998.1512074575829 L 333.19426367015683,998.7411773244197 L 330.529167098878,1000.0717729562414 L 329.5856235638445,1000.6789075621177 L 328.964871318465,1001.5572812655679 L 328.5758665170004,1002.4614478759343 L 328.1454782325138,1004.2954846517073 L 327.1688278907202,1005.9227240289086 L 327.49989585663195,1006.4608022514207 L 326.53152219110115,1007.6230003771165 L 323.4443141133014,1008.5699251084717 L 321.88829490744746,1009.4135100156133 L 321.36686298064285,1010.3603474626007 L 320.81232424707895,1011.8235509361183 L 319.9763778085971,1013.1532492410986 L 318.7348732161301,1013.7470658187176 L 314.5882478304875,1018.4711351267744 L 310.0195108366211,1021.7532168722511 L 309.39048181326484,1021.7532168722511 L 308.3972781189456,1020.1531095828653 L 307.2054336857635,1020.8499466006742 L 305.9639290932906,1022.3639758912283 L 304.78036133637556,1023.1983625225845 L 303.1829587491973,1023.473616189879 L 301.70142983313065,1023.9897065694247 L 300.30266798482205,1024.290752947096 L 298.845969199251,1023.9165945760468 L 297.2568432883407,1025.5808994085696 L 295.3697563199927,1026.200139551336 L 291.19830080385367,1026.741958723083 L 287.80485478893576,1028.0577426502416 L 286.1164085594446,1028.066342339184 L 284.9659476092897,1026.741958723083 L 283.79893330660406,1027.3783619705011 L 281.9366763670436,1027.1031630460877 L 280.7862154168827,1027.528859767392 L 277.31827921388725,1025.2970745631437 L 276.5650997414537,1026.0840336005988 L 275.7374299792398,1024.0585176203567 L 275.2822115642499,1022.2005352845982 L 274.14002739206666,1020.8413438481842 L 269.97684855218955,1020.0842847914873 L 267.0468976285235,1019.0906003597072 L 265.79711635978856,1018.8626050798532 L 264.60527192660567,1018.9830557859628 L 262.51126744141635,1019.4734544341222 L 261.286316201475,1019.5852980674409 L 257.6942295493963,1018.8712087037019 L 256.3616812129084,1018.8626050798532 L 255.26915720000918,1019.1680321452866 L 253.1420459080598,1020.110094143091 L 252.53784701520593,1020.3079644242777 L 247.74563915197433,1018.9314340702322 L 245.24607651279996,1018.7593609807822 L 243.1603488055823,1020.3079644242777 L 242.20852859429107,1019.8003800965141 L 241.2153248999718,1019.5809964132766 L 222.26996441812793,1021.7532168722511 L 214.2250144432876,1021.7532168722511 L 212.45380124774806,1022.2177395899085 L 207.96783121993687,1024.4799797934693 L 206.8753071053288,1025.2970745631437 L 206.49457908183504,1026.2431416082034 L 206.52768588860027,1027.0601628752556 L 206.74287997998957,1027.8255519489787 L 206.8753071053288,1028.6382075431034 L 206.54423924112504,1029.5411188405485 L 205.1123705860572,1030.818022515644 L 204.78957939811627,1031.4628918634744 L 203.66394857845182,1032.5720176119494 L 201.0981723257547,1033.0878686849771 L 196.4466683658382,1033.3629837907874 L 190.3632957508488,1034.6439376991539 L 188.36861168594234,1034.802976512081 L 186.5311847751755,1035.421926094675 L 184.42890361372338,1036.6339793366426 L 182.32662245227723,1037.446271243712 L 180.48091896695044,1036.9047470588948 L 178.59383199859647,1038.12960193052 L 176.01977906963057,1040.2568009413608 L 173.7519639760791,1042.6200866921129 L 172.7835903105483,1044.574955207352 L 171.94764387207152,1045.7391917075129 L 170.04400344948309,1046.8904727354793 L 166.46847014993597,1048.5055901224298 L 163.14123785024452,1049.3431656925634 L 146.9023574227058,1049.6738909392197 L 138.31942216854284,1050.9409042625061 L 121.70809039377318,1056.2485976421794 L 113.06721820234263,1060.6920592165907 L 106.71704706019459,1046.4366274226902 L 100.34713516032062,1032.1321584437633 L 93.98773457828521,1017.8282047097779 L 87.63884551749497,1003.5028238302571 L 83.69706837791232,994.6432285492422 L 82.62490490725537,993.1826454850403 L 80.88001160326164,992.5589920687632 L 77.05385997688333,992.3401615420623 L 75.55072891542714,991.3882195862303 L 75.70840000507646,991.3335088865637 L 76.24448168955392,991.2623847656142 L 76.43368703782241,991.2076736022791 L 73.20668540973631,983.6286821424944 L 68.85496341671909,973.4018681736852 L 64.50324142370103,963.1640853831542 L 60.16728661084526,952.9262540132703 L 55.81556451613538,942.6828623825577 L 51.45333120527961,932.4338753070112 L 47.10160921227345,922.18474818063 L 42.75514287816658,911.9134781263872 L 38.39816522623902,901.6502366686218 L 34.04118757430551,891.3812601378789 L 29.70523265974602,881.0982578608365 L 25.342999247198435,870.8121926747795 L 20.99127725418037,860.5257882341544 L 16.650066680704583,850.2252355450543 L 12.298344687687367,839.9242744861738 L 7.946622694681212,829.6118396084107 L 3.5949007016648467,819.2989297447274 L 0.7194340492611372,812.5038835481059" fill="none" stroke="#000000" stroke-width="1.0606920592165907"/>
	<path d="M 392.3312670160051,970.9714412296188 L 391.95053889080333,969.9665967711303 L 391.87604860101607,969.7682091624661 L 391.87604860101607,969.7595835903836 L 392.42231065831794,968.9401342877242 L 393.61415509150004,968.3880643758183 L 395.05430042283666,968.0085070058323 L 397.098644748736,969.250666643224 L 397.89320770419073,969.5223781896159 L 397.8849309262199,969.526691135911 L 396.36201862883405,970.4409935404838 L 393.2996405798279,970.4237428963179 L 392.33954369226785,970.9671287167124 L 392.3312670160051,970.9714412296188" fill="none" stroke="#000000" stroke-width="1.0606920592165907"/>
	<path d="M 414.62041325176887,963.6689369388889 L 414.62041325176887,963.6775652770203 L 414.9100976329497,965.1486433716133 L 414.93492766174325,965.3082549677588 L 415.89502465100617,966.5937263395484 L 417.23584956205394,967.5038564889772 L 418.7091017001549,968.0085070058323 L 415.4811897190452,970.0528515895639 L 413.75963668279564,970.7126880904034 L 412.15395731765085,970.9714412296188 L 407.65143393730295,970.7601264186178 L 406.22784195849795,970.1822330841417 L 405.35051203699317,967.8963635691379 L 408.03216206250556,966.2572690979938 L 411.9222098737317,964.9545193368307 L 414.62041325176887,963.6689369388889" fill="none" stroke="#000000" stroke-width="1.0606920592165907"/>
	<path d="M 342.33673987029056,584.6421293368342 L 343.64413292841243,580.4529026372024 L 349.0049498748551,563.2176655682206 L 354.02940180292813,547.0863645668802 L 358.52828346604724,532.6185989625719 L 362.3334123550575,520.3812802116765 L 365.2660946429159,510.9367091091591 L 367.1476361974804,504.8585294484854 L 367.82036623423824,502.702450807226 L 368.32698800512856,501.06371411343997 L 370.7636419604176,500.62498669170395 L 442.10455282044114,484.79764804183907 L 609.5617581092182,568.2473383325115 L 641.8843307847349,584.788275095195 L 652.7582452141183,590.3487885702218 L 638.3448667061066,637.4031743455022 L 636.2869243694937,636.711885033924 L 633.323866740772,636.9624286060148 L 630.3277022035816,637.8942409716576 L 627.0666834157116,640.0038076912472 L 622.9283347063379,641.0892490957597 L 621.6371698528652,641.9856724407903 L 620.991587476985,642.9347729183442 L 619.2369276339755,648.0088870150845 L 619.170714020451,649.221169295355 L 619.8328498505673,650.3718757794253 L 620.1142575554794,651.355621707355 L 619.2783111170025,652.1724373238486 L 618.0285298482618,652.7389144480983 L 615.5289672090873,653.3141541945545 L 613.6667102695278,654.2274703245175 L 611.829283460463,655.430511136741 L 609.4207644636015,657.7046317174095 L 608.5434345420916,658.8196258179721 L 607.9061288424793,660.0398869614561 L 607.6578279443248,661.4575585866369 L 607.9806191322657,662.4801373757563 L 609.4207644636015,664.1038443849575 L 609.7435556515416,665.1394223683077 L 608.9986528553718,667.5174949723885 L 607.1860561768102,668.8818797549126 L 602.741469632021,670.6935732253473 L 601.0530233008219,671.776984954821 L 599.2238731680259,673.2506616487427 L 597.7671744841576,675.018023131338 L 597.1795289438354,676.98251098798 L 596.6249902102664,678.1926596238497 L 595.4662525838478,679.5780836213873 L 594.4730488895294,681.4368249350255 L 594.398558599743,684.0667633362254 L 596.327029051119,688.4403049373778 L 596.9395047219446,691.0559918990056 L 595.2841651975098,694.9765621765047 L 593.7115926391302,700.8535014946401 L 593.6536558035774,702.3771393877571 L 593.4467383884459,705.5596941620694 L 591.0796028746107,711.2578906415262 L 589.3828799688592,717.2953445744507 L 588.1993122119375,719.9721314090249 L 581.7765949547735,729.490530901013 L 580.7916679367179,732.3052372582022 L 581.2137795449477,735.6044924258953 L 581.9338522106168,736.8366325232876 L 582.8277355863544,737.8283967807832 L 583.5974684113135,738.8943695364275 L 583.9202595992535,740.3708936184123 L 583.9781964348064,743.638012505342 L 583.8126625027011,745.2101994764733 L 583.2995072521593,746.5988440513377 L 582.5546045577042,749.4107217401443 L 582.3394103646052,751.5673454043782 L 583.08431316077,753.6320361125489 L 588.0172248256002,761.7181649771983 L 588.7869577522673,763.5024478706255 L 589.4077099976469,766.4816570588978 L 589.3911566451212,769.3513304035109 L 588.9111082013446,772.0592012499391 L 587.197831841357,776.9898371392766 L 586.8005503636297,779.1953077036816 L 587.0405745855154,781.6532485685242 L 589.0931954859739,787.1257102790405 L 590.0781225040303,788.8202553944665 L 592.6356219787566,791.8299533615973 L 593.2646510021128,793.5545243539476 L 592.3624910518154,798.0219380317501 L 592.2631706315308,800.198626480813 L 596.1118349597298,807.1317516814744 L 596.1366650902262,808.6981801341484 L 593.6536558035774,811.2172262174225 L 592.1721269892137,812.4048378723415 L 591.7665688352234,812.557089903003 L 587.206108517619,813.218283760234 L 586.701229943346,813.7750593829912 L 586.2460116300599,814.4144595552499 L 585.136934162933,815.2756557363864 L 583.8623227636948,816.01068393117 L 582.8773957456443,816.3238227628563 L 561.6973269770091,815.2887039141568 L 555.9833763953927,816.1807748731584 L 467.699825884677,792.6219705818066 L 343.6862606911416,586.6530923908517 L 342.33673987029056,584.6421293368342" fill="none" stroke="#000000" stroke-width="1.0606920592165907"/>
	<path d="M 763.317676923334,418.8219374585505 L 765.6517055290942,420.8767399769018 L 767.9857342361693,422.2137694780203 L 768.5651031002355,422.7396349899251 L 768.6644234188146,423.88934390261056 L 768.0519478496938,424.1656174218747 L 767.1911712807146,423.93390447944836 L 766.5455889048386,423.55959154229333 L 766.5621422573643,425.1013443897712 L 767.307045053529,425.80087333526933 L 768.5319962934763,425.93899299380627 L 770.021801784097,425.80087333526933 L 777.8515575658391,423.09614334745584 L 780.5663143981108,424.2012652559876 L 784.6715563007253,427.2978443958421 L 785.292308647818,427.3557598664455 L 786.889711234992,427.13746178637456 L 787.4525266448178,427.2978443958421 L 787.7339343497366,427.80571123062435 L 787.9242984123375,428.97730303143044 L 788.1974294409894,429.5385654439532 L 788.1808759867548,429.85036887909024 L 788.0650023156433,430.3492406593718 L 788.1477692816985,430.9995308648833 L 788.8264584643388,431.7834046409893 L 789.3396137148806,432.0773467509116 L 789.9851960907624,432.31784046839164 L 790.6638852734036,432.46926055000256 L 791.292914296753,432.53160947945247 L 791.657088967722,431.98827400704323 L 790.9949531376074,430.8035559504942 L 789.5217009995098,429.12875692268165 L 789.9520892839981,427.6497890038094 L 791.0280599443649,427.62305939095137 L 793.0641274922925,427.2978443958421 L 795.7954376770966,428.03290918700486 L 797.9970392588308,430.86591192825983 L 799.4702913969335,434.53999847415406 L 800.0,437.825872763394 L 797.9970392588308,455.74306214325054 L 796.6644909223429,460.5535409945552 L 794.6284233744153,464.8470022181834 L 788.8264584643388,473.03054641574346 L 785.7971871203898,475.60198825136445 L 784.092187538368,477.44036950591294 L 783.3307312879688,479.362883730328 L 783.0576003610274,481.8933064540724 L 781.1953434214671,487.11264327076265 L 780.7235716539524,492.3789948496227 L 779.7303679596332,494.54801004483915 L 775.699616245097,496.2510707900874 L 774.4581116526241,498.15348555487896 L 772.7862187756637,502.130500766937 L 764.741268800831,513.0143773780082 L 761.6623373992941,522.8015440033147 L 759.7255901699465,527.3166145027304 L 750.207388158719,542.4546715691481 L 749.4459319083207,545.9429252742023 L 749.1148640441119,546.9021693341489 L 748.2954710598686,547.6624500580957 L 733.9685077311811,554.0305635126214 L 731.0137267787206,555.8022161930329 L 719.6332677262258,565.1034339425316 L 705.8856732616036,579.5699373073577 L 701.7059410691959,586.0618918046592 L 700.6713538918555,587.0407474170686 L 699.2808687198096,588.0327693862196 L 697.6834661326315,590.3207979922677 L 694.5631511463696,596.1385834750674 L 694.2155298279263,597.1344464026362 L 693.9589522535089,600.963094493902 L 693.6444377418376,602.0687821616743 L 693.0485155252456,603.0026103309201 L 687.1389535186175,607.8074420069364 L 687.5610651268473,610.0530205972151 L 685.8477887668597,611.5895200856079 L 681.5935662846655,613.7201248327822 L 681.709439955777,613.9226055619208 L 680.931430454556,615.9032619400331 L 680.8155566817424,615.9384714244183 L 680.1120373685997,616.6162386588906 L 679.6568190553187,617.1839568818583 L 679.4250715096957,617.7780591333949 L 679.6733724078495,618.7725812944211 L 680.3024014312006,619.7846427619859 L 681.1962848069389,620.6382452608435 L 682.2225952063138,621.1706240321989 L 683.728954151174,620.4622484514441 L 685.4339538348987,618.8605891491914 L 686.5761381087908,618.213720183245 L 686.4437109834516,620.3654494103698 L 685.4339538348987,621.7997762862874 L 683.579973673304,623.1899839028534 L 681.7425467625371,623.7178794712936 L 680.8155566817424,622.5828825610382 L 680.1865276583861,622.5828825610382 L 679.6154355722966,624.1049919581976 L 678.8457026456294,627.030031458887 L 678.03458633765,628.5561204349657 L 677.2317467059315,629.2861294444809 L 674.9887616411686,630.5789564045725 L 673.8796841740349,631.5682951061516 L 672.5885194222788,633.6567011476963 L 671.4711652788831,636.4085903103862 L 670.701432352216,639.4149144836459 L 670.4200246473022,642.2624991530234 L 667.8376950420735,647.4290680328832 L 666.430656517502,651.2106986087414 L 666.5548069665793,652.949691648526 L 665.9837148804838,653.7664276379534 L 665.4374528231837,657.3622167486216 L 665.1394916640295,658.1787329474611 L 664.3118220035192,658.3499328067098 L 662.954443536529,658.8284050843517 L 661.580511818716,659.539503059964 L 660.6204149311619,660.3822460885831 L 659.9417257485165,663.2788456980242 L 657.7401241667807,664.4548950549148 L 654.8763868566382,664.3495806833762 L 652.2278436378859,663.3929437515665 L 650.2910965102462,662.4318625686917 L 648.9254413669888,661.9798277759398 L 645.5982090673034,661.8569423816532 L 644.3153208901005,662.0632137665162 L 641.8985252169701,663.076978005341 L 640.4252730788743,663.3929437515665 L 640.7397875905516,662.4318625686917 L 641.3357098071435,661.9359402482792 L 640.8391080108353,661.628724273857 L 637.230467904528,660.6148707161418 L 635.210953709126,660.3822460885831 L 633.0341822578876,659.4824408092092 L 632.7941580360009,657.3622167486216 L 634.1018762419932,652.949691648526 L 634.0853228894675,654.3065049233186 L 634.4991577197197,655.5095399343063 L 635.2606138684168,656.5588304736453 L 636.2620943407061,657.4412362384168 L 636.6510990404627,655.263671336928 L 635.616511863117,650.4070106004515 L 636.6097155574355,648.1933705093433 L 637.9588172464591,646.0497189841346 L 639.0016811000685,642.9303789654675 L 639.2665354524506,639.7401268276757 L 638.3448667061066,637.4031743455022 L 652.7582452141183,590.3487885702218 L 641.8843307847349,584.788275095195 L 630.5004784168805,552.0482403180542 L 620.7744179154668,517.990750598525 L 646.9905734977749,508.49369910264426 L 672.7571340639739,499.15381610566124 L 696.631949135976,490.4945852476197 L 719.3325736593835,482.2566818697211 L 741.3826167101862,470.2897823715004 L 753.9190469749211,463.56274080105646 L 758.8780225545154,450.45280935640375 L 759.8499894950497,435.8193840420866 L 757.9060555225109,430.0666325238461 L 757.7783830550654,424.6860580772432 L 763.317676923334,418.8219374585505" fill="none" stroke="#000000" stroke-width="1.0606920592165907"/>
	<path d="M 704.5696783793452,635.5909850324747 L 704.7848724707336,637.8942409716576 L 705.3890714652963,639.71815317564 L 708.5176630261165,645.3995395972998 L 709.4198230781245,647.0512961227694 L 709.0225416003963,648.2372948490121 L 708.1203815483899,649.1025804132832 L 704.2220570609019,651.9967814164444 L 700.1002617040529,654.2977233440378 L 698.2462815424632,655.9661432458106 L 695.8129324151053,659.6667951417012 L 694.6045346293917,662.1948749787722 L 693.4209668724715,667.3771016288414 L 692.5022534679395,669.2108945879295 L 692.5022534679395,669.2196682039513 L 692.5022534679395,670.4216126121545 L 692.5188069221731,670.5181152643786 L 692.6760641780147,671.509428391697 L 692.6843408542784,672.2287510432072 L 692.25395256979,672.9831289605671 L 688.8273998498175,676.3774033759236 L 686.9899729390447,678.9073073585683 L 686.062982858249,679.9200375209631 L 685.1525461299807,680.2488327252853 L 683.8613813782229,680.4285713054433 L 682.7026436500955,680.7179025466539 L 682.2225952063138,681.3929891005143 L 681.8749739895852,682.532683245775 L 681.005920744344,683.7599587065035 L 679.8885666009467,684.6365283188859 L 678.7463823270555,684.732948236821 L 678.729828872821,684.732948236821 L 678.2001202697485,683.7424267774479 L 677.7531786327371,682.9271745826287 L 677.2317467059315,679.5649314405259 L 677.1324262856419,676.1976208120177 L 677.3558971550088,674.368989305688 L 677.3227903482436,674.241810658429 L 677.0744894500899,673.25504738382 L 677.7862854394946,664.7269542599538 L 678.3242707188257,663.353448365204 L 679.4250715096957,661.8569423816532 L 679.9878869195225,661.3039467925825 L 681.8004836997989,659.9257657386669 L 682.5702165247511,659.644848357241 L 682.7688572636148,659.4341571947958 L 682.9674980024785,659.2190738560892 L 683.4144396394959,657.2217366679988 L 683.6627406393592,656.6378538334153 L 685.3842936756088,656.0012659594886 L 687.0727399050999,655.9310203490032 L 688.8025697193202,655.6632058542086 L 690.5986130453571,654.4250561067381 L 691.4345594838338,653.2834166766308 L 691.8070109327736,652.7652617869958 L 692.1877389562674,651.4258870490189 L 692.25395256979,651.1843487674945 L 692.6843408542784,647.0512961227694 L 693.3133698776287,645.0568670565696 L 694.2569133109533,643.4312709529796 L 699.1401648164988,636.9624286060148 L 701.0189752102937,633.0455953552384 L 702.1611593824769,629.4884153115757 L 703.0467660819526,628.2174906213056 L 704.5696783793452,627.8172825672773 L 705.7946296192865,629.6027497039661 L 705.7946296192865,629.615942044567 L 705.6622023922376,631.4627685680105 L 704.9669598570717,633.4412780203862 L 704.5696783793452,635.5909850324747" fill="none" stroke="#000000" stroke-width="1.0606920592165907"/>
	<path d="M 740.4576186832336,389.03922900896964 L 743.2053020374888,396.0574714749152 L 743.5777534864294,397.63779411598045 L 744.3640397656162,399.76248137396647 L 746.2097432509473,401.2129853178563 L 749.884596970779,403.221140676108 L 753.9319019361319,409.6855521598555 L 754.5029941239353,411.45173357344936 L 755.8686491654796,413.12406028587765 L 760.1228716476746,417.1502513180266 L 763.317676923334,418.8219374585505 L 757.7783830550654,424.6860580772432 L 757.9060555225109,430.0666325238461 L 759.8499894950497,435.8193840420866 L 758.8780225545154,450.45280935640375 L 753.9190469749211,463.56274080105646 L 741.3826167101862,470.2897823715004 L 719.3325736593835,482.2566818697211 L 696.631949135976,490.4945852476197 L 672.7571340639739,499.15381610566124 L 646.9905734977749,508.49369910264426 L 620.7744179154668,517.990750598525 L 595.5500541563498,429.3100094697708 L 605.5674238792647,408.3808512789943 L 628.8817219473467,390.0145251487374 L 635.1360082861366,389.2714552456723 L 652.048860170075,378.3848674974473 L 667.427046767883,374.55831672591273 L 697.9311463218197,395.2234706031995 L 731.3679280006037,399.63418291455184 L 738.0847163968941,392.22082462587804 L 740.4497826679188,389.0502287636464 L 740.4576186832336,389.03922900896964" fill="none" stroke="#000000" stroke-width="1.0606920592165907"/>
	<path d="M 625.7837953402167,298.429365526515 L 632.0492552398362,301.07642853103437 L 633.7873617303202,301.4494047426706 L 635.525468220805,302.20431467440767 L 639.2665354524506,305.99174176110995 L 641.1205157157491,307.4740910865362 L 644.662942208537,308.63291163542357 L 649.3723831057142,309.2257601650019 L 654.2970179925787,309.1539011095331 L 658.4684735087178,308.29605486284527 L 660.6949052209483,307.46061580079265 L 661.5887884949848,306.73293569919184 L 662.3254146148807,304.69792944254624 L 663.2027445363915,304.6619886303886 L 665.1394916640295,305.2100775128422 L 669.4930345665082,305.2999261462848 L 671.8105098193488,305.75814547428087 L 673.8796841740349,306.7913311173667 L 674.7735675497793,308.17478446879653 L 676.8096350977019,312.5668112479796 L 677.7035184734463,313.5007291176929 L 678.2166737239829,313.71175009559187 L 678.6636153610002,314.19214828312573 L 679.0691735149956,314.7219143903008 L 679.4250715096957,315.0810666993997 L 679.6568190553187,315.0092370237452 L 680.2196344651504,314.9239387267187 L 680.9479838070816,314.9194492298819 L 681.5935662846655,315.0810666993997 L 683.0419882922718,316.30211744695885 L 683.8365512477264,317.2357918546682 L 684.2917695610058,318.0975912861875 L 685.053225811405,318.0975912861875 L 685.6822547330532,316.58940830310416 L 685.922279056647,317.1864163770158 L 686.1291964717735,317.5499956385142 L 686.3195605343752,317.99435766864883 L 686.4437109834516,318.8426470715355 L 687.1389535186175,318.8426470715355 L 687.2548272914329,318.3713813837991 L 687.759705865711,317.33454241044456 L 688.3059679230121,317.8193075960038 L 688.6287591109522,317.9539616791019 L 689.9033705101843,317.33454241044456 L 692.3532728883658,320.63780311443594 L 693.0485155252456,322.4506830595968 L 692.6843408542784,324.11079335952905 L 693.4954571622579,325.6361310774833 L 694.5383210158672,330.6685992247581 L 695.8543159998353,332.8030548897712 L 701.8135381657484,338.36640164807307 L 705.4801151076084,340.03812516545446 L 706.9285371152079,342.01884500918646 L 708.6666436056961,346.75444536006097 L 709.6515706237474,348.47894855558786 L 712.7305020252843,351.4437191496459 L 714.2782444531666,353.6557065160199 L 715.1307443458821,360.1553906759725 L 721.603121762337,366.7595372888924 L 722.0252332688536,367.6497052480213 L 722.6128788091819,370.9236253629849 L 723.0432670936744,371.68832900529145 L 723.5150388611881,372.21152422768375 L 726.3539460408342,374.5053134991095 L 731.7669061494462,377.6704211796707 L 735.2100123236481,380.2627970023386 L 737.7261283153592,383.26580499152044 L 739.5304484193668,386.6702593252339 L 740.4576186832336,389.03922900896964 L 740.4497826679188,389.0502287636464 L 738.0847163968941,392.22082462587804 L 731.3679280006037,399.63418291455184 L 697.9311463218197,395.2234706031995 L 667.427046767883,374.55831672591273 L 672.1676907993148,349.5788056912119 L 646.4673036643641,323.2257539841957 L 624.477442923914,326.1742899386108 L 624.4353972407469,326.14295606731014 L 621.8390800324404,315.26310855942563 L 625.0871044609046,299.52714732855424 L 624.8978991153181,299.48148585263476 L 624.9189219111696,299.21607540416164 L 625.7837953402167,298.429365526515" fill="none" stroke="#000000" stroke-width="1.0606920592165907"/>
	<path d="M 564.871286018388,285.58088962587175 L 570.3381990667258,288.0295979239714 L 576.3139746868715,289.909583167373 L 580.5433670385693,290.6920873759067 L 582.8773957456443,290.8180035793605 L 589.7553313160902,290.4042747048614 L 591.6258649319126,290.8180035793605 L 594.539262401345,294.6399286811881 L 595.6152330617127,295.4761189751174 L 598.081688894133,296.1369442035202 L 600.9785330110356,297.5978435987043 L 603.5277559112078,297.930458238219 L 616.787025154086,297.18880682132817 L 621.2233350226131,297.4585027639588 L 625.7837953402167,298.429365526515 L 624.9189219111696,299.21607540416164 L 624.8978991153181,299.48148585263476 L 625.0871044609046,299.52714732855424 L 621.8390800324404,315.26310855942563 L 624.4353972407469,326.14295606731014 L 602.266842552642,344.4417660775517 L 599.1975119803675,351.2424070721025 L 573.1187142457089,355.4872818593464 L 569.2294941779412,353.58818765434046 L 557.4882540062354,352.2404764130865 L 527.3415421646849,321.53612714119964 L 539.868517540266,317.453414958356 L 553.0574299141173,306.2368571496179 L 564.871286018388,285.58088962587175" fill="none" stroke="#000000" stroke-width="1.0606920592165907"/>
	<path d="M 620.7744179154668,517.990750598525 L 630.5004784168805,552.0482403180542 L 641.8843307847349,584.788275095195 L 609.5617581092182,568.2473383325115 L 442.10455282044114,484.79764804183907 L 462.25491764345804,458.76050480564606 L 478.43197121530227,410.20490259491 L 497.95165170547796,322.99782272635923 L 527.3415421646849,321.53612714119964 L 557.4882540062354,352.2404764130865 L 569.2294941779412,353.58818765434046 L 573.1187142457089,355.4872818593464 L 599.1975119803675,351.2424070721025 L 602.266842552642,344.4417660775517 L 624.4353972407469,326.14295606731014 L 624.477442923914,326.1742899386108 L 646.4673036643641,323.2257539841957 L 672.1676907993148,349.5788056912119 L 667.427046767883,374.55831672591273 L 652.048860170075,378.3848674974473 L 635.1360082861366,389.2714552456723 L 628.8817219473467,390.0145251487374 L 605.5674238792647,408.3808512789943 L 595.5500541563498,429.3100094697708 L 620.7744179154668,517.990750598525" fill="none" stroke="#000000" stroke-width="1.0606920592165907"/>
</svg>
