<?xml version="1.0" ?>
<svg xmlns="http://www.w3.org/2000/svg" xmlns:ev="http://www.w3.org/2001/xml-events" xmlns:xlink="http://www.w3.org/1999/xlink" baseProfile="full" height="600px" version="1.1" viewBox="184.64108670226014 -62.7172012205231 671.58429257637 749.486155879087" width="538px">
	<defs/>
	<path d="M 698.5942173722395,227.870264490684 L 700.3321490334828,228.2689490475186 L 701.2011148641006,229.15692240678226 L 701.4726666583529,230.51605042226788 L 701.5993907400216,232.30101071783668 L 700.6942180924907,233.4154625474472 L 698.5942173722395,236.9852504240776 L 700.4769767460625,239.9025986529566 L 699.6080109154371,240.69987181337652 L 697.4718031557962,240.80859034860316 L 695.5528369650602,241.5514977299919 L 692.3304220283658,246.06318478297564 L 690.3390419813305,247.9565845172029 L 689.4700761507089,246.8694693324849 L 690.6286971840318,242.57525119388515 L 698.5942173722395,227.870264490684" fill="none" stroke="#000000" stroke-width="0.6240517534380409"/>
	<path d="M 741.3907844191451,178.9287889762636 L 738.1321626655339,179.87159310092463 L 738.512335133002,181.73904368752645 L 740.3045772420879,183.9146697892062 L 741.3907844191451,185.76391422379982 L 740.1597495294858,187.28679558323083 L 737.4442313644051,187.93945168677686 L 732.9545744987136,188.04822747121366 L 730.8545737784624,189.24475120738916 L 725.6045719777937,194.46577742832227 L 722.2735361454623,195.66222399456134 L 719.3769834508627,195.13651443177923 L 717.2226722827652,193.68626664023395 L 715.8649133114633,191.51085535481548 L 715.4304303961487,188.80965327905054 L 715.593361517185,184.82116664184232 L 716.2450857789277,184.0687748701789 L 723.3054330971164,191.47459818885736 L 724.7356061471721,191.25705446920523 L 727.5597449854725,189.5710734551145 L 735.380437461067,182.57303945655133 L 736.9373345928175,180.45177559687906 L 737.10026571385,177.82279568238155 L 736.3942310042944,175.3659957769264 L 736.3218171479915,173.9245235620149 L 738.1864731133394,174.35968718638603 L 739.3813009636236,175.06682415644286 L 740.3045772420879,175.93713935100917 L 741.0106119516547,177.17007264363633 L 741.3907844191451,178.9287889762636" fill="none" stroke="#000000" stroke-width="0.6240517534380409"/>
	<path d="M 743.0563024465363,163.72482237931308 L 746.8942348280306,164.75844059472774 L 752.0718227723964,167.10670790640017 L 755.5114792779773,170.62446988249798 L 754.370961653081,175.12121894279412 L 752.0718227723964,175.73769264217742 L 750.152856581638,173.34430254275452 L 748.6683733062166,170.11675964032816 L 747.4735452334963,168.140290326927 L 744.4864752741411,167.20643998470214 L 742.314060697587,167.88642897868883 L 738.1864731133394,171.3316337872989 L 737.8063004234391,168.02242629903668 L 738.2045765218145,165.30244571356096 L 739.833887287391,163.67948811360293 L 743.0563024465363,163.72482237931308" fill="none" stroke="#000000" stroke-width="0.6240517534380409"/>
	<path d="M 755.7287206243905,129.49132284719494 L 751.9994089160972,126.91538229395601 L 753.7192371688839,125.30991953214254 L 756.70630735069,121.11019102818196 L 759.3856184763846,119.29599603282622 L 759.7476877578731,119.44113297868162 L 759.9287222873659,118.20746231326387 L 759.9106188789057,115.15950176385682 L 768.4127092547519,116.17585495366676 L 771.3215024305732,113.05247998634376 L 774.230295606387,116.59229727661847 L 776.1002340622725,116.800517551683 L 773.3992118704448,123.67153569987049 L 770.490418694631,130.33386741731545 L 767.3738547348853,138.86930188447607 L 759.2707881594206,127.8355475368351 L 755.7287206243905,129.49132284719494" fill="none" stroke="#000000" stroke-width="0.6240517534380409"/>
	<path d="M 746.6588898318793,139.7853222307086 L 747.944235188171,137.50894699592732 L 749.7183736663272,135.6769246030492 L 751.9994089160972,134.53416026139107 L 752.8683747467226,137.4182536497487 L 754.8597547937837,137.79916508335546 L 756.9597557364895,136.20295440839894 L 758.064066321992,133.14649947696267 L 757.4666522856486,131.30532378084789 L 755.7287206243905,129.49132284719494 L 759.2707881594206,127.8355475368351 L 767.3738547348853,138.86930188447607 L 764.0495195910731,148.23658900454222 L 760.5174136633105,146.15504826366018 L 758.8552461914223,141.78366664174996 L 754.4920565277213,139.70198651486672 L 746.6588898318793,139.7853222307086" fill="none" stroke="#000000" stroke-width="0.6240517534380409"/>
	<path d="M 751.7689312732666,154.43726124054265 L 750.7321672095546,150.0147423071129 L 749.2657873425636,146.84990450870964 L 747.4735452334963,145.43521579459357 L 746.2063035269315,145.52590158508767 L 745.6269928990372,145.1631579115385 L 745.9528551411321,142.27929687305772 L 746.6588898318793,139.7853222307086 L 754.4920565277213,139.70198651486672 L 758.8552461914223,141.78366664174996 L 760.5174136633105,146.15504826366018 L 764.0495195910731,148.23658900454222 L 761.1407264152518,152.60767850054842 L 756.1542239996021,155.93789995604158 L 751.7689312732666,154.43726124054265" fill="none" stroke="#000000" stroke-width="0.6240517534380409"/>
	<path d="M 770.3925190653359,150.65857912599833 L 771.9132093865793,159.0190010178506 L 770.827001987075,162.06557028649286 L 769.8132084438514,162.74559509937896 L 768.7088978583414,162.3647818957847 L 766.1020003664728,162.14717352353793 L 764.0201030546782,160.8687151038852 L 762.6261370439864,160.67830501912815 L 761.5942400923323,161.48527865422463 L 759.2588943947159,164.60430519289446 L 758.064066321992,165.23897876190856 L 755.656306990557,164.8219080816858 L 754.7149273036288,164.05122936164338 L 754.3890650615339,162.71839426927139 L 752.4157884229516,157.19645412912797 L 751.7689312732666,154.43726124054265 L 756.1542239996021,155.93789995604158 L 761.1407264152518,152.60767850054842 L 764.0495195910731,148.23658900454222 L 770.3925190653359,150.65857912599833" fill="none" stroke="#000000" stroke-width="0.6240517534380409"/>
	<path d="M 777.9437825563276,135.52984345590724 L 776.7649350888205,139.14141280315246 L 771.5873471444845,145.87957537569085 L 770.3925190653359,150.65857912599833 L 764.0495195910731,148.23658900454222 L 767.3738547348853,138.86930188447607 L 770.490418694631,130.33386741731545 L 772.7758991185035,133.4566756106187 L 773.8147536383963,135.746670064977 L 775.8924630782753,134.91395112158344 L 777.9437825563276,135.52984345590724" fill="none" stroke="#000000" stroke-width="0.6240517534380409"/>
	<path d="M 777.3985561645612,126.28045677574104 L 777.199418004135,127.7498495840784 L 779.6795914143312,130.96973617723233 L 779.6795914143312,132.37556810530697 L 778.6476944626733,133.373242895285 L 777.9437825563276,135.52984345590724 L 775.8924630782753,134.91395112158344 L 773.8147536383963,135.746670064977 L 772.7758991185035,133.4566756106187 L 770.490418694631,130.33386741731545 L 773.3992118704448,123.67153569987049 L 777.3985561645612,126.28045677574104" fill="none" stroke="#000000" stroke-width="0.6240517534380409"/>
	<path d="M 784.6218346038123,112.78275026799167 L 781.7614887261258,120.27566555654153 L 777.3985561645612,126.28045677574104 L 773.3992118704448,123.67153569987049 L 776.1002340622725,116.800517551683 L 776.9313177982148,110.76193930532473 L 784.6218346038123,112.78275026799167" fill="none" stroke="#000000" stroke-width="0.6240517534380409"/>
	<path d="M 785.0563174324774,91.60705858378552 L 785.7623522286824,102.18642778061036 L 784.6218346038123,112.78275026799167 L 776.9313177982148,110.76193930532473 L 776.7769259194287,105.01296271385063 L 779.462350067903,104.245909129896 L 780.7839022222882,100.53518113093857 L 779.4893471091635,92.04095790046965 L 785.0563174324774,91.60705858378552" fill="none" stroke="#000000" stroke-width="0.6240517534380409"/>
	<path d="M 779.4893471091635,92.04095790046965 L 779.0097635216849,88.89397447635204 L 776.9459698407939,84.48391006567368 L 776.4390730691802,81.87044002458158 L 777.3080388998018,80.89036986957055 L 779.299418946863,81.31688319979655 L 781.3089024023622,82.5873366365896 L 782.3951095794118,84.15723027087904 L 785.0563174324774,91.60705858378552 L 779.4893471091635,92.04095790046965" fill="none" stroke="#000000" stroke-width="0.6240517534380409"/>
	<path d="M 759.9106188789057,115.15950176385682 L 759.7476877578731,114.88735769087779 L 762.1011368639199,110.53294565168702 L 764.7985516205404,107.72968679218424 L 768.5821735542181,106.20555002413063 L 774.1580375969594,105.76100525895663 L 776.7769259194287,105.01296271385063 L 776.9313177982148,110.76193930532473 L 776.1002340622725,116.800517551683 L 774.230295606387,116.59229727661847 L 771.3215024305732,113.05247998634376 L 768.4127092547519,116.17585495366676 L 759.9106188789057,115.15950176385682" fill="none" stroke="#000000" stroke-width="0.6240517534380409"/>
	<path d="M 242.31474243940605,624.0517534380408 L 240.86646598089015,620.7466828946199 L 242.2785356224893,620.0513435569778 L 243.72681185855066,621.3607458127781 L 242.31474243940605,624.0517534380408" fill="none" stroke="#000000" stroke-width="0.6240517534380409"/>
	<path d="M 673.7200705262966,270.1855820101649 L 670.5157589980587,266.91584499400716 L 668.6148962157791,262.47753346644 L 669.2666204775219,259.09885472964993 L 673.756277343206,258.93580597958794 L 676.7252438940861,261.1912936092401 L 677.7390374373098,264.6876552883433 L 676.7614509334722,268.1204968920632 L 673.7200705262966,270.1855820101649" fill="none" stroke="#000000" stroke-width="0.6240517534380409"/>
	<path d="M 796.0699817048668,0.0 L 798.8665354959937,0.03385009655158099 L 800.0,3.0667663680963484 L 797.9455955864894,8.46889226201947 L 794.194367823233,10.350758941275247 L 792.2546592226371,7.995034681054401 L 792.3187539416105,4.705039688336812 L 796.0699817048668,0.0" fill="none" stroke="#000000" stroke-width="0.6240517534380409"/>
</svg>
