<?xml version="1.0" ?>
<svg xmlns="http://www.w3.org/2000/svg" xmlns:ev="http://www.w3.org/2001/xml-events" xmlns:xlink="http://www.w3.org/1999/xlink" baseProfile="full" height="600px" version="1.1" viewBox="-80.62182791241163 -163.21200000000002 959.3419349489395 1950.424" width="296px">
	<defs/>
	<path d="M 265.45360236185854,1624.0 L 210.13337145154597,1616.080846153667 L 163.77110971014332,1596.437094980428 L 119.8865849260926,1546.8189526287674 L 52.451175317646694,1435.5558839549958 L 69.7848253003169,1433.501657956537 L 93.87184568166026,1411.9713210486755 L 100.17499163286246,1386.121761839567 L 92.29605965488442,1289.909055020238 L 84.64223943950532,1264.363099420739 L 45.17254321747776,1190.8632479646435 L 42.09600749607888,1175.8368796040543 L 52.00095087028372,1147.4670289530313 L 54.17703677487638,1127.6577772303383 L 53.12651244970429,1109.4930544853532 L 47.42366637631121,1101.5837632216126 L 22.811384293472067,1086.505263361125 L 16.058013894914616,1052.1391245416585 L 14.707339630791703,1014.8776359370377 L 6.303145951248469,990.9237127761886 L 12.906440919305808,972.6149659524708 L 11.480729400934393,951.3337809224003 L 7.42870753066905,928.8112740067269 L 6.303145951248469,906.6559547362135 L 13.656815305565624,851.6834445633816 L 13.056516349813636,830.4636788922058 L 0.0,754.1822467160357 L 10.580280506277857,710.4236783394914 L 11.855916594087445,690.41920945868 L 0.0,677.9354046087606 L 24.912432943854796,645.0662334025642 L 42.512153658881815,642.1685832946077 L 53.015500948602146,655.0304861200436 L 55.93309741796976,673.6778102457965 L 64.10236753218211,681.3931018707913 L 64.08197922697781,701.1658229832553 L 88.69426223192806,705.7121800643753 L 74.06195985539257,664.6234348977117 L 70.91038687973749,647.0923908437718 L 69.7848253003169,628.731679217868 L 71.58572401179508,617.316853807825 L 74.88737149585461,605.3218507836685 L 75.4876713737177,592.7464953967192 L 69.7848253003169,580.1698272550691 L 62.28108051549963,575.2049903720537 L 42.02097024187667,571.3157252221457 L 31.365652481458305,566.2677690333938 L 41.87089573347995,553.3572754481039 L 54.026961344368544,549.9639024935428 L 66.85836500947214,548.3913325144307 L 79.23954330507078,541.6042103749089 L 82.24104177227515,535.8100236946063 L 88.09396235406496,520.2057156267144 L 91.84583428542575,517.0183794309621 L 97.92386755192561,519.212268750057 L 103.77678905581881,528.7738488555868 L 110.6051957865291,530.9261348266893 L 115.40759296514993,538.5829910598253 L 113.68173150792796,555.7160267840827 L 107.60369824138182,583.2727451381478 L 107.60369824138182,604.4118365700889 L 108.50414805819575,612.0226551359854 L 115.93285466670741,631.2957299090972 L 120.36006465223691,636.8372026066007 L 126.96335962034054,642.5851780560481 L 136.1929658624415,639.814605623249 L 138.06890182812188,637.1266757966845 L 137.46860195025877,632.1641862943193 L 141.22047388167357,608.3827585179827 L 141.82077375947497,584.0588051974138 L 145.8727956297943,573.2189984543941 L 156.37803888181594,562.4195936734014 L 162.75622116516323,565.6471035230394 L 170.33500320423673,572.5983688116083 L 183.09136961509182,573.2189984543941 L 188.9442901968816,566.143635577447 L 201.85073111614113,536.4722310073691 L 208.90425053155374,523.9724579552445 L 183.39151955399637,533.8233808723356 L 159.82976087426448,538.044956967158 L 140.32002498695533,530.098336389873 L 126.96335962034054,503.1090127709946 L 125.91283529512218,488.61837398931857 L 132.66620569368735,440.57973322795385 L 134.9173288525208,436.0233452346426 L 143.84678515570948,428.52563751329467 L 145.8727956297943,423.2645348940083 L 144.74723405037372,419.0389143310114 L 140.01987504799678,412.9073573347619 L 138.96935072283242,408.6399390450309 L 138.96935072283242,378.0177830735269 L 151.7257171336875,381.16737902808416 L 156.07788894290368,373.08601261834303 L 159.15442374219916,362.10276557911914 L 167.7086928522965,356.548588310935 L 174.01183880349097,360.030341820516 L 179.41453493793324,368.900063665749 L 182.79121967618727,380.5871960020342 L 183.09136961509182,392.52181132391024 L 326.1463947785324,392.6027518841953 L 326.1463947785324,436.21758850837256 L 426.58241452129545,436.21758850837256 L 433.3533820232711,489.77978926241536 L 457.717167760106,551.6562558435697 L 494.64497126402927,605.6978491382913 L 494.35907880684766,686.17672038163 L 510.2094646541731,789.9729718519397 L 582.4616702984133,795.5053168885466 L 639.9737456486179,815.0150907229591 L 700.9641821306246,916.0276914694587 L 714.115244284475,928.1047991768453 L 730.5540725986835,958.5673254017439 L 707.5397136221932,981.8478244053952 L 684.7166138295952,997.2761761846948 L 647.0009590121833,961.5673815181407 L 625.4023020955458,980.0323641511575 L 655.2275808278519,1020.4003576811676 L 633.6841074435176,1039.9380600772267 L 619.2465271591294,1083.6642402462533 L 601.6641273575748,1117.906826044927 L 535.5276233285349,1088.530463242061 L 536.6078234763753,1169.7963038779787 L 433.41423996965085,1169.7963038779787 L 433.341252890513,1538.921783035319 L 425.6123957868833,1549.5532933777345 L 427.71344443732005,1556.120569148766 L 428.08589403388646,1557.4651420266407 L 365.56368649317744,1607.4577755936034 L 317.62901530926734,1623.6874109348792 L 265.45360236185854,1624.0" fill="none" stroke="#000000" stroke-width="1.624"/>
	<path d="M 793.0707701827808,938.918041703275 L 796.2973804126382,956.9018923190379 L 798.0982791241163,1040.5991689574073 L 788.118299417805,1144.8314714971182 L 792.9957329285786,1156.855745486705 L 784.9667264422039,1165.5026127644448 L 770.7846485129696,1226.5898177217114 L 758.9287319189363,1245.848231276146 L 726.9627804817259,1281.7645416436308 L 717.2079125380675,1306.4843591259194 L 709.854242261647,1310.3502384011656 L 701.4500485821114,1313.1056323058615 L 695.3720153156193,1316.9301820084622 L 690.8697689979447,1325.7303082692356 L 666.8577858708575,1417.559706176494 L 665.5821488609369,1422.6547793340217 L 660.7047153501554,1433.501657956537 L 649.8993230812864,1441.5951118238415 L 644.8718141399509,1460.7790111801842 L 638.6437063650543,1503.0799295395625 L 626.4876398320623,1518.4771784909126 L 589.1940285925549,1540.6869222036619 L 581.3901347908362,1548.1577023176815 L 576.4376631037569,1571.5523050838356 L 564.806859194418,1587.2283381665027 L 552.1255300377652,1599.8662192754741 L 543.6462991040352,1613.8976925251652 L 532.9159440893606,1598.8814947539897 L 536.3676670038585,1584.6841938741202 L 544.6217852529479,1568.7205605510876 L 549.4241824315687,1548.1577023176815 L 542.2956248399123,1536.9513647081421 L 525.7123492434401,1534.9398641311968 L 493.2961724368252,1538.1418293868212 L 491.8704609185001,1520.4889449311813 L 486.01754033670255,1519.9962706672093 L 476.6378595861586,1526.8524821157514 L 464.33171854470817,1531.2862392873835 L 448.12363014139686,1533.0514867889974 L 433.341252890513,1538.921783035319 L 433.41423996965085,1169.7963038779787 L 536.6078234763753,1169.7963038779787 L 535.5276233285349,1088.530463242061 L 601.6641273575748,1117.906826044927 L 619.2465271591294,1083.6642402462533 L 633.6841074435176,1039.9380600772267 L 655.2275808278519,1020.4003576811676 L 669.0395003596597,1007.8727319033769 L 684.7166138295952,997.2761761846948 L 707.5397136221932,981.8478244053952 L 730.5540725986835,958.5673254017439 L 758.7621499380725,933.1605863431865 L 786.7796323059712,938.1637750250947 L 793.0707701827808,938.918041703275" fill="none" stroke="#000000" stroke-width="1.624"/>
	<path d="M 705.12688325927,791.5236057443959 L 701.6751612668138,844.913338600725 L 702.8007228462343,867.2037274100868 L 707.9783062959666,878.5537441713423 L 719.459035696901,883.5061461495719 L 773.6360715496739,892.0485670573921 L 782.0402661513051,901.0442835575506 L 789.8441599529775,921.0965637825086 L 793.0707701827808,938.918041703275 L 786.7796323059712,938.1637750250947 L 758.7621499380725,933.1605863431865 L 730.5540725986835,958.5673254017439 L 714.115244284475,928.1047991768453 L 700.9641821306246,916.0276914694587 L 639.9737456486179,815.0150907229591 L 705.12688325927,791.5236057443959" fill="none" stroke="#000000" stroke-width="1.624"/>
	<path d="M 684.7166138295952,997.2761761846948 L 669.0395003596597,1007.8727319033769 L 655.2275808278519,1020.4003576811676 L 625.4023020955458,980.0323641511575 L 647.0009590121833,961.5673815181407 L 684.7166138295952,997.2761761846948" fill="none" stroke="#000000" stroke-width="1.624"/>
	<path d="M 723.7361699053644,548.1430297762238 L 707.9783062959666,551.8675137021992 L 695.3720153156193,558.6954354216986 L 689.0688702864664,554.7228734858015 L 682.6906870810158,552.3641036802114 L 684.7917357314525,605.6527636155764 L 682.8407615894665,621.0805574705035 L 682.6906870810158,622.44538736005 L 677.5881408855321,631.3784401169761 L 669.9343206701607,640.9724646072602 L 664.7567372204747,650.8138156593035 L 666.932823125052,660.2409126709911 L 700.7747114500538,718.9782971396312 L 706.2524448386906,733.3172919859161 L 707.9783062959666,747.4893263332519 L 705.12688325927,791.5236057443959 L 639.9737456486179,815.0150907229591 L 606.2034953025274,747.6971294430389 L 603.80364517897,676.3231383030732 L 599.0103557013337,620.8372133107957 L 603.80364517897,559.9194424659848 L 647.0009590121833,512.2672770150019 L 699.7976758272702,533.4483505169711 L 723.7361699053644,548.1430297762238" fill="none" stroke="#000000" stroke-width="1.624"/>
	<path d="M 613.656236166951,212.3395600037579 L 620.8598310128715,213.58456161616093 L 660.7047153501554,210.3475300761604 L 683.2159487825655,212.5470606686848 L 701.6751612668138,218.43994353626806 L 717.8082114938272,227.40320514050822 L 733.1158510024203,238.85527655724493 L 745.4219920438707,251.4263904720057 L 755.4770099264799,267.1073029397497 L 762.0803048945373,284.98434179123024 L 777.9882433588901,396.0025165777893 L 777.7631315962911,409.8828919182432 L 775.061783067999,421.69030163735647 L 767.6330764594796,426.66149334991263 L 762.2303803250375,423.3059616981304 L 757.0527959532018,408.5985071619616 L 749.0237894668271,405.1596016650271 L 741.7451573667121,409.4271441330274 L 735.216899652857,419.4531973751073 L 731.7651767382973,431.13539056466 L 733.1158510024203,440.57973322795385 L 741.3699701735591,448.1595225592461 L 749.3239394057316,447.165479660953 L 755.4770099264799,441.20104593802444 L 758.85369466468,433.62081608233524 L 773.7111097259718,457.0641274112944 L 761.4800059387236,480.70988720861743 L 743.0207934545294,487.8730937108617 L 739.4189960315731,461.45406075174174 L 726.8877432275237,465.18123605271217 L 695.3720153156193,482.24193859620857 L 708.8037179364363,487.7902847313025 L 722.8357204351009,496.4021348075909 L 734.0913380734364,506.66930181737786 L 739.4189960315731,517.0183794309621 L 736.2674239780214,539.2037953043434 L 723.7361699053644,548.1430297762238 L 699.7976758272702,533.4483505169711 L 647.0009590121833,512.2672770150019 L 603.80364517897,559.9194424659848 L 599.0103557013337,620.8372133107957 L 508.0819267043325,620.5635711813824 L 494.64497126402927,605.6978491382913 L 457.717167760106,551.6562558435697 L 433.3533820232711,489.77978926241536 L 426.58241452129545,436.21758850837256 L 326.1463947785324,436.21758850837256 L 326.1463947785324,392.6027518841953 L 183.09136961509182,392.52181132391024 L 196.14788504280205,383.7781647287749 L 204.7021541528377,369.89475828652684 L 207.40350175903413,353.3154409178525 L 204.15304218011232,341.783925492382 L 204.32096410964232,341.7220210186829 L 325.420955386633,342.6837693161168 L 325.420955386633,236.5716482035945 L 455.0128968862884,236.5716482035945 L 454.99908524785064,266.09787154483945 L 503.728141041459,266.09787154483945 L 503.8716557065969,298.57482862454737 L 548.3964424620522,298.64344713632914 L 548.5833888258574,337.72069850053055 L 613.9575129689432,337.1152232640203 L 613.5286738685082,216.40630860514804 L 613.656236166951,212.3395600037579" fill="none" stroke="#000000" stroke-width="1.624"/>
	<path d="M 204.15304218011232,341.783925492382 L 202.60110550245497,336.277793524757 L 196.2979595512065,343.2423817321634 L 182.941294184584,328.69090499958185 L 184.59211838766544,306.96402865091744 L 208.6791387689548,248.68824120761406 L 212.5060479545101,228.8970154969557 L 215.05732105230211,182.4971120080782 L 222.7111412676272,188.22545117548512 L 225.56256430432376,191.17253326073512 L 228.2639119104662,197.10798240336004 L 233.96675798385925,197.10798240336004 L 254.82716813534532,135.99600225681263 L 273.2863796974438,109.3326712518169 L 299.62452323755895,98.24194824255831 L 313.58148848209083,95.12638915419365 L 352.3758484941102,79.67200365867079 L 360.4048549805389,73.85531358995163 L 365.3573266676182,58.23193036957156 L 386.89307395110785,36.28922267939311 L 391.9956201466456,20.951841358760547 L 408.8040075057166,27.145224062273094 L 427.71344443732005,21.20124498434306 L 461.2551828233556,0.0 L 534.566768292388,39.78038098854536 L 549.4241824315687,56.4035276807839 L 550.9249312041424,76.05738025136203 L 548.9739579842135,101.52358132393678 L 549.7243323705273,123.66184307969156 L 559.4041630599835,133.13060527035984 L 576.8878875511122,140.10710394271175 L 582.2905836855467,157.1728761560225 L 583.1910335023143,178.17991958078676 L 587.7683170741834,197.10798240336004 L 602.1004695118144,210.30602920365558 L 613.656236166951,212.3395600037579 L 613.5286738685082,216.40630860514804 L 613.9575129689432,337.1152232640203 L 548.5833888258574,337.72069850053055 L 548.3964424620522,298.64344713632914 L 503.8716557065969,298.57482862454737 L 503.728141041459,266.09787154483945 L 454.99908524785064,266.09787154483945 L 455.0128968862884,236.5716482035945 L 325.420955386633,236.5716482035945 L 325.420955386633,342.6837693161168 L 204.32096410964232,341.7220210186829 L 204.15304218011232,341.783925492382" fill="none" stroke="#000000" stroke-width="1.624"/>
	<path d="M 494.64497126402927,605.6978491382913 L 508.0819267043325,620.5635711813824 L 599.0103557013337,620.8372133107957 L 603.80364517897,676.3231383030732 L 606.2034953025274,747.6971294430389 L 639.9737456486179,815.0150907229591 L 582.4616702984133,795.5053168885466 L 510.2094646541731,789.9729718519397 L 494.35907880684766,686.17672038163 L 494.64497126402927,605.6978491382913" fill="none" stroke="#000000" stroke-width="1.624"/>
</svg>
