<?xml version="1.0" ?>
<svg xmlns="http://www.w3.org/2000/svg" xmlns:ev="http://www.w3.org/2001/xml-events" xmlns:xlink="http://www.w3.org/1999/xlink" baseProfile="full" height="520px" version="1.1" viewBox="-80.4 -69.63830585818461 960.8 831.6596702982151" width="600px">
	<defs/>
	<path d="M 613.752735981697,491.1196820147263 L 601.2928182617584,488.1646848988155 L 599.3790403267219,487.19318274686566 L 593.0472846213764,489.055230698223 L 589.1993687912297,492.61742677655053 L 587.5677420489612,494.74816843099995 L 585.758640342497,497.1106845054524 L 580.6891635498474,501.76590035212155 L 575.0292668269608,504.64001004309944 L 567.618465939707,507.02836646912385 L 560.0855092319107,508.5666355934294 L 553.7333947485204,508.8500014071355 L 548.8471520805222,507.75701986122994 L 536.5501097071884,501.80638071948965 L 531.9692573783091,501.3610972361392 L 530.5644630791248,503.99232231148704 L 530.360869782347,507.6760586291488 L 529.5464958073741,510.4287567564979 L 511.75243048182153,532.6127866480105 L 505.0338473550468,537.2278295681728 L 496.2386117346437,537.5112111098082 L 487.1990636853468,534.0296814247367 L 478.9738892170286,528.605018834578 L 472.4996185191675,522.978002648095 L 460.2840128341483,508.6071168624563 L 455.47920803645206,504.92337418393805 L 450.9797935778484,503.34463457254765 L 447.1929556579055,503.22319352608463 L 443.8743826356947,503.5470370300398 L 440.8204816084143,503.1017525068942 L 433.8809839719593,497.16901125233244 L 433.1960094714525,496.58341405657563 L 434.12639332744055,495.5177367256026 L 434.652098108631,494.39627930544214 L 435.10364174231114,493.4330285205569 L 436.0401715027528,485.92409699234304 L 437.4469525964195,478.58199335806626 L 437.5874817882511,477.84856710595164 L 437.7988635575608,477.2364726215215 L 442.49408301269426,463.6407770863367 L 444.672532973272,444.4142776282848 L 444.02103343949875,431.42157492243746 L 448.2557766887444,423.2861036772272 L 454.11926753232297,416.9113727871313 L 456.7252631872372,412.1556651097619 L 456.76598219597855,407.64283707072684 L 456.7863417003599,400.5397546186824 L 457.254606403413,396.75552455921854 L 459.04622861545994,395.2377922730054 L 462.8330663117,393.5784091788391 L 465.27618734889865,392.24281120167905 L 467.3324809918789,390.0977659054233 L 470.16242977760834,389.32878949899373 L 471.5875833911951,391.00839756332965 L 473.4199242576726,393.41651813628204 L 476.79957470099885,393.7807726018051 L 479.22233694244096,393.4772273162516 L 480.321741320618,393.1332095307406 L 481.64509847527967,392.8094280749621 L 483.98642305357134,392.36422863153035 L 486.57205955841664,391.7976121682058 L 488.852305977898,391.089342586403 L 492.3948313932539,390.3406006479345 L 495.57088856446205,390.0572934576357 L 496.71101195135896,390.0168210124906 L 498.0547286104004,389.77398604522114 L 499.011617520911,388.31697930336924 L 501.3733012492518,386.3136005053916 L 504.12181272612185,384.31022818171493 L 506.3816996412235,383.1365388825852 L 510.59608338611247,381.315300385226 L 515.3805290016028,379.6357185507502 L 520.2056932715022,380.9915247554907 L 524.3589988575776,386.41478154562094 L 527.026072671279,390.48225482013237 L 530.0188957204133,394.20573653536053 L 532.5841730752094,397.74711234286116 L 535.2512472432215,393.9831360914607 L 538.3662266099286,386.9004485851525 L 540.9722222648428,372.77578641393217 L 542.153064660481,358.6514402739801 L 542.3973762327206,354.1187652790685 L 544.5351071845586,351.69055956599095 L 550.2153639060633,349.3028327929646 L 555.5902301878934,346.75323568945504 L 557.4429302044416,343.45496260139083 L 557.5854456720865,335.76580107198583 L 556.7710718749069,329.35148993287044 L 554.4501071553074,327.0245463363381 L 552.0069857637978,324.05011850622896 L 552.271657549042,318.6476187824557 L 550.7650659179957,313.0023559625304 L 548.0776329542236,309.19840609206324 L 547.5686492424309,307.1143360843675 L 549.1363186779735,305.9812522862096 L 551.925548809274,303.0473824289043 L 555.3051992526035,300.7407631202419 L 557.544727017656,299.4053552060733 L 557.4225710543693,293.4365181013256 L 554.3686694921388,281.41806427981686 L 550.2968012149195,267.9835335150828 L 548.8920063970893,259.7691691497031 L 550.3985980281603,255.41923488763788 L 551.7219551828186,250.92770193914686 L 549.4009901089067,245.66738224396082 L 543.7818115461909,239.6180597717511 L 536.126698844876,230.1698837473221 L 528.9805695010432,220.94436731137316 L 523.8500155000957,215.5628663563098 L 519.9613809906181,208.60338593273414 L 516.9278389327656,200.63242819398744 L 515.2787325426744,191.87255747515894 L 517.355385335727,185.29765856772224 L 520.4907238525045,182.5058710774962 L 520.6535984701953,180.705375202914 L 518.4955083683114,179.55225080878418 L 514.6475925132842,179.55225080878418 L 509.94458420665,181.19090136981674 L 506.3816996412235,182.26310687112718 L 506.0966687059352,178.66212111340792 L 505.099061140994,172.63353810649505 L 503.42959489223375,168.9516729924712 L 500.02958494452287,161.58799011456307 L 496.5888559880723,155.21562384181544 L 492.1912381211111,148.62077883688133 L 487.2235583835667,140.3671778612652 L 484.6582813830813,138.32401908347344 L 482.479831776816,135.370549920682 L 481.2379115767014,131.38540428712182 L 479.0187433160055,129.64570192896008 L 477.878620283421,129.34226581945205 L 476.2196101505761,128.48754249629226 L 487.85056270773043,122.29656974065925 L 503.93444300100873,116.06608371420734 L 508.20990499074765,112.1012504625776 L 510.2458391402517,106.15403201182822 L 512.6482415391246,90.98272341041724 L 515.457830925483,85.6424789379474 L 518.5524510848546,83.82194757950582 L 521.6877895884429,83.29601702255255 L 524.8231284859808,83.05327957468795 L 527.7345141267332,82.20370014637507 L 533.8219577971361,78.60310933958897 L 551.3513515217328,62.05673853017852 L 556.5022653966911,55.50299239854011 L 560.7370082543157,48.42337374762311 L 561.4903043190849,45.83426801110043 L 562.3657558103085,40.211074750860355 L 563.5058789025096,37.8647151172947 L 564.850842623691,36.76428653004606 L 566.2747495507248,35.59926930573895 L 572.871176463009,32.64610568898844 L 575.2735788618818,30.663849310078106 L 577.3095130113859,24.717102428810648 L 579.8544307967669,8.535633831444086 L 583.173003818976,2.9530796523116383 L 589.1993687912297,0.8090624815351438 L 595.7143586212036,1.7799375561265438 L 602.4329413539577,3.7216908615303077 L 609.070087004451,4.571208783948879 L 615.2593273232224,3.033986154363077 L 620.4306003702643,0.7281561304574146 L 625.7851071480492,0.0 L 631.7793022733629,1.8527686564438148 L 636.0961984867473,3.187096595194464 L 632.9719551725149,6.432059920845083 L 629.9384133173164,10.720118934696742 L 628.6964935767487,15.12955470400553 L 629.9994912275646,19.33673858583479 L 635.7408254267343,23.26076059279831 L 637.0438234715247,28.600688936971856 L 636.209090718441,30.90657467887442 L 634.7228585489563,33.13155656203289 L 633.66417293304,35.477906101056504 L 634.3156715614476,37.82426063097115 L 637.7767599702112,40.13016599762509 L 640.912098473778,39.64471164690765 L 643.4773758252368,38.26925967151735 L 645.1061233812081,37.82426063097115 L 649.9516465230946,41.303347616995225 L 651.6211128172075,43.73062405716834 L 653.1684228969386,53.8443345033314 L 655.5708252957654,59.54850969748821 L 662.7373137541715,71.36151050049176 L 665.0582786767595,79.33131744992306 L 668.7229603822333,84.06468482314664 L 669.5169747911714,87.26073157662911 L 669.130147369719,88.47442298809518 L 668.234336312416,90.17359331609764 L 667.2978065169714,92.47961533444528 L 666.8906195294858,95.39249256571206 L 669.007991155319,101.66329978951347 L 674.0978267260779,105.46626111989183 L 685.7026521267891,110.2402120023041 L 689.8559579021264,113.15314354393917 L 695.7601670538854,118.73628690196036 L 699.3841300212391,120.92100404747474 L 725.4033694211404,130.5095476279756 L 733.139919425647,131.60191954116053 L 740.7950323478218,136.21417136082013 L 743.0345601880781,146.4502189243977 L 742.3016240833628,156.64592545602332 L 741.0800631208828,161.25830820293788 L 738.9830510611305,163.52404885733156 L 741.3243755497535,168.62198722288977 L 747.8393649857991,177.28046159058928 L 752.7256072597801,182.45940468315138 L 754.4765106362462,185.45349539660748 L 758.3040669003349,199.53396192559524 L 762.0909044263051,208.35460881928427 L 768.2597855730372,213.1695901332761 L 777.6250831335581,209.6089285456633 L 780.4957500361228,217.90367586643765 L 780.1700005249417,227.97887673501458 L 775.0801653481573,258.8527092576256 L 774.9580087397582,263.0610365043359 L 775.8538201910357,265.08427982743956 L 779.3556269439217,270.4256683256622 L 780.3328754775096,274.0270813095216 L 775.8131014528495,284.7909625022349 L 777.19753657997,288.91850889684264 L 780.3328754775096,304.6195939354536 L 778.1747851135577,311.2562419541626 L 774.1639947247946,317.12406342241553 L 771.9448264505962,323.1538089130929 L 774.9580087397582,330.1548564748691 L 768.5651755181603,335.13252392157494 L 766.1627731193321,337.6820758584092 L 764.2082764461127,340.8386771915473 L 776.0166951436249,342.7002698869724 L 777.19753657997,353.0605342311673 L 772.0059043608445,375.8456092048026 L 779.3759861160054,374.2672209121208 L 786.4813970581607,377.7882465459213 L 792.4874028583308,383.7780840058129 L 796.7017865438686,389.4441991581626 L 800.0,400.8170590441786 L 786.4406783200405,444.4082696250915 L 783.0203086494187,461.65137347961206 L 784.6897745496017,488.4480404732083 L 783.0203086494187,496.4225254004964 L 778.9484403504089,503.7494391716121 L 773.81788604153,507.43317383098895 L 767.2010995631235,510.34779473041266 L 761.1136562866933,513.8291685841141 L 755.6166337284473,515.1650503041781 L 752.7663259979447,516.7843057696494 L 749.1830813747351,517.7558614090541 L 745.9663053949082,516.9867129015888 L 725.4033694211404,506.906924594051 L 721.1686261695414,505.57106303213294 L 716.0787905987826,506.25923375022313 L 711.5590169680969,509.78106167287046 L 705.9398381954031,520.3062029591757 L 701.5218608191132,523.9900516627071 L 693.2763271787311,524.4353535759972 L 684.7254031992302,522.0064374605469 L 676.3373545663111,520.9539108102639 L 668.7229603822333,525.4069232227783 L 655.7744189864962,524.9211383719718 L 642.6630022442151,518.8083817247658 L 621.2653331233926,501.3610972361392 L 619.0054461110279,498.2846047553427 L 616.9695119615238,492.7793451522579 L 615.0964523706331,490.63392811110276 L 613.752735981697,491.1196820147263" fill="none" stroke="#000000" stroke-width="0.8"/>
	<path d="M 433.1960094714525,496.58341405657563 L 430.4982950804065,494.27709406443523 L 427.34259701076525,492.4959877324649 L 423.31144705592266,492.61742677655053 L 422.17132396372165,494.8033310479075 L 422.2120427018401,498.4465248129552 L 419.64676535040275,518.4845290078488 L 422.47671430284055,548.6036808567692 L 413.9461494954216,578.1982712532324 L 412.2933759406763,618.3704278612386 L 412.1138090366253,622.735170355352 L 409.99643701686375,631.3596068803781 L 406.2503182290566,639.9032175231333 L 401.44551343133725,648.0015695456038 L 396.19280290799077,655.0877428847197 L 388.13050339225697,663.2268519966856 L 380.7197028989314,667.5596704975462 L 372.7592000316335,669.057943894889 L 362.9663563115418,668.7744867290427 L 354.1711202971429,666.1423886969022 L 349.6513462724846,666.1828824467365 L 346.7196010656528,669.8273298579484 L 345.41660302086416,678.0476897285134 L 343.7064183825626,681.6922319151442 L 339.8788621184723,684.0004573605528 L 331.06326693196837,685.0938311522752 L 323.6321064785891,683.9599620277144 L 307.2437400241467,678.5808608379757 L 303.0284521606524,677.1973008383019 L 300.21886277433845,677.0353223503098 L 288.49188155313414,681.2467865082803 L 285.56013634630233,683.0285715481009 L 282.4247978427141,684.243428650322 L 278.3529291497547,684.0814476453753 L 269.720568087922,685.2153170747898 L 262.35048593878673,689.8723112538883 L 254.85824836312779,692.383058581846 L 245.6965440994079,687.2400914440481 L 231.43774050500113,684.5993775391796 L 223.83061008085141,683.1905521759269 L 216.76591866476167,684.0004573605528 L 199.76586774812398,691.3301626932741 L 190.07482067642042,692.2210742573776 L 186.59337309561948,684.7698681989203 L 186.12510819786092,679.8699571629365 L 182.46042649238714,671.730552909307 L 181.56461543506106,667.1952261769698 L 182.90833221801432,663.1053719300811 L 188.36463603812052,656.4644974507024 L 189.21972796328456,652.0103054035185 L 186.8173255644595,647.1512360728871 L 178.26640197893133,639.174372910755 L 178.1742695942535,638.8130619357951 L 185.62026005251408,634.9085647255424 L 187.59511638663494,634.3214464573098 L 191.19871960648865,632.4386216661335 L 196.75682036470837,622.5792211104607 L 198.05981836932085,608.4484417889682 L 193.4586068759242,601.7273563116262 L 191.48375089609272,598.7919713793117 L 190.95440767991693,596.0387987681173 L 191.4226727373055,592.4151610517814 L 192.1759683756733,588.5891145391624 L 190.54722113565106,586.139651243461 L 188.5927239515761,582.2934097174542 L 185.62026005251408,578.3864690445622 L 183.25857632417325,573.5078964464576 L 182.40348387256793,567.5565067722272 L 179.14598939252346,563.204344410014 L 173.85256006521564,560.7954894612975 L 166.52319659933036,558.5080998545266 L 161.75911084253383,555.9373289252073 L 161.392642598363,553.3058443708945 L 163.18426481040996,548.1643675654519 L 166.60463426250223,543.1848757739729 L 174.91124614327785,538.7721956467476 L 182.99390489323991,534.3595529035299 L 184.60229298321462,530.7970792374248 L 183.42145129620124,526.3845036197142 L 182.26096875923207,522.7006383106009 L 185.57954139808353,517.4177775900962 L 189.52925371204083,511.20390458630146 L 189.85500330175805,507.601105622784 L 187.16756998367688,502.13623223153337 L 184.5615739744733,495.6998961107856 L 185.62026005251408,490.3970601024095 L 189.61069137518632,485.66098266775543 L 195.5759786776933,482.62505678990743 L 201.41910966260122,481.7345217128742 L 205.85744653830207,483.07032486573746 L 210.86584457596297,480.82374887513674 L 218.19520804187133,475.3389031593258 L 226.15571082854507,474.04359682451934 L 232.97609058265738,473.881683875972 L 237.63837988052882,473.67929240402657 L 240.0407822633002,474.0233578794887 L 245.7821167893028,468.0933224888565 L 255.574960442454,460.4835389095775 L 260.82767111533457,457.56918096467854 L 265.1234921690566,453.80482393794443 L 270.1522497110989,450.6881172063664 L 272.43249613058356,448.3000025854292 L 274.06124301631314,445.9928503560599 L 276.17861517239305,446.7416618660276 L 278.6624545097082,447.6928561250626 L 281.55348145422647,446.5595183886904 L 284.7702576341726,445.62856393181534 L 287.4780501023029,444.11070653918233 L 291.69243384716714,441.5809528342099 L 294.9092100271133,439.88096538000053 L 294.7666945594683,434.51794044016964 L 293.3008219371402,429.11448961523763 L 292.14033940019743,426.6859886289035 L 292.56788580313406,422.6992210615593 L 296.17148937729854,416.1221248009347 L 298.41101714235106,410.6986048488008 L 298.4313762924233,407.78449490734346 L 299.8768897646808,405.31560724468466 L 300.85413817955134,403.41335635257803 L 302.78827515062176,400.6611740463362 L 305.51642747744256,396.492451022141 L 306.1475671525253,392.8499007035854 L 306.4733167422689,389.4502067070402 L 306.9212222952728,386.1719479924774 L 305.7607397583284,383.5412589589358 L 304.3763044448581,379.1500568271233 L 304.7631318390781,370.8736355913371 L 303.35833737556027,362.25332118811355 L 301.5870743135592,358.30744156287307 L 305.597864786302,358.30744156287307 L 311.5224334343801,358.5704997777761 L 316.08292627334623,357.1338001837996 L 319.6865298475124,353.9164142492666 L 320.6027001035925,349.80870653116494 L 318.8517969002654,346.61159199197846 L 317.345204914905,342.2408786725249 L 317.24340881031213,337.8904288651486 L 318.7703592371166,334.8552481918646 L 320.80629373002796,329.8371138412571 L 319.7068889975583,319.436745196371 L 317.8338298309643,309.8054175023108 L 317.95598579424933,305.070739203776 L 319.25898379886183,300.53842858281917 L 320.3380286726394,289.63267555373227 L 319.0146715179777,276.4812496093366 L 317.50808059555624,269.3795802161643 L 316.3679568543485,265.41400561510955 L 315.34998978502597,263.9977342739395 L 317.6913140090069,263.2895996318201 L 322.1907290434966,262.66239552666553 L 326.5883469104578,263.47169137176667 L 333.06261792476084,267.74074327245785 L 340.45305919514067,270.43167493161343 L 345.3800199239685,269.5212083433078 L 348.4135619818177,270.00679045190816 L 349.8183564453586,273.6284339648214 L 353.86986557250725,279.9005970863046 L 359.12257589107537,287.67006221528163 L 363.76450603889924,294.7921476970904 L 369.2615286383301,299.97189183951815 L 371.2363846181385,305.59681292255505 L 378.7082635516919,310.3314951969653 L 389.47835561973676,313.97358058504324 L 397.0723898079536,313.8926452056994 L 404.89037783560553,312.4762765653293 L 411.7718353941959,312.6381469975645 L 416.5359215053048,314.0545159740231 L 419.24371397343515,315.99696960469913 L 422.3790528445252,317.6156854391143 L 425.2904389390893,319.5783834493681 L 427.7742786307169,321.905300548873 L 430.991054810663,325.10229569482533 L 434.77789250688,329.1491465366005 L 438.6054488575489,331.7391442520157 L 441.7407873743265,332.3461762809047 L 442.7791139480073,333.03414653690277 L 442.5755206758645,333.54000774318934 L 443.36953496865783,334.8552481918646 L 444.5503766556729,338.19394762907234 L 445.6090623794243,341.1684394795992 L 446.4234361765793,342.4634606047825 L 447.5635595634762,344.00130131468075 L 448.74440125049125,346.4294783093666 L 449.9252432918171,349.38377248007936 L 451.06536632442464,352.216670001223 L 450.39350799489324,353.93664949024054 L 450.27135238591893,354.66511295363995 L 450.21027387281936,356.16251226451186 L 449.9252432918171,358.6514402739801 L 449.1719476534493,361.1201431680504 L 447.8282309944095,363.1436769070209 L 451.5539905318591,368.97149049279665 L 454.11926753232297,375.00171463669085 L 452.32764567458844,377.99661288892656 L 450.9432103611379,379.4940672050665 L 447.7467933312393,380.76892976779743 L 444.85576674103345,383.682911223956 L 444.10247110266897,387.4670605538429 L 446.5048734854371,392.22257473092446 L 449.88452428307573,394.3069181658104 L 451.5947091862896,394.549754569504 L 453.83423695134377,395.2782647095248 L 456.31807664297133,396.04724925909596 L 457.254606403413,396.75552455921854 L 456.7863417003599,400.5397546186824 L 456.76598219597855,407.64283707072684 L 456.7252631872372,412.1556651097619 L 454.11926753232297,416.9113727871313 L 448.2557766887444,423.2861036772272 L 444.02103343949875,431.42157492243746 L 444.672532973272,444.4142776282848 L 442.49408301269426,463.6407770863367 L 437.7988635575608,477.2364726215215 L 437.5874817882511,477.84856710595164 L 437.4469525964195,478.58199335806626 L 436.0401715027528,485.92409699234304 L 435.10364174231114,493.4330285205569 L 434.652098108631,494.39627930544214 L 434.12639332744055,495.5177367256026 L 433.1960094714525,496.58341405657563" fill="none" stroke="#000000" stroke-width="0.8"/>
	<path d="M 178.1742695942535,638.8130619357951 L 176.82088894158576,633.5056178082103 L 177.3298721834637,628.889682149352 L 177.0448414104027,627.0676144952706 L 172.2400366127032,623.5044801890183 L 165.03282981012993,619.4150061703192 L 156.70585829949047,617.431016748207 L 140.07227563217378,615.3660571332766 L 131.27703961777655,612.6937686584117 L 107.35481267160185,602.3286694915943 L 100.94161988395923,601.3974408607805 L 78.0169998555088,602.8955051116019 L 69.0792488485645,611.6005642816842 L 62.299587811586065,650.7955336198474 L 56.29358161745304,644.1143431438452 L 48.210922929660335,640.1461659778931 L 36.44322297030293,638.8909331866536 L 31.190512446943274,636.8258802231003 L 16.491067280795264,627.2700663739154 L 13.437165859543763,624.1523208847542 L 16.083880687284026,594.2310888221228 L 13.437165859543763,585.1214695890809 L 9.385656732617605,581.0323173604843 L 4.967679750298686,578.9270242631502 L 1.4658726034051857,576.5383370859296 L 0.0,571.5180825502746 L 1.4251538652504516,566.3764219587765 L 8.265893206451477,560.3036617036437 L 6.881457685378084,555.5264746430428 L 2.891026468655637,548.4417454562517 L 1.4251538652504516,540.6688972638525 L 0.6311394563487185,532.2889254667498 L 3.583244229225294,522.0064374605469 L 9.120985131615502,517.2700831720962 L 19.70784365460637,513.6267622573979 L 27.93301772891885,511.23837651429994 L 34.75339750408333,507.23077030788164 L 40.352216710696126,501.56349895217403 L 44.91270947351909,494.47949314551505 L 47.88517341845782,488.6504370097786 L 49.22888980742682,484.44060170497306 L 49.697154705159,481.04037342487817 L 53.748663832052195,477.2758596158423 L 57.08759602635807,476.1019841559779 L 68.42774982618089,476.46628977138397 L 85.95714355077918,471.85176588642497 L 99.51646562472287,461.20612265553876 L 109.37038725503969,445.94636589075486 L 115.55962717984812,427.4085299192781 L 117.83987375826904,411.0568619503584 L 117.0254997832533,396.97211844069125 L 106.5607978687175,335.49674508104164 L 105.70570594351392,321.17086670154856 L 107.66020261673651,307.1690301969098 L 115.0710031100307,289.9301658805239 L 129.77789484155971,266.55496348020466 L 139.86868233539593,250.51705423881882 L 148.17529388602776,234.8576033610095 L 152.93937994558243,227.9384137660983 L 171.9550058396422,212.2794233348249 L 175.94543666239028,207.14075257089348 L 186.73588848214914,185.04888811249097 L 191.2963812449276,179.22256124332964 L 197.48562116972448,176.63309590916398 L 227.59708882870746,175.41928669920196 L 228.57433736229524,175.176525145702 L 229.44978885354195,174.61008166266956 L 230.26416243451902,173.76041676054402 L 231.59155949485543,171.68258915520553 L 233.30184017237954,174.1103344081939 L 240.34617234866076,183.6387690631764 L 249.8539854208328,194.72506869638255 L 258.34383106939623,197.6382813769821 L 265.79535049856656,199.98504433970155 L 269.0121266785144,199.90412143842366 L 271.6181223334269,198.87235427701083 L 273.1857917689711,199.82319784110913 L 275.2828040663803,200.47058226978712 L 281.6756374175115,203.44450860513106 L 288.9846413790368,207.04560391021528 L 296.9451445200477,206.60052343812183 L 304.68169453021864,207.14675826146262 L 306.3104417702409,219.0021673352862 L 306.86014413648564,235.04569463149494 L 306.69726951877004,246.39573181597513 L 306.2086453113356,254.9336624392237 L 311.11524653577874,260.80101787335485 L 315.34998978502597,263.9977342739395 L 316.3679568543485,265.41400561510955 L 317.50808059555624,269.3795802161643 L 319.0146715179777,276.4812496093366 L 320.3380286726394,289.63267555373227 L 319.25898379886183,300.53842858281917 L 317.95598579424933,305.070739203776 L 317.8338298309643,309.8054175023108 L 319.7068889975583,319.436745196371 L 320.80629373002796,329.8371138412571 L 318.7703592371166,334.8552481918646 L 317.24340881031213,337.8904288651486 L 317.345204914905,342.2408786725249 L 318.8517969002654,346.61159199197846 L 320.6027001035925,349.80870653116494 L 319.6865298475124,353.9164142492666 L 316.08292627334623,357.1338001837996 L 311.5224334343801,358.5704997777761 L 305.597864786302,358.30744156287307 L 301.5870743135592,358.30744156287307 L 303.35833737556027,362.25332118811355 L 304.7631318390781,370.8736355913371 L 304.3763044448581,379.1500568271233 L 305.7607397583284,383.5412589589358 L 306.9212222952728,386.1719479924774 L 306.4733167422689,389.4502067070402 L 306.1475671525253,392.8499007035854 L 305.51642747744256,396.492451022141 L 302.78827515062176,400.6611740463362 L 300.85413817955134,403.41335635257803 L 299.8768897646808,405.31560724468466 L 298.4313762924233,407.78449490734346 L 298.41101714235106,410.6986048488008 L 296.17148937729854,416.1221248009347 L 292.56788580313406,422.6992210615593 L 292.14033940019743,426.6859886289035 L 293.3008219371402,429.11448961523763 L 294.7666945594683,434.51794044016964 L 294.9092100271133,439.88096538000053 L 291.69243384716714,441.5809528342099 L 287.4780501023029,444.11070653918233 L 284.7702576341726,445.62856393181534 L 281.55348145422647,446.5595183886904 L 278.6624545097082,447.6928561250626 L 276.17861517239305,446.7416618660276 L 274.06124301631314,445.9928503560599 L 272.43249613058356,448.3000025854292 L 270.1522497110989,450.6881172063664 L 265.1234921690566,453.80482393794443 L 260.82767111533457,457.56918096467854 L 255.574960442454,460.4835389095775 L 245.7821167893028,468.0933224888565 L 240.0407822633002,474.0233578794887 L 237.63837988052882,473.67929240402657 L 232.97609058265738,473.881683875972 L 226.15571082854507,474.04359682451934 L 218.19520804187133,475.3389031593258 L 210.86584457596297,480.82374887513674 L 205.85744653830207,483.07032486573746 L 201.41910966260122,481.7345217128742 L 195.5759786776933,482.62505678990743 L 189.61069137518632,485.66098266775543 L 185.62026005251408,490.3970601024095 L 184.5615739744733,495.6998961107856 L 187.16756998367688,502.13623223153337 L 189.85500330175805,507.601105622784 L 189.52925371204083,511.20390458630146 L 185.57954139808353,517.4177775900962 L 182.26096875923207,522.7006383106009 L 183.42145129620124,526.3845036197142 L 184.60229298321462,530.7970792374248 L 182.99390489323991,534.3595529035299 L 174.91124614327785,538.7721956467476 L 166.60463426250223,543.1848757739729 L 163.18426481040996,548.1643675654519 L 161.392642598363,553.3058443708945 L 161.75911084253383,555.9373289252073 L 166.52319659933036,558.5080998545266 L 173.85256006521564,560.7954894612975 L 179.14598939252346,563.204344410014 L 182.40348387256793,567.5565067722272 L 183.25857632417325,573.5078964464576 L 185.62026005251408,578.3864690445622 L 188.5927239515761,582.2934097174542 L 190.54722113565106,586.139651243461 L 192.1759683756733,588.5891145391624 L 191.4226727373055,592.4151610517814 L 190.95440767991693,596.0387987681173 L 191.48375089609272,598.7919713793117 L 193.4586068759242,601.7273563116262 L 198.05981836932085,608.4484417889682 L 196.75682036470837,622.5792211104607 L 191.19871960648865,632.4386216661335 L 187.59511638663494,634.3214464573098 L 185.62026005251408,634.9085647255424 L 178.1742695942535,638.8130619357951" fill="none" stroke="#000000" stroke-width="0.8"/>
	<path d="M 417.69226867718015,163.038532612195 L 425.97852105574816,162.14841994736696 L 434.63124168361577,158.95211356151356 L 461.3834171882094,144.22498143341986 L 465.45528588119186,143.37534635921398 L 469.0385301104271,134.8385851131255 L 474.16908441930605,129.57900946484443 L 476.2196101505761,128.48754249629226 L 477.878620283421,129.34226581945205 L 479.0187433160055,129.64570192896008 L 481.2379115767014,131.38540428712182 L 482.479831776816,135.370549920682 L 484.6582813830813,138.32401908347344 L 487.2235583835667,140.3671778612652 L 492.1912381211111,148.62077883688133 L 496.5888559880723,155.21562384181544 L 500.02958494452287,161.58799011456307 L 503.42959489223375,168.9516729924712 L 505.099061140994,172.63353810649505 L 506.0966687059352,178.66212111340792 L 506.3816996412235,182.26310687112718 L 509.94458420665,181.19090136981674 L 514.6475925132842,179.55225080878418 L 518.4955083683114,179.55225080878418 L 520.6535984701953,180.705375202914 L 520.4907238525045,182.5058710774962 L 517.355385335727,185.29765856772224 L 515.2787325426744,191.87255747515894 L 516.9278389327656,200.63242819398744 L 519.9613809906181,208.60338593273414 L 523.8500155000957,215.5628663563098 L 528.9805695010432,220.94436731137316 L 536.126698844876,230.1698837473221 L 543.7818115461909,239.6180597717511 L 549.4009901089067,245.66738224396082 L 551.7219551828186,250.92770193914686 L 550.3985980281603,255.41923488763788 L 548.8920063970893,259.7691691497031 L 550.2968012149195,267.9835335150828 L 554.3686694921388,281.41806427981686 L 557.4225710543693,293.4365181013256 L 557.544727017656,299.4053552060733 L 555.3051992526035,300.7407631202419 L 551.925548809274,303.0473824289043 L 549.1363186779735,305.9812522862096 L 547.5686492424309,307.1143360843675 L 544.6776226522251,306.6894291774224 L 538.2237111422836,304.56489998255006 L 525.9266682931218,295.8847465902884 L 512.9374079644041,287.30586688484635 L 506.4224182956524,283.5020577134024 L 503.3481575833743,282.1262166941933 L 501.35294209918123,287.2451678573897 L 498.62479012669263,293.90188341526544 L 496.4667000247856,296.6536140628123 L 492.72058098299755,296.08707977564535 L 483.07025244317884,297.78668260846047 L 475.0893905064329,301.3477674386894 L 472.8905813957845,304.22092922804444 L 468.61511949211007,309.11747127795513 L 463.4438464824211,312.1525354638496 L 458.5983230624527,308.91513358022735 L 453.3456127439093,305.51587888445454 L 449.5587750476693,306.8108313252644 L 446.5659516442243,311.54552162016284 L 443.32881631423226,316.887262765513 L 441.5779127566109,320.8531283575826 L 443.7360032128287,326.80196994198707 L 445.2833131439948,331.4963313843004 L 443.81744087600055,332.6294582718771 L 442.7791139480073,333.03414653690277 L 441.7407873743265,332.3461762809047 L 438.6054488575489,331.7391442520157 L 434.77789250688,329.1491465366005 L 430.991054810663,325.10229569482533 L 427.7742786307169,321.905300548873 L 425.2904389390893,319.5783834493681 L 422.3790528445252,317.6156854391143 L 419.24371397343515,315.99696960469913 L 416.5359215053048,314.0545159740231 L 411.7718353941959,312.6381469975645 L 404.89037783560553,312.4762765653293 L 397.0723898079536,313.8926452056994 L 389.47835561973676,313.97358058504324 L 378.7082635516919,310.3314951969653 L 371.2363846181385,305.59681292255505 L 369.2615286383301,299.97189183951815 L 363.76450603889924,294.7921476970904 L 359.12257589107537,287.67006221528163 L 353.86986557250725,279.9005970863046 L 349.8183564453586,273.6284339648214 L 348.4135619818177,270.00679045190816 L 345.3800199239685,269.5212083433078 L 340.45305919514067,270.43167493161343 L 333.06261792476084,267.74074327245785 L 326.5883469104578,263.47169137176667 L 322.1907290434966,262.66239552666553 L 317.6913140090069,263.2895996318201 L 315.34998978502597,263.9977342739395 L 311.11524653577874,260.80101787335485 L 306.2086453113356,254.9336624392237 L 306.69726951877004,246.39573181597513 L 306.86014413648564,235.04569463149494 L 306.3104417702409,219.0021673352862 L 304.68169453021864,207.14675826146262 L 296.9451445200477,206.60052343812183 L 288.9846413790368,207.04560391021528 L 281.6756374175115,203.44450860513106 L 275.2828040663803,200.47058226978712 L 273.1857917689711,199.82319784110913 L 271.6181223334269,198.87235427701083 L 269.0121266785144,199.90412143842366 L 265.79535049856656,199.98504433970155 L 258.34383106939623,197.6382813769821 L 249.8539854208328,194.72506869638255 L 240.34617234866076,183.6387690631764 L 233.30184017237954,174.1103344081939 L 231.59155949485543,171.68258915520553 L 239.1815546633854,159.80176372933718 L 252.74087634336627,145.76241746382996 L 268.4582887812749,134.51491799617244 L 283.9313891842823,129.05305365087452 L 299.7709574426626,129.90267443071465 L 308.03685064912395,129.29580202885248 L 315.36621366612354,127.31335517496373 L 323.4895914860536,122.78206377271924 L 329.5770347624838,118.41262546671624 L 336.1734616748108,115.01418736983956 L 345.74235253206666,113.31497314232726 L 350.4250015092912,114.36686718963935 L 358.8130501422532,119.42406748307963 L 361.5412020523071,120.39505318281185 L 364.79869716426634,118.49354052140954 L 367.16038082497454,110.76615755472524 L 370.7232658821278,106.5586036558637 L 374.3675880215667,104.29300520668879 L 377.7879572981714,103.2815794036758 L 381.28674460888305,103.80102702524071 L 381.33048318319493,103.8075207192544 L 385.64666391112155,105.99220363719755 L 396.7221457159267,121.97290706372931 L 398.47304948636554,130.18588166369364 L 399.4095792818332,146.28838305431753 L 403.2371355459219,154.582499119506 L 409.99643701686375,160.85371211701445 L 417.69226867718015,163.038532612195" fill="none" stroke="#000000" stroke-width="0.8"/>
	<path d="M 457.254606403413,396.75552455921854 L 456.31807664297133,396.04724925909596 L 453.83423695134377,395.2782647095248 L 451.5947091862896,394.549754569504 L 449.88452428307573,394.3069181658104 L 446.5048734854371,392.22257473092446 L 444.10247110266897,387.4670605538429 L 444.85576674103345,383.682911223956 L 447.7467933312393,380.76892976779743 L 450.9432103611379,379.4940672050665 L 452.32764567458844,377.99661288892656 L 454.11926753232297,375.00171463669085 L 451.5539905318591,368.97149049279665 L 447.8282309944095,363.1436769070209 L 449.1719476534493,361.1201431680504 L 449.9252432918171,358.6514402739801 L 450.21027387281936,356.16251226451186 L 450.27135238591893,354.66511295363995 L 450.39350799489324,353.93664949024054 L 451.06536632442464,352.216670001223 L 449.9252432918171,349.38377248007936 L 448.74440125049125,346.4294783093666 L 447.5635595634762,344.00130131468075 L 446.4234361765793,342.4634606047825 L 445.6090623794243,341.1684394795992 L 444.5503766556729,338.19394762907234 L 443.36953496865783,334.8552481918646 L 442.5755206758645,333.54000774318934 L 442.7791139480073,333.03414653690277 L 443.81744087600055,332.6294582718771 L 445.2833131439948,331.4963313843004 L 443.7360032128287,326.80196994198707 L 441.5779127566109,320.8531283575826 L 443.32881631423226,316.887262765513 L 446.5659516442243,311.54552162016284 L 449.5587750476693,306.8108313252644 L 453.3456127439093,305.51587888445454 L 458.5983230624527,308.91513358022735 L 463.4438464824211,312.1525354638496 L 468.61511949211007,309.11747127795513 L 472.8905813957845,304.22092922804444 L 475.0893905064329,301.3477674386894 L 483.07025244317884,297.78668260846047 L 492.72058098299755,296.08707977564535 L 496.4667000247856,296.6536140628123 L 498.62479012669263,293.90188341526544 L 501.35294209918123,287.2451678573897 L 503.3481575833743,282.1262166941933 L 506.4224182956524,283.5020577134024 L 512.9374079644041,287.30586688484635 L 525.9266682931218,295.8847465902884 L 538.2237111422836,304.56489998255006 L 544.6776226522251,306.6894291774224 L 547.5686492424309,307.1143360843675 L 548.0776329542236,309.19840609206324 L 550.7650659179957,313.0023559625304 L 552.271657549042,318.6476187824557 L 552.0069857637978,324.05011850622896 L 554.4501071553074,327.0245463363381 L 556.7710718749069,329.35148993287044 L 557.5854456720865,335.76580107198583 L 557.4429302044416,343.45496260139083 L 555.5902301878934,346.75323568945504 L 550.2153639060633,349.3028327929646 L 544.5351071845586,351.69055956599095 L 542.3973762327206,354.1187652790685 L 542.153064660481,358.6514402739801 L 540.9722222648428,372.77578641393217 L 538.3662266099286,386.9004485851525 L 535.2512472432215,393.9831360914607 L 532.5841730752094,397.74711234286116 L 530.0188957204133,394.20573653536053 L 527.026072671279,390.48225482013237 L 524.3589988575776,386.41478154562094 L 520.2056932715022,380.9915247554907 L 515.3805290016028,379.6357185507502 L 510.59608338611247,381.315300385226 L 506.3816996412235,383.1365388825852 L 504.12181272612185,384.31022818171493 L 501.3733012492518,386.3136005053916 L 499.011617520911,388.31697930336924 L 498.0547286104004,389.77398604522114 L 496.71101195135896,390.0168210124906 L 495.57088856446205,390.0572934576357 L 492.3948313932539,390.3406006479345 L 488.852305977898,391.089342586403 L 486.57205955841664,391.7976121682058 L 483.98642305357134,392.36422863153035 L 481.64509847527967,392.8094280749621 L 480.321741320618,393.1332095307406 L 479.22233694244096,393.4772273162516 L 476.79957470099885,393.7807726018051 L 473.4199242576726,393.41651813628204 L 471.5875833911951,391.00839756332965 L 470.16242977760834,389.32878949899373 L 467.3324809918789,390.0977659054233 L 465.27618734889865,392.24281120167905 L 462.8330663117,393.5784091788391 L 459.04622861545994,395.2377922730054 L 457.254606403413,396.75552455921854" fill="none" stroke="#000000" stroke-width="0.8"/>
</svg>
