<?xml version="1.0" ?>
<svg xmlns="http://www.w3.org/2000/svg" xmlns:ev="http://www.w3.org/2001/xml-events" xmlns:xlink="http://www.w3.org/1999/xlink" baseProfile="full" height="259px" version="1.1" viewBox="-80.29884195060606 -34.79949672612241 959.5911361460485 413.5989934522448" width="600px">
	<defs/>
	<path d="M 299.7116471276628,310.19967447411784 L 303.3587483344928,312.4541548899877 L 304.4230964462857,313.78221250583914 L 303.0218675247003,314.7783258740783 L 302.3041648595061,314.78328179975904 L 301.7768730920148,314.6048689880987 L 301.26911071812555,314.5107074310409 L 300.56117274972934,314.7783258740783 L 300.2389388951521,315.1995859768212 L 299.76535281008626,316.4287358091702 L 299.33082533224893,316.8896907389454 L 298.48129977017425,316.8351684751389 L 297.74895014976477,316.02726949281384 L 297.09960012220523,315.01125660196 L 296.46489710985077,314.3620323419912 L 295.5519012285425,314.763458045079 L 295.2003734035469,314.7783258740783 L 294.84884557855133,314.614780736602 L 292.6078556717097,313.1082594965872 L 292.29538651393045,312.69696340193633 L 291.62650715276067,310.11049259430337 L 291.09921544526327,309.03539262009986 L 289.8737503461859,308.0891641562787 L 289.25369434903854,307.90586955562094 L 287.9794060059286,307.8266076792777 L 287.37887928239354,307.67303879640474 L 286.641647343581,307.2123407737672 L 286.4951773715056,306.8408193563451 L 286.60258867636463,306.469306286957 L 286.60258867636463,306.00864149797195 L 286.52935372031885,305.4093010452537 L 286.58305934275245,304.9338065680484 L 286.4170600970567,304.46823131908246 L 285.73841609908084,303.9283784607103 L 285.2404183620018,303.695603217327 L 284.60083297124834,303.5123568923979 L 283.92707135166944,303.42321075069606 L 283.3216623097373,303.5123568923979 L 283.0433694407795,303.8095141083473 L 282.47213674766266,304.84465284589334 L 282.0913148922549,305.176505169222 L 281.5542584879534,305.28051997898314 L 280.85120283796226,305.2904261561648 L 279.6013261468656,305.176505169222 L 278.566272005485,304.7901702770207 L 276.2422825057934,303.50740433003625 L 275.0509937555293,303.1012981690497 L 275.3536982765004,302.47234827052233 L 275.53922685580227,302.22968889928586 L 274.4455847135972,301.44726010574954 L 273.4788832098574,301.52649178056544 L 272.658651618201,301.9672245432087 L 271.97512530181405,302.22968889928586 L 270.91565950842426,301.96227243766964 L 270.1296042055893,301.27889413011576 L 268.41102374783384,299.1398026941694 L 268.16202484929437,298.28325205917554 L 267.8690850251293,297.86737037166466 L 267.4247929104818,297.4069418221653 L 267.2978522720186,297.0900951103421 L 267.64938009701416,296.03068198994504 L 268.05949592283827,295.3128931019976 L 269.2605493099105,294.1991429818374 L 269.69019440934693,293.471532471165 L 269.89525232225895,293.7140658400628 L 270.100310235171,293.79821085168123 L 270.31513278489524,293.8427584048077 L 270.5494846682256,293.92195437075145 L 271.4136572455034,294.8376840967526 L 271.9995369538293,295.2584414112461 L 272.63912228458884,295.5455523880553 L 273.3031192673636,295.5950547687623 L 274.723877582549,295.52080125201 L 275.29511027567185,295.7881154497138 L 276.49616372273596,296.8524639635403 L 277.73627577702257,297.65448250625406 L 281.0953194180987,299.26358527815285 L 282.87248787668074,300.6054471118607 L 285.00118416026834,301.645339933471 L 286.739293951636,302.97748728592285 L 287.9794060059286,303.54207235822184 L 290.6598056490208,304.344410318045 L 293.1253827423949,305.43901988461295 L 299.7116471276628,310.19967447411784" fill="none" stroke="#000000" stroke-width="0.7989934522448364"/>
	<path d="M 257.7773070267159,283.09532526877734 L 258.8318905017026,283.2288845456102 L 259.857180006273,283.5306334964846 L 260.5602356562641,284.14404109044744 L 260.68717623473543,285.1631375591057 L 259.2908295715593,284.60905821880567 L 258.1288348517115,284.3122373089231 L 257.09378071032893,283.8224940371646 L 256.13684384340326,282.6798139927181 L 256.61531224687013,282.6303490407577 L 257.0156633758962,282.69960002541336 L 257.396485231302,282.85788904412055 L 257.7773070267159,283.09532526877734" fill="none" stroke="#000000" stroke-width="0.7989934522448364"/>
	<path d="M 373.9426062025866,221.33057291187103 L 374.23554602675165,220.76859548235007 L 374.0011941434213,220.51226044096273 L 373.58619605918796,220.41367097873587 L 373.3225501454454,220.30522318746765 L 372.52184788740124,218.83630922358728 L 372.50720093218604,218.03781979619845 L 373.3225501454454,217.34286554059173 L 374.63101483737466,218.40255768331602 L 375.6123633563176,220.09818813699283 L 375.7148922827817,221.68551462207026 L 374.35272196841885,222.3756981396595 L 373.9279591873835,222.2968187655319 L 373.70337200085316,222.06018256007584 L 373.683842667241,221.73481260403312 L 373.9426062025866,221.33057291187103" fill="none" stroke="#000000" stroke-width="0.7989934522448364"/>
	<path d="M 411.9710815613619,254.74453130010346 L 412.6106669521153,254.44821462125333 L 413.0354297331547,254.9420784289488 L 412.97684173232614,255.66314401446436 L 412.17613947427594,256.0286266413582 L 411.38031953463286,255.89033502157247 L 410.6772638846418,255.6730218007246 L 409.9497965826354,255.6236328024676 L 409.11003565737286,256.0286266413582 L 408.66086122431824,255.75204446877686 L 408.0359229087679,255.64338839758423 L 407.0203980410056,255.61375498272997 L 406.20016644934725,255.46558888575512 L 401.9037152749576,253.79633522752113 L 400.5171333085815,253.9741181498121 L 399.19890391985217,255.1988929833944 L 398.5251423002713,254.83342726334567 L 397.7634986494516,254.714899430394 L 396.132800162943,254.74453130010346 L 395.546920454617,254.61118818047194 L 395.11727529517873,254.27042700890433 L 394.7413358181699,253.87534963585904 L 394.28727906671827,253.53954072238798 L 391.63617339403834,252.49264725428162 L 390.6743542086995,251.6927036086792 L 390.1568271380163,251.4655655645357 L 389.39518348719463,251.58900983326603 L 387.6473090590148,252.17661585853432 L 387.0907233211092,252.06798139544833 L 386.5243729463934,251.73714399795838 L 384.01485486739386,251.01129811364265 L 384.1027367786489,251.12980156653316 L 383.7609736504513,251.28780740070454 L 382.9895653628235,251.4655655645357 L 382.5989788706116,251.32730909054214 L 381.9838051918673,250.73479312167584 L 381.76410032374,250.59654218266652 L 381.1733382370171,250.43360493841902 L 380.772987107991,250.01392486329073 L 380.29451870452414,248.94748758410674 L 379.96252021314075,249.83618098226736 L 379.91369690911023,250.22623238302438 L 378.6003498987779,249.25358815660746 L 377.9021765671898,249.0659775125451 L 377.0135923378968,249.36220575622505 L 376.8573577290153,248.98204709934907 L 376.41794793277285,248.47847254342457 L 376.1933607462425,248.1526377144688 L 375.63677500833285,248.38467099191257 L 375.14365958965686,247.98972246527993 L 374.865366720705,247.3676959229809 L 374.967895707155,246.90859471539474 L 374.4064276508443,246.1977512726159 L 373.69360730405316,246.1385156038055 L 372.892905046001,246.25205081527636 L 372.0970851063599,246.04472613881205 L 371.6625576285205,245.4622550121454 L 371.49655838283286,244.7761476963488 L 371.1743245882475,244.20852447513334 L 370.2515640101352,243.97654440563937 L 369.9439771707671,243.59649834672024 L 369.15303954952907,242.85123620050763 L 368.3328079578707,242.3034138541054 L 367.96663317765996,242.5255019971955 L 367.6785756119041,243.05852462982648 L 367.0341079627415,242.65875621377793 L 365.91605416852116,241.52365896438985 L 365.93070118373026,241.0104206801784 L 365.66705532998157,240.64524069009516 L 365.2276455337391,240.41824053590938 L 364.6857068110326,240.24552494539816 L 364.80776507110085,239.78660281882628 L 364.6857068110326,239.3572988775037 L 364.3634729564554,238.94280811646226 L 363.86547521937626,238.55793218965502 L 363.3674774822972,239.15498676146325 L 362.649774817103,239.3572988775037 L 361.81001389183444,239.26354418768932 L 360.96537064816283,239.00695490740299 L 362.1957180656433,235.2424107839526 L 361.53660334128773,234.8230791787001 L 361.46336838524195,234.24096399035358 L 361.49266241565414,233.5996718545875 L 361.18507551629216,232.96333464358915 L 360.81401841767627,232.87454518608558 L 359.60320033380805,233.14091495398912 L 358.909909320623,233.17051181738182 L 359.4664950585286,232.46513237193946 L 359.9351988251914,231.47863266741854 L 359.8863755211609,230.6105561392977 L 358.909909320623,230.27517378823583 L 359.5250830593592,228.75616449754548 L 359.9351988251914,228.05095215876565 L 360.3648439246358,227.75506676413968 L 360.68707777921304,227.62191991440417 L 360.56990183754584,227.3359038815553 L 360.14513905650654,226.92661262362282 L 359.8180228835262,226.84278302885454 L 358.87085071339857,226.95619968598666 L 358.5046758731939,226.92661262362282 L 358.09456010736164,226.60115856564644 L 357.826031875218,226.1869523921698 L 357.44521007980205,225.83685669970654 L 356.64450782175794,225.6889309253625 L 355.01380927525145,225.6889309253625 L 354.31075362525826,225.51142154663683 L 354.03734307471154,225.0676553479745 L 353.65652127929764,224.81126187495457 L 352.81676035402916,224.76195584571298 L 351.53758969251004,224.86056803349902 L 351.16653253391036,225.038071323531 L 350.90288668016166,225.32405231886747 L 350.5904174623905,225.5705911329059 L 350.12659607412473,225.6889309253625 L 349.70183323309953,225.62483009419864 L 349.2917174672673,225.34377531702694 L 347.7196069215873,225.13668495984953 L 347.0751392124328,224.8852211612646 L 346.58202379375683,224.44146974607816 L 346.33302495521724,223.5293469856202 L 346.85055202590246,222.2080798257648 L 346.58202379375683,221.54748093257797 L 346.87496367791573,221.26155723713939 L 347.0214335899992,221.06437101769262 L 347.1532565468756,220.8967643354451 L 347.44619637104057,220.75873640372123 L 347.0263159084023,219.81228633693243 L 346.997021937986,218.49620773917226 L 347.49013735666,217.36750887037473 L 348.6326028028956,216.96336225556234 L 348.9548366574728,217.13586285468625 L 349.2917174672673,217.25907848230267 L 349.62859827705176,217.4611538267891 L 349.9361851164279,217.7864504222066 L 353.24640551346545,217.18022040083662 L 359.6178473490091,220.00945951373834 L 366.0576417622016,224.0125200165278 L 369.6022140425695,226.92661262362282 L 370.72026777679594,226.48281301979543 L 371.49655838283286,226.96113084739068 L 372.7073764667031,228.8153443340661 L 373.59107837759103,229.37756243585284 L 374.5333682293136,229.47619892333884 L 375.43659947381775,229.40715331524993 L 376.1933607462425,229.44660793448207 L 376.94523970026216,229.76717961098458 L 378.7175258404431,230.85716464291633 L 379.0544066502376,231.30600054892702 L 379.6256393433504,231.8978886203523 L 380.91945702007456,231.95707849381088 L 382.3158036832507,231.64633392668304 L 383.19462327573757,231.09884421739605 L 385.4307308041823,231.8386989959258 L 386.45113799034965,231.8978886203523 L 387.2957812340212,231.5131592469494 L 387.8230729415186,231.99160596155772 L 388.70677485240657,233.12611650968822 L 389.33659554635994,233.58487310494235 L 390.0396511963511,233.80685613531458 L 391.99258353743693,233.58487310494235 L 393.0129907236023,233.79699019066598 L 393.32057756297644,233.64900122659526 L 393.59398805353123,232.3714126429362 L 393.9943391825573,232.0606611500447 L 394.5362779652497,231.9422809926273 L 395.1075106583746,231.93241603878744 L 396.29879940863265,232.4749976691669 L 397.90508624313003,234.73428075233903 L 398.5837302411059,235.2424107839526 L 399.2672565574929,235.64201797381736 L 399.76525435456585,236.56953460297782 L 400.9858370752402,239.8359487311217 L 401.25924756580315,240.24552494539816 L 401.69865736204554,240.59589260210817 L 402.09412617266054,240.71926307100296 L 402.4017130120367,240.98081123397333 L 402.70929985140685,242.96968643503243 L 403.21217996688085,243.88276606821663 L 403.9982352097219,244.5836474149436 L 406.1318138117126,246.00523596326556 L 406.74698755045074,246.75556359834212 L 406.9862217521842,247.7083268502417 L 407.00086870739943,251.16930291058065 L 406.8153401280915,251.4655655645357 L 406.43451833267966,251.59394760702105 L 405.9951085364352,251.90996872785124 L 405.60940442262023,252.3000649950789 L 405.37993485769096,252.67041729742786 L 405.785168365114,254.18153383211666 L 407.6892774021753,254.4877232454788 L 410.0865018579127,254.40376753804358 L 411.9710815613619,254.74453130010346" fill="none" stroke="#000000" stroke-width="0.7989934522448364"/>
	<path d="M 699.8528409592395,197.95342804605846 L 699.398784147788,196.8603924498938 L 699.6624300615285,196.3040508412351 L 700.3020153922881,196.36313059295836 L 700.985541708667,197.14103093642822 L 701.2101289551932,197.92388575862955 L 701.0538943463097,198.3965679345934 L 700.5705435644398,198.45073014327255 L 699.8528409592395,197.95342804605846" fill="none" stroke="#000000" stroke-width="0.7989934522448364"/>
	<path d="M 694.9607453797179,192.926950803434 L 695.7223889705436,192.83834660307872 L 695.9469762170638,193.00571039190328 L 695.6930950001273,193.1238503923677 L 694.9607453797179,192.926950803434" fill="none" stroke="#000000" stroke-width="0.7989934522448364"/>
	<path d="M 684.8884794966054,304.41418087034214 L 684.9651004586518,305.2618388535066 L 684.8942739650389,306.4419990855311 L 688.1598579250514,306.21062976273146 L 688.5018647492041,308.6074983000633 L 684.0100180087956,308.9163385477415 L 682.747971278164,309.06765220475984 L 681.7450389882588,309.03378588244595 L 680.0350187261124,308.8176742360919 L 679.1402191099127,307.6024539551788 L 678.424290589711,306.9299837503008 L 677.6040589980526,306.61791052054866 L 677.278551206423,306.16838233832647 L 676.2348777152622,304.8795555325657 L 675.4891122182037,303.9588671472876 L 675.4864213036415,302.96259721614797 L 675.9676856113164,302.3342006280108 L 676.561629184222,302.0008982911498 L 677.785908380277,301.40774474963604 L 678.9004366222648,301.4051876058999 L 680.2745376597649,301.47542784443175 L 681.6466290154976,301.2491826769998 L 683.0601837212588,301.5425678208579 L 685.5867912945395,302.4571102030943 L 684.8884794966054,304.41418087034214" fill="none" stroke="#000000" stroke-width="0.7989934522448364"/>
	<path d="M 662.8905560105277,282.68101153206726 L 661.505397463749,284.167232440753 L 661.0468941909012,284.21597156225994 L 660.442818097483,284.3608609784797 L 659.985346902835,284.2417020692909 L 659.4847067864031,283.9550474589528 L 659.4682003146121,283.5483957351839 L 659.5016484552581,282.99906395877446 L 659.8666117149734,282.5448736257332 L 660.0748799712171,282.1362132057955 L 660.0033792641019,281.299544293155 L 659.1537911282006,281.8074190781598 L 658.4628497232547,282.37824235365304 L 658.1175516837445,281.8507215238561 L 658.2415114562506,280.47947901054806 L 659.1118111691394,279.3767721681376 L 660.1670683776713,278.4134056976025 L 660.9622147637568,278.14770991718405 L 661.8810035536457,278.48267661517116 L 662.8010598985071,279.2256852313741 L 663.2894241458399,280.0907972809173 L 663.3381084435775,281.239963225547 L 662.8905560105277,282.68101153206726" fill="none" stroke="#000000" stroke-width="0.7989934522448364"/>
	<path d="M 638.3321571519296,246.880313549056 L 637.6788607136422,247.56420776388612 L 637.4371226588917,248.74506911566922 L 635.1994489849277,249.62134808717886 L 634.4814591280572,250.26486051482283 L 633.3815803010458,250.7774710956862 L 632.7285223392436,251.28994174765003 L 631.558796242018,251.20880434106826 L 631.1486804761857,251.32237132907636 L 629.6013122699064,250.71255357923908 L 628.845822452067,251.29465263820475 L 628.3071639058029,251.6927036086792 L 627.63340222623,251.50012989405818 L 625.5123257910169,251.8365824216952 L 622.9676932357432,254.77137571738973 L 621.1774484670126,257.4681581050245 L 620.4211438695389,256.7162175653615 L 620.6031757537633,255.04524740862436 L 619.8847661182992,254.19256987288833 L 619.1619502774743,254.05499973107783 L 617.4647645493195,255.58689091636313 L 615.6742366685148,255.4824994048747 L 614.848658884212,254.04653840586326 L 614.6778784701384,251.6545792467039 L 614.6420420850709,250.38929189147765 L 615.7891088974194,249.57696792890275 L 616.3303110727785,248.75208313413694 L 617.0180276158304,247.79571054037453 L 617.5687045965865,247.76243011470447 L 617.3049803305713,249.8539905590498 L 618.1900616253987,250.84011166651362 L 618.7768021888108,251.01281355743367 L 619.0854134271354,250.22697220438937 L 619.152379721518,249.30328845446616 L 619.3328539793868,247.70559691669396 L 620.3301059695987,246.30778289380217 L 622.143220542431,244.6239180134831 L 624.8598162351147,244.4233282394208 L 629.1303820628636,244.88429836565626 L 631.0584242391408,244.02768945989598 L 633.128854930089,244.45324845973474 L 634.1464316554582,244.9982659785595 L 634.3124309011479,245.27961958867922 L 634.5565474212905,245.54616921892458 L 636.3382721304454,245.3098509773015 L 638.0233515327737,245.37630659014513 L 638.3321571519296,246.880313549056" fill="none" stroke="#000000" stroke-width="0.7989934522448364"/>
	<path d="M 798.1781029715831,342.51556084538026 L 798.8176883623365,342.5751342932519 L 798.9934522448364,343.4439396370768 L 798.558924826991,343.652460009719 L 797.5873409448541,344.0 L 797.3139303943054,343.4687633427732 L 797.7826341609641,342.992154934397 L 798.1781029715831,342.51556084538026" fill="none" stroke="#000000" stroke-width="0.7989934522448364"/>
	<path d="M 614.1776982683394,230.36395089986442 L 613.5967008784165,230.5415063311613 L 613.1279971117538,230.41327168667976 L 612.8350572875887,229.83129463147455 L 612.8887629100203,229.14576870528808 L 613.0352328221038,228.72657458897567 L 613.3916429655025,228.44054166588586 L 614.241168587571,228.6575318127917 L 614.7635779766654,229.47126709870633 L 614.6366373382001,230.0680288587617 L 614.1776982683394,230.36395089986442" fill="none" stroke="#000000" stroke-width="0.7989934522448364"/>
	<path d="M 688.5453625585467,302.7942488223594 L 688.584421225765,303.3390176558013 L 688.2328934007695,304.2701181577542 L 687.2466625634174,304.9833366058273 L 686.1920790884287,305.16164600706594 L 685.7917279594107,304.47813707531685 L 686.113961753996,303.46778376218197 L 686.914664072034,302.6852971579682 L 688.0034238358422,302.59120312834506 L 688.5453625585467,302.7942488223594" fill="none" stroke="#000000" stroke-width="0.7989934522448364"/>
	<path d="M 644.6043844340825,220.8671867934638 L 645.4832040265693,220.82775024371688 L 646.2546123141951,221.36015111800174 L 645.6589679090712,222.5038778938912 L 644.5457964932478,223.54906810231628 L 643.6962708711793,223.66739517545685 L 643.6230359151335,222.78489027165267 L 643.7402118567987,221.99116422039577 L 643.3447430461837,221.95665511485745 L 643.178743800488,221.54255118958352 L 643.6083889599242,220.28550545744577 L 643.8134468128445,219.01375584531138 L 643.7695058872109,217.84559588315764 L 644.0087400889444,218.19554339919793 L 644.0038577705412,221.1136673797954 L 644.3993265211705,220.97563786545535 L 644.6043844340825,220.8671867934638" fill="none" stroke="#000000" stroke-width="0.7989934522448364"/>
	<path d="M 388.1501891144989,195.81172620712735 L 387.3006635524223,195.10280035509803 L 386.485314279171,193.74409695195868 L 385.89455225244,192.12952738805507 L 385.19149660244886,187.8968280230013 L 385.27937857369574,187.09960617935707 L 385.89455225244,186.20399981046359 L 386.6122548576484,186.09574245064107 L 387.38854552367116,186.18431659411274 L 388.1501891144989,185.86938794464822 L 388.1941301001264,186.36146617739567 L 388.0916011736623,186.67640256698695 L 387.73519097026974,187.09960617935707 L 387.6277797254046,187.5572666507423 L 387.53501543575464,187.74919196596215 L 387.2957812340212,187.92635535329964 L 387.6668383326351,188.7925102755906 L 388.42848198345473,193.788401030561 L 388.42848198345473,194.79265331472536 L 388.1501891144989,195.81172620712735" fill="none" stroke="#000000" stroke-width="0.7989934522448364"/>
	<path d="M 353.17317055742166,169.31793384117137 L 352.9095246436811,169.4359353451296 L 352.2406453425032,169.61293883779473 L 351.98676412556665,169.7309420312155 L 351.98676412556665,168.46735964535497 L 351.59129531494364,167.31201151035484 L 350.30724227502964,165.15881137336893 L 350.7466520712721,164.834375919539 L 351.03470957703604,164.87861682486715 L 351.53758969251004,165.60614734072905 L 352.3382919505622,166.4418557344351 L 354.3986355965071,167.70039790322915 L 354.8185160591374,168.29036592304908 L 355.0626325792819,169.25401662430772 L 356.8642126898792,171.79610751105952 L 358.3874999315287,174.86965534182934 L 359.1198495519361,175.73524983451745 L 359.4420834065154,176.23691798182816 L 359.8863755211609,177.5796788983441 L 360.3648439246358,178.228957712808 L 360.9409589961476,178.84874330274909 L 361.40966276280835,179.5128202603213 L 362.1957180656433,180.9148320372188 L 362.60095151307246,182.0217521779787 L 362.72300977314273,183.06969253214868 L 362.63512780189586,185.24938660482945 L 362.8401857148059,186.25812870984717 L 363.7141229288958,188.27084430212426 L 363.86547521937626,189.61932960366948 L 363.57741765361845,190.98267215140433 L 363.00130264209855,192.0606157558897 L 362.4349522673787,192.2771959519422 L 362.1957180656433,191.04665805347338 L 359.73014091227935,188.33974280543418 L 359.16379053756356,186.86339841063503 L 358.7829687421517,186.19907901967852 L 358.12873639618306,185.86938794464822 L 357.4745040502204,186.06621776273695 L 357.044858950778,187.75903431162294 L 356.4199205752337,188.7925102755906 L 355.4434543746958,187.76395548626965 L 354.3888708997071,186.35162445916444 L 353.5295807008203,184.8655858026017 L 353.17317055742166,183.59614329720893 L 353.17317055742166,179.89651908182324 L 353.17317055742166,176.36971458602017 L 353.02670058534426,175.0467057993869 L 353.0608769341595,174.2794983373274 L 354.03734307471154,172.53371690964983 L 353.85181449540363,171.5649953380462 L 353.37822841033983,170.57173438390663 L 353.17317055742166,169.31793384117137" fill="none" stroke="#000000" stroke-width="0.7989934522448364"/>
	<path d="M 433.79510074150744,107.51573073181959 L 433.30686764124056,106.90289038184936 L 433.57051349499125,106.63814838738661 L 434.2149812041457,106.66756400159521 L 434.9326838093461,106.92250103162124 L 434.722743578031,107.16273270517019 L 434.4688623610884,107.32452280571717 L 434.146628566503,107.43238352195327 L 433.79510074150744,107.51573073181959" fill="none" stroke="#000000" stroke-width="0.7989934522448364"/>
	<path d="M 351.127473866686,181.6970492983818 L 348.0223114425544,179.52265857602055 L 347.44619637104057,179.46854777793624 L 347.2801971253449,178.44046970153585 L 346.85055202590246,177.52557328233965 L 344.47285684378136,174.41720012343913 L 344.1652700044133,173.86148075377213 L 344.01880009232974,173.2664352036682 L 343.91627116586767,172.09114806335404 L 343.71609557135866,171.41747831312287 L 343.06674554379913,170.38488867024913 L 340.23987598862533,167.4447503752024 L 336.12895333353566,165.3603571204146 L 334.69354806313504,163.6890609748882 L 331.89109009998066,163.30566493048775 L 332.2133239545599,162.26856478240413 L 330.53380210402287,160.37635840903127 L 329.72333520917056,159.79644367510048 L 329.26439607931593,159.707983565485 L 328.2976945755761,159.79644367510048 L 327.8778141129458,159.5703796119334 L 327.6874032152349,159.1280873219769 L 327.78016750488683,158.1354208171702 L 327.6727562000338,157.69807270275072 L 326.27640959684953,156.47452919323266 L 322.8831896069601,154.95625452494886 L 321.5649602782267,153.5756528751397 L 317.2050387845954,145.55912456855734 L 316.15045530961066,142.60280400413276 L 315.34975305156456,141.17880731209766 L 315.6719868461499,140.71725602445323 L 315.7696334542029,140.37355405208032 L 315.6719868461499,140.02985746117625 L 315.34975305156456,139.5683306016956 L 315.3106943843482,138.6894927757772 L 314.3830514878308,135.65556506750679 L 313.55305525937035,134.35964655054153 L 311.07771346919026,129.3877584083642 L 310.8482439042629,128.5633085857717 L 310.8140676154415,125.31488136757586 L 310.7017739921794,124.76534535831333 L 308.7586062878997,120.51670932881571 L 309.8131897628864,119.81031652203768 L 311.5805935846663,118.28968477320899 L 312.6840003636835,118.00519084505484 L 312.68888268208656,117.46073829120417 L 311.24859509328087,114.30709429432956 L 308.8757822295649,111.18821134349407 L 308.57307770859984,110.60469398620299 L 307.7967871025629,110.22222839231796 L 305.7510904718211,108.21684004342369 L 305.10174044426356,107.30981460630541 L 304.354743808651,104.63307101619883 L 305.5704442109243,103.72618576132969 L 307.7967871025629,103.98599250754098 L 310.02312999420354,104.80464785902801 L 311.2095364260645,105.90276981470522 L 311.6587108591131,106.07925851663252 L 312.27876691625437,105.9517943226627 L 312.928116883818,105.61842968886866 L 313.30405636082884,105.14780540730692 L 313.09899850791066,104.61836446453115 L 311.24859509328087,103.40265692757858 L 311.4145943389766,102.98109573118444 L 311.83447480160686,102.56934561725934 L 312.36664882750733,102.3144563398827 L 312.88905827659556,102.37327672308238 L 312.88905827659556,102.75071084741262 L 314.2854048797778,102.77521976557071 L 315.02751919698727,103.19677723840476 L 316.16021994642284,104.80464785902801 L 316.8925695668323,105.3978233306739 L 317.5175079423746,105.73608725113391 L 318.0789759986873,106.24594354843317 L 318.6599733886082,107.30981460630541 L 318.92850156076196,108.04523791504599 L 319.03103054721794,108.55024213720364 L 319.0700891544404,109.17783566808437 L 319.2360884001361,109.47202604245504 L 320.06608468859247,109.98196484104976 L 320.33461286074424,110.19280824423696 L 322.3510155210677,113.27722739739083 L 325.46106032359626,116.61220316696455 L 327.8778141129458,118.64285463230685 L 329.29857242813125,120.49708699744147 L 329.8844521364572,121.6450215730745 L 330.1236863381906,122.77339044581254 L 329.65010025312677,124.02938078321137 L 328.51251712529427,124.73590632468527 L 327.1601115077395,125.22656221048254 L 326.03229301672116,125.8251769549634 L 326.4326441457392,126.62008371138242 L 326.6914077410767,127.41501884069132 L 326.6669960290696,128.2050750702188 L 325.7100592221358,129.84907112161767 L 325.6954122069267,130.61958292230997 L 325.9004701198407,131.3901215221395 L 326.03229301672116,132.26866659583942 L 326.2861742336557,133.1570633466134 L 327.4091103462851,134.212387942191 L 327.6727562000338,134.77197598292344 L 328.04381335863553,135.3610314341213 L 328.8933389207082,135.21376610234145 L 330.32874425110265,134.5510842907542 L 330.86580065540613,134.7867021989481 L 332.5062638387208,136.02373774090873 L 333.03355554621623,136.61282686863026 L 333.0726142134346,137.035017180188 L 332.81873299649,137.36393854184507 L 332.6722630844065,137.74195876009216 L 333.03355554621623,138.29181802971092 L 333.51690632807805,138.57166246671184 L 333.91237513870306,138.54220500413732 L 334.1760209924518,138.39000863817833 L 334.2639029636986,138.29181802971092 L 335.6700142636809,138.95461328757875 L 337.1737721717162,140.01512770728476 L 338.55547181968524,141.35557419753468 L 339.62470224988715,142.8581512668733 L 338.8435293254472,142.55369911406314 L 338.233237965106,143.02511071226272 L 338.0574740826061,143.71260439273925 L 338.5798834717005,144.05635947668765 L 339.30246845530183,144.36083282476125 L 339.99575940848894,145.09747966443132 L 340.34240491508143,146.05515830130489 L 340.03481807571126,146.98341060062268 L 340.5621097832107,147.27810230613056 L 340.7964616665391,147.6612075261431 L 340.86481430417575,148.15237811797013 L 340.8550496673676,148.79582862018057 L 340.9624609122288,149.4294744027396 L 341.26516543319985,149.58666072058224 L 341.66063424381684,149.5964849415968 L 342.0853970248582,149.8273546224607 L 342.43692484985377,150.07787556148514 L 342.85680531248397,150.29401366064283 L 343.20833313747954,150.65261131459144 L 343.34503841275694,151.3059621553109 L 343.13998049984485,151.58106328415062 L 341.6362225918016,152.75028273982335 L 342.72986473401465,153.24648355127624 L 343.1106865294266,153.5560008218222 L 343.34503841275694,153.98834996373472 L 344.12621133718886,153.68373940356247 L 344.82926698718205,153.86552261254613 L 345.19055950898166,154.41088154141525 L 344.9855015960716,155.22157618629396 L 345.4395584075171,155.28053704137574 L 346.58202379375683,155.63430544653335 L 346.58202379375683,156.0470427137906 L 344.9562076256533,156.4253923262631 L 344.3556809021182,156.45978811507982 L 344.14574067080105,156.78409373260772 L 344.19456397483157,157.49168692126932 L 344.44356287336507,158.19930390100828 L 344.7657967279423,158.52363626442215 L 345.1466185233562,158.99540143499672 L 345.4981463483518,161.17745345605073 L 346.21584901355203,161.85570516933805 L 345.40538205870183,162.2980550543036 L 345.029442581691,161.9195995373636 L 344.73650275752397,161.31998278068164 L 344.1652700044133,161.03492510299526 L 343.60868426650563,161.36913104481303 L 343.74050722337194,162.017899063013 L 344.238504960451,162.7404143768206 L 346.6064354457721,165.18830574040388 L 347.285079443748,166.14689600500358 L 349.1745415256001,170.8765915578377 L 349.7164802483006,171.41747831312287 L 350.346300942254,171.9190405589476 L 351.1958265043287,173.06972975161554 L 352.3529389657653,175.13523154367925 L 353.0706415709717,179.8866805844584 L 353.04134760055535,181.18048731919652 L 352.6702904419476,181.94795562100038 L 352.025822792785,182.13982724294362 L 351.127473866686,181.6970492983818" fill="none" stroke="#000000" stroke-width="0.7989934522448364"/>
	<path d="M 307.63567017527834,77.57382245111816 L 308.3680198556797,79.72843224782387 L 307.9432570746403,79.8214764901485 L 307.41108298874593,79.73822633657429 L 306.2734998609154,78.18101149844394 L 305.9463836879351,77.44161396409035 L 306.2149119200788,76.71203157150717 L 306.8886735996536,76.57493124611892 L 307.2841423502807,76.92747645836116 L 307.63567017527834,77.57382245111816" fill="none" stroke="#000000" stroke-width="0.7989934522448364"/>
	<path d="M 265.8770940168191,170.53239828406777 L 267.1513823599351,170.64057270944235 L 269.48513649643286,170.55698332254715 L 270.11007487198316,170.46847735779988 L 270.6813076250939,170.2177123743238 L 271.1744230437699,169.88336385602926 L 272.0166056217218,170.42774545599968 L 271.6843858047842,171.59880009933664 L 271.7212991357557,172.26800417130454 L 270.81692303935506,172.62120402273246 L 270.26322334445365,172.04493375833715 L 268.4231619687721,172.24138204454155 L 266.7239863048347,171.58596825520038 L 265.8770940168191,170.53239828406777" fill="none" stroke="#000000" stroke-width="0.7989934522448364"/>
	<path d="M 271.1744230437699,169.88336385602926 L 271.57477417279597,169.52443693160555 L 272.1020658802934,169.40151813729446 L 272.8637095311131,169.59818852390396 L 274.24052680068513,170.1439585631916 L 275.44158024774924,170.4733943357797 L 276.08604789691185,170.57173438390663 L 276.7305156060664,170.55698332254715 L 277.3163953143923,170.31605120033163 L 278.370978789379,169.49493632026864 L 278.95685849770496,169.31793384117137 L 280.236029159218,169.45068560328443 L 282.1645499082885,170.01120233286247 L 283.3216623097373,170.1439585631916 L 283.72201343875736,170.03086987523014 L 284.2297758726425,169.49493632026864 L 284.5520096672259,169.31793384117137 L 284.8840082186031,169.3474341387214 L 285.40153528929443,169.6768571679414 L 285.73841609908084,169.7309420312155 L 290.24968988318864,169.7309420312155 L 290.484041766521,169.66702359366678 L 291.09921544526327,169.36218433353616 L 291.4751549222741,169.31793384117137 L 291.56791921192604,169.45068560328443 L 291.83156506567275,169.7309420312155 L 292.1830928906683,170.01120233286247 L 293.39879329294763,170.53239828406777 L 294.6437876656393,172.23866999112488 L 297.0507768181767,173.07956495516942 L 298.0272429587287,174.18114050403415 L 299.7116471276628,176.7828650155168 L 301.9379900193014,176.4877567188728 L 304.67697766322823,177.69280933772177 L 307.19626043902775,179.56201200748973 L 308.7586062878997,181.2837986939302 L 309.17848675053193,182.30218159389364 L 309.4323679674725,183.54202151681193 L 309.56907324275187,186.0760593406919 L 309.8717777637169,186.55830083255347 L 310.52601010967754,186.57798441663465 L 311.48782929501436,186.2827328088923 L 312.2494728858421,186.40083291729866 L 312.8695289429834,186.70592809439736 L 314.1194056340841,187.5228187496321 L 316.1162789607954,188.05922897076042 L 316.61427675786837,188.33974280543418 L 316.7607466699519,188.9499969860522 L 316.7070409875244,189.79650960948976 L 316.863275596414,190.53969864836267 L 317.61515455042763,190.85962296553674 L 317.82021246334165,191.15494235270145 L 317.87880040417633,191.81450478193955 L 317.8397417969539,193.10908283106667 L 317.9862117090354,193.6948703278282 L 318.3084455636126,194.05915032157566 L 318.7087966926407,194.41359132084693 L 319.0700891544404,194.9846485239471 L 318.9724425463874,196.7963877258885 L 317.4003320007094,197.81064066462355 L 312.88905827659556,198.7461631314628 L 310.5455394432897,199.4946132378331 L 309.2663687217788,200.16430332850547 L 308.1776089579707,201.02114615205574 L 303.8420991163567,199.93778790731946 L 300.0094693302248,198.12575907310207 L 298.7010046383015,197.87957238057177 L 296.24030986333054,198.332558205868 L 295.46401925729566,198.1159115122452 L 294.9416098682013,197.57430520665517 L 294.49731775355576,196.90470353001206 L 293.9700259860665,196.26466439824134 L 293.7112624507209,196.205584881473 L 293.0082068007277,196.31389743404358 L 292.744560946979,196.26466439824134 L 292.5932087164944,196.04804049091265 L 292.1977399058774,195.27018332218995 L 291.9194470369196,194.9846485239471 L 290.14716089673465,194.27575238876042 L 289.64916315965957,193.95085014804334 L 288.71175562633806,193.6407211949187 L 281.9887859657928,193.34044221467298 L 276.92580882217237,194.1280689118278 L 274.24052680068513,194.16745102811572 L 272.58541666215524,193.9656183378276 L 271.9165373009855,193.97054105004375 L 271.36971625988394,194.16745102811572 L 270.96936513085785,193.95085014804334 L 269.69019440934693,193.74409695195868 L 268.3622004438033,193.38966795671524 L 267.0342064182699,193.2912165950951 L 265.7306240447437,193.06478033424455 L 263.6800450955968,191.99170436322004 L 262.7279905470742,191.6865282339074 L 261.5659958272203,191.86372673240976 L 260.60417664188356,192.2870405982732 L 259.63259275974673,192.355953017555 L 258.3924807054602,191.45518815832466 L 255.61931677271195,188.62518197097458 L 254.540321645708,187.92635535329964 L 252.89985846239531,187.09960617935707 L 252.83638814316373,186.8486354950442 L 252.93403475121673,186.1400294431744 L 252.89985846239531,185.86938794464822 L 252.66062426066188,185.61351203553383 L 252.16262646359093,185.48557533618703 L 251.85015730581168,185.24938660482945 L 251.62557005929548,184.7179720965602 L 251.56698211845884,184.10292660777753 L 251.44004147998558,183.60106344979368 L 251.02016107734923,183.38949743116171 L 250.01440090639102,183.24681463245244 L 249.82399000868207,182.86797210538205 L 249.98510687598082,182.33170069079023 L 249.99487157277883,181.6970492983818 L 249.43828583487323,180.3392575629775 L 248.73523018488007,179.10945240304855 L 247.8759399260074,177.99777276193407 L 246.89947378545338,176.9894434059046 L 246.00112485936236,176.33528572677292 L 245.60565610873323,175.91230774544067 L 245.4445391814466,175.3368750815015 L 246.22571210588058,174.9385081083497 L 246.80182717740038,174.48113342397525 L 247.1289433503807,173.86148075377213 L 247.0117674087175,173.23692927746978 L 246.16224178664896,171.99771808402096 L 245.89859593289825,171.41747831312287 L 245.874184280885,170.70941126540092 L 246.30871175872437,169.11143281954728 L 246.24524143949276,168.47719264757066 L 245.96206625213188,167.67089995949115 L 245.89859593289825,167.03178785523608 L 245.25901060214073,166.39761149526126 L 245.02465871881034,166.22063554376086 L 245.283422254156,165.82244510228273 L 245.89859593289825,165.15881137336893 L 246.06947749699702,163.09922380647333 L 246.4551816708079,162.22432942249358 L 247.33400120330086,161.85570516933805 L 248.2665264182193,161.5853847921627 L 252.0356858851196,159.3492322710417 L 254.11555886467667,160.06182642542254 L 256.2344904514562,161.41827942451272 L 259.4568288772469,164.3329856757958 L 261.8931120002026,166.09773639784163 L 262.2788161140176,166.61883363615303 L 262.5424619677663,167.4840805258645 L 263.17716498012277,168.521441336326 L 263.98763193497297,169.4900195759588 L 264.778569556213,170.1439585631916 L 265.8770940168191,170.53239828406777 L 266.7239863048347,171.58596825520038 L 268.4231619687721,172.24138204454155 L 270.26322334445365,172.04493375833715 L 270.81692303935506,172.62120402273246 L 271.7212991357557,172.26800417130454 L 271.6843858047842,171.59880009933664 L 272.0166056217218,170.42774545599968 L 271.1744230437699,169.88336385602926" fill="none" stroke="#000000" stroke-width="0.7989934522448364"/>
	<path d="M 259.2273593123196,154.81376833484552 L 258.3778337502429,154.42562118976437 L 257.86518899796476,153.4675668375756 L 257.7626600115068,152.24918077399505 L 258.18742279254815,151.0996387029966 L 258.55359763274475,151.0210397611271 L 258.8465375169057,151.03086464317443 L 259.13459502266767,150.9522659551955 L 259.4568288772469,150.65261131459144 L 259.9011209918924,151.80212923080032 L 260.17941380085637,153.17278963474976 L 260.0475909039759,154.33227039780144 L 259.2273593123196,154.81376833484552" fill="none" stroke="#000000" stroke-width="0.7989934522448364"/>
	<path d="M 284.73753824652573,153.98834996373472 L 285.40153528929443,153.7918265437033 L 286.0899439240764,153.32017772389906 L 286.65141198038714,152.77975967661297 L 287.01270444219483,152.3376096805888 L 287.77434809301656,149.3803539081883 L 288.3895217717608,148.1179957777497 L 289.4294582915323,148.22114290375941 L 291.0455097628378,151.08981378921035 L 291.69974210880645,151.51228766843238 L 292.6078556717097,151.5417628878344 L 293.3255583369039,151.64983912225748 L 293.87726169641456,151.90529417409613 L 294.3459654630753,152.3376096805888 L 293.61361584266587,153.0941830243954 L 292.7250316133748,154.70567603679277 L 291.9194470369196,155.22157618629396 L 291.4751549222741,155.63430544653335 L 290.1911018823601,155.21666280422482 L 288.97540148008676,154.49931946477403 L 287.78899510821765,154.0423942118554 L 286.60258867636463,154.40105515513602 L 286.85158757489813,155.13804866534014 L 285.95812096721016,155.6490459479865 L 284.5813036976381,155.9438576554102 L 283.3216623097373,156.0470427137906 L 283.6146021339043,155.57043013963772 L 283.57066120826676,155.18718247541935 L 283.18983935286303,154.9267745593407 L 282.46237205085663,154.81376833484552 L 282.8090175574491,154.21926734886728 L 283.3216623097373,153.98343686808545 L 284.73753824652573,153.98834996373472" fill="none" stroke="#000000" stroke-width="0.7989934522448364"/>
	<path d="M 221.20864853035656,147.80855750258578 L 221.81893995068964,147.72014737093187 L 223.0492873081782,146.29090112051065 L 223.66446098692248,145.7850394684285 L 223.64981403171328,146.05515830130489 L 223.55216736366037,146.2172312190985 L 223.40081513317577,146.3645712746573 L 223.25434522109225,146.57084908733285 L 223.25434522109225,147.17495972131513 L 223.14205159783015,147.3272179741493 L 223.25434522109225,147.80855750258578 L 222.6684655127643,148.38814400060687 L 222.52687791908386,148.92845062222042 L 222.84911171366923,149.20352101499097 L 223.66446098692248,149.0021298477234 L 223.4935794228237,150.49050479258386 L 222.6245245271449,151.47789997414276 L 219.9441248840466,152.75028273982335 L 219.9978305064802,151.11928842344014 L 220.20288841939225,149.98945610253895 L 221.20864853035656,147.80855750258578" fill="none" stroke="#000000" stroke-width="0.7989934522448364"/>
	<path d="M 275.29511027567185,147.80855750258578 L 274.8557005394233,147.73488238764804 L 274.51881966963697,147.53350498483235 L 274.3137618167168,147.20934054790217 L 274.24052680068513,146.77712882216048 L 274.723877582549,146.6297859348533 L 275.80287270955097,146.51191234129897 L 276.92580882217237,146.168118031534 L 277.55074719772267,145.33321198184439 L 277.9608629635549,145.7850394684285 L 278.2440381509098,145.30374531600643 L 278.35144945576684,144.92068215111527 L 278.2538028477138,144.54744765009235 L 277.9608629635549,144.05635947668765 L 278.1952148468853,143.79117653484792 L 278.3563317741719,143.7715334724907 L 278.7713299183991,144.05635947668765 L 279.845442726998,144.52780389862124 L 280.94884950601516,144.4197636158631 L 282.0034329809999,144.55726950237062 L 282.87248787668074,145.7850394684285 L 283.3216623097373,145.7850394684285 L 283.9075420180633,144.7733519287588 L 284.9718901298561,144.94032620061446 L 286.1729435769202,145.7850394684285 L 287.1982330214967,146.77712882216048 L 287.5790548769025,148.1130840366158 L 287.17382136948146,149.82244242806874 L 286.3242958074068,151.39438713884618 L 285.36247662207006,152.3376096805888 L 285.157418709158,151.87581845079825 L 284.94747847784083,151.68422709452963 L 284.6301270016606,151.7087899831619 L 284.14189390139563,151.89055627715555 L 284.06865894534985,151.17823787469732 L 283.73177807556954,150.6378742851318 L 283.18495703446195,150.32839950363615 L 282.46237205085663,150.28418917875146 L 282.6088419629401,150.60840031715693 L 282.87248787668074,151.51228766843238 L 282.46237205085663,151.51228766843238 L 281.48590591031063,149.93050993983329 L 280.74379159310314,149.33123352662486 L 279.80638405978164,149.6456059334337 L 278.8982704968764,150.068051179176 L 277.78509908105303,150.1171732566979 L 276.69145693884195,149.86173965271348 L 275.87122534718566,149.44912264427373 L 275.74916708711737,149.0954572434668 L 275.7247554351021,148.54532265893096 L 275.6319911454522,148.02958436834854 L 275.29511027567185,147.80855750258578" fill="none" stroke="#000000" stroke-width="0.7989934522448364"/>
	<path d="M 219.52912673981945,145.48054597688446 L 219.98806580968017,145.39214549496256 L 221.20864853035656,145.7850394684285 L 219.19712824843404,149.8273546224607 L 218.33783798955335,150.65261131459144 L 215.4767920855663,151.51228766843238 L 214.95926501487503,151.15367559859064 L 214.53938455224278,150.53471554540718 L 214.07068078558203,150.18594436738795 L 213.38715446919502,150.65261131459144 L 211.8589849091465,148.5305871445965 L 211.9615138356086,147.8527627052813 L 213.83632890225164,147.80855750258578 L 213.46527174364388,147.00305659637192 L 213.66056495975792,146.43333032532055 L 214.2317977128666,146.2368764531505 L 215.0276176525097,146.57084908733285 L 215.0276176525097,145.7850394684285 L 215.31567515827166,145.8930866061972 L 216.25308269159518,146.15829544370504 L 216.1700830387514,145.52474638428157 L 215.935731155419,144.9697924291731 L 215.55002704160205,144.4786946284816 L 215.0276176525097,144.05635947668765 L 215.88690785139653,144.05635947668765 L 216.47278755972246,144.35101100168262 L 216.94149132638324,144.3902982001674 L 217.2930191513808,144.1742196154477 L 217.51760639789703,143.69296140192426 L 217.92283984532617,144.5081601650637 L 218.01560413497612,145.14167928477096 L 218.16207404705963,145.65734815161073 L 218.75771845219163,146.15829544370504 L 219.06042297315668,146.1484728603722 L 219.52912673981945,145.48054597688446" fill="none" stroke="#000000" stroke-width="0.7989934522448364"/>
	<path d="M 274.24052680068513,145.7850394684285 L 273.49353022506045,145.21534550030228 L 273.57652981791034,144.5965570769635 L 273.9915279621375,143.89921360702274 L 274.24052680068513,143.049663678931 L 273.95735161332425,141.45868893525397 L 274.15264488943217,140.96276082734758 L 275.0509937555293,140.80563743578267 L 275.998165925663,142.05283556762674 L 276.32039978024227,142.84341958997084 L 276.28134111301785,144.05635947668765 L 275.44158024774924,143.6978721932068 L 274.9435824506763,144.13984364239974 L 274.24052680068513,145.7850394684285" fill="none" stroke="#000000" stroke-width="0.7989934522448364"/>
	<path d="M 126.43772343518698,128.37683013233337 L 127.6387768222572,128.95589993626103 L 128.50294939954097,130.2318697841623 L 128.44436139871246,131.49809726290744 L 126.8478392010172,132.07724878185476 L 126.32054749352179,131.9103730075807 L 124.16743955792695,130.80117236839106 L 121.29662895713184,130.02574658136305 L 118.11334919855953,128.68108525533756 L 116.65353227614166,127.61621059441552 L 116.8292962186374,126.68878069202263 L 119.07028606549325,127.02245472148336 L 120.03698756923309,127.05680377599458 L 120.93045417692105,126.68878069202263 L 121.29662895713184,127.14022322388011 L 121.80439139100895,126.35020475424663 L 122.13638988239434,125.99200687868128 L 122.48791770738991,125.8251769549634 L 123.03962112689446,125.92331204596938 L 123.38626657349307,126.2275336090569 L 123.64014779043765,126.54157316167509 L 123.9428523114027,126.68878069202263 L 124.94373016395583,126.95375671120834 L 125.56378616110318,127.52788225381015 L 126.00319595734561,128.11183715225133 L 126.43772343518698,128.37683013233337" fill="none" stroke="#000000" stroke-width="0.7989934522448364"/>
	<path d="M 163.23096911807264,130.80117236839106 L 164.9056085902047,131.45883328508702 L 164.8421382709731,132.01835129488674 L 164.63708041805492,132.48953535656497 L 164.3099642450746,132.81348026030005 L 162.9429115523148,133.1570633466134 L 161.6930348612221,134.1976621718697 L 160.73609799428837,134.5510842907542 L 159.59851492644975,132.76439740008902 L 159.32022205749794,132.45026961313977 L 158.72457765236595,132.12142192496086 L 158.72457765236595,131.37048968085242 L 159.13469347819208,129.81962535881524 L 159.41786866555296,129.26507049354612 L 161.18039010893187,127.9253624905504 L 161.50262396351113,127.3855762477131 L 161.76138749885675,126.69859453785891 L 161.93715138135659,125.90368498116621 L 162.00062170059022,125.04011170319485 L 162.41073752641432,125.04011170319485 L 162.41073752641432,126.31585678964522 L 162.90873526348938,127.19910767868348 L 163.31885102932563,128.58784533786454 L 163.465321001401,129.96685462484302 L 163.23096911807264,130.80117236839106" fill="none" stroke="#000000" stroke-width="0.7989934522448364"/>
	<path d="M 152.91948625153194,115.94516894098906 L 154.1644806242276,115.66070435401413 L 155.67312085066794,115.66560893246597 L 156.9327622385667,116.07268865461822 L 157.45517162765705,116.98496614413448 L 157.60652391813952,118.27006437709618 L 157.5137596284896,118.71152719482276 L 157.0499381802319,119.24129396739659 L 156.48847012392122,119.40316956387137 L 155.8147084443464,119.34430558731032 L 155.23859337282659,119.3982642366763 L 154.99935917109312,119.87899263442695 L 154.72106630214333,120.0948331802019 L 153.55907158228945,120.55104840462619 L 153.40283697340791,120.9287819951289 L 153.76412949520352,121.28689890370069 L 154.94077123025647,121.46350663731167 L 155.40947499691924,121.75295002180489 L 155.7463558067117,121.53709358217253 L 156.00023702364825,121.4487892531215 L 156.6398223544058,121.34086226424185 L 155.878178763578,122.35147196678093 L 155.482709952963,122.69489334472131 L 154.99935917109312,122.9892587695935 L 156.361529485456,124.3532022343657 L 155.84888479316166,125.76138935323281 L 153.40283697340791,127.9253624905504 L 152.65584033778933,129.05895628948136 L 152.3629005136203,129.3975735070798 L 151.8209617909238,129.7214730587944 L 150.7761429527432,129.96685462484302 L 150.30743918608047,130.2318697841623 L 149.4481489272078,130.354563057103 L 148.1201549616582,130.07482341192534 L 146.92886621140013,129.67239701165147 L 146.40157444391085,129.3975735070798 L 146.2404575766121,128.9951594716259 L 145.87428273641342,128.7203443042353 L 145.17122708642228,128.37683013233337 L 144.90758123267358,128.07257923989434 L 144.556053407678,127.44446141234702 L 144.3070545091385,127.14022322388011 L 142.55429770256174,125.58965447388066 L 142.2613578783967,125.24618867974341 L 142.2613578783967,122.16504539459625 L 142.6714736442289,120.0654002705678 L 142.91559022436536,119.7023973219824 L 143.26711804936093,119.3492109027811 L 143.53076390310963,118.8488729456402 L 143.49170523588526,118.00519084505484 L 145.11263908559175,118.99603000752721 L 145.76687143155436,119.02546152284017 L 145.99145867807863,118.00519084505484 L 146.40157444391085,118.06405139557786 L 146.6066323568229,118.24063384496019 L 146.81169026973694,118.8684938439226 L 147.2950410515988,118.08367155282075 L 147.1339241243142,117.50488261357248 L 146.81169026973694,116.87706041983992 L 146.81169026973694,115.94516894098906 L 147.1778651099336,115.54299593349877 L 149.26262034789988,114.71905403629587 L 149.7215594777545,114.63077636060493 L 149.89732342024823,114.547403243935 L 150.0828519395562,114.30709429432956 L 150.5320264326047,114.71905403629587 L 150.5320264326047,115.13102128745984 L 150.02426399871956,115.50375996886339 L 149.81920608580953,115.95988268281603 L 149.91685269386855,116.46506159076577 L 150.30743918608047,116.98496614413448 L 151.08861211052044,117.31359121111738 L 151.74284445648107,116.98496614413448 L 152.32872416480703,116.4013005130922 L 152.91948625153194,115.94516894098906" fill="none" stroke="#000000" stroke-width="0.7989934522448364"/>
	<path d="M 111.02908707621255,118.8684938439226 L 110.76544122246385,118.8684938439226 L 110.50179536871313,118.69681160662657 L 110.19420846935112,118.61342361515129 L 109.79385734032704,118.8684938439226 L 109.71085774747513,119.1726197950464 L 109.79385734032704,120.51670932881571 L 109.34468290727847,122.25335247774694 L 109.2714479512327,123.2296600290208 L 109.58879948740687,124.02938078321137 L 111.76143669662201,126.35020475424663 L 112.97713709890137,127.20401477386581 L 114.3393074132562,127.55241786207814 L 114.3393074132562,127.9253624905504 L 113.40189987993267,128.1412806471354 L 112.28384614570824,128.09220815724763 L 111.20973333710934,127.82231140072952 L 110.4090310790632,127.34631961821144 L 109.71085774747513,126.65933912017043 L 109.28609496644182,126.40908717998552 L 108.74903856213835,126.31585678964522 L 108.2461584466623,126.0705155525221 L 108.15339415701237,125.49152085054374 L 108.20221746104289,124.80459750366799 L 108.15827653540933,124.25998042892091 L 107.76280772479434,123.5681886185622 L 106.18093248231634,121.38991993322244 L 105.4778768323252,120.9287819951289 L 104.51117532858535,120.61482118174311 L 103.21247527346222,119.87408714353005 L 102.0602451904205,118.9665985305467 L 101.56712977174448,118.21120335110035 L 101.72824669903711,117.34792542025548 L 102.11883319124904,116.60729844444873 L 102.64612489874845,116.00402408598039 L 103.20271063665407,115.54299593349877 L 104.80411515275038,114.69453241536223 L 105.71222871565558,114.03245856140933 L 106.85469416188916,111.78155103067779 L 108.5439806492263,110.1290646690338 L 110.3602077150408,108.97190464814254 L 111.46849687245498,108.99151705552592 L 112.55237431786001,109.72209075375304 L 113.46537019916629,110.86948154342514 L 114.10495552992582,112.3700022113217 L 114.3393074132562,114.12073398068206 L 114.13424956033602,114.5032646656753 L 113.26031228625423,115.51847342507155 L 112.63537397070381,117.53431218950102 L 112.47913936182228,117.81880020162266 L 112.31314011612658,118.01990598340683 L 112.20084649286446,118.41721773253299 L 112.06902353599617,118.64285463230685 L 111.69796643738229,118.93716709190039 L 111.42455588683356,118.95678800655628 L 111.20485101870628,118.8684938439226 L 111.02908707621255,118.8684938439226" fill="none" stroke="#000000" stroke-width="0.7989934522448364"/>
	<path d="M 97.02167969881533,100.69205329449562 L 97.34879587179564,102.69188951276936 L 97.79308798644315,103.53991100433134 L 98.66214288213,103.98599250754098 L 98.66214288213,104.43208256333715 L 96.92403309076232,103.42226456028432 L 96.05497819507548,101.18709485656998 L 94.94668909765518,99.12857486841072 L 92.51528829310453,98.63357674926554 L 92.72522852441965,98.45714426441987 L 93.1158150166396,98.0111681224132 L 93.33551988476086,97.81513734762133 L 92.35417136581792,97.36917336338968 L 91.30935258762922,96.550777874081 L 90.86994279138679,95.73731111207378 L 91.69505670144619,95.31098728760965 L 92.51040597470146,95.97252754966823 L 94.06298718676726,96.08033583048173 L 95.56186277640147,96.38416191725707 L 96.23562445597429,97.60930675379315 L 96.32838874562421,98.38363113970944 L 97.02167969881533,100.69205329449562" fill="none" stroke="#000000" stroke-width="0.7989934522448364"/>
	<path d="M 101.97236327916752,101.51549454660841 L 101.56712977174448,101.51549454660841 L 101.4499538300793,100.6626452291565 L 100.99589707862765,100.50090143943761 L 100.41978200710784,100.5401119708277 L 99.89249029961043,100.3146524017662 L 99.65813841628004,99.86864099397236 L 99.10643499677349,98.18759726333573 L 98.53520230365866,97.12904241889407 L 97.86144062408384,96.22734800803671 L 96.98262109159086,95.48739618747392 L 95.79133234132678,94.89937153225117 L 96.23562445597429,94.52206340195274 L 95.620450777228,94.46326270548424 L 95.3421579082782,94.31136147067743 L 95.29821692265075,94.06146164686865 L 95.38121651550067,93.69886649137273 L 96.85079813471656,94.20846123154656 L 98.25202711629777,94.10556137848775 L 99.550727111421,94.20846123154656 L 100.74689818008815,95.31098728760965 L 101.3181309332049,96.57528031804726 L 101.75754066945545,98.14839065991862 L 102.00653956798692,99.86373982940566 L 101.97236327916752,101.51549454660841" fill="none" stroke="#000000" stroke-width="0.7989934522448364"/>
	<path d="M 78.1465884539076,87.46211358130722 L 78.36629332202887,88.46635131196777 L 78.99611401598226,88.3193870280191 L 79.99210955013231,90.9305859065015 L 78.43952827807263,90.87179408309919 L 76.65259518267645,89.31876163467687 L 76.906476399611,87.46211358130722 L 78.1465884539076,87.46211358130722" fill="none" stroke="#000000" stroke-width="0.7989934522448364"/>
	<path d="M 137.34973296526888,118.00519084505484 L 138.16996455692723,118.5055101329177 L 138.73631493164098,119.25600984988816 L 138.92184351094085,120.22237627277823 L 138.58008038275133,121.34086226424185 L 138.16996455692723,121.34086226424185 L 138.0381416600468,120.34992014722197 L 137.59873186380236,119.72201896180913 L 137.12514577873853,119.31977896564837 L 136.9005585322143,119.05489313676938 L 136.69550061930224,118.19158302303252 L 136.177973548617,117.34792542025548 L 134.84997952307552,115.94516894098906 L 133.2681043405914,115.08197718488091 L 129.99694261077823,114.79752344884962 L 128.48830238433186,114.12073398068206 L 125.84696134846408,112.28173355508335 L 124.43108541167565,110.5899836324511 L 124.16743955792695,110.3987501922337 L 124.06979288987404,109.5161548656316 L 123.58155984960099,108.14819902690154 L 123.38626657349307,107.30981460630541 L 123.38626657349307,103.60853837617195 L 123.83055868814058,104.30462741432673 L 124.06491057147097,105.01544402499673 L 124.16743955792695,106.67736925480277 L 124.48967335251031,107.40296693496799 L 125.89578465249458,107.7951913349913 L 126.21801850707183,108.33941377359713 L 126.40842940477476,108.96209848083451 L 126.8331921858161,108.86403679630521 L 127.25307264844837,108.28548126413865 L 127.44836592455427,107.51573073181959 L 127.12613206997703,106.89308509332253 L 125.7102560731867,105.54979638151741 L 125.1341410616668,103.59873447934214 L 124.470144078892,102.15760282967892 L 123.53273654557049,100.76557370974936 L 122.48791770738991,99.86864099397236 L 121.75068576857738,99.68729816531486 L 121.19898234907082,99.8441351211482 L 120.59357330714072,100.13330612426715 L 119.66593047061721,100.3146524017662 L 119.27534397840529,100.06959016507007 L 118.84569887896087,99.6284845319667 L 118.41605371952458,99.54026438840054 L 118.05964357612395,100.3146524017662 L 117.40052891176225,99.92255405247815 L 116.90253117468318,99.92255405247815 L 115.97488827816578,100.3146524017662 L 115.91630033732913,100.36856648585614 L 115.43783187387035,100.60382920925304 L 115.15953900491253,100.69205329449562 L 113.11384237417072,100.7214614569899 L 110.89726411934427,100.51070409624715 L 110.20397316615315,100.69205329449562 L 109.6815637770568,101.54980526042402 L 109.28609496644182,102.67718424745881 L 108.64162725728734,103.75069570556143 L 107.338044943753,104.43208256333715 L 106.28346146876629,104.2065854581483 L 104.23288245962753,103.01540853873848 L 103.61282646248019,103.19677723840476 L 103.20271063665407,103.19677723840476 L 102.82677115964525,97.60930675379315 L 103.00253510213898,97.23685604058747 L 103.86670761942887,96.02153126367078 L 104.23288245962753,95.7569124025548 L 105.08729034010526,95.7520120332492 L 105.78546367169332,95.66870675341795 L 106.37134338001927,95.42369279352836 L 106.9279291179269,94.89937153225117 L 107.21598662369287,95.67850733809675 L 107.63098476792004,95.91372319080916 L 108.10457085298387,95.7471117251763 L 108.52445131562014,95.31098728760965 L 108.709979894922,94.75726776665121 L 108.71486221332508,93.45877278161302 L 108.97362574867071,92.84629978369043 L 108.76856789575054,92.13585086711765 L 109.10056638713593,91.31763592133765 L 110.4090310790632,89.74007909282554 L 111.0046754241973,88.83866469446204 L 111.90302429030046,86.8155046333593 L 112.47913936182228,86.02686122415295 L 115.03748074484426,83.51904823586621 L 115.97488827816578,82.90682865107497 L 116.94158978190563,82.53950434727113 L 118.75781690771402,82.05954220698298 L 119.66593047061721,81.70692302267364 L 119.636636440207,81.9909769603191 L 119.71475377464773,82.05954220698298 L 119.87587070193233,82.06933729238871 L 120.07604623644944,82.11831259804603 L 124.2406745139667,84.4643456306185 L 125.84696134846408,84.58679622855784 L 125.42708088583383,85.66928606165709 L 125.61260946513369,86.43342572147618 L 125.99831363894455,87.16329970794365 L 126.21801850707183,88.11363864996287 L 126.13990123262299,90.40146446286106 L 126.25707717429019,91.51851240415145 L 126.6671929401204,92.43472675625361 L 126.10084256540664,93.54207029613883 L 126.29613578151465,94.31136147067743 L 127.66807079267554,95.5314986329515 L 128.19048018176787,96.48217115419082 L 128.01471629926803,97.23685604058747 L 127.72665879350407,97.92295410795558 L 127.88777566080282,98.63357674926554 L 128.29789148662894,98.19739889428149 L 128.64941931162448,98.28561399738992 L 129.0302411070384,98.55026123088989 L 129.52823884411748,98.63357674926554 L 129.90906069952325,98.48654962680317 L 130.63164562312667,98.0111681224132 L 131.16870202743013,97.81513734762133 L 132.34046144408205,97.58970398549235 L 133.3169276446219,97.57990254723663 L 134.2592174963465,97.89845026365909 L 135.98268033250497,99.1383768915949 L 136.21703221583533,99.38342946315255 L 136.52950137361256,99.86864099397236 L 136.66132433048082,100.25093600990742 L 136.9005585322143,101.51549454660841 L 137.64267284942778,102.51542651918486 L 139.1952540614956,103.56932275338009 L 139.81042774023987,104.43208256333715 L 139.71278113217883,105.94198943687184 L 139.81042774023987,106.48616825927621 L 140.14730861002022,107.03035987242008 L 141.07983376494477,107.76577428602198 L 141.44112628674037,108.13349030293992 L 141.93912402381946,109.14841685544495 L 142.3297105160394,111.24705428843582 L 142.6714736442289,112.28173355508335 L 142.94488419478168,112.48279036718652 L 143.3354706869956,112.51711735473032 L 143.70652778560947,112.64952182867862 L 143.94087966893986,113.1055874503388 L 143.92135039532155,113.69407269826357 L 143.70652778560947,114.18939286960584 L 142.52012141374234,116.17078123822938 L 142.37365150165883,116.5190133792603 L 142.2613578783967,117.19096931371467 L 142.24182854479255,117.75013034810955 L 142.3150635008303,118.27987460316407 L 142.4615334129138,118.77038958311357 L 142.6714736442289,119.24129396739659 L 138.97554919336832,117.78937025612757 L 137.34973296526888,117.63731603639143 L 137.34973296526888,118.00519084505484" fill="none" stroke="#000000" stroke-width="0.7989934522448364"/>
	<path d="M 66.18487770724617,88.50554188746747 L 66.47293527300401,90.06342078601432 L 66.50222924342035,90.901189976711 L 66.18487770724617,91.65079788497374 L 66.65358147390693,92.92959515234918 L 66.47293527300401,94.40446209460082 L 65.79429127502613,95.62950433488562 L 64.75923713365161,96.13424021549571 L 64.21729841094508,95.39429130808404 L 62.708658124512844,90.99427726200287 L 61.82007389521381,89.63719852805919 L 61.67360398313029,88.29979191431251 L 62.09348444576857,85.404781760832 L 61.43925209979991,82.36319060594589 L 61.4587814334121,81.05557044255897 L 62.50360021160079,80.47279611045701 L 63.397066819288746,81.24656681025628 L 64.14406339491345,82.11831259804603 L 64.40770930865604,82.75500061067268 L 64.77388408885881,84.1704668674281 L 65.57946872530793,85.53703354909842 L 65.9017025198913,86.57547999709615 L 66.11652512960337,87.6531604432223 L 66.18487770724617,88.50554188746747" fill="none" stroke="#000000" stroke-width="0.7989934522448364"/>
	<path d="M 95.79133234132678,91.65079788497374 L 92.76428719164403,91.90067244196088 L 89.64936007070638,89.35795366337207 L 87.24237091816897,85.78194611395523 L 86.33425735526377,82.90682865107497 L 86.43678634171977,82.14769781673941 L 86.64184419463993,81.42287239993908 L 87.18866529573539,80.07122859265307 L 88.61918824773292,77.87741509645515 L 88.824246160647,77.39754460653737 L 89.62983073710022,76.61899912881498 L 91.47535183332494,75.88454479807994 L 93.53569547926983,75.3508551302404 L 94.97598306807352,75.1354240339646 L 97.76379401602281,76.59451696870356 L 99.73625569072688,78.7098658439937 L 100.9861323818216,81.29554046051707 L 101.56712977174448,84.17536480554661 L 101.65012942459028,87.03593757796052 L 101.47924786049151,88.05485367980533 L 100.57113429758832,90.55334069661548 L 99.54584479301792,92.28773813946563 L 98.28620340511917,93.07658779365848 L 97.02167969881533,91.65079788497374 L 96.51391732493211,91.84187816815985 L 96.26491842639061,91.87127525683165 L 95.79133234132678,91.65079788497374" fill="none" stroke="#000000" stroke-width="0.7989934522448364"/>
	<path d="M 77.94153054099354,67.29304699499455 L 78.39558735243907,68.15940566843611 L 77.4825914711328,70.08312283084506 L 75.2757778531105,73.08892214624531 L 74.15284174048108,74.01912928362113 L 72.69790713647632,75.52711831392654 L 71.7604996031548,77.21147488420952 L 72.185262444182,78.64620683231593 L 72.74673044049881,79.38074373665832 L 72.75649513730686,80.02715450312476 L 72.31708534106242,80.54135708451743 L 71.55544175023462,80.84988382222363 L 71.36503085252568,80.63930165018962 L 70.8670330554527,80.23283418789156 L 70.19815375427685,80.05653720058187 L 69.4950981042837,80.47279611045701 L 69.09474697526564,80.47279611045701 L 68.96292401839133,79.26321634800031 L 69.22168755373697,78.05859315682461 L 69.05080598963819,77.14781976058269 L 66.22393637447054,76.37907493792468 L 66.01887846155849,75.38023223000909 L 66.63405220029465,72.88330217557971 L 66.39970031696427,72.4035287337819 L 65.86264391266282,72.00209281123958 L 65.29629353794704,71.65940877292046 L 64.96429498656978,71.40484650950653 L 64.1831220621318,69.78941594299002 L 63.77300629629958,69.34886212142953 L 62.75748142853533,69.00621456775156 L 62.708658124512844,68.93768560867655 L 62.22530740263685,68.87894662462 L 62.166719401806304,68.70273062055834 L 62.23018972103992,68.44819853037596 L 61.60525134549562,67.07768565361937 L 61.24395888369391,66.88190417017545 L 60.453021262455906,67.29304699499455 L 59.33984978663866,64.57669230364826 L 59.764612627665855,61.87531061131859 L 61.361134825361106,59.61459264171597 L 63.77300629629958,58.229879548086586 L 64.55417922073956,58.41091552992222 L 65.11076495864718,58.675132465466724 L 65.60876269572627,58.71916889689098 L 66.18487770724617,58.229879548086586 L 66.3606416497419,58.733847684143036 L 66.67799318591607,59.17421636546289 L 67.4152251247266,59.87392888263352 L 67.56169503681012,60.17730670917653 L 67.4982247775724,60.441541933589775 L 67.55193040000599,60.62748689884391 L 68.4893379333275,60.7449265209639 L 68.6699841942243,60.92108700050013 L 68.69927816464262,61.23426412545771 L 68.68463114944154,61.71382408226116 L 68.93851236637607,61.95850106603351 L 69.51950975629896,62.19828675177185 L 70.10050714621983,62.60935319285191 L 70.603387201704,64.01877460610544 L 71.18926691002994,64.41518854132013 L 72.4049673123113,64.79692639987228 L 71.96555751606685,65.24718867258854 L 72.77602447091103,66.10368802608292 L 74.1333124668708,65.58978489372275 L 75.48083576602455,66.07432186554618 L 76.76977112434164,66.87211516313809 L 77.94153054099354,67.29304699499455" fill="none" stroke="#000000" stroke-width="0.7989934522448364"/>
	<path d="M 3.7398654964799345,43.41369153285863 L 4.696802363407619,43.912482339303196 L 5.365681664585482,44.562880617810464 L 5.922267402493103,45.26219891092726 L 6.610676037281147,45.87839682778545 L 5.365681664585482,47.017911978800925 L 4.091393321477512,47.316248177878265 L 1.0350541413745205,47.07660082555783 L 0.0,46.58753135438288 L 0.38570417380884486,45.4920487856143 L 2.0603436459429005,43.41369153285863 L 2.4802241085811745,43.55550364933106 L 2.817104978361511,43.54572350380836 L 3.7398654964799345,43.41369153285863" fill="none" stroke="#000000" stroke-width="0.7989934522448364"/>
	<path d="M 18.52356347990604,25.258157893406423 L 20.32026121211438,25.69308409302797 L 20.774318023559907,25.908106299920462 L 21.599431933619307,26.92948474611992 L 21.594549615218245,27.735863040402297 L 21.243021790222674,28.566701786970402 L 21.013552225293356,29.597954421020045 L 20.574142429050926,29.979185617179013 L 19.568382258092726,30.27244405142856 L 18.455210842271367,30.37508521583544 L 17.703331888249714,30.21379208815815 L 16.7171010509037,31.09358437937854 L 15.72110551675365,31.078920919467983 L 14.695816012183261,30.951838151555027 L 13.611938566778225,31.479724382236675 L 13.055352828870603,31.196228639935768 L 12.366944194080551,30.536379298385434 L 11.93241671624119,30.21379208815815 L 10.233365592091877,29.69081794576432 L 9.89160240390847,29.39267826734213 L 9.989249071955356,28.576476545848028 L 11.561359617633341,25.258157893406423 L 12.04959265790638,25.546478953406293 L 12.235121237214274,24.657091477625556 L 12.596413759007861,23.5624999677592 L 13.611938566778225,23.20578978765842 L 13.406880653866173,22.731812067991214 L 13.436174684276377,22.360453827704358 L 13.611938566778225,21.9793280706267 L 14.363817520793857,22.267615028907386 L 16.472984470767273,24.060924632801857 L 18.52356347990604,25.258157893406423" fill="none" stroke="#000000" stroke-width="0.7989934522448364"/>
	<path d="M 36.62236411878689,19.106394463039553 L 37.095950203848716,19.36045151468173 L 38.23353333168122,19.687797647165752 L 38.67294312792365,19.893001609144758 L 38.08218104120075,20.24966935241553 L 37.44259571044122,20.33761546712108 L 36.803010379683684,20.200810499560372 L 36.21224835295467,19.893001609144758 L 36.06577838087726,20.826210303742513 L 35.77772087511531,21.73990562991531 L 35.2992524716464,22.560791202914338 L 34.537608820824715,23.20578978765842 L 34.46925618319005,22.741584756718616 L 34.36184493832488,22.502155744410903 L 34.234904299859664,22.30181873232867 L 34.1274930549945,21.9793280706267 L 33.722259547573465,22.458179201808147 L 33.2535557809107,22.761130084468085 L 32.69697010299496,22.88328861989942 L 32.0817963642588,22.839311473147745 L 33.03385091278944,22.17966275634363 L 33.92243514208245,21.35878844118695 L 34.117728358194476,20.86529827985218 L 33.83943548923665,20.454877444720953 L 33.45861369382476,20.039576867993535 L 33.34143775215756,19.516795416715432 L 33.546495665071625,18.666685788055936 L 33.80525920041726,18.39797836637873 L 34.33255090791267,18.285610548210116 L 34.74754905214185,18.109731378673153 L 34.4253151975626,17.753090965741958 L 33.91267044528242,17.459965271689757 L 33.717377229170395,17.46485066284476 L 32.945968941542574,16.33145977891859 L 32.3307952627983,15.110184363332431 L 32.496794508485976,13.913385734368163 L 34.1274930549945,12.921790902670066 L 35.392016761298336,12.921790902670066 L 35.392016761298336,13.332101838946883 L 34.566902791245056,13.537259471876284 L 33.92243514208245,14.001312089662513 L 33.5025546794522,14.704732642445583 L 33.34143775215756,15.588918039442332 L 33.868729519648866,16.08720044055619 L 34.898901282626426,16.35100056465025 L 35.670309570262276,16.70273792715262 L 35.392016761298336,17.46485066284476 L 36.28548330899844,18.774169514455036 L 36.62236411878689,19.106394463039553" fill="none" stroke="#000000" stroke-width="0.7989934522448364"/>
	<path d="M 62.239954357852085,71.5957679476869 L 62.45965928596723,71.79648178507091 L 63.079715283114574,72.2419744628013 L 62.84048108138113,73.13787959942695 L 61.60525134549562,73.74495932393778 L 60.52625621849365,73.18683708917614 L 60.589726537725255,72.6532055957374 L 61.06819494120018,72.06083915706365 L 61.698015635145545,71.56149985536801 L 62.239954357852085,71.5957679476869" fill="none" stroke="#000000" stroke-width="0.7989934522448364"/>
	<path d="M 250.81510316443718,114.71905403629587 L 251.51815881442832,115.35662556854086 L 251.46445319199472,115.74898608426805 L 250.81510316443718,116.36696767608672 L 250.2682820633337,116.66125057096663 L 249.71169638541994,116.73972662576026 L 249.09164032827871,116.63182212790375 L 248.35929070786923,116.36696767608672 L 247.67088207308723,116.00402408598039 L 247.17288427601426,115.60675460323762 L 246.30871175872437,114.71905403629587 L 245.58124439672608,113.57147036707069 L 245.07836434124192,113.35569185083148 L 244.2581327495876,113.9294710441332 L 243.413489505916,112.98298827736924 L 242.48584660940665,112.48279036718652 L 241.82673194503292,111.76683992225952 L 241.7681440041983,110.19280824423696 L 242.20755380044272,108.60417532603628 L 242.99360904328375,107.5794670788641 L 244.194662430354,107.0205544696116 L 245.89859593289825,106.86366919242697 L 247.65135273947504,107.26568994373302 L 248.13958583975,108.2364518085384 L 247.94917494203904,111.05091184607437 L 248.31534972224983,112.34057924791666 L 249.0086407354288,113.18895523949763 L 250.81510316443718,114.71905403629587" fill="none" stroke="#000000" stroke-width="0.7989934522448364"/>
	<path d="M 178.66889938747153,60.686206672227534 L 179.54283666155533,61.05810147673214 L 180.49977346849514,61.92913966256951 L 181.0954178736211,62.89808248071083 L 180.91965393112537,63.5636403808022 L 179.97248176099973,63.66641189158414 L 179.0790152132956,63.137877055006264 L 178.3906065185217,62.31084001651183 L 178.00978472310783,61.50829731242384 L 177.37996402915442,62.31573363497439 L 176.23749864291273,62.0563724958922 L 173.91839146162218,60.686206672227534 L 174.03556740328938,61.25873124986652 L 174.77279934210193,62.702333440592504 L 174.18691963377395,62.69254605534874 L 172.69292636254482,62.33041455616516 L 171.23310944012897,62.33041455616516 L 171.32099141137581,61.9487139077272 L 171.06711019443927,61.097248639887425 L 170.37870155965123,60.255598326172226 L 169.1825304309902,59.87392888263352 L 168.95794324446587,59.67331002072865 L 168.65523872349277,59.257397993657875 L 168.51853344822342,58.82681377301907 L 168.77241466515997,58.6408819334215 L 169.3485297366778,58.7044900579454 L 170.30546654361962,58.97360306420113 L 170.63746509499688,59.012746965516676 L 170.74487633986203,59.13017914967103 L 171.25263877374115,59.23782581792732 L 171.5944019019367,59.08614200981984 L 171.23310944012897,58.435379945189815 L 171.23310944012897,58.08798739293045 L 171.65298990276725,57.82866927755889 L 172.22910491428513,57.82377652065277 L 172.69292636254482,58.229879548086586 L 173.38133505732677,58.54302362634763 L 174.86068131334878,58.846385633793524 L 175.56373696333992,59.77606584945841 L 176.56461475589916,60.255598326172226 L 177.73149185414798,60.5785538879036 L 178.66889938747153,60.686206672227534" fill="none" stroke="#000000" stroke-width="0.7989934522448364"/>
	<path d="M 261.05823339334324,114.92503673037396 L 262.8256371551272,116.27868360552945 L 263.5189281683122,117.29887653153575 L 262.7279905470742,118.00519084505484 L 262.19093414277074,117.90218532519594 L 260.27706046890324,116.77896478505056 L 259.98900290314737,116.7201075715575 L 259.2908295715593,116.81820301218771 L 258.99788974739226,116.77896478505056 L 258.7000675448283,116.46015683976538 L 258.55847995114783,116.04816557487752 L 258.3778337502429,115.69013159952887 L 257.33789723047147,115.28305866488641 L 256.62507694366815,114.17958447007386 L 255.3849648893816,113.77744263546144 L 254.96508442675133,113.37040392065879 L 254.13020581988388,112.28173355508335 L 252.24074379803164,110.81554310415962 L 251.66951104491488,110.19280824423696 L 251.5376881480405,109.60441288632958 L 251.66462872651184,109.07486995811432 L 251.51815881442832,108.69242979215274 L 250.61004525152512,108.54533914272527 L 249.92651893514417,108.13839320988356 L 247.1289433503807,105.66255121229156 L 242.1343187844091,104.60365798240682 L 239.99585786401332,103.30952065666816 L 238.5018645927882,102.69188951276936 L 237.1641059304406,101.57431291816683 L 236.1876397898946,101.05965743856338 L 235.16235028532623,100.82439013587916 L 234.35676570886898,101.1037703286231 L 232.33548067015053,99.88334455404339 L 231.2369562095424,99.55986884278295 L 230.22143140177405,99.86864099397236 L 229.6160223598359,98.48164869037214 L 229.06920131873233,97.72692400717816 L 228.3807926839443,97.40347801808261 L 227.54591407708486,97.33486881883546 L 226.75497645584485,97.07023518017438 L 226.20815541473726,96.57037983926448 L 226.12515576189148,95.7569124025548 L 224.82157344836517,96.19304506272736 L 223.53263809005009,95.94312538206427 L 222.31693768776674,95.28648615382569 L 216.69737480624067,91.20005045299918 L 216.32631764763894,91.13635854860928 L 215.40355712951853,91.26864191081519 L 215.0276176525097,91.20005045299918 L 214.77373643557317,90.81300234419764 L 214.72491313154265,90.2789843222093 L 214.7346777683508,89.78417089016685 L 214.65656049390796,89.51962132396743 L 214.17809203044115,89.43633785288253 L 213.93397551030463,89.66169384906276 L 213.72891759739258,89.9262449850806 L 213.38715446919502,89.96543794782056 L 211.74669128588238,89.14239835893011 L 211.36098711207353,89.08361092885107 L 210.4968145347958,89.19628703338655 L 210.10622810256973,89.14239835893011 L 210.0964634057697,88.97583426783314 L 209.832817552021,88.15282864978995 L 209.6961122767436,87.90789197397211 L 209.0223505971708,87.59437665953077 L 208.51458822328556,87.44741770855907 L 208.1825897319022,87.11431418895383 L 208.065413790237,86.23259182375952 L 207.66506266121092,86.53629256652094 L 206.38589193969997,87.08492293745073 L 206.27848063484694,85.88970846582494 L 205.7414242305435,84.96884591409751 L 204.87236933486466,84.3810796429121 L 203.7445509038322,84.17536480554661 L 200.2439196690836,82.52970907242488 L 199.92168581450636,80.23283418789156 L 199.42368807742727,79.18976202433392 L 198.39839857285688,79.46888966380462 L 196.56752449183526,79.02816326435774 L 195.69358727774534,78.46502442921114 L 196.14276171079993,77.6032022650648 L 195.48364704643024,76.86871854191415 L 194.8831203229012,76.36928219050466 L 194.47300455706895,76.36928219050466 L 193.84318386311557,77.18209559903342 L 193.2133631691702,76.42803891395535 L 192.39313157751386,74.2737183873349 L 191.71936989793906,73.47568826005407 L 190.81125633503586,72.77070144847562 L 189.77131987525024,72.4035287337819 L 188.7411480522788,72.67768384998695 L 188.1601506623559,71.60066337611501 L 185.54810365690034,70.15655007810446 L 184.60093142677678,69.34886212142953 L 184.30799160261176,68.53630551092597 L 184.33728557303007,67.89998439833028 L 184.4984025003167,67.32241458017324 L 184.60093142677678,66.68612427322037 L 184.60093142677678,64.194957835913 L 179.9138937601692,60.28495773706082 L 176.8233783512387,58.6408819334215 L 176.2960865837494,57.70635033468599 L 176.2082046125005,56.67400160082955 L 176.6232027567297,55.97926893114467 L 177.63872756450007,56.13582678098012 L 178.87395730038358,56.879489460376256 L 184.76693067246646,58.88552940031275 L 185.26004615113638,59.21825365720402 L 185.8459258594623,59.23782581792732 L 186.3780998853608,58.523451997855744 L 187.0176852761142,57.911846468378165 L 187.8818577934061,58.229879548086586 L 188.10156272151926,57.99991677915821 L 188.27244428561804,57.877597018291546 L 188.45797286491788,57.80909819541882 L 188.7411480522788,57.74059955575926 L 189.18055784852322,58.924673226805155 L 190.04961274420808,59.69777564523193 L 192.39313157751386,60.686206672227534 L 192.62748346084425,60.33389024391463 L 193.03759922667646,59.91307422513304 L 193.48677371971692,59.56076848633419 L 193.85783081833281,59.42376200306276 L 194.60482745394336,59.67331002072865 L 194.92217899011953,60.28495773706082 L 195.11747220623155,61.0287411739801 L 195.49829400164546,61.71382408226116 L 196.67005341829736,62.81488894332384 L 197.39263840189466,63.34341709514485 L 197.98828280702665,63.5636403808022 L 198.36910460244056,63.96004717594723 L 199.31627677256822,65.7072475400884 L 200.4050365963702,66.34351306417234 L 201.32779711449064,67.57693523228566 L 201.84044186677082,68.11535280260466 L 202.5874385023894,68.56567455332839 L 204.7454287563853,69.34886212142953 L 205.8195415649862,69.99501039541157 L 207.62600399399255,71.53702270126237 L 208.88564538189334,72.22728780130807 L 208.27047164315516,73.41693856282876 L 208.7245284546007,74.47934996895836 L 209.66193598792222,75.03750137547866 L 210.51634386840195,74.72415165913544 L 212.9135683841312,75.70338281786593 L 213.61662403412035,76.16363485316482 L 214.02673979995458,76.92747645836116 L 214.26109168328696,77.80886158631583 L 214.64191347869885,78.32791431519013 L 215.4767920855663,78.0145226913981 L 217.1074905720709,79.28770117156607 L 218.4647785680327,78.64620683231593 L 219.57795004384795,78.40626289223277 L 220.67647450445608,78.48461165957002 L 221.9947038331915,78.8273905755519 L 221.2330602423637,79.17507116199448 L 221.42347114007467,79.72843224782387 L 222.05329183402003,80.24752568603112 L 222.6245245271449,80.47279611045701 L 223.64004933490722,80.57074040089593 L 224.206399709629,80.85478109107834 L 224.54328057940734,81.37389849368253 L 224.8508674187835,82.11831259804603 L 225.87615692335388,81.36410374831641 L 226.48156590529211,81.88323200613486 L 226.96003436875893,82.84805641320658 L 227.57520804750118,83.35252298360882 L 229.52814038858705,83.51904823586621 L 230.3288427066311,83.29374966645004 L 230.66572351641955,82.52970907242488 L 231.7788949922348,83.0390667967387 L 232.23295174369247,83.33293184200757 L 232.71630252555832,83.76394043274654 L 233.65371005887985,83.06845312909797 L 234.2737660560272,83.7345531975682 L 234.79129312671645,84.98843837916898 L 235.3967021686546,86.02686122415295 L 236.37316836919447,86.77141834675305 L 238.07710181174684,87.7119444308267 L 238.86315711458178,88.3193870280191 L 239.01939166347145,88.40756547838771 L 239.7175649950575,88.69659704761187 L 239.8493879519338,88.88765378934329 L 239.99585786401332,89.37265064551043 L 240.09350447207035,89.51962132396743 L 242.88131542002165,91.7389886131571 L 248.43252566391502,95.04147615016177 L 260.0182969335576,103.73598977206754 L 260.2819427873063,104.32423586721212 L 258.99788974739226,105.66255121229156 L 257.74801305629757,107.38335587769315 L 257.293956244846,107.72164875270087 L 256.7666645373486,107.42257794863573 L 256.0929028577758,107.25588444112965 L 255.41914117820298,107.33432833743757 L 254.9064964259208,107.72164875270087 L 254.9504374115402,108.06975242669506 L 255.8927272632668,108.73655718203413 L 256.3907250603398,109.74660704938321 L 256.95707543505955,109.74660704938321 L 257.5234258097733,109.46221960193186 L 258.01165891004626,108.92777680762973 L 258.5682446479539,109.42789724363173 L 260.3698247585532,111.92866239335312 L 260.85317548043116,112.83587007741718 L 261.01917472611683,113.69897679315244 L 261.05823339334324,114.92503673037396" fill="none" stroke="#000000" stroke-width="0.7989934522448364"/>
	<path d="M 171.41863801943686,56.95777103975602 L 170.9304049191619,56.444052787866646 L 170.4226424852848,55.76400348157275 L 169.76352782091107,55.15735595574599 L 167.9717124071138,54.712164044256056 L 166.70230638240892,53.865831387900975 L 165.8967217459598,53.679935439599646 L 165.4524296313143,53.34728288811132 L 165.3694300384644,52.66242344645258 L 165.61842887701002,52.07052380806729 L 166.10177965887186,52.03628206045517 L 166.68277704879674,52.42272693034112 L 167.30283304594408,52.66242344645258 L 167.84477176865062,53.00485087196368 L 168.18165263842894,53.679935439599646 L 168.967707881272,53.43533757642012 L 169.67076353126313,53.72885528999884 L 171.0475808608291,54.902959627507514 L 171.78481285963352,54.30611660582837 L 173.08839517316784,54.40395877182911 L 174.50915348835122,54.95188179633233 L 175.59303093375624,55.724864480616226 L 175.01203354383537,56.028193145533876 L 174.6116824148153,56.444052787866646 L 174.50427116994814,57.006697118089996 L 174.77279934210193,57.74059955575926 L 172.1070466542189,57.21218770219555 L 171.41863801943686,56.95777103975602" fill="none" stroke="#000000" stroke-width="0.7989934522448364"/>
	<path d="M 166.49724846949687,48.754178407487075 L 166.2628965861665,49.29709105777515 L 166.10177965887186,49.89381881022873 L 166.0431917180372,50.529691310702766 L 166.0773680068566,51.17536239797235 L 165.1887837775656,50.661759109149145 L 164.88607925660054,50.3536020154053 L 164.4466694603581,52.44718565570047 L 163.6166732318876,51.85039924812714 L 163.09914616120437,51.03840052088653 L 162.42538448163154,50.39762418247478 L 161.16574309373078,50.3536020154053 L 161.16574309373078,49.9818617847487 L 161.9859746853871,49.1210100293629 L 162.3960905112112,49.1210100293629 L 162.96244088592496,49.22372377817314 L 164.51990447638772,47.741749911601545 L 165.6672521810325,47.47764458410801 L 165.6672521810325,49.1210100293629 L 165.8967217459598,49.01340553445581 L 166.29219055658282,48.87156395871015 L 166.49724846949687,48.754178407487075" fill="none" stroke="#000000" stroke-width="0.7989934522448364"/>
	<path d="M 126.20337155185659,48.299314399142496 L 126.64766360650822,48.754178407487075 L 126.27660650790237,49.20905039508422 L 126.14478355102807,49.83512363909517 L 126.27660650790237,50.529691310702766 L 126.64766360650822,51.17536239797235 L 125.00720042319556,49.9818617847487 L 124.94373016395583,50.88187353638036 L 124.33343880361463,51.21938595594236 L 122.47815307058377,51.17536239797235 L 122.47815307058377,50.803610427524724 L 122.83944553238548,50.60306220704793 L 123.36185492147983,50.1872964688707 L 123.70850042807233,49.9818617847487 L 121.34056994275328,49.287308713862465 L 120.67169058158153,48.93514803674084 L 120.19322217811462,48.8568907735238 L 118.66017029966102,48.93025696218999 L 118.04499656092486,48.754178407487075 L 119.02634507986579,48.049876170421996 L 120.05651690283725,47.47764458410801 L 121.63350982691219,47.78087687554835 L 123.3325609510615,47.580351878357014 L 124.84120117750588,47.643932817597104 L 125.82254969644882,48.754178407487075 L 126.20337155185659,48.299314399142496" fill="none" stroke="#000000" stroke-width="0.7989934522448364"/>
	<path d="M 136.08032694055595,48.524299944826886 L 136.19262056382007,49.42426138154339 L 136.9005585322143,51.630276615665835 L 137.34973296526888,52.44718565570047 L 135.72391679715932,52.54012903462799 L 134.8695088566877,52.48631962822114 L 133.86374868572952,52.06563208413583 L 133.47316225350343,52.15857409500922 L 133.05816410927628,52.33956740072255 L 132.60410735782463,52.44718565570047 L 132.15005054637308,52.31021706695872 L 131.76922875095718,51.74767513267508 L 131.37375994034218,51.62538503483596 L 130.22152985729645,50.94057106767741 L 130.84646823284677,49.42915254866188 L 132.8091652107428,47.07660082555783 L 135.66532879632877,48.093894512099254 L 136.08032694055595,48.524299944826886" fill="none" stroke="#000000" stroke-width="0.7989934522448364"/>
	<path d="M 121.29662895713184,44.02984625407381 L 121.29662895713184,45.496939278871004 L 121.09157104421779,46.29409408138297 L 120.31528043818288,46.63643788535507 L 118.64064096604884,46.70001653587134 L 117.91805598244551,47.1255082681331 L 116.38500410399189,49.9818617847487 L 116.27271048072977,49.27752643372152 L 116.01394694538413,48.900910474013635 L 115.6428897867824,48.8568907735238 L 115.15953900491253,49.1210100293629 L 114.37348376206947,48.494953852479085 L 112.9185491580647,48.16725855942425 L 110.20397316615315,47.927603420968055 L 109.03709606790231,47.55100690464191 L 108.23151149145511,46.773376680870385 L 107.98739491131667,45.65832450379844 L 108.52445131562014,44.23523437524275 L 108.01668888173701,44.41617285809754 L 107.66027873833636,44.69980862053554 L 106.9279291179269,45.46759657333009 L 106.4641076696692,45.24752768488817 L 106.19069717911435,45.433363538337716 L 106.10769752627257,46.289203439862156 L 104.965232080037,45.628981618300784 L 102.82677115964525,44.91009228224807 L 101.56712977174448,44.23523437524275 L 98.38873239157515,43.97605441258416 L 97.84679366886861,44.02984625407381 L 97.46108949505776,44.61667365548289 L 96.6115639329831,44.58733199043206 L 95.76692068931152,43.97116426153656 L 95.11757066175396,42.15697593324776 L 94.47310301259135,41.286600850339475 L 93.6577537393381,40.49448655373276 L 92.92540411892863,40.13266435626636 L 92.39323003303426,40.421143773633936 L 91.22147061638236,40.89543036549867 L 90.39147432792802,40.993222447088876 L 90.87970742819293,40.13266435626636 L 90.32312169028532,39.145012651620924 L 89.42477282418616,38.352961924811424 L 88.26766042273736,37.82494117920916 L 86.96407804921718,37.63426957689158 L 86.14384645756084,37.326264465478616 L 85.177144953821,36.553822736935615 L 79.57222908749404,30.008511360695326 L 79.3183478705595,29.451328465211684 L 79.17187795847599,28.70354824862599 L 78.9082320447334,28.04375916774086 L 78.35164636681965,27.75541190851857 L 77.5509440487736,27.545262411852875 L 77.10665199412198,27.032113427835945 L 76.49636057378689,25.70285776871728 L 74.14795942208002,22.448406612889567 L 73.41560980166855,21.9793280706267 L 72.83461241174767,21.402763244207595 L 70.7352101585783,17.841029294755195 L 69.74897932122626,17.15218656084115 L 66.89769805404336,15.667079384934167 L 66.00423150634126,15.383745469971087 L 65.28652884114902,15.056449478724353 L 58.59285321101396,9.239026745270158 L 58.446383238936555,9.033899975491687 L 57.181859532634725,8.008288244415864 L 56.78150840360864,7.173174239084166 L 56.31280463694788,3.9062061230992486 L 56.332333970560065,2.695226249119446 L 56.78150840360864,1.8553826926284356 L 58.78326410872492,0.1855329833335716 L 59.80855355329942,0.0 L 61.19513557966339,0.19529788446223137 L 62.39618896673562,0.6396054687665641 L 63.10412693512782,1.4159392931984756 L 63.51912507935701,1.6112466876760378 L 63.953652497204494,1.9237411519149779 L 64.14406339491345,2.455966042451612 L 64.40770930865604,2.988200593080141 L 64.97894200177286,2.9979664913279414 L 65.56482171009883,2.783118266770162 L 65.82358524544446,2.6463974783708477 L 68.09875144111358,3.310475825913704 L 69.69039132039774,4.506831755673154 L 72.77602447091103,8.008288244415864 L 73.62066771458261,8.740864329924227 L 76.33036132809922,10.55773381732571 L 78.89846740792123,11.24641618600843 L 82.64321522280623,13.781496773065296 L 85.14785098340268,14.973404863526115 L 87.31560587421275,15.373975410542517 L 88.34089537878113,15.891794542119413 L 89.08300969599061,16.14093728810914 L 89.73724198195936,16.526868726616666 L 90.02041722931415,17.249893715279622 L 90.25476911264452,17.689580115006876 L 90.80159015375212,17.757976407896006 L 91.47535183332494,17.72377827063692 L 92.07099617845702,17.841029294755195 L 92.66175820518805,18.33935159894866 L 93.95069356350312,20.112864755968797 L 96.23562445597429,21.9793280706267 L 96.73850451145444,22.858856869765166 L 96.9093861355471,23.90944169989811 L 97.02167969881533,26.48965208702099 L 97.685676741584,29.187403716809847 L 98.66214288213,31.479724382236675 L 99.24802259045595,32.24224489600081 L 99.87296096599823,32.882583122317655 L 100.4246643855028,33.65003136181211 L 100.74689818008815,34.75969246011986 L 101.66965875820247,34.2073004225184 L 101.97236327916752,33.909111152813246 L 102.44594936423135,34.960120725600206 L 103.23688698546935,35.742293944444484 L 104.27682344525498,36.24094123400851 L 105.4778768323252,36.402270290816325 L 106.28834378716937,36.77870850452763 L 106.86934117709224,37.639158563058785 L 107.22086900208781,38.665868083097294 L 107.338044943753,39.4970427298263 L 107.67492575354748,40.01531768347345 L 108.46586337478348,40.391806754221534 L 110.20397316615315,40.95410554725905 L 110.88261716412903,41.34527695570317 L 111.61984910293957,41.932044839621746 L 112.27408144890822,42.65085314745969 L 112.69884422994353,43.41369153285863 L 113.07478370695236,43.41369153285863 L 113.22125367902976,42.41613807506887 L 113.66554579367526,42.3819089949264 L 114.29536642763678,42.75354168314266 L 114.95448115199436,43.0029296561767 L 116.24341651031145,43.00781968822677 L 116.84394317385262,42.890460310098625 L 119.02146276146273,42.09340828955442 L 120.19322217811462,42.04939997312212 L 121.00368913296481,42.63618343206678 L 121.29662895713184,44.02984625407381" fill="none" stroke="#000000" stroke-width="0.7989934522448364"/>
</svg>
