<?xml version="1.0" ?>
<svg xmlns="http://www.w3.org/2000/svg" xmlns:ev="http://www.w3.org/2001/xml-events" xmlns:xlink="http://www.w3.org/1999/xlink" baseProfile="full" height="356px" version="1.1" viewBox="-80.10009819409059 -47.59850795121439 957.2160988169433 567.1970159024288" width="600px">
	<defs/>
	<path d="M 23.910991828078604,469.1655281551404 L 23.737257465884426,470.1124802045658 L 23.1903161046416,471.28000220177154 L 22.385990494333985,472.0 L 21.530188018393428,471.6432418958619 L 21.440103543083755,470.7935284287117 L 22.109302479955982,469.9762726299698 L 23.08736237338961,469.386048172519 L 23.910991828078604,469.1655281551404" fill="none" stroke="#000000" stroke-width="0.7970159024287621"/>
	<path d="M 102.78637882042685,468.61423623479357 L 102.78637882042685,467.4273762057501 L 103.23036652948652,467.1290481722098 L 103.45557767823158,467.583026936733 L 102.78637882042685,468.61423623479357" fill="none" stroke="#000000" stroke-width="0.7970159024287621"/>
	<path d="M 563.4912210639044,128.3700891361389 L 564.0960738792113,129.14056975166042 L 564.2891120857776,129.51939400144883 L 564.3405888723331,130.0137963816493 L 564.0059894829651,129.6349681372648 L 563.8000820995286,129.24330142926993 L 563.4912210639044,128.3700891361389" fill="none" stroke="#000000" stroke-width="0.7970159024287621"/>
	<path d="M 22.778501337765334,440.2996543592323 L 24.400021814327513,441.4270021298182 L 25.12713212619498,442.18507249229367 L 24.72175202682594,442.5219994465239 L 23.698649856203726,442.936684452308 L 20.996115834024092,444.9842844578104 L 19.54832971965146,445.78133506885223 L 13.705708396531957,445.632291294231 L 7.309711123729246,447.60232710919 L 2.1362888165587344,447.8421110141205 L 0.0,442.5219994465239 L 1.8274277809344612,444.7639656677411 L 5.276376038426471,445.7748549050246 L 8.944100777165577,445.5674899223212 L 11.402119885290903,444.1483784835789 L 12.779125289658477,444.21965634033575 L 14.915414185285377,443.5457645777714 L 16.935880093713337,442.63214957895104 L 17.965416852771305,441.9323800298286 L 18.454446839023525,442.5219994465239 L 19.007822867774237,441.9323800298286 L 19.79284471277327,442.32113868982134 L 20.66795095402307,442.5219994465239 L 20.66795095402307,441.9323800298286 L 19.876494520580348,441.4205230030954 L 19.406768378708847,440.68191072788727 L 19.14938420871222,439.7619128376452 L 19.007822867774237,438.71237567397355 L 22.778501337765334,440.2996543592323" fill="none" stroke="#000000" stroke-width="0.7970159024287621"/>
	<path d="M 6.048528627487154,439.8007854196677 L 5.906967286549832,439.54163626159317 L 5.945574896235163,439.3602333357924 L 5.88122885373733,439.25657509521255 L 5.456544909982944,439.21122476332744 L 5.43724114467833,438.8419459796595 L 5.585237074050744,438.77716075017076 L 5.8168828112348665,438.80307483949025 L 8.525851500921725,437.8183571576899 L 11.569419579972562,438.01270650356946 L 14.68376836903309,438.56984899808924 L 17.37343321433857,438.71237567397355 L 16.07364302934298,439.95627606158826 L 13.60275474434747,440.25430221775633 L 11.11899728247847,439.904445722816 L 9.780599408724754,439.21122476332744 L 8.776801082483257,439.7619128376452 L 6.981546322799696,439.5027641275375 L 6.048528627487154,439.8007854196677" fill="none" stroke="#000000" stroke-width="0.7970159024287621"/>
	<path d="M 793.8243383412621,268.44222488953733 L 794.7509214481349,264.29323896722565 L 795.5874200796987,262.67629592438215 L 797.015902428762,261.90328120364427 L 796.6619991159446,263.63614574093094 L 795.8319350728206,265.3497671576512 L 793.8243383412621,268.44222488953733" fill="none" stroke="#000000" stroke-width="0.7970159024287621"/>
	<path d="M 516.6730357339919,252.74431805787236 L 517.0977196777417,253.59441972695313 L 516.7952932305571,253.51713697353483 L 516.6987741668078,253.33037090399839 L 516.6987741668078,253.07276404562768 L 516.6730357339919,252.74431805787236" fill="none" stroke="#000000" stroke-width="0.7970159024287621"/>
	<path d="M 725.4888342489019,162.60478075908605 L 725.4116189504571,163.51720885201036 L 725.2700576885873,163.79993691213323 L 725.2571884326456,163.47222951264723 L 725.4888342489019,162.60478075908605" fill="none" stroke="#000000" stroke-width="0.7970159024287621"/>
	<path d="M 747.3793601685485,0.0 L 747.8683900757293,1.627076110177646 L 747.2892756932335,1.620670237580884 L 746.7616380972993,0.7943156930867906 L 747.3793601685485,0.0" fill="none" stroke="#000000" stroke-width="0.7970159024287621"/>
	<path d="M 715.7983192364146,55.83139392178888 L 714.3505331220421,56.13914955050653 L 713.2502157320524,54.837611145527376 L 712.7290127245526,52.9462661402587 L 713.044308348612,51.48452374375314 L 714.3569677104817,51.91406696757757 L 715.7725808036034,52.90779869801298 L 716.5061257829782,54.26058393963285 L 715.7983192364146,55.83139392178888" fill="none" stroke="#000000" stroke-width="0.7970159024287621"/>
	<path d="M 760.9905796293556,43.019008951834174 L 761.9608307325244,43.429066607647755 L 762.4900586069812,44.42493285759703 L 762.9898849328562,45.1864890773777 L 762.4606570584001,45.45010700658119 L 761.9608307325244,45.91876404649555 L 761.7550198924586,46.592465151368096 L 761.1963904694214,46.44600772558481 L 760.49075330348,45.74301721475386 L 760.3143440119946,44.77641910997735 L 760.7259656921276,43.80983699796741 L 760.9905796293556,43.019008951834174" fill="none" stroke="#000000" stroke-width="0.7970159024287621"/>
	<path d="M 763.901332938864,41.4373847864576 L 764.2835530704159,41.52525168137503 L 765.0479933335189,42.345349017880686 L 765.1655995278427,42.960429520556545 L 764.6951747505482,43.077588441550866 L 764.2835530704159,42.638243692683865 L 763.7543251959592,41.90600973917989 L 763.901332938864,41.4373847864576" fill="none" stroke="#000000" stroke-width="0.7970159024287621"/>
	<path d="M 763.7249236473787,38.7428633918386 L 763.9895375846068,38.7721510097329 L 764.0777422303494,39.270042722236404 L 764.312954618997,39.7679386102251 L 764.0189391331878,39.797226733800514 L 763.7249236473787,39.182179175622096 L 763.7249236473787,38.7428633918386" fill="none" stroke="#000000" stroke-width="0.7970159024287621"/>
	<path d="M 767.9587466430273,42.75540197115016 L 768.3409667745791,42.989719228891744 L 768.2527621288365,43.45835654987233 L 768.1645574830944,43.985578012654905 L 767.8705419972853,43.83912713046451 L 767.7823373515427,43.25332726143916 L 767.9587466430273,42.75540197115016" fill="none" stroke="#000000" stroke-width="0.7970159024287621"/>
	<path d="M 769.5497787225961,62.02123581240265 L 769.888175065646,62.1204186977695 L 770.2862884104106,62.636172553960726 L 770.3460054121261,62.99323572122367 L 769.9279864001226,63.13209424004236 L 769.470156053643,63.092420342053444 L 768.9924200399246,62.616335778664684 L 768.9526087054487,62.31878499916683 L 769.2113823795456,62.1204186977695 L 769.5497787225961,62.02123581240265" fill="none" stroke="#000000" stroke-width="0.7970159024287621"/>
	<path d="M 733.0144015667528,72.08802124061168 L 732.2371690963726,72.01424257689753 L 731.459936623452,70.87068654692513 L 730.7197151937709,69.83781792425447 L 730.7974867713424,69.52508971213223 L 730.51978174572,69.42129780368248 L 730.55449488281,68.93693824694802 L 731.2140443453283,68.83314752836233 L 731.5264625791476,68.24500351709095 L 733.1579798091079,69.38670061565182 L 732.9740002180806,68.8366071827298 L 733.3878079754531,68.60849136497836 L 734.3729394650876,69.83646662363532 L 734.0952343683568,70.66681362102962 L 733.2274060832918,71.3587791917216 L 733.0144015667528,72.08802124061168" fill="none" stroke="#000000" stroke-width="0.7970159024287621"/>
	<path d="M 734.0877225926823,74.44899077433855 L 733.5695676213792,73.74806717360958 L 733.1994569199886,73.26849309791254 L 733.3104901304055,72.60447449049535 L 733.0144015667528,72.08802124061168 L 733.2274060832918,71.3587791917216 L 734.0952343683568,70.66681362102962 L 734.3729394650876,69.83646662363532 L 734.7687773831624,69.97454864311516 L 735.0324889276012,72.05075359137497 L 735.3821602754816,73.14611648700988 L 735.1517219315816,74.6637237067076 L 734.0877225926823,74.44899077433855" fill="none" stroke="#000000" stroke-width="0.7970159024287621"/>
	<path d="M 734.2168853574855,77.61643949818142 L 734.0507115331872,77.32656269887457 L 733.7176119019354,76.47803183575743 L 733.0144015692937,76.21978598506415 L 732.4592355172068,76.58870901049592 L 731.867058394982,76.29357038667341 L 732.2371690963726,74.85479287791163 L 733.550260223764,74.8617698127591 L 734.0877225926823,74.44899077433855 L 735.1517219315816,74.6637237067076 L 735.1019152017845,74.9917435519028 L 735.2060546130585,76.41039627254642 L 735.518472846878,77.20624224558908 L 735.553185983972,77.6906760510543 L 734.2168853574855,77.61643949818142" fill="none" stroke="#000000" stroke-width="0.7970159024287621"/>
	<path d="M 736.7895307234793,77.10520552225823 L 736.903823311063,78.18659230831086 L 737.4927410561216,78.65472505610086 L 737.7518185470947,79.76155235114918 L 736.3083868116705,79.76155235114918 L 735.0870214970814,79.13434738540822 L 734.2168853574855,77.61643949818142 L 735.553185983972,77.6906760510543 L 735.518472846878,77.20624224558908 L 736.7895307234793,77.10520552225823" fill="none" stroke="#000000" stroke-width="0.7970159024287621"/>
	<path d="M 736.9745860741749,74.4858817800761 L 736.3083868116705,74.67033701251361 L 736.0863203908362,75.5557309446005 L 736.7895307234793,77.10520552225823 L 735.518472846878,77.20624224558908 L 735.2060546130585,76.41039627254642 L 735.1019152017845,74.9917435519028 L 735.1517219315816,74.6637237067076 L 735.3821602754816,73.14611648700988 L 735.518472846878,73.57312837411554 L 736.9745860741749,74.4858817800761" fill="none" stroke="#000000" stroke-width="0.7970159024287621"/>
	<path d="M 736.8319853819779,70.72638447283411 L 736.4564310922274,72.19868935815884 L 736.7525196533398,72.67825393266422 L 736.9745860741749,74.4858817800761 L 735.518472846878,73.57312837411554 L 735.3821602754816,73.14611648700988 L 735.0324889276012,72.05075359137497 L 734.7687773831624,69.97454864311516 L 735.0672020646952,70.0786498258819 L 736.8319853819779,70.72638447283411" fill="none" stroke="#000000" stroke-width="0.7970159024287621"/>
	<path d="M 737.0115971443136,70.02225731568365 L 736.8319853819779,70.72638447283411 L 735.0672020646952,70.0786498258819 L 735.2520043750287,69.79835623218423 L 737.0115971443136,70.02225731568365" fill="none" stroke="#000000" stroke-width="0.7970159024287621"/>
	<path d="M 735.8327708135652,68.91750485561575 L 736.0493093206975,69.06317932538964 L 737.0115971443136,70.02225731568365 L 735.2520043750287,69.79835623218423 L 735.8327708135652,68.91750485561575" fill="none" stroke="#000000" stroke-width="0.7970159024287621"/>
	<path d="M 734.1232873185182,67.7554309568347 L 734.5688665151346,68.06723155983235 L 735.8327708135652,68.91750485561575 L 735.2520043750287,69.79835623218423 L 735.0672020646952,70.0786498258819 L 734.7687773831624,69.97454864311516 L 734.3729394650876,69.83646662363532 L 733.3878079754531,68.60849136497836 L 733.9216686829002,68.31419653917887 L 734.1232873185182,67.7554309568347" fill="none" stroke="#000000" stroke-width="0.7970159024287621"/>
	<path d="M 732.8293461831263,66.84998665410431 L 734.1232873185182,67.7554309568347 L 733.9216686829002,68.31419653917887 L 732.7761353722167,67.44928930657478 L 732.8293461831263,66.84998665410431" fill="none" stroke="#000000" stroke-width="0.7970159024287621"/>
	<path d="M 732.5222924802484,66.45437896122549 L 732.8293461831263,66.84998665410431 L 732.7761353722167,67.44928930657478 L 732.8455615752885,67.86444307011928 L 732.7067090980333,68.03742476337317 L 732.9740002180806,68.8366071827298 L 733.1579798091079,69.38670061565182 L 731.5264625791476,68.24500351709095 L 731.9430201531335,67.41469329569341 L 732.1512989756802,66.99954293851503 L 732.5222924802484,66.45437896122549" fill="none" stroke="#000000" stroke-width="0.7970159024287621"/>
	<path d="M 731.6306415975561,65.72026622172785 L 731.9399089618169,65.7040444211161 L 732.5222924802484,66.45437896122549 L 732.1512989756802,66.99954293851503 L 731.9430201531335,67.41469329569341 L 731.2140443453283,66.2384420454965 L 731.6306019904217,66.06546609442422 L 731.6306415975561,65.72026622172785" fill="none" stroke="#000000" stroke-width="0.7970159024287621"/>
	<path d="M 734.8795048239241,65.976549462938 L 735.0755827057498,66.04551813444444 L 735.2947285736727,66.60876552250718 L 735.2139906223326,66.82716912420334 L 734.9602427752641,66.85015902754442 L 734.637290969904,66.73520960710125 L 734.4066111089332,66.51680637105932 L 734.118261282719,66.40185764815594 L 734.0951932966225,66.05701292143316 L 734.2566691993018,65.90758087786733 L 734.5334850324675,65.91907563604437 L 734.7295629142926,66.05701292143316 L 734.8795048239241,65.976549462938" fill="none" stroke="#000000" stroke-width="0.7970159024287621"/>
	<path d="M 735.0871166987984,65.39031924330683 L 735.2024566292835,65.41330854616099 L 735.3985345111091,65.58572862325734 L 735.6638163512257,65.65469680517974 L 735.7676222886628,65.85010712299166 L 735.6292143720799,66.0340233498571 L 735.421602497207,65.94206515960005 L 735.1563206570899,65.76964396696623 L 735.017912740507,65.5627392484702 L 735.0871166987984,65.39031924330683" fill="none" stroke="#000000" stroke-width="0.7970159024287621"/>
	<path d="M 734.5911549977104,63.769597522627244 L 734.7064949281955,63.67764310457972 L 735.052514719652,63.574194566776335 L 735.421602497207,63.65465452392537 L 735.7445543025664,63.65465452392537 L 735.894496212197,63.74660890379894 L 735.7445543025664,64.06845043623734 L 735.490806455497,64.41328272742255 L 734.9717767683127,64.6201831347379 L 734.6488249629533,64.83857884990866 L 734.4988830533212,64.86156792281105 L 734.4642810741761,64.63167762452957 L 734.5450190255161,64.21787749838964 L 734.4988830533212,63.94201246813803 L 734.5911549977104,63.769597522627244" fill="none" stroke="#000000" stroke-width="0.7970159024287621"/>
	<path d="M 731.4998405279222,65.13039845630321 L 731.7308363555346,65.47965652070594 L 731.3688840970649,65.59407909297333 L 731.3287736511464,65.73609991008188 L 731.6306415975561,65.72026622172785 L 731.6306019904217,66.06546609442422 L 731.2140443453283,66.2384420454965 L 731.9430201531335,67.41469329569341 L 731.5264625791476,68.24500351709095 L 730.4156423344466,67.69146199427415 L 730.1032241006266,66.5498002562819 L 729.6172402524573,66.10006118442973 L 730.5892080199034,65.33897280875543 L 731.4998405279222,65.13039845630321" fill="none" stroke="#000000" stroke-width="0.7970159024287621"/>
	<path d="M 731.586093781955,63.5884233233747 L 731.586093781955,64.21348476218702 L 731.4998405279222,65.13039845630321 L 730.5892080199034,65.33897280875543 L 730.6933473600691,64.71627190908951 L 730.0685109635326,64.05898412852625 L 731.1446181422518,63.50548469795404 L 731.586093781955,63.5884233233747" fill="none" stroke="#000000" stroke-width="0.7970159024287621"/>
	<path d="M 731.8962663568979,61.448139934251955 L 732.1620095567366,62.39707874170294 L 731.8372123124891,62.75017638539444 L 731.586093781955,63.5884233233747 L 731.1446181422518,63.50548469795404 L 730.0685109635326,64.05898412852625 L 729.9643716233668,63.36711068688674 L 730.0685109635326,62.67524595239275 L 730.55449488281,61.672057329739054 L 731.5264625791476,61.84501954821127 L 731.8962663568979,61.448139934251955" fill="none" stroke="#000000" stroke-width="0.7970159024287621"/>
	<path d="M 729.4314690158286,62.672533851387136 L 729.5619391660821,62.08942270798855 L 729.5114502273104,60.751694486432605 L 730.0582555052788,60.59143163276195 L 730.6050607832465,60.639510440569204 L 731.1876178239946,60.72725148909408 L 731.8962663568979,61.448139934251955 L 731.5264625791476,61.84501954821127 L 730.55449488281,61.672057329739054 L 730.0685109635326,62.67524595239275 L 729.4314690158286,62.672533851387136" fill="none" stroke="#000000" stroke-width="0.7970159024287621"/>
	<path d="M 727.9872899651391,64.70948514911817 L 728.2399735213519,64.59999894864866 L 728.6100842227431,63.97296954036797 L 728.912044073582,63.34624250668844 L 729.3495971942073,63.0384472750365 L 729.4314690158286,62.672533851387136 L 730.0685109635326,62.67524595239275 L 729.9643716233668,63.36711068688674 L 730.0685109635326,64.05898412852625 L 729.6866665266367,64.37033003118292 L 729.8949453491834,64.88924369604572 L 729.339535226835,65.58113612534925 L 728.8882645157552,64.71627190908951 L 728.1940018450392,64.95843256258614 L 727.9872899651391,64.70948514911817" fill="none" stroke="#000000" stroke-width="0.7970159024287621"/>
	<path d="M 725.303393275472,65.84523507853889 L 725.9305679673763,65.24519949031561 L 726.420762671939,65.04404402863057 L 727.3887189081534,64.96884310107447 L 727.9872899651391,64.70948514911817 L 728.1940018450392,64.95843256258614 L 728.8882645157552,64.71627190908951 L 729.339535226835,65.58113612534925 L 728.2634281192232,65.99627583793392 L 728.4022805964784,66.584395721923 L 727.534452311418,66.96494721132471 L 725.303393275472,65.84523507853889" fill="none" stroke="#000000" stroke-width="0.7970159024287621"/>
	<path d="M 730.7197151937709,69.83781792425447 L 729.6463941866373,69.72715459766793 L 728.2769845914913,68.91563036250216 L 727.5741619767949,68.49252519384231 L 726.981597136624,68.47298586589896 L 726.4063451806288,68.26261970268965 L 726.4434745791872,67.94708285249324 L 726.8532874112601,67.87465637762548 L 726.6514425329104,67.63038458360053 L 726.0170729152403,67.42922039460701 L 725.238528384462,67.60164679710017 L 724.5753237841701,67.4004827135975 L 724.1283815535387,67.07000046451873 L 724.2581389753353,66.7969948906777 L 724.8636736103837,66.85446963549127 L 725.079935980045,66.68204558152262 L 724.8492561190735,66.27972489345679 L 725.303393275472,65.84523507853889 L 727.534452311418,66.96494721132471 L 728.4022805964784,66.584395721923 L 728.2634281192232,65.99627583793392 L 729.339535226835,65.58113612534925 L 729.6172402524573,66.10006118442973 L 730.1032241006266,66.5498002562819 L 730.4156423344466,67.69146199427415 L 731.5264625791476,68.24500351709095 L 731.2140443453283,68.83314752836233 L 730.55449488281,68.93693824694802 L 730.51978174572,69.42129780368248 L 730.7974867713424,69.52508971213223 L 730.7197151937709,69.83781792425447" fill="none" stroke="#000000" stroke-width="0.7970159024287621"/>
	<path d="M 723.8977016925672,68.37757232741758 L 724.1716340274713,68.47815607231807 L 724.5176538189279,68.73680083784969 L 724.7771686625204,68.93796983554991 L 724.7050812059666,69.05292388134177 L 724.459983853685,68.9523390780349 L 724.0707115882965,68.89486213079103 L 723.840031727325,68.7224316520857 L 723.7246917968394,68.53563258107933 L 723.8977016925672,68.37757232741758" fill="none" stroke="#000000" stroke-width="0.7970159024287621"/>
	<path d="M 726.7667824633961,69.11040099503754 L 726.9397923591241,69.1822474723003 L 727.2281421853384,69.35467940382588 L 727.3867345897554,69.61332832359638 L 727.3146471332024,69.85760898625658 L 727.271394659271,70.00130400556161 L 727.1704722200956,70.03004305493997 L 726.8532874112601,69.67080602802403 L 726.6514425329104,69.48400371029804 L 726.6658600242213,69.32594071071232 L 726.5649375850464,69.1966167791078 L 726.6226075502893,69.09603171093856 L 726.7667824633961,69.11040099503754" fill="none" stroke="#000000" stroke-width="0.7970159024287621"/>
	<path d="M 749.2090834569698,39.62707369620669 L 749.7858593601165,39.42110353678661 L 750.3263662119983,39.324957487180306 L 750.9183498504304,39.299318551169485 L 752.0444056732372,40.32488408637984 L 753.1096062714075,40.76351390536917 L 754.2576250043288,40.96876355638348 L 754.8750575245283,41.730274945332205 L 755.6688993362123,41.37880692922341 L 756.6685519879629,41.52525168137503 L 757.4494737966639,42.4786296757718 L 756.1754220444841,42.5363203820203 L 755.9630800726053,43.19015221291599 L 755.9437762894407,44.02988820493891 L 754.3274536966152,43.13250676450378 L 753.8129266083808,42.3636549084081 L 749.2090834569698,39.62707369620669" fill="none" stroke="#000000" stroke-width="0.7970159024287621"/>
	<path d="M 751.5232457166618,38.52279064132062 L 751.7584933749533,38.24497609366988 L 752.3171227979899,38.24497609366988 L 753.6107909355496,38.33283825539468 L 753.963609518521,38.36212567145073 L 753.8460033241972,38.7428633918386 L 753.110964609674,38.7428633918386 L 753.1991692554174,39.21146701004809 L 753.1697677068363,39.47505817007909 L 752.2066111864897,39.14516167355695 L 751.5232457166618,38.52279064132062" fill="none" stroke="#000000" stroke-width="0.7970159024287621"/>
	<path d="M 755.9437762894407,44.02988820493891 L 755.2424043491723,44.670916069315844 L 754.2643443766711,44.64527480603285 L 753.1575923191737,44.18373422615677 L 752.4111781629241,43.42091817322134 L 751.9618720781665,42.44113607721602 L 750.8918325748696,42.26337048746277 L 749.9355973629382,42.14032361315189 L 749.3475663913199,41.55454067543829 L 749.2839601969987,40.978691463242136 L 748.7627571894989,39.78645999357512 L 749.2090834569698,39.62707369620669 L 753.8129266083808,42.3636549084081 L 754.3274536966152,43.13250676450378 L 755.9437762894407,44.02988820493891" fill="none" stroke="#000000" stroke-width="0.7970159024287621"/>
	<path d="M 747.6422765736272,42.28677025793111 L 747.9068905108559,42.3746384197274 L 747.8480874136936,42.75540197115016 L 747.4364657335614,42.81398119797023 L 747.407064184981,42.462506712762 L 747.6422765736272,42.28677025793111" fill="none" stroke="#000000" stroke-width="0.7970159024287621"/>
	<path d="M 746.3780099846492,43.75125677690421 L 746.5250177275542,43.89770743939597 L 746.7014270190389,44.2784808760642 L 746.4662146303925,44.2784808760642 L 746.1133960474212,43.956287806918475 L 746.3780099846492,43.75125677690421" fill="none" stroke="#000000" stroke-width="0.7970159024287621"/>
	<path d="M 747.9362920594364,32.97348239281162 L 748.2303075452455,33.03205200800875 L 748.6125276767973,33.14919140855749 L 748.3479137395693,33.35418590564855 L 747.7598827679517,33.29561597839241 L 747.3482610878187,33.20776119393097 L 747.4364657335614,33.002767193321944 L 747.9362920594364,32.97348239281162" fill="none" stroke="#000000" stroke-width="0.7970159024287621"/>
	<path d="M 729.8949453491834,64.88924369604572 L 729.6866665266367,64.37033003118292 L 730.0685109635326,64.05898412852625 L 730.6933473600691,64.71627190908951 L 730.5892080199034,65.33897280875543 L 729.8949453491834,64.88924369604572" fill="none" stroke="#000000" stroke-width="0.7970159024287621"/>
	<path d="M 729.339535226835,65.58113612534925 L 729.8949453491834,64.88924369604572 L 730.5892080199034,65.33897280875543 L 729.6172402524573,66.10006118442973 L 729.339535226835,65.58113612534925" fill="none" stroke="#000000" stroke-width="0.7970159024287621"/>
	<path d="M 732.9740002180806,68.8366071827298 L 732.7067090980333,68.03742476337317 L 732.8455615752885,67.86444307011928 L 732.7761353722167,67.44928930657478 L 733.9216686829002,68.31419653917887 L 733.3878079754531,68.60849136497836 L 732.9740002180806,68.8366071827298" fill="none" stroke="#000000" stroke-width="0.7970159024287621"/>
</svg>
