<?xml version="1.0" ?>
<svg xmlns="http://www.w3.org/2000/svg" xmlns:ev="http://www.w3.org/2001/xml-events" xmlns:xlink="http://www.w3.org/1999/xlink" baseProfile="full" height="303px" version="1.1" viewBox="-79.68629518636557 -40.39644922978292 952.2710499385576 480.79289845956583" width="600px">
	<defs/>
	<path d="M 451.10430108175524,383.4884555277022 L 444.8833997207912,390.905412331709 L 433.50803369958174,395.7617476807396 L 405.4251022475965,400.0 L 352.10308194076794,398.9404355958665 L 325.79755101991935,392.2298664677678 L 314.599926799019,379.25019098123005 L 295.93721903657826,349.49394738262686 L 250.61350112054052,328.83224737646435 L 196.0472991314604,316.2056134566882 L 149.30165991674207,311.1726112401591 L 54.3884623727973,313.644963907721 L 15.818867349361627,304.28533788120666 L 0.0,274.2637840402064 L 9.420223689471412,240.00368827767556 L 74.65083105038417,148.25969342988745 L 84.07105473989213,107.19952760549442 L 94.91319972808067,84.06440623256229 L 119.44132793340097,59.25142760995742 L 148.41295965119204,41.76747349292365 L 169.3862889780461,38.32365732708616 L 217.02062845831446,44.50486371964393 L 266.0768868982872,38.323656884996986 L 263.5085437314262,59.258970927117886 L 259.2674557790837,83.13830889708882 L 257.8537591403062,101.39890002287552 L 257.8537591403062,126.6826887158397 L 269.16332832239993,142.1338295169086 L 284.71398545683616,157.58492333723774 L 300.26464455544516,170.2266934838571 L 321.4700862808552,187.0823379213755 L 322.88378291977887,201.1286652272965 L 314.4016050510673,210.96107382971636 L 305.9194291465286,219.38883560405858 L 310.1605170987249,229.22120778287467 L 327.12487087197513,234.83969815172227 L 344.08922464518884,248.88589873622544 L 362.46727309300724,268.55051434617906 L 365.29466637070846,296.64269743096804 L 363.8809697317848,314.90253783995917 L 369.5357543229047,335.97150660107144 L 390.7411960484609,358.4449837477766 L 410.53294309922967,369.68168768927984 L 435.9794727769821,379.51378430943555 L 451.10430108175524,383.4884555277022" fill="none" stroke="#000000" stroke-width="0.7928984595658265"/>
	<path d="M 562.8588178773116,311.1775913664615 L 540.1520764973017,319.8258395316978 L 463.72384709966093,371.83321892998265 L 451.10430108175524,383.4884555277022 L 435.9794727769821,379.51378430943555 L 410.53294309922967,369.68168768927984 L 390.7411960484609,358.4449837477766 L 369.5357543229047,335.97150660107144 L 363.8809697317848,314.90253783995917 L 365.29466637070846,296.64269743096804 L 362.46727309300724,268.55051434617906 L 380.8453235049985,254.50436808505532 L 400.63707055594995,234.83969815172227 L 400.63707055594995,212.36570043835212 L 390.7411960484609,196.91477123554267 L 402.05076523055465,180.0591589620741 L 424.66990359488835,167.41741501039402 L 441.63425736810206,153.3709936591684 L 438.8068660545737,136.51523813304652 L 430.3246881858621,119.65942659116456 L 416.1877276903496,104.20821702232303 L 421.84251228136,85.94763420306252 L 438.8068660545737,69.09165272826462 L 458.59861114131576,67.68698648821365 L 485.45883745784573,69.09165272826462 L 510.90536909973446,66.28231789862677 L 526.533118548675,47.8651886642362 L 587.6189668978617,78.18027727114297 L 577.3490875538118,91.56628202173749 L 568.8669096851368,112.63615468698436 L 564.6258217328309,135.1105888271539 L 546.2477713208032,142.1338295169086 L 532.1108108251444,149.15706049988918 L 516.5601536907448,164.60813304526243 L 508.0779758220698,185.67770250484187 L 508.0779758220698,206.74718587200923 L 512.3190657385485,229.22120778287467 L 525.042329595247,250.29051712263353 L 540.592988693856,274.1689628173891 L 556.1436458282922,299.4519085893127 L 562.8588178773116,311.1775913664615" fill="none" stroke="#000000" stroke-width="0.7928984595658265"/>
	<path d="M 710.7296337994711,127.3347831213613 L 754.1511227420451,137.13374433785125 L 784.3669361420148,148.25969342988745 L 792.8984595658264,161.59313622994102 L 767.6593685270666,203.35926583033373 L 730.5116948023115,247.77403861688748 L 685.7211957351587,283.27026834952716 L 636.6649371403457,297.66295065660137 L 582.8096936163604,303.57894998165926 L 562.8588178773116,311.1775913664615 L 556.1436458282922,299.4519085893127 L 540.592988693856,274.1689628173891 L 525.042329595247,250.29051712263353 L 512.3190657385485,229.22120778287467 L 508.0779758220698,206.74718587200923 L 508.0779758220698,185.67770250484187 L 516.5601536907448,164.60813304526243 L 532.1108108251444,149.15706049988918 L 546.2477713208032,142.1338295169086 L 564.6258217328309,135.1105888271539 L 561.798430419266,160.39420915863207 L 580.1764788672306,174.44060928565452 L 604.2093138703783,182.86843247532542 L 632.4832368256492,195.51013849233348 L 643.7928060077795,205.3425577448101 L 659.3434631422157,205.3425577448101 L 666.4119443720766,181.46379591023359 L 666.4119443720766,164.60813304526243 L 686.2036894587457,156.1802817987078 L 703.1680432319594,142.1338295169086 L 710.7296337994711,127.3347831213613" fill="none" stroke="#000000" stroke-width="0.7928984595658265"/>
	<path d="M 587.6189668978617,78.18027727114297 L 637.909116638571,103.13764323810814 L 699.7626603692113,124.8598546875309 L 710.7296337994711,127.3347831213613 L 703.1680432319594,142.1338295169086 L 686.2036894587457,156.1802817987078 L 666.4119443720766,164.60813304526243 L 666.4119443720766,181.46379591023359 L 659.3434631422157,205.3425577448101 L 643.7928060077795,205.3425577448101 L 632.4832368256492,195.51013849233348 L 604.2093138703783,182.86843247532542 L 580.1764788672306,174.44060928565452 L 561.798430419266,160.39420915863207 L 564.6258217328309,135.1105888271539 L 568.8669096851368,112.63615468698436 L 577.3490875538118,91.56628202173749 L 587.6189668978617,78.18027727114297" fill="none" stroke="#000000" stroke-width="0.7928984595658265"/>
	<path d="M 266.0768868982872,38.323656884996986 L 326.8639909018984,9.448487063009187 L 359.3904258663544,0.0 L 417.51142891796354,3.3555397684515302 L 473.49955002173454,21.546055692839744 L 526.533118548675,47.8651886642362 L 510.90536909973446,66.28231789862677 L 485.45883745784573,69.09165272826462 L 458.59861114131576,67.68698648821365 L 438.8068660545737,69.09165272826462 L 421.84251228136,85.94763420306252 L 416.1877276903496,104.20821702232303 L 430.3246881858621,119.65942659116456 L 438.8068660545737,136.51523813304652 L 441.63425736810206,153.3709936591684 L 424.66990359488835,167.41741501039402 L 402.05076523055465,180.0591589620741 L 390.7411960484609,196.91477123554267 L 400.63707055594995,212.36570043835212 L 400.63707055594995,234.83969815172227 L 380.8453235049985,254.50436808505532 L 362.46727309300724,268.55051434617906 L 344.08922464518884,248.88589873622544 L 327.12487087197513,234.83969815172227 L 310.1605170987249,229.22120778287467 L 305.9194291465286,219.38883560405858 L 314.4016050510673,210.96107382971636 L 322.88378291977887,201.1286652272965 L 321.4700862808552,187.0823379213755 L 300.26464455544516,170.2266934838571 L 284.71398545683616,157.58492333723774 L 269.16332832239993,142.1338295169086 L 257.8537591403062,126.6826887158397 L 257.8537591403062,101.39890002287552 L 259.2674557790837,83.13830889708882 L 263.5085437314262,59.258970927117886 L 266.0768868982872,38.323656884996986" fill="none" stroke="#000000" stroke-width="0.7928984595658265"/>
</svg>
