<?xml version="1.0" ?>
<svg xmlns="http://www.w3.org/2000/svg" xmlns:ev="http://www.w3.org/2001/xml-events" xmlns:xlink="http://www.w3.org/1999/xlink" baseProfile="full" height="600px" version="1.1" viewBox="-80.1182428307369 -82.00800000000001 957.3389139688428 980.0160000000001" width="587px">
	<defs/>
	<path d="M 535.5883185066642,0.0 L 542.2878607444852,0.695131525889891 L 551.2251320078873,3.3654848376539817 L 554.8819087017763,3.6889500636059154 L 557.8018722797532,6.235333739317814 L 559.7257734429321,12.153663646651387 L 563.3143264703294,29.706685845650803 L 565.2655170472779,32.82333321006112 L 584.8865799437518,45.22689037645378 L 595.7204629565185,55.62029960465152 L 604.9169835188363,67.43605502116523 L 611.193540239109,79.40837127440633 L 614.2908848746409,88.45013877305027 L 615.9009581753952,90.98716812632608 L 617.3745844072121,91.90845588869684 L 621.6726614008196,93.48974913184163 L 623.3918923566827,94.85788819681495 L 624.5380461512273,96.93411979095828 L 626.3118556706141,103.90495191161432 L 628.2630462475624,106.51028037971258 L 635.0308121518525,111.19143090182872 L 637.5960136147279,113.82404027045543 L 638.523852363079,116.01667698354582 L 639.8746766289629,123.3296583203812 L 641.7576435394202,125.79696764097042 L 644.5002260598499,127.08901344209964 L 646.5059954643377,128.80713049491004 L 646.2194570157278,132.58687209736442 L 644.7867647725208,139.20447417370343 L 645.9056291533032,143.91827445940223 L 648.7846584785806,147.91038194946853 L 652.714329046255,152.2458450701348 L 656.8486698212001,154.91847556965485 L 657.3671678909265,156.41621347608856 L 654.5427173931956,158.37422793363584 L 652.004805080067,160.7031797637618 L 655.2795305091078,161.78862954587856 L 659.9460141926866,161.99472628703424 L 661.651600309657,161.66497133019897 L 664.2440911862941,162.00846619498358 L 667.0548971091479,161.98098664289458 L 669.5109409168996,162.5443148708082 L 672.676508954855,167.23629308150504 L 675.8284321539179,170.0321300403099 L 679.3487620429521,172.38826022967305 L 682.1049891382289,173.6796409262789 L 693.3618574045128,183.4811771302978 L 693.7029746807218,186.79848854241104 L 692.6932679550698,189.74481963136702 L 691.1650626316309,192.69105660529564 L 689.9506854346627,196.02177039896563 L 689.9779748484244,198.30169456222987 L 691.0422604016309,202.8064398772776 L 690.7011433894894,205.26472950433615 L 688.5998611687781,208.36153242907582 L 685.8026998207791,210.09871802520226 L 682.8418022541409,211.41703458429367 L 680.2629559523731,213.2365556941106 L 675.555538280155,221.53037329851006 L 672.676508954855,233.0018135028615 L 674.5594761293727,242.64607163692364 L 684.0425351403004,245.52199652994517 L 694.9582861303902,245.1376298060288 L 705.4510518669777,246.2220893316249 L 711.6184514602028,247.9722976240946 L 714.7567300843959,250.53921143559057 L 715.0214286583355,252.26119163046914 L 715.2647547098334,253.84410827664527 L 715.1526390628012,253.8406214710947 L 705.0009906474576,253.52491974018704 L 700.3890856389415,254.55437822240987 L 684.465733445453,264.7934498959217 L 684.3702205748743,264.9169708420959 L 684.2883527393109,265.20518583715824 L 684.1519057134859,265.9051323817198 L 684.4793782430257,266.75604111543856 L 685.2161913750946,267.5932182005683 L 686.3077666318185,268.33431936186133 L 691.1652756219245,270.90068069560226 L 691.8884441938926,272.0671859302437 L 691.9566677067976,273.5630361120087 L 690.319305296618,276.33509991494174 L 688.7228765667704,277.48781549534755 L 686.935422095752,278.1876718879724 L 683.5242497746536,278.42095636994577 L 680.2495247168379,278.1876718879724 L 674.2595060773044,276.9937965464379 L 672.6630773474575,276.93890515524845 L 670.9574914243734,277.1584698138779 L 663.1390843960318,279.3540878757192 L 660.0553848419304,279.66970369645577 L 658.0359709494228,279.50503476514865 L 656.4258976594596,279.0521933803831 L 652.9192127052409,277.11730164310364 L 635.5631681653878,264.8757973704788 L 635.4403659371357,264.8071745595898 L 632.6841389125585,262.7210195991842 L 630.8284611660767,260.8955962717488 L 625.9163729857105,254.78772056875073 L 622.2323068504354,251.19143838144848 L 620.5267206898936,250.39529617452695 L 618.1116107549566,249.76386835464578 L 591.1224160704413,246.2634853430294 L 589.1575808932807,246.5380299321101 L 587.2473241940096,247.11457093867764 L 584.7094122682627,248.2264613959849 L 583.181206813863,249.15988993893143 L 582.0077637215751,250.1619429648806 L 581.1754377189127,251.15025869459967 L 578.3373423838578,255.58382548201845 L 577.3003460799382,258.1642579751399 L 576.6044668656431,261.10147257582406 L 576.2497049784452,266.35803658292105 L 576.0586794747309,267.6755627677755 L 575.6220492770706,269.0205190198531 L 575.0216829333535,270.24194213421873 L 573.5207670740846,272.38282589231096 L 571.6787341251755,274.2080283717394 L 563.9149060496381,279.3540878757192 L 561.4452173993546,280.57537845613837 L 542.1652718375724,287.3402226652645 L 539.8047406179825,288.6025746983858 L 538.945125257646,289.5904907394901 L 538.2628906034666,290.72932576944146 L 533.3917368157884,305.6427020353865 L 530.5945753985227,311.95309555387973 L 529.9123412192577,313.03679561214346 L 528.2749785716214,315.0395512532929 L 526.0099599851375,316.9462458410338 L 519.9244287124832,320.9104040168436 L 518.6691173097179,321.99400393585086 L 517.9050145825183,323.0090105504656 L 517.4138061444104,324.1337351502996 L 518.5463150814658,335.4214113797163 L 518.3962234955407,342.04528459680114 L 518.6281831544865,343.44405752245893 L 519.1057472699365,344.6782524649906 L 520.5247950562002,346.95461540962333 L 521.1524507575749,348.2436171835236 L 521.4799230496421,349.64230176194303 L 521.5072126447728,351.2055140414836 L 520.9341356587447,354.1673219487597 L 518.2597764697157,362.2844127347421 L 517.6594101260147,365.0950740972306 L 517.8231467469549,366.49351970278576 L 518.3416447801935,367.72742600510543 L 519.8698497596789,369.7976122475244 L 520.4156376255055,371.00405813811903 L 520.6885312022262,372.1693614053096 L 520.6885312022262,373.44432476128827 L 520.5793737715468,374.26687310120434 L 517.1682016879062,384.685228694507 L 515.6399962335065,387.7282796554857 L 514.1254358141218,389.77063610623264 L 512.720032825431,390.688997113383 L 511.24640656129264,391.004253661038 L 510.1002525892067,390.5108085120843 L 509.1041902030608,389.7295149251155 L 508.2036409249661,388.8248520577439 L 507.18028918114663,388.1120812693087 L 505.95226713605496,387.6460365504288 L 504.615087660269,387.5226712888108 L 503.25061882681007,387.19369635418485 L 502.10446485473847,386.57686596868234 L 500.15327447515074,384.8908431417154 L 499.0480546583106,384.21916750566004 L 497.76545366041466,383.82164329432624 L 496.2781825987036,383.9038895495982 L 483.0291895942285,387.22111093368284 L 481.39182694659235,387.30335486560074 L 479.9864239579014,387.19369635418485 L 478.5400870514367,386.8784277914097 L 474.542192946738,385.5076839419748 L 472.76838351074895,385.260947983845 L 470.694390665437,385.30207100396 L 467.6516250291099,385.7544192902969 L 465.87781559310537,386.412377318001 L 464.4178338890679,387.1525745901093 L 460.14704597019187,390.2229641660535 L 454.38898746453407,395.4725640930124 L 448.4535477778055,399.406157036294 L 444.52387718601125,400.1462585420476 L 429.56929825845214,399.35133477714425 L 426.4446643116621,399.7899143977419 L 423.4837667483407,400.53001283809635 L 417.7257080052258,403.1614300423962 L 416.1975027882678,404.1756036916008 L 415.37882158317825,405.1623574537027 L 414.77845523947667,406.3683767788286 L 414.5192062228573,407.91699390983894 L 414.0143527497337,414.5086295635764 L 412.73175175183826,420.42840189343525 L 411.5992425773246,422.45639238505527 L 409.7981435462048,424.772088878498 L 403.64438899808783,430.51314407663745 L 401.89786868231516,431.6777577543539 L 389.53578039583465,437.0074086080888 L 384.70556052594566,438.3774537215822 L 377.67854581994976,438.84326502839787 L 371.03358212136766,438.3500530184128 L 361.0183804943923,435.7469507964211 L 356.31096285275487,432.8423581210313 L 354.46892966638876,432.28061141509767 L 352.5859627997055,432.7738527537631 L 349.8570248953299,434.21245913943335 L 348.00134714886303,434.760494727452 L 346.4185632165734,434.7878963938094 L 343.0756144083955,433.99324460443864 L 338.85940567978093,434.1850575569509 L 336.4306509472705,435.14411762533075 L 334.6841306314835,435.2263220548542 L 333.29237244035045,435.15781828870007 L 332.5828486659546,435.89765853289526 L 327.8617862267599,442.1586829636613 L 327.2614198830428,443.323164094916 L 326.961236711192,444.6794252531203 L 327.02946022409697,446.03566846388856 L 327.4524453867577,447.30969860444475 L 329.9903577874034,452.1590884660839 L 330.78174963481996,453.1453770345271 L 331.8460352964286,453.83029406845924 L 332.9648999108261,454.3508280799825 L 333.6471343275478,455.3918879686167 L 334.60226255846226,458.0081893909105 L 334.87515613518235,459.36425681682806 L 334.84786701496654,460.7203064189366 L 334.30207938661204,463.61041329706956 L 333.29237244035045,465.0896782321667 L 332.2826652566466,465.11707204842145 L 329.6355956627489,464.52810792900334 L 328.1346800409366,464.3637454168339 L 326.77021120747764,463.9528375166573 L 325.69228051086935,463.2131995619343 L 324.72350771983923,462.35028164636924 L 323.14072378754963,460.26829210300065 L 322.5130680861744,459.06291027906775 L 320.98486286923196,455.0083408383373 L 320.2071158193733,453.9535786838026 L 319.1564744804237,453.2001707652749 L 306.15308593246726,448.10424698314125 L 290.01141887759076,439.0487690122814 L 288.1557411311239,438.3774537215822 L 282.86160194334275,437.6239311111717 L 279.0137996620263,437.58282963136094 L 276.72149171788425,437.87053916599274 L 274.9203929242067,438.3500530184128 L 267.38852427017343,441.610687526618 L 265.1507952788351,441.9257854819272 L 263.5134328686555,441.6928869934507 L 262.3536343364688,441.02158881956734 L 261.11196749381924,440.4598873427994 L 259.065264243638,440.1036844069841 L 251.56068518472003,440.2954858851839 L 249.02277302151595,440.76128845466513 L 247.22167399039674,441.4462883949055 L 245.29777273100936,443.33686366230233 L 243.72863383375028,444.5698289068326 L 241.3135236613406,446.13156357437174 L 233.26315721152582,449.5974335095319 L 232.11700347691195,450.2960730554934 L 231.20280916377124,451.17279043807986 L 230.38412795869664,452.1590884660839 L 228.73312051348765,455.95350798363677 L 227.8735049157095,457.4328828878331 L 226.5363254399236,458.7067718500024 L 223.98476871661933,460.021737832045 L 222.52478701258127,459.8025779591215 L 221.54236942399328,458.9533292632499 L 220.9692924379652,457.6931410006235 L 220.25976866356993,456.56991687417116 L 219.22277212217764,455.7754336704668 L 218.04932902988966,455.17271825264027 L 197.92341266788722,454.0631647786271 L 196.08137971897827,453.5563277542815 L 195.18083020341092,452.6522338132862 L 194.44401683388492,451.52895468647114 L 193.98009775344994,450.1727840550531 L 193.67991434414196,448.7070038345433 L 193.5844014735634,445.5561903743703 L 193.32515245694404,444.07664473255795 L 192.47918189418098,443.117668218591 L 191.38760663745649,442.35048082856554 L 188.84969447425297,441.281888760694 L 184.19685554796268,440.6927883991574 L 179.3529908805158,440.76128845466513 L 177.0333938161424,440.15848486602897 L 175.64163562502426,439.1035702750826 L 175.0139799236342,437.8842394635804 L 174.24987719643408,436.81560072102076 L 173.18559153484088,436.10316844230886 L 171.8757014167285,435.5825419944893 L 170.32020684211244,435.3359284142512 L 154.54694623454895,435.5551405414923 L 152.18641501494466,436.0209647189448 L 146.74218424123785,438.7336624327234 L 144.8592171370974,438.9802678096874 L 143.38559087294428,438.6240599579515 L 142.49868615494975,437.6924332228824 L 141.83009606087103,436.5141877354465 L 141.28430866997368,435.28112536848573 L 140.53385074033204,434.1576557286775 L 139.6469457848798,433.198586147182 L 137.9277153016801,432.32171503063915 L 135.44438161636597,431.6366538790786 L 130.53229367345634,431.0611993147729 L 128.04896022559936,431.3352258280548 L 126.30243990982672,432.03399008911725 L 125.45646934706309,432.951967042106 L 124.77423493032644,434.0754499612386 L 123.6007916005813,436.5552894068733 L 122.19538861189092,438.7747632112464 L 120.57167076182755,440.7749886033103 L 117.65170711629483,445.11780875111947 L 113.21718328883468,449.76181981065963 L 110.20170701018111,452.2686764723942 L 105.78082774283716,457.39178934117393 L 102.24685319350208,451.9810075875526 L 101.3872378331662,448.2823345813664 L 101.71471036269057,443.4190619817522 L 101.5373296565485,441.88468573106746 L 100.97789723062117,440.6927883991574 L 98.50820858033703,439.37757495641404 L 94.56489342844256,438.18564840668114 L 78.12304320171525,434.9797078522957 L 76.40381248105784,433.4315040008148 L 73.5930062662199,431.554446555693 L 69.1721269988754,431.1023031837641 L 68.29374725177375,430.6544555313207 L 70.64081125440802,430.3084859225073 L 70.64081125440802,428.4959952199459 L 67.4176564355395,427.78393648788216 L 64.64574320153976,426.4676938349989 L 62.647387007892014,424.35303834613546 L 61.626721530878875,421.24570979619494 L 65.22591091579417,421.24570979619494 L 65.22591091579417,419.44384731570267 L 57.49033919208825,417.663532507464 L 50.20600931728835,415.1602490100265 L 46.33822332341623,411.1246528172205 L 48.841540476534675,404.77959223485175 L 51.94651298812711,402.4810279287594 L 59.8754740379306,399.42698569260807 L 63.2597864525293,397.54918920673254 L 65.236655001942,394.9051056746572 L 66.84823227935739,392.02351490293773 L 68.95402695817117,390.5125354729863 L 72.44577785792043,392.1206485411582 L 72.34908345891714,389.0662907726382 L 73.12264049926857,386.15215213266123 L 74.44413405156818,383.5185609171716 L 76.05571132898356,381.24109618679995 L 78.63423523688516,381.94269045210075 L 96.10373487794585,383.1947539721288 L 101.06739336765258,384.5547361843966 L 104.00046419738193,384.86774534136873 L 106.17072180885444,384.09061747028227 L 111.4566960180827,380.409970511929 L 113.90629353256091,379.26581213781645 L 109.06081735013028,378.22958187664403 L 103.44178412734765,378.909609318308 L 98.48886945975043,378.4670521869582 L 97.8979576593482,375.4770429857206 L 97.68308068903158,375.63895900679074 L 102.75417766388944,369.27005740491865 L 112.27322861092651,348.4765168342298 L 105.67650493554704,356.53102511040345 L 101.44342819773767,363.75360997323133 L 96.28638038193336,369.22687686018975 L 86.87476792006233,372.0335630792753 L 82.1797057752741,371.79607739604694 L 78.21522511836147,371.0404371811046 L 74.73421804072173,371.0404371811046 L 67.90112948675285,375.14241519343756 L 63.17383587562061,375.54180931968676 L 58.779601278058216,373.998196229012 L 56.06140741866039,370.37115082917524 L 62.00275609692619,369.27005740491865 L 65.12921651679143,366.0530668413059 L 67.79369100158681,362.2314052164534 L 72.44577785792043,359.348867735407 L 72.44577785792043,357.5350930434563 L 70.09287500649818,357.15721931740995 L 68.65319914690755,356.68217568141114 L 67.70774042469304,355.6888956133089 L 66.86971992359187,353.9074438293005 L 65.22591091579417,353.9074438293005 L 62.722594026713494,362.0802628774968 L 60.853164226489675,365.2542005572744 L 57.866374022172785,366.59283760028325 L 53.622553462253904,365.27579156534074 L 49.88369386180572,362.0802628774968 L 45.08119296782859,355.7212852607663 L 42.37374293054082,357.2219976368206 L 40.31092380421943,356.91969791815967 L 38.82827265618966,355.1382683857777 L 37.86132602570233,352.25552382661056 L 36.572064203770694,356.75775101270176 L 38.76380945947769,359.66195639299644 L 42.760521582735976,361.51887566742386 L 47.047317431094015,362.9763168951727 L 43.43738396003144,364.779195861259 L 50.71097027675905,370.19843125142506 L 51.119236573173225,376.12470601824884 L 47.25145057930111,381.81316580623087 L 41.632417356519035,386.5191222775126 L 42.739033674463165,388.7532947715279 L 42.7282898523531,391.1169300884183 L 41.44977185253097,392.9948470451126 L 38.76380945947769,393.75032088142217 L 36.615039492209846,392.9300917736512 L 35.003461950756694,390.9226607697565 L 27.998472243000826,379.26581213781645 L 26.032347515682165,375.0776485992262 L 24.35630704155537,367.2837400373609 L 22.229024982560336,362.44732221517205 L 19.521574681234245,357.91296558708 L 17.03974543638861,354.81436871967156 L 15.814946547130612,351.93161441154706 L 15.600069576797996,347.5695335028103 L 16.072799069939602,339.4063069581255 L 17.39429262223921,339.26592789138897 L 16.072799069939602,311.1536796754168 L 23.45382360778001,302.84696465879955 L 26.451357898259644,302.13400126148235 L 27.61169359080567,303.05221071536647 L 28.492689116308778,304.79138345496705 L 30.662946727796204,306.4657125719121 L 50.94733489131069,306.31448389167474 L 55.15892398488502,305.63395269383983 L 60.53084877100649,303.26825869572974 L 68.12675054321728,302.52289108965084 L 83.27557827110871,302.84696465879955 L 72.38131492524678,299.5089543715681 L 70.64081125440802,300.28675339724845 L 68.65319914690755,301.7559123937856 L 64.13003841995955,301.7775177167159 L 59.23084286292701,300.82688794824816 L 56.06140741866039,299.3793206336354 L 53.13908014701825,300.64324272680835 L 48.91674723131839,301.45344054951386 L 45.08119296782859,300.99973047070415 L 43.43738396003144,298.3854555531938 L 42.59936372296804,296.39769484050476 L 40.76216538908768,295.85753541262824 L 38.8605041225193,295.9007481724199 L 37.86132602570233,295.5874544270742 L 37.667936699605306,293.513207947901 L 38.34479934093854,292.7029431933055 L 39.21505104434649,292.2275848699916 L 41.83655050472557,287.0200942493793 L 47.12252444991605,284.5567015569461 L 53.68701665896587,283.3681996942891 L 59.67134088972352,283.06566960222244 L 59.67134088972352,281.0775910674366 L 55.07297314395403,279.608115121968 L 49.11013655741596,280.6778093598381 L 37.86132602570233,284.7079642304662 L 31.715844199214523,285.34542619994147 L 25.076144971343226,283.93003886695493 L 19.897609511319335,280.16997614942056 L 18.028179711094964,273.83804175101227 L 17.007513970044055,275.0266623434808 L 16.416602169641816,275.16713459483117 L 16.137262266651017,275.5885503714073 L 16.072799069939602,277.6307698186419 L 12.205013076067484,273.83804175101227 L 10.722361928037714,274.12979546689763 L 10.238888612786594,275.1995511775108 L 9.647977076422675,276.0856025558088 L 9.014089723528597,277.6307698186419 L 3.3413371261440736,273.0168043858672 L 4.243820559918885,260.38398307883455 L 0.0,255.5314079977207 L 0.0,253.88860895732097 L 6.263075322670485,249.34498768719533 L 17.81330458906706,245.7690886705418 L 24.70387245931164,244.5336217429075 L 28.865502648049983,245.52199652994517 L 38.880704303572514,251.8089156711713 L 44.898012253035866,253.89531153567222 L 48.89590595909615,253.23645462503214 L 56.905338474161965,247.38203499048936 L 67.09109889980488,242.45388232705142 L 71.88038481336163,239.41312447640772 L 75.47576039228433,234.95820239793917 L 78.96197831603088,226.62438837279112 L 81.13830622662287,222.7524129676379 L 83.68304082719392,219.13430476881842 L 85.18395647281731,218.36535290303033 L 89.32511979924364,217.96714303747558 L 90.28706998476098,217.66505188667543 L 90.00735408760131,215.47486069775476 L 86.3846890949169,211.03252751220825 L 85.21806817404455,208.36153242907582 L 86.43244563505105,200.7257691551802 L 90.61454295013863,192.52623443763525 L 96.13381969219552,188.63223010871664 L 101.27786719279989,193.9684166756426 L 107.05639323374274,190.9123374468606 L 112.2140855732778,190.55521600770084 L 117.28990993547485,190.9123374468606 L 122.850120666193,189.9920599786345 L 127.25735505088586,186.31772599059855 L 133.56120144898898,175.87082523542512 L 138.13899460379392,173.54226093655672 L 141.7753041713337,172.5256419546778 L 141.9322181025532,170.48550086062411 L 140.8747548367819,168.08123575509907 L 140.8133537217703,165.9722992780846 L 142.93510280478583,163.1763377576773 L 144.43601845041695,161.85732868872978 L 148.8841870877873,159.34978418888625 L 150.0166963074849,159.54214644613978 L 151.36069828593426,160.44212033533591 L 152.6569437242644,160.7169198668473 L 153.68711757624305,159.04750035076643 L 154.3693523926851,157.43988247094526 L 155.24943460090202,156.44369444530935 L 157.07782294784982,154.90473458920738 L 158.29220014484122,153.23520845093665 L 167.29087278726993,124.38806688131496 L 167.3454513507788,123.0547451813946 L 166.82695328108295,121.8519897450676 L 166.99751178715726,120.7523131814062 L 169.0237483180021,119.7763389305627 L 170.52466396363377,119.32271358020164 L 171.37063473466895,118.86908592931815 L 171.9368893445067,118.16114696419986 L 172.63276847177187,116.95832547586176 L 174.93872089977637,108.23566693250373 L 176.1803875105372,105.98784581002415 L 178.62278700745028,105.0804525678724 L 181.19481075776795,105.39666647946963 L 183.31656010482124,105.23168524023416 L 184.38766794546945,102.92879328388545 L 184.70831809532925,91.6609465587783 L 185.4928877513528,90.82216008788478 L 189.80460958387553,83.23834325545356 L 192.22654169040052,80.79048081405004 L 200.42699983789043,75.7982808869239 L 201.2866154478414,75.64012115819065 L 201.62773245999003,74.62926773234642 L 201.57997618391573,71.37657797369036 L 202.0984742536342,70.08372093241145 L 203.40836453085637,70.06996687886114 L 204.77283337161776,70.27627506075048 L 205.59151472888348,69.6367180118006 L 205.48235707376037,68.31632668348088 L 204.486294922978,65.33849636600759 L 204.32255870431564,64.54072330053513 L 207.92475657068064,44.78663884508636 L 207.89746715688852,41.98686403686392 L 207.5631721681367,40.184504415538434 L 207.74055322566846,38.533454928755944 L 209.32333711263118,36.118738457808405 L 218.82686298587035,30.559819266693577 L 230.80007776981526,26.204624075936017 L 270.47201110366257,17.77569931622665 L 276.5848316053038,18.002775001472195 L 281.3331835302214,21.106083292120744 L 286.1429363061128,25.420252699343934 L 292.41267100299643,29.280116510021294 L 297.3793377100847,31.11022317439283 L 301.73199353126927,32.066541756544815 L 306.2210961572782,32.2591801800743 L 314.5489861861674,30.44867789704763 L 364.1973798229202,19.654216799348433 L 365.9984787560759,17.183923300631406 L 367.2810793554914,0.9291348183089009 L 452.45438872766346,0.45893958209202157 L 479.55659535228205,0.30932258667711254 L 488.9833969933497,0.2572820975480332 L 535.5883185066642,0.0" fill="none" stroke="#000000" stroke-width="0.8160000000000001"/>
	<path d="M 715.2647547098334,253.84410827664527 L 715.3707409703301,254.53357469174188 L 711.3182684367159,270.2623133595049 L 710.062956987025,279.4773755450885 L 710.5268762291968,298.8171955076584 L 710.9635065856372,301.4719142859171 L 713.3649715658124,308.9760732060079 L 713.4331952322964,310.14897401238954 L 713.1466567836637,312.9611341683615 L 713.283103588534,313.9282242102024 L 714.1836529230781,315.0256193358825 L 716.08026467245,316.26017418886426 L 716.8170780524225,316.925455555137 L 727.6373162263038,331.2724767219975 L 731.621565621525,334.15945630066636 L 733.067902439557,336.71035048431617 L 744.3929946363709,351.8566310810301 L 742.3326464042989,357.5401691049645 L 738.7304485379864,362.7092305395902 L 733.7637818308754,366.1574061336885 L 727.6782504789813,366.63726225779016 L 722.3295322430214,367.6929369622291 L 717.253708144825,371.9223782459276 L 713.0647885423256,377.5430748791054 L 708.8485797900568,385.2744414762987 L 704.7824624175347,389.1193394650149 L 702.940429231671,392.33358835166564 L 702.3264183457446,395.8492689490394 L 702.3537074954912,398.9947733506867 L 701.6168943795572,401.0917215440483 L 698.7651542040263,401.45491415861625 L 694.9582861303902,424.37451030184445 L 691.069549815423,430.7938086635518 L 686.2666193269888,436.43862022696015 L 680.1947328139872,445.3778839714641 L 677.4794397073491,454.0081576002718 L 682.7872236906321,458.69970918703586 L 684.7111245897655,449.8095519064952 L 689.9233960208784,444.2613749753327 L 697.4143302021802,441.82282207261574 L 706.1469312582883,442.28861764065783 L 710.062956987025,443.9462843136555 L 717.6221148348191,448.8095322249404 L 720.4192759187576,449.4259836722309 L 725.2494958209757,447.5012728222349 L 734.5142397857176,441.41867446957946 L 750.1101190342405,426.2105945760062 L 753.343910474642,422.10676387874713 L 759.7296248500688,409.12961835131523 L 762.2948265769593,405.5184687510211 L 765.3785263735759,402.64727250600714 L 768.7078303661477,400.5023877297515 L 772.678434658423,398.9947733506867 L 780.7151565872512,397.8571948509454 L 782.4889661066452,397.99425309499793 L 789.7070066782302,400.1666027670729 L 791.8219334738105,401.35897665940956 L 794.0733070742613,402.0990635303784 L 797.102428307369,401.6879047712001 L 796.9250472498146,415.3922923005427 L 788.8064573436635,447.8985469545661 L 784.1536182349538,457.9874291399905 L 783.6214753263206,463.9594718784588 L 785.5453764894995,471.4377370351308 L 787.6193690323953,476.71054825184405 L 786.8825559164688,481.6201854278602 L 780.3876841499795,487.9195206965767 L 775.2709255350833,490.87049161697007 L 770.0859437817783,492.4863012445934 L 764.6690021433722,493.23942439355113 L 743.3696428077808,493.3489689977783 L 738.0891482382679,494.150011512383 L 731.880814656381,497.21034747749144 L 727.9920783414054,502.0368707355344 L 721.8656127368117,513.393731876714 L 719.0548070780035,516.0564960160374 L 712.3689094150527,519.7459224758097 L 709.994733320556,521.6966805425257 L 708.9168029284426,524.1744336544476 L 708.5347516635939,527.2818103920641 L 709.1896968022049,591.2984154629112 L 703.1314548640958,592.2286909811847 L 701.2075539649844,592.8853512599636 L 688.7499528125405,599.6295715298351 L 678.7211063181028,608.1242396216023 L 643.4862978491172,650.9410359239032 L 640.6933579862364,654.3342746959052 L 637.7597498333826,656.6312885451317 L 634.2530647832635,658.1352607066244 L 624.2105737139478,660.4458695252126 L 613.4176246898209,666.4887790702032 L 574.2300777244874,697.4092577901149 L 569.5052514667825,703.4482024160376 L 569.372781858375,703.3957666993077 L 550.1064806192512,695.7693365780548 L 543.2295577366377,691.791912361617 L 534.2513521761243,688.0740588749179 L 527.3471394609234,686.1057348611364 L 524.1815715963442,685.7093321313174 L 520.6885312022262,685.599979512087 L 517.4956739799734,685.2035750386011 L 514.6166447271441,684.4654391166297 L 513.5796481857524,683.7136290266806 L 513.0747947126289,682.5107226468257 L 513.3476887642632,676.6053632872672 L 512.6654541100844,670.3989393780661 L 512.6518095499836,664.7937292614255 L 512.8155456960095,663.1394558597407 L 511.9013516203414,651.2854036601253 L 512.1742454345186,648.4686872902619 L 512.720032825431,646.4449837026549 L 518.8055643355428,640.0591397529909 L 519.2694834159773,639.2249875602912 L 515.32616850154,633.8917383874602 L 514.3846850681989,633.0028389008037 L 513.3067543715752,632.2643629730032 L 512.0923771240408,631.6626383507681 L 510.6733295752497,631.3207478330809 L 509.14512459576434,631.2386942770908 L 507.67149809415406,631.4575044986937 L 505.18816440885485,632.67462781996 L 503.0868824433265,634.1652443197975 L 494.763622179319,644.0110216198635 L 488.92369536318336,649.3027707799293 L 487.87305426169087,650.0821547400066 L 486.6859663718301,650.7384736402236 L 485.3760762537332,651.1896911036889 L 483.9024497521229,651.1896911036889 L 482.56527027633695,650.8205134428467 L 481.3372482312452,650.2188881091215 L 480.05464747082135,649.753993502816 L 478.79933606805605,646.4996785951262 L 477.76233952666377,640.7565408308999 L 476.6434751497235,626.4521151768503 L 475.2107830408167,620.3523483514225 L 473.83266917234215,616.9193727911995 L 471.131020625655,615.8525302429078 L 470.28505006289197,615.2917499407831 L 470.162248072097,614.6899336896746 L 477.48944594994373,610.436094052377 L 486.0173765152091,604.3764841822599 L 487.01343866389783,603.8840406757591 L 487.98221169238457,603.938756676485 L 488.7599589796848,604.7047783158674 L 489.4012594786334,605.8538012904148 L 490.4519003426687,608.4800938522627 L 491.22964762998447,609.4239021846354 L 492.44402511495997,609.7111468499428 L 493.75391523307235,609.4649374884972 L 494.9000689676862,608.7673407288377 L 495.85519743605835,607.8782403709079 L 497.24695562717596,605.6896555767245 L 498.2566625734375,603.1043341235852 L 499.2663695196836,596.9622426537344 L 499.74393363514855,595.6079268457282 L 500.28972126350305,594.4451169852489 L 500.54897028012294,592.8718844385148 L 500.2351423106988,590.9839754877331 L 495.8006184832541,579.6421566053475 L 495.20025237699474,579.0948737527816 L 494.40886029212163,579.5190181909587 L 493.5901788495744,580.2988923100751 L 489.71508721059985,585.4158228753905 L 488.9509847208569,586.1819738305435 L 488.2278161488888,586.3461481844364 L 487.75025203343876,584.964338614443 L 487.46371365914587,582.7889794067543 L 487.6138050076138,576.2763238757481 L 490.28816419662735,564.0982546406126 L 490.8339518249973,562.8119520289952 L 491.54347559939316,561.7445825792242 L 508.59933672993776,549.4553917115555 L 509.51353080560585,548.5794937990318 L 512.6654541100844,545.0073988806462 L 514.7803808731705,543.6250620471458 L 515.7491539016423,542.7764902005953 L 516.5814799043053,541.7910433378579 L 517.2910039161577,540.6960915930817 L 518.3962234955407,538.1776603803696 L 519.8425606394625,532.5520374119487 L 520.1427438113288,529.6364520774205 L 520.0472309407353,526.707097865669 L 519.1057472699365,519.6023949720114 L 518.9147217662365,509.55369721014415 L 517.8913700224176,504.2003906054901 L 511.43743206499266,486.34493650675324 L 511.06902561769397,484.8933622727537 L 510.837065721291,483.48285107563066 L 510.82342116117536,482.2366555241252 L 510.9871573072167,481.26433857625136 L 511.06902561769397,479.99072685332226 L 510.2503441751473,478.2377733736679 L 508.5038238593597,475.6493737352551 L 490.5064790580158,457.80272335553974 L 479.26325538594824,443.2546655152915 L 474.6922845326637,438.8706653609118 L 473.55977535816544,438.18564840668114 L 467.91087404572926,432.89716271551526 L 467.1058376381976,431.26671897078995 L 466.4372477815761,429.12929160416246 L 466.1916433250718,424.95021693393966 L 466.57369480740044,420.5106184548782 L 466.2189329202026,418.74294613708855 L 465.31838316717807,416.70117818539853 L 461.49787024353515,412.23381018043904 L 459.17827341663383,410.2467271453632 L 457.15885928666904,406.615060814609 L 454.38898746453407,395.4725640930124 L 460.14704597019187,390.2229641660535 L 464.4178338890679,387.1525745901093 L 465.87781559310537,386.412377318001 L 467.6516250291099,385.7544192902969 L 470.694390665437,385.30207100396 L 472.76838351074895,385.260947983845 L 474.542192946738,385.5076839419748 L 478.5400870514367,386.8784277914097 L 479.9864239579014,387.19369635418485 L 481.39182694659235,387.30335486560074 L 483.0291895942285,387.22111093368284 L 496.2781825987036,383.9038895495982 L 497.76545366041466,383.82164329432624 L 499.0480546583106,384.21916750566004 L 500.15327447515074,384.8908431417154 L 502.10446485473847,386.57686596868234 L 503.25061882681007,387.19369635418485 L 504.615087660269,387.5226712888108 L 505.95226713605496,387.6460365504288 L 507.18028918114663,388.1120812693087 L 508.2036409249661,388.8248520577439 L 509.1041902030608,389.7295149251155 L 510.1002525892067,390.5108085120843 L 511.24640656129264,391.004253661038 L 512.720032825431,390.688997113383 L 514.1254358141218,389.77063610623264 L 515.6399962335065,387.7282796554857 L 517.1682016879062,384.685228694507 L 520.5793737715468,374.26687310120434 L 520.6885312022262,373.44432476128827 L 520.6885312022262,372.1693614053096 L 520.4156376255055,371.00405813811903 L 519.8698497596789,369.7976122475244 L 518.3416447801935,367.72742600510543 L 517.8231467469549,366.49351970278576 L 517.6594101260147,365.0950740972306 L 518.2597764697157,362.2844127347421 L 520.9341356587447,354.1673219487597 L 521.5072126447728,351.2055140414836 L 521.4799230496421,349.64230176194303 L 521.1524507575749,348.2436171835236 L 520.5247950562002,346.95461540962333 L 519.1057472699365,344.6782524649906 L 518.6281831544865,343.44405752245893 L 518.3962234955407,342.04528459680114 L 518.5463150814658,335.4214113797163 L 517.4138061444104,324.1337351502996 L 517.9050145825183,323.0090105504656 L 518.6691173097179,321.99400393585086 L 519.9244287124832,320.9104040168436 L 526.0099599851375,316.9462458410338 L 528.2749785716214,315.0395512532929 L 529.9123412192577,313.03679561214346 L 530.5945753985227,311.95309555387973 L 533.3917368157884,305.6427020353865 L 538.2628906034666,290.72932576944146 L 538.945125257646,289.5904907394901 L 539.8047406179825,288.6025746983858 L 542.1652718375724,287.3402226652645 L 561.4452173993546,280.57537845613837 L 563.9149060496381,279.3540878757192 L 571.6787341251755,274.2080283717394 L 573.5207670740846,272.38282589231096 L 575.0216829333535,270.24194213421873 L 575.6220492770706,269.0205190198531 L 576.0586794747309,267.6755627677755 L 576.2497049784452,266.35803658292105 L 576.6044668656431,261.10147257582406 L 577.3003460799382,258.1642579751399 L 578.3373423838578,255.58382548201845 L 581.1754377189127,251.15025869459967 L 582.0077637215751,250.1619429648806 L 583.181206813863,249.15988993893143 L 584.7094122682627,248.2264613959849 L 587.2473241940096,247.11457093867764 L 589.1575808932807,246.5380299321101 L 591.1224160704413,246.2634853430294 L 618.1116107549566,249.76386835464578 L 620.5267206898936,250.39529617452695 L 622.2323068504354,251.19143838144848 L 625.9163729857105,254.78772056875073 L 630.8284611660767,260.8955962717488 L 632.6841389125585,262.7210195991842 L 635.4403659371357,264.8071745595898 L 635.5631681653878,264.8757973704788 L 652.9192127052409,277.11730164310364 L 656.4258976594596,279.0521933803831 L 658.0359709494228,279.50503476514865 L 660.0553848419304,279.66970369645577 L 663.1390843960318,279.3540878757192 L 670.9574914243734,277.1584698138779 L 672.6630773474575,276.93890515524845 L 674.2595060773044,276.9937965464379 L 680.2495247168379,278.1876718879724 L 683.5242497746536,278.42095636994577 L 686.935422095752,278.1876718879724 L 688.7228765667704,277.48781549534755 L 690.319305296618,276.33509991494174 L 691.9566677067976,273.5630361120087 L 691.8884441938926,272.0671859302437 L 691.1652756219245,270.90068069560226 L 686.3077666318185,268.33431936186133 L 685.2161913750946,267.5932182005683 L 684.4793782430257,266.75604111543856 L 684.1519057134859,265.9051323817198 L 684.2883527393109,265.20518583715824 L 684.3702205748743,264.9169708420959 L 684.465733445453,264.7934498959217 L 700.3890856389415,254.55437822240987 L 705.0009906474576,253.52491974018704 L 715.1526390628012,253.8406214710947 L 715.2647547098334,253.84410827664527" fill="none" stroke="#000000" stroke-width="0.8160000000000001"/>
	<path d="M 569.5052514667825,703.4482024160376 L 552.3303518137784,725.3973257999336 L 550.0516887995577,727.5426187936291 L 528.3156993715709,737.3257516354681 L 523.8265964814938,738.2548339448741 L 514.6300761832441,752.6136912442335 L 509.8544351085722,757.0125371689869 L 509.0357537513065,758.0097686201734 L 509.7316328785794,760.7691874356127 L 513.4702775497611,766.8615395525463 L 514.3435377346038,770.1807850409383 L 513.8113948259706,772.4891774045807 L 512.4059917325395,773.9233632668918 L 510.44115658072195,774.6336206026352 L 504.6830979301446,775.2755801507943 L 503.8371271591094,777.0375369437671 L 504.79225532122996,782.3642264893915 L 504.20553384908794,786.3112885537759 L 502.56817113456367,791.3234621771331 L 500.0439036603501,795.6662685728996 L 492.81221851388824,799.7767695194144 L 491.70699870798273,804.2558289758772 L 492.266431030408,810.9468011838991 L 490.2197273732134,812.1620612308142 L 481.8509115001006,816.0 L 477.4674207246477,812.473533159296 L 466.60538884512977,810.0006454079769 L 461.3194148999399,807.2481554105196 L 456.31278085774073,803.7429416821669 L 452.32681282063083,800.2698853623514 L 454.71194740243595,799.8827893215905 L 455.9474901138035,799.302143222668 L 456.74253479838995,798.323640350638 L 457.7417128952064,796.6569418292432 L 450.33920044909263,796.4741411847214 L 447.1160456302246,796.9795303929898 L 444.9672756629717,798.463427106832 L 443.31272283306447,798.463427106832 L 440.9168444291498,792.5277323030965 L 437.23170393926523,788.6887320674794 L 423.2432119039204,776.9881713897555 L 385.89759065981315,755.3262266688843 L 324.07747980283614,732.9610316938612 L 260.40942705389267,707.729197541107 L 209.78440761808008,691.6403767327345 L 217.8100633309252,684.9566695034277 L 227.46878396541962,684.5907225002153 L 237.353125656379,687.733522368201 L 245.99118081386086,691.6403767327345 L 245.56142687322654,689.3156530700314 L 244.29365269551448,687.625893662846 L 242.30604032397625,686.5711269703293 L 239.69528494974443,686.2159483517331 L 237.65395346764208,685.6347443212069 L 235.5051835003897,682.4165434702279 L 233.3779014413941,680.8020273429258 L 228.44647441801646,678.8538143709778 L 225.64232971768763,678.6062491348686 L 220.9580111309717,681.1141688744561 L 218.71254676470056,679.9624700608861 L 216.55303297533754,678.0465343285964 L 214.36128745559222,677.0347349827017 L 213.52326721852884,674.7742999661276 L 215.84393886765977,669.8119501921346 L 219.23899536839085,664.8386195270346 L 224.20265385809756,660.5109990383596 L 226.96382326998724,656.4523593893163 L 230.44483034762644,653.6101483540116 L 235.1828680449065,655.1819858738472 L 238.08370740829184,653.803937761075 L 241.14570463142965,653.35176213798 L 247.7854035952632,653.3948264600971 L 249.13912887794513,653.0933750672006 L 252.330052230484,651.984457681277 L 254.10278736765187,651.7368339876481 L 256.0259362784404,652.2966782136488 L 259.22760345308876,654.6867519422774 L 260.42017087600277,655.1819858738472 L 265.6309378023706,653.7393412407378 L 270.12186706298957,651.0154919992808 L 275.1929640378474,648.6361074358224 L 282.21944165387555,648.2915770953897 L 281.68224922807576,647.3871796487068 L 281.080593605564,645.4276270976782 L 280.58637646820284,644.5016728240078 L 285.3996211843049,643.0588916959664 L 290.2665850109551,642.3913301173685 L 293.87651848201824,640.517829380717 L 295.0046227082352,635.317085737866 L 293.0384982449549,635.317085737866 L 291.3946892371721,635.715494938746 L 289.61121027787925,635.8231728366981 L 287.75252429976496,636.1031349934251 L 285.97978916259655,637.1260674479555 L 284.4326748178559,634.7248532138948 L 284.0136646993162,633.6695949618144 L 281.4029090610466,634.1649215823725 L 278.3946312124958,634.2510651534564 L 275.8805705013056,634.6710138827373 L 274.8491609381447,636.2215802396529 L 274.16155447468645,638.5150869644829 L 272.4425387121205,639.6456716720407 L 267.80119567789694,640.9054525921308 L 264.68547908014176,642.3913301173685 L 259.61438210528394,642.5420700809314 L 257.0143705531467,643.1342613882078 L 251.58872639242335,645.7183321485452 L 245.84076704025512,646.8165441103354 L 240.2109897313252,649.1421346237098 L 236.9878349124567,649.9280873099719 L 235.27956270794755,649.7558241103733 L 229.98284494064814,648.5607414227771 L 227.08200557726278,648.2915770953897 L 221.09768134650514,646.0951706780246 L 219.16378834956936,641.0346602968934 L 217.77783186459556,635.457067667643 L 213.37285344490874,631.699034993039 L 213.37285344490874,630.0730276067636 L 214.68360317511318,628.8561989244535 L 215.42492874912062,627.3055305242109 L 215.61831807521818,625.2702454874209 L 215.3497217302986,622.6641650913889 L 213.36210962279867,624.4625823898263 L 211.42821662586235,625.6902279449863 L 209.67696913291405,625.8302216580109 L 208.14059861028295,624.3225869605014 L 206.33563200677054,624.3225869605014 L 206.33563200677054,628.0808672824121 L 199.9215535713408,621.867252214698 L 203.23065923113978,612.9931346916592 L 213.37285344490874,599.0020327786617 L 217.6918810236491,601.2963072101787 L 219.1100689749669,602.6211482433185 L 220.7646218048741,600.8116052301291 L 219.19601981591336,597.3540032928471 L 218.97039902347123,593.7023991543124 L 220.51751336821297,590.8909044180498 L 224.20265385809756,589.9644957127246 L 218.87370436043017,586.3665085699319 L 214.1249228410406,590.5354227883141 L 206.33563200677054,602.6211482433185 L 193.17441612234072,610.7529542441953 L 184.62231180579042,613.865500626833 L 180.77601372019112,610.839115654229 L 178.73468223808874,610.9575880129853 L 161.78088764264714,607.7372547109102 L 160.08335926026245,607.6941728070615 L 158.3858311419006,607.4356805021996 L 155.69986874884788,606.401704710953 L 145.19238379114225,598.9912614518784 L 141.35682952763753,597.2462881005125 L 138.1014429784016,594.8011245191592 L 135.69482075236252,589.9644957127246 L 134.8138249628222,585.1168806294997 L 135.608869911431,581.8850177655644 L 138.26260083815515,579.5472443432584 L 142.91468769448824,577.3171554693915 L 138.14441826684074,578.0712970553591 L 124.72535012364024,583.5548256314831 L 112.27322861092651,575.5071949533143 L 108.72775807253757,568.5902822287021 L 106.27816029402048,565.702717922756 L 102.28144843480106,564.4959517668855 L 99.40209671563586,563.2568476148814 L 95.91034555184827,560.2290639630417 L 90.30205615117572,553.6560031574211 L 95.49133543332402,552.6215177434087 L 104.45170604628905,547.5782589267951 L 109.41536453599524,546.414396460155 L 113.5624904328587,546.9532232190458 L 117.92449330005313,548.2571727674077 L 126.69147458692058,552.0072873122162 L 121.36252535327658,546.5652681191563 L 114.65836319273109,541.9312523202166 L 108.96412295112698,536.6827180131855 L 104.5161689789627,523.7596628307 L 104.00046419738193,522.9081301653106 L 102.79715321638128,522.0134749543782 L 103.24839480125007,519.9977778336756 L 104.90294763115729,516.4944699654055 L 105.51534707577856,512.7431073203375 L 107.18064372779584,509.05629349276006 L 109.5228030211469,505.671210953688 L 112.27322861092651,502.84663177601715 L 103.77484340494036,501.6822795118503 L 100.2293731305892,498.36164836886684 L 98.13432253793815,493.2187752158125 L 94.07314721796845,486.5553064063864 L 91.06486936941764,484.51736450712974 L 87.49791118680857,483.02931846175323 L 84.50037716036726,480.7972093129083 L 83.27557827110871,476.5269544510643 L 83.43673613087664,472.72024092252303 L 83.99541620089656,469.24770646066037 L 85.11277660500399,466.01232113620233 L 85.77698980485764,464.8292501956013 L 85.83229232444832,464.7883481581868 L 86.26892252212407,464.45962346150395 L 99.20408779463212,461.3777787964292 L 102.16498535793858,460.1861072525413 L 105.78082774283716,457.39178934117393 L 110.20170701018111,452.2686764723942 L 113.21718328883468,449.76181981065963 L 117.65170711629483,445.11780875111947 L 120.57167076182755,440.7749886033103 L 122.19538861189092,438.7747632112464 L 123.6007916005813,436.5552894068733 L 124.77423493032644,434.0754499612386 L 125.45646934706309,432.951967042106 L 126.30243990982672,432.03399008911725 L 128.04896022559936,431.3352258280548 L 130.53229367345634,431.0611993147729 L 135.44438161636597,431.6366538790786 L 137.9277153016801,432.32171503063915 L 139.6469457848798,433.198586147182 L 140.53385074033204,434.1576557286775 L 141.28430866997368,435.28112536848573 L 141.83009606087103,436.5141877354465 L 142.49868615494975,437.6924332228824 L 143.38559087294428,438.6240599579515 L 144.8592171370974,438.9802678096874 L 146.74218424123785,438.7336624327234 L 152.18641501494466,436.0209647189448 L 154.54694623454895,435.5551405414923 L 170.32020684211244,435.3359284142512 L 171.8757014167285,435.5825419944893 L 173.18559153484088,436.10316844230886 L 174.24987719643408,436.81560072102076 L 175.0139799236342,437.8842394635804 L 175.64163562502426,439.1035702750826 L 177.0333938161424,440.15848486602897 L 179.3529908805158,440.76128845466513 L 184.19685554796268,440.6927883991574 L 188.84969447425297,441.281888760694 L 191.38760663745649,442.35048082856554 L 192.47918189418098,443.117668218591 L 193.32515245694404,444.07664473255795 L 193.5844014735634,445.5561903743703 L 193.67991434414196,448.7070038345433 L 193.98009775344994,450.1727840550531 L 194.44401683388492,451.52895468647114 L 195.18083020341092,452.6522338132862 L 196.08137971897827,453.5563277542815 L 197.92341266788722,454.0631647786271 L 218.04932902988966,455.17271825264027 L 219.22277212217764,455.7754336704668 L 220.25976866356993,456.56991687417116 L 220.9692924379652,457.6931410006235 L 221.54236942399328,458.9533292632499 L 222.52478701258127,459.8025779591215 L 223.98476871661933,460.021737832045 L 226.5363254399236,458.7067718500024 L 227.8735049157095,457.4328828878331 L 228.73312051348765,455.95350798363677 L 230.38412795869664,452.1590884660839 L 231.20280916377124,451.17279043807986 L 232.11700347691195,450.2960730554934 L 233.26315721152582,449.5974335095319 L 241.3135236613406,446.13156357437174 L 243.72863383375028,444.5698289068326 L 245.29777273100936,443.33686366230233 L 247.22167399039674,441.4462883949055 L 249.02277302151595,440.76128845466513 L 251.56068518472003,440.2954858851839 L 259.065264243638,440.1036844069841 L 261.11196749381924,440.4598873427994 L 262.3536343364688,441.02158881956734 L 263.5134328686555,441.6928869934507 L 265.1507952788351,441.9257854819272 L 267.38852427017343,441.610687526618 L 274.9203929242067,438.3500530184128 L 276.72149171788425,437.87053916599274 L 279.0137996620263,437.58282963136094 L 282.86160194334275,437.6239311111717 L 288.1557411311239,438.3774537215822 L 290.01141887759076,439.0487690122814 L 306.15308593246726,448.10424698314125 L 319.1564744804237,453.2001707652749 L 320.2071158193733,453.9535786838026 L 320.98486286923196,455.0083408383373 L 322.5130680861744,459.06291027906775 L 323.14072378754963,460.26829210300065 L 324.72350771983923,462.35028164636924 L 325.69228051086935,463.2131995619343 L 326.77021120747764,463.9528375166573 L 328.1346800409366,464.3637454168339 L 329.6355956627489,464.52810792900334 L 332.2826652566466,465.11707204842145 L 333.29237244035045,465.0896782321667 L 334.30207938661204,463.61041329706956 L 334.84786701496654,460.7203064189366 L 334.87515613518235,459.36425681682806 L 334.60226255846226,458.0081893909105 L 333.6471343275478,455.3918879686167 L 332.9648999108261,454.3508280799825 L 331.8460352964286,453.83029406845924 L 330.78174963481996,453.1453770345271 L 329.9903577874034,452.1590884660839 L 327.4524453867577,447.30969860444475 L 327.02946022409697,446.03566846388856 L 326.961236711192,444.6794252531203 L 327.2614198830428,443.323164094916 L 327.8617862267599,442.1586829636613 L 332.5828486659546,435.89765853289526 L 333.29237244035045,435.15781828870007 L 334.6841306314835,435.2263220548542 L 336.4306509472705,435.14411762533075 L 338.85940567978093,434.1850575569509 L 343.0756144083955,433.99324460443864 L 346.4185632165734,434.7878963938094 L 348.00134714886303,434.760494727452 L 349.8570248953299,434.21245913943335 L 352.5859627997055,432.7738527537631 L 354.46892966638876,432.28061141509767 L 356.31096285275487,432.8423581210313 L 361.0183804943923,435.7469507964211 L 371.03358212136766,438.3500530184128 L 377.67854581994976,438.84326502839787 L 384.70556052594566,438.3774537215822 L 389.53578039583465,437.0074086080888 L 401.89786868231516,431.6777577543539 L 403.64438899808783,430.51314407663745 L 409.7981435462048,424.772088878498 L 411.5992425773246,422.45639238505527 L 412.73175175183826,420.42840189343525 L 414.0143527497337,414.5086295635764 L 414.5192062228573,407.91699390983894 L 414.77845523947667,406.3683767788286 L 415.37882158317825,405.1623574537027 L 416.1975027882678,404.1756036916008 L 417.7257080052258,403.1614300423962 L 423.4837667483407,400.53001283809635 L 426.4446643116621,399.7899143977419 L 429.56929825845214,399.35133477714425 L 444.52387718601125,400.1462585420476 L 448.4535477778055,399.406157036294 L 454.38898746453407,395.4725640930124 L 457.15885928666904,406.615060814609 L 459.17827341663383,410.2467271453632 L 461.49787024353515,412.23381018043904 L 465.31838316717807,416.70117818539853 L 466.2189329202026,418.74294613708855 L 466.57369480740044,420.5106184548782 L 466.1916433250718,424.95021693393966 L 466.4372477815761,429.12929160416246 L 467.1058376381976,431.26671897078995 L 467.91087404572926,432.89716271551526 L 473.55977535816544,438.18564840668114 L 474.6922845326637,438.8706653609118 L 479.26325538594824,443.2546655152915 L 490.5064790580158,457.80272335553974 L 508.5038238593597,475.6493737352551 L 510.2503441751473,478.2377733736679 L 511.06902561769397,479.99072685332226 L 510.9871573072167,481.26433857625136 L 510.82342116117536,482.2366555241252 L 510.837065721291,483.48285107563066 L 511.06902561769397,484.8933622727537 L 511.43743206499266,486.34493650675324 L 517.8913700224176,504.2003906054901 L 518.9147217662365,509.55369721014415 L 519.1057472699365,519.6023949720114 L 520.0472309407353,526.707097865669 L 520.1427438113288,529.6364520774205 L 519.8425606394625,532.5520374119487 L 518.3962234955407,538.1776603803696 L 517.2910039161577,540.6960915930817 L 516.5814799043053,541.7910433378579 L 515.7491539016423,542.7764902005953 L 514.7803808731705,543.6250620471458 L 512.6654541100844,545.0073988806462 L 509.51353080560585,548.5794937990318 L 508.59933672993776,549.4553917115555 L 491.54347559939316,561.7445825792242 L 490.8339518249973,562.8119520289952 L 490.28816419662735,564.0982546406126 L 487.6138050076138,576.2763238757481 L 487.46371365914587,582.7889794067543 L 487.75025203343876,584.964338614443 L 488.2278161488888,586.3461481844364 L 488.9509847208569,586.1819738305435 L 489.71508721059985,585.4158228753905 L 493.5901788495744,580.2988923100751 L 494.40886029212163,579.5190181909587 L 495.20025237699474,579.0948737527816 L 495.8006184832541,579.6421566053475 L 500.2351423106988,590.9839754877331 L 500.54897028012294,592.8718844385148 L 500.28972126350305,594.4451169852489 L 499.74393363514855,595.6079268457282 L 499.2663695196836,596.9622426537344 L 498.2566625734375,603.1043341235852 L 497.24695562717596,605.6896555767245 L 495.85519743605835,607.8782403709079 L 494.9000689676862,608.7673407288377 L 493.75391523307235,609.4649374884972 L 492.44402511495997,609.7111468499428 L 491.22964762998447,609.4239021846354 L 490.4519003426687,608.4800938522627 L 489.4012594786334,605.8538012904148 L 488.7599589796848,604.7047783158674 L 487.98221169238457,603.938756676485 L 487.01343866389783,603.8840406757591 L 486.0173765152091,604.3764841822599 L 477.48944594994373,610.436094052377 L 470.162248072097,614.6899336896746 L 470.28505006289197,615.2917499407831 L 471.131020625655,615.8525302429078 L 473.83266917234215,616.9193727911995 L 475.2107830408167,620.3523483514225 L 476.6434751497235,626.4521151768503 L 477.76233952666377,640.7565408308999 L 478.79933606805605,646.4996785951262 L 480.05464747082135,649.753993502816 L 481.3372482312452,650.2188881091215 L 482.56527027633695,650.8205134428467 L 483.9024497521229,651.1896911036889 L 485.3760762537332,651.1896911036889 L 486.6859663718301,650.7384736402236 L 487.87305426169087,650.0821547400066 L 488.92369536318336,649.3027707799293 L 494.763622179319,644.0110216198635 L 503.0868824433265,634.1652443197975 L 505.18816440885485,632.67462781996 L 507.67149809415406,631.4575044986937 L 509.14512459576434,631.2386942770908 L 510.6733295752497,631.3207478330809 L 512.0923771240408,631.6626383507681 L 513.3067543715752,632.2643629730032 L 514.3846850681989,633.0028389008037 L 515.32616850154,633.8917383874602 L 519.2694834159773,639.2249875602912 L 518.8055643355428,640.0591397529909 L 512.720032825431,646.4449837026549 L 512.1742454345186,648.4686872902619 L 511.9013516203414,651.2854036601253 L 512.8155456960095,663.1394558597407 L 512.6518095499836,664.7937292614255 L 512.6654541100844,670.3989393780661 L 513.3476887642632,676.6053632872672 L 513.0747947126289,682.5107226468257 L 513.5796481857524,683.7136290266806 L 514.6166447271441,684.4654391166297 L 517.4956739799734,685.2035750386011 L 520.6885312022262,685.599979512087 L 524.1815715963442,685.7093321313174 L 527.3471394609234,686.1057348611364 L 534.2513521761243,688.0740588749179 L 543.2295577366377,691.791912361617 L 550.1064806192512,695.7693365780548 L 569.372781858375,703.3957666993077 L 569.5052514667825,703.4482024160376" fill="none" stroke="#000000" stroke-width="0.8160000000000001"/>
	<path d="M 213.37285344490874,644.5016728240078 L 210.36457559637228,646.3535737624435 L 210.10672307356327,649.389764004829 L 211.75053208134608,657.1521350187385 L 211.04143797366774,661.8674350894942 L 209.23647137015533,664.6556139768859 L 206.88356825469475,667.3253119992246 L 204.54140896132932,671.609615806882 L 204.27281288044858,675.8076472143215 L 206.53976515497763,684.5691962318634 L 206.33563200677054,687.862676893376 L 202.98355079447865,690.9408119431248 L 198.4066709569665,691.6941893551509 L 194.15210631089977,690.1013286978659 L 191.75622790698512,686.2159483517331 L 197.14964060137885,686.2159483517331 L 193.5611947745353,679.5965073993257 L 188.93059556242127,673.1058550473731 L 183.6553654393414,668.1434327447797 L 178.2297212786186,666.1950039481459 L 174.39416701512823,665.8612918723786 L 150.31719987656368,659.5098095463558 L 141.71137644946472,655.0958585732404 L 119.3104500490647,651.7368339876481 L 92.26818061445606,644.5016728240078 L 92.26818061445606,642.5420700809314 L 102.13103439715756,640.1625065985996 L 103.18393160453866,636.544612165856 L 106.41783050955392,633.1958024390916 L 110.3178479697706,631.699034993039 L 120.48152956372135,630.0837961819581 L 149.2965343995511,630.0730276067636 L 153.72300019941972,629.4484622331955 L 163.69329273132558,626.8640166411008 L 179.4652639899861,625.5286965601184 L 184.93388343916408,625.9379090711253 L 190.1016750770779,628.0808672824121 L 186.2124014389862,632.6681673537634 L 188.8016694330362,634.0249383034964 L 198.97609484911084,633.6695949618144 L 203.69264490215642,635.0263537844446 L 207.4637362329875,637.3952584820506 L 210.59019638879894,640.6470372663597 L 213.37285344490874,644.5016728240078" fill="none" stroke="#000000" stroke-width="0.8160000000000001"/>
	<path d="M 85.77698980485764,464.8292501956013 L 86.87476792006233,462.8739004751428 L 84.48963333825775,463.33765946599175 L 82.9640066377356,464.3622356292706 L 81.59953779698247,465.5270045236896 L 79.65490097793607,466.49763520763156 L 77.82844673020409,466.88588503839344 L 76.70034250398714,466.8319616851101 L 75.44331214839951,466.6270521563797 L 73.27305427287376,466.49763520763156 L 61.626721530878875,468.3094551190368 L 55.62090939186388,470.628106722533 L 48.36881098340854,474.8123332198887 L 41.81506259646822,479.85906227652447 L 37.86132602570233,484.7545874812958 L 36.21751701790518,484.7545874812958 L 36.79768499619736,480.5491943518568 L 36.21751701790518,469.29084413943275 L 35.067925147468664,463.7043508956468 L 34.92825519597299,460.44722148229124 L 36.21751701790518,457.43806016383814 L 33.12328832842282,454.9465375499693 L 23.980272475508606,440.28739553366455 L 23.45382360778001,440.16873318502564 L 22.873655893526156,439.2194291741796 L 21.638113182158094,439.057614987814 L 20.39182664868052,438.539808241336 L 19.843890136717434,436.5440702655834 L 18.500908940183336,433.71760701232733 L 11.796746779637843,424.8709171913838 L 9.884341690974317,423.68410771736615 L 8.724005998427735,421.09465679894447 L 7.112428456974585,418.59145810607384 L 3.781835152940576,417.63116267445974 L 7.434743912457771,413.0237768897162 L 8.595079605004354,410.89805017501726 L 9.014089723528597,407.4989529245182 L 8.294251793740745,405.0062086286446 L 4.856220004555615,400.00974282470304 L 3.781835152940576,397.54918920673254 L 9.400868375723197,398.401756286145 L 10.980214450846704,399.3622345735749 L 12.785181054359107,398.2614607540511 L 13.397580498980927,398.90897636727493 L 14.590147921909834,401.1752474800168 L 19.059589274255938,399.2758997716952 L 23.85134608208523,399.3622345735749 L 28.54640849091068,400.85149736584697 L 32.618327368952116,403.1393077643989 L 35.97040858124403,406.89465689177894 L 41.374564833708945,415.85081599533413 L 50.453117753949506,420.6199168503223 L 56.877940011504755,426.66189470303004 L 63.56061426377689,431.36575713355717 L 68.29374725177375,430.6544555313207 L 69.1721269988754,431.1023031837641 L 73.5930062662199,431.554446555693 L 76.40381248105784,433.4315040008148 L 78.12304320171525,434.9797078522957 L 94.56489342844256,438.18564840668114 L 98.50820858033703,439.37757495641404 L 100.97789723062117,440.6927883991574 L 101.5373296565485,441.88468573106746 L 101.71471036269057,443.4190619817522 L 101.3872378331662,448.2823345813664 L 102.24685319350208,451.9810075875526 L 105.78082774283716,457.39178934117393 L 102.16498535793858,460.1861072525413 L 99.20408779463212,461.3777787964292 L 86.26892252212407,464.45962346150395 L 85.83229232444832,464.7883481581868 L 85.77698980485764,464.8292501956013" fill="none" stroke="#000000" stroke-width="0.8160000000000001"/>
</svg>
