<?xml version="1.0" ?>
<svg xmlns="http://www.w3.org/2000/svg" xmlns:ev="http://www.w3.org/2001/xml-events" xmlns:xlink="http://www.w3.org/1999/xlink" baseProfile="full" height="600px" version="1.1" viewBox="-80.2497290397013 -94.06800000000001 958.3167484764153 1124.136" width="512px">
	<defs/>
	<path d="M 721.356586378475,0.0 L 773.8750468767319,97.8621917024165 L 785.4444836870146,181.31659237263804 L 722.5896245842457,210.50361947944813 L 652.0481164181801,235.6158899237295 L 589.5684874107556,316.52618828420196 L 531.1198080634308,230.03547466278695 L 466.62470758632554,288.6272999719434 L 436.39263553783235,218.87449108808082 L 438.4081070079038,151.90429422408073 L 418.2533855884984,140.74187253409298 L 363.8356491813165,163.0665024588007 L 311.00641609496677,136.35581124570095 L 505.8764021674396,36.36592186120508 L 721.356586378475,0.0" fill="none" stroke="#000000" stroke-width="0.936"/>
	<path d="M 785.4444836870146,181.31659237263804 L 797.8172903970128,270.5533565344179 L 791.2693035454434,346.23668437166987 L 764.914532172296,375.10971349295227 L 718.5586816445405,403.0046595313011 L 696.38849547588,419.7410098797167 L 637.9398094081607,422.53035700562407 L 599.6458447602533,475.52554088998426 L 535.1507510031361,508.9938172817482 L 472.67112871651227,478.31463320623124 L 442.43904994760913,436.47690150554934 L 452.5164072971225,366.7409839493 L 466.62470758632554,288.6272999719434 L 531.1198080634308,230.03547466278695 L 589.5684874107556,316.52618828420196 L 652.0481164181801,235.6158899237295 L 722.5896245842457,210.50361947944813 L 785.4444836870146,181.31659237263804" fill="none" stroke="#000000" stroke-width="0.936"/>
	<path d="M 791.2693035454434,346.23668437166987 L 782.3706773353725,449.07427464517974 L 728.3101124933984,552.046134354954 L 721.356586378475,565.2986171141544 L 702.0483237881793,587.2050990569021 L 690.4633677278599,613.9192478035087 L 643.9862238179375,609.3876246287613 L 615.7696232395002,620.5414725069219 L 589.5684874107556,601.0221050527404 L 605.6922658900181,564.7701961615401 L 603.6767944203687,536.8826388149811 L 565.3828297720236,536.8826388149811 L 535.1507510031361,508.9938172817482 L 599.6458447602533,475.52554088998426 L 637.9398094081607,422.53035700562407 L 696.38849547588,419.7410098797167 L 718.5586816445405,403.0046595313011 L 764.914532172296,375.10971349295227 L 791.2693035454434,346.23668437166987" fill="none" stroke="#000000" stroke-width="0.936"/>
	<path d="M 690.4633677278599,613.9192478035087 L 686.4852254584681,646.644961519551 L 692.4105279295202,677.7942749911853 L 588.6186208887226,853.1444856503882 L 579.4911300612579,779.4617077957096 L 585.5375444710346,715.3409759277638 L 593.5994303504609,676.3076663333616 L 611.7386802997949,645.6368948704843 L 615.7696232395002,620.5414725069219 L 643.9862238179375,609.3876246287613 L 690.4633677278599,613.9192478035087" fill="none" stroke="#000000" stroke-width="0.936"/>
	<path d="M 588.6186208887226,853.1444856503882 L 559.1672015377853,902.8917306209725 L 415.745200878849,923.3859958296151 L 400.11414235957443,854.7252842088018 L 369.8820635910933,812.9133359085765 L 402.1296138296459,771.098516915564 L 414.2224426487931,704.1888589059796 L 478.71754312586705,704.1888589059796 L 537.1662224732075,673.519478015459 L 589.5684874107556,601.0221050527404 L 615.7696232395002,620.5414725069219 L 611.7386802997949,645.6368948704843 L 593.5994303504609,676.3076663333616 L 585.5375444710346,715.3409759277638 L 579.4911300612579,779.4617077957096 L 588.6186208887226,853.1444856503882" fill="none" stroke="#000000" stroke-width="0.936"/>
	<path d="M 415.745200878849,923.3859958296151 L 327.46808033730485,936.0 L 265.1189891282091,903.7798629428005 L 104.2645970674585,820.6473001899985 L 32.392983546821725,668.7628081552948 L 101.8243177736195,665.1548367051099 L 174.38130413013536,676.3076663333616 L 267.09300518564663,718.1289733737569 L 273.13941959543905,754.3717917116234 L 273.13941959543905,787.8247842009113 L 305.386969833976,812.9133359085765 L 369.8820635910933,812.9133359085765 L 400.11414235957443,854.7252842088018 L 415.745200878849,923.3859958296151" fill="none" stroke="#000000" stroke-width="0.936"/>
	<path d="M 32.392983546821725,668.7628081552948 L 0.0,600.2951749345731 L 93.76243189375562,587.0793178088733 L 164.3039400602433,561.9814893596737 L 214.69074024853623,531.3049763929994 L 244.9228122966074,492.25990371430913 L 242.90734082697355,433.6876180884496 L 285.23224841500826,478.31463320623124 L 341.6654630126716,508.9938172817482 L 381.9748924102405,564.7701961615401 L 410.19149970907216,640.0602255112145 L 414.2224426487931,704.1888589059796 L 402.1296138296459,771.098516915564 L 369.8820635910933,812.9133359085765 L 305.386969833976,812.9133359085765 L 273.13941959543905,787.8247842009113 L 273.13941959543905,754.3717917116234 L 267.09300518564663,718.1289733737569 L 174.38130413013536,676.3076663333616 L 101.8243177736195,665.1548367051099 L 32.392983546821725,668.7628081552948" fill="none" stroke="#000000" stroke-width="0.936"/>
	<path d="M 0.0,600.2951749345731 L 74.91604868963725,353.40638346583034 L 189.95680338501336,237.01006466639475 L 231.21646791111095,195.25881563816452 L 267.09300518564663,224.4550083848834 L 299.34055542462124,266.3072712839936 L 305.386969833976,324.8956154691096 L 269.1084766557181,352.79284646129196 L 244.9228122966074,338.8443903084598 L 244.9228122966074,363.9513819440241 L 242.90734082697355,433.6876180884496 L 244.9228122966074,492.25990371430913 L 214.69074024853623,531.3049763929994 L 164.3039400602433,561.9814893596737 L 93.76243189375562,587.0793178088733 L 0.0,600.2951749345731" fill="none" stroke="#000000" stroke-width="0.936"/>
	<path d="M 231.21646791111095,195.25881563816452 L 267.22631330883735,158.81760011919644 L 311.00641609496677,136.35581124570095 L 363.8356491813165,163.0665024588007 L 418.2533855884984,140.74187253409298 L 438.4081070079038,151.90429422408073 L 436.39263553783235,218.87449108808082 L 466.62470758632554,288.6272999719434 L 452.5164072971225,366.7409839493 L 442.43904994760913,436.47690150554934 L 472.67112871651227,478.31463320623124 L 535.1507510031361,508.9938172817482 L 565.3828297720236,536.8826388149811 L 603.6767944203687,536.8826388149811 L 605.6922658900181,564.7701961615401 L 589.5684874107556,601.0221050527404 L 537.1662224732075,673.519478015459 L 478.71754312586705,704.1888589059796 L 414.2224426487931,704.1888589059796 L 410.19149970907216,640.0602255112145 L 381.9748924102405,564.7701961615401 L 341.6654630126716,508.9938172817482 L 285.23224841500826,478.31463320623124 L 242.90734082697355,433.6876180884496 L 244.9228122966074,363.9513819440241 L 244.9228122966074,338.8443903084598 L 269.1084766557181,352.79284646129196 L 305.386969833976,324.8956154691096 L 299.34055542462124,266.3072712839936 L 267.09300518564663,224.4550083848834 L 231.21646791111095,195.25881563816452" fill="none" stroke="#000000" stroke-width="0.936"/>
</svg>
