<?xml version="1.0" ?>
<svg xmlns="http://www.w3.org/2000/svg" xmlns:ev="http://www.w3.org/2001/xml-events" xmlns:xlink="http://www.w3.org/1999/xlink" baseProfile="full" height="600px" version="1.1" viewBox="-80.52367198380885 -105.25806874557915 961.0473439676177 1257.8601051088613" width="459px">
	<defs/>
	<path d="M 502.65756698978913,341.4161005873291 L 503.36852572537424,340.7278640849466 L 507.0866629138885,337.136250429741 L 510.8127109663122,333.5402739827509 L 514.5308480782838,329.94389621997954 L 518.2450297582991,326.35108038541864 L 521.9671223787698,322.74992656201243 L 525.6813040587843,319.156296435123 L 529.4033966027091,315.55828858312907 L 533.1373556721263,311.9598667706703 L 536.8554927840979,308.3610284640756 L 541.4438321972407,301.37840237105127 L 546.0321716869262,294.38624112017874 L 550.6205111000728,287.4023891529024 L 555.2246723941147,280.4169055523145 L 559.8130118838039,273.4337445618826 L 564.4092622373893,266.44295611538985 L 569.0134236079776,259.4425301561747 L 573.6017630211204,252.4602712085492 L 578.1901024342626,245.45640955408274 L 582.782397355905,238.4587547019348 L 587.3865586499506,231.46729399414843 L 591.970942631141,224.4581370507475 L 596.5632376293204,217.46309793193674 L 601.1634434148716,210.46226196253807 L 605.7399164556105,203.4556072507779 L 610.3322113772522,196.44709547701984 L 610.3322113625678,187.85253649763695 L 619.5841059281286,187.29283579166756 L 621.1188263210292,220.4325410442584 L 623.4129960550359,238.91225608538036 L 628.7686957194925,248.9158769188139 L 637.1859253144034,255.07018518521267 L 649.4320451738946,262.76318806758553 L 667.0417754843529,263.53217626485724 L 674.6916448828156,267.3768098377294 L 679.287895275007,282.75027792394565 L 683.11678540191,277.3704794791258 L 686.1783154012007,272.7584413266635 L 695.3629051237276,274.29586790854046 L 704.2439207939481,282.48874062260336 L 703.5088894629882,283.46751997844956 L 702.3565099254099,285.9752997884882 L 700.1887904627752,292.7721388952653 L 698.5069392043953,295.7292538587633 L 695.9966204425336,298.089112015748 L 686.1297596144163,304.1238912058641 L 679.4459580974391,310.9604166210357 L 678.0817898103029,313.17227801733037 L 677.1848024622919,315.9649975395582 L 676.4746874593109,321.3872856651491 L 676.8858066796217,322.2992378795613 L 678.0194990286221,323.04252192284326 L 678.3434111392748,324.76325119067 L 678.1440805919791,326.69310522619935 L 677.7080450436894,328.060795093404 L 675.5216383924818,331.16129980519895 L 673.2355665058985,333.63399520912054 L 672.569055096024,334.9389523047207 L 672.270059313354,338.2885175006322 L 671.9523762655631,339.6369866619464 L 664.0411558772023,353.43738523406165 L 653.2609353007975,341.10252510379695 L 648.6725958327887,340.3354841327974 L 629.5360559159448,331.1295781764664 L 617.2899361941264,330.3623006638055 L 576.7226866952643,353.37472682969644 L 505.1999678766395,341.90918695911927 L 504.590826232686,341.84576468285087 L 502.65756698978913,341.4161005873291" fill="none" stroke="#000000" stroke-width="1.047343967617703"/>
	<path d="M 421.10680853309304,420.14745933444794 L 422.72054899230847,418.58976528914303 L 424.2790021939724,417.084776340367 L 427.70839040056626,413.7818948944389 L 431.1417341156501,410.4767428520603 L 432.7001873173186,408.97538254533634 L 436.4183244292902,405.38690390818067 L 440.13646154126246,401.7980741392427 L 443.8506432212777,398.20691205428767 L 447.57273584174834,394.62330911284965 L 451.2987838941669,391.0294534832469 L 455.0169210826812,387.43919439297224 L 458.73505819465345,383.85253076418655 L 462.44528444271566,380.25758313882915 L 466.16342155468726,376.66622588264244 L 469.889469607111,373.0705372693766 L 473.60760679562526,369.48239556340894 L 477.32574390759686,365.88991747712134 L 481.0517919600116,362.3010221850409 L 484.77784001243083,358.70778473482494 L 488.49597712440305,355.1102013455541 L 492.2141143129167,351.5161935471197 L 495.9322514248883,347.92179712301174 L 499.6503886134026,344.3270094765266 L 502.65756698978913,341.4161005873291 L 504.590826232686,341.84576468285087 L 505.1999678766395,341.90918695911927 L 576.7226866952643,353.37472682969644 L 617.2899361941264,330.3623006638055 L 629.5360559159448,331.1295781764664 L 648.6725958327887,340.3354841327974 L 653.2609353007975,341.10252510379695 L 664.0411558772023,353.43738523406165 L 659.8928797233749,360.67157369042195 L 654.8348676694173,366.4295192407539 L 643.0868250356236,382.8247051489121 L 637.4370506322718,393.9147010438278 L 633.9238501476261,399.2994956819304 L 630.1427993476872,409.7925690352439 L 620.7119739913174,429.56185587789435 L 620.5064143811597,431.2430788830367 L 620.6621413353568,432.96469996628673 L 621.3847145405965,436.1586805860394 L 621.5466705576471,437.81782834901804 L 620.450352662341,444.50662704726193 L 617.7593906183088,450.2949978003901 L 611.2798539091401,461.4216240060504 L 603.5197164877793,474.74333852324696 L 591.709383072305,492.861241501099 L 587.9532486003493,501.05800951003613 L 585.9163397639296,503.8116878120403 L 580.4036050496546,509.076156319584 L 572.7418381378656,521.7780222795958 L 563.6224667664242,531.6314230866881 L 553.9424782833399,544.6626825128186 L 542.7114491680819,567.2451600829822 L 534.5077524097746,579.1317050001227 L 526.2479939326448,587.9565058641844 L 525.8079407240891,587.821537765017 L 500.1765273032168,576.625597444764 L 508.5937568981285,523.212187980376 L 497.88235750037825,494.1907933235984 L 488.69776770901495,480.4381922481403 L 507.8334652707264,439.9161242387587 L 478.9251411930727,433.3278219770942 L 450.0159748630826,426.7382081827992 L 421.10680853309304,420.14745933444794" fill="none" stroke="#000000" stroke-width="1.047343967617703"/>
	<path d="M 348.5069642404064,496.43528733266834 L 355.8296797113082,488.4521240738498 L 364.04122510413094,479.49033148687636 L 372.25277057350087,470.5345630442059 L 380.46431596631913,461.57688337301954 L 385.1198983350061,456.79800081355177 L 389.7913025080405,452.0165814755027 L 394.45875124912243,447.2365713225672 L 399.13411093065514,442.45598856838706 L 403.80947068874013,437.6748273893291 L 408.4848302937232,432.8930818818119 L 413.14436817090785,428.10876904372265 L 417.8118168354522,423.32781432613314 L 421.10680853309304,420.14745933444794 L 450.0159748630826,426.7382081827992 L 478.9251411930727,433.3278219770942 L 507.8334652707264,439.9161242387587 L 488.69776770901495,480.4381922481403 L 497.88235750037825,494.1907933235984 L 508.5937568981285,523.212187980376 L 500.1765273032168,576.625597444764 L 525.8079407240891,587.821537765017 L 526.2479939326448,587.9565058641844 L 506.1467565726592,609.4170907487895 L 499.35706068089854,618.8327540393507 L 487.59655992138494,630.8421890181218 L 477.7296990932676,641.0638121821319 L 464.9538584852487,654.4205989392942 L 464.64062930196025,654.2311450757002 L 415.21313817858544,622.3691522010675 L 415.9804983750377,596.4524472802655 L 396.8439584581899,581.201189914864 L 393.7824285965719,557.5564664017957 L 401.44020891921787,542.2941735943259 L 402.9670183879352,531.609183737762 L 388.4267289321108,535.4255181269336 L 363.167129154358,529.3192393601155 L 360.1055991550665,523.212187980376 L 348.5069642404064,496.43528733266834" fill="none" stroke="#000000" stroke-width="1.047343967617703"/>
	<path d="M 302.1302862909454,545.3899229019329 L 304.3453467078461,544.4671151875954 L 310.40116369885635,537.9497933378362 L 310.4209410117034,537.9497933378362 L 314.77195251757087,533.2027492131815 L 322.9834979869401,524.2576394608192 L 331.19899881171153,515.3069042426191 L 339.4065888491194,506.35444955840234 L 347.61813424194725,497.4041844035688 L 348.5069642404064,496.43528733266834 L 360.1055991550665,523.212187980376 L 363.167129154358,529.3192393601155 L 388.4267289321108,535.4255181269336 L 402.9670183879352,531.609183737762 L 401.44020891921787,542.2941735943259 L 393.7824285965719,557.5564664017957 L 396.8439584581899,581.201189914864 L 415.9804983750377,596.4524472802655 L 415.21313817858544,622.3691522010675 L 391.4882587937282,646.7497973405701 L 391.4012386277162,647.0115892054657 L 387.79385444677524,650.607682347508 L 387.65936866682597,650.5604442658988 L 380.7689486094687,671.123803621362 L 329.48238878866925,674.9312075743242 L 320.29779906614175,674.1717094907345 L 314.17473913639645,671.123803621362 L 291.9766692890936,669.6007887167974 L 291.2172200168292,636.8462421453087 L 293.5113897508307,624.6552242183575 L 289.6824996239278,608.6509654674986 L 284.32679989063485,582.7263035703057 L 277.95967105367953,543.9971107028783 L 278.1443462341815,544.0076767664993 L 282.11563313432754,544.2364105536374 L 286.07900909403105,544.4611996719648 L 290.050295994177,544.6899313926594 L 294.0136720304181,544.920633867336 L 297.98100349860715,545.149363497212 L 302.1302862909454,545.3899229019329" fill="none" stroke="#000000" stroke-width="1.047343967617703"/>
	<path d="M 229.9034946046792,541.225322526359 L 234.5076558987159,541.4935080476367 L 238.4789427988619,541.7222532596453 L 242.44231875856542,541.9490256625202 L 246.41360565871142,542.1817126674961 L 250.37698161841047,542.4065110118249 L 254.34826851855647,542.6352520383294 L 258.311644554793,542.8679359224325 L 262.28293145493905,543.094703046865 L 266.24235198268946,543.3254128594416 L 270.20968337434095,543.552177911084 L 274.1809702744876,543.7809138525078 L 277.95967105367953,543.9971107028783 L 284.32679989063485,582.7263035703057 L 289.6824996239278,608.6509654674986 L 293.5113897508307,624.6552242183575 L 291.2172200168292,636.8462421453087 L 291.9766692890936,669.6007887167974 L 282.7920794977348,671.123803621362 L 278.9711002261744,669.6007887167974 L 263.6555395808857,670.362300038727 L 253.71150051725797,664.2699928990522 L 256.0056701824231,660.4620463301163 L 256.0056701824231,646.7497973405701 L 254.4709498583588,643.7027033013336 L 246.05372019461137,625.4172300533797 L 228.45190073950067,620.0829977114206 L 223.08829015086008,620.0829977114206 L 216.2057810176823,623.1311853159367 L 213.14425101839086,625.4172300533797 L 207.7806404297509,635.3224889537239 L 200.13077110012472,643.7027033013336 L 187.11729104418575,646.7497973405701 L 164.9192211968829,639.1318067825072 L 166.44603073443596,625.4172300533797 L 163.38450080398152,619.3209277312147 L 147.31740181060792,591.8780886762767 L 145.7996809249488,588.9634115204794 L 148.05305653086242,586.4521525667466 L 149.20805230545895,583.9971382544757 L 150.5687322255455,578.6650909711414 L 151.59715318259492,576.0993774922994 L 152.10345268241,575.2815557555934 L 152.70468339104977,574.5346670011944 L 158.44801865533498,569.8422362755582 L 164.86378293921456,564.5935605714212 L 173.55393965509208,560.4896532337355 L 182.2955173690676,556.3578257611556 L 190.89469838459698,552.3005868875558 L 196.18711057912714,549.8026036596076 L 204.76255877331883,547.834887335932 L 210.57709242509233,546.5039737876987 L 218.13203067922424,544.7727477894175 L 220.42620042406472,544.2482415608663 L 227.09511441957667,541.8938115561343 L 229.9034946046792,541.225322526359" fill="none" stroke="#000000" stroke-width="1.047343967617703"/>
	<path d="M 70.39145587507792,615.7171538030776 L 71.41987683213121,614.2165300043453 L 72.47203045744644,613.3736437989234 L 72.87548796105658,612.4224291376767 L 72.81220051401138,610.0866713279277 L 73.33432189471269,608.603635281056 L 74.69500181479924,607.4100898794561 L 80.09816709906215,604.110975774592 L 84.42544586013013,600.6757640881979 L 87.06769644889847,599.3540211615704 L 89.55172853487647,598.7295809091022 L 96.17317704078494,598.662605872946 L 101.94815599032171,598.603510126551 L 110.9587052968235,597.0807901909249 L 122.69061459657543,595.0872080276541 L 134.20101794649693,593.1329583139798 L 139.64373785646222,592.2090006359136 L 142.8476645281763,590.9343481426806 L 145.7035102794205,589.0705857587258 L 145.7996809249488,588.9634115204794 L 147.31740181060792,591.8780886762767 L 163.38450080398152,619.3209277312147 L 166.44603073443596,625.4172300533797 L 164.9192211968829,639.1318067825072 L 163.38450080398152,672.6487556817767 L 163.38450080398152,685.5929137968424 L 150.37893174106236,687.1156168504881 L 125.11933203214146,684.8315514165569 L 120.523081571118,709.9548041438012 L 118.22891190594777,722.8932809240241 L 109.81168231103675,770.0687037505625 L 51.63470250171642,770.8313721984836 L 34.79233231887012,822.5497062234891 L 0.23732790727533604,824.8068341277457 L 0.23732790727533604,823.520339795631 L 0.23732790727533604,814.0155697179308 L 0.23732790727533604,804.5122615834794 L 0.23732790727533604,795.0044738821729 L 0.23732790727533604,785.4941254518712 L 0.23732790727533604,775.9890321704501 L 0.23732790727533604,766.4773550999646 L 0.23732790727533604,758.3783886728276 L 0.23732790727533604,750.2808281482447 L 0.23732790727533604,742.1807131902076 L 0.23732790727533604,734.0799813461867 L 0.23732790727533604,728.4366161291522 L 0.13448583452775037,718.1912086649535 L 0.03955462569470434,708.3813118741585 L 0.0,704.3059964529409 L 1.099619268003404,702.193524119362 L 3.7181371119632898,699.6128547402785 L 10.007326501757607,693.4244374384238 L 16.304426908546677,687.2316259006117 L 22.60152723878411,681.0344065975254 L 28.882805764669012,674.8406362965825 L 32.84618172437253,669.2052106001642 L 36.80164674361948,663.5772344279243 L 40.76502270331404,657.9389875550626 L 44.720487799108135,652.3062036902626 L 51.14416294689714,643.1593471818359 L 57.559927307323235,634.0112627959405 L 63.983602455103274,624.8658474036863 L 70.39145587507792,615.7171538030776" fill="none" stroke="#000000" stroke-width="1.047343967617703"/>
	<path d="M 610.3322113625678,187.85253649763695 L 610.3322113772522,187.78294517843602 L 610.3322113772522,179.11390087982397 L 610.3322113772522,170.43992499757033 L 610.3322113772522,161.7729471090427 L 610.3322113772522,153.10097003348258 L 610.3322113772522,144.41996399639464 L 610.3322113772522,135.7378734283354 L 610.3322113772522,127.05666194867982 L 610.3322113772522,118.36231064358807 L 610.3322113772522,109.67076379547785 L 610.3322113772522,100.9739930884693 L 610.3322113772522,92.28396229767388 L 610.3322113772522,83.57863400803105 L 610.3322113772522,74.87597540833362 L 610.3322113772522,66.16794606226638 L 610.3323219755208,57.454788652722634 L 613.2183922359835,57.277978612563956 L 623.2908125977083,55.32487397061203 L 633.3320876451432,53.48835571582964 L 636.2784419552888,52.19449641412785 L 637.4432796951298,50.566018506757096 L 638.2219145426458,49.985291675678944 L 639.174963609475,50.367184386781474 L 639.9037658010301,50.786943127463765 L 640.6886297113996,50.82481575771795 L 645.6158310626009,50.367184386781474 L 647.0796645851159,50.035790300031934 L 648.294334980917,49.54973637400214 L 652.3930688286416,47.169810125147755 L 653.8257569603159,46.90149975163809 L 654.9283039184807,46.23544445280576 L 656.6662168956832,42.90486204488982 L 657.7500765887273,41.60090247828091 L 659.1453902666997,41.095715509017126 L 660.8895323067647,40.96310191465381 L 664.3279838074722,41.07045583568534 L 664.7515611534953,40.93152714438338 L 665.9724606121584,40.23371289342983 L 666.6825756151362,40.01583868922431 L 667.5608756980265,39.9842625366355 L 669.8220313331736,40.49579059554572 L 676.5992690226678,41.222013356087174 L 680.1498439610123,40.71681746963947 L 682.4047704567587,38.90748798289341 L 683.0027620220995,38.98011673739933 L 684.3731593720938,38.092766600976624 L 685.2576885943886,37.84644944429363 L 685.5566843770587,37.694868251878496 L 686.515962506746,36.9937913882006 L 687.107725009228,36.7853587222321 L 687.6683421208708,36.832729991435 L 688.1915847022722,37.02221387182205 L 688.5591003294766,37.22117020790631 L 688.6774528299716,37.31591064913983 L 695.6602502061661,37.11063912814677 L 697.086709274983,37.31591064913983 L 701.602791405872,34.89358225476343 L 703.1039993820858,33.49754031742556 L 703.9262377461528,33.07428795559479 L 706.6608033832883,33.13114324496329 L 707.3460020582874,32.808961306098674 L 707.9439936236275,32.35410802030341 L 708.7911483156778,31.930833099105975 L 712.0738728621922,31.062145753936935 L 713.6498297457982,30.04178788929599 L 720.0346355566519,24.879230505492508 L 723.5416069018931,24.171413936859686 L 724.9867532358306,23.19496765452296 L 727.5406755142434,20.30328545523739 L 729.8703509939286,18.207754165493764 L 730.779796467655,16.933898258251773 L 731.1535412342686,15.267970554161389 L 731.2532064696428,13.513388009998883 L 731.5646604545756,11.749173539516095 L 732.0629867079949,10.073348533115766 L 732.760643585256,8.58712731545892 L 734.4923274995972,6.3133204952774475 L 735.6197907091974,5.298091696015859 L 736.6849632136674,4.871111446536349 L 737.6193250153719,4.754085787577909 L 739.5627976027283,3.808367198049953 L 739.9178551042218,3.2927901571927087 L 740.2542253405861,2.916379242054502 L 740.609282842075,2.698121046891503 L 741.0702347183421,2.7265896439439485 L 741.7429751910792,3.1631031432453844 L 742.1665525371062,3.2295282964762793 L 743.8110293417924,2.7803635627759733 L 747.0190049809106,1.3980137247311506 L 749.8283194488952,0.8064537859720218 L 750.6256415615273,0.2591666909734244 L 752.6065965281026,0.0 L 757.9027330715078,3.5938156773694945 L 765.7887420363692,4.4153391262023485 L 770.3219887640685,8.087480243970335 L 771.8169676774196,8.58712731545892 L 777.8529450496425,8.58712731545892 L 779.3479239629937,8.979247004841293 L 781.945449834509,10.395876170427957 L 783.3656797639169,10.712075007216788 L 785.1409672713652,10.753180471997009 L 786.9910036096582,11.002973634792243 L 788.5420442418281,11.63534813756643 L 790.482680148559,12.12605051607513 L 789.308220963628,14.65151231416651 L 788.468254493769,17.861454549840744 L 787.1653748883946,20.231454004543085 L 787.6513233096256,23.89117374362212 L 787.0461188752682,26.163654522431763 L 785.6484037397079,27.444404099103114 L 784.3463018869503,29.61452909422948 L 781.95169497138,31.875119915878372 L 779.4164438075279,35.19678300003867 L 777.6286981743641,37.079058726641954 L 777.3297023916946,37.58118171677157 L 777.4106804384948,38.449605732350356 L 777.7719670028417,39.63692173725471 L 777.8529450496425,40.252658403056564 L 777.6473854394893,42.03030217099276 L 777.1428300466654,43.71624528235776 L 774.676114877907,49.0762969548388 L 774.302370111298,50.291437631749126 L 774.152872219963,55.375360303323355 L 773.629629638561,58.64410239077389 L 774.6574276127869,62.19625993970224 L 778.101596716559,64.30651731723057 L 781.430829277283,64.46064407815112 L 782.5839035949552,66.0463568517745 L 780.6622595941698,67.71580262261958 L 778.9679501335228,71.46200514765282 L 778.133253567188,72.66645897450972 L 777.5539492669724,73.7605010203457 L 777.1366009838034,75.45348129691313 L 776.8874377805514,77.27873077611927 L 777.6100109857905,88.02863912000439 L 778.6564962251366,101.79349627622041 L 780.3757219372152,107.85121892187945 L 779.8898538095157,108.68230149026564 L 778.133253567188,108.97506211784258 L 776.3019044174732,109.54483317782737 L 775.8783270714455,110.93614958442905 L 776.283217152348,114.30392741073678 L 775.9032433994237,115.87749027377558 L 775.1432957404858,116.84675279846786 L 773.9659998749298,117.33766279546704 L 772.3402102588171,117.472975985016 L 770.8203150940299,117.97960665934185 L 769.4810631348756,119.17219154418427 L 768.8519261786948,120.56923310442303 L 769.4872921977337,121.69876291447885 L 770.994729236801,121.95675388130469 L 782.6555647609404,119.6347346644695 L 783.4591159364337,119.73856968444099 L 784.3000415656265,119.9651171081909 L 784.9478657869269,119.94938475567608 L 785.2157161787615,119.34525298145752 L 784.8855750052506,118.48307990438934 L 784.1692309394153,118.01107404591822 L 783.4528868735763,117.67122404195216 L 783.12274570007,117.21178941654094 L 783.0666839812467,115.44319735755379 L 782.8548953082354,113.82869075867072 L 782.3752562433941,112.25184357277786 L 781.55924694218,110.60878842824413 L 782.7552300728612,111.6789906654396 L 783.9490948016777,112.52065847087962 L 784.9676652206794,113.53919403577743 L 786.2933156559731,114.3052542871981 L 786.955715180172,114.76426753934494 L 787.8223488207665,115.17330051329934 L 789.5533214982946,116.44720215238523 L 790.4699920113634,117.00828320159069 L 791.8988783327252,117.31922447432802 L 793.0224501002566,117.58021149095289 L 793.7872805851697,117.43061184742216 L 794.5529796791418,116.97590058315264 L 795.4205791383074,116.72483436806456 L 797.0009052448946,116.88343001259136 L 798.326439641121,117.08966931659928 L 798.9314282244413,118.8154448590808 L 800.0,119.52856129481582 L 799.5351666322422,120.89506303803616 L 798.5052002736271,123.52554528204409 L 797.5492922521792,123.8569912010797 L 797.1768236091355,124.17917654404002 L 796.59624318535,124.63717723708653 L 796.8649812454252,125.69803258121902 L 796.202045997332,125.69551485169629 L 794.8272706219227,125.13301447725956 L 793.8071191323534,125.17989809329603 L 792.5784873078758,124.86367804080209 L 791.1052249222616,125.32131731893521 L 788.9651681475954,124.9085777470195 L 788.3925463504925,123.4417204721794 L 788.2056740054637,122.53565016840538 L 787.7198058777599,121.62954538179683 L 786.5238227470788,121.22052848430961 L 774.9751339296226,122.6348550169189 L 769.3895353304476,124.59844805000115 L 762.5208319128346,128.77850826670397 L 761.1806505695374,131.26816796886916 L 760.5547931713254,135.99733234944637 L 761.4052264262841,140.44717609967057 L 759.1843958213267,146.28668970566278 L 759.5581405879402,149.80979167730172 L 760.4551279359512,152.24832529713098 L 760.5547931713254,153.20670358794263 L 760.4052952799904,154.05193105916462 L 759.7200966049913,155.1861873218972 L 758.7172149587481,160.54257050264928 L 758.9850653505774,161.4063954378643 L 758.1005361282832,163.02716474394205 L 757.6022097983212,164.44996297042087 L 756.9045529976015,168.30336292651825 L 755.8767550233807,171.10746393933204 L 755.3161379117386,171.95522723805055 L 755.7272571320457,174.10590699560905 L 755.5964464292841,174.88764183568802 L 755.1977854112391,176.33174747447384 L 754.6433974390015,181.0370815382157 L 753.2418546981672,183.08970518219976 L 753.1920220422065,185.44342973463742 L 753.7650972795648,189.5132979013016 L 755.5839883035686,194.45778411346552 L 755.8580677582562,196.07018674500637 L 755.6338209595287,197.528792213779 L 755.0918911130074,198.88381109945936 L 750.3453330439818,206.61737700187842 L 748.8129796769325,207.83083376485982 L 745.5987749749563,209.20413672910755 L 744.3093556717583,210.0412524432821 L 743.3376193398053,211.2482831570738 L 741.0577765160801,214.93174159452207 L 740.609282842075,216.08840002838457 L 741.2259616725397,221.00599502749972 L 741.1698999537216,222.707669688607 L 740.0362076047168,225.57489141181736 L 737.8061973604058,228.29142337993315 L 729.4156282570654,234.90773198714325 L 727.061036449402,237.3257972961469 L 725.1923128459839,239.81881477977097 L 723.8406026845638,242.20826904847692 L 722.7629720543778,245.34587891812737 L 721.3738875158049,251.71709255232585 L 720.1841334479864,254.38412275177052 L 716.5276642114056,258.8286177393899 L 715.9981924906036,260.4247113519629 L 716.2286684287355,265.0841716129405 L 715.9981924906036,266.46402849503977 L 714.7648349062245,269.3267872296547 L 713.7494950577146,270.6970572134074 L 712.5784282550161,271.2820615492873 L 711.1457401233412,271.7888471615411 L 710.3733343386878,273.02761963017514 L 709.8376335550238,274.57288334979813 L 709.1524348800241,276.00859186114513 L 704.2439207939481,282.48874062260336 L 695.3629051237276,274.29586790854046 L 686.1783154012007,272.7584413266635 L 683.11678540191,277.3704794791258 L 679.287895275007,282.75027792394565 L 674.6916448828156,267.3768098377294 L 667.0417754843529,263.53217626485724 L 649.4320451738946,262.76318806758553 L 637.1859253144034,255.07018518521267 L 628.7686957194925,248.9158769188139 L 623.4129960550359,238.91225608538036 L 621.1188263210292,220.4325410442584 L 619.5841059281286,187.29283579166756 L 610.3322113625678,187.85253649763695" fill="none" stroke="#000000" stroke-width="1.047343967617703"/>
	<path d="M 43.67220073942276,1045.8233762547445 L 43.87401824273645,1041.0608742766283 L 43.59713563322054,1039.6222941331582 L 42.6715568254524,1037.9478980337321 L 39.736601822806634,1034.174676183257 L 35.8839788762983,1029.2224558000244 L 32.02344498934301,1024.2782408373841 L 28.075890834000994,1019.2084023731699 L 24.310288079341202,1014.3744993492124 L 20.813657070292386,1009.8944037245482 L 16.597131322414484,1004.4791203799135 L 12.681220928870562,999.4412203084303 L 8.891885352860278,994.5841915247344 L 6.945796605027853,992.0771223673057 L 4.9917968402013155,989.5779369981695 L 3.0536190328209765,987.0709164102955 L 1.099619268003404,984.5639188841251 L 1.0284208805074027,978.7876912263886 L 0.9572224930114012,973.4280771280467 L 0.886024182065753,968.0685475064341 L 0.7752710923330189,959.8093602270112 L 0.6645180791429536,951.5581820881314 L 0.5537650659522478,943.3149827771498 L 0.4430121293035704,935.0561579584323 L 0.3876355461601057,929.9248750555315 L 0.32434817566206015,924.7936083458546 L 0.23732790727533604,918.562234690279 L 0.23732790727533604,909.0540823318918 L 0.23732790727533604,899.553742978751 L 0.23732790727533604,890.0454549368823 L 0.23732790727533604,880.5448885049964 L 0.23732790727533604,871.0362813798989 L 0.23732790727533604,861.5392337476495 L 0.23732790727533604,852.0340535704813 L 0.23732790727533604,842.5324830625507 L 0.23732790727533604,833.0266172439433 L 0.23732790727533604,824.8068341277457 L 34.79233231887012,822.5497062234891 L 94.49612166574418,818.7494085172599 L 112.10585197620186,817.9909119235833 L 127.41350169731169,863.6139719511439 L 135.06337109577427,894.7878874205036 L 169.47591696815755,894.3085439326208 L 169.88781265925755,894.3085613687507 L 162.63797681480744,901.3707437808205 L 147.40165002434557,918.1200222950639 L 138.1514680266885,928.1868963684169 L 133.69767667747118,931.7879641112855 L 128.7767043891331,935.7602867217767 L 123.61279811348447,940.9763033379938 L 121.74407443352497,943.6059796371626 L 121.56343115134925,944.3856031340181 L 121.59457654218929,945.0600399111959 L 121.35164247833798,945.5426648867477 L 119.5016060634979,945.9324775580451 L 118.9409889518513,946.4336656292774 L 115.91365667145534,950.4431842473473 L 115.5087665140057,951.7054456092549 L 116.43067018999479,952.5222045290643 L 115.65826440534074,953.7844706219863 L 115.38418495064877,954.0814748516233 L 115.39041409005334,953.6174058637674 L 115.35303955980874,953.2275881211449 L 115.20354166847305,952.8748962484668 L 114.86094236924679,952.5222045290643 L 110.77466664724281,955.6840631165886 L 110.15798789332392,956.4389520562049 L 109.6534325005006,957.6888526158808 L 108.482365621255,959.050134133342 L 105.97204693594115,961.3581344726663 L 98.34765447785024,970.4850715218009 L 98.07980408601568,971.1409819572629 L 98.07980408601568,971.7226392890558 L 97.96768064837872,972.1434132978458 L 97.28248197338417,972.3042976610544 L 96.99594431643018,972.5703757399191 L 93.90632125435287,977.3660050458177 L 91.93793233901842,979.3832846436472 L 90.79801092715552,980.2372290729504 L 89.56465334277699,980.8312787775816 L 88.10704888312391,981.1778082642304 L 85.82097699653683,981.1283040706901 L 84.66859738241577,981.3634493104 L 83.97716964455866,982.1678949346061 L 85.44723222992786,982.483485696682 L 85.38494144825164,983.9624354507183 L 84.69974277325196,985.6022840686455 L 84.2201037084106,986.3634246543921 L 83.1300149525046,986.9389225402201 L 82.02123885494034,988.3065084869149 L 81.1491678349075,989.9463832753504 L 80.78788127056117,991.3511142993555 L 80.4452819713349,991.9575644004548 L 77.90381781863772,993.9378198857096 L 77.0442049243255,994.371002894526 L 76.73898007879284,993.844995070221 L 76.40883890528718,990.6518419104907 L 76.48981687554144,987.6629378169605 L 76.04132320153563,986.3634246543921 L 75.58037140181051,986.3634246543921 L 75.7797019491063,987.514421715011 L 75.54922601097368,988.3683904379825 L 75.17548132090738,989.1295387061633 L 74.99483796218962,990.0515830934191 L 75.09450327410661,990.9488777229935 L 75.47447710357748,992.0627651153293 L 75.58037140181051,992.8981838221933 L 75.79216007482627,993.8511833749636 L 76.30294453050765,994.3091195718818 L 76.83864531417164,994.630912989088 L 77.13764109684175,995.237371125437 L 77.0255176592003,996.1841913833752 L 76.24065374883142,997.7436681325889 L 76.04132320153563,998.6348023409535 L 75.6302040577706,999.6063900677659 L 73.83622936174932,1001.2277748275599 L 73.42511014144226,1001.7723647392219 L 73.30052857808533,1002.762531487833 L 72.93924201373837,1003.5917995652417 L 72.42845755805698,1004.3468075134497 L 69.53816496672896,1007.775319686929 L 69.20179473036076,1008.5489086237977 L 69.46341598279074,1009.2544242682205 L 70.06140754813094,1009.211103022712 L 70.78398075337076,1008.7902689522863 L 71.34459778846636,1008.3199259761998 L 70.42269418901995,1010.3312685520261 L 68.69101027467937,1010.5354982938488 L 67.09636604940673,1009.3658216355544 L 66.58558159372535,1007.2307148137554 L 66.11217159173758,1007.2307148137554 L 66.19937870139577,1008.7778915239087 L 67.09636604940673,1011.4885730934043 L 67.15865683108295,1012.9367603751413 L 66.68524690564169,1014.3354470084053 L 58.69956780666242,1027.1716686917105 L 56.8993640477786,1029.375086262863 L 55.441759664672674,1031.615669579229 L 52.56392519906077,1037.3658152999367 L 51.12500800453224,1038.5232970434304 L 49.38709502732912,1039.5012829701043 L 46.664987592456846,1044.019906607576 L 45.12017602314494,1045.3198098154369 L 45.59358602513271,1045.3198098154369 L 43.60650992121573,1047.343967617703 L 43.67220073942276,1045.8233762547445" fill="none" stroke="#000000" stroke-width="1.047343967617703"/>
	<path d="M 195.63661917477052,867.2398264637333 L 191.52844429618233,871.1723495149463 L 177.58776594831852,886.8023240425939 L 169.88781265925755,894.3085613687507 L 169.47591696815755,894.3085439326208 L 135.06337109577427,894.7878874205036 L 127.41350169731169,863.6139719511439 L 112.10585197620186,817.9909119235833 L 94.49612166574418,818.7494085172599 L 34.79233231887012,822.5497062234891 L 51.63470250171642,770.8313721984836 L 109.81168231103675,770.0687037505625 L 118.99627217123708,775.3954943179152 L 148.07685115171324,802.7770662844981 L 154.19991101262272,807.340182277404 L 176.39798079108473,840.0411724147539 L 182.5210406519936,848.4072116388465 L 195.4158567075136,866.9813657442542 L 195.63661917477052,867.2398264637333" fill="none" stroke="#000000" stroke-width="1.047343967617703"/>
	<path d="M 329.19731495070266,767.228637815116 L 326.5935600163248,768.7206966025954 L 324.94908321163854,769.0673965360313 L 324.1081575824502,769.3336118897997 L 308.9341216502079,776.4283559332512 L 295.9278051040525,785.3024423792983 L 295.3485007272858,786.0174206546797 L 294.4452843164174,786.3764559971196 L 284.0427227046399,793.8293331984922 L 274.3814214866764,799.8025094924634 L 257.74978109477973,812.6642036519537 L 249.2221722258166,821.3598566038631 L 247.46557198349342,822.1149049627344 L 244.36349071915413,824.0087020419691 L 243.41667071518307,824.862761469218 L 243.15504946275757,825.4847371519577 L 242.96817704117726,826.261430615919 L 242.8435954778248,827.7498268223987 L 242.53214156943474,828.0561689665483 L 241.08076617263973,828.4770019016969 L 240.76308320139543,828.7616825629847 L 240.22115335487337,829.5167031963803 L 234.79562567370687,834.9069784944276 L 233.23835597867946,835.9157065371521 L 231.5876501111352,836.342712731186 L 230.65328830942613,837.0977072576316 L 227.12140055965585,841.5719283334638 L 218.48789739246354,846.1636439268673 L 215.58514667541553,848.280013432344 L 211.93490642515408,853.3480942916631 L 210.63925805909935,854.0844745484392 L 209.58031469403272,854.4464759017982 L 206.1730085841659,857.1537371474612 L 195.63661917477052,867.2398264637333 L 195.4158567075136,866.9813657442542 L 182.5210406519936,848.4072116388465 L 176.39798079108473,840.0411724147539 L 154.19991101262272,807.340182277404 L 180.22687091799142,794.4110162286037 L 200.13077110012472,784.5232666784907 L 223.08829015086008,775.3954943179152 L 282.03263022546525,749.527918734402 L 279.7305495672797,729.7423486017811 L 282.7920794977348,709.1916935921483 L 281.26526996018043,704.6246946022128 L 285.09416008708325,686.3542689107851 L 282.7920794977348,671.123803621362 L 291.9766692890936,669.6007887167974 L 314.17473913639645,671.123803621362 L 318.0036292633038,687.1156168504881 L 334.84599944614564,711.4770722686518 L 334.0786392496972,752.5712266703255 L 338.67488957304846,754.8536538454085 L 329.21341722877,767.143788023774 L 329.19731495070266,767.228637815116" fill="none" stroke="#000000" stroke-width="1.047343967617703"/>
	<path d="M 355.1774925044159,752.335647544644 L 329.19731495070266,767.228637815116 L 329.21341722877,767.143788023774 L 338.67488957304846,754.8536538454085 L 344.0305892375089,753.3320408419974 L 355.0109602639941,752.3392462175075 L 355.1774925044159,752.335647544644" fill="none" stroke="#000000" stroke-width="1.047343967617703"/>
	<path d="M 464.9538584852487,654.4205989392942 L 462.8982624602554,656.5684821824327 L 449.2192054413636,672.4540345207502 L 438.9474544557966,681.5326491111771 L 433.26030552220396,688.3362775539496 L 422.7020169562295,697.0971286957632 L 417.0771588043137,702.8370372623688 L 412.27453901647,706.2473478830392 L 412.12504112513494,706.8916061053167 L 411.76375456078415,707.6597540024952 L 411.32771901249896,708.2978072465829 L 410.966432448152,708.5610803383097 L 409.6770131449547,709.0442618374817 L 408.9108364231542,710.2522042673844 L 408.312844857814,711.7946302643106 L 407.5155228217245,713.281281095779 L 406.4441212544004,714.0710544593576 L 403.46662155341414,715.4585615102008 L 396.25957737848836,722.9718014650509 L 395.38127729560193,724.1052394269472 L 394.1292324461021,726.446397115959 L 393.40043025454753,727.4125727304541 L 390.1862255525713,729.4316014618031 L 389.00892968701027,731.6363834334851 L 387.43297272685834,732.9245482565608 L 372.0720643730402,742.7648504073071 L 363.3139795659444,747.6722736479244 L 355.1774925044159,752.335647544644 L 355.0109602639941,752.3392462175075 L 344.0305892375089,753.3320408419974 L 338.67488957304846,754.8536538454085 L 334.0786392496972,752.5712266703255 L 334.84599944614564,711.4770722686518 L 318.0036292633038,687.1156168504881 L 314.17473913639645,671.123803621362 L 320.29779906614175,674.1717094907345 L 329.48238878866925,674.9312075743242 L 380.7689486094687,671.123803621362 L 387.65936866682597,650.5604442658988 L 387.79385444677524,650.607682347508 L 391.4012386277162,647.0115892054657 L 391.4882587937282,646.7497973405701 L 415.21313817858544,622.3691522010675 L 464.64062930196025,654.2311450757002 L 464.9538584852487,654.4205989392942" fill="none" stroke="#000000" stroke-width="1.047343967617703"/>
	<path d="M 228.45190073950067,620.0829977114206 L 246.05372019461137,625.4172300533797 L 254.4709498583588,643.7027033013336 L 256.0056701824231,646.7497973405701 L 256.0056701824231,660.4620463301163 L 253.71150051725797,664.2699928990522 L 263.6555395808857,670.362300038727 L 278.9711002261744,669.6007887167974 L 282.7920794977348,671.123803621362 L 285.09416008708325,686.3542689107851 L 281.26526996018043,704.6246946022128 L 282.7920794977348,709.1916935921483 L 279.7305495672797,729.7423486017811 L 282.03263022546525,749.527918734402 L 223.08829015086008,775.3954943179152 L 200.13077110012472,784.5232666784907 L 180.22687091799142,794.4110162286037 L 154.19991101262272,807.340182277404 L 148.07685115171324,802.7770662844981 L 118.99627217123708,775.3954943179152 L 109.81168231103675,770.0687037505625 L 118.22891190594777,722.8932809240241 L 120.523081571118,709.9548041438012 L 125.11933203214146,684.8315514165569 L 150.37893174106236,687.1156168504881 L 163.38450080398152,685.5929137968424 L 163.38450080398152,672.6487556817767 L 164.9192211968829,639.1318067825072 L 187.11729104418575,646.7497973405701 L 200.13077110012472,643.7027033013336 L 207.7806404297509,635.3224889537239 L 213.14425101839086,625.4172300533797 L 216.2057810176823,623.1311853159367 L 223.08829015086008,620.0829977114206 L 228.45190073950067,620.0829977114206" fill="none" stroke="#000000" stroke-width="1.047343967617703"/>
</svg>
