<?xml version="1.0" ?>
<svg xmlns="http://www.w3.org/2000/svg" xmlns:ev="http://www.w3.org/2001/xml-events" xmlns:xlink="http://www.w3.org/1999/xlink" baseProfile="full" height="600px" version="1.1" viewBox="-80.40779957494073 -81.96771456308319 960.8155991498816 979.5345790075911" width="589px">
	<defs/>
	<path d="M 781.5987837754268,527.8752162015328 L 781.4870120782186,527.954701204344 L 774.923560214838,532.6221533231017 L 769.8791576576812,540.4931436837745 L 762.7177265673706,549.1599349850903 L 759.9929388671003,553.5435735259232 L 755.9310806071377,563.4290801057723 L 760.4791463968171,562.7337851355601 L 762.616433601545,565.5451804433328 L 763.0823822636527,569.9586899202404 L 762.6265626433116,574.0798945968995 L 762.1504847434057,574.5635511755075 L 761.2591041742846,575.0169784280483 L 760.3778532349565,575.6719269662183 L 759.9524217199721,576.7399924885023 L 760.3677238011593,576.901209456275 L 762.2011311283109,578.2110924823841 L 762.6265626433116,578.735043290667 L 763.8319521317821,583.4303904932622 L 764.1662199187032,586.1810489819504 L 763.2950980211629,587.3901182312696 L 761.0362591790106,588.6999353326095 L 762.0897085326759,591.4404495472049 L 764.2472544089813,593.8484454562235 L 765.2905745248845,594.1708529160616 L 765.3817384489616,596.8508457499155 L 763.9636333989929,602.8152205607225 L 763.3660032736411,603.9637468575514 L 760.661474244945,607.9029435926774 L 759.9524217199721,610.1394891236964 L 759.8207404527614,612.1845984039702 L 760.1550080436704,613.4942645268917 L 761.380656007703,614.8139970260651 L 763.9636333989929,616.9195079075374 L 761.6136304367727,618.1888492256062 L 760.2968185486646,619.8007010226303 L 757.1972459143286,628.8671495000581 L 755.667718072713,631.8589975798701 L 741.395502669044,651.0482064852472 L 734.5176927847407,664.9480712155191 L 726.8700543607434,684.1749064490057 L 723.6995762778942,688.8982969033402 L 714.3198236886043,698.2239664426094 L 711.9698207263693,699.1605430470709 L 709.0120587930397,699.5835120056755 L 704.6868379986525,699.633865379396 L 702.5900683330751,700.7718497653049 L 700.6148503049156,701.8997586702853 L 695.3374733186891,715.1825352722094 L 693.129281057477,716.8843744219429 L 689.2902677928115,717.2871752006422 L 682.7062081562768,715.2933062565024 L 679.8699978603486,715.7867396435512 L 676.7197784490802,719.5931971162245 L 673.0276405042783,720.7915153764862 L 669.2544678732173,721.4964058885332 L 665.4357132801113,721.5971045233156 L 661.5865705816304,721.0130527026662 L 659.3074730679203,719.8751549787598 L 658.8313949720172,718.3042440148116 L 659.0491753483798,716.4211529188152 L 658.7959422477506,714.3467167082914 L 657.0385047919708,709.9158278409594 L 658.1628597901779,706.2401479724183 L 658.6895844669999,706.0286687670236 L 659.7177107262295,706.0588802038225 L 660.6546730613852,705.7466964888049 L 660.9788114145254,704.5382405273045 L 660.7357077476754,703.450625191404 L 659.9000383783633,701.3458754549324 L 659.6164173683732,700.2078933841182 L 659.4898009160482,696.2903779393163 L 658.6136143995982,695.4142160877902 L 655.9647967667279,693.923726798858 L 651.6800931194852,692.2620223286062 L 648.3931282141203,692.4030160273481 L 645.3178403699831,694.0514394461364 L 641.9863316108343,695.8371911735044 L 632.297634721085,698.6972904838791 L 624.7766125533662,695.9983243846826 L 605.5106411734954,677.3464793325534 L 604.6800368150926,675.5335912660016 L 605.3181840875643,672.8545207821754 L 609.106550771329,669.0372987127425 L 610.3929747500762,666.4286616584379 L 609.3293959626201,664.4948275492633 L 605.8449089604213,664.8977108717237 L 597.8326146441316,668.0804661128631 L 593.9125668891633,670.5480799463746 L 586.3560923892463,676.9234732971429 L 579.2655665514469,680.3175731718544 L 577.6144870724363,680.9017162359758 L 576.0545713214597,680.7305020949618 L 574.5351729136412,679.1492827459263 L 575.2239669630503,675.432874732168 L 574.3021984845699,673.619972435788 L 567.6067164484174,674.1739162503386 L 551.9315898514714,686.1488714381345 L 547.3582005753336,685.8668774134456 L 545.058844390046,683.0267769205861 L 541.9592717556872,681.8987849281616 L 538.4849141873086,682.1707119222117 L 535.106784965854,683.5404144787726 L 531.8198200604941,686.7330009444331 L 530.7309177865485,690.3686733695027 L 530.2041931097265,693.9337976171704 L 528.5784367251453,696.9349090479027 L 522.9870506235736,699.3418155979612 L 515.9370421289357,699.210896502833 L 508.3400502858572,698.2441079377986 L 501.0874554674882,698.1333297922434 L 489.9350713697327,699.1303308130427 L 486.1872220291279,698.6267954645398 L 482.0747171882301,698.6066539990763 L 474.8069283171918,701.9803233080034 L 459.3394526628326,705.8272601390263 L 455.4548574361204,705.0216235007351 L 453.39860511368,703.3902019090517 L 451.13976607551393,699.1303308130427 L 449.6811436824329,697.4183063238199 L 447.8072190121231,696.4212985119224 L 433.9604351234402,693.0173439314233 L 430.6481467315973,691.405988755212 L 419.9920994013209,682.6843514278172 L 415.64662013137644,680.2470730578156 L 410.97700231230425,679.8240719552654 L 408.62699935004804,680.5794305361171 L 407.4064162009372,681.677214559341 L 405.9022116497941,685.1014633887972 L 403.82570065579097,693.400039414608 L 403.6940193885589,702.0508174186913 L 402.6810871820217,705.4546535371054 L 396.95295519436064,713.9741220606538 L 395.44875083920994,715.5450580579914 L 393.1139421256892,716.6124837802232 L 390.9057496684436,716.4513631766722 L 389.16857108025823,715.4141469947612 L 387.37061628134467,714.5984693974295 L 384.95477288152716,715.1523248718404 L 382.4021835956104,718.263964271566 L 379.42416259867423,723.8628109603816 L 377.09441870004093,729.6327257576535 L 376.5271764840486,733.24767212487 L 378.786015326196,734.7379428149055 L 387.37061628134467,735.2514801935255 L 391.0019784074262,736.1073738038702 L 394.709310404899,739.5107836505013 L 396.5072650078004,747.1733415215131 L 399.1560830326997,751.3116419919859 L 404.4334600189049,754.9162452949755 L 406.1250568410622,756.3963350223092 L 413.1446774263785,765.4378108366828 L 419.84015946253595,771.1464869367161 L 421.31904072322624,773.3463628222563 L 421.9318647052352,775.8281258945627 L 421.6127909709999,777.6101503645342 L 420.9037382500084,779.3871309360811 L 420.27572041131106,781.8789136840912 L 420.518824274178,790.5370766165664 L 421.6127909709999,798.3141230257738 L 420.57960009288195,805.3309245664262 L 414.35006671884685,811.7486016508029 L 401.44530998022515,815.5991498814248 L 389.09766582776354,813.0572896858266 L 376.8209269278343,808.1446506560728 L 364.17953233160506,804.8779073237841 L 354.73900372758106,805.44166204291 L 351.6293018554665,805.0792484179665 L 347.92196966197673,803.528919501959 L 340.8820906011196,799.0490318223774 L 337.09372391734996,797.46343907323 L 333.32561590516764,797.0204784577303 L 327.572160823056,798.4248628473645 L 323.9154754065184,798.8074182542285 L 321.0488770052351,798.223517707108 L 310.8537139141981,794.5388812533097 L 310.21050202282976,792.2787485678479 L 309.0152419681581,790.3910979594273 L 307.2932570406277,789.0118478054203 L 303.18075200371624,787.6980306620306 L 301.52967252470074,786.711405766049 L 300.1368907652242,785.3774439942712 L 299.04292387238854,783.7162762043712 L 291.65358316791543,779.8905230629242 L 272.4382583689454,779.5784199696344 L 267.0697174586812,777.3886564412388 L 248.19878968441742,750.8283398034501 L 246.77055500466236,745.0185823912764 L 245.28154450620164,740.7694307795185 L 243.35190863608454,732.180311178866 L 240.86516017976965,728.3941678766864 L 239.11785196177493,727.467763165433 L 234.59510946258447,726.6319823511042 L 232.77689599208853,725.7257111397106 L 231.936162395917,723.983648075758 L 232.04252017666772,716.9649347037392 L 229.85458658701333,712.6146505839981 L 222.84003062058716,706.5321900529414 L 221.34595569925006,702.9974509159917 L 222.60705619151747,700.1978228103422 L 222.95651783513512,698.1736126002919 L 222.00942626217784,696.2803072132313 L 218.76297830796184,693.2892591865265 L 217.8361452105749,691.5771956603362 L 217.2030627530038,688.8982969033402 L 217.60823540041176,687.0049229110454 L 218.57052122203075,684.8496821184575 L 218.8338835604401,682.7246366780689 L 217.2030627530038,680.9218591027815 L 213.20198031174525,683.8425537397738 L 210.43667526833465,684.7892542643109 L 209.17050996116666,682.9764202712464 L 210.20370064325127,676.4098221129683 L 209.84917438076155,674.9897220803219 L 204.89593574769657,669.2588806073811 L 203.9437795558754,667.4962924755041 L 203.81209828865977,664.1825925468514 L 204.74399600492373,661.6343361811582 L 205.27072068176216,659.3378608970919 L 203.9437795558754,656.8499876494119 L 199.8717918621222,659.136414568645 L 198.3118761111619,657.9881677049683 L 197.13687472805293,650.3129010494554 L 195.1920448052665,646.7370681387009 L 190.12738357655192,641.4185453079759 L 189.10432213222788,638.8700429576137 L 189.87415047589982,636.9359829225308 L 191.22135027335258,634.4680180299096 L 191.66704065592978,632.3525982993148 L 189.77285731404578,631.4359103956854 L 183.067245648079,632.4432595673445 L 182.41896913782054,632.886491804992 L 181.12241592131122,629.2096528704986 L 184.50560956563564,622.1882348980527 L 183.13815109659228,620.9088423278829 L 180.81853623972225,621.3319491127509 L 176.88835905098134,623.1553298156375 L 175.0549517238347,623.5683585625259 L 172.70494895760694,622.7322262919497 L 171.83382706004534,620.9088423278829 L 171.20580902535065,619.0753692596236 L 169.63576403661668,618.2492939523959 L 168.83554758756836,616.2344635635064 L 166.23231172069342,606.1499594594901 L 168.05558981009423,604.2156156550179 L 171.1146452972922,601.7976615104144 L 173.25193230602613,599.0572806233536 L 172.30990535198194,596.1657378899197 L 165.79675096794682,595.480628023595 L 163.29480826292757,594.0499500297392 L 164.89524116102584,591.5109770099594 L 165.92843223515754,589.7175569345341 L 165.80688020572708,588.186084974749 L 165.23963818574845,586.4833169475797 L 164.89524116102584,584.1256153219393 L 165.52325919573696,583.440466342178 L 168.26830556758972,583.581526420858 L 168.90645284006303,582.7855421704899 L 168.70386632035272,581.3144746331511 L 167.77196860407727,578.8458789360558 L 167.55925304260043,577.3445554195092 L 165.72584571544724,573.0118152586176 L 162.3426518751091,569.9183842773494 L 160.55989112885834,566.3613846399969 L 163.5480413635731,560.6478860180683 L 162.87950598574477,560.2951956321176 L 162.74782471851273,560.1944266973503 L 162.7073075713895,560.0231196846187 L 162.3426518751091,559.4386591459354 L 161.01571055320375,560.6579627935698 L 159.30385525548266,561.7865678124875 L 157.35902513666613,562.4113288613217 L 155.39393673830608,562.0888716809247 L 153.21613219041987,560.5068097430194 L 153.58078788670028,559.227043713333 L 154.8469531938896,557.6751901799939 L 155.39393673830608,555.3171560539654 L 153.28703763892662,550.8126285334151 L 152.84134725637236,548.666139561101 L 153.0034166289365,546.2777656701871 L 154.05686598260348,542.2668440308188 L 154.310099083249,539.9489370491965 L 153.61117599205534,537.6209244656238 L 152.38552783202695,536.0185099016667 L 151.94996707925904,534.3959258006822 L 153.57065845290305,531.956984594492 L 153.85427965890526,530.7375024719528 L 154.310099083249,523.964699285931 L 153.70233972012034,521.2282974668325 L 148.8301355773352,511.2599994390925 L 142.63099030865513,516.0879875283657 L 137.39413046957318,516.9749531794992 L 132.15727082651972,515.3723645435282 L 125.96825479562317,512.7063931150293 L 126.18097035710329,516.2391752208221 L 124.8135118880747,517.9475864821186 L 119.27277256345525,519.3687309632058 L 118.78656503374005,520.0238650464136 L 117.39884789315201,521.3492442069403 L 115.93009606625075,522.1757116871279 L 115.25143164664932,521.3089285705066 L 114.79561202627708,520.3010362250495 L 113.63073988096313,519.7214956327439 L 112.0910828015869,519.4392839499977 L 110.51090857504643,519.3687309632058 L 109.38655377287269,518.5220930579462 L 106.88461106785344,517.0455070652323 L 104.36240988729338,516.5516291124854 L 102.44796787384993,520.3816677251046 L 100.64494845604463,520.6537991488841 L 98.50766144732874,520.0541016880386 L 92.42049545504786,516.6802263151448 L 92.37942123511651,516.6574602676278 L 89.07726208107026,514.8230466068312 L 83.54665219024805,513.6941678363662 L 81.88544327743372,513.0087738507926 L 80.92315745579505,512.1923450889183 L 80.26475170775961,511.1995229190733 L 79.41388848177877,508.8862768534473 L 79.00871544235817,506.8451532715249 L 79.13026747179028,505.2273579630276 L 80.12294100675166,501.7044457438309 L 80.23436360240457,500.3940463606044 L 79.80893208742019,497.97986274165487 L 79.77854417805918,496.70975762492475 L 82.75656478296628,490.9588923895779 L 83.04018579295477,487.5113094611535 L 79.82919056298397,483.89732470415925 L 75.74707382745764,481.5333256865812 L 74.98737452555223,481.17040634327026 L 74.57207244434868,480.58570123628544 L 72.46517334499052,480.3034291302421 L 71.51301695715236,479.90018231902155 L 70.6317658218105,478.92734589321265 L 70.37853272118302,478.25190214532034 L 70.20633430682612,477.55629278256487 L 68.64641855586747,474.67805495410846 L 67.66387425867322,471.2604015078211 L 66.95482173370034,469.8489616492464 L 59.47938172405504,465.0903094711166 L 49.89704261502206,461.13810923610947 L 46.63540080413078,459.0712340476846 L 44.43733797669451,455.4516217625755 L 43.272465635353726,451.3328335901618 L 42.74574095850874,442.4798745521998 L 41.91513640410375,438.7338643734589 L 37.741855744526596,429.8499887203975 L 27.804990176990184,415.36855020300703 L 24.614253618593576,411.6521798155807 L 11.719626117734109,401.5363609327893 L 6.968974004381085,395.59566623135504 L 5.034273319361791,388.70155860358375 L 2.4715547956598747,372.1030115757083 L 0.0,363.6946183471365 L 0.3443970247078341,359.6541876450043 L 3.069184725001163,355.502671400217 L 20.137093081436735,338.1387038484546 L 22.314897433305955,334.824083805871 L 23.581062740478863,330.96954572765003 L 23.996365017679725,326.0553666408871 L 23.449381669280214,322.8212014800357 L 22.385802685807178,319.8493383803504 L 21.767914084888403,316.77649902151813 L 22.54787205838934,313.20405134555875 L 24.482572351382856,310.20171347007465 L 26.73128215176537,307.71401441363844 L 28.58494815049276,305.1556251983631 L 30.03344130581653,298.6862773159049 L 33.639480141428756,290.0061856589432 L 36.96189777102402,284.47486918637463 L 40.061470405359955,274.5320742562032 L 43.56621607913454,269.49478960895954 L 45.13626106787179,266.1028459062925 L 45.40975284009973,262.39785806011895 L 43.778931836628374,258.9451622502148 L 38.52181352199742,252.26162224534292 L 35.89831898358109,244.2247781758707 L 32.646806410453664,242.06403607836856 L 29.37503516574384,240.41316515563975 L 27.896154101065616,237.72225160858076 L 29.243354094530428,231.1537677088157 L 32.39357330980158,226.66519836623766 L 35.969224236059354,222.84802555392662 L 38.612977250041105,219.59122162595924 L 42.60393045353089,212.97132525087423 L 44.082811518194355,211.58771881074136 L 46.54423707606907,210.9666058514843 L 48.438420221940994,211.50692370412904 L 50.32247413002448,212.43606318212937 L 52.773770254101954,212.92082876245547 L 57.57506914439242,212.2593251367023 L 59.854166658120604,210.48183268211193 L 62.80179954966236,204.91690950614694 L 68.05891806030867,199.87695975739564 L 74.63284826306251,196.65997280253103 L 81.9968658730686,196.23574888665036 L 89.69515087800275,199.5739503674347 L 98.29494568983492,196.4983639530247 L 102.79236489855612,195.7155671922916 L 107.82663821793267,195.45295049540454 L 108.88008757159312,196.09434033699307 L 111.88849647787062,198.9275278580808 L 113.18504969439962,199.5739503674347 L 115.71738050477391,199.3517429291148 L 119.01953965882016,198.34675484744724 L 134.52753226430528,196.76097847266448 L 139.46051222580752,195.45295049540454 L 141.5572822834139,194.6347948261079 L 143.01590467651627,193.82673473666583 L 144.7075013026566,193.17523220015195 L 147.49306521367805,192.78129909613847 L 149.2049205113942,193.10452632425537 L 150.73444815697977,193.7560292270884 L 152.34501068488734,193.9176417899878 L 154.310099083249,192.78129909613847 L 147.15879742673735,186.35698186599743 L 146.2775464874305,184.1700123298823 L 146.5206501542624,181.57893413498772 L 147.1284095173993,179.3615748074574 L 150.04565430358272,172.76987377636425 L 151.35233695390733,167.1527587426713 L 152.63876093265773,164.45018813146348 L 154.8469531938896,163.29842033727513 L 158.331440196067,163.4196597288429 L 160.8131242295055,164.18750523925428 L 162.48446238010334,166.21318028043973 L 163.5480413635731,170.10278632427108 L 166.59696722096174,168.84499208966633 L 169.6864108135492,167.07193496304697 L 172.07693072689852,164.80379886277265 L 173.03921654853065,162.0809697124341 L 171.57046472163597,158.16584873100902 L 165.0370516660201,150.2594450554549 L 163.70521057331047,146.9425202171672 L 173.32299582510788,145.50035474107423 L 184.7691303676166,144.87385785413417 L 263.4030610151185,132.7272536628421 L 310.4537639958588,135.95097427019965 L 328.8587429398599,135.25368782957878 L 332.0798675650641,133.71762221550514 L 334.61726294568916,131.9996306638246 L 338.6943152579127,128.6039973025004 L 342.14334951378834,124.9859234350055 L 345.1163057021113,123.23748486712381 L 349.09712939000576,122.05499989963982 L 360.4217119767122,121.16560166395918 L 379.7383299722446,122.1964943394396 L 391.7365125767045,121.34752461142716 L 393.5344671719903,120.66025862181131 L 396.97843690258117,113.98952772223548 L 400.5642170426176,112.93834750507915 L 401.44546823740086,112.33189293504165 L 403.0813537933317,109.35011246099167 L 404.35258365814127,107.98554305581563 L 409.093106585015,105.2361398776156 L 411.6963423806741,104.43758766442694 L 412.3598131716018,103.68957176446925 L 412.5775935754458,101.65777409765808 L 410.72392761567255,98.30169166602386 L 410.66315154962933,97.33123990803972 L 411.0379364675665,96.48208778951815 L 413.5702671466489,94.84441961075301 L 421.5926907647586,92.31710781607119 L 411.2658462745286,123.42951114675306 L 405.3503221071646,167.72878363912577 L 405.18825289153045,174.3157032836322 L 405.5377144779927,177.77066458796946 L 414.7959152263535,180.1547336206884 L 416.8167151033182,180.32646559822558 L 418.99958401964443,180.1850393534474 L 428.5515351662591,177.3867847081284 L 433.06414828618387,176.51799962162067 L 437.24249392429056,176.25534267618494 L 441.1878650538975,176.78065618484032 L 453.66212554961936,180.82145662541419 L 455.91590011136304,181.91245020059327 L 458.10383372924497,183.42770300555128 L 460.5703236407318,185.78135933927533 L 461.7402603559373,187.8723385221783 L 462.2720499642468,189.97338391700666 L 462.46957156190234,192.48853131513525 L 462.9962964686577,195.38745408241348 L 464.45998340584794,199.73066313774976 L 466.47065405599676,201.44770437577225 L 468.68897570689296,202.16481488718514 L 477.1520246579738,200.37708134905625 L 483.11313078672043,197.87219181036042 L 486.59761795343206,195.8924860335606 L 488.7045170516292,194.9834269937887 L 489.4490221859625,194.4581899463927 L 491.6166971739237,193.79153968746039 L 492.7562460323926,193.06428087822079 L 493.58685038794846,191.9935865375908 L 494.1794157097412,189.55923820817537 L 494.60484729061335,188.47841282393605 L 495.50129241376493,187.61980657904323 L 496.4382546204806,186.47835605534542 L 497.9779117283599,184.15501782023549 L 499.04655511768067,183.47821116732825 L 501.2192949834751,183.08424720804868 L 502.7184346552336,182.15489172117768 L 522.5871007127041,213.21386510647554 L 525.1751425799964,219.1419844764622 L 527.5150161866851,226.483588510798 L 530.7867872985469,258.5011071733988 L 529.338294289725,296.11274290137334 L 529.4446521408814,297.44501296306294 L 529.5611392188538,297.6064992574368 L 529.748531589682,297.6872425107415 L 532.0630818649089,300.5233157585266 L 534.6156711739006,304.96402794352747 L 535.8008019937636,308.0623516008198 L 536.4338847516656,310.7872059342557 L 540.3438031467025,379.5578560056802 L 541.736584967316,386.05393542664694 L 542.7596465715351,387.9704288553584 L 544.4259201604818,389.52377993595377 L 546.3049094517299,390.4315754887621 L 548.3712911138063,390.885471387547 L 550.4275437253475,390.7039131851892 L 552.4534081275839,390.1592374962801 L 565.1910311648246,383.6128938509985 L 567.1713139582351,382.0594840416442 L 575.5786513685493,374.12071123877524 L 577.7665851627088,372.7891362954016 L 579.9545187805793,371.8913255679165 L 582.2032284645029,371.3264082996109 L 588.6049601025014,370.55973148890405 L 590.5396609345179,369.93428168187387 L 592.3831976674786,368.54214241927457 L 593.9633718589088,366.62540825729576 L 596.3640211790922,362.58001118463096 L 597.6149925902602,360.88514954938705 L 599.0989383336504,359.5938137381522 L 600.8310525139004,359.3516868607233 L 602.1985110030407,359.84602854551895 L 604.5181258035409,361.7426711880892 L 607.8506731577233,366.90787582368057 L 609.7245977474207,368.0377410412612 L 611.6137162654832,367.23069523464034 L 613.0520802237584,365.6065027157249 L 613.943460645369,363.598936628236 L 615.2957250298504,359.3012436978465 L 616.2883987773309,357.0615526151842 L 621.4391591804425,348.4253141187415 L 625.804897189379,336.72120214214306 L 626.1391648474729,335.0260468522197 L 626.0834536592646,330.78807348729384 L 625.7795738579058,328.76994762283914 L 622.3001515690142,318.4367045099505 L 621.3834478159418,314.13769598902815 L 621.1200854507022,311.8468572517334 L 621.1099562238879,309.4146932320131 L 621.4087711474151,307.21460863930616 L 622.4217035248182,304.7924576005197 L 623.9968131909867,302.6730416167565 L 630.5859373760927,296.6981357361554 L 634.2679461404599,292.50949488211717 L 635.5746287398377,290.3798002970954 L 636.4660091614353,288.1996052881773 L 637.2409023287828,283.68770464230494 L 636.8914407423091,266.4563349004344 L 637.0737685878755,264.2757606334712 L 637.7119156947715,262.2162972508414 L 640.7507126506902,256.2598289475138 L 641.3989891606913,254.11947404722204 L 641.9561019241947,249.6771191465823 L 642.4017921349878,247.58714203166411 L 643.2526552967437,245.4769384384477 L 645.5317528374039,241.19584852705992 L 646.4433918889238,238.89369538809063 L 646.965051917859,236.55111271893588 L 647.2385436861922,231.71435482413696 L 647.7095572284601,229.48272136019858 L 648.7072953249349,227.42271844468723 L 651.2852079653999,223.34300822799787 L 652.055036431195,221.3031052038023 L 652.2576229066822,219.31366373671725 L 651.8727085856401,217.1828067563908 L 651.2649491592015,215.6073634764558 L 648.9503992365313,211.46668400827042 L 643.6476986683224,206.69968716119683 L 630.4593208950154,201.6093071356038 L 633.751350636798,192.33701786149615 L 635.7215038508243,181.0639004506653 L 639.8947847873786,166.0921015363117 L 640.7101952145678,164.65746114758866 L 642.1232356651021,162.78836177961 L 649.0871451207037,156.6959094195343 L 650.2722757642775,154.95803948343024 L 652.6779897860134,148.6529989229592 L 664.2406114064846,126.58274075422688 L 666.1347948023919,123.72260323756485 L 668.9507463003425,124.64230177307067 L 704.6110262793408,137.96196559799054 L 707.2902320694097,139.36660765106026 L 718.2096417051647,146.79375710746535 L 725.2343268742495,149.19864023196467 L 728.0046967633759,150.4920031584184 L 729.7823927287409,151.54285001694515 L 734.3861699477231,156.26144414084277 L 734.4734815510976,156.3509315939213 L 732.2487245088075,159.5298407615285 L 729.9797564288766,167.31440594641387 L 728.7135911217085,168.6429355256573 L 725.6950529776459,170.7594610849191 L 724.8239310800892,172.0071330568152 L 724.3478529841647,174.21957291584638 L 723.6995762778942,175.4268008944927 L 712.9928823667038,187.4479267648601 L 709.3868437271037,193.13482898698825 L 708.1814542386364,196.21554767498984 L 707.6344708902155,199.5739503674347 L 709.346326383947,207.36611163895984 L 708.9614120161023,210.24954489994715 L 708.0396437336241,211.28473709361649 L 702.8230425661328,214.92551782165972 L 701.9215329552238,216.84938367929442 L 702.2659297839327,218.84391243351726 L 703.5017073777748,221.5958067311393 L 703.5017073777748,245.72415083723706 L 704.1398546502382,248.3543225583302 L 705.7301581145557,249.43464694404358 L 707.7458932898384,249.99499859407294 L 709.6400768277344,251.06521325674973 L 711.9698207263693,254.66955227803737 L 712.0305969370975,257.9961603262117 L 711.3620615592462,261.7265074124743 L 711.5241305398042,266.5217959317424 L 713.9652974261047,272.9068383083571 L 714.3198236886043,275.193267121024 L 714.3198236886043,283.19294497717834 L 713.3980554061244,286.5592321744414 L 709.5185247983023,293.7104301407043 L 708.9614120161023,298.6559987222544 L 712.3648645280048,319.7181512909037 L 718.3411648014223,332.1047277030112 L 720.0732789667362,340.52498247737236 L 720.2556066188521,345.4891255240284 L 718.99957074546,348.83377480734123 L 716.8521543029682,352.4810221291724 L 717.6321122764314,355.8103818333902 L 719.9213392239568,358.46877237891835 L 722.352376480448,360.09808542037536 L 728.9364361169827,361.86357514683976 L 730.9623005300604,363.46258652270683 L 731.7219998319707,367.48778404394636 L 731.1547578119904,370.4284313890369 L 728.5211338397605,377.17707981536324 L 727.7107881529499,380.2133710171973 L 727.9640212535791,385.0551745628428 L 729.827816294073,388.32835029822763 L 736.5232985262426,394.32983587059863 L 737.759075924089,396.23109914842723 L 739.865975023447,402.99376394931363 L 741.1726576737717,404.7688528838975 L 743.9075748078393,406.9523871134773 L 745.2243866959491,408.3189717911234 L 750.0763321671748,417.3300735805477 L 753.7634054930487,419.3117428992162 L 754.5940100474702,420.9807638711304 L 755.2726746631,420.86983245029626 L 756.7414264899833,423.1590373553062 L 758.6153509642744,426.98103089242335 L 760.6006984262476,429.36595003612496 L 761.7250530324076,430.0819234095955 L 763.9636333989929,431.0953734109741 L 770.6489861973881,433.06175101196004 L 772.7254971913881,434.4281177731313 L 776.7873556473396,440.4178145004481 L 778.8132202564574,442.5605413305627 L 782.8143025016809,456.40442402057425 L 787.3927562006803,463.3410685488259 L 787.5041787963315,464.51563283494136 L 789.6009486579259,464.1425961505047 L 791.7584943382192,463.48221849547394 L 793.8248760944356,463.1646312953393 L 795.5975076029011,463.85525659945324 L 798.3425539747539,466.6479757218681 L 799.5175553578678,469.10795136732236 L 799.2339343478776,472.09213734636603 L 797.663889359124,476.51287409704275 L 796.0938443703851,484.7088393347341 L 796.7319916428601,499.46164105408445 L 793.5311256506711,507.268499224699 L 786.4102120995145,514.6214617239294 L 785.4985730548296,517.2470893381973 L 785.0326241966886,520.6638779962628 L 783.7056828748063,524.4887939475859 L 781.5987837754268,527.8752162015328" fill="none" stroke="#000000" stroke-width="0.8155991498814248"/>
	<path d="M 144.261811116098,137.74454134012933 L 143.4818535346425,135.93060505505304 L 144.15038871647354,133.78315171211491 L 145.75082161457345,131.68618912071278 L 155.2825141426663,122.14074930358579 L 157.29824931797035,119.0177212438969 L 158.0782070954379,114.44420455603823 L 158.30105228672898,110.24955061799135 L 158.9189408876264,107.14136575676504 L 160.73591672347865,103.06404591218961 L 163.41580047537113,100.31802746176272 L 165.1625104575606,98.646505830647 L 171.44747590697338,96.25857561112947 L 174.09545616652363,94.13327574037902 L 175.92990040962573,91.74525127257292 L 177.1980597708247,88.95119898572246 L 181.91178375988648,67.81446497826624 L 182.8449577256032,49.261791952735415 L 184.1928753276243,42.755672289992155 L 184.63009357777162,37.865245059583344 L 186.9671648849962,29.899174435947277 L 189.23379588577743,24.50222813425653 L 194.42588389014003,15.970556644990344 L 195.23941990659964,13.772016754607522 L 196.34008657006487,12.035456581210141 L 197.97513462307788,10.904287435664283 L 202.4575593217423,10.115648382023474 L 203.81345274784186,9.231409586682835 L 204.8343609744827,8.347163608194002 L 205.86324482918175,7.95681841151442 L 206.7724911266478,7.3832472195771235 L 209.26095470855316,4.618909590360355 L 210.3616211760063,3.7027586626772466 L 212.2837996800096,2.9937321035356934 L 214.26180914860686,2.6352336253920967 L 216.36445787271643,0.47417435565597943 L 217.80211829473504,0.0 L 223.2304743573662,1.4315102918812852 L 235.35813669620603,4.295076298368207 L 242.53546513870037,5.093813598180429 L 252.26396215508723,5.103283655566232 L 267.57138758073535,5.752943423261682 L 276.02339913417285,6.2374324976794 L 279.37125197844284,7.508598079656486 L 285.4497186576482,11.34107284271131 L 286.95811234258616,11.990336628375154 L 286.9942529205186,13.881307360455091 L 287.363973313194,46.55284036002681 L 287.9210860766975,51.48811803491519 L 290.93455952486045,58.16252646872885 L 293.09716981126917,61.49957946987763 L 293.8923217848167,63.25907616944802 L 294.2671067027539,67.70825353700893 L 294.7431847702951,69.79121654381522 L 299.6761649458286,79.74036948921177 L 306.852789927454,88.37438973950528 L 307.31873876816945,89.7088635580471 L 307.6985882113799,91.70043545172908 L 307.2427687737595,94.13677795999263 L 306.665397380345,95.05671118130017 L 305.6524651792227,95.20834797713377 L 303.32778550090075,93.81328323954308 L 302.0413617077245,93.38869490737588 L 300.81064892646583,93.65153544774722 L 299.6660355427352,94.6018001148536 L 298.6581678668845,95.66325663052992 L 297.5186191846948,96.51241482214012 L 296.2828418781744,96.66404951292766 L 294.97109457724406,96.42143387609039 L 293.8923217848167,96.58317774974168 L 293.58844198345787,97.77603134628359 L 294.31775318940976,99.7573539078007 L 300.81064892646583,106.38847112377452 L 301.78306404402736,107.96532710880155 L 302.3199180013309,109.85550421003902 L 302.13252545422193,112.59469042705769 L 301.24114503262444,114.46457715047394 L 300.1623722401857,115.84928519000172 L 299.20008652572903,116.83979576112452 L 298.3593527670666,118.0526548066642 L 298.1922190261576,120.21555505340078 L 297.447713891839,121.42837908590175 L 297.0121530841394,122.62097698637568 L 297.2349980132551,123.46993767340416 L 298.6176506070429,124.01569477283009 L 301.73748208264476,124.7231539777854 L 303.4797254897206,125.42050237550568 L 304.68005006166123,124.9859234350055 L 305.1763869354024,124.01569477283009 L 305.7740169587475,121.10496050143946 L 306.4881342363327,119.82138479287326 L 307.3643207295635,119.15432402485293 L 308.48867548338484,119.03303993602773 L 309.76497004974686,119.73042216886121 L 311.3400795396361,121.78211701973436 L 312.47456387283177,123.91462889977153 L 313.8268284336037,127.22954652256192 L 314.8245667063478,129.13962454819205 L 314.87521319300527,130.9587177269329 L 313.9787682461444,132.74746515847337 L 312.5505336909625,133.6569875111805 L 310.4537639958588,135.95097427019965 L 263.4030610151185,132.7272536628421 L 184.7691303676166,144.87385785413417 L 173.32299582510788,145.50035474107423 L 163.70521057331047,146.9425202171672 L 163.5480413635731,146.55108753964421 L 162.7073075713895,145.3486253625422 L 160.74221897701082,144.7524421225083 L 158.51376804420147,144.86359518468936 L 156.86268836918873,145.8235489293548 L 156.51829134446612,147.69796239391886 L 157.53122374704003,149.5875033183953 L 159.5368294885419,151.9569658298795 L 159.0202340494821,153.25535104887078 L 157.72368083295308,154.09398930339935 L 156.03208401077939,154.31627787989635 L 154.310099083249,153.8312838286208 L 153.32755478607115,152.760248478038 L 152.97302852356503,151.21935571312437 L 152.66914884201708,137.56264364990963 L 152.0411308073224,137.0169491063941 L 150.8053536054865,137.07758184840242 L 148.8301355773352,136.59757097953755 L 146.00405471520423,137.74454134012933 L 144.261811116098,137.74454134012933" fill="none" stroke="#000000" stroke-width="0.8155991498814248"/>
	<path d="M 763.8134468086047,129.77264992741476 L 759.9929388671003,134.197486960862 L 744.5659807518933,145.27789192938772 L 736.3004535309849,153.74034721522222 L 734.4734815510976,156.3509315939213 L 734.3861699477231,156.26144414084277 L 729.7823927287409,151.54285001694515 L 728.0046967633759,150.4920031584184 L 725.2343268742495,149.19864023196467 L 718.2096417051647,146.79375710746535 L 707.2902320694097,139.36660765106026 L 704.6110262793408,137.96196559799054 L 668.9507463003425,124.64230177307067 L 675.4031249538378,115.57638782346746 L 676.4464450116951,113.50436877541541 L 677.2618556151635,111.42220523218941 L 677.7835156441004,109.03676813887256 L 678.1025893738276,106.37836309905133 L 678.1785591919567,102.23395913378931 L 677.1554975877393,95.49140247472678 L 674.2281233607989,88.51592564800416 L 669.3660486544021,81.45913797885362 L 665.3244489004661,73.33014231940187 L 659.2620494458462,64.39161082141545 L 657.7325215647827,61.07486935344758 L 656.0510542237469,55.22988166614432 L 654.5164618174216,52.1353509776318 L 652.8907056645842,47.90804123061888 L 652.5868258632253,46.4314783642526 L 651.9942605414441,41.374604680319614 L 652.2272350499356,38.94722236241644 L 653.0274515487565,36.76253160582213 L 656.8563352478311,32.200836561270876 L 658.2035352833298,29.41922081525454 L 656.7854301312544,13.800374873653897 L 658.1680825487598,9.591797439094798 L 659.1513209213203,7.196859687381749 L 665.299218684408,8.297806477072758 L 704.8500321016011,13.822859369257856 L 728.9893560723823,19.15048036538212 L 747.7931467740882,22.859403842413926 L 764.1324805559268,28.12543644447384 L 778.2349242029621,32.15109898043323 L 782.7313596156499,32.63101702992692 L 785.1667478027655,33.478337075508925 L 790.1259746743615,33.1275320324769 L 791.2604632226571,34.72597395072662 L 793.3149667050111,35.49598187246199 L 794.4469088308277,37.4731702487783 L 794.1294861254949,39.51738775135266 L 798.8773168082306,48.56059806701355 L 800.0000000000001,52.05050675276853 L 798.1255298217402,54.23071027974443 L 793.4540079192185,63.143186407391305 L 791.2204817827541,66.99201365449589 L 790.1833421954742,74.78093510025687 L 787.4538499546694,89.93031913789683 L 785.348226908747,97.59582259392701 L 782.8996426432624,102.10891639971884 L 779.334440262166,106.39101813934012 L 775.936730578805,109.34382488484859 L 774.1022863357045,111.30966796625586 L 773.3047017714028,113.14018013053945 L 772.1322526911972,116.8807023811386 L 763.8134468086047,129.77264992741476" fill="none" stroke="#000000" stroke-width="0.8155991498814248"/>
	<path d="M 286.95811234258616,11.990336628375154 L 289.0402217875552,12.88654060976533 L 292.7946723035836,13.864662591289997 L 302.0252230786103,14.688397961455816 L 323.30152787022524,19.621466717977682 L 335.7073590797834,22.88643744573035 L 345.74670173586094,23.309710490101146 L 354.96733967296456,25.678676086925513 L 361.6185001193815,27.568134509821583 L 367.7330089380088,29.16084761023913 L 380.94100752748903,32.01215898446727 L 389.02085270262614,34.690410880583364 L 393.81178282560404,35.98782464810425 L 397.849797899484,36.68719123514512 L 405.4574817375451,39.3199823781983 L 417.8409085064045,40.50446443722041 L 421.39449076454224,44.40413814139927 L 424.2019880937714,46.04461590966258 L 425.3505097017253,48.65658781105551 L 425.3505097017253,65.54531322381403 L 425.4376381578809,65.54531316541605 L 425.0214662144326,66.45441246591594 L 422.32200179444277,69.29575810448877 L 419.3541103076608,70.01366661444928 L 413.9956987275326,70.62034642307684 L 412.3648778731559,71.20680028425502 L 411.22532901468696,71.99547482282703 L 410.70366898575173,73.00658810263769 L 410.3187546647097,74.41202015440595 L 410.4301772174186,75.65566128460271 L 410.8404148699241,76.97006363029584 L 411.5393380428601,78.42599914755203 L 413.05367164298696,80.79185444803205 L 418.27027281368106,86.41308930992089 L 419.01984264956684,87.00957069702721 L 420.47846506148215,88.61702249192561 L 421.5926907647586,92.31710781607119 L 413.5702671466489,94.84441961075301 L 411.0379364675665,96.48208778951815 L 410.66315154962933,97.33123990803972 L 410.72392761567255,98.30169166602386 L 412.5775935754458,101.65777409765808 L 412.3598131716018,103.68957176446925 L 411.6963423806741,104.43758766442694 L 409.093106585015,105.2361398776156 L 404.35258365814127,107.98554305581563 L 403.0813537933317,109.35011246099167 L 401.44546823740086,112.33189293504165 L 400.5642170426176,112.93834750507915 L 396.97843690258117,113.98952772223548 L 393.5344671719903,120.66025862181131 L 391.7365125767045,121.34752461142716 L 379.7383299722446,122.1964943394396 L 360.4217119767122,121.16560166395918 L 349.09712939000576,122.05499989963982 L 345.1163057021113,123.23748486712381 L 342.14334951378834,124.9859234350055 L 338.6943152579127,128.6039973025004 L 334.61726294568916,131.9996306638246 L 332.0798675650641,133.71762221550514 L 328.8587429398599,135.25368782957878 L 310.4537639958588,135.95097427019965 L 312.5505336909625,133.6569875111805 L 313.9787682461444,132.74746515847337 L 314.87521319300527,130.9587177269329 L 314.8245667063478,129.13962454819205 L 313.8268284336037,127.22954652256192 L 312.47456387283177,123.91462889977153 L 311.3400795396361,121.78211701973436 L 309.76497004974686,119.73042216886121 L 308.48867548338484,119.03303993602773 L 307.3643207295635,119.15432402485293 L 306.4881342363327,119.82138479287326 L 305.7740169587475,121.10496050143946 L 305.1763869354024,124.01569477283009 L 304.68005006166123,124.9859234350055 L 303.4797254897206,125.42050237550568 L 301.73748208264476,124.7231539777854 L 298.6176506070429,124.01569477283009 L 297.2349980132551,123.46993767340416 L 297.0121530841394,122.62097698637568 L 297.447713891839,121.42837908590175 L 298.1922190261576,120.21555505340078 L 298.3593527670666,118.0526548066642 L 299.20008652572903,116.83979576112452 L 300.1623722401857,115.84928519000172 L 301.24114503262444,114.46457715047394 L 302.13252545422193,112.59469042705769 L 302.3199180013309,109.85550421003902 L 301.78306404402736,107.96532710880155 L 300.81064892646583,106.38847112377452 L 294.31775318940976,99.7573539078007 L 293.58844198345787,97.77603134628359 L 293.8923217848167,96.58317774974168 L 294.97109457724406,96.42143387609039 L 296.2828418781744,96.66404951292766 L 297.5186191846948,96.51241482214012 L 298.6581678668845,95.66325663052992 L 299.6660355427352,94.6018001148536 L 300.81064892646583,93.65153544774722 L 302.0413617077245,93.38869490737588 L 303.32778550090075,93.81328323954308 L 305.6524651792227,95.20834797713377 L 306.665397380345,95.05671118130017 L 307.2427687737595,94.13677795999263 L 307.6985882113799,91.70043545172908 L 307.31873876816945,89.7088635580471 L 306.852789927454,88.37438973950528 L 299.6761649458286,79.74036948921177 L 294.7431847702951,69.79121654381522 L 294.2671067027539,67.70825353700893 L 293.8923217848167,63.25907616944802 L 293.09716981126917,61.49957946987763 L 290.93455952486045,58.16252646872885 L 287.9210860766975,51.48811803491519 L 287.363973313194,46.55284036002681 L 286.9942529205186,13.881307360455091 L 286.95811234258616,11.990336628375154" fill="none" stroke="#000000" stroke-width="0.8155991498814248"/>
	<path d="M 425.4376381578809,65.54531316541605 L 426.81008923291296,65.54531322381403 L 427.83897308762187,62.46397006960151 L 428.17395867911614,59.40642869179635 L 428.0303934536194,52.78146561540986 L 427.39232576296314,49.34938698151189 L 424.0105677277722,41.96726658707102 L 421.8874990122706,37.155589947099514 L 424.9059166075049,33.20332779290918 L 422.937889169913,31.450673911412725 L 420.53819421666964,31.5612639572067 L 418.24220183371034,31.66416013436961 L 415.5150059010725,29.375271843323254 L 414.8687736245155,25.462379027424078 L 415.7508721299175,22.529699508683866 L 418.93327435398305,18.40167753928625 L 420.2701924144908,16.392260037598277 L 422.86101802452725,13.696451580283384 L 424.77043226978594,11.674225622531017 L 427.63261270353297,9.518934708649223 L 431.1729238098163,8.176179466183076 L 435.8005222277622,6.972367192870776 L 440.56121106012927,6.715290412693998 L 458.39969281081085,5.943589576727773 L 468.30043234476557,5.152663422527276 L 476.3879385449366,5.025200001787785 L 523.8882162292903,7.380706002112666 L 535.4570902552222,9.567110157674627 L 540.9644116806053,13.356991412943062 L 544.0664252816999,14.653478001856655 L 548.2263701046737,15.970556644990344 L 549.6061911990371,16.671531048444823 L 551.6794899650906,18.359880239445694 L 551.556963180723,18.716915554599716 L 538.9307625199021,45.24819088182587 L 533.41534660196,51.154386801364424 L 531.7642671176608,52.31738463345527 L 531.2628655423672,54.582666737422265 L 531.0704082937058,59.24455163504207 L 532.2808624450337,66.33307216791792 L 533.3697646405659,68.33516887349393 L 533.8458427081055,69.6496571133842 L 533.795196045159,70.98435258743584 L 532.8936863967456,72.09658664957021 L 530.9741798456558,73.00658810263769 L 527.6669559992241,73.79524996885809 L 525.408117088488,75.37255724199308 L 524.9421682477725,76.67685223946411 L 525.6309621938943,77.82947245825828 L 526.6793471295751,78.87086460706213 L 527.4086583355402,80.14478784631224 L 527.6213740378416,81.55013089803346 L 527.0288085397714,82.9756766535638 L 525.8791304544866,84.27988370588058 L 524.2432450748349,85.73572497117566 L 523.6658736814122,87.13088885976137 L 523.144213476206,89.91105503505847 L 521.8223367721707,92.50918559407972 L 521.8881775397664,93.79306462415899 L 522.7542346298923,95.12747518511934 L 525.6714792774469,97.43232894289986 L 526.5729891021493,98.65550016696055 L 526.7147996878757,99.91909290014539 L 526.3450792952003,101.31408349027684 L 525.448634348328,102.7090569832626 L 524.5167366668888,103.92206363655782 L 524.045723124621,105.11484108084221 L 523.7570376041888,107.56100707501096 L 523.1948601391426,108.62234419488378 L 521.7210436225798,109.52194575519329 L 518.7987340971919,110.82585073429136 L 517.1122018783129,110.81574292104817 L 516.0384936111589,111.91748076438624 L 515.6383853617484,113.06974555182344 L 515.0053027801273,114.13103210730459 L 513.9569180207142,114.51511444537337 L 512.5945240568489,113.50436877541541 L 511.4904279329466,112.47339933721136 L 510.2850386594421,111.84672724624856 L 508.71499351854686,112.45318399667723 L 507.5146689465948,113.26178854321502 L 505.1292133785121,113.88845318177665 L 445.56879699120077,118.53779482776861 L 437.8502533507308,116.4961501965817 L 435.42428052280485,116.35464868404969 L 426.5965758806027,118.63886533869996 L 424.8999144349094,118.2750107384786 L 423.4666153544658,117.22386917313297 L 423.036119072028,114.07038746730034 L 422.2207084685596,111.64457417517698 L 422.2612259046804,108.9559050638957 L 423.70465438822896,105.7112251792953 L 425.62922564087285,103.78054695423073 L 426.7890329529833,101.77907653363475 L 426.9460374670666,99.80789745533544 L 424.93536699319856,97.72548690362312 L 424.1452798974826,95.29932988774478 L 421.5926907647586,92.31710781607119 L 420.47846506148215,88.61702249192561 L 419.01984264956684,87.00957069702721 L 418.27027281368106,86.41308930992089 L 413.05367164298696,80.79185444803205 L 411.5393380428601,78.42599914755203 L 410.8404148699241,76.97006363029584 L 410.4301772174186,75.65566128460271 L 410.3187546647097,74.41202015440595 L 410.70366898575173,73.00658810263769 L 411.22532901468696,71.99547482282703 L 412.3648778731559,71.20680028425502 L 413.9956987275326,70.62034642307684 L 419.3541103076608,70.01366661444928 L 422.32200179444277,69.29575810448877 L 425.0214662144326,66.45441246591594 L 425.4376381578809,65.54531316541605" fill="none" stroke="#000000" stroke-width="0.8155991498814248"/>
	<path d="M 551.6794899650906,18.359880239445694 L 553.6977993416248,20.009061029102973 L 555.6598571620519,21.20385561643776 L 556.273997184446,21.371125747270824 L 556.1303521904085,22.196799326254343 L 555.9682829747629,25.089872195634317 L 556.4544906216881,32.26152569258864 L 557.9080483320527,37.70316776967503 L 558.7741054221785,39.715899314512875 L 559.9389776121222,41.58699835980807 L 561.3368241342752,43.134423472465045 L 564.7301470256616,45.30887255299128 L 573.122290860156,48.0395148593001 L 573.7097914803946,49.283451650925514 L 576.0749884185681,52.92416107630839 L 579.0074271707718,56.11979579417556 L 582.5678841556257,58.70859651927178 L 590.3877209456981,61.17599091538181 L 594.2571222571743,62.87482042918875 L 595.9487191775926,65.5140222703152 L 594.6876183633198,66.95999523716492 L 593.6240396755384,67.4756873820732 L 583.7783379543921,64.54328886300793 L 578.8099053968471,64.30060396753164 L 557.8624663706586,68.33516887349393 L 551.26827748401,68.51717591476954 L 532.2808624450337,66.33307216791792 L 531.0704082937058,59.24455163504207 L 531.2628655423672,54.582666737422265 L 531.7642671176608,52.31738463345527 L 533.41534660196,51.154386801364424 L 538.9307625199021,45.24819088182587 L 551.556963180723,18.716915554599716 L 551.6794899650906,18.359880239445694" fill="none" stroke="#000000" stroke-width="0.8155991498814248"/>
	<path d="M 556.273997184446,21.371125747270824 L 557.909045237459,21.801247908812858 L 559.5839726068928,21.801247908812858 L 561.6317576972574,22.085655228136016 L 564.3901406897618,22.3530595633204 L 566.6350685891938,21.590604413798346 L 569.1549860065136,20.53477228340066 L 572.3326533078329,20.242349929487673 L 575.6871631916141,22.654433345510114 L 579.5873905630965,25.52890024407198 L 581.1010169362143,28.4178152057562 L 578.7500209652703,34.14975839176016 L 575.8546952882413,37.35617429874141 L 576.1019466188229,37.236713458610375 L 572.934898313047,40.00920871147015 L 570.5139901866752,41.13186904250735 L 571.8611902221722,45.35944067456702 L 573.122290860156,48.0395148593001 L 564.7301470256616,45.30887255299128 L 561.3368241342752,43.134423472465045 L 559.9389776121222,41.58699835980807 L 558.7741054221785,39.715899314512875 L 557.9080483320527,37.70316776967503 L 556.4544906216881,32.26152569258864 L 555.9682829747629,25.089872195634317 L 556.1303521904085,22.196799326254343 L 556.273997184446,21.371125747270824" fill="none" stroke="#000000" stroke-width="0.8155991498814248"/>
	<path d="M 576.1019466188229,37.236713458610375 L 581.506346003071,35.447222280560034 L 583.3345877639439,31.083950904915937 L 583.523434853504,26.71399902070305 L 584.5483658827269,25.2103025601586 L 588.8796094141745,25.193811875857477 L 595.3556351512143,29.71837247409428 L 599.3276057365591,30.54668992481169 L 601.8878517352066,29.973240179846947 L 603.4830206678093,28.953766133870232 L 604.9984311635877,28.603319862795395 L 609.3851455812359,31.279427038320062 L 611.0520971265911,31.574113188526063 L 612.7190486719463,31.215710939450553 L 614.6492030000313,30.54668992481169 L 616.18056514397,29.590938591092513 L 617.2493283151011,28.284731087573768 L 618.5653426207921,27.15373405737233 L 620.8623858366999,26.6599145514303 L 622.7207575520423,27.058156139086407 L 624.6907911965479,28.03782430992989 L 628.1602836886751,30.54668992481169 L 627.2749648634476,28.953766133870232 L 625.9429989095884,27.408607634385863 L 624.4036607455561,26.078479244148323 L 622.816467833047,25.2103025601586 L 620.2322941661456,24.700544378746905 L 618.4470081669884,24.97023889707112 L 616.6299135464247,26.418684552516186 L 614.3820405313309,27.77978061427355 L 609.8954701290686,28.190277141263206 L 606.8850801057026,26.293144705829512 L 604.1275223336272,25.682269198127972 L 601.0142039966778,27.469116000169887 L 598.0594463753586,27.32895969418136 L 595.0924323684862,24.88373897312217 L 592.0456597287676,23.354452123714545 L 580.6721053823765,20.096679718281923 L 576.6841831488731,18.192947749375858 L 573.2864734655137,15.946659775818143 L 571.8348697584078,13.843709006043207 L 571.1010919827555,11.788512286423643 L 569.9559529945216,10.466542701217053 L 571.2579154231723,8.415192219154763 L 572.9875229569184,7.307896767302174 L 578.4069656588108,5.152663422527276 L 584.5912624481103,4.096839890915087 L 592.530262684974,3.6160076816277447 L 598.58585213684,3.5593603821696846 L 645.6911897111288,5.152663422527276 L 649.2643681123288,5.997104258991417 L 657.6548352747808,6.928871866124903 L 659.1513209213203,7.196859687381749 L 658.1680825487598,9.591797439094798 L 656.7854301312544,13.800374873653897 L 658.2035352833298,29.41922081525454 L 656.8563352478311,32.200836561270876 L 653.0274515487565,36.76253160582213 L 652.2272350499356,38.94722236241644 L 651.9942605414441,41.374604680319614 L 652.5868258632253,46.4314783642526 L 652.8907056645842,47.90804123061888 L 654.5164618174216,52.1353509776318 L 656.0510542237469,55.22988166614432 L 657.7325215647827,61.07486935344758 L 659.2620494458462,64.39161082141545 L 665.3244489004661,73.33014231940187 L 669.3660486544021,81.45913797885362 L 674.2281233607989,88.51592564800416 L 599.2660720745578,93.96492150932814 L 595.3358950496016,93.84361097997306 L 591.6690802136011,92.67093482878646 L 592.0489298330923,81.71189575026469 L 591.8969900205517,79.72014854209176 L 591.2689721404714,78.87086460706213 L 590.5092729014906,78.50688401922312 L 590.5903074211737,77.70814466285724 L 590.8435405595976,76.80829197154212 L 590.6004366479897,76.2016456503036 L 589.4051766013108,76.14098089089222 L 588.1693994710811,76.66674140327237 L 587.1463378668523,77.2936066016479 L 586.5841604018077,77.53626313151923 L 584.6292012924288,77.25316382511129 L 583.8846959818179,77.59692713823208 L 583.8137906889605,77.41493484402135 L 583.904954611737,75.5343311434098 L 584.3253214910683,75.10967426510804 L 586.5841604018077,70.86301738960582 L 593.6240396755384,67.4756873820732 L 594.6876183633198,66.95999523716492 L 595.9487191775926,65.5140222703152 L 594.2571222571743,62.87482042918875 L 590.3877209456981,61.17599091538181 L 582.5678841556257,58.70859651927178 L 579.0074271707718,56.11979579417556 L 576.0749884185681,52.92416107630839 L 573.7097914803946,49.283451650925514 L 573.122290860156,48.0395148593001 L 571.8611902221722,45.35944067456702 L 570.5139901866752,41.13186904250735 L 572.934898313047,40.00920871147015 L 576.1019466188229,37.236713458610375" fill="none" stroke="#000000" stroke-width="0.8155991498814248"/>
	<path d="M 593.6240396755384,67.4756873820732 L 586.5841604018077,70.86301738960582 L 584.3253214910683,75.10967426510804 L 583.904954611737,75.5343311434098 L 583.8137906889605,77.41493484402135 L 583.8846959818179,77.59692713823208 L 584.6292012924288,77.25316382511129 L 586.5841604018077,77.53626313151923 L 587.1463378668523,77.2936066016479 L 588.1693994710811,76.66674140327237 L 589.4051766013108,76.14098089089222 L 590.6004366479897,76.2016456503036 L 590.8435405595976,76.80829197154212 L 590.5903074211737,77.70814466285724 L 590.5092729014906,78.50688401922312 L 591.2689721404714,78.87086460706213 L 591.8969900205517,79.72014854209176 L 592.0489298330923,81.71189575026469 L 591.6690802136011,92.67093482878646 L 595.3358950496016,93.84361097997306 L 599.2660720745578,93.96492150932814 L 674.2281233607989,88.51592564800416 L 677.1554975877393,95.49140247472678 L 678.1785591919567,102.23395913378931 L 678.1025893738276,106.37836309905133 L 677.7835156441004,109.03676813887256 L 677.2618556151635,111.42220523218941 L 676.4464450116951,113.50436877541541 L 675.4031249538378,115.57638782346746 L 668.9507463003425,124.64230177307067 L 666.1347948023919,123.72260323756485 L 664.2406114064846,126.58274075422688 L 652.6779897860134,148.6529989229592 L 650.2722757642775,154.95803948343024 L 649.0871451207037,156.6959094195343 L 642.1232356651021,162.78836177961 L 640.7101952145678,164.65746114758866 L 639.8947847873786,166.0921015363117 L 635.7215038508243,181.0639004506653 L 633.751350636798,192.33701786149615 L 630.4593208950154,201.6093071356038 L 628.8588878973852,202.7203202066055 L 627.5977872593915,202.74052016248103 L 626.2759107316452,201.77090968947505 L 625.73399189651,200.31647981489328 L 625.8859317090507,198.80143080067202 L 626.5392729206042,195.7106748908395 L 626.5038205385943,187.89254103450085 L 626.2050054387779,185.90257639319168 L 625.5769873824285,184.0135959303626 L 624.0373302745475,182.26601068134087 L 622.548320005884,180.88206758215816 L 621.5049997717458,179.1041326516194 L 621.4695472134583,177.2857635817181 L 622.3761215634241,173.20443783772075 L 622.1634058611228,171.13341671168203 L 621.484741141825,169.06236035358518 L 620.3654510895561,167.08219575131247 L 618.8409880863244,165.1222057190234 L 616.9822572487162,163.40466251866724 L 606.625024901738,156.3422751023333 L 604.8321350080064,154.69533587817477 L 603.6216808566685,152.71493773106175 L 603.105085353018,150.59304645601884 L 602.4669380698313,138.76028926181004 L 601.5856870513387,136.91099939943652 L 600.2384871921192,135.43558887425894 L 596.2525988026723,134.8090393065347 L 537.7405673510549,135.31432154209833 L 532.6404534346009,136.33498518194662 L 530.6956233757686,139.12408052483104 L 530.2803211979914,141.0541772782161 L 531.1818310226839,142.77203809795694 L 532.1846338207014,143.98463088795606 L 532.994979546348,145.1567922751365 L 533.2684713146828,146.38957046439396 L 533.1418548336153,147.68296325013944 L 532.4429314843985,149.46135580241952 L 525.4688929782504,160.89902701183127 L 518.9658678380993,167.4863137788806 L 509.45443395132617,174.4773411076771 L 502.7184346552336,182.15489172117768 L 501.2192949834751,183.08424720804868 L 499.04655511768067,183.47821116732825 L 497.9779117283599,184.15501782023549 L 496.4382546204806,186.47835605534542 L 495.50129241376493,187.61980657904323 L 494.60484729061335,188.47841282393605 L 494.1794157097412,189.55923820817537 L 493.58685038794846,191.9935865375908 L 492.7562460323926,193.06428087822079 L 491.6166971739237,193.79153968746039 L 489.4490221859625,194.4581899463927 L 488.7045170516292,194.9834269937887 L 486.59761795343206,195.8924860335606 L 483.11313078672043,197.87219181036042 L 477.1520246579738,200.37708134905625 L 468.68897570689296,202.16481488718514 L 466.47065405599676,201.44770437577225 L 464.45998340584794,199.73066313774976 L 462.9962964686577,195.38745408241348 L 462.46957156190234,192.48853131513525 L 462.2720499642468,189.97338391700666 L 461.7402603559373,187.8723385221783 L 460.5703236407318,185.78135933927533 L 458.10383372924497,183.42770300555128 L 455.91590011136304,181.91245020059327 L 453.66212554961936,180.82145662541419 L 441.1878650538975,176.78065618484032 L 437.24249392429056,176.25534267618494 L 433.06414828618387,176.51799962162067 L 428.5515351662591,177.3867847081284 L 418.99958401964443,180.1850393534474 L 416.8167151033182,180.32646559822558 L 414.7959152263535,180.1547336206884 L 405.5377144779927,177.77066458796946 L 405.18825289153045,174.3157032836322 L 405.3503221071646,167.72878363912577 L 411.2658462745286,123.42951114675306 L 421.5926907647586,92.31710781607119 L 424.1452798974826,95.29932988774478 L 424.93536699319856,97.72548690362312 L 426.9460374670666,99.80789745533544 L 426.7890329529833,101.77907653363475 L 425.62922564087285,103.78054695423073 L 423.70465438822896,105.7112251792953 L 422.2612259046804,108.9559050638957 L 422.2207084685596,111.64457417517698 L 423.036119072028,114.07038746730034 L 423.4666153544658,117.22386917313297 L 424.8999144349094,118.2750107384786 L 426.5965758806027,118.63886533869996 L 435.42428052280485,116.35464868404969 L 437.8502533507308,116.4961501965817 L 445.56879699120077,118.53779482776861 L 505.1292133785121,113.88845318177665 L 507.5146689465948,113.26178854321502 L 508.71499351854686,112.45318399667723 L 510.2850386594421,111.84672724624856 L 511.4904279329466,112.47339933721136 L 512.5945240568489,113.50436877541541 L 513.9569180207142,114.51511444537337 L 515.0053027801273,114.13103210730459 L 515.6383853617484,113.06974555182344 L 516.0384936111589,111.91748076438624 L 517.1122018783129,110.81574292104817 L 518.7987340971919,110.82585073429136 L 521.7210436225798,109.52194575519329 L 523.1948601391426,108.62234419488378 L 523.7570376041888,107.56100707501096 L 524.045723124621,105.11484108084221 L 524.5167366668888,103.92206363655782 L 525.448634348328,102.7090569832626 L 526.3450792952003,101.31408349027684 L 526.7147996878757,99.91909290014539 L 526.5729891021493,98.65550016696055 L 525.6714792774469,97.43232894289986 L 522.7542346298923,95.12747518511934 L 521.8881775397664,93.79306462415899 L 521.8223367721707,92.50918559407972 L 523.144213476206,89.91105503505847 L 523.6658736814122,87.13088885976137 L 524.2432450748349,85.73572497117566 L 525.8791304544866,84.27988370588058 L 527.0288085397714,82.9756766535638 L 527.6213740378416,81.55013089803346 L 527.4086583355402,80.14478784631224 L 526.6793471295751,78.87086460706213 L 525.6309621938943,77.82947245825828 L 524.9421682477725,76.67685223946411 L 525.408117088488,75.37255724199308 L 527.6669559992241,73.79524996885809 L 530.9741798456558,73.00658810263769 L 532.8936863967456,72.09658664957021 L 533.795196045159,70.98435258743584 L 533.8458427081055,69.6496571133842 L 533.3697646405659,68.33516887349393 L 532.2808624450337,66.33307216791792 L 551.26827748401,68.51717591476954 L 557.8624663706586,68.33516887349393 L 578.8099053968471,64.30060396753164 L 583.7783379543921,64.54328886300793 L 593.6240396755384,67.4756873820732" fill="none" stroke="#000000" stroke-width="0.8155991498814248"/>
	<path d="M 596.2525988026723,134.8090393065347 L 600.2384871921192,135.43558887425894 L 601.5856870513387,136.91099939943652 L 602.4669380698313,138.76028926181004 L 603.105085353018,150.59304645601884 L 603.6216808566685,152.71493773106175 L 604.8321350080064,154.69533587817477 L 606.625024901738,156.3422751023333 L 616.9822572487162,163.40466251866724 L 618.8409880863244,165.1222057190234 L 620.3654510895561,167.08219575131247 L 621.484741141825,169.06236035358518 L 622.1634058611228,171.13341671168203 L 622.3761215634241,173.20443783772075 L 621.4695472134583,177.2857635817181 L 621.5049997717458,179.1041326516194 L 622.548320005884,180.88206758215816 L 624.0373302745475,182.26601068134087 L 625.5769873824285,184.0135959303626 L 626.2050054387779,185.90257639319168 L 626.5038205385943,187.89254103450085 L 626.5392729206042,195.7106748908395 L 625.8859317090507,198.80143080067202 L 625.73399189651,200.31647981489328 L 626.2759107316452,201.77090968947505 L 627.5977872593915,202.74052016248103 L 628.8588878973852,202.7203202066055 L 630.4593208950154,201.6093071356038 L 643.6476986683224,206.69968716119683 L 648.9503992365313,211.46668400827042 L 651.2649491592015,215.6073634764558 L 651.8727085856401,217.1828067563908 L 652.2576229066822,219.31366373671725 L 652.055036431195,221.3031052038023 L 651.2852079653999,223.34300822799787 L 648.7072953249349,227.42271844468723 L 647.7095572284601,229.48272136019858 L 647.2385436861922,231.71435482413696 L 646.965051917859,236.55111271893588 L 646.4433918889238,238.89369538809063 L 645.5317528374039,241.19584852705992 L 643.2526552967437,245.4769384384477 L 642.4017921349878,247.58714203166411 L 641.9561019241947,249.6771191465823 L 641.3989891606913,254.11947404722204 L 640.7507126506902,256.2598289475138 L 637.7119156947715,262.2162972508414 L 637.0737685878755,264.2757606334712 L 636.8914407423091,266.4563349004344 L 637.2409023287828,283.68770464230494 L 636.4660091614353,288.1996052881773 L 635.5746287398377,290.3798002970954 L 634.2679461404599,292.50949488211717 L 630.5859373760927,296.6981357361554 L 623.9968131909867,302.6730416167565 L 622.4217035248182,304.7924576005197 L 621.4087711474151,307.21460863930616 L 621.1099562238879,309.4146932320131 L 621.1200854507022,311.8468572517334 L 621.3834478159418,314.13769598902815 L 622.3001515690142,318.4367045099505 L 625.7795738579058,328.76994762283914 L 626.0834536592646,330.78807348729384 L 626.1391648474729,335.0260468522197 L 625.804897189379,336.72120214214306 L 621.4391591804425,348.4253141187415 L 616.2883987773309,357.0615526151842 L 615.2957250298504,359.3012436978465 L 613.943460645369,363.598936628236 L 613.0520802237584,365.6065027157249 L 611.6137162654832,367.23069523464034 L 609.7245977474207,368.0377410412612 L 607.8506731577233,366.90787582368057 L 604.5181258035409,361.7426711880892 L 602.1985110030407,359.84602854551895 L 600.8310525139004,359.3516868607233 L 599.0989383336504,359.5938137381522 L 597.6149925902602,360.88514954938705 L 596.3640211790922,362.58001118463096 L 593.9633718589088,366.62540825729576 L 592.3831976674786,368.54214241927457 L 590.5396609345179,369.93428168187387 L 588.6049601025014,370.55973148890405 L 582.2032284645029,371.3264082996109 L 579.9545187805793,371.8913255679165 L 577.7665851627088,372.7891362954016 L 575.5786513685493,374.12071123877524 L 567.1713139582351,382.0594840416442 L 565.1910311648246,383.6128938509985 L 552.4534081275839,390.1592374962801 L 550.4275437253475,390.7039131851892 L 548.3712911138063,390.885471387547 L 546.3049094517299,390.4315754887621 L 544.4259201604818,389.52377993595377 L 542.7596465715351,387.9704288553584 L 541.736584967316,386.05393542664694 L 540.3438031467025,379.5578560056802 L 536.4338847516656,310.7872059342557 L 535.8008019937636,308.0623516008198 L 534.6156711739006,304.96402794352747 L 532.0630818649089,300.5233157585266 L 529.748531589682,297.6872425107415 L 529.5611392188538,297.6064992574368 L 529.4446521408814,297.44501296306294 L 529.338294289725,296.11274290137334 L 530.7867872985469,258.5011071733988 L 527.5150161866851,226.483588510798 L 525.1751425799964,219.1419844764622 L 522.5871007127041,213.21386510647554 L 502.7184346552336,182.15489172117768 L 509.45443395132617,174.4773411076771 L 518.9658678380993,167.4863137788806 L 525.4688929782504,160.89902701183127 L 532.4429314843985,149.46135580241952 L 533.1418548336153,147.68296325013944 L 533.2684713146828,146.38957046439396 L 532.994979546348,145.1567922751365 L 532.1846338207014,143.98463088795606 L 531.1818310226839,142.77203809795694 L 530.2803211979914,141.0541772782161 L 530.6956233757686,139.12408052483104 L 532.6404534346009,136.33498518194662 L 537.7405673510549,135.31432154209833 L 596.2525988026723,134.8090393065347" fill="none" stroke="#000000" stroke-width="0.8155991498814248"/>
</svg>
