<?xml version="1.0" ?>
<svg xmlns="http://www.w3.org/2000/svg" xmlns:ev="http://www.w3.org/2001/xml-events" xmlns:xlink="http://www.w3.org/1999/xlink" baseProfile="full" height="446px" version="1.1" viewBox="-80.14181683741987 -59.59871550665383 957.7146469825001 711.1974310133077" width="600px">
	<defs/>
	<path d="M 753.398208922112,457.2061313515862 L 753.691574733532,458.0094802632996 L 753.2864505241952,458.7727338161206 L 752.6997190365197,459.4749839713727 L 752.2177609708534,460.2016168347969 L 752.1409271145317,461.0258151033758 L 752.4063532250991,461.6478731847479 L 754.6275511640116,465.1430684218567 L 755.6333766776568,466.2703178110992 L 756.87668873619,466.8539662690152 L 758.5111551198403,466.6083122197442 L 760.0338631731604,465.5507634688252 L 762.7859134007978,462.54870775513257 L 764.2736969801099,461.5607507704322 L 765.4890694053723,461.32203446297774 L 766.9139888098308,461.32203446297774 L 768.3249383976485,461.50499239616096 L 769.5333259821808,461.81689010644203 L 771.0700038521338,462.7159785046092 L 773.9827067683218,465.0594381930228 L 775.6241580602928,465.50372193399807 L 777.2306848782509,465.1639760532466 L 778.4390724627832,464.6046956923682 L 779.6893694296293,464.3119851089809 L 781.4006696696049,464.7719579226418 L 785.8430655474335,467.4985832355348 L 789.5450621573407,468.92367321177124 L 789.8803372834993,469.52470495942396 L 788.0502936697083,472.1708817312104 L 787.5962752373127,473.7403903990053 L 787.8058222165118,475.05030115579575 L 789.1469228563207,477.60381200670787 L 789.7476241606372,479.22188415001034 L 789.7615939772702,480.60999764448553 L 789.2097869635954,481.961492305725 L 786.62537426525,485.2163979733097 L 786.2831142307741,486.0853758964172 L 785.9967333276669,500.17467924678743 L 786.5625101579792,503.4508631442658 L 788.2179313341614,506.2498804217384 L 797.4310133076604,516.006815144747 L 793.0854749380983,515.9884998550016 L 787.9954862941305,515.9670468960813 L 787.8074401276199,512.0324139287073 L 785.169194105417,511.8445948423188 L 783.2847326609801,513.1593125460773 L 782.9076446993531,515.9643235555186 L 782.9013521524334,515.9990347450693 L 782.5309480832057,518.0422269878296 L 776.5684419721113,515.9956467748727 L 776.4671551316253,515.960880150422 L 773.2208251851036,510.09254053678745 L 770.488680585627,505.15310925038153 L 773.7769980197816,496.8086982568796 L 768.695052894274,495.31846097391735 L 761.9689490516851,495.31846097391735 L 764.5099216144388,490.1022333270635 L 763.0152318716417,488.3136689760286 L 757.7413346987613,491.21786067189663 L 753.0008105949023,493.82817344867954 L 751.8050588006654,491.5926474570519 L 747.1055479331918,493.35523122943493 L 741.5711290767338,495.4308623480763 L 735.3819982001437,497.75192161120344 L 729.8475793436891,499.82734708198694 L 724.7059876993138,501.755374900657 L 719.220822407678,503.8121473202521 L 712.6441875393695,506.19605233971214 L 708.0405431315562,508.4904434615828 L 703.3771111340303,510.81451526545885 L 698.6813019842928,513.2266063281957 L 693.3769704160047,515.9511266901749 L 686.5457390023977,522.6924347843451 L 679.7214924971031,529.4362790436271 L 672.8972460593981,536.173981582191 L 666.0660147133693,542.9160012412214 L 660.5898536886216,548.3910687085332 L 655.0228890585043,553.9316463406503 L 647.4687206139804,561.4659859174479 L 641.0007039598023,567.9249100369065 L 636.0274557932565,572.8898685337718 L 635.6967895475584,573.0824280901826 L 633.1915867333945,574.541282733973 L 630.2649140005735,574.9028491724192 L 619.3964108508884,574.3535454154905 L 617.8529716938759,574.2772895913339 L 613.2392222451384,574.049340087648 L 611.1472449411426,573.6460483010286 L 609.729310445005,572.903775394539 L 601.1972561201017,565.9673175898834 L 599.845678084019,565.4057576031574 L 598.6512603837101,565.831709185163 L 594.5511246079478,568.8619574128365 L 589.242601180078,571.5443656497644 L 583.5708630603576,573.2444920325636 L 572.9503239194079,574.1014896512249 L 560.5346656386721,575.1097059383588 L 557.5765607846276,575.7980643017372 L 545.1399478465239,583.3260236951472 L 544.3401768916989,584.2384916336673 L 544.2668354557408,585.1092338998599 L 544.5602011995784,587.5163108014933 L 544.5462314505279,588.5590583472729 L 544.3388823224202,589.5092682859579 L 544.245880730787,589.9354579872708 L 543.8023396270748,590.5176379722582 L 542.9816140148868,590.5489191387417 L 538.7347953672067,589.6956329063257 L 537.596256798266,589.1099694394348 L 536.562491718932,588.0481142453477 L 536.1138539090219,587.334184157471 L 535.2563155531204,585.9695358420614 L 534.487976584355,585.5611111745219 L 533.9518681382144,585.5282805282403 L 528.6416160270256,585.2030856358074 L 527.7196093456007,584.7251356066101 L 527.2516210965756,583.586730144569 L 527.0455666053291,580.491201274694 L 526.7906177558668,579.2154002513696 L 525.8197167838044,577.5988825964322 L 521.0071212382262,572.2449350360033 L 519.4075793285771,570.9098475180076 L 519.0072806147642,570.7248253978918 L 519.0094946275938,570.713460577649 L 519.2330114165306,569.5660909190093 L 520.8814476057807,566.9496536617129 L 525.3482906640272,554.7020493632738 L 526.6160498591566,552.2483721503115 L 527.9047637361557,550.7441131868032 L 534.9525270257654,545.7354045621189 L 537.2191267859868,543.526550764251 L 538.8535931873234,541.4219644036943 L 540.1772315341054,538.7102254075146 L 542.6917953032734,528.7438969656102 L 548.9747120664974,515.065377795925 L 552.8653009175122,509.4108079799949 L 554.2098939461591,506.8539290184659 L 554.9747404725451,504.5910852575617 L 555.0690366321245,502.4795764690936 L 554.4054712200489,500.0493912799995 L 553.3786909575778,497.70264059732733 L 547.9688866074531,488.3857862214915 L 547.0154478834703,485.75978331321636 L 545.4508304216943,479.80366290329687 L 544.8431442220494,437.4518403247107 L 546.519519987122,429.9172834202693 L 680.3257408891678,438.0690453234875 L 733.0163277416199,422.37072465696764 L 733.033081568,422.3657319939758 L 733.155971177967,423.1381288605719 L 732.4435114081598,424.56834976107115 L 732.2060248632758,425.33052986830916 L 732.1780852975919,426.11711103992957 L 732.5203453320638,426.8496104394642 L 733.6309443353166,428.0425066491564 L 733.8404912469305,428.7976388417118 L 733.6938083750051,429.7550474730078 L 733.4772765550753,430.52583924854355 L 733.351548340526,431.2669700924065 L 733.4702916467589,432.15456376398714 L 734.1408419666632,433.64546420480434 L 739.6100179479258,441.3762708644395 L 740.5739340792582,443.1753661666089 L 741.1606655669339,447.090546717114 L 741.8661404284288,448.3908704910035 L 744.8836168342165,450.6044580013941 L 750.2969136840994,453.7520677922012 L 752.902281107395,455.8503341016407 L 753.398208922112,457.2061313515862" fill="none" stroke="#000000" stroke-width="0.7974310133076604"/>
	<path d="M 9.571783593953903,269.4139747140445 L 9.157202842119093,269.3677812877442 L 6.817261596974043,268.8243455141096 L 5.748572043632071,268.41237873015126 L 3.9464680631111135,267.43239767312747 L 2.1164244493143327,266.06316801137154 L 0.6635654115913087,264.3554754498696 L 0.0,262.37062495968286 L 0.24447145320372174,260.15940782553236 L 1.0547198042926587,257.85329886083093 L 4.840535178846086,251.50210417201316 L 5.518070339482752,250.75304719283986 L 8.256150885647752,248.93908065881064 L 8.717154158779937,248.29696873156456 L 8.38187903261497,247.4706205038505 L 6.54485057808776,246.02839431452387 L 6.0628925124274256,245.07563779624297 L 6.32133378225874,244.10529833934183 L 7.564645840789949,242.31191458605574 L 7.718313621027336,241.34497863523836 L 6.49595621986574,240.69916401792784 L 3.9813925371136913,240.75356753739845 L 3.2961868383721966,240.8475443417237 L 3.5972230527326405,240.4183699309177 L 3.7439059922339437,239.45311615987026 L 4.152522621933897,238.90553754107617 L 8.043111350922434,235.94278879902265 L 10.089686919811868,234.9791175604197 L 17.472725279512026,230.32523541439315 L 19.012895569832352,230.00745442144378 L 25.15960684690044,229.36485734478916 L 28.473941484477212,228.25695238768958 L 29.14449173679923,227.88822498414055 L 29.521676312867335,227.43520941577796 L 29.521676312867335,220.18933347937082 L 29.584540420140367,219.74671386477522 L 29.993157049840036,218.72795545718878 L 36.118913601958255,208.36227649623623 L 36.38084729216284,207.7032893697738 L 36.45418879570546,207.34303538370602 L 37.75338005319082,194.34385850684086 L 38.21438332632102,193.11827718320419 L 38.752220590941434,192.33225353330278 L 40.71148477207277,190.54206005557086 L 44.853529997738775,185.89359297293348 L 45.34596539208675,184.33510016749597 L 45.47169360663648,183.53294532410888 L 45.356442720774375,165.40303009342568 L 45.60789908229105,164.00686796917827 L 45.83840078644037,163.57374056169616 L 46.100334544221255,163.30435223083893 L 46.344805997419606,163.24448773706487 L 46.983924263686355,163.19694814129488 L 47.71733862328706,163.06489322088345 L 48.30407017854698,162.7954987269921 L 48.8803244051235,162.4521480751315 L 51.20978825399868,160.52752530915828 L 53.546237011198116,159.10992404980462 L 54.429826798245735,158.12195187135026 L 56.28431748978116,155.59810737998518 L 57.19584684251643,154.66282012158962 L 57.765116093191835,153.8860258357511 L 58.35184764845571,152.64239307012363 L 58.73950955320579,151.4515397418604 L 60.51018148009123,147.7904921966684 L 61.24359590727021,145.78528793184466 L 61.327414739500746,145.38352000223983 L 61.348369396868094,144.9605983170829 L 61.30646001454126,144.57467503634186 L 61.09691303535143,143.87506147783643 L 60.54161353373071,142.5903217675709 L 60.43684004412688,142.24665415584064 L 60.29015717221375,141.49409101422748 L 60.3425439508048,140.92832958688646 L 60.520658808773206,140.20215915051125 L 63.89785755362074,132.9073649113619 L 64.56840794111685,132.0927599826607 L 65.05036593919326,131.65899663135949 L 65.46945989758254,131.48619413945192 L 66.53116461018814,131.1723247358844 L 67.51603539888973,130.78086324905664 L 68.2389724298028,130.63097743522962 L 69.97122739473015,130.77028312714964 L 70.74655120423625,130.6415575583332 L 72.38101765546683,130.00673557897855 L 72.76867949264033,129.9961550710305 L 73.55797311877572,130.09666985405406 L 74.00849913080448,130.038477071161 L 74.61618534343769,129.78983373529684 L 75.09814340909803,129.6734463936889 L 75.55914674981244,129.62583321541308 L 76.36590261294984,129.76338208253483 L 76.73610228070358,129.88505917990994 L 77.4171299292915,130.18660374774865 L 77.8047918340396,130.30827834853562 L 78.20293106747732,130.37705078271168 L 78.6115476296007,130.38763103241243 L 78.97825487698117,130.30298820455454 L 79.62785047193583,130.05963817604876 L 80.00503504800196,130.02789664729804 L 80.7384494751866,130.13370146739098 L 81.12960386788625,130.12841127986962 L 81.49631104768449,130.0649283807252 L 82.75359285526473,129.4724123376352 L 83.09934537769362,129.36660414850795 L 83.89562391215695,129.27666670742911 L 84.32868761959357,129.2713763060101 L 85.1354434827366,129.1867289527677 L 85.8269485275947,128.9680551543998 L 86.46606679386173,128.67178393280557 L 87.47189230751489,128.32789233072123 L 88.24023120869815,128.18504346550128 L 89.05746440052344,128.11097322283607 L 91.774590154147,128.20620628582907 L 92.53943656738691,128.0845196091306 L 93.38810188043337,127.84114395027245 L 93.59764885963112,127.80939909555286 L 98.58835933075966,126.05630408040035 L 101.49407733862913,125.33668165348979 L 101.88173924338486,125.278475763962 L 104.06452028792349,125.25731000814253 L 105.6046905106613,125.00684644858795 L 106.67338006400327,124.7105195628726 L 107.0645344567049,124.64702038230628 L 109.77816778996481,124.75285222074056 L 110.32298989532158,124.68935316788175 L 110.92019877926717,124.5253131068117 L 112.3381333429896,123.83209740222335 L 115.35910216913835,123.03654692194719 L 116.09251658553772,122.9677506612549 L 116.34397295783994,123.15473485902821 L 119.28112308693085,126.80764835949147 L 119.62687560936003,127.3755481511893 L 119.76308115259118,127.69300093255136 L 119.8468999172392,128.06864737042352 L 120.25551647936257,138.62988086183682 L 120.38124469391202,139.0070971781264 L 120.55935961947029,139.29793692597502 L 120.99940823522721,139.7791359384279 L 121.52327568321438,140.21273460375602 L 123.95751308926997,141.64213827761037 L 124.98429319270258,142.09156133548234 L 126.82132171481994,142.62733176369863 L 127.00991396905793,142.72250015074823 L 127.43948532371736,143.0679225180568 L 127.68046435654668,143.2935015295745 L 128.0786035223999,143.82747994303523 L 132.11587532605648,150.45265265245703 L 132.91215379292964,151.46739465944663 L 133.86559709579657,152.46716829739765 L 134.18346000456958,158.0850231170879 L 131.9273376156747,181.35155989979296 L 131.69683593278125,226.17450261038096 L 135.2940589337364,249.128608063493 L 135.5455152984994,258.5653757133404 L 136.99138944146102,267.8689780377393 L 139.4256268389667,275.4903596844089 L 143.52576263022277,281.2890729628238 L 147.4896929589433,284.86160844272047 L 169.71214964296962,299.3151834842823 L 172.43975270819854,300.3552972501433 L 174.7342921050205,300.687985343903 L 176.6132300379429,300.5969341957767 L 178.28960580301936,300.20821274138586 L 180.0532928944932,299.5305637576993 L 184.26867946641894,297.29087777540855 L 191.6621952803671,292.2785091208773 L 232.25493674455714,273.1277551075583 L 241.8521882123392,270.5966609172042 L 244.82077033178027,273.7482220475586 L 253.57634143965794,288.10258970363054 L 257.8022054436886,293.3994531585419 L 259.37730021600817,294.91966080237 L 260.36217099318264,295.6394534398877 L 261.67183955205127,296.1700914602797 L 271.89773196212997,297.92130020400674 L 275.21206660590934,299.336196250771 L 280.05609418090694,302.3321069790035 L 285.68941538074705,306.665193394035 L 294.2354394876012,311.3266776531107 L 297.0573387731843,312.33659450409095 L 299.25758201043095,313.56524934414017 L 300.21102073441403,315.11061918222424 L 300.0957698929652,316.89215432491216 L 299.3623555413323,318.6105838894186 L 299.07946712337764,319.9824542809188 L 299.61381190609137,321.28427132329784 L 302.27855086493327,323.38210389025494 L 303.0538746410839,325.02492167401937 L 303.3786725443352,327.7155149058509 L 303.2215122783726,338.6660504710618 L 302.00613981830435,349.3014476328457 L 302.6243033892716,357.710297842414 L 305.3414292047322,373.1972550060629 L 271.03858939772243,376.0914941524236 L 270.1759543559491,376.0390962255543 L 269.2853796775707,375.72994666178727 L 268.6567387352777,375.4050745231556 L 257.7498187086277,367.7521687700925 L 154.42220534632963,379.99315764058247 L 152.58007955438052,380.26846229351474 L 152.49781103379937,378.78632665518717 L 149.23586317482128,376.9420209828047 L 145.2405008210681,375.46091213877395 L 142.91452939256197,374.2749285218675 L 141.7829757319416,373.0923951039689 L 139.0309255043098,371.1726512994773 L 136.92847080404422,368.5505050533733 L 135.85978125070224,368.07531637319215 L 134.6374239171209,367.755608302148 L 133.11471586380682,366.81742999264367 L 132.4232108865273,366.00501864288947 L 132.17873943332893,365.2624740462664 L 132.06698096783447,364.49719817426995 L 131.7875850406276,363.63056224465765 L 131.75964547493965,363.21820292536944 L 131.89235853022745,362.80234356074436 L 131.92728300422834,362.4354043492068 L 131.62693235207726,362.169807568278 L 131.23577795937024,362.169807568278 L 130.79572934361335,362.28163807090704 L 130.36965054448967,362.3305637829528 L 130.0204055341095,362.12787097706735 L 129.3708098715726,360.60064422237525 L 129.13332332669285,357.0950811781261 L 128.7142293682996,355.5676094222574 L 125.67579823756604,355.3229273813767 L 124.88650461142329,355.10271190141464 L 124.70489726550335,354.67625839943855 L 124.66997279149709,354.16240910922266 L 124.27881846637996,353.687003574073 L 123.60128317057091,353.4108455643734 L 122.24621278170969,353.21159075873624 L 121.56169264516653,353.0333091506399 L 119.43129837921894,351.83425076444166 L 119.11697791042924,351.2119806634809 L 118.95632522187128,349.9429301560009 L 118.66994438634609,349.40802545625957 L 117.53839072573166,348.88010379897224 L 114.49995959499414,348.5934140566329 L 113.48714917302803,348.2437889269739 L 112.87247811965648,347.1494362108323 L 112.8654932113438,346.25084904248405 L 112.50227838432643,345.69140401114817 L 110.81891777762083,345.617976093892 L 110.07153346622042,345.42916064818326 L 109.00284391287873,344.3556874403568 L 108.33229359297249,344.0654586299698 L 107.01913258643245,344.0864391504924 L 106.47431041349344,343.9360786029713 L 104.8328591215245,342.6352542099724 L 103.56859240562397,342.124700386323 L 99.40559252258468,341.05111047937413 L 98.33690290166047,340.4705867073543 L 95.29847177092125,337.7042026397344 L 94.29264632485032,337.0781461799634 L 93.18204732160494,336.88577981729014 L 91.8863485520652,337.3334668441351 L 90.12615395386543,336.51853150409784 L 87.49284696488223,334.5178237144867 L 83.7000466820085,332.6359166858257 L 82.80597963385577,331.99576135141956 L 82.07256520667877,331.00926543511883 L 81.70935044724929,330.02623504179104 L 81.27628673980531,328.07756940189483 L 80.7384494751866,327.1084363423593 L 80.29840085942402,326.7830524007238 L 79.16684719880365,326.43317317619204 L 78.63599484250382,326.1357725279902 L 78.23785554148358,325.67741974727267 L 77.58825994652919,324.60323678734125 L 77.16218107982328,324.141360903811 L 76.26112912335026,323.5360126595396 L 72.2378272039168,321.4224437611654 L 70.79195307451265,318.03831394903386 L 70.49160235476633,316.94284906561415 L 70.53351180466946,316.0923475654732 L 71.97240102576716,314.7237923098449 L 76.43575156095697,313.2116555100098 L 77.95147470595839,311.8884702014887 L 78.25182535811683,310.70175192948466 L 78.04926328724362,309.7005292817141 L 77.65810896212055,308.75878766679216 L 77.3996676922912,307.746993311964 L 77.65810896212055,304.830442423963 L 77.60921467148104,303.83951684715987 L 77.24599991205156,302.6909797796821 L 76.2401743983984,300.8875416034912 L 75.5486693535423,298.7442755034791 L 74.89208885027524,297.68308756230175 L 74.02596143538702,296.8390115290022 L 72.31466112782675,296.2751124397293 L 71.90255207775805,295.900340784726 L 71.5672768164286,295.48703537988735 L 71.07134900171133,295.17880360567136 L 69.40894305237532,294.9055953446639 L 68.45201182936732,294.9090980030804 L 66.35654210500483,295.3679462161698 L 65.42056560694274,295.4274908959733 L 63.367005264905124,294.6674114978478 L 61.348369396868094,293.1261725269115 L 58.10039128693904,289.5004177535797 L 57.520644639993485,289.1851120778085 L 56.98979235127023,288.80323702076396 L 56.53577385129783,288.35829328358193 L 56.16557418354211,287.85728503122465 L 56.02587621994391,286.64852075978257 L 54.6428661978063,285.22070847763763 L 54.48919841757287,282.81340446975844 L 53.82563300598128,281.72356467103396 L 48.021181830978996,276.3858666061979 L 45.86284793175333,275.39916973551004 L 41.951304410236645,274.95400503685215 L 39.80694039523438,273.7691997932124 L 38.44488503047034,273.6114555026321 L 37.124739115611696,273.59743372154634 L 33.33892374105629,272.89808894093363 L 28.59617721106946,273.6465098551808 L 26.44482828775453,273.57640103604643 L 24.314434021805255,272.2530628525137 L 23.650868542629446,272.0988151700826 L 23.161925636232745,271.8095983225739 L 22.798710876803543,271.3643735220635 L 22.526299857911606,270.75962711259047 L 20.919773039951195,269.21702284749483 L 18.586816703124466,269.46069019182136 L 14.228239657526606,270.9594579260398 L 13.872009738833489,270.76663875395144 L 12.754425894852014,269.8849114110714 L 12.244528263498093,269.6219651249325 L 11.755585357101674,269.5483397798933 L 10.777699476718404,269.5483397798933 L 9.571783593953903,269.4139747140445" fill="none" stroke="#000000" stroke-width="0.7974310133076604"/>
	<path d="M 158.37211122439865,407.7631477677098 L 157.74347028681953,407.35308025384757 L 157.72251562944624,405.73370255692674 L 157.49899883361525,403.9885992759698 L 156.4303092802795,403.2172357129619 L 153.62237985368367,402.6203769071004 L 152.3511281618803,401.8070967235253 L 150.72364661896805,399.6603636450908 L 149.6060628425688,398.56425635609025 L 148.29290170085636,397.8224441181327 L 147.27310650573642,397.40004034287784 L 146.52572226192618,396.7664248892826 L 146.06471892121175,395.37173113272485 L 146.2183867014511,394.1532910546025 L 146.5955712775175,392.8841815919543 L 146.49079772033738,391.88736486971817 L 145.2125612553802,391.4666330363508 L 145.67356452851237,390.6757825523781 L 146.3091903744101,390.2148811001053 L 146.98672560263492,389.8534879682162 L 147.56647224957456,389.3541654674689 L 148.87264841538615,386.63220325868446 L 151.0170124303884,383.7738164509587 L 152.1136415494183,381.7254744977616 L 152.6235392483505,381.051397215659 L 152.58007955438052,380.26846229351474 L 154.42220534632963,379.99315764058247 L 257.7498187086277,367.7521687700925 L 268.6567387352777,375.4050745231556 L 269.2853796775707,375.72994666178727 L 270.1759543559491,376.0390962255543 L 271.03858939772243,376.0914941524236 L 305.3414292047322,373.1972550060629 L 303.68251558337715,382.26862266204654 L 304.10160958542485,385.22666763370376 L 303.3996271654261,387.6484363714085 L 303.88158527385724,390.354603407617 L 302.82337301897303,392.69220717535967 L 303.68251558337715,394.8306500640883 L 304.35306595018756,398.7405980458724 L 303.9025399557268,401.16838124000196 L 304.1225642672944,403.2225257686384 L 304.68135620924727,404.84725555880766 L 307.3426027514985,408.85552909724635 L 308.61385442399745,411.3855486209079 L 309.7244534139429,414.86446588496347 L 311.54751207365535,416.8968754683454 L 314.5370489357488,418.56284179494384 L 318.5533659387517,422.8312018262994 L 320.3589623331858,425.72300501141183 L 325.30776343908474,432.1999564392293 L 327.10288252297164,433.81291430828094 L 329.4078992911191,434.4772582236965 L 331.29731441302783,435.2723631217133 L 332.6803245103847,436.1005792796686 L 333.90617428099983,437.0264162523857 L 334.95740158114916,438.4090268512316 L 337.2624183492972,439.7288233987935 L 339.62331426909316,440.3930629457654 L 369.207854713876,443.29396259325085 L 373.9366313866464,443.18413691284354 L 377.3033528262693,441.2263969174886 L 378.09963134506864,438.0167402151851 L 380.2579652185759,431.77621642317246 L 381.6444676109623,429.2354187539571 L 386.3837217158371,423.1189970989375 L 388.943687326114,420.7258662020028 L 390.0752409371504,418.88730376708963 L 391.3010907685444,415.79607399294133 L 392.49900096333397,409.18007967157166 L 392.51995564519956,406.1246482479005 L 391.74463186904893,403.4947736421326 L 391.0182023505897,399.1856754021374 L 391.23124176820056,393.341609818815 L 392.03799759754713,392.04279205767824 L 393.0647777992396,391.3444823291471 L 406.7516876869551,391.10356207220457 L 409.7482094430048,390.72646606567554 L 410.9146875845985,391.2711589286121 L 412.2138788329235,392.2418076976406 L 414.55382007085024,394.5112014597894 L 416.8274047250277,397.38787651360184 L 423.74943980186714,411.2494556529918 L 426.69706730021727,414.7911923286719 L 434.8554295189979,422.2503716488642 L 442.3118093785508,427.9274588116246 L 444.9975030800408,430.4927604296637 L 446.61101479950855,432.5818414242945 L 448.4585206792393,435.7030378189923 L 449.8520080263605,437.2739996994411 L 453.7425968773716,439.9171129963129 L 458.64948849797764,444.4758766104391 L 460.66463189343585,447.89938674893983 L 462.17337014278087,451.2127912428285 L 462.42482650754386,454.0919652645256 L 461.6704574132591,456.5248076335239 L 458.5551923383986,461.2593602299691 L 457.371251992301,464.15871416083826 L 456.6692696330772,467.46030942839207 L 455.61105737819304,487.39147637954596 L 455.3875405892561,488.77235935785296 L 455.1570389671413,489.63952442494 L 454.75889964696285,490.3464775755482 L 453.9416664462945,491.08301993768134 L 452.44340562905023,491.95188020140597 L 443.0557011622923,495.0040724637721 L 435.33738750587145,498.9195541620887 L 432.253554605761,501.23490639018144 L 423.31986855005425,509.92251478029783 L 420.9380178876101,511.10429231401264 L 418.7692067643337,511.46978441802946 L 417.0369517260518,511.06774295745504 L 415.31866647567904,510.047829907267 L 410.9565970091165,506.0445401445486 L 409.45484371450266,505.008849471031 L 407.93562815461445,504.45008899595535 L 406.20337311632835,504.3665354336511 L 404.76797640547164,504.67986045497645 L 403.02873641245037,505.3813526642296 L 401.49555106464885,506.44140354343523 L 399.86108466330785,507.91046462747954 L 397.3011191138138,510.70746904894816 L 384.8854608378145,520.3312255661526 L 382.9754024364929,521.3923812226791 L 383.31380395336527,520.9871860849776 L 383.5443056575072,520.2702675130017 L 382.72707246568194,519.7812950847615 L 382.0425523291444,519.4976538975093 L 380.50587452677365,518.570153008489 L 380.0588409351159,518.3926554674788 L 378.5570876743277,518.7772326576135 L 378.0436975550245,518.6780433889639 L 377.0623192542781,518.0968247358107 L 375.10654749351977,516.3670481600909 L 374.32423877569903,515.8188663215495 L 371.5023394648917,514.5084247849787 L 370.7060609980202,514.3517958927179 L 368.6734553809285,514.3152491051018 L 366.626879879621,513.4450781456814 L 365.8585409784417,513.2205714870781 L 365.4394470200541,513.2762631149006 L 364.3882197037124,513.7966291582786 L 364.0634219062337,513.5808258802026 L 363.3649320206412,512.8899006496886 L 363.0925208665885,512.7089009500985 L 361.6396618288601,512.4461019877132 L 360.6268514744762,512.6253624006889 L 360.0610746441639,513.4659624640832 L 359.8934371148755,515.8188663215495 L 359.68389006810145,516.9917937000699 L 359.74675417537225,517.68091847976 L 359.6210260284129,518.4239786190575 L 358.3497743366096,519.5951013420129 L 357.90274088011654,520.3068097701956 L 357.46967703750585,521.8693988592329 L 356.91088511551413,523.2300976156915 L 356.0726972663178,524.4637414367414 L 352.60120236055974,527.4407133257849 L 351.9306520406555,528.4254577319351 L 351.2391470633799,530.0312795036161 L 350.24030645804703,531.6422682211498 L 349.1227226140596,531.8823462913391 L 347.77463699835226,531.5935565927905 L 346.112231049014,531.6283505986924 L 345.35087705614313,532.4233875029532 L 345.1552998259984,533.6915928947795 L 344.6558795909143,534.770151122144 L 342.9550566120437,535.0136932826165 L 341.4253636504033,534.2778443366416 L 337.1226658037636,529.9442916354352 L 336.36131181089866,529.394524435988 L 333.6791104636875,528.2392973240421 L 333.48353336871145,528.3193289953585 L 333.2949411144715,527.3572005452471 L 332.5615266872883,527.0509857066561 L 329.2995787607206,524.8882886202895 L 328.7687264044205,524.3175850049522 L 324.6685906286576,525.3354510484295 L 323.187792025241,525.4850842891794 L 319.9817232300489,525.2240958562438 L 317.9211779796927,525.4990036526499 L 317.2157031857782,525.5059633328946 L 315.5044028782199,524.8117311763585 L 315.1761125927913,523.5050167304462 L 315.078324011512,521.9981622830568 L 314.1004381311287,520.6913714524727 L 313.17144660897543,520.4077358046798 L 312.59169996203013,520.7226930938739 L 312.0049684067722,521.2899591786534 L 311.08296172534904,521.7545555325526 L 309.69995170321,521.7545555325526 L 309.0992503988971,521.8485182441918 L 306.29830574545906,527.2284513566123 L 305.2785105503408,528.616836878495 L 304.265700128373,529.2709999005332 L 301.4787253591524,529.9268940433976 L 300.67546191637814,530.4331617208012 L 300.4170206465409,531.1725468769714 L 300.25287560520405,531.948454456732 L 299.7813948682254,532.5590818163932 L 299.166723747277,532.7417465946722 L 298.51014324400455,532.6738997667925 L 297.85356274073723,532.5382057663572 L 297.21095198651324,532.4999330188821 L 295.69522884151945,532.8635227637736 L 294.7208354490821,533.5385053370696 L 292.1189604461542,536.9376350244975 L 290.86866354688686,538.1274501991635 L 289.4297742582129,539.0023988217731 L 287.9000814317447,539.1728641133993 L 286.27259988882673,538.6632057656931 L 285.7103154788877,538.0248210283728 L 285.490291171008,537.0802751116424 L 284.88260495837477,535.6590743294196 L 282.60552782050814,533.9925477927047 L 279.7591813643762,534.1178001095981 L 276.78012192054837,534.6796923138571 L 274.1188752982933,534.330032525798 L 272.8441311861229,533.4167308160067 L 271.5938342868556,532.1693945760336 L 269.71140396205567,529.7911925206487 L 269.43899287558713,528.4880909990749 L 268.99195935150965,527.9400473353842 L 267.89882265284905,527.8600150450194 L 267.2736741356313,528.2392973240421 L 266.15609029164955,529.4258404623728 L 265.4785550634247,529.4884724554067 L 263.40403999643553,526.5516425505022 L 263.07574977859116,525.914842209985 L 262.8766801280813,525.3806890707488 L 262.7649217301685,524.8256507328466 L 262.7195199274746,524.1053094113024 L 262.93605174740253,522.5775933556744 L 263.2713268735655,521.4135039380575 L 263.0652723823193,520.6739706140385 L 259.5833001478736,520.1745615426373 L 258.8219461550067,520.2754878564119 L 258.3679277226128,520.1850022497978 L 257.6764227453373,519.4524103445572 L 257.3341626432774,519.3306006431313 L 256.7334612713803,519.647305219353 L 256.44708043586104,519.8578604665865 L 256.56582374208625,519.9518269006215 L 256.50994454313377,520.1084373252494 L 256.46803516080695,520.4355773923913 L 256.30738247225463,520.7226930938739 L 255.89527342218,520.7644552954146 L 254.74974994492806,520.282448290955 L 254.37955027717857,520.2267647862312 L 252.44822566174082,520.5104016421731 L 251.9208657933866,520.4599387935999 L 251.14554198388248,520.0040304550215 L 249.91619967440624,518.6850039894285 L 249.22469469713067,518.1177069243791 L 248.6938423408249,517.9436881136177 L 247.03842123222498,517.5956485089242 L 246.73807058006656,517.5904279388361 L 246.24912760608197,516.4958264632364 L 245.94877702150774,514.8843320874295 L 245.81606389864365,512.1119449399893 L 246.3608860715824,508.1854188479576 L 246.10942971006375,506.7268102418945 L 245.8440035319138,506.1088892290518 L 245.39696994025041,505.34126307692713 L 244.83119310994178,504.65543647860443 L 244.19556726404406,504.29511224709347 L 243.58788111899904,504.3229635324459 L 242.28170495318912,504.6832875431858 L 241.77879223015353,504.6832875431858 L 240.8917100227315,503.97830311196094 L 240.47261606434986,502.8607498207078 L 239.94176370804408,500.0702273067231 L 239.05468150062177,498.4703423493368 L 237.8532788244157,497.7095500051825 L 231.8881749608498,497.0636497218015 L 230.52611966366996,496.5883586710424 L 229.31074723840894,495.58727092246653 L 228.9475324113975,494.91348260053553 L 228.66464399624135,493.470113355782 L 228.41668012267397,492.83459799733174 L 227.84042589609575,492.17817935922886 L 225.72749393473268,490.57104376277533 L 225.252520777385,490.37428308276395 L 224.80199476536416,490.1270251341121 L 224.39337813565658,489.8240451529908 L 224.023178535491,489.4740483241818 L 224.47719696788116,486.4667454714262 L 224.35845366165597,485.59429240623905 L 223.67393352511056,484.7253045415286 L 221.7111768560339,483.3181685470453 L 220.60756282868567,480.6657302397415 L 218.7635493982613,479.1208652935806 L 214.8974077470111,476.53086871424966 L 213.51789014524084,474.8203730376493 L 212.40729120957798,472.82586709455103 L 210.60518722905306,468.5752450440049 L 210.32579130184646,467.55781784060775 L 209.9590840544657,464.2318378703851 L 209.4107694611656,462.51385955268387 L 209.27107149756145,461.67575228232784 L 209.4107694611656,460.6389841938546 L 212.155834848061,453.26234001421057 L 212.03010670109379,452.60703638768894 L 212.17678950543035,451.4183991623613 L 211.9113633272807,450.8467249618515 L 211.26176773232604,450.40576313989874 L 210.75885500929044,450.4475937709651 L 210.38865534154291,450.6602318143139 L 210.15116879665752,450.7438924178015 L 209.89621994719465,450.8031518499159 L 209.57840705803622,450.96175761933347 L 209.22217720692166,450.89204086297224 L 208.81705299758113,450.2523840447821 L 208.77165119489288,449.7974717941831 L 209.07549426741838,448.8179109840987 L 209.18026782459484,447.65007479135147 L 209.34790535388888,447.2090767842292 L 209.2920261549288,446.8499995200526 L 208.12554802030755,446.06385271060907 L 207.80773506356658,445.76054571676514 L 207.66454467959906,445.3665916205361 L 207.63311262595957,444.75822092397283 L 207.42705806713113,443.71228897974294 L 206.85778881645572,442.6576119338375 L 206.05103295331241,441.78769935672165 L 205.0941017303047,441.30653682431506 L 203.74601624975782,440.8654656938272 L 203.41772596432924,440.3633707039607 L 203.38280142274414,439.64334100613945 L 202.9008434922446,438.5222988582086 L 202.29315721202943,438.0811953086969 L 199.45030324385442,437.00543916812796 L 198.82864728217191,437.0298488852469 L 197.59930497268803,437.43086344826713 L 196.97066403510863,437.41691523721784 L 196.53061535176383,437.09610380972606 L 196.02071772040964,436.06914013521344 L 194.7704208211463,435.11189411201343 L 193.98112719500327,433.19384101883213 L 193.25469767614487,432.417873352632 L 190.30707021836605,433.1397853472833 L 188.88913572223404,433.0630610292796 L 188.02999308049968,431.8929961530615 L 187.3873823938656,430.3619164970006 L 186.56316429372225,430.2084562860762 L 185.4316106331016,430.61128805814144 L 183.86699319746037,430.72638200626847 L 182.29539092108874,430.02709342827404 L 181.75056874814408,428.82902962185875 L 181.35941442302666,425.80492230432657 L 180.63647732453163,424.9067108085206 L 179.41761241131934,424.1375452056773 L 174.59803202501072,422.25380566399264 L 169.82036102102555,422.4770688129901 L 167.64805737275086,422.19798966197135 L 163.68761949301214,420.8322151437154 L 162.63289968871922,420.00016633119407 L 161.9623494363955,418.78607325038286 L 161.41054235513815,417.3329452620906 L 160.6631581789042,416.1745873804997 L 159.46175557028235,415.82916614485293 L 156.730659932432,417.71673024534186 L 155.66197037908805,418.02375530147685 L 155.42448383421026,416.5915307262703 L 155.9623210988287,415.2796254985443 L 157.0659351261792,414.12294552866985 L 158.40005079008688,413.17210208192597 L 159.62939309957073,412.48643214287387 L 160.7469769435525,411.5739296098389 L 161.38260278945023,410.3298873221753 L 161.34767831544934,409.0421787933113 L 160.46059610803297,407.9830118562887 L 159.35698201310024,407.71777886824515 L 158.37211122439865,407.7631477677098" fill="none" stroke="#000000" stroke-width="0.7974310133076604"/>
	<path d="M 384.7701554790435,534.3613454401174 L 382.9436043531977,532.8774400405249 L 382.15780321500654,530.3983668750856 L 382.1962201093818,527.4546321311246 L 382.79692141369134,525.4328866743227 L 382.8877251542399,524.7386535402517 L 382.7829516646403,524.140108735085 L 382.3149634156149,523.0265172738104 L 382.25908421665315,522.4366513228206 L 382.66420835841114,521.7649958279616 L 382.9754024364929,521.3923812226791 L 384.8854608378145,520.3312255661526 L 397.3011191138138,510.70746904894816 L 399.86108466330785,507.91046462747954 L 401.49555106464885,506.44140354343523 L 403.02873641245037,505.3813526642296 L 404.76797640547164,504.67986045497645 L 406.20337311632835,504.3665354336511 L 407.93562815461445,504.45008899595535 L 409.45484371450266,505.008849471031 L 410.9565970091165,506.0445401445486 L 415.31866647567904,510.047829907267 L 417.0369517260518,511.06774295745504 L 418.7692067643337,511.46978441802946 L 420.9380178876101,511.10429231401264 L 423.31986855005425,509.92251478029783 L 432.253554605761,501.23490639018144 L 435.33738750587145,498.9195541620887 L 443.0557011622923,495.0040724637721 L 452.44340562905023,491.95188020140597 L 453.9416664462945,491.08301993768134 L 454.75889964696285,490.3464775755482 L 455.1570389671413,489.63952442494 L 455.3875405892561,488.77235935785296 L 455.61105737819304,487.39147637954596 L 456.6692696330772,467.46030942839207 L 457.371251992301,464.15871416083826 L 458.5551923383986,461.2593602299691 L 461.6704574132591,456.5248076335239 L 462.42482650754386,454.0919652645256 L 462.17337014278087,451.2127912428285 L 460.66463189343585,447.89938674893983 L 458.64948849797764,444.4758766104391 L 453.7425968773716,439.9171129963129 L 449.8520080263605,437.2739996994411 L 448.4585206792393,435.7030378189923 L 446.61101479950855,432.5818414242945 L 444.9975030800408,430.4927604296637 L 442.3118093785508,427.9274588116246 L 434.8554295189979,422.2503716488642 L 426.69706730021727,414.7911923286719 L 441.6517363830661,413.54377366853305 L 447.6901816754835,412.33818478306745 L 452.64247519797334,409.7925299175938 L 456.08253805452364,409.9024557776977 L 468.6553565357024,420.52177994535197 L 476.88706023219277,424.0730658583444 L 499.8219766467653,428.2361415682376 L 504.3202516974206,430.6340125488516 L 506.8068758299881,430.9008205763454 L 510.2469386865415,427.87513945694445 L 546.519519987122,429.9172834202693 L 544.8431442220494,437.4518403247107 L 545.4508304216943,479.80366290329687 L 547.0154478834703,485.75978331321636 L 547.9688866074531,488.3857862214915 L 553.3786909575778,497.70264059732733 L 554.4054712200489,500.0493912799995 L 555.0690366321245,502.4795764690936 L 554.9747404725451,504.5910852575617 L 554.2098939461591,506.8539290184659 L 552.8653009175122,509.4108079799949 L 548.9747120664974,515.065377795925 L 542.6917953032734,528.7438969656102 L 540.1772315341054,538.7102254075146 L 538.8535931873234,541.4219644036943 L 537.2191267859868,543.526550764251 L 534.9525270257654,545.7354045621189 L 527.9047637361557,550.7441131868032 L 526.6160498591566,552.2483721503115 L 525.3482906640272,554.7020493632738 L 520.8814476057807,566.9496536617129 L 519.2330114165306,569.5660909190093 L 519.0094946275938,570.713460577649 L 519.0072806147642,570.7248253978918 L 517.647384730377,570.0962633069046 L 517.4378377511813,570.0545407392361 L 517.2911548792684,570.4404734438764 L 511.91278250338553,576.4568642987326 L 511.284141633381,577.0252688355193 L 510.04781448316845,577.5502125628816 L 506.35830356480807,578.0888444950075 L 503.0349757236355,578.5740131173035 L 501.8475428640568,579.1667315527106 L 501.0582492379197,580.1453124353728 L 500.99054050912406,580.2045788626945 L 500.261970703462,580.8423024165634 L 499.02564355324944,580.5885364576911 L 490.39230815911776,575.9162664508336 L 484.80438887162535,572.896821964578 L 482.15012715768495,572.0571902531634 L 479.38410711342186,571.6747452695329 L 476.192008202443,571.6712684467365 L 474.4283211838725,572.1614930009268 L 471.9223152691695,574.1087746793942 L 470.11514594096826,575.5129876238811 L 469.50745966075675,575.7528693485546 L 468.2222382198987,576.0049178887085 L 467.59359734990153,576.2587035807952 L 465.5120973745861,577.9030694266165 L 464.59358311353196,578.3237137966511 L 463.9055705566277,578.417576124391 L 462.5679623371823,578.3845504988795 L 461.85899512290274,578.6278968145322 L 461.1116108790865,579.2814506217074 L 460.7693508446075,580.0132136145895 L 460.5598038654117,580.7901588396096 L 460.25246830494063,581.5809986584238 L 455.78911776974456,588.0481142453477 L 454.30831916633196,590.9434079532548 L 454.0219382632245,592.0 L 453.21867482045025,590.5941029656947 L 453.8962101162573,587.1252758774076 L 452.9183242358819,585.9313004425861 L 450.81586953561634,585.105757936742 L 449.93577223651266,584.4401017369403 L 449.4747688958042,583.43378251044 L 449.26522191661235,581.127353378718 L 448.9928108301382,580.4633911546944 L 447.7634685882456,579.578676140359 L 446.70874878395097,580.3434600144836 L 445.5806876112878,581.6679035091186 L 444.1417983226098,582.4656840024097 L 442.25238315707975,582.4587317709178 L 441.466582018888,582.556063745597 L 440.2966113963175,582.9940556767964 L 438.1662171979504,584.1654946423329 L 437.32104430527244,584.3775331399966 L 435.98343615340553,584.5443825654088 L 435.2814537798678,584.5235263872067 L 434.68773738387176,584.3114884694634 L 433.98226252237674,583.7466296078744 L 434.01020215564694,583.4129259480649 L 434.4083413890846,582.9940556767964 L 434.7855259651513,582.1667348307209 L 435.2814537798678,579.5473893068547 L 435.3233632297715,578.2333276154212 L 433.70286659517217,568.3647505364609 L 432.78085984616473,566.6157993224679 L 432.1242793428974,566.3932649098122 L 431.44674411467287,566.4662841204777 L 430.76920895403055,566.6470931673244 L 430.1196132914939,566.747928778764 L 428.75755792673186,566.7131578638658 L 428.156856622415,566.61232232471 L 425.5968910693908,565.7969377707024 L 420.1207301798109,562.5561449143568 L 415.59451546975816,561.1043335981195 L 411.19752146220816,561.0417396607472 L 410.07993761822837,560.6574808827753 L 409.5909946442418,560.0228396631692 L 409.47923624632955,559.3412441250576 L 409.47225133800896,558.6300805969448 L 409.31858362536116,557.8980419328179 L 408.87853494201664,557.1520826536969 L 407.25105339909675,555.2358419107 L 406.64336725405315,553.6847151400239 L 406.2731675187214,552.1300655094796 L 405.57467763312553,550.8066646857139 L 404.0275224344883,549.9562623211124 L 401.18816095426286,549.3806242716074 L 400.18233544060575,548.744110883049 L 399.16952508622217,547.3075796430096 L 397.6049077181632,544.2900400215611 L 396.5641577305091,543.0447102145556 L 394.9855705458135,542.1002571941225 L 394.18579952341025,541.9645884734056 L 393.4069832935388,541.9680672009918 L 392.698016011681,541.8080472383872 L 392.15668632668957,541.1731805407599 L 392.0938222194143,540.3539299735613 L 392.50593126948553,539.639031879373 L 393.01582890083944,538.9693492868621 L 393.2358532763011,538.2944395824188 L 392.5757802850766,536.927197878237 L 391.0984741020352,535.5442632283969 L 389.355741808418,534.5457432788731 L 387.86795822910193,534.3265533418096 L 384.7701554790435,534.3613454401174" fill="none" stroke="#000000" stroke-width="0.7974310133076604"/>
	<path d="M 674.8634709541203,246.81001420752506 L 674.5875916420067,248.31802186622517 L 673.7144792512233,249.86713193187794 L 672.3174994124531,251.42141056460437 L 665.6399357790789,257.41134422994526 L 664.2569257569459,258.2373722953431 L 662.9996439493656,258.5811044147629 L 659.178904100804,258.5951342875591 L 656.8599175806085,258.8634524885105 L 655.7283639199954,259.1685952663129 L 654.6457044824307,259.6350709940592 L 653.940229756108,260.11030650385453 L 651.1392851026643,262.517915855735 L 650.8459194264087,262.6090955756108 L 650.1125049992335,262.724823139173 L 647.0391493269015,262.33204861576985 L 645.4011904553018,260.4715497622315 L 644.0740596321226,258.14968484822134 L 641.9611276707595,256.37131809609656 L 640.5885949097319,256.150329082645 L 639.5932468599268,256.5467048938921 L 638.6328231489696,257.0886425048021 L 637.3476017756974,257.31313107906135 L 636.327806445411,256.87993647301346 L 635.3080111827109,256.057372777305 L 634.1694726137772,255.40842352072158 L 632.7934474999568,255.4680573597535 L 633.1706320084444,255.97669354434288 L 633.1426924427567,256.22048449127794 L 632.507066596857,256.5782743257803 L 627.9529123211161,257.1167036577724 L 627.0763075099657,256.9185208536912 L 626.531485337021,256.9711359302823 L 626.0250801936239,257.2324557019899 L 625.0960886038864,257.9532637122764 L 624.4534778496627,258.16371481899216 L 617.1123488722837,256.5431971316014 L 615.9249160127123,256.71507509061934 L 613.9831140685875,258.41625387526443 L 614.0459781758659,258.6863276986463 L 614.2485401791586,259.0809109028026 L 613.7456274561252,259.5333589854591 L 612.7258321934208,259.74204356430243 L 611.7968406036798,260.1874656528735 L 611.4895050432085,260.66619826175395 L 611.377746645292,261.18876062193283 L 611.384731553605,262.33555559550166 L 611.3078976297006,262.64416457201844 L 610.972622503534,263.10356438491596 L 610.9237281453139,263.4700263470682 L 611.0704110848133,263.68393954800655 L 611.6780973650326,264.12052751567563 L 611.7968406036798,264.3554754498696 L 611.6431728234425,265.1812831780583 L 611.05644126818,266.45939283276044 L 610.9237281453139,266.96606110798774 L 611.1402601004125,267.76724322214807 L 611.6152332577542,268.4228970244933 L 612.0902063475174,268.9277744922157 L 612.5861342298169,269.6850724777233 L 613.2008052831806,270.0426778724898 L 614.1088422831367,270.41956071732943 L 614.0145461222245,271.2977645274185 L 613.5395729648787,271.6518423242547 L 612.907439606925,271.8621834693719 L 612.3067382350338,272.316163934122 L 611.7898556953593,273.07161227163107 L 611.5174446764747,273.68857503084234 L 611.4056862109802,274.37387765852895 L 611.384731553605,275.32556034373533 L 611.5942785328007,275.69185270411396 L 612.5162852142256,276.3508158545084 L 612.7258321934208,276.71358908751677 L 612.5442247799133,278.0577351677236 L 612.013372491188,279.0057820193802 L 611.1681996660928,279.6874438130922 L 610.0017215314716,280.22890579508146 L 607.9761007551176,280.5618380939831 L 607.696704827917,280.90527991775144 L 607.5570067967343,281.47825707062674 L 607.235701419626,282.16686494791634 L 606.8305772778716,282.80814808952084 L 602.9958676126768,286.71158805913103 L 602.1367251061127,287.8748029483911 L 601.794464936465,288.5544898908023 L 601.4941143518892,289.9803761323393 L 601.1658240664678,290.44981622631735 L 600.844518689352,290.7896299054668 L 600.543650688974,291.4171175902801 L 600.5197754592211,291.4079944507289 L 600.4464339815117,291.3799693975917 L 592.424277286049,287.91339708300114 L 590.922524052218,286.9078512095452 L 589.2880575901021,285.3416483906236 L 589.0889880211795,283.463487348248 L 589.5395139548611,281.5536564819909 L 591.624506350663,277.1482642815365 L 592.5290508169503,274.60703651899604 L 593.084350281534,271.8008889347436 L 593.3358066462969,269.03301080506714 L 593.0110088646071,265.7160827865299 L 591.9842286629146,263.54197017528315 L 590.3148377310163,262.0620675455743 L 583.2146877671232,258.67059903470965 L 577.4381761500084,253.73691996244216 L 573.5371099884544,249.01632815970189 L 561.5265758658106,228.0041661974657 L 560.3426354589346,224.98918705716778 L 557.9398301753993,220.1893883704773 L 556.5882521920166,218.48034011464418 L 555.2471515191777,217.6003001641635 L 553.9549451648091,217.5686813587686 L 552.4042975517253,218.00080131341772 L 550.7593537790619,218.76665368943242 L 542.5136803554451,223.81786336577338 L 533.5066528828039,228.14814544306387 L 531.3273643274271,228.695961294979 L 528.7359667247374,228.7539026747242 L 525.9978862274072,227.67757593763503 L 523.7208090958638,225.67931106417814 L 501.2713432670925,195.75931819272662 L 500.45061758905825,195.0032741684789 L 500.0804179054811,194.82392988526993 L 499.587982486502,194.79931394728158 L 499.32255633382994,194.94349291427767 L 496.2352308955748,195.99667579063828 L 493.23521672293833,196.3922664727728 L 492.24685352917265,196.22875646399126 L 490.85685859864236,195.81558097373536 L 489.6205313959257,195.28107923647244 L 489.08269419662105,194.74480696018728 L 488.4750079969763,193.88850414036008 L 487.0396111645581,193.44891138524167 L 484.00816493872975,193.09723123030324 L 473.31079185232437,190.309977640316 L 465.1524296335477,185.75644845725466 L 462.1524154609113,184.7327039888867 L 460.717018689276,184.5216170074321 L 461.48083018748406,168.53191889316517 L 461.5027652717862,168.5313136437807 L 475.97547631493484,167.744442784733 L 480.7356850819141,165.8149956299467 L 495.2660215679881,151.43656553641546 L 509.79635805406923,137.04867321386988 L 517.1898738776215,127.86759800496677 L 519.0653192941012,125.99280895597566 L 523.27022855946,119.44649243563364 L 527.709132016921,108.19070308028344 L 528.589229316017,106.9179085162141 L 544.5113069427317,93.4092185180306 L 560.4333845694432,79.89147577165551 L 561.5579533217433,77.74709098428421 L 561.872273790531,76.04803551653785 L 557.0596783125393,66.94559915709216 L 556.0189283248853,62.319362239887745 L 555.8128737660602,55.1929705696014 L 556.7663125011229,44.10259659995022 L 556.4310373749599,37.08986488545144 L 556.3053092279927,36.29436851582515 L 555.9909886916191,35.21180158376855 L 555.7814417124233,34.80427240741132 L 538.0048733540062,14.85808166583883 L 560.4578317147601,14.757861858052369 L 582.9107900691331,14.657641490094306 L 583.0155635587292,13.004369195441676 L 582.9736541764115,12.131551312846046 L 582.8374487007609,11.334979769033902 L 581.9887833877082,8.941507020453493 L 581.4963479933622,5.758000418790716 L 581.4649159397287,4.870635588093564 L 581.5277800469997,3.9992009545716205 L 581.7897138047823,2.3538317524366996 L 581.8106684621575,1.462749236418413 L 581.765266659462,1.0367180677749965 L 581.6849403151904,0.6390798345822921 L 581.705894972558,0.2911392213638745 L 581.9049646230659,0.0 L 614.171706297701,0.3976523662164962 L 613.7526123644382,6.0490465417383 L 609.8305915142336,19.32927899066577 L 609.9004404622427,27.28996648533426 L 608.9819262687711,36.37409685677997 L 608.7514245646217,37.10935320994037 L 607.8713272655257,39.06694358321586 L 607.0994958763889,40.18825878594339 L 606.2124137365547,41.270539221675286 L 605.9609573750378,41.677928229387724 L 605.6571142349304,42.34213055079418 L 605.6361595775588,43.34281795745283 L 608.9871649331167,68.73299581859861 L 612.3381702886674,94.09021013071664 L 612.0867139271543,95.36910522350641 L 611.8352575656373,96.20634902911945 L 610.0506158221127,99.36778075622011 L 609.5896124814045,100.40794314791817 L 609.4953163204923,101.21319371070554 L 610.2182534189836,101.76413630912006 L 625.0786263668782,107.23567323020484 L 625.8015633977952,107.5852086789467 L 626.3778176243698,108.03182868330127 L 631.7282503669858,114.54467458236861 L 646.3633603426555,126.55720321630474 L 660.9984703183292,138.56289785592134 L 662.0042957644,139.75798453209603 L 665.03224956645,147.29361348471923 L 665.3710172481444,148.43712228973575 L 665.4757906701582,150.24124219016286 L 665.4024492341995,151.6417987440795 L 664.6480801496452,156.1599652610527 L 664.8995365111662,158.1906358938016 L 665.4024492341995,159.53257244436273 L 665.8075733759498,161.08221413916775 L 665.8075733759498,161.5541288906095 L 665.7482017566283,161.960883305759 L 665.5281774487491,162.67928827750885 L 661.1870625725747,171.37578902187767 L 659.7691280764292,177.56339612194682 L 659.3500341180417,182.76770556796453 L 659.6014904795586,185.77750116564468 L 660.0939258739122,187.71052861315977 L 660.3174426697369,188.15550647578584 L 660.5060349239832,188.48263897080568 L 660.705104506909,188.67961969752614 L 660.9146515536828,188.76755699937146 L 672.3931224513185,188.81503409052982 L 673.2310547663895,205.789938372001 L 674.2026889493862,225.45822259858707 L 675.1743231296828,245.11073079747308 L 674.8634709541203,246.81001420752506" fill="none" stroke="#000000" stroke-width="0.7974310133076604"/>
	<path d="M 600.543650688974,291.4171175902801 L 600.4917813261889,291.5252943821857 L 599.597714210452,292.4956408273531 L 599.3427653609897,293.23476261140155 L 601.0470807602311,297.7496319393541 L 601.6198424988563,298.8038128745942 L 602.7863207010595,299.49723900395844 L 603.0482543912677,300.0680769369004 L 603.2543088825064,300.68793060247907 L 603.4987804032929,301.10466071041253 L 603.9737534930521,301.31827621332354 L 605.8037971068471,301.5213845423318 L 607.2985655268967,302.1832273600204 L 608.1996175509506,302.31279263914337 L 608.6117266010212,301.75250605818877 L 608.9609715438175,301.5914215811561 L 611.1507374290923,301.10466071041253 L 611.720006679768,301.2062158005697 L 613.6478388748457,301.98362559900863 L 615.8410972480702,302.31979615983875 L 616.4138589866913,302.48787986079327 L 617.4546089743533,303.3878112151166 L 618.5163136193744,304.62385659298485 L 619.73867095295,305.7162934986619 L 623.4930542738699,306.6721410865262 L 624.3487043600702,306.65113383501307 L 626.0111104445732,305.5552317368033 L 626.6118117488821,305.2646180437296 L 629.5314995733903,304.66587423490824 L 631.2777243549574,304.6028478162694 L 632.4407100692113,305.03352541994 L 633.0449038614771,305.50621276308846 L 634.2847234996397,305.85984778418924 L 634.9587662399146,306.1889694021861 L 635.6153467431819,306.79818447105737 L 636.5513232412435,308.03057945265476 L 637.2602905231058,308.5452285681724 L 638.7096570728776,308.95834148547476 L 643.0961737517475,308.5452285681724 L 643.808633453973,308.72727903728827 L 645.6526468844047,309.9315837472373 L 647.7830411503506,310.5407184917802 L 648.4256518369923,310.85928372114944 L 649.3301962814093,311.87796850614274 L 651.4675753880927,314.8568005718549 L 654.8762061865799,317.3733401808815 L 655.5467565064843,317.5483347912382 L 656.9437363452545,317.7163285432173 L 657.6492111391636,317.87732169480216 L 659.6678470072003,319.06024387439993 L 668.0567109481325,327.6017535414457 L 669.2162041744372,329.46298944902264 L 669.6841924234699,331.7473913359995 L 669.7191168974705,338.0644414827171 L 669.886754494349,338.4106863795098 L 670.3198182693695,338.6135351680434 L 673.4211135073855,341.0336249978251 L 675.2651268702314,343.3311322421596 L 676.5643180601328,344.28924983258054 L 677.8285848436232,344.01300729923156 L 678.9531536635016,343.4779989249999 L 679.8751603449264,344.0304911313009 L 680.5177710315602,345.22635748420754 L 680.8460613169891,346.61448283206164 L 680.8460613045155,348.73107578038315 L 680.8460613169891,349.46046747262676 L 681.01369891386,350.98823998996863 L 681.537566294261,351.65596122579865 L 682.0614337422481,351.82725902525976 L 682.4805277006354,352.22228937179716 L 683.151078020544,353.08574501219573 L 685.9170980648104,355.11319836882836 L 686.245388350239,355.51867316777845 L 686.5876483847189,356.6896268638539 L 687.0556366337516,357.0146897866176 L 687.5166400420424,357.22091079082327 L 687.7261869536519,357.4690732280246 L 697.2954988458459,359.7478812938822 L 701.6540758914382,362.78137575908113 L 702.2408074467037,363.67249677756917 L 702.6948258790999,364.699875826451 L 702.9812067821996,365.8809712456943 L 703.078995363479,367.20703064949123 L 702.9323124915618,367.3957144448851 L 702.303671553975,367.8342253648288 L 702.1569886144791,367.90061292614354 L 702.2268376300708,368.3094176231613 L 702.5341731905419,368.99948195010455 L 702.6179920227664,369.28598538364116 L 703.078995363479,372.0548042843328 L 703.8613040137211,372.71684002963457 L 705.0557217816125,372.97536215248596 L 707.9404851321087,372.97885565130406 L 709.4142988947943,373.15877181774397 L 710.5668072803609,373.6129247823175 L 715.1628708708371,376.64859906832015 L 715.5749799209115,377.38564189996174 L 715.90327020634,378.62565263419265 L 716.7205033981651,379.55301022721716 L 717.1884916471944,379.8464061040584 L 717.8660268754189,382.60384977333223 L 718.5645168285897,385.33312572563506 L 720.0662700893737,389.18306725381586 L 720.6180771706313,393.07620947813393 L 721.1908389092599,394.4378304505091 L 723.8870099379317,399.04075315035 L 724.3200737129562,400.7930874235529 L 724.368968003598,404.772161483683 L 724.704243129757,406.122848647527 L 727.0860937572269,410.2461353776794 L 728.3643302897607,413.55244252967185 L 729.4888991096506,414.8330083984336 L 730.7671356421841,416.0036216835447 L 731.9196440277507,417.4341253120023 L 732.4574812247928,418.74769605968805 L 733.033081568,422.3657319939758 L 733.0163277416199,422.37072465696764 L 680.3257408891678,438.0690453234875 L 546.519519987122,429.9172834202693 L 510.2469386865415,427.87513945694445 L 509.85927679846435,426.83048051627105 L 509.3877960613554,426.82699248978366 L 508.9477474382164,427.10429220090714 L 508.54960817881715,427.1304524668767 L 507.9593841228935,426.5653871295254 L 507.34122061270546,425.7439339783589 L 506.8592625042704,424.868394653329 L 506.6601929353513,424.1358556222909 L 506.4611233056498,422.78585206092686 L 504.40057806908686,417.5144259525419 L 503.7300277022761,416.4415559557055 L 502.9581963427122,415.5064755214508 L 502.25621404427125,415.10522090709446 L 501.4634279420591,414.3707386238875 L 500.87669642427994,412.6853846594583 L 500.1572517997772,409.57267722768285 L 498.5437400803095,406.12988334831704 L 498.25037435181133,403.4424184526186 L 497.96748593385695,402.2207746891297 L 497.52743724993934,401.1334754603412 L 496.9686453079902,400.2660547929524 L 492.62753052329356,395.09598213335795 L 491.8522066863643,393.3468469279076 L 491.6217050034706,390.4855413867698 L 491.21308843352386,389.21978579014757 L 490.2386949668926,388.69251893429623 L 489.00586024154575,388.474276965912 L 488.1816421469166,387.8404941502203 L 487.6368200536594,386.8260674544609 L 487.2386807942596,385.46239185602906 L 486.77767748925163,382.3122793643181 L 486.36906085852627,380.9222229845198 L 485.6007219155527,380.3441797195713 L 485.14670350450155,380.09794068428016 L 485.02446776910045,379.5163901912481 L 484.9616036627165,378.8352818450379 L 484.67871524476215,378.2903849644472 L 482.58324547763766,376.2329681279007 L 482.0558855888802,375.03827940451043 L 481.7380727011432,373.8365599568351 L 481.2072203350165,372.9107863580269 L 480.0442346707881,372.54046947830636 L 479.1955694169281,372.14743991102273 L 478.5389888988087,371.2216179275698 L 477.5052238031597,369.2685702850958 L 475.947591296119,367.67879270428085 L 474.89985641255726,366.85417363906845 L 473.56224821708764,366.3300402435713 L 473.09076747997864,365.917715949624 L 472.1373287559916,364.86067375052215 L 471.63441602646986,364.5199667438609 L 470.4574605743285,364.0010367092528 L 470.0802759967985,363.7284640163288 L 469.8288196320358,363.1064303067196 L 469.57736326727644,361.6054615830189 L 469.1582693260076,360.9152367108475 L 468.4458095954578,360.50109449783423 L 466.78340361829834,360.13063353939947 L 466.1163457288529,359.7619157217605 L 465.1419523230005,359.05767016657796 L 462.89281476728354,358.0248646156787 L 458.31421334496173,354.2201411136757 L 457.8008232441136,353.9702050429241 L 456.0930153650669,353.5874318843834 L 455.50628390807054,353.5262576550855 L 454.9020901250127,353.38992603127343 L 454.4864886611131,353.0473466856948 L 452.64247519797334,350.414951726758 L 452.41197357585855,349.8800552181254 L 452.21290388537847,349.4168203669695 L 452.0417738922814,348.1529403330197 L 451.54933847330625,347.36976305638547 L 448.3118377238202,345.63201698357096 L 446.9253352706549,343.78402358633446 L 446.0661926454688,343.1545962230383 L 445.7204401819088,342.7716882046606 L 445.4165970213102,340.6507447967573 L 444.97654839817125,339.79917831972847 L 444.3653697211569,339.0087911534821 L 443.6948194151288,337.69376479841617 L 443.2338160493422,335.8872583008312 L 442.11273974885296,334.61057144494885 L 441.67269112571427,333.5559518455656 L 441.34789322246695,330.80292138530524 L 440.67734291643484,329.4403041838148 L 438.5679033613979,327.1959591564367 L 438.1173773669368,325.92939437486666 L 437.9113229040614,325.04416609576845 L 437.4084101745391,324.8867115859453 L 436.8007239748906,324.94444502480377 L 436.2698716087676,324.7100116616383 L 436.22446970688026,324.4248402805527 L 436.3432130256944,323.62529572084867 L 436.2698716087676,323.3646079786053 L 435.5120100371127,322.6875087850498 L 435.30595545267977,322.4408098799528 L 434.97766525439926,322.2221034149153 L 434.2686979404398,321.57997167305587 L 433.7972173248886,320.9045807388176 L 434.1953565235132,320.5913759394615 L 435.0195746181381,320.5266349059065 L 435.5120100371127,320.28166740114017 L 435.7460041365974,319.77947751376104 L 435.80886824298096,318.95180771115383 L 435.58884393141335,317.6743848810107 L 435.00211241363417,316.3899055530002 L 434.18487921296577,315.3976323220133 L 432.6516938043817,314.72209694392046 L 432.5783523874548,314.06229692835393 L 432.66915606966427,313.2922194603247 L 432.5783523874548,312.6883941583067 L 432.13830370353696,312.2543322693472 L 431.0661217215189,311.4369476881267 L 430.6924295605756,310.8383342530931 L 430.82165018993356,310.2764662682874 L 431.3490101394736,309.86337251626753 L 431.72619465622466,309.41351366977005 L 431.17438760822836,308.1566715942127 L 431.7052399743554,305.0825998989091 L 431.9357416572485,304.68343619151324 L 432.25006206761657,304.3928134506697 L 432.5783523874548,303.8570793250308 L 432.95204448761865,303.4106264639746 L 433.4200327473586,302.9641664471974 L 433.57020805858554,302.491436311438 L 433.00093874531035,301.9644204198955 L 433.00093874531035,301.5021790210899 L 433.51432890693764,301.43914550075743 L 433.8076946354358,301.33584037280156 L 434.0521661062386,301.21327436263283 L 434.4258582064027,301.08195297196664 L 433.13015937466827,300.677479440928 L 432.5783523874548,300.65996961417005 L 432.5783523874548,300.155682406779 L 433.51782132352434,299.53231482388736 L 433.0638028516982,299.08404182465006 L 432.12782639299377,298.64626834712533 L 431.6144362921457,298.0736501347079 L 431.6144362921457,296.180599064774 L 431.46775339750513,295.6937435540757 L 430.8391125159947,295.26817584782737 L 430.1301452020358,292.852998659225 L 426.07890366847147,288.081568379627 L 426.8437501340786,287.4561761431382 L 426.0369943047326,286.1790700377646 L 424.6889087379369,284.6829052446749 L 423.8123039082505,283.41092507081083 L 423.72499270341035,282.46303318093214 L 423.7913492263849,281.4415155108098 L 423.7319775973671,280.4900499151206 L 423.26748175421443,279.74882974056186 L 422.4537410309116,279.68925088540175 L 421.5945984057252,280.0484744101175 L 421.00786694872886,280.01342838803714 L 421.00088199399346,278.7797805387585 L 419.2337024859287,279.58761602365945 L 418.3082033985469,277.474224958313 L 418.08817902620063,274.61755240459905 L 418.4444088610861,273.18033766073466 L 419.5480229570753,272.824527350281 L 419.39784764584783,272.04453247459224 L 418.89493491632606,271.26276171284076 L 418.92636696951774,270.90692574075723 L 420.14173936880707,270.4669445321738 L 420.06490553528926,269.42743801676676 L 418.69586528662404,267.2010383074888 L 419.19179312218984,267.00117910617416 L 420.5398786889855,266.23153142797156 L 420.11729220957164,265.5354980151201 L 419.7994793218383,263.61561240391234 L 419.1568686524109,262.947564421207 L 419.61787201819436,261.09412375167335 L 419.9636244209749,260.74165694134246 L 420.42462778676145,260.4926476711537 L 420.8297520008964,260.1506944982757 L 421.2069365176475,258.3180993141593 L 421.55268904198977,257.3710615575387 L 421.6225380423299,256.3959271303016 L 421.00088199399346,255.11206084870471 L 420.7459331518649,255.04365634848173 L 419.89726789800426,255.16643353634984 L 419.61787201819436,255.11206084870471 L 419.5550079118107,254.82265594712814 L 419.68772095775927,253.95617570229788 L 419.61787201819436,253.67903617205874 L 417.6481304030622,252.36170546570835 L 417.3093628334593,252.05648212227197 L 417.089338521892,251.33550885628347 L 416.1044676839346,250.32856827602896 L 415.884443372367,249.71806923255266 L 416.1114526386701,248.84790743748627 L 416.48863709464223,248.1461424603553 L 416.5619785723517,247.58647099765116 L 415.884443372367,247.14609385482353 L 415.8739660010409,247.37417855746665 L 415.91587536478033,247.85314983185447 L 415.884443372367,248.0742104307912 L 415.46534943109816,248.0742104307912 L 415.49678148428984,247.24960951120448 L 415.6958510532127,246.38813602499482 L 416.0101715243593,245.55821651436395 L 416.3873561018893,244.82828592388012 L 417.6970247215365,243.13673116227753 L 418.21739965555855,242.13648471650114 L 418.1929524963234,241.11864923500966 L 417.7983057142897,240.5869016244168 L 417.33031745455,240.41842471459367 L 416.8448669903066,240.36753046592537 L 416.3873561018893,240.19203219613837 L 413.69118502907685,237.67525172107395 L 413.1323930871238,236.93982674588065 L 412.65392751684084,236.0183208068593 L 413.4991002933319,235.35832614763657 L 414.18362044805565,234.61054514014873 L 414.4630163886405,233.7398609849341 L 414.0788469171546,232.7287055092811 L 413.57593418763224,233.19215682464198 L 413.20573456483373,232.09144575192144 L 413.3000307244127,229.73361745820335 L 413.1568402463631,228.55374101681736 L 412.8599820404954,227.98836354081408 L 412.046241256414,227.19821788323898 L 411.7319208460463,226.65563660568904 L 411.6620718457061,226.23771784315966 L 411.7423981565935,225.30527681537546 L 411.7319208460463,224.79953126792896 L 411.4804644205081,223.7423488269183 L 410.6946632730314,222.35670317144954 L 410.34891074869336,221.55056891854386 L 410.209212808788,220.38434924956712 L 410.3908202339855,219.28833277207247 L 410.78197453865386,218.38373058951763 L 411.2709174194839,217.79528186390732 L 411.69001142153195,217.62137938556128 L 412.8006104114777,217.4439623480181 L 413.1568402463631,217.33153906188616 L 414.3547504411527,216.0913347046581 L 414.501433335789,215.98066185366966 L 414.60620680591177,215.60120807570524 L 414.7878142311092,214.47159510210236 L 414.96243664079725,214.0815764645914 L 415.3326363243707,213.82858801630204 L 416.2930599423103,213.5123486971891 L 416.80645010393704,213.1961052166012 L 417.550341826896,212.39317944158867 L 417.8297377674851,211.6763214793059 L 418.1929524963234,209.43951650010828 L 418.83556328730833,208.19890436056323 L 419.75756995809945,207.525853990091 L 420.7284709473646,206.98458819241898 L 421.5037947235158,206.1463048690281 L 421.03231404718514,205.64718712819015 L 421.1964592071043,205.26229690630655 L 421.6155531483731,204.8668552804594 L 421.9263811421541,204.33080156313738 L 421.9263811421541,199.89778689210715 L 421.76922093697044,198.88872886077442 L 421.3431420409662,198.52130842137694 L 420.7494256292302,198.31562082593993 L 420.07887532320206,197.78469239040268 L 419.2406874406644,196.08106896255487 L 420.0020414289059,195.41294751811708 L 421.25932331348764,194.9399763363471 L 421.9263811421541,193.81465316322704 L 422.2546714012096,192.28482973295792 L 423.0265028215524,191.3598531536946 L 423.93453964365585,190.66873438605256 L 424.6504918515673,189.84393729499956 L 425.40835336243936,187.6419893917119 L 426.00556225154065,186.88216313669054 L 427.23141208293464,186.59194506117507 L 428.17088095822606,186.25071431447265 L 428.92874252987696,185.45390331461388 L 429.5958004801007,184.52689412601757 L 430.2733356800854,183.8021474227389 L 431.4048893519004,183.24801745724443 L 432.6586786983382,182.9894188242625 L 440.9287992811978,183.33773463485716 L 449.5621347144496,185.3870614191574 L 452.4643602501409,185.7036793047426 L 457.83225529730555,185.7036793047426 L 458.8764977035018,185.48556521340532 L 459.7356403286882,185.0387767039065 L 460.717018689276,184.5216170074321 L 462.1524154609113,184.7327039888867 L 465.1524296335477,185.75644845725466 L 473.31079185232437,190.309977640316 L 484.00816493872975,193.09723123030324 L 487.0396111645581,193.44891138524167 L 488.4750079969763,193.88850414036008 L 489.08269419662105,194.74480696018728 L 489.6205313959257,195.28107923647244 L 490.85685859864236,195.81558097373536 L 492.24685352917265,196.22875646399126 L 493.23521672293833,196.3922664727728 L 496.2352308955748,195.99667579063828 L 499.32255633382994,194.94349291427767 L 499.587982486502,194.79931394728158 L 500.0804179054811,194.82392988526993 L 500.45061758905825,195.0032741684789 L 501.2713432670925,195.75931819272662 L 523.7208090958638,225.67931106417814 L 525.9978862274072,227.67757593763503 L 528.7359667247374,228.7539026747242 L 531.3273643274271,228.695961294979 L 533.5066528828039,228.14814544306387 L 542.5136803554451,223.81786336577338 L 550.7593537790619,218.76665368943242 L 552.4042975517253,218.00080131341772 L 553.9549451648091,217.5686813587686 L 555.2471515191777,217.6003001641635 L 556.5882521920166,218.48034011464418 L 557.9398301753993,220.1893883704773 L 560.3426354589346,224.98918705716778 L 561.5265758658106,228.0041661974657 L 573.5371099884544,249.01632815970189 L 577.4381761500084,253.73691996244216 L 583.2146877671232,258.67059903470965 L 590.3148377310163,262.0620675455743 L 591.9842286629146,263.54197017528315 L 593.0110088646071,265.7160827865299 L 593.3358066462969,269.03301080506714 L 593.084350281534,271.8008889347436 L 592.5290508169503,274.60703651899604 L 591.624506350663,277.1482642815365 L 589.5395139548611,281.5536564819909 L 589.0889880211795,283.463487348248 L 589.2880575901021,285.3416483906236 L 590.922524052218,286.9078512095452 L 592.424277286049,287.91339708300114 L 600.4464339815117,291.3799693975917 L 600.5197754592211,291.4079944507289 L 600.543650688974,291.4171175902801" fill="none" stroke="#000000" stroke-width="0.7974310133076604"/>
	<path d="M 449.93577223651266,170.7509505714386 L 450.87873364288714,170.1965019419942 L 451.6750121097668,169.45193514199994 L 452.97769585520314,168.95906412029927 L 453.8473157580333,168.74254945490458 L 461.48083018748406,168.53191889316517 L 460.717018689276,184.5216170074321 L 459.7356403286882,185.0387767039065 L 458.8764977035018,185.48556521340532 L 457.83225529730555,185.7036793047426 L 452.4643602501409,185.7036793047426 L 449.5621347144496,185.3870614191574 L 440.9287992811978,183.33773463485716 L 432.6586786983382,182.9894188242625 L 431.4048893519004,183.24801745724443 L 430.2733356800854,183.8021474227389 L 429.5958004801007,184.52689412601757 L 428.92874252987696,185.45390331461388 L 428.17088095822606,186.25071431447265 L 427.23141208293464,186.59194506117507 L 426.00556225154065,186.88216313669054 L 425.40835336243936,187.6419893917119 L 424.6504918515673,189.84393729499956 L 423.93453964365585,190.66873438605256 L 423.0265028215524,191.3598531536946 L 422.2546714012096,192.28482973295792 L 421.9263811421541,193.81465316322704 L 421.25932331348764,194.9399763363471 L 420.0020414289059,195.41294751811708 L 419.2406874406644,196.08106896255487 L 420.07887532320206,197.78469239040268 L 420.7494256292302,198.31562082593993 L 421.3431420409662,198.52130842137694 L 421.76922093697044,198.88872886077442 L 421.9263811421541,199.89778689210715 L 421.9263811421541,204.33080156313738 L 421.6155531483731,204.8668552804594 L 421.1964592071043,205.26229690630655 L 421.03231404718514,205.64718712819015 L 421.5037947235158,206.1463048690281 L 420.7284709473646,206.98458819241898 L 419.75756995809945,207.525853990091 L 418.83556328730833,208.19890436056323 L 418.1929524963234,209.43951650010828 L 417.8297377674851,211.6763214793059 L 417.550341826896,212.39317944158867 L 416.80645010393704,213.1961052166012 L 416.2930599423103,213.5123486971891 L 415.3326363243707,213.82858801630204 L 414.96243664079725,214.0815764645914 L 414.7878142311092,214.47159510210236 L 414.60620680591177,215.60120807570524 L 414.501433335789,215.98066185366966 L 414.3547504411527,216.0913347046581 L 413.1568402463631,217.33153906188616 L 412.8006104114777,217.4439623480181 L 411.69001142153195,217.62137938556128 L 411.2709174194839,217.79528186390732 L 410.78197453865386,218.38373058951763 L 410.3908202339855,219.28833277207247 L 410.209212808788,220.38434924956712 L 410.34891074869336,221.55056891854386 L 410.6946632730314,222.35670317144954 L 411.4804644205081,223.7423488269183 L 411.7319208460463,224.79953126792896 L 411.7423981565935,225.30527681537546 L 411.6620718457061,226.23771784315966 L 411.7319208460463,226.65563660568904 L 412.046241256414,227.19821788323898 L 412.8599820404954,227.98836354081408 L 413.1568402463631,228.55374101681736 L 413.3000307244127,229.73361745820335 L 413.20573456483373,232.09144575192144 L 413.57593418763224,233.19215682464198 L 414.0788469171546,232.7287055092811 L 414.4630163886405,233.7398609849341 L 414.18362044805565,234.61054514014873 L 413.4991002933319,235.35832614763657 L 412.65392751684084,236.0183208068593 L 413.1323930871238,236.93982674588065 L 413.69118502907685,237.67525172107395 L 416.3873561018893,240.19203219613837 L 416.8448669903066,240.36753046592537 L 417.33031745455,240.41842471459367 L 417.7983057142897,240.5869016244168 L 418.1929524963234,241.11864923500966 L 418.21739965555855,242.13648471650114 L 417.6970247215365,243.13673116227753 L 416.3873561018893,244.82828592388012 L 416.0101715243593,245.55821651436395 L 415.6958510532127,246.38813602499482 L 415.49678148428984,247.24960951120448 L 415.46534943109816,248.0742104307912 L 415.884443372367,248.0742104307912 L 415.91587536478033,247.85314983185447 L 415.8739660010409,247.37417855746665 L 415.884443372367,247.14609385482353 L 416.5619785723517,247.58647099765116 L 416.48863709464223,248.1461424603553 L 416.1114526386701,248.84790743748627 L 415.884443372367,249.71806923255266 L 416.1044676839346,250.32856827602896 L 417.089338521892,251.33550885628347 L 417.3093628334593,252.05648212227197 L 417.6481304030622,252.36170546570835 L 419.61787201819436,253.67903617205874 L 419.68772095775927,253.95617570229788 L 419.5550079118107,254.82265594712814 L 419.61787201819436,255.11206084870471 L 419.89726789800426,255.16643353634984 L 420.7459331518649,255.04365634848173 L 421.00088199399346,255.11206084870471 L 421.6225380423299,256.3959271303016 L 421.55268904198977,257.3710615575387 L 421.2069365176475,258.3180993141593 L 420.8297520008964,260.1506944982757 L 420.42462778676145,260.4926476711537 L 419.9636244209749,260.74165694134246 L 419.61787201819436,261.09412375167335 L 419.1568686524109,262.947564421207 L 419.7994793218383,263.61561240391234 L 420.11729220957164,265.5354980151201 L 420.5398786889855,266.23153142797156 L 419.19179312218984,267.00117910617416 L 418.69586528662404,267.2010383074888 L 420.06490553528926,269.42743801676676 L 420.14173936880707,270.4669445321738 L 418.92636696951774,270.90692574075723 L 418.89493491632606,271.26276171284076 L 419.39784764584783,272.04453247459224 L 419.5480229570753,272.824527350281 L 418.4444088610861,273.18033766073466 L 418.08817902620063,274.61755240459905 L 418.3082033985469,277.474224958313 L 419.2337024859287,279.58761602365945 L 421.00088199399346,278.7797805387585 L 421.00786694872886,280.01342838803714 L 421.5945984057252,280.0484744101175 L 422.4537410309116,279.68925088540175 L 423.26748175421443,279.74882974056186 L 423.7319775973671,280.4900499151206 L 423.7913492263849,281.4415155108098 L 423.72499270341035,282.46303318093214 L 423.8123039082505,283.41092507081083 L 424.6889087379369,284.6829052446749 L 426.0369943047326,286.1790700377646 L 426.8437501340786,287.4561761431382 L 426.07890366847147,288.081568379627 L 430.1301452020358,292.852998659225 L 430.8391125159947,295.26817584782737 L 431.46775339750513,295.6937435540757 L 431.6144362921457,296.180599064774 L 431.6144362921457,298.0736501347079 L 432.12782639299377,298.64626834712533 L 433.0638028516982,299.08404182465006 L 433.51782132352434,299.53231482388736 L 432.5783523874548,300.155682406779 L 432.5783523874548,300.65996961417005 L 433.13015937466827,300.677479440928 L 434.4258582064027,301.08195297196664 L 434.0521661062386,301.21327436263283 L 433.8076946354358,301.33584037280156 L 433.51432890693764,301.43914550075743 L 433.00093874531035,301.5021790210899 L 433.00093874531035,301.9644204198955 L 433.57020805858554,302.491436311438 L 433.4200327473586,302.9641664471974 L 432.95204448761865,303.4106264639746 L 432.5783523874548,303.8570793250308 L 432.25006206761657,304.3928134506697 L 431.9357416572485,304.68343619151324 L 431.7052399743554,305.0825998989091 L 431.17438760822836,308.1566715942127 L 431.72619465622466,309.41351366977005 L 431.3490101394736,309.86337251626753 L 430.82165018993356,310.2764662682874 L 430.6924295605756,310.8383342530931 L 431.0661217215189,311.4369476881267 L 432.13830370353696,312.2543322693472 L 432.5783523874548,312.6883941583067 L 432.66915606966427,313.2922194603247 L 432.5783523874548,314.06229692835393 L 432.6516938043817,314.72209694392046 L 434.18487921296577,315.3976323220133 L 435.00211241363417,316.3899055530002 L 435.58884393141335,317.6743848810107 L 435.80886824298096,318.95180771115383 L 435.7460041365974,319.77947751376104 L 435.5120100371127,320.28166740114017 L 435.0195746181381,320.5266349059065 L 434.1953565235132,320.5913759394615 L 433.7972173248886,320.9045807388176 L 434.2686979404398,321.57997167305587 L 434.97766525439926,322.2221034149153 L 435.30595545267977,322.4408098799528 L 435.5120100371127,322.6875087850498 L 436.2698716087676,323.3646079786053 L 436.3432130256944,323.62529572084867 L 436.22446970688026,324.4248402805527 L 436.2698716087676,324.7100116616383 L 436.8007239748906,324.94444502480377 L 437.4084101745391,324.8867115859453 L 437.9113229040614,325.04416609576845 L 438.1173773669368,325.92939437486666 L 438.5679033613979,327.1959591564367 L 440.67734291643484,329.4403041838148 L 441.34789322246695,330.80292138530524 L 441.67269112571427,333.5559518455656 L 442.11273974885296,334.61057144494885 L 443.2338160493422,335.8872583008312 L 443.6948194151288,337.69376479841617 L 444.3653697211569,339.0087911534821 L 444.97654839817125,339.79917831972847 L 445.4165970213102,340.6507447967573 L 445.7204401819088,342.7716882046606 L 446.0661926454688,343.1545962230383 L 446.9253352706549,343.78402358633446 L 448.3118377238202,345.63201698357096 L 451.54933847330625,347.36976305638547 L 452.0417738922814,348.1529403330197 L 452.21290388537847,349.4168203669695 L 452.41197357585855,349.8800552181254 L 419.74360017018614,349.0864334840087 L 411.80526226297684,346.58306933251055 L 390.2638331955258,302.30059117024234 L 389.4989867906976,301.36560625491904 L 388.3883878007521,300.8193085237024 L 387.2428643410238,300.56191449131205 L 376.91569093819186,299.74594230691844 L 374.4604988588169,260.19804214317764 L 373.8318579165239,258.8144034742552 L 372.7107816768133,257.3447544921332 L 353.40102783901864,244.08078708513463 L 336.1308647382605,217.73204472143905 L 332.3240946754992,216.46551069012042 L 318.4800245218209,217.58449076663393 L 319.216931350823,215.70661247796204 L 320.8618751234864,208.37287509203264 L 321.96199674211005,206.2886569828864 L 323.3380218847315,204.9529741994147 L 326.5021812172831,203.9300715411093 L 328.01441188321905,203.24811189994807 L 329.4078992911191,202.09857863089258 L 329.64887822377744,201.55015777277697 L 329.6803102769694,201.25836453541982 L 329.02023740304196,200.84176188994402 L 328.1191853533418,199.9610712702739 L 327.5848405706278,199.52159257006582 L 326.37645300451214,198.8465373079227 L 325.74781206221917,198.5670165922784 L 325.06678438486495,198.47208423662155 L 324.511484920282,198.21892947170207 L 323.9666627662456,198.0712545819189 L 323.4742274080457,198.2136554041749 L 322.9468675192848,198.3138628515995 L 322.3915680547013,198.47208423662155 L 321.9724740526535,198.50900240016568 L 321.5848121645798,198.44571404927976 L 321.17619559463304,198.14509211244052 L 320.57898670553146,197.9341270877705 L 320.0865513473358,197.89720801943224 L 319.216931350823,197.7003052377348 L 319.14632255340877,197.6653204220463 L 318.31156969795836,195.984429488544 L 318.03331876235643,193.55626228151064 L 318.1260690967555,190.66080887647036 L 319.5173237747768,188.04524982356756 L 323.8765885452357,183.74761616824915 L 328.98875071229764,179.79446258116917 L 330.34032868078987,178.694792328498 L 338.6383888811828,174.30261849649102 L 346.7548417356478,171.34410748322048 L 362.34862917830804,167.90287535870436 L 368.041322022982,162.47327745936252 L 371.18801906367855,157.49145816420338 L 371.2927925532781,147.6953460665258 L 373.34984538327325,146.08837102745395 L 377.0727965829618,143.81690619378875 L 395.10780627241735,135.06362522153646 L 398.1602071522056,133.21062966964317 L 414.0962545955538,143.39131040346186 L 430.03230203890195,153.56719747808555 L 447.9206288564328,169.66844296351033 L 449.0032882264081,170.44996586326275 L 449.93577223651266,170.7509505714386" fill="none" stroke="#000000" stroke-width="0.7974310133076604"/>
	<path d="M 255.0256534517656,179.2279190651941 L 261.9193785500942,193.55626228151064 L 265.1656395105478,197.19841842068362 L 292.1123646471036,197.43149333751316 L 319.05908978365943,197.66456593567625 L 319.14632255340877,197.6653204220463 L 319.216931350823,197.7003052377348 L 320.0865513473358,197.89720801943224 L 320.57898670553146,197.9341270877705 L 321.17619559463304,198.14509211244052 L 321.5848121645798,198.44571404927976 L 321.9724740526535,198.50900240016568 L 322.3915680547013,198.47208423662155 L 322.9468675192848,198.3138628515995 L 323.4742274080457,198.2136554041749 L 323.9666627662456,198.0712545819189 L 324.511484920282,198.21892947170207 L 325.06678438486495,198.47208423662155 L 325.74781206221917,198.5670165922784 L 326.37645300451214,198.8465373079227 L 327.5848405706278,199.52159257006582 L 328.1191853533418,199.9610712702739 L 329.02023740304196,200.84176188994402 L 329.6803102769694,201.25836453541982 L 329.64887822377744,201.55015777277697 L 329.4078992911191,202.09857863089258 L 328.01441188321905,203.24811189994807 L 326.5021812172831,203.9300715411093 L 323.3380218847315,204.9529741994147 L 321.96199674211005,206.2886569828864 L 320.8618751234864,208.37287509203264 L 319.216931350823,215.70661247796204 L 318.4800245218209,217.58449076663393 L 289.2028196542279,219.71515268362054 L 289.05613675959137,219.7994619787616 L 288.0992055582387,220.25261904275192 L 287.42865525220685,220.37908001588167 L 286.77905962804437,220.3632724302342 L 282.32269394112393,219.84161645539967 L 281.6311889532262,219.6940754057816 L 270.09213550691726,219.23036894981692 L 262.3738219720539,219.94700244905408 L 259.48207368613066,220.6179488998262 L 257.5507490789259,221.4978794847172 L 256.16773904234793,222.5569153927083 L 254.78123652840404,224.44655682583613 L 253.39822649182972,228.42205492321276 L 252.50765187423025,238.773961090589 L 251.61707725663078,241.7258456841616 L 249.7067073312953,245.37749049668952 L 247.68457904188082,248.1531602010038 L 246.245689792876,251.1285103641498 L 241.8521882123392,270.5966609172042 L 232.25493674455714,273.1277551075583 L 191.6621952803671,292.2785091208773 L 184.26867946641894,297.29087777540855 L 180.0532928944932,299.5305637576993 L 178.28960580301936,300.20821274138586 L 176.6132300379429,300.5969341957767 L 174.7342921050205,300.687985343903 L 172.43975270819854,300.3552972501433 L 169.71214964296962,299.3151834842823 L 147.4896929589433,284.86160844272047 L 143.52576263022277,281.2890729628238 L 139.4256268389667,275.4903596844089 L 136.99138944146102,267.8689780377393 L 135.5455152984994,258.5653757133404 L 135.2940589337364,249.128608063493 L 131.69683593278125,226.17450261038096 L 131.9273376156747,181.35155989979296 L 134.18346000456958,158.0850231170879 L 133.86559709579657,152.46716829739765 L 133.88654725294361,152.48913597909012 L 139.07981972736707,154.4567345340735 L 151.8324994120302,169.39912807943597 L 164.5851790966984,184.33158203497374 L 167.56074605257527,186.27000765667978 L 169.24061437408028,187.0404073735405 L 173.15215789560094,187.35700252895649 L 173.87509499409794,187.29368383195254 L 199.96718578352102,178.4502183798082 L 217.46086578798517,178.04376243715907 L 220.56216095841293,178.58922112010788 L 230.2222765235679,178.55051156341608 L 235.7124072973647,179.24375432670828 L 236.10356162248183,179.20152696091668 L 237.51101878993808,178.82147700973212 L 237.8882033660005,178.7827678479974 L 246.5459859054536,180.0513378712323 L 253.2200570508776,179.6976936520785 L 254.33065598653877,179.50239532817736 L 255.0256534517656,179.2279190651941" fill="none" stroke="#000000" stroke-width="0.7974310133076604"/>
	<path d="M 376.91569093819186,299.74594230691844 L 387.2428643410238,300.56191449131205 L 388.3883878007521,300.8193085237024 L 389.4989867906976,301.36560625491904 L 390.2638331955258,302.30059117024234 L 411.80526226297684,346.58306933251055 L 419.74360017018614,349.0864334840087 L 452.41197357585855,349.8800552181254 L 452.64247519797334,350.414951726758 L 454.4864886611131,353.0473466856948 L 454.9020901250127,353.38992603127343 L 455.50628390807054,353.5262576550855 L 456.0930153650669,353.5874318843834 L 457.8008232441136,353.9702050429241 L 458.31421334496173,354.2201411136757 L 462.89281476728354,358.0248646156787 L 465.1419523230005,359.05767016657796 L 466.1163457288529,359.7619157217605 L 466.78340361829834,360.13063353939947 L 468.4458095954578,360.50109449783423 L 469.1582693260076,360.9152367108475 L 469.57736326727644,361.6054615830189 L 469.8288196320358,363.1064303067196 L 470.0802759967985,363.7284640163288 L 470.4574605743285,364.0010367092528 L 471.63441602646986,364.5199667438609 L 472.1373287559916,364.86067375052215 L 473.09076747997864,365.917715949624 L 473.56224821708764,366.3300402435713 L 474.89985641255726,366.85417363906845 L 475.947591296119,367.67879270428085 L 477.5052238031597,369.2685702850958 L 478.5389888988087,371.2216179275698 L 479.1955694169281,372.14743991102273 L 480.0442346707881,372.54046947830636 L 481.2072203350165,372.9107863580269 L 481.7380727011432,373.8365599568351 L 482.0558855888802,375.03827940451043 L 482.58324547763766,376.2329681279007 L 484.67871524476215,378.2903849644472 L 484.9616036627165,378.8352818450379 L 485.02446776910045,379.5163901912481 L 485.14670350450155,380.09794068428016 L 485.6007219155527,380.3441797195713 L 486.36906085852627,380.9222229845198 L 486.77767748925163,382.3122793643181 L 487.2386807942596,385.46239185602906 L 487.6368200536594,386.8260674544609 L 488.1816421469166,387.8404941502203 L 489.00586024154575,388.474276965912 L 490.2386949668926,388.69251893429623 L 491.21308843352386,389.21978579014757 L 491.6217050034706,390.4855413867698 L 491.8522066863643,393.3468469279076 L 492.62753052329356,395.09598213335795 L 496.9686453079902,400.2660547929524 L 497.52743724993934,401.1334754603412 L 497.96748593385695,402.2207746891297 L 498.25037435181133,403.4424184526186 L 498.5437400803095,406.12988334831704 L 500.1572517997772,409.57267722768285 L 500.87669642427994,412.6853846594583 L 501.4634279420591,414.3707386238875 L 502.25621404427125,415.10522090709446 L 502.9581963427122,415.5064755214508 L 503.7300277022761,416.4415559557055 L 504.40057806908686,417.5144259525419 L 506.4611233056498,422.78585206092686 L 506.6601929353513,424.1358556222909 L 506.8592625042704,424.868394653329 L 507.34122061270546,425.7439339783589 L 507.9593841228935,426.5653871295254 L 508.54960817881715,427.1304524668767 L 508.9477474382164,427.10429220090714 L 509.3877960613554,426.82699248978366 L 509.85927679846435,426.83048051627105 L 510.2469386865415,427.87513945694445 L 506.8068758299881,430.9008205763454 L 504.3202516974206,430.6340125488516 L 499.8219766467653,428.2361415682376 L 476.88706023219277,424.0730658583444 L 468.6553565357024,420.52177994535197 L 456.08253805452364,409.9024557776977 L 452.64247519797334,409.7925299175938 L 447.6901816754835,412.33818478306745 L 441.6517363830661,413.54377366853305 L 426.69706730021727,414.7911923286719 L 423.74943980186714,411.2494556529918 L 416.8274047250277,397.38787651360184 L 414.55382007085024,394.5112014597894 L 412.2138788329235,392.2418076976406 L 410.9146875845985,391.2711589286121 L 409.7482094430048,390.72646606567554 L 406.7516876869551,391.10356207220457 L 393.0647777992396,391.3444823291471 L 392.03799759754713,392.04279205767824 L 391.23124176820056,393.341609818815 L 391.0182023505897,399.1856754021374 L 391.74463186904893,403.4947736421326 L 392.51995564519956,406.1246482479005 L 392.49900096333397,409.18007967157166 L 391.3010907685444,415.79607399294133 L 390.0752409371504,418.88730376708963 L 388.943687326114,420.7258662020028 L 386.3837217158371,423.1189970989375 L 381.6444676109623,429.2354187539571 L 380.2579652185759,431.77621642317246 L 378.09963134506864,438.0167402151851 L 377.3033528262693,441.2263969174886 L 373.9366313866464,443.18413691284354 L 369.207854713876,443.29396259325085 L 339.62331426909316,440.3930629457654 L 337.2624183492972,439.7288233987935 L 334.95740158114916,438.4090268512316 L 333.90617428099983,437.0264162523857 L 332.6803245103847,436.1005792796686 L 331.29731441302783,435.2723631217133 L 329.4078992911191,434.4772582236965 L 327.10288252297164,433.81291430828094 L 325.30776343908474,432.1999564392293 L 320.3589623331858,425.72300501141183 L 318.5533659387517,422.8312018262994 L 314.5370489357488,418.56284179494384 L 311.54751207365535,416.8968754683454 L 309.7244534139429,414.86446588496347 L 308.61385442399745,411.3855486209079 L 307.3426027514985,408.85552909724635 L 304.68135620924727,404.84725555880766 L 304.1225642672944,403.2225257686384 L 303.9025399557268,401.16838124000196 L 304.35306595018756,398.7405980458724 L 303.68251558337715,394.8306500640883 L 302.82337301897303,392.69220717535967 L 303.88158527385724,390.354603407617 L 303.3996271654261,387.6484363714085 L 304.10160958542485,385.22666763370376 L 303.68251558337715,382.26862266204654 L 305.3414292047322,373.1972550060629 L 310.8769617676272,377.4660365763889 L 316.3007359664435,379.6945239044484 L 318.62670735568224,380.05078837116463 L 320.8723524948085,379.98267922665804 L 323.2821426723007,379.62117475609824 L 325.56969711439126,379.05533376577165 L 327.8572516780353,378.13145501710153 L 329.91081202064146,376.8949186242146 L 331.2868371024846,375.06971915001805 L 332.04120619676934,373.56407087695 L 340.3567286815086,346.4467070395504 L 341.57210114157687,343.9466235485466 L 345.9970347753056,337.52588495572934 L 368.1671047242704,313.0506908564563 L 376.91569093819186,299.74594230691844" fill="none" stroke="#000000" stroke-width="0.7974310133076604"/>
	<path d="M 287.42865525220685,220.37908001588167 L 288.0992055582387,220.25261904275192 L 289.05613675959137,219.7994619787616 L 289.2028196542279,219.71515268362054 L 318.4800245218209,217.58449076663393 L 332.3240946754992,216.46551069012042 L 336.1308647382605,217.73204472143905 L 353.40102783901864,244.08078708513463 L 372.7107816768133,257.3447544921332 L 373.8318579165239,258.8144034742552 L 374.4604988588169,260.19804214317764 L 376.91569093819186,299.74594230691844 L 368.1671047242704,313.0506908564563 L 345.9970347753056,337.52588495572934 L 341.57210114157687,343.9466235485466 L 340.3567286815086,346.4467070395504 L 332.04120619676934,373.56407087695 L 331.2868371024846,375.06971915001805 L 329.91081202064146,376.8949186242146 L 327.8572516780353,378.13145501710153 L 325.56969711439126,379.05533376577165 L 323.2821426723007,379.62117475609824 L 320.8723524948085,379.98267922665804 L 318.62670735568224,380.05078837116463 L 316.3007359664435,379.6945239044484 L 310.8769617676272,377.4660365763889 L 305.3414292047322,373.1972550060629 L 302.6243033892716,357.710297842414 L 302.00613981830435,349.3014476328457 L 303.2215122783726,338.6660504710618 L 303.3786725443352,327.7155149058509 L 303.0538746410839,325.02492167401937 L 302.27855086493327,323.38210389025494 L 299.61381190609137,321.28427132329784 L 299.07946712337764,319.9824542809188 L 299.3623555413323,318.6105838894186 L 300.0957698929652,316.89215432491216 L 300.21102073441403,315.11061918222424 L 299.25758201043095,313.56524934414017 L 297.0573387731843,312.33659450409095 L 294.2354394876012,311.3266776531107 L 285.68941538074705,306.665193394035 L 280.05609418090694,302.3321069790035 L 275.21206660590934,299.336196250771 L 271.89773196212997,297.92130020400674 L 261.67183955205127,296.1700914602797 L 260.36217099318264,295.6394534398877 L 259.37730021600817,294.91966080237 L 257.8022054436886,293.3994531585419 L 253.57634143965794,288.10258970363054 L 244.82077033178027,273.7482220475586 L 241.8521882123392,270.5966609172042 L 246.245689792876,251.1285103641498 L 247.68457904188082,248.1531602010038 L 249.7067073312953,245.37749049668952 L 251.61707725663078,241.7258456841616 L 252.50765187423025,238.773961090589 L 253.39822649182972,228.42205492321276 L 254.78123652840404,224.44655682583613 L 256.16773904234793,222.5569153927083 L 257.5507490789259,221.4978794847172 L 259.48207368613066,220.6179488998262 L 262.3738219720539,219.94700244905408 L 270.09213550691726,219.23036894981692 L 281.6311889532262,219.6940754057816 L 282.32269394112393,219.84161645539967 L 286.77905962804437,220.3632724302342 L 287.42865525220685,220.37908001588167" fill="none" stroke="#000000" stroke-width="0.7974310133076604"/>
</svg>
