<?xml version="1.0" ?>
<svg xmlns="http://www.w3.org/2000/svg" xmlns:ev="http://www.w3.org/2001/xml-events" xmlns:xlink="http://www.w3.org/1999/xlink" baseProfile="full" height="600px" version="1.1" viewBox="-81.03884622553333 -208.80809133220123 962.0776924510666 2495.308633731081" width="232px">
	<defs/>
	<path d="M 25.76846531004368,19.721630299439365 L 18.215090381153576,17.788280590693834 L 9.866065094384746,13.158856020795092 L 3.055297604113976,6.875011652324527 L 0.0,0.0 L 20.958892181439342,4.291440994877039 L 42.28616872641477,8.658152827830989 L 92.666754674302,18.94829440420308 L 186.2670729388018,38.054683603947474 L 222.07832625894912,45.38100183415997 L 267.99628651733155,54.7743144101192 L 268.88741495097617,55.364882087018536 L 269.43906623800535,56.30978428734867 L 269.65123955728984,57.61975039996038 L 269.0995886808487,59.46656291613631 L 268.8025458696338,61.1952403337483 L 268.2084602472041,62.891682228741686 L 266.7656809370716,64.54515371749004 L 273.3854922757639,66.20933915611337 L 268.4206335664536,83.8482990020501 L 319.72417452072636,65.84429375923631 L 345.4820312469229,60.87312861752897 L 384.9887280127091,60.110793393072264 L 438.32913389950915,59.12297231403839 L 427.8053304478824,84.70709991987206 L 426.6171596135993,92.9620118479737 L 427.5931571285862,97.43810869360559 L 431.0303674464217,105.87462209196757 L 431.6244526582752,110.37171097974225 L 425.2168146388673,122.61712411552061 L 424.4105552865766,127.05994236084999 L 423.7740349181934,136.54600242446517 L 422.5009945919566,140.8166368412983 L 417.1966583254546,148.4561965760491 L 394.87601109596426,169.72001073264045 L 388.9775892070325,183.60067333425096 L 392.24506013039604,220.997822336164 L 391.94801731918113,237.22087123233774 L 385.92229160291856,260.3348377042927 L 380.19360787670644,303.05669994585304 L 380.53308584445114,312.5937449860014 L 383.8429911032152,318.84066061694244 L 414.905184917078,339.54010022768017 L 453.9450998877653,365.5168356043248 L 477.5815537819736,381.2720660409042 L 470.24035265347413,392.5274540173076 L 468.07618358163455,394.16588290587623 L 465.06332022757107,395.9649189495592 L 462.58089103068625,395.9970442480455 L 451.6327409567576,394.2622604788544 L 448.38648679512164,394.10163139950396 L 444.2278876555612,394.42288973319 L 441.6818059167127,395.9649189495592 L 436.8442511298272,400.6872701584266 L 434.68008205798753,401.1691332464106 L 432.77052093847294,400.55877315911096 L 429.5879189495339,398.0851795191325 L 427.423749877671,397.2820545494796 L 418.23663943311067,396.4789242671948 L 415.3722979384601,397.506929949426 L 407.73405346040136,401.7152423498925 L 401.17789407213877,406.1911106843065 L 398.95007282757894,406.35172490214336 L 397.3375543191371,405.4201585015072 L 396.3191221405476,403.62125302590727 L 395.4279931996224,401.6509945577479 L 394.3459088483125,399.94841022084006 L 392.3090437526237,398.79192501928054 L 389.6993105795648,397.8924299470488 L 377.1598591419467,397.0893037919077 L 372.68299950807443,398.8882991771144 L 370.7734383885597,400.5908973276032 L 370.6461340431423,402.4862163742113 L 371.34630683519646,404.681325311424 L 372.42839155574956,410.39914327274056 L 371.40995863865027,415.4850080535648 L 369.5003975191354,419.62850363260657 L 357.4065109212,436.5009233214368 L 353.46008470601976,444.54025667099955 L 351.84756619755467,449.22874920315724 L 350.70182967354776,454.37733629390056 L 350.4472217211996,467.03922618375674 L 350.76548184624477,471.0205684996796 L 350.70182967354776,472.6901274934302 L 350.06530942345734,475.0124929108423 L 348.85592072673006,477.6451709435941 L 346.6280994821935,481.04831234390525 L 345.5460147616403,484.01261297329063 L 344.33662606491316,489.37386976602386 L 343.1272377374526,492.1988767243549 L 342.42706531464165,494.7670128404261 L 342.2361091657706,497.2173968815053 L 342.6180210942695,499.3681335060332 L 347.5192280538521,513.1491482179279 L 348.02844432776845,518.1561852908492 L 347.5192280538521,521.0875687637199 L 347.0100117799357,521.3764243372339 L 343.25454134436006,520.5740459638505 L 339.11715934952866,521.6652792903145 L 336.7620341288179,521.1196641063217 L 333.07021586596255,518.8943863708787 L 330.7150906452286,518.1561852908492 L 317.7725101343358,519.4721059489457 L 312.4893912462543,519.407915214216 L 306.2302744690646,520.9270934252444 L 301.39271931293587,522.563935053161 L 298.1464655205432,522.7565033907076 L 295.7913402998091,522.1146077360456 L 294.20003967458285,520.8949980366813 L 290.7628297333191,515.7810758605161 L 289.2988327150237,514.3367316447456 L 287.64387991707713,513.1491482179279 L 283.8671923367724,511.1591204111297 L 282.4668478604174,509.68262875578057 L 281.2574587944702,508.0456301088842 L 280.4936345682056,506.1090244182037 L 280.11172227046336,504.0867927030002 L 280.4936345682056,502.16082973750133 L 282.40319568772037,498.79032693090494 L 282.65780400931186,497.18529581718036 L 281.57571928875876,495.8691559714294 L 279.666158169244,495.18433064580364 L 277.31103294850993,494.99172270448554 L 273.4919107094805,495.18433064580364 L 266.93575095197474,493.9002725836315 L 261.9708921889384,494.028678833424 L 258.76707305527043,493.5792558605276 L 256.41194783453636,492.64830396929034 L 253.35665019101484,489.98381986632205 L 251.4470890715001,489.08494517891756 L 244.31806123660095,487.8971376499855 L 242.59945626595731,486.80562989771073 L 241.45371937270718,485.16835114673 L 240.88085129533707,483.0066846435876 L 240.75354694991967,480.5988460063752 L 241.39006756925346,475.87935635123864 L 241.45371937270718,473.56770832590774 L 240.9445030987908,471.18110376503626 L 239.92607055095806,468.96569691494705 L 235.57651452401657,462.1587089234322 L 232.58486942243536,458.2948386438067 L 230.20414708150335,456.2531394870832 L 231.6721915935548,449.3889772093336 L 230.44158601325984,441.0073860411961 L 227.13167993337817,438.2776343172398 L 222.61238544084927,437.18571780383377 L 217.4035272501598,433.83497613296703 L 213.38284030429475,423.12916005793545 L 215.53640089090527,393.7800376648576 L 214.85744577655686,379.82591630525155 L 217.82787388870548,374.2674114481725 L 219.00543654971773,367.46621921580083 L 220.95743240089095,361.1145478545641 L 231.03567163568954,353.6163897458994 L 222.65481977624978,346.6855623042807 L 218.7190023223501,344.8001414982046 L 200.71608526051602,347.7996618757795 L 194.98740194489196,347.8639364220837 L 198.59435083603515,339.475821532347 L 194.27662107895526,332.86564520183265 L 187.28550561035357,326.5551271062888 L 182.681342036529,319.0335279846448 L 183.25421008067633,315.48686522394985 L 184.62272889326698,311.0935828619461 L 184.44238132553576,306.51797954787327 L 180.38986862815244,302.45659245404795 L 176.18883411457946,301.4921281968413 L 172.4651899799293,302.67091676341136 L 168.61424201798332,304.5569567582518 L 163.95703470370003,305.76786505981175 L 160.01060825536513,305.21063436430325 L 149.11550190561636,300.9348784376911 L 148.0334169098053,302.1351049010039 L 146.93011515689957,304.84628956878043 L 145.19029262497588,307.2895211094758 L 142.05012552894323,307.6109956972573 L 140.8619546946601,306.1536388933226 L 119.94165202927877,267.1953120473431 L 113.43853593407007,260.2919585108096 L 91.71197432700949,246.65565447273553 L 88.32780774955101,242.57090901387494 L 83.53268761354835,233.35026130586348 L 80.28643385785594,229.468809918976 L 76.55218113938189,227.18491642687374 L 63.71568752226048,222.93869437791412 L 60.00265197145751,220.4187722087074 L 57.435352919607155,217.9202464196074 L 54.50735955341204,215.96857320499382 L 45.023206351572796,214.74608152529302 L 40.13260813980425,213.48068234999695 L 35.623922231169246,211.325184930671 L 32.01697375060238,208.32244060016322 L 27.82654782088832,199.74277292560274 L 28.091764469973548,191.0874357573481 L 30.606610477056346,180.60741190287985 L 32.01697375060238,174.72967163283187 L 34.20236008874284,157.37199446176612 L 37.321310017116105,150.12996919545574 L 43.113645246376436,142.78022033278614 L 51.49449628469855,137.10398307557554 L 55.037793262158836,133.72386864950306 L 55.801617457896235,129.31348431113287 L 53.701100611686115,121.14688049760586 L 53.382840222188825,117.12240133570408 L 62.27290780155165,75.38878885653789 L 64.26733839874838,71.48089723357319 L 67.5560269003943,68.03454798745126 L 71.15236679710229,65.74766396020017 L 74.02731724406138,62.891682228741686 L 75.00331516962466,57.68417446059794 L 76.17026924678969,42.96235577427357 L 74.85479376402304,30.09674178402339 L 68.6593286532884,20.366073279300448 L 54.95292377022849,15.135245061147257 L 47.229810268030704,15.264138613506447 L 33.29001407681583,18.94829440420308 L 25.76846531004368,19.721630299439365" fill="none" stroke="#000000" stroke-width="2.0776924510666785"/>
	<path d="M 225.34942265546596,458.7226388278612 L 229.9323694722191,457.52385716281316 L 230.20414708150335,456.2531394870832 L 232.58486942243536,458.2948386438067 L 235.57651452401657,462.1587089234322 L 239.92607055095806,468.96569691494705 L 240.9445030987908,471.18110376503626 L 241.45371937270718,473.56770832590774 L 241.39006756925346,475.87935635123864 L 240.75354694991967,480.5988460063752 L 240.88085129533707,483.0066846435876 L 241.45371937270718,485.16835114673 L 242.59945626595731,486.80562989771073 L 244.31806123660095,487.8971376499855 L 251.4470890715001,489.08494517891756 L 253.35665019101484,489.98381986632205 L 256.41194783453636,492.64830396929034 L 258.76707305527043,493.5792558605276 L 261.9708921889384,494.028678833424 L 266.93575095197474,493.9002725836315 L 273.4919107094805,495.18433064580364 L 277.31103294850993,494.99172270448554 L 279.666158169244,495.18433064580364 L 281.57571928875876,495.8691559714294 L 282.65780400931186,497.18529581718036 L 282.40319568772037,498.79032693090494 L 280.4936345682056,502.16082973750133 L 280.11172227046336,504.0867927030002 L 280.4936345682056,506.1090244182037 L 281.2574587944702,508.0456301088842 L 282.4668478604174,509.68262875578057 L 283.8671923367724,511.1591204111297 L 287.64387991707713,513.1491482179279 L 289.2988327150237,514.3367316447456 L 290.7628297333191,515.7810758605161 L 294.20003967458285,520.8949980366813 L 295.7913402998091,522.1146077360456 L 298.1464655205432,522.7565033907076 L 301.39271931293587,522.563935053161 L 306.2302744690646,520.9270934252444 L 312.4893912462543,519.407915214216 L 317.7725101343358,519.4721059489457 L 330.7150906452286,518.1561852908492 L 333.07021586596255,518.8943863708787 L 336.7620341288179,521.1196641063217 L 339.11715934952866,521.6652792903145 L 343.25454134436006,520.5740459638505 L 347.0100117799357,521.3764243372339 L 347.5192280538521,521.0875687637199 L 348.02844432776845,518.1561852908492 L 347.5192280538521,513.1491482179279 L 342.6180210942695,499.3681335060332 L 342.2361091657706,497.2173968815053 L 342.42706531464165,494.7670128404261 L 343.1272377374526,492.1988767243549 L 344.33662606491316,489.37386976602386 L 345.5460147616403,484.01261297329063 L 346.6280994821935,481.04831234390525 L 348.85592072673006,477.6451709435941 L 350.06530942345734,475.0124929108423 L 350.70182967354776,472.6901274934302 L 350.76548184624477,471.0205684996796 L 350.4472217211996,467.03922618375674 L 350.70182967354776,454.37733629390056 L 351.84756619755467,449.22874920315724 L 353.46008470601976,444.54025667099955 L 357.4065109212,436.5009233214368 L 369.5003975191354,419.62850363260657 L 371.40995863865027,415.4850080535648 L 372.42839155574956,410.39914327274056 L 371.34630683519646,404.681325311424 L 370.6461340431423,402.4862163742113 L 370.7734383885597,400.5908973276032 L 372.68299950807443,398.8882991771144 L 377.1598591419467,397.0893037919077 L 389.6993105795648,397.8924299470488 L 392.3090437526237,398.79192501928054 L 394.3459088483125,399.94841022084006 L 395.4279931996224,401.6509945577479 L 396.3191221405476,403.62125302590727 L 397.3375543191371,405.4201585015072 L 398.95007282757894,406.35172490214336 L 401.17789407213877,406.1911106843065 L 407.73405346040136,401.7152423498925 L 415.3722979384601,397.506929949426 L 418.23663943311067,396.4789242671948 L 427.423749877671,397.2820545494796 L 429.5879189495339,398.0851795191325 L 432.77052093847294,400.55877315911096 L 434.68008205798753,401.1691332464106 L 436.8442511298272,400.6872701584266 L 441.6818059167127,395.9649189495592 L 444.2278876555612,394.42288973319 L 448.38648679512164,394.10163139950396 L 451.6327409567576,394.2622604788544 L 462.58089103068625,395.9970442480455 L 465.06332022757107,395.9649189495592 L 468.07618358163455,394.16588290587623 L 470.24035265347413,392.5274540173076 L 477.5815537819736,381.2720660409042 L 512.5474072951139,404.50966635218236 L 571.3618880216886,443.6193310425804 L 614.6877069979377,472.4436417450056 L 619.9496085184628,486.5377675770914 L 619.9977244097986,489.7208294038556 L 620.4588246489623,520.2206642193426 L 621.2226492552877,565.4567528298484 L 621.7318657963634,597.6016911459342 L 624.9569019737501,616.921379462804 L 624.3628163513204,621.9566686940618 L 623.3868184257104,626.0724265002175 L 623.5141226636525,634.3784009372857 L 623.0049065331532,638.600679704583 L 620.4588246489623,643.8489540821312 L 613.1600581958864,655.050308518201 L 611.4626704099397,660.4262099479275 L 612.7781458927062,668.847682651315 L 616.9367456603258,678.9570526674528 L 623.0049065331532,685.1441394315636 L 630.0490649209676,681.71402638662 L 634.7593155650399,693.4465881704788 L 637.5600051039158,735.3467122472412 L 643.5008617387895,751.8277314746623 L 651.2857491271947,763.7938977526089 L 651.2243068814292,763.843160296772 L 635.1203418955934,776.7542559056543 L 627.460880272782,780.7266666831944 L 620.2045484617321,780.4703856283056 L 563.5118019446528,796.3696355630129 L 555.5977323695166,796.7540148428357 L 550.6328736064804,796.4977623513045 L 530.1793529629462,792.0773315807934 L 523.8778011577886,792.0773315807934 L 493.0489985177191,796.3055724977833 L 479.087985459017,799.5514106571482 L 478.13320471463794,800.3201508526686 L 476.9874681906078,801.56934516439 L 475.969035642775,803.2669511252669 L 474.2504306721315,807.5909511240244 L 473.231998493542,812.5020043128288 L 473.04104234467087,817.3061340834269 L 473.8048665709121,824.9710603781859 L 473.741214398215,840.1609379680414 L 474.6959947733508,844.3984498968288 L 479.2789416078881,854.0684814956853 L 478.8970293101225,856.3524798790949 L 477.36938048837334,858.9779660235545 L 470.3676566296482,865.0292127359592 L 464.8723640786999,870.7707297877315 L 458.95272494052796,875.5409267845066 L 455.38821102309004,877.5578093852937 L 452.14195723067405,878.7529858406613 L 444.7371035602343,879.521308704227 L 429.39696280066283,882.6585844822615 L 426.8508818003009,882.754622513373 L 424.30480043069565,882.5945593410462 L 421.67384937439783,882.1463810880601 L 414.9903856407179,879.7133887937782 L 412.44430427111274,879.2972147021555 L 407.1611850137879,878.9664094255172 L 404.4878000372519,878.5609044983777 L 391.48156735366206,873.7161044508438 L 390.39948263310896,872.0193197806108 L 389.57200623414735,869.9063148586565 L 389.1264421329514,867.5371518142333 L 387.66244511463276,865.797607337754 L 385.2436677212016,864.7410640941921 L 379.9605488331201,865.2853448408482 L 376.37481740168647,865.1572790300227 L 373.3831715616419,864.6770307794752 L 370.51883043623485,863.9086306796686 L 368.41831316782566,864.4849310390367 L 366.6997081972054,865.573492413596 L 365.49031913123486,867.3343840995926 L 364.47188695264543,869.2339889908236 L 363.7080623571376,871.2829727766012 L 362.2440653388422,873.4599874190874 L 360.2072006123967,875.7009979954324 L 351.52930644175274,881.7302142409277 L 350.19261376887476,882.8826733717874 L 349.2378330244957,884.3232347078825 L 349.1741808517753,884.5473210672328 L 348.3467044528137,885.7317700781225 L 344.209322088739,890.0853397521836 L 341.34498022484524,891.2484036108643 L 333.9613444376213,892.5928521038621 L 331.66987102036427,893.8732677453157 L 329.9937007084454,895.4737712387347 L 328.7206602082644,899.7950451100525 L 328.27509573780173,902.2063675532295 L 327.70222729118836,904.5749735462891 L 326.8747512614467,906.655474916214 L 325.66536256474285,908.2878476926186 L 309.24313708461824,919.0205187186236 L 306.95166403660454,921.3248482223593 L 306.29392627251843,923.341107244164 L 306.48488242138956,925.4640168838432 L 307.65183645939203,926.872161195176 L 309.1794852811645,928.152281289842 L 310.1342660255435,929.8804257926394 L 310.1342660255435,932.2805934478137 L 308.3520088821796,935.4487554516371 L 306.2302744690646,936.9634760376175 L 303.49323658134506,937.7634979168773 L 297.1280333419537,937.8595003142476 L 294.90021172815045,938.7555195953793 L 286.68909954194146,946.2434706252045 L 278.07485717477454,949.5499964680351 L 266.77005690604864,952.7037132127554 L 275.8042695114947,939.757868148308 L 270.66967222887666,919.5749345719372 L 250.86328072144764,886.0302149984734 L 250.86328072144764,885.9875327514161 L 250.778410818906,885.9875327514161 L 245.27251022754294,873.1715215495414 L 249.49476190881032,860.5358258322697 L 256.44344222088216,847.7069186616911 L 258.60761139131654,834.3965370275147 L 258.5651770559161,827.9383752078205 L 261.1643018593547,823.9565885074599 L 270.45749849901574,815.6830898686266 L 275.42235720831445,807.2489729850456 L 275.2950533809952,800.6614784901169 L 270.2028908443191,785.8732183471675 L 270.5848031474993,777.725678090276 L 273.93714315224014,773.76386314634 L 278.56252471493514,771.0727562739901 L 282.72112407197824,766.7903753719069 L 284.4185118578901,761.5894054875471 L 285.0974669722852,749.4779943283608 L 288.91658918271287,728.5208950400396 L 286.37050770906325,718.8210451844487 L 278.94443701808035,712.3363030432309 L 266.7232461910831,708.1803559784166 L 266.4262029692919,707.7530021361042 L 266.34133388794953,707.3470150122486 L 266.4262029692919,706.9410267179771 L 269.14202342682546,702.3148134898122 L 270.07558660644696,698.0730932571413 L 269.35419674607493,694.0022041573416 L 266.7232461910831,690.326549327249 L 244.93303225979827,682.3979189943881 L 237.220527752024,681.1369900836992 L 220.7028243356529,682.0559729015332 L 211.47327919909839,683.7015789478173 L 205.24598833685712,686.4157176418287 L 203.1985148204477,689.6854368362215 L 201.94669125132899,698.0517242466166 L 200.3341729573475,701.5669125552256 L 197.21522343955058,704.1952322615008 L 178.43787277693255,710.7444509825203 L 170.79962876670012,712.272202084613 L 163.1932105079626,711.4388853164877 L 161.32608373816674,705.9046826299923 L 164.67842456408363,701.1822761218453 L 161.7928655332773,694.5791879003904 L 161.83530027925414,688.6917067431003 L 178.94708890744363,685.229624147206 L 185.34411834302756,682.7398634245336 L 190.59541127969388,679.1280296061807 L 192.16549482773354,674.8428620785562 L 188.55854634717835,670.3652032389543 L 182.75560253402415,670.0659750990213 L 172.2848428227744,672.0323195230831 L 168.02015639555356,670.194215986259 L 163.95703470370003,667.3408319889237 L 160.95478042942176,664.7225069933558 L 159.9257391740228,663.5362292741096 L 159.78782635226838,660.8964580745782 L 161.70799604131196,649.246666009791 L 162.71582012905154,646.5959345256883 L 183.3815143185835,648.9046389731988 L 193.24757982350957,648.3274663597253 L 200.58878102257384,643.5389801937155 L 206.2219862624204,647.2372455615175 L 213.79657835898158,648.5198574976537 L 220.44821627042657,646.6386887145813 L 223.29134055524437,640.9415844060737 L 219.7692611560315,632.3687643280277 L 211.6430181829824,630.8080688634773 L 194.98740194489196,635.0411464012861 L 182.193342663136,633.6728932898378 L 175.64779182195048,625.0034105371733 L 175.35074901073563,612.9122600412188 L 181.2279537319613,601.1514999352502 L 192.16549482773354,612.6342899093808 L 199.0611322205227,616.4509823253095 L 206.42355099786937,615.5315649274756 L 210.70945500336097,610.4318923583118 L 211.8551915022436,603.1936676288502 L 210.9216283226455,595.6663645553523 L 209.01206721741414,589.582205005857 L 206.2750295922561,585.4653531014064 L 203.3364276422021,582.235943524534 L 201.18286664500354,577.7766661822216 L 200.58878102257384,570.0768508498852 L 209.393979110018,537.9040120092709 L 209.5212833479252,533.1972373783233 L 207.66476557251784,516.6045453554692 L 208.5028506763734,510.82711184454234 L 211.81275675629007,504.5465458472276 L 217.07465827681528,498.8648938669755 L 219.9390001399155,496.318236891017 L 220.19360779457716,492.92618617260007 L 217.4035272501598,484.73996713967426 L 212.4917114601088,474.9372441061574 L 211.81275675629007,472.15468042197097 L 212.61901610855733,468.32320855847985 L 214.00875208888908,465.7545627062083 L 214.25275115969188,463.12164839156134 L 211.81275675629007,459.04373956519123 L 219.00543654971773,457.6737055160631 L 225.34942265546596,458.7226388278612" fill="none" stroke="#000000" stroke-width="2.0776924510666785"/>
	<path d="M 258.0877866769933,971.9681234371233 L 262.60708116944045,969.8032134229721 L 264.0498608901493,964.3534740880968 L 264.643946512579,957.9223139040262 L 266.7232461910831,952.770789398548 L 266.77005690604864,952.7037132127554 L 278.07485717477454,949.5499964680351 L 286.68909954194146,946.2434706252045 L 294.90021172815045,938.7555195953793 L 297.1280333419537,937.8595003142476 L 303.49323658134506,937.7634979168773 L 306.2302744690646,936.9634760376175 L 308.3520088821796,935.4487554516371 L 310.1342660255435,932.2805934478137 L 310.1342660255435,929.8804257926394 L 309.1794852811645,928.152281289842 L 307.65183645939203,926.872161195176 L 306.48488242138956,925.4640168838432 L 306.29392627251843,923.341107244164 L 306.95166403660454,921.3248482223593 L 309.24313708461824,919.0205187186236 L 325.66536256474285,908.2878476926186 L 326.8747512614467,906.655474916214 L 327.70222729118836,904.5749735462891 L 328.27509573780173,902.2063675532295 L 328.7206602082644,899.7950451100525 L 329.9937007084454,895.4737712387347 L 331.66987102036427,893.8732677453157 L 333.9613444376213,892.5928521038621 L 341.34498022484524,891.2484036108643 L 344.209322088739,890.0853397521836 L 348.3467044528137,885.7317700781225 L 349.1741808517753,884.5473210672328 L 349.2378330244957,884.3232347078825 L 350.19261376887476,882.8826733717874 L 351.52930644175274,881.7302142409277 L 360.2072006123967,875.7009979954324 L 362.2440653388422,873.4599874190874 L 363.7080623571376,871.2829727766012 L 364.47188695264543,869.2339889908236 L 365.49031913123486,867.3343840995926 L 366.6997081972054,865.573492413596 L 368.41831316782566,864.4849310390367 L 370.51883043623485,863.9086306796686 L 373.3831715616419,864.6770307794752 L 376.37481740168647,865.1572790300227 L 379.9605488331201,865.2853448408482 L 385.2436677212016,864.7410640941921 L 387.66244511463276,865.797607337754 L 389.1264421329514,867.5371518142333 L 389.57200623414735,869.9063148586565 L 390.39948263310896,872.0193197806108 L 391.48156735366206,873.7161044508438 L 404.4878000372519,878.5609044983777 L 407.1611850137879,878.9664094255172 L 412.44430427111274,879.2972147021555 L 414.9903856407179,879.7133887937782 L 421.67384937439783,882.1463810880601 L 424.30480043069565,882.5945593410462 L 426.8508818003009,882.754622513373 L 429.39696280066283,882.6585844822615 L 444.7371035602343,879.521308704227 L 452.14195723067405,878.7529858406613 L 455.38821102309004,877.5578093852937 L 458.95272494052796,875.5409267845066 L 464.8723640786999,870.7707297877315 L 470.3676566296482,865.0292127359592 L 477.36938048837334,858.9779660235545 L 478.8970293101225,856.3524798790949 L 479.2789416078881,854.0684814956853 L 474.6959947733508,844.3984498968288 L 473.741214398215,840.1609379680414 L 473.8048665709121,824.9710603781859 L 473.04104234467087,817.3061340834269 L 473.231998493542,812.5020043128288 L 474.2504306721315,807.5909511240244 L 475.969035642775,803.2669511252669 L 476.9874681906078,801.56934516439 L 478.13320471463794,800.3201508526686 L 479.087985459017,799.5514106571482 L 493.0489985177191,796.3055724977833 L 523.8778011577886,792.0773315807934 L 530.1793529629462,792.0773315807934 L 550.6328736064804,796.4977623513045 L 555.5977323695166,796.7540148428357 L 563.5118019446528,796.3696355630129 L 620.2045484617321,780.4703856283056 L 627.460880272782,780.7266666831944 L 635.1203418955934,776.7542559056543 L 651.2243068814292,763.843160296772 L 651.2857491271947,763.7938977526089 L 653.3881448220446,767.0253224029988 L 686.190160346632,801.3447978867655 L 711.6934094181433,828.0878235047347 L 720.1379127806898,842.8931198937022 L 723.4053837040882,852.8407511497237 L 725.6119876204995,864.1110695288788 L 726.2909427348478,915.7876630775306 L 726.8850283572775,960.8552986446447 L 727.3942444877887,999.1281852507623 L 728.0881545931959,1054.3639473072787 L 728.2429385860327,1066.6821450098525 L 728.8370242084624,1071.5420740165478 L 730.9163242975778,1076.156733763307 L 741.5249968305469,1089.573639456952 L 743.2648189518943,1093.6016825165402 L 741.737169739255,1100.8902593667626 L 728.2429385860327,1123.1375012955136 L 727.6064182176611,1126.6319927461823 L 727.6064182176611,1133.7911966488061 L 725.569553285099,1143.8476258982369 L 726.7500093082033,1145.5621418863325 L 575.8602972333998,1143.6988217415706 L 575.9876008403305,1146.2341363923358 L 575.7329928880057,1148.023745787724 L 573.9507361138851,1151.6348614277197 L 573.5051716434458,1153.6481016557047 L 573.2505633218542,1171.4359491217604 L 573.5051716434458,1173.9282197163823 L 574.0780397208158,1176.1328881874472 L 576.8150776085355,1181.8308030820074 L 577.3242935132085,1184.0992622953606 L 577.7062058109742,1189.243114702659 L 578.1517699121935,1191.617963937042 L 579.4248107816177,1195.8989935953596 L 579.7430712759063,1198.1353070788325 L 578.9155948769447,1205.0463844807778 L 579.297507174687,1207.1867350513999 L 579.9976792282312,1209.1673325186673 L 581.0161117760872,1210.8604049229543 L 582.4164566216623,1212.3617938811585 L 585.4293196064824,1215.119627963871 L 586.4477521543151,1216.87652461699 L 587.0842724044056,1219.0167185170824 L 587.4025328986942,1221.508252110409 L 587.4025328986942,1229.5362657816984 L 587.0206206009519,1232.0276374738212 L 585.0474073087169,1238.6817555640796 L 584.2199309097552,1243.5044906564797 L 583.9016704154667,1251.467546635328 L 581.970892151223,1260.6650326126705 L 582.225500472791,1270.7029036179806 L 581.9072403477459,1273.140427399892 L 581.2707200976555,1275.311815636523 L 575.6693410845286,1286.7537082099386 L 575.032820465195,1288.6375532761738 L 575.2237766140661,1290.6171639570862 L 576.242209161922,1292.1816779204094 L 578.4700304064821,1294.746597663679 L 578.1517699121935,1295.9917932290036 L 577.8335101563916,1296.5984236328059 L 577.4515978586259,1297.013485222252 L 564.9757989629481,1305.7082552107702 L 552.6060865294488,1309.4116422705722 L 518.0218138230704,1316.4350805968838 L 510.48965654569986,1316.8500926595598 L 503.86984461547365,1316.2116121922413 L 497.8229015011276,1314.7430973921482 L 493.62186696435583,1312.859549053328 L 490.29074385451383,1311.7421796838034 L 472.9137379992535,1308.230398756773 L 468.3307915339594,1306.6021841740405 L 462.3899348818152,1306.5596159197 L 422.96810738855106,1311.6144795746761 L 417.09090290910376,1311.5506298537848 L 415.054037813415,1310.6567278560208 L 413.0808245212032,1310.2097752419745 L 411.04395979475765,1310.8163533399781 L 406.84292525798594,1316.9139407199605 L 405.3789282396906,1318.137687955908 L 403.7239754417441,1319.127320098366 L 399.45928910151855,1320.3084867284217 L 366.636056024485,1324.649999598579 L 362.88058595817597,1326.1184272452922 L 356.45173017682094,1330.2150588497057 L 353.24791141239626,1332.7368312616625 L 350.95643799513925,1334.9712820720688 L 344.59123438650465,1337.652583146746 L 324.01040939755296,1339.5358526056227 L 315.65323619375647,1341.0057813148815 L 311.6191487153367,1313.7531064243908 L 311.95862586195204,1298.4073266075914 L 311.74645254270257,1290.5104010353807 L 307.9697650782167,1275.1411791187486 L 306.44211627620047,1255.7679547177468 L 304.27794710573113,1245.6546471170172 L 306.3148120382583,1242.737640112984 L 309.5398486262563,1240.2570785808396 L 311.78888728864433,1234.923210853933 L 311.06749742830755,1229.2271707280477 L 308.2243731434897,1225.6923313829973 L 305.04177130146854,1222.6365502844928 L 303.34438392610974,1218.3029912869385 L 303.8111653106322,1212.9684016036765 L 305.93289973511315,1211.3711846814504 L 309.07306683115746,1210.9878506502037 L 312.5102767384399,1209.3480213218832 L 326.1742472860994,1197.0913654490755 L 333.04866710064107,1192.5760805923849 L 351.1682798165352,1184.5675278295464 L 357.7456568198503,1180.488549836565 L 360.8433891699061,1174.2154542390676 L 359.23087128651264,1164.0757357898563 L 357.7032224844498,1162.6697578454762 L 352.7807981105516,1161.8815529482147 L 351.1682798165352,1160.475555223828 L 350.91367175129704,1158.5263106487484 L 351.2531493084888,1154.393407412102 L 350.234717047525,1148.342984040037 L 350.3620208748442,1143.6132675446759 L 349.4708924411997,1139.3414873365716 L 333.7276222150011,1126.3123780486133 L 328.42328594849914,1110.7037274363918 L 321.2518233227775,1095.5517302644546 L 294.34822968712206,1082.9452572192288 L 283.6546876621527,1075.2295497242228 L 273.72496983295565,1066.0959590440602 L 266.7232461910831,1058.0063667934178 L 250.30102085052457,1046.8358516274127 L 233.96366500193136,1024.0552963500002 L 221.93343032650085,998.1898739490963 L 219.32920816382313,983.0378093232719 L 218.42195992171156,977.7588398339221 L 221.21204046612897,973.8450649291027 L 226.38907290533515,972.8852683949879 L 231.24784495498577,974.7621989033009 L 235.63983562013712,984.0398634782877 L 239.94695638279347,979.2731342960808 L 242.68399400798654,972.3733744712409 L 240.4773900915403,970.7523650465737 L 244.80572843247907,969.3126378465896 L 248.6142420590129,969.8458721112842 L 252.7622328322088,971.1149610264482 L 258.0877866769933,971.9681234371233" fill="none" stroke="#000000" stroke-width="2.0776924510666785"/>
	<path d="M 319.59687028278415,1420.7515185957627 L 318.4511333733252,1412.7114235104175 L 319.3422622175462,1391.1842332683107 L 315.60800949908383,1367.6543742819392 L 315.9474866456992,1342.993445690298 L 315.65323619375647,1341.0057813148815 L 324.01040939755296,1339.5358526056227 L 344.59123438650465,1337.652583146746 L 350.95643799513925,1334.9712820720688 L 353.24791141239626,1332.7368312616625 L 356.45173017682094,1330.2150588497057 L 362.88058595817597,1326.1184272452922 L 366.636056024485,1324.649999598579 L 399.45928910151855,1320.3084867284217 L 403.7239754417441,1319.127320098366 L 405.3789282396906,1318.137687955908 L 406.84292525798594,1316.9139407199605 L 411.04395979475765,1310.8163533399781 L 413.0808245212032,1310.2097752419745 L 415.054037813415,1310.6567278560208 L 417.09090290910376,1311.5506298537848 L 422.96810738855106,1311.6144795746761 L 462.3899348818152,1306.5596159197 L 468.3307915339594,1306.6021841740405 L 472.9137379992535,1308.230398756773 L 490.29074385451383,1311.7421796838034 L 493.62186696435583,1312.859549053328 L 497.8229015011276,1314.7430973921482 L 503.86984461547365,1316.2116121922413 L 510.48965654569986,1316.8500926595598 L 518.0218138230704,1316.4350805968838 L 552.6060865294488,1309.4116422705722 L 564.9757989629481,1305.7082552107702 L 577.4515978586259,1297.013485222252 L 577.8335101563916,1296.5984236328059 L 578.1517699121935,1295.9917932290036 L 578.4700304064821,1294.746597663679 L 576.242209161922,1292.1816779204094 L 575.2237766140661,1290.6171639570862 L 575.032820465195,1288.6375532761738 L 575.6693410845286,1286.7537082099386 L 581.2707200976555,1275.311815636523 L 581.9072403477459,1273.140427399892 L 582.225500472791,1270.7029036179806 L 581.970892151223,1260.6650326126705 L 583.9016704154667,1251.467546635328 L 584.2199309097552,1243.5044906564797 L 585.0474073087169,1238.6817555640796 L 587.0206206009519,1232.0276374738212 L 587.4025328986942,1229.5362657816984 L 587.4025328986942,1221.508252110409 L 587.0842724044056,1219.0167185170824 L 586.4477521543151,1216.87652461699 L 585.4293196064824,1215.119627963871 L 582.4164566216623,1212.3617938811585 L 581.0161117760872,1210.8604049229543 L 579.9976792282312,1209.1673325186673 L 579.297507174687,1207.1867350513999 L 578.9155948769447,1205.0463844807778 L 579.7430712759063,1198.1353070788325 L 579.4248107816177,1195.8989935953596 L 578.1517699121935,1191.617963937042 L 577.7062058109742,1189.243114702659 L 577.3242935132085,1184.0992622953606 L 576.8150776085355,1181.8308030820074 L 574.0780397208158,1176.1328881874472 L 573.5051716434458,1173.9282197163823 L 573.2505633218542,1171.4359491217604 L 573.5051716434458,1153.6481016557047 L 573.9507361138851,1151.6348614277197 L 575.7329928880057,1148.023745787724 L 575.9876008403305,1146.2341363923358 L 575.8602972333998,1143.6988217415706 L 726.7500093082033,1145.5621418863325 L 729.176501765654,1146.3829386209027 L 731.2558014441933,1150.1858308798649 L 735.6265745310737,1185.5473191163571 L 734.9051850812782,1232.7725798180318 L 733.8867524097265,1298.4073266075914 L 734.1413604749645,1363.5905693633285 L 734.4808380321562,1445.1885548521311 L 734.5141061536806,1452.4280522699546 L 734.6768828210503,1487.845714365332 L 734.8627499247601,1528.2786593369121 L 735.1173584005744,1589.6782944876816 L 735.3719668763887,1649.3578173906158 L 735.6690092770156,1709.7189183324278 L 728.2005038400908,1711.927402376802 L 697.1807451827812,1711.7150490235015 L 705.158466750217,1740.9113715196795 L 709.783848312947,1747.726742539607 L 710.4411572027904,1748.2169457959112 L 710.3994829646368,1748.2366251444325 L 708.5111389898744,1749.1283353868498 L 704.9466250724132,1752.2174436331482 L 696.5233388541174,1765.6666933129932 L 694.0409092879892,1768.8616813832473 L 691.431176114907,1771.154397674779 L 683.9838881549858,1775.0392156847918 L 676.9821642962609,1777.5229108491897 L 674.542169388834,1777.8731728494329 L 669.5773106257977,1777.682120793399 L 664.4851475173441,1776.7268580587886 L 655.3192549560226,1773.7655132509421 L 651.4152630303005,1773.5107719806028 L 646.5140564399612,1773.9565691685204 L 637.2845113366762,1775.9944867372906 L 629.2431374161459,1778.9557974888592 L 600.7694599968106,1799.9596432807652 L 577.7062058109742,1822.7121474274238 L 574.1416922627795,1821.1204067237825 L 561.093024920465,1816.6634645824977 L 559.4168546085463,1815.5492132679144 L 558.0165097629477,1814.105983095844 L 553.1789546068424,1805.7965913831936 L 552.6060865294488,1805.0643293333562 L 551.6513057850699,1804.300226995854 L 549.1052244154646,1803.0267159791397 L 547.004707516322,1802.3475069362116 L 544.9678424206332,1801.4560412344097 L 543.249237450013,1800.3098649164738 L 541.9125447771116,1798.7816197403847 L 540.8941118600357,1797.0623295813407 L 539.6210713598547,1795.6295762791322 L 537.71151024034,1794.7380799202524 L 530.5612652607118,1793.7829005972599 L 528.8426602900681,1792.891396167474 L 528.2061396707343,1791.4904522395407 L 529.0972682424164,1788.5823988722982 L 528.2697918434314,1787.4361472778444 L 526.3602307239167,1786.9267002858217 L 459.3346368690269,1783.1376437284516 L 451.5054369805835,1784.920738214197 L 447.43170641998586,1786.5446137969006 L 443.5913670362041,1788.61423935454 L 441.6818059167127,1790.5246436147004 L 440.0905049222432,1793.2734702047171 L 438.56285610047075,1798.1766860329346 L 437.8626836776832,1803.0903914866933 L 438.6901604458882,1822.6484779132159 L 437.0352072786983,1838.5227406138104 L 434.3618219329424,1847.6371323907779 L 432.57956478957846,1851.6795874419415 L 430.54269969391294,1854.5760991097961 L 427.6783578300192,1857.9500040372736 L 415.6269062600517,1869.00498083331 L 411.7441318483253,1873.7577962812395 L 407.5430973115302,1880.6003803576305 L 404.93336413847123,1883.8889812365446 L 403.4057153166988,1885.257447921054 L 389.062789960231,1894.1681652726013 L 382.2520222503771,1896.724620124731 L 365.80857962552346,1899.1113228241668 L 360.97633420195655,1899.8248654979898 L 361.14043239174396,1897.3395301159594 L 363.7289482007475,1892.1099173843056 L 366.6145072315537,1888.259223572771 L 366.86911529679173,1884.4296722532247 L 361.60721377623156,1879.3058103999997 L 357.8729610577575,1878.5419935302884 L 346.4155944265093,1878.9026853737973 L 342.55403788071607,1878.520776536086 L 338.94708898953786,1871.9963899478068 L 333.17597092797195,1867.7633818959075 L 327.7867655800809,1862.8512828840442 L 325.49529217171596,1854.2680813244901 L 329.05980631690574,1833.5353114117108 L 328.63545926778363,1826.871503895796 L 325.15581461454764,1820.2393065882816 L 319.17252323366216,1814.583191873885 L 312.00106060794064,1810.646100663564 L 304.9569022200912,1809.1603854189116 L 302.2410821731806,1805.552172889718 L 290.35936890338667,1783.508790878237 L 285.3520754480995,1779.666598138431 L 281.40564899975294,1777.3209129448114 L 280.0901735169862,1773.393683606921 L 282.8484283098854,1764.753498495895 L 291.50510540229266,1750.338176123605 L 292.4811033278676,1743.4167386863282 L 287.6435484458881,1734.732740995733 L 275.9740084953437,1725.7298422269978 L 271.26375785130637,1719.4445476241704 L 277.2470492321685,1717.597141364815 L 283.2727753590075,1717.1512125840286 L 300.58612872263427,1712.6494007653905 L 305.8904653997127,1709.7189183324278 L 313.7408831398643,1695.575517863198 L 314.03792554045606,1677.6930013095325 L 312.21323433781305,1659.1927813021775 L 313.6135789019221,1643.091208238888 L 323.50086198516556,1618.4475638480862 L 327.319983785017,1599.367712599816 L 332.79405862482673,1584.2808950729443 L 333.3032751658791,1575.3769591359342 L 326.72589816258727,1548.4074687534257 L 324.01007811567666,1544.8154819555973 L 308.90332825784975,1550.3840934481334 L 300.75586770651825,1551.8506075113937 L 293.2873622695819,1550.830425029893 L 280.3447815822593,1539.4167389604402 L 273.72496983295565,1521.3063779120218 L 271.6881049004284,1501.0469444689504 L 273.25818844846816,1477.149304224623 L 274.7434025045074,1472.0887104831802 L 277.28948397814537,1467.68715054186 L 281.4480837457414,1463.6469740331336 L 286.8372895041739,1461.244088182186 L 293.41466650748896,1459.4578501552548 L 298.973610839229,1456.608337727963 L 301.3075185830062,1451.0793001811996 L 301.1802147556403,1439.8930935846877 L 302.45325549246513,1427.1322794247492 L 307.7151570129903,1418.7521652025143 L 319.59687028278415,1420.7515185957627" fill="none" stroke="#000000" stroke-width="2.0776924510666785"/>
	<path d="M 554.9014018984437,2077.6924510666786 L 555.9580957632583,2063.2712116109087 L 551.1205408813138,2056.763219640299 L 517.130354111832,2052.904968347692 L 511.4865398775853,2050.03243400763 L 507.07333204472786,2044.9338561519835 L 501.6841266968718,2036.61263144607 L 498.5439596008041,2033.019034381265 L 495.4462272507484,2031.3441218571913 L 492.39092964663433,2030.0826282559135 L 489.1234583126946,2027.7080321792073 L 482.75825462865225,2018.6334379034818 L 472.02227826831734,1985.7453704620723 L 440.705476389228,1985.6181341502074 L 432.3034077726235,1983.3702755090217 L 426.9990715061565,1979.3728444766675 L 413.6321441802533,1963.3293339780507 L 403.320514458499,1956.82886798692 L 383.0367325721123,1946.8603830229074 L 374.38005547970505,1938.0156006049094 L 367.88754796834354,1928.0886285789722 L 362.96512359443363,1918.3414865865748 L 360.419042120784,1908.265060985234 L 360.97633420195655,1899.8248654979898 L 365.80857962552346,1899.1113228241668 L 382.2520222503771,1896.724620124731 L 389.062789960231,1894.1681652726013 L 403.4057153166988,1885.257447921054 L 404.93336413847123,1883.8889812365446 L 407.5430973115302,1880.6003803576305 L 411.7441318483253,1873.7577962812395 L 415.6269062600517,1869.00498083331 L 427.6783578300192,1857.9500040372736 L 430.54269969391294,1854.5760991097961 L 432.57956478957846,1851.6795874419415 L 434.3618219329424,1847.6371323907779 L 437.0352072786983,1838.5227406138104 L 438.6901604458882,1822.6484779132159 L 437.8626836776832,1803.0903914866933 L 438.56285610047075,1798.1766860329346 L 440.0905049222432,1793.2734702047171 L 441.6818059167127,1790.5246436147004 L 443.5913670362041,1788.61423935454 L 447.43170641998586,1786.5446137969006 L 451.5054369805835,1784.920738214197 L 459.3346368690269,1783.1376437284516 L 526.3602307239167,1786.9267002858217 L 528.2697918434314,1787.4361472778444 L 529.0972682424164,1788.5823988722982 L 528.2061396707343,1791.4904522395407 L 528.8426602900681,1792.891396167474 L 530.5612652607118,1793.7829005972599 L 537.71151024034,1794.7380799202524 L 539.6210713598547,1795.6295762791322 L 540.8941118600357,1797.0623295813407 L 541.9125447771116,1798.7816197403847 L 543.249237450013,1800.3098649164738 L 544.9678424206332,1801.4560412344097 L 547.004707516322,1802.3475069362116 L 549.1052244154646,1803.0267159791397 L 551.6513057850699,1804.300226995854 L 552.6060865294488,1805.0643293333562 L 553.1789546068424,1805.7965913831936 L 558.0165097629477,1814.105983095844 L 559.4168546085463,1815.5492132679144 L 561.093024920465,1816.6634645824977 L 574.1416922627795,1821.1204067237825 L 577.7062058109742,1822.7121474274238 L 600.7694599968106,1799.9596432807652 L 629.2431374161459,1778.9557974888592 L 637.2845113366762,1775.9944867372906 L 646.5140564399612,1773.9565691685204 L 651.4152630303005,1773.5107719806028 L 655.3192549560226,1773.7655132509421 L 664.4851475173441,1776.7268580587886 L 669.5773106257977,1777.682120793399 L 674.542169388834,1777.8731728494329 L 676.9821642962609,1777.5229108491897 L 683.9838881549858,1775.0392156847918 L 691.431176114907,1771.154397674779 L 694.0409092879892,1768.8616813832473 L 696.5233388541174,1765.6666933129932 L 704.9466250724132,1752.2174436331482 L 708.5111389898744,1749.1283353868498 L 710.3994829646368,1748.2366251444325 L 710.4411572027904,1748.2169457959112 L 716.5309638895465,1752.758497062553 L 720.2227822726084,1757.1956730506743 L 721.0714759603112,1762.9065290309925 L 717.973743199644,1780.1548372393954 L 718.2283516754584,1787.1704791291081 L 720.0106085427825,1794.2495461417684 L 723.1507756388152,1802.654942203029 L 725.569553285099,1812.5669020544806 L 723.9145998345526,1818.9234520100947 L 720.6887778057056,1823.2355329340696 L 714.5789684489497,1831.4024928177353 L 711.1841932876439,1840.6127077189628 L 713.8151438426358,1845.2282655767865 L 719.119480109138,1849.5254121089863 L 723.617557433914,1857.748088883197 L 723.702426515268,1860.9415785351343 L 722.9810366549311,1864.3790328194566 L 722.7264285896931,1868.1665292936125 L 724.0419044830362,1872.367701957329 L 726.5031164647204,1875.741307942504 L 729.728152642142,1878.9875539971847 L 733.1653625493896,1881.735152335078 L 736.3903991373526,1883.6446583694437 L 740.2519556831808,1884.0902075425306 L 744.2832516234811,1883.7083085462525 L 747.2536801461827,1884.7479204647223 L 747.805331022659,1889.4473238238045 L 748.8661980296113,1892.3008590233674 L 755.6981835087523,1897.912339686279 L 758.2866993177207,1901.4128064723627 L 758.7959158588081,1905.5390372467964 L 757.7774831872564,1914.3427961787318 L 758.668611620901,1917.9278323809342 L 761.3844316678233,1920.1445835454535 L 770.2108473335381,1924.6734693107276 L 773.732926732751,1927.3037838002892 L 784.2991645197433,1944.2409248212587 L 792.276886087214,1975.0572298098339 L 799.9999999999999,2005.1692465619365 L 791.4706271454999,2005.6781452325022 L 738.7243068811297,2018.1245708164274 L 730.2373687726064,2022.608921181234 L 733.1939278796754,2031.1710016524296 L 733.0602752431313,2031.2043897937585 L 655.1408279728619,2044.2754790871115 L 590.0520276506944,2064.055880659899 L 560.7152889186923,2076.857924378708 L 557.4408007607506,2077.1249730219474 L 554.9014018984437,2077.6924510666786" fill="none" stroke="#000000" stroke-width="2.0776924510666785"/>
</svg>
