<?xml version="1.0" ?>
<svg xmlns="http://www.w3.org/2000/svg" xmlns:ev="http://www.w3.org/2001/xml-events" xmlns:xlink="http://www.w3.org/1999/xlink" baseProfile="full" height="252px" version="1.1" viewBox="-80.4 -33.868319624563775 960.8 402.4198354947653" width="600px">
	<defs/>
	<path d="M 102.45885374514476,255.92318577577478 L 102.69581794459086,260.9219315551514 L 99.06940472956317,274.4826849550899 L 97.89837587340891,283.05115221678784 L 96.95399738632244,285.18072783876096 L 96.18590308817515,286.16947770981557 L 95.24152460108053,287.0061212889307 L 90.55740795815325,293.11640465240714 L 83.29199065319183,299.30320024184783 L 81.03807442619372,300.5203283716438 L 79.93000384344555,300.5710422416005 L 79.07376732899682,301.05282737058656 L 77.44943651637635,303.61394118189236 L 76.84503455753406,310.86662787895517 L 75.95102298156725,312.7432993392439 L 73.59637293230534,316.09097988376834 L 72.75272826747857,317.9424064577573 L 72.80309517859007,319.61633383824767 L 73.91116576133824,323.8773922690488 L 73.65933169305103,326.1855562765103 L 71.51874065056234,329.55914238368393 L 68.2323039638563,331.613799332617 L 64.08963100630406,332.67919670049787 L 59.40551436337679,333.1358000031666 L 56.42127889971277,333.87144375029385 L 55.426533745158096,334.68319624563776 L 55.19988288877518,334.22658467375504 L 54.41919674099778,331.0557390902678 L 54.41919674099778,329.6098738635911 L 55.275433011774666,325.27242876669186 L 55.426533745158096,323.4462037794598 L 54.57029723069714,319.3373436930038 L 52.83264098989948,315.1272398900996 L 50.46539933470378,311.1202297596508 L 47.69522287784558,307.77274788766465 L 44.01844323903377,304.6536236759895 L 40.79496506936896,303.25893066475146 L 37.42038665367255,303.4364357359292 L 33.42881394217638,305.08471508494165 L 30.154969105067835,307.84882563759925 L 25.269385061276694,314.569290258573 L 22.184415775389674,316.446044993527 L 14.679755764427464,315.1272398900996 L 7.955781901242646,309.319673490625 L 0.0,295.604303816328 L 4.461630012628965,294.38644814377994 L 24.15229036430698,286.5207218110819 L 28.435455147176633,286.0216522273216 L 31.509022397153668,284.44461137410354 L 36.86297831482175,276.81933456319814 L 39.163196398333135,274.30434074102783 L 46.579416922328974,270.87129494869293 L 62.799920732903274,265.88164870815814 L 86.67459830103004,261.351302607001 L 89.37140591933179,259.91441471336344 L 91.4336702819918,257.18040303778326 L 96.27206016989449,256.2624331178411 L 102.37953583820789,255.94314165217517 L 102.45885374514476,255.92318577577478" fill="none" stroke="#000000" stroke-width="0.8"/>
	<path d="M 223.63920477812977,230.99446805775398 L 220.02538341274035,230.00635429027113 L 217.1670649832281,227.8021412318513 L 215.1397993689492,224.6859351662265 L 213.90581175206967,220.93650222349854 L 214.20801273148876,216.73124867600063 L 217.45667435670117,208.39733849047184 L 216.73159118635556,202.44004909759525 L 225.0842752837641,197.6921480329027 L 230.20027748055634,192.66682753092724 L 241.99881011017496,174.7614586206898 L 243.06960148864115,170.993416364766 L 245.33016049684818,168.82038531615294 L 256.256196637248,164.793439801831 L 259.8453301606215,161.7235140998426 L 260.79714455681386,157.4178215774633 L 261.4282122819145,148.11418467943113 L 261.47749380420237,148.13307874055752 L 266.19938541021435,149.94295184333728 L 271.0346026619493,152.01865520546204 L 278.28742842996553,151.96802776197882 L 280.0124927943832,151.588322623995 L 281.7627405625857,155.8664274374654 L 290.7784059103014,157.63848293564473 L 294.65665294171686,159.5624688901228 L 297.6282967795264,164.52451788759703 L 304.4781878678954,177.79175769927483 L 311.3280787371163,191.6687769923027 L 312.63761661039393,196.53131333341244 L 313.3427525737503,203.82562137936182 L 315.8610949243187,209.65137184877426 L 331.07188198547243,209.09410939133068 L 337.00257806876704,207.38434910587657 L 336.81370221168976,214.00827319348392 L 336.39817593970184,220.113366372906 L 330.01417836915795,221.60803936323148 L 324.22199111624747,226.52290780500832 L 323.06355366564577,232.85691079016476 L 322.20731727961345,241.92800925758212 L 319.68897492904506,246.74266649874912 L 311.7310134167961,246.38789316220607 L 307.5001985132744,247.40153517371758 L 314.14862193310586,255.71385107520885 L 312.1843151231813,263.1145165663934 L 298.4341665771414,265.0408222648327 L 289.4688680369952,264.2297408804748 L 288.3607973939916,260.9854926926945 L 286.6483246218984,258.4510090680725 L 283.122645462585,256.52485159847265 L 274.86248288579526,253.9905000189457 L 273.5411192690348,253.62670271423804 L 273.1875886601001,252.20362883248907 L 272.15506820036774,249.61872114591733 L 271.6765832756772,247.33798442431944 L 275.81925598953313,231.93191966329675 L 275.9073982058468,226.61138285731738 L 273.8675409856382,221.747176638502 L 270.31667838097405,217.8205418179547 L 265.90957926188565,214.65402953528186 L 261.32619668483693,212.07024054593572 L 259.56335698847533,210.4744088350388 L 258.6441619569365,208.9545964864358 L 257.4983163126906,208.37200863232786 L 254.97997392410738,209.48652784593781 L 254.13632950291984,210.87969692527108 L 253.05344213206374,215.6419691220252 L 252.26016437837293,217.4405545168193 L 248.9737276916302,220.3285011767446 L 237.42712854541216,225.36997096025584 L 231.20682306246954,229.3982898514561 L 228.03371180392438,230.69043196726014 L 223.63920477812977,230.99446805775398" fill="none" stroke="#000000" stroke-width="0.8"/>
	<path d="M 271.07218107317533,258.1086614924168 L 273.0490797763427,257.1962694434723 L 273.8423575300335,254.8393013383971 L 273.5411192690348,253.62670271423804 L 274.86248288579526,253.9905000189457 L 283.122645462585,256.52485159847265 L 286.6483246218984,258.4510090680725 L 288.3607973939916,260.9854926926945 L 289.4688680369952,264.2297408804748 L 298.4341665771414,265.0408222648327 L 312.1843151231813,263.1145165663934 L 314.14862193310586,255.71385107520885 L 307.5001985132744,247.40153517371758 L 311.7310134167961,246.38789316220607 L 319.68897492904506,246.74266649874912 L 322.20731727961345,241.92800925758212 L 323.06355366564577,232.85691079016476 L 324.22199111624747,226.52290780500832 L 330.01417836915795,221.60803936323148 L 336.39817593970184,220.113366372906 L 336.7129688156988,220.0373665716649 L 339.88608010290596,223.68542408165115 L 341.5481858482898,227.33363425571324 L 345.02349820005804,228.90443874642673 L 347.59220713904375,235.03591468098392 L 348.39807671753925,244.6140481617909 L 351.6215550314314,248.41518933382167 L 357.01080738555066,249.78364107216262 L 360.88905441696613,252.0644426325638 L 357.01080738555066,264.0776641015743 L 355.2448938412931,270.7914582744351 L 328.6337495795358,280.6518488864205 L 319.86912536824536,286.0216522273216 L 307.3170732316492,296.46280276744744 L 300.5948839671781,299.3777712943027 L 297.62046403999085,302.851906746638 L 293.0993455362453,309.64086196309694 L 290.4421969932153,312.5562879664181 L 287.7850484502139,314.65306087898 L 284.25540341796096,315.91115019324303 L 272.8732897389775,316.7498865918771 L 268.1538765896524,318.1278294046594 L 264.02934762069316,320.7439859236646 L 259.8453301606215,324.85810806606577 L 251.35831850185576,330.8898584551797 L 248.75484217872224,315.9012376999638 L 247.62641464653268,312.261447109993 L 242.1364284002478,303.63929916840374 L 241.8971859379107,301.9149757168364 L 242.3882627122028,298.0607333902833 L 242.0482866712982,296.48865907796227 L 240.7009733825207,294.8659033651721 L 235.53837181489067,291.64583968054313 L 229.72100113363908,286.4483578208409 L 228.05889525949644,283.6849490337293 L 226.6360318477276,279.4259258693305 L 225.16280176849054,270.95921664398867 L 226.09458840596324,263.7099479951607 L 230.12393593530973,258.7929620849444 L 238.10708111457723,257.37367824147196 L 243.09339873694398,257.4243666069279 L 244.7555043673944,257.8805627539604 L 246.44279369709687,259.122441960248 L 249.35147903772472,262.4173109081914 L 250.88766787771152,263.3551045160758 L 254.36298011566353,263.5578720731767 L 256.46579585294194,262.1385095111484 L 258.63157010732266,259.9841646033685 L 262.40908356836974,257.9565955176102 L 265.0785264466727,257.72849693848116 L 271.07218107317533,258.1086614924168" fill="none" stroke="#000000" stroke-width="0.8"/>
	<path d="M 399.62138923530017,259.13139162753714 L 397.2040451807423,259.19597992790057 L 384.8304580302336,257.3999189433679 L 380.8447352157049,258.23807608615243 L 375.8675391733472,262.1894984091141 L 370.87051347150145,265.00350122235625 L 355.2448938412931,270.7914582744351 L 357.01080738555066,264.0776641015743 L 360.88905441696613,252.0644426325638 L 357.01080738555066,249.78364107216262 L 351.6215550314314,248.41518933382167 L 348.39807671753925,244.6140481617909 L 347.59220713904375,235.03591468098392 L 345.02349820005804,228.90443874642673 L 341.5481858482898,227.33363425571324 L 339.88608010290596,223.68542408165115 L 336.7129688156988,220.0373665716649 L 336.39817593970184,220.113366372906 L 336.81370221168976,214.00827319348392 L 337.00257806876704,207.38434910587657 L 344.21762884070665,205.29468718691444 L 344.3687292633866,199.36791688951706 L 346.6856039454378,196.12609180491486 L 349.6068811948014,192.88438595548288 L 351.26898715932924,188.68047602631594 L 355.65090248555947,184.78064189054638 L 356.4064052564854,178.5513924335154 L 355.2479675867683,176.37379058440698 L 356.3056716413423,176.22186697199953 L 367.7389452862156,174.65200351442266 L 375.6969067984727,171.71491424679837 L 380.63285766531817,165.73975547690523 L 382.244596603161,161.23333228964964 L 387.48274853456763,160.0687878817504 L 390.50475939906624,158.0435292955431 L 393.5267698253257,156.0183164433339 L 400.6788619782314,154.90446903976536 L 404.80894348575805,155.61327944514562 L 404.0534407148321,161.42320484232482 L 404.00307368814714,161.84092666852894 L 401.9884000706286,171.41108296028602 L 400.93069645431814,177.43726380020018 L 400.7795955933419,181.94450660263414 L 400.0744598491336,188.8830693601846 L 396.34731324043076,191.26357757635554 L 388.28861833218264,191.16227812298413 L 382.64753150195224,194.1000116602719 L 381.8416619234853,198.76006560910372 L 379.82698808685126,203.4203660342388 L 377.8626812769308,206.8650949925945 L 377.4093795705456,211.5258259758494 L 378.0641487263284,219.63203659267532 L 381.4387270246656,225.30683186200153 L 388.6915527927062,228.49906702700085 L 394.73557430261235,231.38738089037818 L 398.31162048861074,234.78253949940927 L 400.37666113281426,240.3062906070482 L 398.9160223985605,244.05656152977716 L 397.1531828188936,248.41518933382167 L 398.96638920613,257.4372367369177 L 399.62138923530017,259.13139162753714" fill="none" stroke="#000000" stroke-width="0.8"/>
	<path d="M 491.592306217732,225.79537495398466 L 467.1227442255756,242.57387228843908 L 462.58179654966943,244.01047037013504 L 448.2450921156595,241.81567736453 L 443.42653188720817,242.19477399420845 L 440.7098948530616,243.63136576543786 L 435.3955977670546,248.08096169490386 L 432.54015457848163,249.03875228080463 L 422.42712667984364,249.03875228080463 L 417.3111242393959,250.31582289281062 L 401.6855046091549,259.07624117828124 L 399.62138923530017,259.13139162753714 L 398.96638920613,257.4372367369177 L 397.1531828188936,248.41518933382167 L 398.9160223985605,244.05656152977716 L 400.37666113281426,240.3062906070482 L 398.31162048861074,234.78253949940927 L 394.73557430261235,231.38738089037818 L 388.6915527927062,228.49906702700085 L 381.4387270246656,225.30683186200153 L 378.0641487263284,219.63203659267532 L 377.4093795705456,211.5258259758494 L 377.8626812769308,206.8650949925945 L 379.82698808685126,203.4203660342388 L 381.8416619234853,198.76006560910372 L 382.64753150195224,194.1000116602719 L 388.28861833218264,191.16227812298413 L 396.34731324043076,191.26357757635554 L 400.0744598491336,188.8830693601846 L 400.7795955933419,181.94450660263414 L 400.93069645431814,177.43726380020018 L 401.9884000706286,171.41108296028602 L 404.00307368814714,161.84092666852894 L 404.0534407148321,161.42320484232482 L 408.8382909398821,160.92953642590263 L 417.7028556457411,156.42335548936953 L 422.0847711910828,152.06928289771426 L 426.1644856719244,150.75297678573457 L 432.5484832424683,151.27190297348238 L 432.6114418614737,151.96802776197882 L 430.9493358969703,165.68912028419498 L 433.8202461196408,176.677638808158 L 441.2745393370791,182.8054664247548 L 448.72883233537334,186.8065081417037 L 457.14009533487166,190.90902977743036 L 462.8315489726431,197.7469895415335 L 466.6090621698,203.67365035073237 L 477.3372002895845,209.90467415767836 L 487.8135039332822,217.30142377741433 L 491.036982247207,222.87473140747062 L 491.592306217732,225.79537495398466" fill="none" stroke="#000000" stroke-width="0.8"/>
	<path d="M 513.6228434845907,211.73266073364965 L 509.7164385770355,213.3482617039654 L 491.592306217732,225.79537495398466 L 491.036982247207,222.87473140747062 L 487.8135039332822,217.30142377741433 L 477.3372002895845,209.90467415767836 L 466.6090621698,203.67365035073237 L 462.8315489726431,197.7469895415335 L 457.14009533487166,190.90902977743036 L 448.72883233537334,186.8065081417037 L 441.2745393370791,182.8054664247548 L 433.8202461196408,176.677638808158 L 430.9493358969703,165.68912028419498 L 432.6114418614737,151.96802776197882 L 432.5484832424683,151.27190297348238 L 431.5537380260437,139.6157726905258 L 427.77622460973464,130.9094592141466 L 424.351279284688,125.79742000173367 L 420.9263337405137,117.95276968977304 L 422.4247472517531,109.56479981297502 L 428.5820941882301,107.83163486814357 L 433.92097973477985,101.2534958675835 L 438.6554633713798,97.71161568745428 L 442.4833433761022,92.60142800602684 L 438.23165590572165,87.06335615753285 L 443.60499687330383,85.32785578097173 L 455.0862581187408,84.67057934887293 L 480.5472933387261,89.15210177984237 L 490.30339077786994,93.89279244601298 L 496.8471148126062,94.5700538088346 L 502.2010707302825,93.49440575638569 L 512.5322229339719,90.26753642903788 L 514.5688104952101,89.97883857923317 L 519.2424153025943,93.66391883696375 L 521.7607578723107,98.47057865044242 L 522.465893616519,104.18829956530509 L 523.2213961682928,111.57632451970007 L 523.6746978746576,119.57225528885573 L 522.0629587177278,124.98761855153256 L 519.2424153025943,128.8848548821479 L 514.130180828371,133.6174382112414 L 511.98958975369356,132.88349193233327 L 507.15437250196265,132.12424365134402 L 502.41988930363436,135.31312948898363 L 499.4986122733944,143.05803438021937 L 496.7788024734039,149.38606393745866 L 492.24578650534556,152.3730483281476 L 489.0223084105689,156.524615426345 L 488.21643883207344,161.28396496037104 L 493.9582590582989,170.094492537564 L 499.0956775937186,179.51360579866466 L 499.24677801642315,184.78064189054638 L 500.3044816327417,190.0479911406245 L 502.97392462513005,197.3417622013593 L 507.15437250196265,203.4203660342388 L 513.5509618839424,211.42450295621433 L 513.6228434845907,211.73266073364965" fill="none" stroke="#000000" stroke-width="0.8"/>
	<path d="M 657.4872626155991,153.1893859347483 L 649.1572476192717,153.79003736426392 L 643.8429505332648,155.06572490578378 L 640.9875073446918,156.4211628202536 L 633.848899373241,161.7235140998426 L 632.0642473194624,162.5009528319283 L 629.9821535409861,162.95944533031516 L 624.6281973796544,163.23852900926488 L 622.1296846505634,164.17545913887025 L 612.5917112728155,175.06051638024547 L 603.7477691545637,190.1542745967869 L 595.1219510976794,197.73203281889218 L 584.8304579693187,200.64366046634063 L 520.4243504123676,208.9004445204487 L 513.6228434845907,211.73266073364965 L 513.5509618839424,211.42450295621433 L 507.15437250196265,203.4203660342388 L 502.97392462513005,197.3417622013593 L 500.3044816327417,190.0479911406245 L 499.24677801642315,184.78064189054638 L 499.0956775937186,179.51360579866466 L 493.9582590582989,170.094492537564 L 488.21643883207344,161.28396496037104 L 489.0223084105689,156.524615426345 L 492.24578650534556,152.3730483281476 L 496.7788024734039,149.38606393745866 L 499.4986122733944,143.05803438021937 L 502.41988930363436,135.31312948898363 L 507.15437250196265,132.12424365134402 L 511.98958975369356,132.88349193233327 L 514.130180828371,133.6174382112414 L 524.0776325543293,136.98354319747213 L 537.1226453561649,137.2366386706081 L 548.6566530544449,132.9341086809066 L 560.6943288283629,132.2254761095322 L 571.2209997178978,134.5538608694517 L 579.0278605882983,137.337877278169 L 585.3237163551635,139.81825490145366 L 589.5041644511157,136.679829122902 L 588.5471944499402,129.28977227203433 L 589.3026972208661,121.95092667023695 L 590.9648029662459,115.5235951026441 L 595.6992863837304,120.17956973820496 L 599.8293676721089,130.9094592141466 L 606.4274245035149,134.1489200001841 L 616.3496928256843,132.52917504249456 L 622.7966492343817,133.38966112921003 L 626.8259966885016,135.7686936696701 L 629.9991079757048,134.2501549378538 L 632.8700179792556,128.47993951607023 L 638.6622052321661,125.69619448162697 L 646.5697999368538,128.07502573302625 L 652.2108865479361,129.59346116796144 L 656.6431691199994,132.9341086809066 L 660.0681144450501,137.38849651428072 L 659.2118780590137,138.5527476375714 L 657.4490384793468,144.67796758486426 L 657.4872626155991,153.1893859347483" fill="none" stroke="#000000" stroke-width="0.8"/>
	<path d="M 647.6983684737688,72.44837250612554 L 648.8994644825674,72.1234661482755 L 653.5197303091028,68.87742443428542 L 655.5026770084611,67.96138387289174 L 658.1994843830992,67.94147010045268 L 662.3438430115383,69.23587730730958 L 664.1086654058329,69.49476099623672 L 674.7769184095283,67.28431627416417 L 685.2072179359832,62.624630646342666 L 710.1725162983923,44.904004482072814 L 715.6454491983343,42.554777858191976 L 719.750148751469,43.51038839361602 L 723.4979178450893,46.25782248223314 L 740.6305769765598,54.44087117636623 L 745.330160466405,55.69526983683816 L 751.3583184713759,56.25278577226414 L 757.2873289099341,55.69526983683816 L 761.5704936927996,53.60461460308145 L 769.0660321237364,48.28858582911111 L 770.731707195237,47.63156933263604 L 773.8845923521836,48.32840529842521 L 775.0743604692559,49.901282016042224 L 775.7287328970788,52.05158654429948 L 777.3745785527673,54.44087117636623 L 782.5302398248598,57.527120140318544 L 793.5752527038658,60.513909128035216 L 798.2351773620377,63.640183490978806 L 800.0,68.53888658566602 L 797.5609755183985,72.72090936482788 L 779.7541145432482,86.00505449811052 L 768.5901249256361,97.19946872326484 L 746.2423160309281,114.5315814998093 L 730.4977196621055,129.79452654541583 L 728.8320443469412,132.30538651771673 L 725.9369423267234,132.5445197886675 L 708.863771442714,136.33087851997573 L 693.1786633213525,147.67097488123747 L 686.1986911638447,151.1191250237528 L 657.4872626155991,153.1893859347483 L 657.4490384793468,144.67796758486426 L 659.2118780590137,138.5527476375714 L 660.0681144450501,137.38849651428072 L 663.0901250904291,133.33904390626253 L 668.1771765991354,126.05048451463918 L 674.775233211389,121.19176939389118 L 677.7972440759121,118.71189981015027 L 675.9840376886798,114.71388479874142 L 669.2348802154457,107.88223772502222 L 660.6725165741234,100.14031880763075 L 656.9957369921057,96.54788473625806 L 659.0607776363091,93.25915923691667 L 659.7155465729479,89.11047236825397 L 655.8372995415284,86.78324134657493 L 653.1678565491115,84.00075956004937 L 651.4050171885887,77.87959269050357 L 647.6983684737688,72.44837250612554" fill="none" stroke="#000000" stroke-width="0.8"/>
	<path d="M 514.5688104952101,89.97883857923317 L 517.7870315288461,89.55046977254757 L 528.7527265008865,89.39112227194741 L 538.5484830153592,88.01676225218964 L 543.5851675488416,85.50711381989987 L 554.3327384594821,77.91882723984683 L 562.1058891993002,75.68826764128676 L 570.1963115669433,71.16756485360887 L 572.8931191852411,70.70953223181021 L 577.7513384889926,70.62987458180993 L 580.3093397092329,69.49476099623672 L 584.7114812307126,72.70099457829961 L 589.8869719186214,74.77216027778644 L 595.4987109729898,75.94716922234004 L 601.1897679343235,76.32556504025274 L 604.7590720418766,77.56034101588263 L 613.7418203145875,86.04488976992718 L 623.7953599657318,82.65894413447965 L 642.4945468459172,73.85606215739165 L 647.6983684737688,72.44837250612554 L 651.4050171885887,77.87959269050357 L 653.1678565491115,84.00075956004937 L 655.8372995415284,86.78324134657493 L 659.7155465729479,89.11047236825397 L 659.0607776363091,93.25915923691667 L 656.9957369921057,96.54788473625806 L 660.6725165741234,100.14031880763075 L 669.2348802154457,107.88223772502222 L 675.9840376886798,114.71388479874142 L 677.7972440759121,118.71189981015027 L 674.775233211389,121.19176939389118 L 668.1771765991354,126.05048451463918 L 663.0901250904291,133.33904390626253 L 660.0681144450501,137.38849651428072 L 656.6431691199994,132.9341086809066 L 652.2108865479361,129.59346116796144 L 646.5697999368538,128.07502573302625 L 638.6622052321661,125.69619448162697 L 632.8700179792556,128.47993951607023 L 629.9991079757048,134.2501549378538 L 626.8259966885016,135.7686936696701 L 622.7966492343817,133.38966112921003 L 616.3496928256843,132.52917504249456 L 606.4274245035149,134.1489200001841 L 599.8293676721089,130.9094592141466 L 595.6992863837304,120.17956973820496 L 590.9648029662459,115.5235951026441 L 589.3026972208661,121.95092667023695 L 588.5471944499402,129.28977227203433 L 589.5041644511157,136.679829122902 L 585.3237163551635,139.81825490145366 L 579.0278605882983,137.337877278169 L 571.2209997178978,134.5538608694517 L 560.6943288283629,132.2254761095322 L 548.6566530544449,132.9341086809066 L 537.1226453561649,137.2366386706081 L 524.0776325543293,136.98354319747213 L 514.130180828371,133.6174382112414 L 519.2424153025943,128.8848548821479 L 522.0629587177278,124.98761855153256 L 523.6746978746576,119.57225528885573 L 523.2213961682928,111.57632451970007 L 522.465893616519,104.18829956530509 L 521.7607578723107,98.47057865044242 L 519.2424153025943,93.66391883696375 L 514.5688104952101,89.97883857923317" fill="none" stroke="#000000" stroke-width="0.8"/>
	<path d="M 355.69934558453326,105.98508162983536 L 368.29268283547356,100.30705542169471 L 374.2415229335076,99.58991082655635 L 380.54729324736394,101.42262504844311 L 383.4027364359451,101.26325706173941 L 390.0654372092956,94.5700538088346 L 394.5468966377123,96.52218807605563 L 401.7648225161244,96.72138773606841 L 414.9910767400356,94.5700538088346 L 438.23165590572165,87.06335615753285 L 442.4833433761022,92.60142800602684 L 438.6554633713798,97.71161568745428 L 433.92097973477985,101.2534958675835 L 428.5820941882301,107.83163486814357 L 422.4247472517531,109.56479981297502 L 421.93367076840275,109.70396069493798 L 415.28524712943135,105.80754191523778 L 405.917013909638,105.20032274669714 L 394.73557430261235,110.66543980715323 L 386.47541172582265,115.16934593542925 L 380.63285766531817,116.3333130141489 L 372.87636338334323,118.96494487913519 L 363.30666293327585,120.38200863908334 L 361.06533824346354,118.72455235521628 L 357.5648427070504,116.13088286418139 L 356.05383716523113,108.23645872430961 L 355.69934558453326,105.98508162983536" fill="none" stroke="#000000" stroke-width="0.8"/>
	<path d="M 375.0743603474302,15.005468094603332 L 377.73150889042756,10.746384040159095 L 383.7993257270677,4.397912547472724 L 390.46202650042227,0.0 L 394.883997681382,1.9103808684253345 L 392.80190365926654,9.71149513102028 L 383.4027364359451,32.72051201005213 L 381.7370611207766,40.165793682682185 L 380.6662699859782,42.136701372164275 L 378.4057107341034,43.86874489172808 L 376.10549265056346,44.585461957636745 L 375.0743603474302,43.51038839361602 L 373.46817376704195,42.594594914050845 L 365.61570487661913,40.22551764512393 L 362.46281971970524,38.433817817950576 L 359.904818499465,35.54726158780625 L 359.07198084187877,33.19826658683578 L 359.72635326973835,30.809517675442375 L 361.629982062119,27.56489630156206 L 364.6638904804268,24.6388601382979 L 373.2897085373153,18.130243332013052 L 375.0743603474302,15.005468094603332" fill="none" stroke="#000000" stroke-width="0.8"/>
	<path d="M 261.4282122819145,148.11418467943113 L 262.2843543985878,135.49388025018897 L 264.3664484207033,129.91408967380517 L 267.51933357764983,124.93242331086743 L 271.50505639214595,121.46534442821788 L 276.3831053553856,119.83147937689034 L 287.5470949729976,118.11794496454779 L 292.20701963116954,115.60747567405859 L 294.1701366710438,115.12929889639747 L 303.0933966962691,116.44429111139918 L 305.829863146236,115.68717208748257 L 313.0477890246277,111.42351374318365 L 329.1889746845974,106.78153153986328 L 334.08685306364924,106.2436347815718 L 350.12889140083723,107.31943169286734 L 355.1259171026789,106.2436347815718 L 355.69934558453326,105.98508162983536 L 356.05383716523113,108.23645872430961 L 357.5648427070504,116.13088286418139 L 361.06533824346354,118.72455235521628 L 358.4714459006808,123.21620262127162 L 356.8974819589472,125.94925893333347 L 350.4127505541488,125.64558176377439 L 341.69928627099836,128.6317824844381 L 335.1012298778601,133.74398115938456 L 330.76968092093574,137.13540039646588 L 320.9985130214749,139.00832833666547 L 309.21267128537175,141.2356441745047 L 302.866448710933,144.67796758486426 L 291.63464229633377,149.082308589906 L 280.0124927943832,151.588322623995 L 278.28742842996553,151.96802776197882 L 271.0346026619493,152.01865520546204 L 266.19938541021435,149.94295184333728 L 261.47749380420237,148.13307874055752 L 261.4282122819145,148.11418467943113" fill="none" stroke="#000000" stroke-width="0.8"/>
	<path d="M 350.4127505541488,125.64558176377439 L 356.8974819589472,125.94925893333347 L 358.01814419429564,125.99987159981282 L 360.4861195181749,130.9094592141466 L 357.66557632219354,138.45150789157364 L 352.42742439076653,141.43813023344885 L 344.57019671281284,144.12111220487446 L 343.96579436459547,147.1079220356418 L 347.84404139601503,151.0061113094863 L 345.9804682012336,156.42335548936953 L 342.00148733553505,161.28396496037104 L 345.57753330240973,164.9295951750326 L 352.12522332624616,168.17028024163173 L 353.2332939692661,172.62641432185515 L 355.2479675867683,176.37379058440698 L 356.4064052564854,178.5513924335154 L 355.65090248555947,184.78064189054638 L 351.26898715932924,188.68047602631594 L 349.6068811948014,192.88438595548288 L 346.6856039454378,196.12609180491486 L 344.3687292633866,199.36791688951706 L 344.21762884070665,205.29468718691444 L 337.00257806876704,207.38434910587657 L 331.07188198547243,209.09410939133068 L 315.8610949243187,209.65137184877426 L 313.3427525737503,203.82562137936182 L 312.63761661039393,196.53131333341244 L 311.3280787371163,191.6687769923027 L 304.4781878678954,177.79175769927483 L 297.6282967795264,164.52451788759703 L 294.65665294171686,159.5624688901228 L 290.7784059103014,157.63848293564473 L 281.7627405625857,155.8664274374654 L 280.0124927943832,151.588322623995 L 291.63464229633377,149.082308589906 L 302.866448710933,144.67796758486426 L 309.21267128537175,141.2356441745047 L 320.9985130214749,139.00832833666547 L 330.76968092093574,137.13540039646588 L 335.1012298778601,133.74398115938456 L 341.69928627099836,128.6317824844381 L 350.4127505541488,125.64558176377439" fill="none" stroke="#000000" stroke-width="0.8"/>
	<path d="M 405.917013909638,105.20032274669714 L 415.28524712943135,105.80754191523778 L 421.93367076840275,109.70396069493798 L 422.4247472517531,109.56479981297502 L 420.9263337405137,117.95276968977304 L 424.351279284688,125.79742000173367 L 427.77622460973464,130.9094592141466 L 431.5537380260437,139.6157726905258 L 432.5484832424683,151.27190297348238 L 426.1644856719244,150.75297678573457 L 422.0847711910828,152.06928289771426 L 417.7028556457411,156.42335548936953 L 408.8382909398821,160.92953642590263 L 404.0534407148321,161.42320484232482 L 404.80894348575805,155.61327944514562 L 400.6788619782314,154.90446903976536 L 393.5267698253257,156.0183164433339 L 390.50475939906624,158.0435292955431 L 387.48274853456763,160.0687878817504 L 382.244596603161,161.23333228964964 L 380.63285766531817,165.73975547690523 L 375.6969067984727,171.71491424679837 L 367.7389452862156,174.65200351442266 L 356.3056716413423,176.22186697199953 L 355.2479675867683,176.37379058440698 L 353.2332939692661,172.62641432185515 L 352.12522332624616,168.17028024163173 L 345.57753330240973,164.9295951750326 L 342.00148733553505,161.28396496037104 L 345.9804682012336,156.42335548936953 L 347.84404139601503,151.0061113094863 L 343.96579436459547,147.1079220356418 L 344.57019671281284,144.12111220487446 L 352.42742439076653,141.43813023344885 L 357.66557632219354,138.45150789157364 L 360.4861195181749,130.9094592141466 L 358.01814419429564,125.99987159981282 L 356.8974819589472,125.94925893333347 L 358.4714459006808,123.21620262127162 L 361.06533824346354,118.72455235521628 L 363.30666293327585,120.38200863908334 L 372.87636338334323,118.96494487913519 L 380.63285766531817,116.3333130141489 L 386.47541172582265,115.16934593542925 L 394.73557430261235,110.66543980715323 L 405.917013909638,105.20032274669714" fill="none" stroke="#000000" stroke-width="0.8"/>
</svg>
