<?xml version="1.0" ?>
<svg xmlns="http://www.w3.org/2000/svg" xmlns:ev="http://www.w3.org/2001/xml-events" xmlns:xlink="http://www.w3.org/1999/xlink" baseProfile="full" height="600px" version="1.1" viewBox="-81.13894322088326 -228.9275873975369 962.2778864417666 2735.74161656161" width="212px">
	<defs/>
	<path d="M 722.96392601298,999.1682062477258 L 727.7868052335438,1001.0220399064522 L 730.0227493610382,1003.1758347934731 L 732.0376989402471,1005.6568904852422 L 736.0545984569146,1008.54704896661 L 736.4185893836759,1012.17358961577 L 736.1325966267565,1019.1273841620177 L 733.6366590257683,1022.5091476842788 L 727.5268117600607,1015.4185869781539 L 724.0558984737958,1017.0547907966842 L 722.2489438011755,1019.0728413948218 L 722.5609358415636,1021.5818697640296 L 725.3298668772213,1024.5819419533536 L 722.6909325782998,1027.8822061152928 L 720.974975717229,1031.4008830948878 L 716.4900878205111,1030.4189044086834 L 713.5131621977544,1033.910461685009 L 712.0311992072297,1039.639268055556 L 712.0441988489587,1045.3686590548468 L 708.0532986157383,1043.131398560976 L 705.843353771691,1039.3118917764962 L 703.5294117938337,1031.4008830948878 L 708.6512837325355,1029.3551137541776 L 708.9112772060079,1025.4274455847656 L 706.9613258354436,1021.6364149630189 L 705.5183620895848,1020.000077971416 L 701.8914527831257,1023.1364326797523 L 700.8384789280178,1028.1276880972462 L 699.395515182159,1031.3463280869553 L 694.5986349255634,1029.1641792476908 L 694.2866428851861,1031.0190004925544 L 693.3506661250747,1031.4008830948878 L 691.9077023792158,1031.2917734671948 L 690.0357491784827,1031.4008830948878 L 685.8628533221422,1021.5000517295783 L 691.9077023792158,1016.5093842413937 L 700.8904778143911,1011.7645696495521 L 705.5183620895848,1002.7123531516722 L 707.7023073307059,1000.3950010316864 L 712.8241792693971,999.1682062477258 L 718.6610334198926,998.7865421290885 L 722.96392601298,999.1682062477258" fill="none" stroke="#000000" stroke-width="2.2778864417665363"/>
	<path d="M 500.14949623926975,1083.033542101266 L 496.84757893439604,1077.6278895863497 L 497.77055573329955,1072.768709618469 L 501.4884628513186,1070.311981769002 L 506.51933697844964,1072.2500580749102 L 508.7682807476837,1076.3448064951008 L 507.676307967389,1080.1941439759137 L 504.41338958769137,1082.7332144162287 L 500.14949623926975,1083.033542101266" fill="none" stroke="#000000" stroke-width="2.2778864417665363"/>
	<path d="M 416.7825804382353,1919.7887264971114 L 418.7715307339756,1932.4683270196058 L 418.6025350720634,1937.629882889819 L 416.7825804382353,1950.230783979029 L 417.0425739117183,1971.6097185021592 L 415.0146246907912,1975.0534278258765 L 410.03574913056514,1972.081825832543 L 408.007799909638,1966.88889596715 L 403.9519011483047,1962.723839799303 L 394.77413076775935,1955.7828623172848 L 394.77413076775935,1953.4509133709855 L 396.035099209977,1952.9512242484088 L 399.14202156946993,1951.0913150792444 L 397.2700683687475,1947.3994642101452 L 396.93207672542263,1942.7642232826936 L 398.5700357361306,1938.795470163707 L 404.92687683359225,1936.0203077029905 L 406.95482605450866,1933.4117969447761 L 410.03574913056514,1927.806739599191 L 410.77673062581675,1925.6980707860907 L 413.1426714900581,1920.6209857342856 L 415.6126098075884,1917.15333080175 L 416.7825804382353,1919.7887264971114" fill="none" stroke="#000000" stroke-width="2.2778864417665363"/>
	<path d="M 368.6057848826611,1862.4796193977265 L 372.08969781064434,1865.0566963322474 L 373.2856680442387,1867.7170445303516 L 372.9736756843717,1873.0381666859528 L 370.2177446099112,1876.031547353525 L 352.0441988329826,1889.4208137879596 L 350.90022748579355,1892.3597270275548 L 351.4202144327489,1895.9920201554446 L 352.5121872130436,1899.8186926490168 L 353.136171613288,1903.3960661280782 L 351.96620098263037,1907.4451872326645 L 349.1192720966098,1909.774968542442 L 345.51836207360867,1910.9399002299838 L 342.0214495038965,1911.5501132188297 L 335.1186221760324,1909.9691217533484 L 331.88170307979254,1907.1401050456361 L 326.75983114109073,1897.350732678864 L 322.5609360013031,1893.3024340886104 L 307.3383165636841,1885.7058322757018 L 304.933376774256,1888.256386671629 L 297.0165745164492,1883.598951054452 L 292.4926876945446,1881.8248046186252 L 288.5017874613243,1881.1040757840829 L 285.4728632716625,1879.3854564474827 L 277.5820606167819,1868.2990144838682 L 272.99317526676435,1859.071431365434 L 276.0350990981551,1850.7874565457953 L 283.4319144090171,1844.5269014531893 L 291.8557036525713,1841.590804476518 L 287.87780306107993,1846.4382266432424 L 282.820929650491,1850.7874565457953 L 280.6629833733487,1855.22018186958 L 285.31686725146847,1860.1520510790608 L 288.7747805765362,1861.5929138598965 L 291.62170946254616,1861.7037512333295 L 309.73025671136185,1858.1570790245014 L 312.68118305067145,1858.9883076097512 L 315.07312319837064,1860.9001862769678 L 317.59506008279527,1862.4241996486085 L 319.62300962320137,1864.5578967519625 L 320.415989685358,1868.2990144838682 L 315.64510903171,1871.3752548388038 L 313.435164187652,1874.2022379543814 L 314.76113115798256,1877.6946145837983 L 318.1150473492403,1879.025108208376 L 321.31296720081434,1877.611459784511 L 324.51088737186734,1875.2831854999067 L 327.85180392139614,1874.1190889833415 L 331.7907052682325,1874.7842836144064 L 337.4455637956186,1877.9440794739362 L 340.0324992081455,1878.7756379040213 L 344.77738057835705,1877.611459784511 L 346.6623334208084,1874.0359401510325 L 348.5212869798233,1869.3521204928022 L 353.136171613288,1864.807295918838 L 356.4120896347039,1863.255499281952 L 360.53298660467107,1862.0639739709468 L 364.8228795560188,1861.6483323456082 L 368.6057848826611,1862.4796193977265" fill="none" stroke="#000000" stroke-width="2.2778864417665363"/>
	<path d="M 1.8589535590148785,2272.7722878048544 L 4.822879540053403,2273.8062525745336 L 6.7728309106176665,2275.538892651983 L 5.5768606770232525,2276.9641764719813 L 3.925902024597074,2277.8864417665363 L 2.911927414133504,2277.8864417665363 L 1.0919727803054096,2276.6288115719963 L 0.0,2274.812294089466 L 0.33799164332486886,2273.107625396449 L 1.8589535590148785,2272.7722878048544" fill="none" stroke="#000000" stroke-width="2.2778864417665363"/>
	<path d="M 593.6691584256055,1414.1196951259424 L 597.998049982661,1412.581434044296 L 601.3649658156369,1409.5325127912754 L 603.7049073964204,1405.2203732356036 L 604.978875480367,1400.0572524928573 L 606.551836282441,1400.3867985864354 L 610.0487488521532,1401.7599284450744 L 611.3097172943708,1402.5838233788434 L 608.7747807682172,1408.5162444858563 L 608.3457913133323,1415.1635404834997 L 606.7338315860821,1420.163294940107 L 600.6109846786563,1421.0424211277857 L 598.1670459640521,1419.7786816885791 L 596.2040949517697,1418.2951994104556 L 594.6961326777872,1416.4821112966906 L 593.6691584256055,1414.1196951259424" fill="none" stroke="#000000" stroke-width="2.2778864417665363"/>
	<path d="M 367.40981496856705,1383.9669083937692 L 372.5056873043214,1387.9478549236721 L 374.8456288851155,1397.17381268479 L 374.26064341004724,1407.3077346811012 L 370.5947351784122,1414.1196951259424 L 370.5947351784122,1411.5925756946892 L 368.6057848826611,1414.1196951259424 L 367.0198244388582,1412.1694074658828 L 365.3428665029742,1411.0432175264903 L 361.6639583101419,1409.5050458976702 L 361.9109521418853,1409.3677113051249 L 361.54696153460293,1408.5162444858563 L 361.6639583101419,1407.1978714550282 L 357.7640558884816,1396.7069849361471 L 357.49106277328036,1393.3569279434043 L 358.66103340392726,1386.9319988145228 L 360.58498549104434,1384.1865391902902 L 363.4579136605228,1383.74727850202 L 367.40981496856705,1383.9669083937692" fill="none" stroke="#000000" stroke-width="2.2778864417665363"/>
	<path d="M 611.3227169360997,1391.050454159073 L 616.9515761800279,1387.9203991714708 L 620.1494963510917,1383.500196039575 L 622.7754306888054,1378.8607498896256 L 626.7793305637546,1374.7432362248926 L 628.4562884996386,1379.684290682125 L 627.4943127755483,1384.0218158393916 L 625.6223595748153,1388.1125900713746 L 624.5953850031544,1392.2036783950775 L 622.2294441389132,1396.487302508217 L 617.1595710865953,1396.9815890776101 L 612.4796879250284,1394.78479527958 L 611.3227169360997,1391.050454159073" fill="none" stroke="#000000" stroke-width="2.2778864417665363"/>
	<path d="M 625.6873577834492,1356.492746398374 L 629.7952551116874,1358.3037948830179 L 631.0692231956234,1361.788863698406 L 629.3922652597394,1364.313622125454 L 624.5953850031544,1363.2158861740256 L 621.0984724334317,1358.22147338234 L 616.8735780101862,1349.9350687934987 L 615.4046149808801,1343.7348229935162 L 620.2404938431621,1344.8047256796874 L 621.878453173349,1347.6304687260247 L 623.4774129394019,1355.0110251865922 L 625.6873577834492,1356.492746398374" fill="none" stroke="#000000" stroke-width="2.2778864417665363"/>
	<path d="M 187.84530407656754,0.0 L 193.82515460553893,4.55966706016356 L 192.1741956336338,13.840890807096413 L 185.34936647559007,21.35265153783073 L 175.8466040934701,20.44046408369457 L 170.2957426998833,14.109153402387285 L 171.23171945999468,7.456558001487866 L 177.48456310416734,2.145686840545781 L 187.84530407656754,0.0" fill="none" stroke="#000000" stroke-width="2.2778864417665363"/>
	<path d="M 794.2021447746805,125.42439821591866 L 798.4010399144895,122.81791239101099 L 800.0,122.89852359497735 L 799.8050047351616,127.41292105464967 L 796.3730906935517,133.1101054002367 L 791.693207531974,137.65208492482145 L 786.7013323300191,137.59833165106727 L 784.03639906714,134.13135134707412 L 784.1923950873233,131.6588887389561 L 787.5203119951233,128.67593332476287 L 794.2021447746805,125.42439821591866" fill="none" stroke="#000000" stroke-width="2.2778864417665363"/>
</svg>
