<?xml version="1.0" ?>
<svg xmlns="http://www.w3.org/2000/svg" xmlns:ev="http://www.w3.org/2001/xml-events" xmlns:xlink="http://www.w3.org/1999/xlink" baseProfile="full" height="596px" version="1.1" viewBox="-80.22711259271922 -79.59913986364538 958.7339524761768 951.1982797272908" width="600px">
	<defs/>
	<path d="M 647.2375819667388,605.452531290767 L 649.0929678420065,602.7947726355328 L 649.9519426474517,600.5512788960622 L 649.5739938174962,598.5839591303622 L 648.6806598931797,596.06447992338 L 648.5604035048613,592.6132666984079 L 648.9555317887019,588.1786750975284 L 650.4329686229203,591.0257584355759 L 650.6047635840164,596.2025313930108 L 652.3570725248508,598.9290994101824 L 652.7865599275627,600.8964276527785 L 651.1373281322554,602.8810621046122 L 647.2375819667388,605.452531290767" fill="none" stroke="#000000" stroke-width="0.7982797272907384"/>
	<path d="M 476.0954242957592,505.3977683219139 L 474.5664490998713,505.1909193932139 L 475.03029541037483,502.45021749223713 L 476.64516829789056,498.88226684420437 L 478.22568206656325,496.19347558001965 L 476.0954242957592,505.3977683219139" fill="none" stroke="#000000" stroke-width="0.7982797272907384"/>
	<path d="M 216.87398108300084,320.7553780553122 L 216.82244251024431,320.27372828978105 L 216.41013456142457,319.276032649781 L 216.3414165347617,318.81159162428537 L 216.95987856354887,320.25652638412055 L 217.02859637911078,321.1338191025793 L 216.87398108300084,321.3746459730873 L 216.87398108300084,320.7553780553122" fill="none" stroke="#000000" stroke-width="0.7982797272907384"/>
	<path d="M 39.90797334457402,131.75071621830236 L 40.938743322195094,128.9864406523819 L 41.729000312078384,128.90059472126907 L 41.625923166551246,130.22262973804163 L 39.90797334457402,131.75071621830236" fill="none" stroke="#000000" stroke-width="0.7982797272907384"/>
	<path d="M 257.2973395219288,93.50347946596021 L 256.40400559764055,92.13039645391325 L 256.0432362215632,91.39237136269219 L 255.8370821416028,90.79165694378074 L 258.29375038067855,91.28939156016769 L 259.94298217598583,92.13039645391325 L 259.874264149323,93.02289847369866 L 257.2973395219288,93.50347946596021" fill="none" stroke="#000000" stroke-width="0.7982797272907384"/>
	<path d="M 2.1130781058179036,3.224194132351724 L 0.0,0.34299521789443416 L 0.9792311937635974,0.0 L 3.1953864450874465,2.0408360523380034 L 4.896156813179502,6.156914212776916 L 2.1130781058179036,3.224194132351724" fill="none" stroke="#000000" stroke-width="0.7982797272907384"/>
	<path d="M 798.2797272907384,787.467309420259 L 798.1422912374127,791.5674791637987 L 797.9704962763378,792.0 L 797.7128038347007,787.7095069129036 L 796.5617774687682,784.8031879440075 L 797.1115214708784,785.0453767708998 L 798.2797272907384,787.467309420259" fill="none" stroke="#000000" stroke-width="0.7982797272907384"/>
	<path d="M 790.0679274330662,775.5314221035801 L 791.2189537990057,776.3097898950657 L 792.3012621382965,779.267663568899 L 791.9920311239028,779.7347070710845 L 790.8925433307198,777.0189768305513 L 789.9820299525181,775.7735801258103 L 790.0679274330662,775.5314221035801" fill="none" stroke="#000000" stroke-width="0.7982797272907384"/>
	<path d="M 539.9000794295118,382.94348276453934 L 536.7734107999934,377.05670319812793 L 536.1893078900704,375.02568036643845 L 541.0682852493364,379.3287486285981 L 541.6523881592524,379.5353009043332 L 542.133414134742,381.359867257116 L 542.2880296419318,383.44267162967805 L 541.7211061859152,384.45827139673133 L 539.9000794295118,382.94348276453934" fill="none" stroke="#000000" stroke-width="0.7982797272907384"/>
</svg>
