<?xml version="1.0" ?>
<svg xmlns="http://www.w3.org/2000/svg" xmlns:ev="http://www.w3.org/2001/xml-events" xmlns:xlink="http://www.w3.org/1999/xlink" baseProfile="full" height="600px" version="1.1" viewBox="-80.96613127878041 -194.19238703486226 961.9322625575608 2320.6473316305432" width="249px">
	<defs/>
	<path d="M 633.1193201864879,836.0117067751677 L 599.0066627903702,869.0242374211299 L 555.8812827070269,942.1592405520795 L 517.7952740903556,968.6437553029155 L 535.5299801745816,968.6437553029155 L 517.7952740903556,986.7276541589648 L 505.5844930472277,968.940216327935 L 486.6868560019901,957.7733867331852 L 462.55602606059296,952.9310686339717 L 434.936400854784,953.5240086004897 L 434.936400854784,935.4391019888932 L 470.40581302337546,946.5075238077497 L 524.482130092286,935.735579539465 L 524.5790431889747,916.1676934544503 L 508.7825561665616,898.2793158652873 L 501.5142334933971,885.8263160188428 L 521.2840693545683,866.652139539332 L 587.5711674666467,823.9527792283042 L 615.2877033872293,801.2180700637302 L 618.6795879365487,810.6085992634946 L 619.7456081824878,819.4059066193557 L 623.0405796352381,827.8077085652006 L 633.1193201864879,836.0117067751677" fill="none" stroke="#000000" stroke-width="1.9322625575608185"/>
	<path d="M 43.900665802767584,1877.1072592012167 L 72.58631125437621,1895.0653425901437 L 79.07934582648035,1915.98288679397 L 64.54270047997201,1925.7507405409553 L 39.5396717224221,1932.2625575608185 L 9.303452450189395,1929.993296893699 L 0.0,1916.9695457163186 L 9.884916739787453,1904.5375264665659 L 12.307691758080901,1894.374656140906 L 7.268322673363757,1885.494341893634 L 10.175651266322253,1879.0807004542326 L 27.425801394187292,1872.173628288775 L 43.900665802767584,1877.1072592012167" fill="none" stroke="#000000" stroke-width="1.9322625575608185"/>
	<path d="M 334.43973224989935,1571.7391242858378 L 341.8049656381363,1580.821443080581 L 346.45669186322107,1603.033068667367 L 333.76135486373215,1619.913360833114 L 319.90308928516663,1633.8318438426093 L 313.1193201865476,1655.0544539621192 L 299.9394296123737,1669.268252709535 L 275.61477824099103,1670.5514256943807 L 254.1974554625668,1662.260100255379 L 260.0121126485037,1654.8570358347345 L 287.1471818979518,1648.93452047577 L 299.7456081825475,1632.9434392871372 L 295.287703387289,1611.4239158622158 L 296.4506343481412,1587.7318148785591 L 317.96486784145856,1573.3186663721663 L 334.43973224989935,1571.7391242858378" fill="none" stroke="#000000" stroke-width="1.9322625575608185"/>
	<path d="M 638.4494237977199,1245.475013326138 L 658.8976370450981,1208.4332719156066 L 678.4736514765029,1212.5820617972504 L 657.9285275142116,1260.5873849292748 L 648.3343429191634,1274.2178293463555 L 640.678375004571,1275.5018398012432 L 638.4494237977199,1245.475013326138" fill="none" stroke="#000000" stroke-width="1.9322625575608185"/>
	<path d="M 528.5527706169388,528.6088023970232 L 448.89157922774575,472.35661165345454 L 479.48491985055495,439.65169909341677 L 527.8862890927388,404.593070784494 L 571.6036533397667,356.78246731600535 L 590.3396668945599,348.81365466646594 L 621.5663568663059,344.0323149497596 L 618.4436882974954,383.8756227535001 L 636.0409645902847,399.00116298633657 L 621.5663568663059,428.4969076806047 L 568.4809847709562,487.4555404715921 L 528.5527706169388,528.6088023970232" fill="none" stroke="#000000" stroke-width="1.9322625575608185"/>
	<path d="M 772.3610458851539,444.7927803868218 L 766.4688068935004,471.36757565691084 L 696.5960004205009,570.6585422847542 L 654.0520893902271,603.587006348699 L 594.5487579951117,575.2073290011723 L 528.5527706169388,528.6088023970232 L 568.4809847709562,487.4555404715921 L 621.5663568663059,428.4969076806047 L 636.0409645902847,399.00116298633657 L 648.1090418430356,409.3739157464042 L 679.335731814961,431.68401197497906 L 707.4397510760064,426.9033490350847 L 743.3504439010777,433.27755981041724 L 772.3610458851539,444.7927803868218" fill="none" stroke="#000000" stroke-width="1.9322625575608185"/>
	<path d="M 687.2800203731106,1.975721424607101 L 734.972743563687,9.700330987202815 L 752.1259829768182,16.233114345632544 L 761.623256856794,32.56474901921238 L 776.5475450631141,68.09683622864344 L 800.0,176.36226162602128 L 798.8370666574918,325.3674648066116 L 772.3610458851539,444.7927803868218 L 743.3504439010777,433.27755981041724 L 707.4397510760064,426.9033490350847 L 679.335731814961,431.68401197497906 L 648.1090418430356,409.3739157464042 L 636.0409645902847,399.00116298633657 L 618.4436882974954,383.8756227535001 L 621.5663568663059,344.0323149497596 L 630.9343625727374,320.1250275112498 L 648.1090418430356,286.65317995852627 L 679.335731814961,293.0289170781079 L 685.5810689525621,261.14953044373976 L 688.7037375212531,214.9213256711465 L 685.5810689525621,175.06647906940714 L 684.019734668107,141.58629683972214 L 691.8264082319539,96.94305399265681 L 712.1237560712021,93.75411768387339 L 710.5624217867072,61.86381001513124 L 687.1424032368976,52.29637413585353 L 687.2800203731106,1.975721424607101" fill="none" stroke="#000000" stroke-width="1.9322625575608185"/>
	<path d="M 455.9552480320314,279.33434706170146 L 468.952149917784,253.7389077169352 L 462.74984749039925,244.5373636073574 L 451.2174438333986,220.49393631039408 L 515.4694121686314,210.10449353073955 L 542.9921242777317,155.18578662251824 L 559.3700779712794,85.11979500144201 L 590.1877639147663,28.9025432758048 L 620.9085391433599,9.106437050131793 L 649.4972738800356,0.7918700977288211 L 675.0817669271835,0.0 L 687.2800203731106,1.975721424607101 L 687.1424032368976,52.29637413585353 L 710.5624217867072,61.86381001513124 L 712.1237560712021,93.75411768387339 L 691.8264082319539,96.94305399265681 L 684.019734668107,141.58629683972214 L 685.5810689525621,175.06647906940714 L 688.7037375212531,214.9213256711465 L 685.5810689525621,261.14953044373976 L 679.335731814961,293.0289170781079 L 648.1090418430356,286.65317995852627 L 616.8823518712496,254.77344491765612 L 584.0943297569189,283.4652852804156 L 552.3872285769853,305.0445412463183 L 499.7822676896637,293.0289170781079 L 455.9552480320314,279.33434706170146" fill="none" stroke="#000000" stroke-width="1.9322625575608185"/>
	<path d="M 448.89157922774575,472.35661165345454 L 429.80012105501424,400.9438827295391 L 436.1962449123448,318.2445750565187 L 455.9552480320314,279.33434706170146 L 499.7822676896637,293.0289170781079 L 552.3872285769853,305.0445412463183 L 584.0943297569189,283.4652852804156 L 616.8823518712496,254.77344491765612 L 648.1090418430356,286.65317995852627 L 630.9343625727374,320.1250275112498 L 621.5663568663059,344.0323149497596 L 590.3396668945599,348.81365466646594 L 571.6036533397667,356.78246731600535 L 527.8862890927388,404.593070784494 L 479.48491985055495,439.65169909341677 L 448.89157922774575,472.35661165345454" fill="none" stroke="#000000" stroke-width="1.9322625575608185"/>
</svg>
