<?xml version="1.0" ?>
<svg xmlns="http://www.w3.org/2000/svg" xmlns:ev="http://www.w3.org/2001/xml-events" xmlns:xlink="http://www.w3.org/1999/xlink" baseProfile="full" height="270px" version="1.1" viewBox="-80.4 -36.30476569359418 960.8 431.6571883231302" width="600px">
	<defs/>
	<path d="M 247.70664463072788,0.0 L 260.63173199866804,0.09892195844516556 L 273.7504543338487,2.473075477921535 L 286.60292903521054,8.309703348010045 L 298.6566626196631,18.697509454461798 L 333.0025419496829,58.07908551640746 L 288.7060082042254,60.10560843441405 L 280.5374549064011,107.42823125187955 L 258.83872865452025,106.85932984659603 L 232.9188683003655,106.17976105639393 L 219.13913052763087,105.81848404923188 L 247.70664463072788,0.0" fill="none" stroke="#000000" stroke-width="0.8"/>
	<path d="M 575.614200451151,212.15119093660005 L 589.0596640568261,215.1202716904997 L 589.5810537820385,248.09779573634447 L 577.3282238353319,245.3108908112955 L 575.614200451151,212.15119093660005" fill="none" stroke="#000000" stroke-width="0.8"/>
	<path d="M 552.317560186334,328.0093549108721 L 539.4838685981184,329.7184004009389 L 541.9311599014558,291.30195985235133 L 555.9750496937967,292.59497274055707 L 552.317560186334,328.0093549108721" fill="none" stroke="#000000" stroke-width="0.8"/>
	<path d="M 85.41691902477471,36.012193143291185 L 99.47960840492355,28.294532324556073 L 106.23260364748072,26.513593145136223 L 119.39973383221772,25.326312462243965 L 126.92726656436703,23.446471460039746 L 142.97470692315028,15.234823607940536 L 149.87292749888402,12.860458961747531 L 196.73242182471088,12.860458961747531 L 208.8587680757418,10.980781443104652 L 233.98281495615365,2.5225379080867687 L 247.70664463072788,0.0 L 219.13913052763087,105.81848404923188 L 121.25066559907634,103.25207175551792 L 89.68639407059538,83.31959786346647 L 85.41691902477471,36.012193143291185" fill="none" stroke="#000000" stroke-width="0.8"/>
	<path d="M 47.053128698224896,93.51200277282716 L 37.976522176616186,85.09836016627906 L 36.11279230891915,82.07946917504336 L 35.4350723029672,75.69546706564964 L 33.910202140844774,72.4293440337934 L 30.521602705887744,70.548882972823 L 22.65521026818373,71.2416815598335 L 19.53285787218317,70.20248524697836 L 12.731453590404545,62.136598355545225 L 3.6306428465964213,48.18319628795611 L 0.0,34.92377965411689 L 9.536488527845552,28.98712593512722 L 29.868086922115303,28.98712593512722 L 52.015006739703175,37.2985101199765 L 72.20137980081626,37.892199201643564 L 85.41691902477471,36.012193143291185 L 89.68639407059538,83.31959786346647 L 74.96219708979311,74.02239292266212 L 47.053128698224896,93.51200277282716" fill="none" stroke="#000000" stroke-width="0.8"/>
	<path d="M 103.27968068843309,139.99399649004874 L 95.19544977455469,136.7759015679431 L 88.95074438777075,133.21132783150415 L 76.17088235296738,113.31077466666483 L 68.47392006546198,104.00500778597925 L 53.07999549045119,98.06547567890041 L 47.053128698224896,93.51200277282716 L 74.96219708979311,74.02239292266212 L 89.68639407059538,83.31959786346647 L 121.25066559907634,103.25207175551792 L 103.27968068843309,139.99399649004874" fill="none" stroke="#000000" stroke-width="0.8"/>
	<path d="M 276.0982697533641,187.58086626881047 L 254.65021894756183,195.33415692053842 L 232.9188683003655,106.17976105639393 L 258.83872865452025,106.85932984659603 L 276.0982697533641,187.58086626881047" fill="none" stroke="#000000" stroke-width="0.8"/>
	<path d="M 254.65021894756183,195.33415692053842 L 246.2301829129844,198.37804644084926 L 154.30231205723217,208.33398103609997 L 148.51748808178283,204.22273849765511 L 142.41800802815558,196.09967296780965 L 137.67396858127475,191.39445450139317 L 128.01645894247193,186.09508044274705 L 123.3934412014108,182.43021023500845 L 121.40868962791397,177.08165152510068 L 120.17427132178996,171.4856927017276 L 114.58308171875856,159.3041083818548 L 113.3002543734131,151.92634360825232 L 110.32312731058911,144.59847582728926 L 103.27968068843309,139.99399649004874 L 121.25066559907634,103.25207175551792 L 219.13913052763087,105.81848404923188 L 232.9188683003655,106.17976105639393 L 254.65021894756183,195.33415692053842" fill="none" stroke="#000000" stroke-width="0.8"/>
	<path d="M 338.83577436951117,205.65918306726502 L 335.20513152293466,208.33398103609997 L 321.0940336984268,208.18537957317622 L 314.87353312864497,206.84797593102908 L 308.60462351964173,203.8760123669717 L 299.2375651420147,195.85202595884624 L 294.37250398931417,189.85910105482506 L 288.5150673472865,186.6893930708731 L 276.0982697533641,187.58086626881047 L 258.83872865452025,106.85932984659603 L 280.5374549064011,107.42823125187955 L 314.57309346897773,178.44181346843 L 325.4644980443849,188.19156790158826 L 338.83577436951117,205.65918306726502" fill="none" stroke="#000000" stroke-width="0.8"/>
	<path d="M 333.0025419496829,58.07908551640746 L 333.5350360276356,60.652128573037466 L 332.518456316129,67.53029992322067 L 333.0025419496829,70.20248524697836 L 336.12489434568346,72.92420627046756 L 343.38617944399397,75.89341641635689 L 345.9276293176429,78.86268788767426 L 347.9849935577181,85.29632259984429 L 349.1225949750644,91.82923452287753 L 349.5824763864189,105.83641384191581 L 352.3417648546454,117.46886832278192 L 357.6182989743414,124.54780756320669 L 361.03110263147795,132.22118451129685 L 358.0781803857158,145.68772902978105 L 352.09972203786845,155.14478381610425 L 345.2741135338904,162.5722345144989 L 339.70712815301863,171.33713021844383 L 337.43192591320843,185.4017191911192 L 339.1988382972653,199.36865492982324 L 338.83577436951117,205.65918306726502 L 325.4644980443849,188.19156790158826 L 314.57309346897773,178.44181346843 L 280.5374549064011,107.42823125187955 L 288.7060082042254,60.10560843441405 L 333.0025419496829,58.07908551640746" fill="none" stroke="#000000" stroke-width="0.8"/>
	<path d="M 722.7399252116969,263.9714716757723 L 728.7667920611541,275.2205710422522 L 727.7986207871586,281.41539730197843 L 712.1093532492237,282.9388162254928 L 708.0250766003214,308.02975875116607 L 728.4464598448324,316.39441566332243 L 751.5906938320218,312.2120240512576 L 772.0120770765327,321.97113478136055 L 781.1690667729074,308.2297933625076 L 800.0,330.5873508027649 L 793.7552952080587,349.72551624042995 L 795.4737991477167,352.1055773547275 L 798.1846791715443,358.4526081334502 L 783.0570010406873,359.0476569359418 L 740.9657509787634,354.684023370424 L 715.8174998761918,357.01458342828073 L 704.1510350365154,355.9732647735273 L 691.8552586353057,349.72551624042995 L 682.1493405521041,354.9815393123529 L 672.2739927254709,354.38650782592106 L 664.459458833657,284.3326383454348 L 673.5810236932763,248.46208848253914 L 699.3343823282138,251.43499948275098 L 712.2836745131958,256.14223829881234 L 703.9407999514192,270.3950443700635 L 710.7479273429402,271.78874074691055 L 722.7399252116969,263.9714716757723" fill="none" stroke="#000000" stroke-width="0.8"/>
	<path d="M 712.2836745131958,256.14223829881234 L 722.7399252116969,263.9714716757723 L 710.7479273429402,271.78874074691055 L 703.9407999514192,270.3950443700635 L 712.2836745131958,256.14223829881234" fill="none" stroke="#000000" stroke-width="0.8"/>
	<path d="M 727.7986207871586,281.41539730197843 L 723.8291182418752,285.08286527797435 L 721.2876683682262,289.19649104844063 L 724.7004720253826,296.0362836709135 L 751.349389067917,293.2111110623188 L 781.1690667729074,308.2297933625076 L 772.0120770765327,321.97113478136055 L 751.5906938320218,312.2120240512576 L 728.4464598448324,316.39441566332243 L 708.0250766003214,308.02975875116607 L 712.1093532492237,282.9388162254928 L 727.7986207871586,281.41539730197843" fill="none" stroke="#000000" stroke-width="0.8"/>
	<path d="M 589.0596640568261,215.1202716904997 L 673.5810236932763,248.46208848253914 L 664.459458833657,284.3326383454348 L 672.2739927254709,354.38650782592106 L 653.4672640865366,349.72551624042995 L 643.8823677091747,350.6180344957229 L 618.3952563061661,358.4526081334502 L 612.2715720303196,358.25425890071483 L 607.0676511720643,356.5683028670369 L 603.4854173647292,353.19645268550113 L 602.1299773527854,348.08924797928944 L 599.6369359235551,342.88306978536195 L 593.7794992815474,340.4040057428125 L 581.8467874028946,337.677087389144 L 571.269514941343,332.02510008813243 L 561.9024571585585,328.80257906021234 L 552.317560186334,328.0093549108721 L 555.9750496937967,292.59497274055707 L 558.2682664970845,270.3950443700635 L 552.8225639418988,249.4912696227259 L 550.0454557536507,208.93894766829283 L 563.9356165815917,209.57233065909543 L 575.614200451151,212.15119093660005 L 577.3282238353319,245.3108908112955 L 589.5810537820385,248.09779573634447 L 589.0596640568261,215.1202716904997" fill="none" stroke="#000000" stroke-width="0.8"/>
	<path d="M 469.91047100004596,222.2476790107666 L 486.21566043914504,216.35868191264876 L 536.7784102781467,208.33398103609997 L 550.0454557536507,208.93894766829283 L 552.8225639418988,249.4912696227259 L 558.2682664970845,270.3950443700635 L 555.9750496937967,292.59497274055707 L 541.9311599014558,291.30195985235133 L 539.4838685981184,329.7184004009389 L 528.8636093960836,331.1327020509154 L 518.3831538232898,330.7856602646861 L 509.1613219685045,327.5631681368277 L 500.61720952482864,321.0192622850751 L 488.1762071955999,301.33983292495014 L 481.9315024036386,294.1032647477289 L 476.2192910947875,296.0362836709135 L 472.15297105901607,296.0362836709135 L 461.76933356470505,281.1675991821614 L 454.7984997275504,276.85597849837677 L 441.340917686815,275.2205710422522 L 482.0284355391627,249.4912696227259 L 469.91047100004596,222.2476790107666" fill="none" stroke="#000000" stroke-width="0.8"/>
	<path d="M 432.43374112418417,242.76418623156135 L 439.30775766891935,233.30122755364988 L 448.8314144579615,229.86123621971794 L 454.799924903091,243.9174586725826 L 446.6313716052866,248.09779573634447 L 432.43374112418417,242.76418623156135" fill="none" stroke="#000000" stroke-width="0.8"/>
	<path d="M 448.8314144579615,229.86123621971794 L 469.91047100004596,222.2476790107666 L 482.0284355391627,249.4912696227259 L 441.340917686815,275.2205710422522 L 429.2145714357841,269.7197964964773 L 427.6412928292628,256.8359501211507 L 432.43374112418417,242.76418623156135 L 446.6313716052866,248.09779573634447 L 454.799924903091,243.9174586725826 L 448.8314144579615,229.86123621971794" fill="none" stroke="#000000" stroke-width="0.8"/>
</svg>
